# Tiled2Unity generated file. Do not modify by hand.
# Wavefront file for 'Village_mesh_0041.obj'

# Vertices (Count = 144)
v -208 -224 0
v -224 -224 0
v -224 -208 0
v -208 -208 0
v -192 -224 0
v -208 -224 0
v -208 -208 0
v -192 -208 0
v -176 -224 0
v -192 -224 0
v -192 -208 0
v -176 -208 0
v -160 -224 0
v -176 -224 0
v -176 -208 0
v -160 -208 0
v -144 -224 0
v -160 -224 0
v -160 -208 0
v -144 -208 0
v -128 -224 0
v -144 -224 0
v -144 -208 0
v -128 -208 0
v -112 -224 0
v -128 -224 0
v -128 -208 0
v -112 -208 0
v -96 -224 0
v -112 -224 0
v -112 -208 0
v -96 -208 0
v -80 -224 0
v -96 -224 0
v -96 -208 0
v -80 -208 0
v -64 -224 0
v -80 -224 0
v -80 -208 0
v -64 -208 0
v -48 -224 0
v -64 -224 0
v -64 -208 0
v -48 -208 0
v -32 -224 0
v -48 -224 0
v -48 -208 0
v -32 -208 0
v -208 -240 0
v -224 -240 0
v -224 -224 0
v -208 -224 0
v -192 -240 0
v -208 -240 0
v -208 -224 0
v -192 -224 0
v -176 -240 0
v -192 -240 0
v -192 -224 0
v -176 -224 0
v -160 -240 0
v -176 -240 0
v -176 -224 0
v -160 -224 0
v -144 -240 0
v -160 -240 0
v -160 -224 0
v -144 -224 0
v -128 -240 0
v -144 -240 0
v -144 -224 0
v -128 -224 0
v -112 -240 0
v -128 -240 0
v -128 -224 0
v -112 -224 0
v -96 -240 0
v -112 -240 0
v -112 -224 0
v -96 -224 0
v -80 -240 0
v -96 -240 0
v -96 -224 0
v -80 -224 0
v -64 -240 0
v -80 -240 0
v -80 -224 0
v -64 -224 0
v -48 -240 0
v -64 -240 0
v -64 -224 0
v -48 -224 0
v -32 -240 0
v -48 -240 0
v -48 -224 0
v -32 -224 0
v -208 -256 0
v -224 -256 0
v -224 -240 0
v -208 -240 0
v -192 -256 0
v -208 -256 0
v -208 -240 0
v -192 -240 0
v -176 -256 0
v -192 -256 0
v -192 -240 0
v -176 -240 0
v -160 -256 0
v -176 -256 0
v -176 -240 0
v -160 -240 0
v -144 -256 0
v -160 -256 0
v -160 -240 0
v -144 -240 0
v -128 -256 0
v -144 -256 0
v -144 -240 0
v -128 -240 0
v -112 -256 0
v -128 -256 0
v -128 -240 0
v -112 -240 0
v -96 -256 0
v -112 -256 0
v -112 -240 0
v -96 -240 0
v -80 -256 0
v -96 -256 0
v -96 -240 0
v -80 -240 0
v -64 -256 0
v -80 -256 0
v -80 -240 0
v -64 -240 0
v -48 -256 0
v -64 -256 0
v -64 -240 0
v -48 -240 0
v -32 -256 0
v -48 -256 0
v -48 -240 0
v -32 -240 0

# Texture cooridinates (Count = 12)
vt 0.15 0.7222222
vt 0.175 0.7222222
vt 0.175 0.75
vt 0.15 0.75
vt 0.125 0.7222222
vt 0.125 0.75
vt 0.1 0.7222222
vt 0.1 0.75
vt 0.15 0.6944444
vt 0.175 0.6944444
vt 0.125 0.6944444
vt 0.1 0.6944444

# Normal
vn 0 0 -1

# Mesh description
g Village_mesh_0041

# Faces
f 1/1/1 2/2/1 3/3/1 4/4/1
f 5/5/1 6/1/1 7/4/1 8/6/1
f 9/5/1 10/1/1 11/4/1 12/6/1
f 13/5/1 14/1/1 15/4/1 16/6/1
f 17/5/1 18/1/1 19/4/1 20/6/1
f 21/5/1 22/1/1 23/4/1 24/6/1
f 25/5/1 26/1/1 27/4/1 28/6/1
f 29/5/1 30/1/1 31/4/1 32/6/1
f 33/5/1 34/1/1 35/4/1 36/6/1
f 37/5/1 38/1/1 39/4/1 40/6/1
f 41/5/1 42/1/1 43/4/1 44/6/1
f 45/7/1 46/5/1 47/6/1 48/8/1
f 49/9/1 50/10/1 51/2/1 52/1/1
f 53/11/1 54/9/1 55/1/1 56/5/1
f 57/11/1 58/9/1 59/1/1 60/5/1
f 61/11/1 62/9/1 63/1/1 64/5/1
f 65/11/1 66/9/1 67/1/1 68/5/1
f 69/11/1 70/9/1 71/1/1 72/5/1
f 73/11/1 74/9/1 75/1/1 76/5/1
f 77/11/1 78/9/1 79/1/1 80/5/1
f 81/11/1 82/9/1 83/1/1 84/5/1
f 85/11/1 86/9/1 87/1/1 88/5/1
f 89/11/1 90/9/1 91/1/1 92/5/1
f 93/12/1 94/11/1 95/5/1 96/7/1
f 97/9/1 98/10/1 99/2/1 100/1/1
f 101/11/1 102/9/1 103/1/1 104/5/1
f 105/11/1 106/9/1 107/1/1 108/5/1
f 109/11/1 110/9/1 111/1/1 112/5/1
f 113/11/1 114/9/1 115/1/1 116/5/1
f 117/11/1 118/9/1 119/1/1 120/5/1
f 121/11/1 122/9/1 123/1/1 124/5/1
f 125/11/1 126/9/1 127/1/1 128/5/1
f 129/11/1 130/9/1 131/1/1 132/5/1
f 133/11/1 134/9/1 135/1/1 136/5/1
f 137/11/1 138/9/1 139/1/1 140/5/1
f 141/12/1 142/11/1 143/5/1 144/7/1

