# Tiled2Unity generated file. Do not modify by hand.
# Wavefront file for 'Village_mesh_0004.obj'

# Vertices (Count = 1024)
v -240 -16 0
v -256 -16 0
v -256 0 0
v -240 0 0
v -224 -16 0
v -240 -16 0
v -240 0 0
v -224 0 0
v -208 -16 0
v -224 -16 0
v -224 0 0
v -208 0 0
v -192 -16 0
v -208 -16 0
v -208 0 0
v -192 0 0
v -176 -16 0
v -192 -16 0
v -192 0 0
v -176 0 0
v -160 -16 0
v -176 -16 0
v -176 0 0
v -160 0 0
v -144 -16 0
v -160 -16 0
v -160 0 0
v -144 0 0
v -128 -16 0
v -144 -16 0
v -144 0 0
v -128 0 0
v -112 -16 0
v -128 -16 0
v -128 0 0
v -112 0 0
v -96 -16 0
v -112 -16 0
v -112 0 0
v -96 0 0
v -80 -16 0
v -96 -16 0
v -96 0 0
v -80 0 0
v -64 -16 0
v -80 -16 0
v -80 0 0
v -64 0 0
v -48 -16 0
v -64 -16 0
v -64 0 0
v -48 0 0
v -32 -16 0
v -48 -16 0
v -48 0 0
v -32 0 0
v -16 -16 0
v -32 -16 0
v -32 0 0
v -16 0 0
v 0 -16 0
v -16 -16 0
v -16 0 0
v 0 0 0
v -240 -32 0
v -256 -32 0
v -256 -16 0
v -240 -16 0
v -224 -32 0
v -240 -32 0
v -240 -16 0
v -224 -16 0
v -208 -32 0
v -224 -32 0
v -224 -16 0
v -208 -16 0
v -192 -32 0
v -208 -32 0
v -208 -16 0
v -192 -16 0
v -176 -32 0
v -192 -32 0
v -192 -16 0
v -176 -16 0
v -160 -32 0
v -176 -32 0
v -176 -16 0
v -160 -16 0
v -144 -32 0
v -160 -32 0
v -160 -16 0
v -144 -16 0
v -128 -32 0
v -144 -32 0
v -144 -16 0
v -128 -16 0
v -112 -32 0
v -128 -32 0
v -128 -16 0
v -112 -16 0
v -96 -32 0
v -112 -32 0
v -112 -16 0
v -96 -16 0
v -80 -32 0
v -96 -32 0
v -96 -16 0
v -80 -16 0
v -64 -32 0
v -80 -32 0
v -80 -16 0
v -64 -16 0
v -48 -32 0
v -64 -32 0
v -64 -16 0
v -48 -16 0
v -32 -32 0
v -48 -32 0
v -48 -16 0
v -32 -16 0
v -16 -32 0
v -32 -32 0
v -32 -16 0
v -16 -16 0
v 0 -32 0
v -16 -32 0
v -16 -16 0
v 0 -16 0
v -240 -48 0
v -256 -48 0
v -256 -32 0
v -240 -32 0
v -224 -48 0
v -240 -48 0
v -240 -32 0
v -224 -32 0
v -208 -48 0
v -224 -48 0
v -224 -32 0
v -208 -32 0
v -192 -48 0
v -208 -48 0
v -208 -32 0
v -192 -32 0
v -176 -48 0
v -192 -48 0
v -192 -32 0
v -176 -32 0
v -160 -48 0
v -176 -48 0
v -176 -32 0
v -160 -32 0
v -144 -48 0
v -160 -48 0
v -160 -32 0
v -144 -32 0
v -128 -48 0
v -144 -48 0
v -144 -32 0
v -128 -32 0
v -112 -48 0
v -128 -48 0
v -128 -32 0
v -112 -32 0
v -96 -48 0
v -112 -48 0
v -112 -32 0
v -96 -32 0
v -80 -48 0
v -96 -48 0
v -96 -32 0
v -80 -32 0
v -64 -48 0
v -80 -48 0
v -80 -32 0
v -64 -32 0
v -48 -48 0
v -64 -48 0
v -64 -32 0
v -48 -32 0
v -32 -48 0
v -48 -48 0
v -48 -32 0
v -32 -32 0
v -16 -48 0
v -32 -48 0
v -32 -32 0
v -16 -32 0
v 0 -48 0
v -16 -48 0
v -16 -32 0
v 0 -32 0
v -240 -64 0
v -256 -64 0
v -256 -48 0
v -240 -48 0
v -224 -64 0
v -240 -64 0
v -240 -48 0
v -224 -48 0
v -208 -64 0
v -224 -64 0
v -224 -48 0
v -208 -48 0
v -192 -64 0
v -208 -64 0
v -208 -48 0
v -192 -48 0
v -176 -64 0
v -192 -64 0
v -192 -48 0
v -176 -48 0
v -160 -64 0
v -176 -64 0
v -176 -48 0
v -160 -48 0
v -144 -64 0
v -160 -64 0
v -160 -48 0
v -144 -48 0
v -128 -64 0
v -144 -64 0
v -144 -48 0
v -128 -48 0
v -112 -64 0
v -128 -64 0
v -128 -48 0
v -112 -48 0
v -96 -64 0
v -112 -64 0
v -112 -48 0
v -96 -48 0
v -80 -64 0
v -96 -64 0
v -96 -48 0
v -80 -48 0
v -64 -64 0
v -80 -64 0
v -80 -48 0
v -64 -48 0
v -48 -64 0
v -64 -64 0
v -64 -48 0
v -48 -48 0
v -32 -64 0
v -48 -64 0
v -48 -48 0
v -32 -48 0
v -16 -64 0
v -32 -64 0
v -32 -48 0
v -16 -48 0
v 0 -64 0
v -16 -64 0
v -16 -48 0
v 0 -48 0
v -240 -80 0
v -256 -80 0
v -256 -64 0
v -240 -64 0
v -224 -80 0
v -240 -80 0
v -240 -64 0
v -224 -64 0
v -208 -80 0
v -224 -80 0
v -224 -64 0
v -208 -64 0
v -192 -80 0
v -208 -80 0
v -208 -64 0
v -192 -64 0
v -176 -80 0
v -192 -80 0
v -192 -64 0
v -176 -64 0
v -160 -80 0
v -176 -80 0
v -176 -64 0
v -160 -64 0
v -144 -80 0
v -160 -80 0
v -160 -64 0
v -144 -64 0
v -128 -80 0
v -144 -80 0
v -144 -64 0
v -128 -64 0
v -112 -80 0
v -128 -80 0
v -128 -64 0
v -112 -64 0
v -96 -80 0
v -112 -80 0
v -112 -64 0
v -96 -64 0
v -80 -80 0
v -96 -80 0
v -96 -64 0
v -80 -64 0
v -64 -80 0
v -80 -80 0
v -80 -64 0
v -64 -64 0
v -48 -80 0
v -64 -80 0
v -64 -64 0
v -48 -64 0
v -32 -80 0
v -48 -80 0
v -48 -64 0
v -32 -64 0
v -16 -80 0
v -32 -80 0
v -32 -64 0
v -16 -64 0
v 0 -80 0
v -16 -80 0
v -16 -64 0
v 0 -64 0
v -240 -96 0
v -256 -96 0
v -256 -80 0
v -240 -80 0
v -224 -96 0
v -240 -96 0
v -240 -80 0
v -224 -80 0
v -208 -96 0
v -224 -96 0
v -224 -80 0
v -208 -80 0
v -192 -96 0
v -208 -96 0
v -208 -80 0
v -192 -80 0
v -176 -96 0
v -192 -96 0
v -192 -80 0
v -176 -80 0
v -160 -96 0
v -176 -96 0
v -176 -80 0
v -160 -80 0
v -144 -96 0
v -160 -96 0
v -160 -80 0
v -144 -80 0
v -128 -96 0
v -144 -96 0
v -144 -80 0
v -128 -80 0
v -112 -96 0
v -128 -96 0
v -128 -80 0
v -112 -80 0
v -96 -96 0
v -112 -96 0
v -112 -80 0
v -96 -80 0
v -80 -96 0
v -96 -96 0
v -96 -80 0
v -80 -80 0
v -64 -96 0
v -80 -96 0
v -80 -80 0
v -64 -80 0
v -48 -96 0
v -64 -96 0
v -64 -80 0
v -48 -80 0
v -32 -96 0
v -48 -96 0
v -48 -80 0
v -32 -80 0
v -16 -96 0
v -32 -96 0
v -32 -80 0
v -16 -80 0
v 0 -96 0
v -16 -96 0
v -16 -80 0
v 0 -80 0
v -240 -112 0
v -256 -112 0
v -256 -96 0
v -240 -96 0
v -224 -112 0
v -240 -112 0
v -240 -96 0
v -224 -96 0
v -208 -112 0
v -224 -112 0
v -224 -96 0
v -208 -96 0
v -192 -112 0
v -208 -112 0
v -208 -96 0
v -192 -96 0
v -176 -112 0
v -192 -112 0
v -192 -96 0
v -176 -96 0
v -160 -112 0
v -176 -112 0
v -176 -96 0
v -160 -96 0
v -144 -112 0
v -160 -112 0
v -160 -96 0
v -144 -96 0
v -128 -112 0
v -144 -112 0
v -144 -96 0
v -128 -96 0
v -112 -112 0
v -128 -112 0
v -128 -96 0
v -112 -96 0
v -96 -112 0
v -112 -112 0
v -112 -96 0
v -96 -96 0
v -80 -112 0
v -96 -112 0
v -96 -96 0
v -80 -96 0
v -64 -112 0
v -80 -112 0
v -80 -96 0
v -64 -96 0
v -48 -112 0
v -64 -112 0
v -64 -96 0
v -48 -96 0
v -32 -112 0
v -48 -112 0
v -48 -96 0
v -32 -96 0
v -16 -112 0
v -32 -112 0
v -32 -96 0
v -16 -96 0
v 0 -112 0
v -16 -112 0
v -16 -96 0
v 0 -96 0
v -240 -128 0
v -256 -128 0
v -256 -112 0
v -240 -112 0
v -224 -128 0
v -240 -128 0
v -240 -112 0
v -224 -112 0
v -208 -128 0
v -224 -128 0
v -224 -112 0
v -208 -112 0
v -192 -128 0
v -208 -128 0
v -208 -112 0
v -192 -112 0
v -176 -128 0
v -192 -128 0
v -192 -112 0
v -176 -112 0
v -160 -128 0
v -176 -128 0
v -176 -112 0
v -160 -112 0
v -144 -128 0
v -160 -128 0
v -160 -112 0
v -144 -112 0
v -128 -128 0
v -144 -128 0
v -144 -112 0
v -128 -112 0
v -112 -128 0
v -128 -128 0
v -128 -112 0
v -112 -112 0
v -96 -128 0
v -112 -128 0
v -112 -112 0
v -96 -112 0
v -80 -128 0
v -96 -128 0
v -96 -112 0
v -80 -112 0
v -64 -128 0
v -80 -128 0
v -80 -112 0
v -64 -112 0
v -48 -128 0
v -64 -128 0
v -64 -112 0
v -48 -112 0
v -32 -128 0
v -48 -128 0
v -48 -112 0
v -32 -112 0
v -16 -128 0
v -32 -128 0
v -32 -112 0
v -16 -112 0
v 0 -128 0
v -16 -128 0
v -16 -112 0
v 0 -112 0
v -240 -144 0
v -256 -144 0
v -256 -128 0
v -240 -128 0
v -224 -144 0
v -240 -144 0
v -240 -128 0
v -224 -128 0
v -208 -144 0
v -224 -144 0
v -224 -128 0
v -208 -128 0
v -192 -144 0
v -208 -144 0
v -208 -128 0
v -192 -128 0
v -176 -144 0
v -192 -144 0
v -192 -128 0
v -176 -128 0
v -160 -144 0
v -176 -144 0
v -176 -128 0
v -160 -128 0
v -144 -144 0
v -160 -144 0
v -160 -128 0
v -144 -128 0
v -128 -144 0
v -144 -144 0
v -144 -128 0
v -128 -128 0
v -112 -144 0
v -128 -144 0
v -128 -128 0
v -112 -128 0
v -96 -144 0
v -112 -144 0
v -112 -128 0
v -96 -128 0
v -80 -144 0
v -96 -144 0
v -96 -128 0
v -80 -128 0
v -64 -144 0
v -80 -144 0
v -80 -128 0
v -64 -128 0
v -48 -144 0
v -64 -144 0
v -64 -128 0
v -48 -128 0
v -32 -144 0
v -48 -144 0
v -48 -128 0
v -32 -128 0
v -16 -144 0
v -32 -144 0
v -32 -128 0
v -16 -128 0
v 0 -144 0
v -16 -144 0
v -16 -128 0
v 0 -128 0
v -240 -160 0
v -256 -160 0
v -256 -144 0
v -240 -144 0
v -224 -160 0
v -240 -160 0
v -240 -144 0
v -224 -144 0
v -208 -160 0
v -224 -160 0
v -224 -144 0
v -208 -144 0
v -192 -160 0
v -208 -160 0
v -208 -144 0
v -192 -144 0
v -176 -160 0
v -192 -160 0
v -192 -144 0
v -176 -144 0
v -160 -160 0
v -176 -160 0
v -176 -144 0
v -160 -144 0
v -144 -160 0
v -160 -160 0
v -160 -144 0
v -144 -144 0
v -128 -160 0
v -144 -160 0
v -144 -144 0
v -128 -144 0
v -112 -160 0
v -128 -160 0
v -128 -144 0
v -112 -144 0
v -96 -160 0
v -112 -160 0
v -112 -144 0
v -96 -144 0
v -80 -160 0
v -96 -160 0
v -96 -144 0
v -80 -144 0
v -64 -160 0
v -80 -160 0
v -80 -144 0
v -64 -144 0
v -48 -160 0
v -64 -160 0
v -64 -144 0
v -48 -144 0
v -32 -160 0
v -48 -160 0
v -48 -144 0
v -32 -144 0
v -16 -160 0
v -32 -160 0
v -32 -144 0
v -16 -144 0
v 0 -160 0
v -16 -160 0
v -16 -144 0
v 0 -144 0
v -240 -176 0
v -256 -176 0
v -256 -160 0
v -240 -160 0
v -224 -176 0
v -240 -176 0
v -240 -160 0
v -224 -160 0
v -208 -176 0
v -224 -176 0
v -224 -160 0
v -208 -160 0
v -192 -176 0
v -208 -176 0
v -208 -160 0
v -192 -160 0
v -176 -176 0
v -192 -176 0
v -192 -160 0
v -176 -160 0
v -160 -176 0
v -176 -176 0
v -176 -160 0
v -160 -160 0
v -144 -176 0
v -160 -176 0
v -160 -160 0
v -144 -160 0
v -128 -176 0
v -144 -176 0
v -144 -160 0
v -128 -160 0
v -112 -176 0
v -128 -176 0
v -128 -160 0
v -112 -160 0
v -96 -176 0
v -112 -176 0
v -112 -160 0
v -96 -160 0
v -80 -176 0
v -96 -176 0
v -96 -160 0
v -80 -160 0
v -64 -176 0
v -80 -176 0
v -80 -160 0
v -64 -160 0
v -48 -176 0
v -64 -176 0
v -64 -160 0
v -48 -160 0
v -32 -176 0
v -48 -176 0
v -48 -160 0
v -32 -160 0
v -16 -176 0
v -32 -176 0
v -32 -160 0
v -16 -160 0
v 0 -176 0
v -16 -176 0
v -16 -160 0
v 0 -160 0
v -240 -192 0
v -256 -192 0
v -256 -176 0
v -240 -176 0
v -224 -192 0
v -240 -192 0
v -240 -176 0
v -224 -176 0
v -208 -192 0
v -224 -192 0
v -224 -176 0
v -208 -176 0
v -192 -192 0
v -208 -192 0
v -208 -176 0
v -192 -176 0
v -176 -192 0
v -192 -192 0
v -192 -176 0
v -176 -176 0
v -160 -192 0
v -176 -192 0
v -176 -176 0
v -160 -176 0
v -144 -192 0
v -160 -192 0
v -160 -176 0
v -144 -176 0
v -128 -192 0
v -144 -192 0
v -144 -176 0
v -128 -176 0
v -112 -192 0
v -128 -192 0
v -128 -176 0
v -112 -176 0
v -96 -192 0
v -112 -192 0
v -112 -176 0
v -96 -176 0
v -80 -192 0
v -96 -192 0
v -96 -176 0
v -80 -176 0
v -64 -192 0
v -80 -192 0
v -80 -176 0
v -64 -176 0
v -48 -192 0
v -64 -192 0
v -64 -176 0
v -48 -176 0
v -32 -192 0
v -48 -192 0
v -48 -176 0
v -32 -176 0
v -16 -192 0
v -32 -192 0
v -32 -176 0
v -16 -176 0
v 0 -192 0
v -16 -192 0
v -16 -176 0
v 0 -176 0
v -240 -208 0
v -256 -208 0
v -256 -192 0
v -240 -192 0
v -224 -208 0
v -240 -208 0
v -240 -192 0
v -224 -192 0
v -208 -208 0
v -224 -208 0
v -224 -192 0
v -208 -192 0
v -192 -208 0
v -208 -208 0
v -208 -192 0
v -192 -192 0
v -176 -208 0
v -192 -208 0
v -192 -192 0
v -176 -192 0
v -160 -208 0
v -176 -208 0
v -176 -192 0
v -160 -192 0
v -144 -208 0
v -160 -208 0
v -160 -192 0
v -144 -192 0
v -128 -208 0
v -144 -208 0
v -144 -192 0
v -128 -192 0
v -112 -208 0
v -128 -208 0
v -128 -192 0
v -112 -192 0
v -96 -208 0
v -112 -208 0
v -112 -192 0
v -96 -192 0
v -80 -208 0
v -96 -208 0
v -96 -192 0
v -80 -192 0
v -64 -208 0
v -80 -208 0
v -80 -192 0
v -64 -192 0
v -48 -208 0
v -64 -208 0
v -64 -192 0
v -48 -192 0
v -32 -208 0
v -48 -208 0
v -48 -192 0
v -32 -192 0
v -16 -208 0
v -32 -208 0
v -32 -192 0
v -16 -192 0
v 0 -208 0
v -16 -208 0
v -16 -192 0
v 0 -192 0
v -240 -224 0
v -256 -224 0
v -256 -208 0
v -240 -208 0
v -224 -224 0
v -240 -224 0
v -240 -208 0
v -224 -208 0
v -208 -224 0
v -224 -224 0
v -224 -208 0
v -208 -208 0
v -192 -224 0
v -208 -224 0
v -208 -208 0
v -192 -208 0
v -176 -224 0
v -192 -224 0
v -192 -208 0
v -176 -208 0
v -160 -224 0
v -176 -224 0
v -176 -208 0
v -160 -208 0
v -144 -224 0
v -160 -224 0
v -160 -208 0
v -144 -208 0
v -128 -224 0
v -144 -224 0
v -144 -208 0
v -128 -208 0
v -112 -224 0
v -128 -224 0
v -128 -208 0
v -112 -208 0
v -96 -224 0
v -112 -224 0
v -112 -208 0
v -96 -208 0
v -80 -224 0
v -96 -224 0
v -96 -208 0
v -80 -208 0
v -64 -224 0
v -80 -224 0
v -80 -208 0
v -64 -208 0
v -48 -224 0
v -64 -224 0
v -64 -208 0
v -48 -208 0
v -32 -224 0
v -48 -224 0
v -48 -208 0
v -32 -208 0
v -16 -224 0
v -32 -224 0
v -32 -208 0
v -16 -208 0
v 0 -224 0
v -16 -224 0
v -16 -208 0
v 0 -208 0
v -240 -240 0
v -256 -240 0
v -256 -224 0
v -240 -224 0
v -224 -240 0
v -240 -240 0
v -240 -224 0
v -224 -224 0
v -208 -240 0
v -224 -240 0
v -224 -224 0
v -208 -224 0
v -192 -240 0
v -208 -240 0
v -208 -224 0
v -192 -224 0
v -176 -240 0
v -192 -240 0
v -192 -224 0
v -176 -224 0
v -160 -240 0
v -176 -240 0
v -176 -224 0
v -160 -224 0
v -144 -240 0
v -160 -240 0
v -160 -224 0
v -144 -224 0
v -128 -240 0
v -144 -240 0
v -144 -224 0
v -128 -224 0
v -112 -240 0
v -128 -240 0
v -128 -224 0
v -112 -224 0
v -96 -240 0
v -112 -240 0
v -112 -224 0
v -96 -224 0
v -80 -240 0
v -96 -240 0
v -96 -224 0
v -80 -224 0
v -64 -240 0
v -80 -240 0
v -80 -224 0
v -64 -224 0
v -48 -240 0
v -64 -240 0
v -64 -224 0
v -48 -224 0
v -32 -240 0
v -48 -240 0
v -48 -224 0
v -32 -224 0
v -16 -240 0
v -32 -240 0
v -32 -224 0
v -16 -224 0
v 0 -240 0
v -16 -240 0
v -16 -224 0
v 0 -224 0
v -240 -256 0
v -256 -256 0
v -256 -240 0
v -240 -240 0
v -224 -256 0
v -240 -256 0
v -240 -240 0
v -224 -240 0
v -208 -256 0
v -224 -256 0
v -224 -240 0
v -208 -240 0
v -192 -256 0
v -208 -256 0
v -208 -240 0
v -192 -240 0
v -176 -256 0
v -192 -256 0
v -192 -240 0
v -176 -240 0
v -160 -256 0
v -176 -256 0
v -176 -240 0
v -160 -240 0
v -144 -256 0
v -160 -256 0
v -160 -240 0
v -144 -240 0
v -128 -256 0
v -144 -256 0
v -144 -240 0
v -128 -240 0
v -112 -256 0
v -128 -256 0
v -128 -240 0
v -112 -240 0
v -96 -256 0
v -112 -256 0
v -112 -240 0
v -96 -240 0
v -80 -256 0
v -96 -256 0
v -96 -240 0
v -80 -240 0
v -64 -256 0
v -80 -256 0
v -80 -240 0
v -64 -240 0
v -48 -256 0
v -64 -256 0
v -64 -240 0
v -48 -240 0
v -32 -256 0
v -48 -256 0
v -48 -240 0
v -32 -240 0
v -16 -256 0
v -32 -256 0
v -32 -240 0
v -16 -240 0
v 0 -256 0
v -16 -256 0
v -16 -240 0
v 0 -240 0

# Texture cooridinates (Count = 9)
vt 0.175 0.6944444
vt 0.2 0.6944444
vt 0.2 0.7222222
vt 0.175 0.7222222
vt 0.225 0.7222222
vt 0.225 0.75
vt 0.2 0.75
vt 0.225 0.6944444
vt 0.175 0.75

# Normal
vn 0 0 -1

# Mesh description
g Village_mesh_0004

# Faces
f 1/1/1 2/2/1 3/3/1 4/4/1
f 5/3/1 6/5/1 7/6/1 8/7/1
f 9/2/1 10/8/1 11/5/1 12/3/1
f 13/1/1 14/2/1 15/3/1 16/4/1
f 17/3/1 18/5/1 19/6/1 20/7/1
f 21/1/1 22/2/1 23/3/1 24/4/1
f 25/2/1 26/8/1 27/5/1 28/3/1
f 29/1/1 30/2/1 31/3/1 32/4/1
f 33/1/1 34/2/1 35/3/1 36/4/1
f 37/4/1 38/3/1 39/7/1 40/9/1
f 41/3/1 42/5/1 43/6/1 44/7/1
f 45/1/1 46/2/1 47/3/1 48/4/1
f 49/1/1 50/2/1 51/3/1 52/4/1
f 53/2/1 54/8/1 55/5/1 56/3/1
f 57/2/1 58/8/1 59/5/1 60/3/1
f 61/4/1 62/3/1 63/7/1 64/9/1
f 65/4/1 66/3/1 67/7/1 68/9/1
f 69/3/1 70/5/1 71/6/1 72/7/1
f 73/1/1 74/2/1 75/3/1 76/4/1
f 77/3/1 78/5/1 79/6/1 80/7/1
f 81/3/1 82/5/1 83/6/1 84/7/1
f 85/2/1 86/8/1 87/5/1 88/3/1
f 89/3/1 90/5/1 91/6/1 92/7/1
f 93/4/1 94/3/1 95/7/1 96/9/1
f 97/4/1 98/3/1 99/7/1 100/9/1
f 101/3/1 102/5/1 103/6/1 104/7/1
f 105/2/1 106/8/1 107/5/1 108/3/1
f 109/3/1 110/5/1 111/6/1 112/7/1
f 113/4/1 114/3/1 115/7/1 116/9/1
f 117/3/1 118/5/1 119/6/1 120/7/1
f 121/1/1 122/2/1 123/3/1 124/4/1
f 125/3/1 126/5/1 127/6/1 128/7/1
f 129/2/1 130/8/1 131/5/1 132/3/1
f 133/3/1 134/5/1 135/6/1 136/7/1
f 137/1/1 138/2/1 139/3/1 140/4/1
f 141/2/1 142/8/1 143/5/1 144/3/1
f 145/1/1 146/2/1 147/3/1 148/4/1
f 149/1/1 150/2/1 151/3/1 152/4/1
f 153/2/1 154/8/1 155/5/1 156/3/1
f 157/2/1 158/8/1 159/5/1 160/3/1
f 161/4/1 162/3/1 163/7/1 164/9/1
f 165/1/1 166/2/1 167/3/1 168/4/1
f 169/1/1 170/2/1 171/3/1 172/4/1
f 173/3/1 174/5/1 175/6/1 176/7/1
f 177/3/1 178/5/1 179/6/1 180/7/1
f 181/3/1 182/5/1 183/6/1 184/7/1
f 185/2/1 186/8/1 187/5/1 188/3/1
f 189/1/1 190/2/1 191/3/1 192/4/1
f 193/1/1 194/2/1 195/3/1 196/4/1
f 197/3/1 198/5/1 199/6/1 200/7/1
f 201/4/1 202/3/1 203/7/1 204/9/1
f 205/2/1 206/8/1 207/5/1 208/3/1
f 209/3/1 210/5/1 211/6/1 212/7/1
f 213/1/1 214/2/1 215/3/1 216/4/1
f 217/1/1 218/2/1 219/3/1 220/4/1
f 221/4/1 222/3/1 223/7/1 224/9/1
f 225/4/1 226/3/1 227/7/1 228/9/1
f 229/1/1 230/2/1 231/3/1 232/4/1
f 233/1/1 234/2/1 235/3/1 236/4/1
f 237/2/1 238/8/1 239/5/1 240/3/1
f 241/1/1 242/2/1 243/3/1 244/4/1
f 245/4/1 246/3/1 247/7/1 248/9/1
f 249/2/1 250/8/1 251/5/1 252/3/1
f 253/2/1 254/8/1 255/5/1 256/3/1
f 257/4/1 258/3/1 259/7/1 260/9/1
f 261/1/1 262/2/1 263/3/1 264/4/1
f 265/4/1 266/3/1 267/7/1 268/9/1
f 269/1/1 270/2/1 271/3/1 272/4/1
f 273/1/1 274/2/1 275/3/1 276/4/1
f 277/4/1 278/3/1 279/7/1 280/9/1
f 281/4/1 282/3/1 283/7/1 284/9/1
f 285/1/1 286/2/1 287/3/1 288/4/1
f 289/2/1 290/8/1 291/5/1 292/3/1
f 293/3/1 294/5/1 295/6/1 296/7/1
f 297/1/1 298/2/1 299/3/1 300/4/1
f 301/2/1 302/8/1 303/5/1 304/3/1
f 305/2/1 306/8/1 307/5/1 308/3/1
f 309/3/1 310/5/1 311/6/1 312/7/1
f 313/3/1 314/5/1 315/6/1 316/7/1
f 317/2/1 318/8/1 319/5/1 320/3/1
f 321/4/1 322/3/1 323/7/1 324/9/1
f 325/2/1 326/8/1 327/5/1 328/3/1
f 329/1/1 330/2/1 331/3/1 332/4/1
f 333/1/1 334/2/1 335/3/1 336/4/1
f 337/1/1 338/2/1 339/3/1 340/4/1
f 341/3/1 342/5/1 343/6/1 344/7/1
f 345/3/1 346/5/1 347/6/1 348/7/1
f 349/1/1 350/2/1 351/3/1 352/4/1
f 353/2/1 354/8/1 355/5/1 356/3/1
f 357/4/1 358/3/1 359/7/1 360/9/1
f 361/3/1 362/5/1 363/6/1 364/7/1
f 365/2/1 366/8/1 367/5/1 368/3/1
f 369/3/1 370/5/1 371/6/1 372/7/1
f 373/2/1 374/8/1 375/5/1 376/3/1
f 377/4/1 378/3/1 379/7/1 380/9/1
f 381/1/1 382/2/1 383/3/1 384/4/1
f 385/2/1 386/8/1 387/5/1 388/3/1
f 389/3/1 390/5/1 391/6/1 392/7/1
f 393/2/1 394/8/1 395/5/1 396/3/1
f 397/1/1 398/2/1 399/3/1 400/4/1
f 401/1/1 402/2/1 403/3/1 404/4/1
f 405/1/1 406/2/1 407/3/1 408/4/1
f 409/1/1 410/2/1 411/3/1 412/4/1
f 413/2/1 414/8/1 415/5/1 416/3/1
f 417/2/1 418/8/1 419/5/1 420/3/1
f 421/3/1 422/5/1 423/6/1 424/7/1
f 425/3/1 426/5/1 427/6/1 428/7/1
f 429/3/1 430/5/1 431/6/1 432/7/1
f 433/3/1 434/5/1 435/6/1 436/7/1
f 437/2/1 438/8/1 439/5/1 440/3/1
f 441/3/1 442/5/1 443/6/1 444/7/1
f 445/4/1 446/3/1 447/7/1 448/9/1
f 449/3/1 450/5/1 451/6/1 452/7/1
f 453/2/1 454/8/1 455/5/1 456/3/1
f 457/4/1 458/3/1 459/7/1 460/9/1
f 461/3/1 462/5/1 463/6/1 464/7/1
f 465/3/1 466/5/1 467/6/1 468/7/1
f 469/3/1 470/5/1 471/6/1 472/7/1
f 473/1/1 474/2/1 475/3/1 476/4/1
f 477/1/1 478/2/1 479/3/1 480/4/1
f 481/2/1 482/8/1 483/5/1 484/3/1
f 485/4/1 486/3/1 487/7/1 488/9/1
f 489/4/1 490/3/1 491/7/1 492/9/1
f 493/2/1 494/8/1 495/5/1 496/3/1
f 497/3/1 498/5/1 499/6/1 500/7/1
f 501/3/1 502/5/1 503/6/1 504/7/1
f 505/2/1 506/8/1 507/5/1 508/3/1
f 509/4/1 510/3/1 511/7/1 512/9/1
f 513/1/1 514/2/1 515/3/1 516/4/1
f 517/3/1 518/5/1 519/6/1 520/7/1
f 521/4/1 522/3/1 523/7/1 524/9/1
f 525/2/1 526/8/1 527/5/1 528/3/1
f 529/3/1 530/5/1 531/6/1 532/7/1
f 533/4/1 534/3/1 535/7/1 536/9/1
f 537/4/1 538/3/1 539/7/1 540/9/1
f 541/2/1 542/8/1 543/5/1 544/3/1
f 545/4/1 546/3/1 547/7/1 548/9/1
f 549/1/1 550/2/1 551/3/1 552/4/1
f 553/3/1 554/5/1 555/6/1 556/7/1
f 557/4/1 558/3/1 559/7/1 560/9/1
f 561/4/1 562/3/1 563/7/1 564/9/1
f 565/2/1 566/8/1 567/5/1 568/3/1
f 569/3/1 570/5/1 571/6/1 572/7/1
f 573/1/1 574/2/1 575/3/1 576/4/1
f 577/3/1 578/5/1 579/6/1 580/7/1
f 581/3/1 582/5/1 583/6/1 584/7/1
f 585/3/1 586/5/1 587/6/1 588/7/1
f 589/2/1 590/8/1 591/5/1 592/3/1
f 593/1/1 594/2/1 595/3/1 596/4/1
f 597/1/1 598/2/1 599/3/1 600/4/1
f 601/4/1 602/3/1 603/7/1 604/9/1
f 605/1/1 606/2/1 607/3/1 608/4/1
f 609/2/1 610/8/1 611/5/1 612/3/1
f 613/1/1 614/2/1 615/3/1 616/4/1
f 617/1/1 618/2/1 619/3/1 620/4/1
f 621/3/1 622/5/1 623/6/1 624/7/1
f 625/2/1 626/8/1 627/5/1 628/3/1
f 629/1/1 630/2/1 631/3/1 632/4/1
f 633/1/1 634/2/1 635/3/1 636/4/1
f 637/1/1 638/2/1 639/3/1 640/4/1
f 641/4/1 642/3/1 643/7/1 644/9/1
f 645/4/1 646/3/1 647/7/1 648/9/1
f 649/4/1 650/3/1 651/7/1 652/9/1
f 653/1/1 654/2/1 655/3/1 656/4/1
f 657/1/1 658/2/1 659/3/1 660/4/1
f 661/2/1 662/8/1 663/5/1 664/3/1
f 665/3/1 666/5/1 667/6/1 668/7/1
f 669/3/1 670/5/1 671/6/1 672/7/1
f 673/2/1 674/8/1 675/5/1 676/3/1
f 677/2/1 678/8/1 679/5/1 680/3/1
f 681/3/1 682/5/1 683/6/1 684/7/1
f 685/3/1 686/5/1 687/6/1 688/7/1
f 689/2/1 690/8/1 691/5/1 692/3/1
f 693/4/1 694/3/1 695/7/1 696/9/1
f 697/3/1 698/5/1 699/6/1 700/7/1
f 701/3/1 702/5/1 703/6/1 704/7/1
f 705/3/1 706/5/1 707/6/1 708/7/1
f 709/4/1 710/3/1 711/7/1 712/9/1
f 713/1/1 714/2/1 715/3/1 716/4/1
f 717/2/1 718/8/1 719/5/1 720/3/1
f 721/2/1 722/8/1 723/5/1 724/3/1
f 725/3/1 726/5/1 727/6/1 728/7/1
f 729/2/1 730/8/1 731/5/1 732/3/1
f 733/1/1 734/2/1 735/3/1 736/4/1
f 737/3/1 738/5/1 739/6/1 740/7/1
f 741/4/1 742/3/1 743/7/1 744/9/1
f 745/3/1 746/5/1 747/6/1 748/7/1
f 749/2/1 750/8/1 751/5/1 752/3/1
f 753/1/1 754/2/1 755/3/1 756/4/1
f 757/2/1 758/8/1 759/5/1 760/3/1
f 761/1/1 762/2/1 763/3/1 764/4/1
f 765/1/1 766/2/1 767/3/1 768/4/1
f 769/3/1 770/5/1 771/6/1 772/7/1
f 773/3/1 774/5/1 775/6/1 776/7/1
f 777/1/1 778/2/1 779/3/1 780/4/1
f 781/4/1 782/3/1 783/7/1 784/9/1
f 785/2/1 786/8/1 787/5/1 788/3/1
f 789/3/1 790/5/1 791/6/1 792/7/1
f 793/4/1 794/3/1 795/7/1 796/9/1
f 797/4/1 798/3/1 799/7/1 800/9/1
f 801/3/1 802/5/1 803/6/1 804/7/1
f 805/4/1 806/3/1 807/7/1 808/9/1
f 809/3/1 810/5/1 811/6/1 812/7/1
f 813/2/1 814/8/1 815/5/1 816/3/1
f 817/3/1 818/5/1 819/6/1 820/7/1
f 821/4/1 822/3/1 823/7/1 824/9/1
f 825/3/1 826/5/1 827/6/1 828/7/1
f 829/4/1 830/3/1 831/7/1 832/9/1
f 833/2/1 834/8/1 835/5/1 836/3/1
f 837/2/1 838/8/1 839/5/1 840/3/1
f 841/1/1 842/2/1 843/3/1 844/4/1
f 845/1/1 846/2/1 847/3/1 848/4/1
f 849/3/1 850/5/1 851/6/1 852/7/1
f 853/1/1 854/2/1 855/3/1 856/4/1
f 857/2/1 858/8/1 859/5/1 860/3/1
f 861/2/1 862/8/1 863/5/1 864/3/1
f 865/1/1 866/2/1 867/3/1 868/4/1
f 869/4/1 870/3/1 871/7/1 872/9/1
f 873/2/1 874/8/1 875/5/1 876/3/1
f 877/1/1 878/2/1 879/3/1 880/4/1
f 881/4/1 882/3/1 883/7/1 884/9/1
f 885/4/1 886/3/1 887/7/1 888/9/1
f 889/4/1 890/3/1 891/7/1 892/9/1
f 893/1/1 894/2/1 895/3/1 896/4/1
f 897/2/1 898/8/1 899/5/1 900/3/1
f 901/3/1 902/5/1 903/6/1 904/7/1
f 905/4/1 906/3/1 907/7/1 908/9/1
f 909/4/1 910/3/1 911/7/1 912/9/1
f 913/4/1 914/3/1 915/7/1 916/9/1
f 917/2/1 918/8/1 919/5/1 920/3/1
f 921/4/1 922/3/1 923/7/1 924/9/1
f 925/2/1 926/8/1 927/5/1 928/3/1
f 929/4/1 930/3/1 931/7/1 932/9/1
f 933/2/1 934/8/1 935/5/1 936/3/1
f 937/3/1 938/5/1 939/6/1 940/7/1
f 941/2/1 942/8/1 943/5/1 944/3/1
f 945/1/1 946/2/1 947/3/1 948/4/1
f 949/2/1 950/8/1 951/5/1 952/3/1
f 953/4/1 954/3/1 955/7/1 956/9/1
f 957/4/1 958/3/1 959/7/1 960/9/1
f 961/3/1 962/5/1 963/6/1 964/7/1
f 965/1/1 966/2/1 967/3/1 968/4/1
f 969/2/1 970/8/1 971/5/1 972/3/1
f 973/4/1 974/3/1 975/7/1 976/9/1
f 977/1/1 978/2/1 979/3/1 980/4/1
f 981/4/1 982/3/1 983/7/1 984/9/1
f 985/4/1 986/3/1 987/7/1 988/9/1
f 989/3/1 990/5/1 991/6/1 992/7/1
f 993/3/1 994/5/1 995/6/1 996/7/1
f 997/1/1 998/2/1 999/3/1 1000/4/1
f 1001/3/1 1002/5/1 1003/6/1 1004/7/1
f 1005/1/1 1006/2/1 1007/3/1 1008/4/1
f 1009/3/1 1010/5/1 1011/6/1 1012/7/1
f 1013/4/1 1014/3/1 1015/7/1 1016/9/1
f 1017/2/1 1018/8/1 1019/5/1 1020/3/1
f 1021/3/1 1022/5/1 1023/6/1 1024/7/1

