# Tiled2Unity generated file. Do not modify by hand.
# Wavefront file for 'Village_mesh_0057.obj'

# Vertices (Count = 1024)
v -240 -16 0
v -256 -16 0
v -256 0 0
v -240 0 0
v -224 -16 0
v -240 -16 0
v -240 0 0
v -224 0 0
v -208 -16 0
v -224 -16 0
v -224 0 0
v -208 0 0
v -192 -16 0
v -208 -16 0
v -208 0 0
v -192 0 0
v -176 -16 0
v -192 -16 0
v -192 0 0
v -176 0 0
v -160 -16 0
v -176 -16 0
v -176 0 0
v -160 0 0
v -144 -16 0
v -160 -16 0
v -160 0 0
v -144 0 0
v -128 -16 0
v -144 -16 0
v -144 0 0
v -128 0 0
v -112 -16 0
v -128 -16 0
v -128 0 0
v -112 0 0
v -96 -16 0
v -112 -16 0
v -112 0 0
v -96 0 0
v -80 -16 0
v -96 -16 0
v -96 0 0
v -80 0 0
v -64 -16 0
v -80 -16 0
v -80 0 0
v -64 0 0
v -48 -16 0
v -64 -16 0
v -64 0 0
v -48 0 0
v -32 -16 0
v -48 -16 0
v -48 0 0
v -32 0 0
v -16 -16 0
v -32 -16 0
v -32 0 0
v -16 0 0
v 0 -16 0
v -16 -16 0
v -16 0 0
v 0 0 0
v -240 -32 0
v -256 -32 0
v -256 -16 0
v -240 -16 0
v -224 -32 0
v -240 -32 0
v -240 -16 0
v -224 -16 0
v -208 -32 0
v -224 -32 0
v -224 -16 0
v -208 -16 0
v -192 -32 0
v -208 -32 0
v -208 -16 0
v -192 -16 0
v -176 -32 0
v -192 -32 0
v -192 -16 0
v -176 -16 0
v -160 -32 0
v -176 -32 0
v -176 -16 0
v -160 -16 0
v -144 -32 0
v -160 -32 0
v -160 -16 0
v -144 -16 0
v -128 -32 0
v -144 -32 0
v -144 -16 0
v -128 -16 0
v -112 -32 0
v -128 -32 0
v -128 -16 0
v -112 -16 0
v -96 -32 0
v -112 -32 0
v -112 -16 0
v -96 -16 0
v -80 -32 0
v -96 -32 0
v -96 -16 0
v -80 -16 0
v -64 -32 0
v -80 -32 0
v -80 -16 0
v -64 -16 0
v -48 -32 0
v -64 -32 0
v -64 -16 0
v -48 -16 0
v -32 -32 0
v -48 -32 0
v -48 -16 0
v -32 -16 0
v -16 -32 0
v -32 -32 0
v -32 -16 0
v -16 -16 0
v 0 -32 0
v -16 -32 0
v -16 -16 0
v 0 -16 0
v -240 -48 0
v -256 -48 0
v -256 -32 0
v -240 -32 0
v -224 -48 0
v -240 -48 0
v -240 -32 0
v -224 -32 0
v -208 -48 0
v -224 -48 0
v -224 -32 0
v -208 -32 0
v -192 -48 0
v -208 -48 0
v -208 -32 0
v -192 -32 0
v -176 -48 0
v -192 -48 0
v -192 -32 0
v -176 -32 0
v -160 -48 0
v -176 -48 0
v -176 -32 0
v -160 -32 0
v -144 -48 0
v -160 -48 0
v -160 -32 0
v -144 -32 0
v -128 -48 0
v -144 -48 0
v -144 -32 0
v -128 -32 0
v -112 -48 0
v -128 -48 0
v -128 -32 0
v -112 -32 0
v -96 -48 0
v -112 -48 0
v -112 -32 0
v -96 -32 0
v -80 -48 0
v -96 -48 0
v -96 -32 0
v -80 -32 0
v -64 -48 0
v -80 -48 0
v -80 -32 0
v -64 -32 0
v -48 -48 0
v -64 -48 0
v -64 -32 0
v -48 -32 0
v -32 -48 0
v -48 -48 0
v -48 -32 0
v -32 -32 0
v -16 -48 0
v -32 -48 0
v -32 -32 0
v -16 -32 0
v 0 -48 0
v -16 -48 0
v -16 -32 0
v 0 -32 0
v -240 -64 0
v -256 -64 0
v -256 -48 0
v -240 -48 0
v -224 -64 0
v -240 -64 0
v -240 -48 0
v -224 -48 0
v -208 -64 0
v -224 -64 0
v -224 -48 0
v -208 -48 0
v -192 -64 0
v -208 -64 0
v -208 -48 0
v -192 -48 0
v -176 -64 0
v -192 -64 0
v -192 -48 0
v -176 -48 0
v -160 -64 0
v -176 -64 0
v -176 -48 0
v -160 -48 0
v -144 -64 0
v -160 -64 0
v -160 -48 0
v -144 -48 0
v -128 -64 0
v -144 -64 0
v -144 -48 0
v -128 -48 0
v -112 -64 0
v -128 -64 0
v -128 -48 0
v -112 -48 0
v -96 -64 0
v -112 -64 0
v -112 -48 0
v -96 -48 0
v -80 -64 0
v -96 -64 0
v -96 -48 0
v -80 -48 0
v -64 -64 0
v -80 -64 0
v -80 -48 0
v -64 -48 0
v -48 -64 0
v -64 -64 0
v -64 -48 0
v -48 -48 0
v -32 -64 0
v -48 -64 0
v -48 -48 0
v -32 -48 0
v -16 -64 0
v -32 -64 0
v -32 -48 0
v -16 -48 0
v 0 -64 0
v -16 -64 0
v -16 -48 0
v 0 -48 0
v -240 -80 0
v -256 -80 0
v -256 -64 0
v -240 -64 0
v -224 -80 0
v -240 -80 0
v -240 -64 0
v -224 -64 0
v -208 -80 0
v -224 -80 0
v -224 -64 0
v -208 -64 0
v -192 -80 0
v -208 -80 0
v -208 -64 0
v -192 -64 0
v -176 -80 0
v -192 -80 0
v -192 -64 0
v -176 -64 0
v -160 -80 0
v -176 -80 0
v -176 -64 0
v -160 -64 0
v -144 -80 0
v -160 -80 0
v -160 -64 0
v -144 -64 0
v -128 -80 0
v -144 -80 0
v -144 -64 0
v -128 -64 0
v -112 -80 0
v -128 -80 0
v -128 -64 0
v -112 -64 0
v -96 -80 0
v -112 -80 0
v -112 -64 0
v -96 -64 0
v -80 -80 0
v -96 -80 0
v -96 -64 0
v -80 -64 0
v -64 -80 0
v -80 -80 0
v -80 -64 0
v -64 -64 0
v -48 -80 0
v -64 -80 0
v -64 -64 0
v -48 -64 0
v -32 -80 0
v -48 -80 0
v -48 -64 0
v -32 -64 0
v -16 -80 0
v -32 -80 0
v -32 -64 0
v -16 -64 0
v 0 -80 0
v -16 -80 0
v -16 -64 0
v 0 -64 0
v -240 -96 0
v -256 -96 0
v -256 -80 0
v -240 -80 0
v -224 -96 0
v -240 -96 0
v -240 -80 0
v -224 -80 0
v -208 -96 0
v -224 -96 0
v -224 -80 0
v -208 -80 0
v -192 -96 0
v -208 -96 0
v -208 -80 0
v -192 -80 0
v -176 -96 0
v -192 -96 0
v -192 -80 0
v -176 -80 0
v -160 -96 0
v -176 -96 0
v -176 -80 0
v -160 -80 0
v -144 -96 0
v -160 -96 0
v -160 -80 0
v -144 -80 0
v -128 -96 0
v -144 -96 0
v -144 -80 0
v -128 -80 0
v -112 -96 0
v -128 -96 0
v -128 -80 0
v -112 -80 0
v -96 -96 0
v -112 -96 0
v -112 -80 0
v -96 -80 0
v -80 -96 0
v -96 -96 0
v -96 -80 0
v -80 -80 0
v -64 -96 0
v -80 -96 0
v -80 -80 0
v -64 -80 0
v -48 -96 0
v -64 -96 0
v -64 -80 0
v -48 -80 0
v -32 -96 0
v -48 -96 0
v -48 -80 0
v -32 -80 0
v -16 -96 0
v -32 -96 0
v -32 -80 0
v -16 -80 0
v 0 -96 0
v -16 -96 0
v -16 -80 0
v 0 -80 0
v -240 -112 0
v -256 -112 0
v -256 -96 0
v -240 -96 0
v -224 -112 0
v -240 -112 0
v -240 -96 0
v -224 -96 0
v -208 -112 0
v -224 -112 0
v -224 -96 0
v -208 -96 0
v -192 -112 0
v -208 -112 0
v -208 -96 0
v -192 -96 0
v -176 -112 0
v -192 -112 0
v -192 -96 0
v -176 -96 0
v -160 -112 0
v -176 -112 0
v -176 -96 0
v -160 -96 0
v -144 -112 0
v -160 -112 0
v -160 -96 0
v -144 -96 0
v -128 -112 0
v -144 -112 0
v -144 -96 0
v -128 -96 0
v -112 -112 0
v -128 -112 0
v -128 -96 0
v -112 -96 0
v -96 -112 0
v -112 -112 0
v -112 -96 0
v -96 -96 0
v -80 -112 0
v -96 -112 0
v -96 -96 0
v -80 -96 0
v -64 -112 0
v -80 -112 0
v -80 -96 0
v -64 -96 0
v -48 -112 0
v -64 -112 0
v -64 -96 0
v -48 -96 0
v -32 -112 0
v -48 -112 0
v -48 -96 0
v -32 -96 0
v -16 -112 0
v -32 -112 0
v -32 -96 0
v -16 -96 0
v 0 -112 0
v -16 -112 0
v -16 -96 0
v 0 -96 0
v -240 -128 0
v -256 -128 0
v -256 -112 0
v -240 -112 0
v -224 -128 0
v -240 -128 0
v -240 -112 0
v -224 -112 0
v -208 -128 0
v -224 -128 0
v -224 -112 0
v -208 -112 0
v -192 -128 0
v -208 -128 0
v -208 -112 0
v -192 -112 0
v -176 -128 0
v -192 -128 0
v -192 -112 0
v -176 -112 0
v -160 -128 0
v -176 -128 0
v -176 -112 0
v -160 -112 0
v -144 -128 0
v -160 -128 0
v -160 -112 0
v -144 -112 0
v -128 -128 0
v -144 -128 0
v -144 -112 0
v -128 -112 0
v -112 -128 0
v -128 -128 0
v -128 -112 0
v -112 -112 0
v -96 -128 0
v -112 -128 0
v -112 -112 0
v -96 -112 0
v -80 -128 0
v -96 -128 0
v -96 -112 0
v -80 -112 0
v -64 -128 0
v -80 -128 0
v -80 -112 0
v -64 -112 0
v -48 -128 0
v -64 -128 0
v -64 -112 0
v -48 -112 0
v -32 -128 0
v -48 -128 0
v -48 -112 0
v -32 -112 0
v -16 -128 0
v -32 -128 0
v -32 -112 0
v -16 -112 0
v 0 -128 0
v -16 -128 0
v -16 -112 0
v 0 -112 0
v -240 -144 0
v -256 -144 0
v -256 -128 0
v -240 -128 0
v -224 -144 0
v -240 -144 0
v -240 -128 0
v -224 -128 0
v -208 -144 0
v -224 -144 0
v -224 -128 0
v -208 -128 0
v -192 -144 0
v -208 -144 0
v -208 -128 0
v -192 -128 0
v -176 -144 0
v -192 -144 0
v -192 -128 0
v -176 -128 0
v -160 -144 0
v -176 -144 0
v -176 -128 0
v -160 -128 0
v -144 -144 0
v -160 -144 0
v -160 -128 0
v -144 -128 0
v -128 -144 0
v -144 -144 0
v -144 -128 0
v -128 -128 0
v -112 -144 0
v -128 -144 0
v -128 -128 0
v -112 -128 0
v -96 -144 0
v -112 -144 0
v -112 -128 0
v -96 -128 0
v -80 -144 0
v -96 -144 0
v -96 -128 0
v -80 -128 0
v -64 -144 0
v -80 -144 0
v -80 -128 0
v -64 -128 0
v -48 -144 0
v -64 -144 0
v -64 -128 0
v -48 -128 0
v -32 -144 0
v -48 -144 0
v -48 -128 0
v -32 -128 0
v -16 -144 0
v -32 -144 0
v -32 -128 0
v -16 -128 0
v 0 -144 0
v -16 -144 0
v -16 -128 0
v 0 -128 0
v -240 -160 0
v -256 -160 0
v -256 -144 0
v -240 -144 0
v -224 -160 0
v -240 -160 0
v -240 -144 0
v -224 -144 0
v -208 -160 0
v -224 -160 0
v -224 -144 0
v -208 -144 0
v -192 -160 0
v -208 -160 0
v -208 -144 0
v -192 -144 0
v -176 -160 0
v -192 -160 0
v -192 -144 0
v -176 -144 0
v -160 -160 0
v -176 -160 0
v -176 -144 0
v -160 -144 0
v -144 -160 0
v -160 -160 0
v -160 -144 0
v -144 -144 0
v -128 -160 0
v -144 -160 0
v -144 -144 0
v -128 -144 0
v -112 -160 0
v -128 -160 0
v -128 -144 0
v -112 -144 0
v -96 -160 0
v -112 -160 0
v -112 -144 0
v -96 -144 0
v -80 -160 0
v -96 -160 0
v -96 -144 0
v -80 -144 0
v -64 -160 0
v -80 -160 0
v -80 -144 0
v -64 -144 0
v -48 -160 0
v -64 -160 0
v -64 -144 0
v -48 -144 0
v -32 -160 0
v -48 -160 0
v -48 -144 0
v -32 -144 0
v -16 -160 0
v -32 -160 0
v -32 -144 0
v -16 -144 0
v 0 -160 0
v -16 -160 0
v -16 -144 0
v 0 -144 0
v -240 -176 0
v -256 -176 0
v -256 -160 0
v -240 -160 0
v -224 -176 0
v -240 -176 0
v -240 -160 0
v -224 -160 0
v -208 -176 0
v -224 -176 0
v -224 -160 0
v -208 -160 0
v -192 -176 0
v -208 -176 0
v -208 -160 0
v -192 -160 0
v -176 -176 0
v -192 -176 0
v -192 -160 0
v -176 -160 0
v -160 -176 0
v -176 -176 0
v -176 -160 0
v -160 -160 0
v -144 -176 0
v -160 -176 0
v -160 -160 0
v -144 -160 0
v -128 -176 0
v -144 -176 0
v -144 -160 0
v -128 -160 0
v -112 -176 0
v -128 -176 0
v -128 -160 0
v -112 -160 0
v -96 -176 0
v -112 -176 0
v -112 -160 0
v -96 -160 0
v -80 -176 0
v -96 -176 0
v -96 -160 0
v -80 -160 0
v -64 -176 0
v -80 -176 0
v -80 -160 0
v -64 -160 0
v -48 -176 0
v -64 -176 0
v -64 -160 0
v -48 -160 0
v -32 -176 0
v -48 -176 0
v -48 -160 0
v -32 -160 0
v -16 -176 0
v -32 -176 0
v -32 -160 0
v -16 -160 0
v 0 -176 0
v -16 -176 0
v -16 -160 0
v 0 -160 0
v -240 -192 0
v -256 -192 0
v -256 -176 0
v -240 -176 0
v -224 -192 0
v -240 -192 0
v -240 -176 0
v -224 -176 0
v -208 -192 0
v -224 -192 0
v -224 -176 0
v -208 -176 0
v -192 -192 0
v -208 -192 0
v -208 -176 0
v -192 -176 0
v -176 -192 0
v -192 -192 0
v -192 -176 0
v -176 -176 0
v -160 -192 0
v -176 -192 0
v -176 -176 0
v -160 -176 0
v -144 -192 0
v -160 -192 0
v -160 -176 0
v -144 -176 0
v -128 -192 0
v -144 -192 0
v -144 -176 0
v -128 -176 0
v -112 -192 0
v -128 -192 0
v -128 -176 0
v -112 -176 0
v -96 -192 0
v -112 -192 0
v -112 -176 0
v -96 -176 0
v -80 -192 0
v -96 -192 0
v -96 -176 0
v -80 -176 0
v -64 -192 0
v -80 -192 0
v -80 -176 0
v -64 -176 0
v -48 -192 0
v -64 -192 0
v -64 -176 0
v -48 -176 0
v -32 -192 0
v -48 -192 0
v -48 -176 0
v -32 -176 0
v -16 -192 0
v -32 -192 0
v -32 -176 0
v -16 -176 0
v 0 -192 0
v -16 -192 0
v -16 -176 0
v 0 -176 0
v -240 -208 0
v -256 -208 0
v -256 -192 0
v -240 -192 0
v -224 -208 0
v -240 -208 0
v -240 -192 0
v -224 -192 0
v -208 -208 0
v -224 -208 0
v -224 -192 0
v -208 -192 0
v -192 -208 0
v -208 -208 0
v -208 -192 0
v -192 -192 0
v -176 -208 0
v -192 -208 0
v -192 -192 0
v -176 -192 0
v -160 -208 0
v -176 -208 0
v -176 -192 0
v -160 -192 0
v -144 -208 0
v -160 -208 0
v -160 -192 0
v -144 -192 0
v -128 -208 0
v -144 -208 0
v -144 -192 0
v -128 -192 0
v -112 -208 0
v -128 -208 0
v -128 -192 0
v -112 -192 0
v -96 -208 0
v -112 -208 0
v -112 -192 0
v -96 -192 0
v -80 -208 0
v -96 -208 0
v -96 -192 0
v -80 -192 0
v -64 -208 0
v -80 -208 0
v -80 -192 0
v -64 -192 0
v -48 -208 0
v -64 -208 0
v -64 -192 0
v -48 -192 0
v -32 -208 0
v -48 -208 0
v -48 -192 0
v -32 -192 0
v -16 -208 0
v -32 -208 0
v -32 -192 0
v -16 -192 0
v 0 -208 0
v -16 -208 0
v -16 -192 0
v 0 -192 0
v -240 -224 0
v -256 -224 0
v -256 -208 0
v -240 -208 0
v -224 -224 0
v -240 -224 0
v -240 -208 0
v -224 -208 0
v -208 -224 0
v -224 -224 0
v -224 -208 0
v -208 -208 0
v -192 -224 0
v -208 -224 0
v -208 -208 0
v -192 -208 0
v -176 -224 0
v -192 -224 0
v -192 -208 0
v -176 -208 0
v -160 -224 0
v -176 -224 0
v -176 -208 0
v -160 -208 0
v -144 -224 0
v -160 -224 0
v -160 -208 0
v -144 -208 0
v -128 -224 0
v -144 -224 0
v -144 -208 0
v -128 -208 0
v -112 -224 0
v -128 -224 0
v -128 -208 0
v -112 -208 0
v -96 -224 0
v -112 -224 0
v -112 -208 0
v -96 -208 0
v -80 -224 0
v -96 -224 0
v -96 -208 0
v -80 -208 0
v -64 -224 0
v -80 -224 0
v -80 -208 0
v -64 -208 0
v -48 -224 0
v -64 -224 0
v -64 -208 0
v -48 -208 0
v -32 -224 0
v -48 -224 0
v -48 -208 0
v -32 -208 0
v -16 -224 0
v -32 -224 0
v -32 -208 0
v -16 -208 0
v 0 -224 0
v -16 -224 0
v -16 -208 0
v 0 -208 0
v -240 -240 0
v -256 -240 0
v -256 -224 0
v -240 -224 0
v -224 -240 0
v -240 -240 0
v -240 -224 0
v -224 -224 0
v -208 -240 0
v -224 -240 0
v -224 -224 0
v -208 -224 0
v -192 -240 0
v -208 -240 0
v -208 -224 0
v -192 -224 0
v -176 -240 0
v -192 -240 0
v -192 -224 0
v -176 -224 0
v -160 -240 0
v -176 -240 0
v -176 -224 0
v -160 -224 0
v -144 -240 0
v -160 -240 0
v -160 -224 0
v -144 -224 0
v -128 -240 0
v -144 -240 0
v -144 -224 0
v -128 -224 0
v -112 -240 0
v -128 -240 0
v -128 -224 0
v -112 -224 0
v -96 -240 0
v -112 -240 0
v -112 -224 0
v -96 -224 0
v -80 -240 0
v -96 -240 0
v -96 -224 0
v -80 -224 0
v -64 -240 0
v -80 -240 0
v -80 -224 0
v -64 -224 0
v -48 -240 0
v -64 -240 0
v -64 -224 0
v -48 -224 0
v -32 -240 0
v -48 -240 0
v -48 -224 0
v -32 -224 0
v -16 -240 0
v -32 -240 0
v -32 -224 0
v -16 -224 0
v 0 -240 0
v -16 -240 0
v -16 -224 0
v 0 -224 0
v -240 -256 0
v -256 -256 0
v -256 -240 0
v -240 -240 0
v -224 -256 0
v -240 -256 0
v -240 -240 0
v -224 -240 0
v -208 -256 0
v -224 -256 0
v -224 -240 0
v -208 -240 0
v -192 -256 0
v -208 -256 0
v -208 -240 0
v -192 -240 0
v -176 -256 0
v -192 -256 0
v -192 -240 0
v -176 -240 0
v -160 -256 0
v -176 -256 0
v -176 -240 0
v -160 -240 0
v -144 -256 0
v -160 -256 0
v -160 -240 0
v -144 -240 0
v -128 -256 0
v -144 -256 0
v -144 -240 0
v -128 -240 0
v -112 -256 0
v -128 -256 0
v -128 -240 0
v -112 -240 0
v -96 -256 0
v -112 -256 0
v -112 -240 0
v -96 -240 0
v -80 -256 0
v -96 -256 0
v -96 -240 0
v -80 -240 0
v -64 -256 0
v -80 -256 0
v -80 -240 0
v -64 -240 0
v -48 -256 0
v -64 -256 0
v -64 -240 0
v -48 -240 0
v -32 -256 0
v -48 -256 0
v -48 -240 0
v -32 -240 0
v -16 -256 0
v -32 -256 0
v -32 -240 0
v -16 -240 0
v 0 -256 0
v -16 -256 0
v -16 -240 0
v 0 -240 0

# Texture cooridinates (Count = 9)
vt 0.2 0.7222222
vt 0.225 0.7222222
vt 0.225 0.75
vt 0.2 0.75
vt 0.175 0.7222222
vt 0.175 0.75
vt 0.175 0.6944444
vt 0.2 0.6944444
vt 0.225 0.6944444

# Normal
vn 0 0 -1

# Mesh description
g Village_mesh_0057

# Faces
f 1/1/1 2/2/1 3/3/1 4/4/1
f 5/5/1 6/1/1 7/4/1 8/6/1
f 9/1/1 10/2/1 11/3/1 12/4/1
f 13/5/1 14/1/1 15/4/1 16/6/1
f 17/1/1 18/2/1 19/3/1 20/4/1
f 21/1/1 22/2/1 23/3/1 24/4/1
f 25/1/1 26/2/1 27/3/1 28/4/1
f 29/1/1 30/2/1 31/3/1 32/4/1
f 33/5/1 34/1/1 35/4/1 36/6/1
f 37/5/1 38/1/1 39/4/1 40/6/1
f 41/5/1 42/1/1 43/4/1 44/6/1
f 45/7/1 46/8/1 47/1/1 48/5/1
f 49/7/1 50/8/1 51/1/1 52/5/1
f 53/8/1 54/9/1 55/2/1 56/1/1
f 57/1/1 58/2/1 59/3/1 60/4/1
f 61/1/1 62/2/1 63/3/1 64/4/1
f 65/8/1 66/9/1 67/2/1 68/1/1
f 69/7/1 70/8/1 71/1/1 72/5/1
f 73/7/1 74/8/1 75/1/1 76/5/1
f 77/7/1 78/8/1 79/1/1 80/5/1
f 81/5/1 82/1/1 83/4/1 84/6/1
f 85/1/1 86/2/1 87/3/1 88/4/1
f 89/5/1 90/1/1 91/4/1 92/6/1
f 93/1/1 94/2/1 95/3/1 96/4/1
f 97/5/1 98/1/1 99/4/1 100/6/1
f 101/7/1 102/8/1 103/1/1 104/5/1
f 105/7/1 106/8/1 107/1/1 108/5/1
f 109/8/1 110/9/1 111/2/1 112/1/1
f 113/8/1 114/9/1 115/2/1 116/1/1
f 117/1/1 118/2/1 119/3/1 120/4/1
f 121/5/1 122/1/1 123/4/1 124/6/1
f 125/5/1 126/1/1 127/4/1 128/6/1
f 129/8/1 130/9/1 131/2/1 132/1/1
f 133/7/1 134/8/1 135/1/1 136/5/1
f 137/1/1 138/2/1 139/3/1 140/4/1
f 141/5/1 142/1/1 143/4/1 144/6/1
f 145/7/1 146/8/1 147/1/1 148/5/1
f 149/8/1 150/9/1 151/2/1 152/1/1
f 153/1/1 154/2/1 155/3/1 156/4/1
f 157/5/1 158/1/1 159/4/1 160/6/1
f 161/5/1 162/1/1 163/4/1 164/6/1
f 165/1/1 166/2/1 167/3/1 168/4/1
f 169/5/1 170/1/1 171/4/1 172/6/1
f 173/7/1 174/8/1 175/1/1 176/5/1
f 177/7/1 178/8/1 179/1/1 180/5/1
f 181/1/1 182/2/1 183/3/1 184/4/1
f 185/7/1 186/8/1 187/1/1 188/5/1
f 189/7/1 190/8/1 191/1/1 192/5/1
f 193/7/1 194/8/1 195/1/1 196/5/1
f 197/1/1 198/2/1 199/3/1 200/4/1
f 201/1/1 202/2/1 203/3/1 204/4/1
f 205/1/1 206/2/1 207/3/1 208/4/1
f 209/5/1 210/1/1 211/4/1 212/6/1
f 213/1/1 214/2/1 215/3/1 216/4/1
f 217/5/1 218/1/1 219/4/1 220/6/1
f 221/5/1 222/1/1 223/4/1 224/6/1
f 225/7/1 226/8/1 227/1/1 228/5/1
f 229/8/1 230/9/1 231/2/1 232/1/1
f 233/1/1 234/2/1 235/3/1 236/4/1
f 237/5/1 238/1/1 239/4/1 240/6/1
f 241/7/1 242/8/1 243/1/1 244/5/1
f 245/8/1 246/9/1 247/2/1 248/1/1
f 249/7/1 250/8/1 251/1/1 252/5/1
f 253/7/1 254/8/1 255/1/1 256/5/1
f 257/8/1 258/9/1 259/2/1 260/1/1
f 261/8/1 262/9/1 263/2/1 264/1/1
f 265/7/1 266/8/1 267/1/1 268/5/1
f 269/5/1 270/1/1 271/4/1 272/6/1
f 273/8/1 274/9/1 275/2/1 276/1/1
f 277/8/1 278/9/1 279/2/1 280/1/1
f 281/7/1 282/8/1 283/1/1 284/5/1
f 285/7/1 286/8/1 287/1/1 288/5/1
f 289/5/1 290/1/1 291/4/1 292/6/1
f 293/5/1 294/1/1 295/4/1 296/6/1
f 297/5/1 298/1/1 299/4/1 300/6/1
f 301/1/1 302/2/1 303/3/1 304/4/1
f 305/1/1 306/2/1 307/3/1 308/4/1
f 309/8/1 310/9/1 311/2/1 312/1/1
f 313/1/1 314/2/1 315/3/1 316/4/1
f 317/7/1 318/8/1 319/1/1 320/5/1
f 321/8/1 322/9/1 323/2/1 324/1/1
f 325/5/1 326/1/1 327/4/1 328/6/1
f 329/1/1 330/2/1 331/3/1 332/4/1
f 333/1/1 334/2/1 335/3/1 336/4/1
f 337/1/1 338/2/1 339/3/1 340/4/1
f 341/8/1 342/9/1 343/2/1 344/1/1
f 345/7/1 346/8/1 347/1/1 348/5/1
f 349/1/1 350/2/1 351/3/1 352/4/1
f 353/1/1 354/2/1 355/3/1 356/4/1
f 357/7/1 358/8/1 359/1/1 360/5/1
f 361/8/1 362/9/1 363/2/1 364/1/1
f 365/5/1 366/1/1 367/4/1 368/6/1
f 369/8/1 370/9/1 371/2/1 372/1/1
f 373/1/1 374/2/1 375/3/1 376/4/1
f 377/8/1 378/9/1 379/2/1 380/1/1
f 381/5/1 382/1/1 383/4/1 384/6/1
f 385/8/1 386/9/1 387/2/1 388/1/1
f 389/8/1 390/9/1 391/2/1 392/1/1
f 393/8/1 394/9/1 395/2/1 396/1/1
f 397/1/1 398/2/1 399/3/1 400/4/1
f 401/7/1 402/8/1 403/1/1 404/5/1
f 405/5/1 406/1/1 407/4/1 408/6/1
f 409/1/1 410/2/1 411/3/1 412/4/1
f 413/1/1 414/2/1 415/3/1 416/4/1
f 417/1/1 418/2/1 419/3/1 420/4/1
f 421/7/1 422/8/1 423/1/1 424/5/1
f 425/5/1 426/1/1 427/4/1 428/6/1
f 429/8/1 430/9/1 431/2/1 432/1/1
f 433/8/1 434/9/1 435/2/1 436/1/1
f 437/5/1 438/1/1 439/4/1 440/6/1
f 441/8/1 442/9/1 443/2/1 444/1/1
f 445/7/1 446/8/1 447/1/1 448/5/1
f 449/7/1 450/8/1 451/1/1 452/5/1
f 453/5/1 454/1/1 455/4/1 456/6/1
f 457/5/1 458/1/1 459/4/1 460/6/1
f 461/7/1 462/8/1 463/1/1 464/5/1
f 465/5/1 466/1/1 467/4/1 468/6/1
f 469/5/1 470/1/1 471/4/1 472/6/1
f 473/7/1 474/8/1 475/1/1 476/5/1
f 477/8/1 478/9/1 479/2/1 480/1/1
f 481/7/1 482/8/1 483/1/1 484/5/1
f 485/7/1 486/8/1 487/1/1 488/5/1
f 489/7/1 490/8/1 491/1/1 492/5/1
f 493/5/1 494/1/1 495/4/1 496/6/1
f 497/8/1 498/9/1 499/2/1 500/1/1
f 501/1/1 502/2/1 503/3/1 504/4/1
f 505/7/1 506/8/1 507/1/1 508/5/1
f 509/8/1 510/9/1 511/2/1 512/1/1
f 513/7/1 514/8/1 515/1/1 516/5/1
f 517/8/1 518/9/1 519/2/1 520/1/1
f 521/5/1 522/1/1 523/4/1 524/6/1
f 525/7/1 526/8/1 527/1/1 528/5/1
f 529/1/1 530/2/1 531/3/1 532/4/1
f 533/7/1 534/8/1 535/1/1 536/5/1
f 537/1/1 538/2/1 539/3/1 540/4/1
f 541/7/1 542/8/1 543/1/1 544/5/1
f 545/7/1 546/8/1 547/1/1 548/5/1
f 549/8/1 550/9/1 551/2/1 552/1/1
f 553/1/1 554/2/1 555/3/1 556/4/1
f 557/5/1 558/1/1 559/4/1 560/6/1
f 561/7/1 562/8/1 563/1/1 564/5/1
f 565/7/1 566/8/1 567/1/1 568/5/1
f 569/1/1 570/2/1 571/3/1 572/4/1
f 573/8/1 574/9/1 575/2/1 576/1/1
f 577/7/1 578/8/1 579/1/1 580/5/1
f 581/7/1 582/8/1 583/1/1 584/5/1
f 585/1/1 586/2/1 587/3/1 588/4/1
f 589/7/1 590/8/1 591/1/1 592/5/1
f 593/5/1 594/1/1 595/4/1 596/6/1
f 597/1/1 598/2/1 599/3/1 600/4/1
f 601/8/1 602/9/1 603/2/1 604/1/1
f 605/7/1 606/8/1 607/1/1 608/5/1
f 609/1/1 610/2/1 611/3/1 612/4/1
f 613/1/1 614/2/1 615/3/1 616/4/1
f 617/7/1 618/8/1 619/1/1 620/5/1
f 621/7/1 622/8/1 623/1/1 624/5/1
f 625/7/1 626/8/1 627/1/1 628/5/1
f 629/5/1 630/1/1 631/4/1 632/6/1
f 633/1/1 634/2/1 635/3/1 636/4/1
f 637/5/1 638/1/1 639/4/1 640/6/1
f 641/8/1 642/9/1 643/2/1 644/1/1
f 645/8/1 646/9/1 647/2/1 648/1/1
f 649/1/1 650/2/1 651/3/1 652/4/1
f 653/8/1 654/9/1 655/2/1 656/1/1
f 657/1/1 658/2/1 659/3/1 660/4/1
f 661/7/1 662/8/1 663/1/1 664/5/1
f 665/5/1 666/1/1 667/4/1 668/6/1
f 669/1/1 670/2/1 671/3/1 672/4/1
f 673/5/1 674/1/1 675/4/1 676/6/1
f 677/5/1 678/1/1 679/4/1 680/6/1
f 681/7/1 682/8/1 683/1/1 684/5/1
f 685/7/1 686/8/1 687/1/1 688/5/1
f 689/1/1 690/2/1 691/3/1 692/4/1
f 693/7/1 694/8/1 695/1/1 696/5/1
f 697/8/1 698/9/1 699/2/1 700/1/1
f 701/7/1 702/8/1 703/1/1 704/5/1
f 705/8/1 706/9/1 707/2/1 708/1/1
f 709/8/1 710/9/1 711/2/1 712/1/1
f 713/1/1 714/2/1 715/3/1 716/4/1
f 717/7/1 718/8/1 719/1/1 720/5/1
f 721/5/1 722/1/1 723/4/1 724/6/1
f 725/5/1 726/1/1 727/4/1 728/6/1
f 729/1/1 730/2/1 731/3/1 732/4/1
f 733/8/1 734/9/1 735/2/1 736/1/1
f 737/8/1 738/9/1 739/2/1 740/1/1
f 741/7/1 742/8/1 743/1/1 744/5/1
f 745/7/1 746/8/1 747/1/1 748/5/1
f 749/5/1 750/1/1 751/4/1 752/6/1
f 753/7/1 754/8/1 755/1/1 756/5/1
f 757/7/1 758/8/1 759/1/1 760/5/1
f 761/8/1 762/9/1 763/2/1 764/1/1
f 765/1/1 766/2/1 767/3/1 768/4/1
f 769/8/1 770/9/1 771/2/1 772/1/1
f 773/8/1 774/9/1 775/2/1 776/1/1
f 777/1/1 778/2/1 779/3/1 780/4/1
f 781/8/1 782/9/1 783/2/1 784/1/1
f 785/1/1 786/2/1 787/3/1 788/4/1
f 789/7/1 790/8/1 791/1/1 792/5/1
f 793/8/1 794/9/1 795/2/1 796/1/1
f 797/7/1 798/8/1 799/1/1 800/5/1
f 801/8/1 802/9/1 803/2/1 804/1/1
f 805/5/1 806/1/1 807/4/1 808/6/1
f 809/8/1 810/9/1 811/2/1 812/1/1
f 813/8/1 814/9/1 815/2/1 816/1/1
f 817/5/1 818/1/1 819/4/1 820/6/1
f 821/7/1 822/8/1 823/1/1 824/5/1
f 825/1/1 826/2/1 827/3/1 828/4/1
f 829/8/1 830/9/1 831/2/1 832/1/1
f 833/7/1 834/8/1 835/1/1 836/5/1
f 837/5/1 838/1/1 839/4/1 840/6/1
f 841/1/1 842/2/1 843/3/1 844/4/1
f 845/5/1 846/1/1 847/4/1 848/6/1
f 849/1/1 850/2/1 851/3/1 852/4/1
f 853/7/1 854/8/1 855/1/1 856/5/1
f 857/7/1 858/8/1 859/1/1 860/5/1
f 861/1/1 862/2/1 863/3/1 864/4/1
f 865/7/1 866/8/1 867/1/1 868/5/1
f 869/7/1 870/8/1 871/1/1 872/5/1
f 873/5/1 874/1/1 875/4/1 876/6/1
f 877/7/1 878/8/1 879/1/1 880/5/1
f 881/8/1 882/9/1 883/2/1 884/1/1
f 885/5/1 886/1/1 887/4/1 888/6/1
f 889/1/1 890/2/1 891/3/1 892/4/1
f 893/5/1 894/1/1 895/4/1 896/6/1
f 897/5/1 898/1/1 899/4/1 900/6/1
f 901/8/1 902/9/1 903/2/1 904/1/1
f 905/7/1 906/8/1 907/1/1 908/5/1
f 909/8/1 910/9/1 911/2/1 912/1/1
f 913/1/1 914/2/1 915/3/1 916/4/1
f 917/8/1 918/9/1 919/2/1 920/1/1
f 921/8/1 922/9/1 923/2/1 924/1/1
f 925/1/1 926/2/1 927/3/1 928/4/1
f 929/8/1 930/9/1 931/2/1 932/1/1
f 933/8/1 934/9/1 935/2/1 936/1/1
f 937/8/1 938/9/1 939/2/1 940/1/1
f 941/7/1 942/8/1 943/1/1 944/5/1
f 945/7/1 946/8/1 947/1/1 948/5/1
f 949/7/1 950/8/1 951/1/1 952/5/1
f 953/1/1 954/2/1 955/3/1 956/4/1
f 957/7/1 958/8/1 959/1/1 960/5/1
f 961/5/1 962/1/1 963/4/1 964/6/1
f 965/7/1 966/8/1 967/1/1 968/5/1
f 969/1/1 970/2/1 971/3/1 972/4/1
f 973/5/1 974/1/1 975/4/1 976/6/1
f 977/5/1 978/1/1 979/4/1 980/6/1
f 981/1/1 982/2/1 983/3/1 984/4/1
f 985/1/1 986/2/1 987/3/1 988/4/1
f 989/7/1 990/8/1 991/1/1 992/5/1
f 993/8/1 994/9/1 995/2/1 996/1/1
f 997/1/1 998/2/1 999/3/1 1000/4/1
f 1001/1/1 1002/2/1 1003/3/1 1004/4/1
f 1005/5/1 1006/1/1 1007/4/1 1008/6/1
f 1009/5/1 1010/1/1 1011/4/1 1012/6/1
f 1013/7/1 1014/8/1 1015/1/1 1016/5/1
f 1017/7/1 1018/8/1 1019/1/1 1020/5/1
f 1021/5/1 1022/1/1 1023/4/1 1024/6/1

