# Tiled2Unity generated file. Do not modify by hand.
# Wavefront file for 'Village_mesh_0008.obj'

# Vertices (Count = 1024)
v -240 -16 0
v -256 -16 0
v -256 0 0
v -240 0 0
v -224 -16 0
v -240 -16 0
v -240 0 0
v -224 0 0
v -208 -16 0
v -224 -16 0
v -224 0 0
v -208 0 0
v -192 -16 0
v -208 -16 0
v -208 0 0
v -192 0 0
v -176 -16 0
v -192 -16 0
v -192 0 0
v -176 0 0
v -160 -16 0
v -176 -16 0
v -176 0 0
v -160 0 0
v -144 -16 0
v -160 -16 0
v -160 0 0
v -144 0 0
v -128 -16 0
v -144 -16 0
v -144 0 0
v -128 0 0
v -112 -16 0
v -128 -16 0
v -128 0 0
v -112 0 0
v -96 -16 0
v -112 -16 0
v -112 0 0
v -96 0 0
v -80 -16 0
v -96 -16 0
v -96 0 0
v -80 0 0
v -64 -16 0
v -80 -16 0
v -80 0 0
v -64 0 0
v -48 -16 0
v -64 -16 0
v -64 0 0
v -48 0 0
v -32 -16 0
v -48 -16 0
v -48 0 0
v -32 0 0
v -16 -16 0
v -32 -16 0
v -32 0 0
v -16 0 0
v 0 -16 0
v -16 -16 0
v -16 0 0
v 0 0 0
v -240 -32 0
v -256 -32 0
v -256 -16 0
v -240 -16 0
v -224 -32 0
v -240 -32 0
v -240 -16 0
v -224 -16 0
v -208 -32 0
v -224 -32 0
v -224 -16 0
v -208 -16 0
v -192 -32 0
v -208 -32 0
v -208 -16 0
v -192 -16 0
v -176 -32 0
v -192 -32 0
v -192 -16 0
v -176 -16 0
v -160 -32 0
v -176 -32 0
v -176 -16 0
v -160 -16 0
v -144 -32 0
v -160 -32 0
v -160 -16 0
v -144 -16 0
v -128 -32 0
v -144 -32 0
v -144 -16 0
v -128 -16 0
v -112 -32 0
v -128 -32 0
v -128 -16 0
v -112 -16 0
v -96 -32 0
v -112 -32 0
v -112 -16 0
v -96 -16 0
v -80 -32 0
v -96 -32 0
v -96 -16 0
v -80 -16 0
v -64 -32 0
v -80 -32 0
v -80 -16 0
v -64 -16 0
v -48 -32 0
v -64 -32 0
v -64 -16 0
v -48 -16 0
v -32 -32 0
v -48 -32 0
v -48 -16 0
v -32 -16 0
v -16 -32 0
v -32 -32 0
v -32 -16 0
v -16 -16 0
v 0 -32 0
v -16 -32 0
v -16 -16 0
v 0 -16 0
v -240 -48 0
v -256 -48 0
v -256 -32 0
v -240 -32 0
v -224 -48 0
v -240 -48 0
v -240 -32 0
v -224 -32 0
v -208 -48 0
v -224 -48 0
v -224 -32 0
v -208 -32 0
v -192 -48 0
v -208 -48 0
v -208 -32 0
v -192 -32 0
v -176 -48 0
v -192 -48 0
v -192 -32 0
v -176 -32 0
v -160 -48 0
v -176 -48 0
v -176 -32 0
v -160 -32 0
v -144 -48 0
v -160 -48 0
v -160 -32 0
v -144 -32 0
v -128 -48 0
v -144 -48 0
v -144 -32 0
v -128 -32 0
v -112 -48 0
v -128 -48 0
v -128 -32 0
v -112 -32 0
v -96 -48 0
v -112 -48 0
v -112 -32 0
v -96 -32 0
v -80 -48 0
v -96 -48 0
v -96 -32 0
v -80 -32 0
v -64 -48 0
v -80 -48 0
v -80 -32 0
v -64 -32 0
v -48 -48 0
v -64 -48 0
v -64 -32 0
v -48 -32 0
v -32 -48 0
v -48 -48 0
v -48 -32 0
v -32 -32 0
v -16 -48 0
v -32 -48 0
v -32 -32 0
v -16 -32 0
v 0 -48 0
v -16 -48 0
v -16 -32 0
v 0 -32 0
v -240 -64 0
v -256 -64 0
v -256 -48 0
v -240 -48 0
v -224 -64 0
v -240 -64 0
v -240 -48 0
v -224 -48 0
v -208 -64 0
v -224 -64 0
v -224 -48 0
v -208 -48 0
v -192 -64 0
v -208 -64 0
v -208 -48 0
v -192 -48 0
v -176 -64 0
v -192 -64 0
v -192 -48 0
v -176 -48 0
v -160 -64 0
v -176 -64 0
v -176 -48 0
v -160 -48 0
v -144 -64 0
v -160 -64 0
v -160 -48 0
v -144 -48 0
v -128 -64 0
v -144 -64 0
v -144 -48 0
v -128 -48 0
v -112 -64 0
v -128 -64 0
v -128 -48 0
v -112 -48 0
v -96 -64 0
v -112 -64 0
v -112 -48 0
v -96 -48 0
v -80 -64 0
v -96 -64 0
v -96 -48 0
v -80 -48 0
v -64 -64 0
v -80 -64 0
v -80 -48 0
v -64 -48 0
v -48 -64 0
v -64 -64 0
v -64 -48 0
v -48 -48 0
v -32 -64 0
v -48 -64 0
v -48 -48 0
v -32 -48 0
v -16 -64 0
v -32 -64 0
v -32 -48 0
v -16 -48 0
v 0 -64 0
v -16 -64 0
v -16 -48 0
v 0 -48 0
v -240 -80 0
v -256 -80 0
v -256 -64 0
v -240 -64 0
v -224 -80 0
v -240 -80 0
v -240 -64 0
v -224 -64 0
v -208 -80 0
v -224 -80 0
v -224 -64 0
v -208 -64 0
v -192 -80 0
v -208 -80 0
v -208 -64 0
v -192 -64 0
v -176 -80 0
v -192 -80 0
v -192 -64 0
v -176 -64 0
v -160 -80 0
v -176 -80 0
v -176 -64 0
v -160 -64 0
v -144 -80 0
v -160 -80 0
v -160 -64 0
v -144 -64 0
v -128 -80 0
v -144 -80 0
v -144 -64 0
v -128 -64 0
v -112 -80 0
v -128 -80 0
v -128 -64 0
v -112 -64 0
v -96 -80 0
v -112 -80 0
v -112 -64 0
v -96 -64 0
v -80 -80 0
v -96 -80 0
v -96 -64 0
v -80 -64 0
v -64 -80 0
v -80 -80 0
v -80 -64 0
v -64 -64 0
v -48 -80 0
v -64 -80 0
v -64 -64 0
v -48 -64 0
v -32 -80 0
v -48 -80 0
v -48 -64 0
v -32 -64 0
v -16 -80 0
v -32 -80 0
v -32 -64 0
v -16 -64 0
v 0 -80 0
v -16 -80 0
v -16 -64 0
v 0 -64 0
v -240 -96 0
v -256 -96 0
v -256 -80 0
v -240 -80 0
v -224 -96 0
v -240 -96 0
v -240 -80 0
v -224 -80 0
v -208 -96 0
v -224 -96 0
v -224 -80 0
v -208 -80 0
v -192 -96 0
v -208 -96 0
v -208 -80 0
v -192 -80 0
v -176 -96 0
v -192 -96 0
v -192 -80 0
v -176 -80 0
v -160 -96 0
v -176 -96 0
v -176 -80 0
v -160 -80 0
v -144 -96 0
v -160 -96 0
v -160 -80 0
v -144 -80 0
v -128 -96 0
v -144 -96 0
v -144 -80 0
v -128 -80 0
v -112 -96 0
v -128 -96 0
v -128 -80 0
v -112 -80 0
v -96 -96 0
v -112 -96 0
v -112 -80 0
v -96 -80 0
v -80 -96 0
v -96 -96 0
v -96 -80 0
v -80 -80 0
v -64 -96 0
v -80 -96 0
v -80 -80 0
v -64 -80 0
v -48 -96 0
v -64 -96 0
v -64 -80 0
v -48 -80 0
v -32 -96 0
v -48 -96 0
v -48 -80 0
v -32 -80 0
v -16 -96 0
v -32 -96 0
v -32 -80 0
v -16 -80 0
v 0 -96 0
v -16 -96 0
v -16 -80 0
v 0 -80 0
v -240 -112 0
v -256 -112 0
v -256 -96 0
v -240 -96 0
v -224 -112 0
v -240 -112 0
v -240 -96 0
v -224 -96 0
v -208 -112 0
v -224 -112 0
v -224 -96 0
v -208 -96 0
v -192 -112 0
v -208 -112 0
v -208 -96 0
v -192 -96 0
v -176 -112 0
v -192 -112 0
v -192 -96 0
v -176 -96 0
v -160 -112 0
v -176 -112 0
v -176 -96 0
v -160 -96 0
v -144 -112 0
v -160 -112 0
v -160 -96 0
v -144 -96 0
v -128 -112 0
v -144 -112 0
v -144 -96 0
v -128 -96 0
v -112 -112 0
v -128 -112 0
v -128 -96 0
v -112 -96 0
v -96 -112 0
v -112 -112 0
v -112 -96 0
v -96 -96 0
v -80 -112 0
v -96 -112 0
v -96 -96 0
v -80 -96 0
v -64 -112 0
v -80 -112 0
v -80 -96 0
v -64 -96 0
v -48 -112 0
v -64 -112 0
v -64 -96 0
v -48 -96 0
v -32 -112 0
v -48 -112 0
v -48 -96 0
v -32 -96 0
v -16 -112 0
v -32 -112 0
v -32 -96 0
v -16 -96 0
v 0 -112 0
v -16 -112 0
v -16 -96 0
v 0 -96 0
v -240 -128 0
v -256 -128 0
v -256 -112 0
v -240 -112 0
v -224 -128 0
v -240 -128 0
v -240 -112 0
v -224 -112 0
v -208 -128 0
v -224 -128 0
v -224 -112 0
v -208 -112 0
v -192 -128 0
v -208 -128 0
v -208 -112 0
v -192 -112 0
v -176 -128 0
v -192 -128 0
v -192 -112 0
v -176 -112 0
v -160 -128 0
v -176 -128 0
v -176 -112 0
v -160 -112 0
v -144 -128 0
v -160 -128 0
v -160 -112 0
v -144 -112 0
v -128 -128 0
v -144 -128 0
v -144 -112 0
v -128 -112 0
v -112 -128 0
v -128 -128 0
v -128 -112 0
v -112 -112 0
v -96 -128 0
v -112 -128 0
v -112 -112 0
v -96 -112 0
v -80 -128 0
v -96 -128 0
v -96 -112 0
v -80 -112 0
v -64 -128 0
v -80 -128 0
v -80 -112 0
v -64 -112 0
v -48 -128 0
v -64 -128 0
v -64 -112 0
v -48 -112 0
v -32 -128 0
v -48 -128 0
v -48 -112 0
v -32 -112 0
v -16 -128 0
v -32 -128 0
v -32 -112 0
v -16 -112 0
v 0 -128 0
v -16 -128 0
v -16 -112 0
v 0 -112 0
v -240 -144 0
v -256 -144 0
v -256 -128 0
v -240 -128 0
v -224 -144 0
v -240 -144 0
v -240 -128 0
v -224 -128 0
v -208 -144 0
v -224 -144 0
v -224 -128 0
v -208 -128 0
v -192 -144 0
v -208 -144 0
v -208 -128 0
v -192 -128 0
v -176 -144 0
v -192 -144 0
v -192 -128 0
v -176 -128 0
v -160 -144 0
v -176 -144 0
v -176 -128 0
v -160 -128 0
v -144 -144 0
v -160 -144 0
v -160 -128 0
v -144 -128 0
v -128 -144 0
v -144 -144 0
v -144 -128 0
v -128 -128 0
v -112 -144 0
v -128 -144 0
v -128 -128 0
v -112 -128 0
v -96 -144 0
v -112 -144 0
v -112 -128 0
v -96 -128 0
v -80 -144 0
v -96 -144 0
v -96 -128 0
v -80 -128 0
v -64 -144 0
v -80 -144 0
v -80 -128 0
v -64 -128 0
v -48 -144 0
v -64 -144 0
v -64 -128 0
v -48 -128 0
v -32 -144 0
v -48 -144 0
v -48 -128 0
v -32 -128 0
v -16 -144 0
v -32 -144 0
v -32 -128 0
v -16 -128 0
v 0 -144 0
v -16 -144 0
v -16 -128 0
v 0 -128 0
v -240 -160 0
v -256 -160 0
v -256 -144 0
v -240 -144 0
v -224 -160 0
v -240 -160 0
v -240 -144 0
v -224 -144 0
v -208 -160 0
v -224 -160 0
v -224 -144 0
v -208 -144 0
v -192 -160 0
v -208 -160 0
v -208 -144 0
v -192 -144 0
v -176 -160 0
v -192 -160 0
v -192 -144 0
v -176 -144 0
v -160 -160 0
v -176 -160 0
v -176 -144 0
v -160 -144 0
v -144 -160 0
v -160 -160 0
v -160 -144 0
v -144 -144 0
v -128 -160 0
v -144 -160 0
v -144 -144 0
v -128 -144 0
v -112 -160 0
v -128 -160 0
v -128 -144 0
v -112 -144 0
v -96 -160 0
v -112 -160 0
v -112 -144 0
v -96 -144 0
v -80 -160 0
v -96 -160 0
v -96 -144 0
v -80 -144 0
v -64 -160 0
v -80 -160 0
v -80 -144 0
v -64 -144 0
v -48 -160 0
v -64 -160 0
v -64 -144 0
v -48 -144 0
v -32 -160 0
v -48 -160 0
v -48 -144 0
v -32 -144 0
v -16 -160 0
v -32 -160 0
v -32 -144 0
v -16 -144 0
v 0 -160 0
v -16 -160 0
v -16 -144 0
v 0 -144 0
v -240 -176 0
v -256 -176 0
v -256 -160 0
v -240 -160 0
v -224 -176 0
v -240 -176 0
v -240 -160 0
v -224 -160 0
v -208 -176 0
v -224 -176 0
v -224 -160 0
v -208 -160 0
v -192 -176 0
v -208 -176 0
v -208 -160 0
v -192 -160 0
v -176 -176 0
v -192 -176 0
v -192 -160 0
v -176 -160 0
v -160 -176 0
v -176 -176 0
v -176 -160 0
v -160 -160 0
v -144 -176 0
v -160 -176 0
v -160 -160 0
v -144 -160 0
v -128 -176 0
v -144 -176 0
v -144 -160 0
v -128 -160 0
v -112 -176 0
v -128 -176 0
v -128 -160 0
v -112 -160 0
v -96 -176 0
v -112 -176 0
v -112 -160 0
v -96 -160 0
v -80 -176 0
v -96 -176 0
v -96 -160 0
v -80 -160 0
v -64 -176 0
v -80 -176 0
v -80 -160 0
v -64 -160 0
v -48 -176 0
v -64 -176 0
v -64 -160 0
v -48 -160 0
v -32 -176 0
v -48 -176 0
v -48 -160 0
v -32 -160 0
v -16 -176 0
v -32 -176 0
v -32 -160 0
v -16 -160 0
v 0 -176 0
v -16 -176 0
v -16 -160 0
v 0 -160 0
v -240 -192 0
v -256 -192 0
v -256 -176 0
v -240 -176 0
v -224 -192 0
v -240 -192 0
v -240 -176 0
v -224 -176 0
v -208 -192 0
v -224 -192 0
v -224 -176 0
v -208 -176 0
v -192 -192 0
v -208 -192 0
v -208 -176 0
v -192 -176 0
v -176 -192 0
v -192 -192 0
v -192 -176 0
v -176 -176 0
v -160 -192 0
v -176 -192 0
v -176 -176 0
v -160 -176 0
v -144 -192 0
v -160 -192 0
v -160 -176 0
v -144 -176 0
v -128 -192 0
v -144 -192 0
v -144 -176 0
v -128 -176 0
v -112 -192 0
v -128 -192 0
v -128 -176 0
v -112 -176 0
v -96 -192 0
v -112 -192 0
v -112 -176 0
v -96 -176 0
v -80 -192 0
v -96 -192 0
v -96 -176 0
v -80 -176 0
v -64 -192 0
v -80 -192 0
v -80 -176 0
v -64 -176 0
v -48 -192 0
v -64 -192 0
v -64 -176 0
v -48 -176 0
v -32 -192 0
v -48 -192 0
v -48 -176 0
v -32 -176 0
v -16 -192 0
v -32 -192 0
v -32 -176 0
v -16 -176 0
v 0 -192 0
v -16 -192 0
v -16 -176 0
v 0 -176 0
v -240 -208 0
v -256 -208 0
v -256 -192 0
v -240 -192 0
v -224 -208 0
v -240 -208 0
v -240 -192 0
v -224 -192 0
v -208 -208 0
v -224 -208 0
v -224 -192 0
v -208 -192 0
v -192 -208 0
v -208 -208 0
v -208 -192 0
v -192 -192 0
v -176 -208 0
v -192 -208 0
v -192 -192 0
v -176 -192 0
v -160 -208 0
v -176 -208 0
v -176 -192 0
v -160 -192 0
v -144 -208 0
v -160 -208 0
v -160 -192 0
v -144 -192 0
v -128 -208 0
v -144 -208 0
v -144 -192 0
v -128 -192 0
v -112 -208 0
v -128 -208 0
v -128 -192 0
v -112 -192 0
v -96 -208 0
v -112 -208 0
v -112 -192 0
v -96 -192 0
v -80 -208 0
v -96 -208 0
v -96 -192 0
v -80 -192 0
v -64 -208 0
v -80 -208 0
v -80 -192 0
v -64 -192 0
v -48 -208 0
v -64 -208 0
v -64 -192 0
v -48 -192 0
v -32 -208 0
v -48 -208 0
v -48 -192 0
v -32 -192 0
v -16 -208 0
v -32 -208 0
v -32 -192 0
v -16 -192 0
v 0 -208 0
v -16 -208 0
v -16 -192 0
v 0 -192 0
v -240 -224 0
v -256 -224 0
v -256 -208 0
v -240 -208 0
v -224 -224 0
v -240 -224 0
v -240 -208 0
v -224 -208 0
v -208 -224 0
v -224 -224 0
v -224 -208 0
v -208 -208 0
v -192 -224 0
v -208 -224 0
v -208 -208 0
v -192 -208 0
v -176 -224 0
v -192 -224 0
v -192 -208 0
v -176 -208 0
v -160 -224 0
v -176 -224 0
v -176 -208 0
v -160 -208 0
v -144 -224 0
v -160 -224 0
v -160 -208 0
v -144 -208 0
v -128 -224 0
v -144 -224 0
v -144 -208 0
v -128 -208 0
v -112 -224 0
v -128 -224 0
v -128 -208 0
v -112 -208 0
v -96 -224 0
v -112 -224 0
v -112 -208 0
v -96 -208 0
v -80 -224 0
v -96 -224 0
v -96 -208 0
v -80 -208 0
v -64 -224 0
v -80 -224 0
v -80 -208 0
v -64 -208 0
v -48 -224 0
v -64 -224 0
v -64 -208 0
v -48 -208 0
v -32 -224 0
v -48 -224 0
v -48 -208 0
v -32 -208 0
v -16 -224 0
v -32 -224 0
v -32 -208 0
v -16 -208 0
v 0 -224 0
v -16 -224 0
v -16 -208 0
v 0 -208 0
v -240 -240 0
v -256 -240 0
v -256 -224 0
v -240 -224 0
v -224 -240 0
v -240 -240 0
v -240 -224 0
v -224 -224 0
v -208 -240 0
v -224 -240 0
v -224 -224 0
v -208 -224 0
v -192 -240 0
v -208 -240 0
v -208 -224 0
v -192 -224 0
v -176 -240 0
v -192 -240 0
v -192 -224 0
v -176 -224 0
v -160 -240 0
v -176 -240 0
v -176 -224 0
v -160 -224 0
v -144 -240 0
v -160 -240 0
v -160 -224 0
v -144 -224 0
v -128 -240 0
v -144 -240 0
v -144 -224 0
v -128 -224 0
v -112 -240 0
v -128 -240 0
v -128 -224 0
v -112 -224 0
v -96 -240 0
v -112 -240 0
v -112 -224 0
v -96 -224 0
v -80 -240 0
v -96 -240 0
v -96 -224 0
v -80 -224 0
v -64 -240 0
v -80 -240 0
v -80 -224 0
v -64 -224 0
v -48 -240 0
v -64 -240 0
v -64 -224 0
v -48 -224 0
v -32 -240 0
v -48 -240 0
v -48 -224 0
v -32 -224 0
v -16 -240 0
v -32 -240 0
v -32 -224 0
v -16 -224 0
v 0 -240 0
v -16 -240 0
v -16 -224 0
v 0 -224 0
v -240 -256 0
v -256 -256 0
v -256 -240 0
v -240 -240 0
v -224 -256 0
v -240 -256 0
v -240 -240 0
v -224 -240 0
v -208 -256 0
v -224 -256 0
v -224 -240 0
v -208 -240 0
v -192 -256 0
v -208 -256 0
v -208 -240 0
v -192 -240 0
v -176 -256 0
v -192 -256 0
v -192 -240 0
v -176 -240 0
v -160 -256 0
v -176 -256 0
v -176 -240 0
v -160 -240 0
v -144 -256 0
v -160 -256 0
v -160 -240 0
v -144 -240 0
v -128 -256 0
v -144 -256 0
v -144 -240 0
v -128 -240 0
v -112 -256 0
v -128 -256 0
v -128 -240 0
v -112 -240 0
v -96 -256 0
v -112 -256 0
v -112 -240 0
v -96 -240 0
v -80 -256 0
v -96 -256 0
v -96 -240 0
v -80 -240 0
v -64 -256 0
v -80 -256 0
v -80 -240 0
v -64 -240 0
v -48 -256 0
v -64 -256 0
v -64 -240 0
v -48 -240 0
v -32 -256 0
v -48 -256 0
v -48 -240 0
v -32 -240 0
v -16 -256 0
v -32 -256 0
v -32 -240 0
v -16 -240 0
v 0 -256 0
v -16 -256 0
v -16 -240 0
v 0 -240 0

# Texture cooridinates (Count = 9)
vt 0.2 0.7222222
vt 0.225 0.7222222
vt 0.225 0.75
vt 0.2 0.75
vt 0.175 0.6944444
vt 0.2 0.6944444
vt 0.175 0.7222222
vt 0.175 0.75
vt 0.225 0.6944444

# Normal
vn 0 0 -1

# Mesh description
g Village_mesh_0008

# Faces
f 1/1/1 2/2/1 3/3/1 4/4/1
f 5/5/1 6/6/1 7/1/1 8/7/1
f 9/7/1 10/1/1 11/4/1 12/8/1
f 13/7/1 14/1/1 15/4/1 16/8/1
f 17/5/1 18/6/1 19/1/1 20/7/1
f 21/1/1 22/2/1 23/3/1 24/4/1
f 25/5/1 26/6/1 27/1/1 28/7/1
f 29/7/1 30/1/1 31/4/1 32/8/1
f 33/6/1 34/9/1 35/2/1 36/1/1
f 37/7/1 38/1/1 39/4/1 40/8/1
f 41/6/1 42/9/1 43/2/1 44/1/1
f 45/6/1 46/9/1 47/2/1 48/1/1
f 49/7/1 50/1/1 51/4/1 52/8/1
f 53/7/1 54/1/1 55/4/1 56/8/1
f 57/7/1 58/1/1 59/4/1 60/8/1
f 61/5/1 62/6/1 63/1/1 64/7/1
f 65/6/1 66/9/1 67/2/1 68/1/1
f 69/5/1 70/6/1 71/1/1 72/7/1
f 73/6/1 74/9/1 75/2/1 76/1/1
f 77/5/1 78/6/1 79/1/1 80/7/1
f 81/6/1 82/9/1 83/2/1 84/1/1
f 85/6/1 86/9/1 87/2/1 88/1/1
f 89/6/1 90/9/1 91/2/1 92/1/1
f 93/6/1 94/9/1 95/2/1 96/1/1
f 97/5/1 98/6/1 99/1/1 100/7/1
f 101/5/1 102/6/1 103/1/1 104/7/1
f 105/5/1 106/6/1 107/1/1 108/7/1
f 109/7/1 110/1/1 111/4/1 112/8/1
f 113/1/1 114/2/1 115/3/1 116/4/1
f 117/7/1 118/1/1 119/4/1 120/8/1
f 121/1/1 122/2/1 123/3/1 124/4/1
f 125/5/1 126/6/1 127/1/1 128/7/1
f 129/7/1 130/1/1 131/4/1 132/8/1
f 133/6/1 134/9/1 135/2/1 136/1/1
f 137/1/1 138/2/1 139/3/1 140/4/1
f 141/7/1 142/1/1 143/4/1 144/8/1
f 145/7/1 146/1/1 147/4/1 148/8/1
f 149/7/1 150/1/1 151/4/1 152/8/1
f 153/5/1 154/6/1 155/1/1 156/7/1
f 157/7/1 158/1/1 159/4/1 160/8/1
f 161/6/1 162/9/1 163/2/1 164/1/1
f 165/6/1 166/9/1 167/2/1 168/1/1
f 169/7/1 170/1/1 171/4/1 172/8/1
f 173/7/1 174/1/1 175/4/1 176/8/1
f 177/5/1 178/6/1 179/1/1 180/7/1
f 181/1/1 182/2/1 183/3/1 184/4/1
f 185/5/1 186/6/1 187/1/1 188/7/1
f 189/6/1 190/9/1 191/2/1 192/1/1
f 193/6/1 194/9/1 195/2/1 196/1/1
f 197/6/1 198/9/1 199/2/1 200/1/1
f 201/7/1 202/1/1 203/4/1 204/8/1
f 205/6/1 206/9/1 207/2/1 208/1/1
f 209/6/1 210/9/1 211/2/1 212/1/1
f 213/7/1 214/1/1 215/4/1 216/8/1
f 217/5/1 218/6/1 219/1/1 220/7/1
f 221/1/1 222/2/1 223/3/1 224/4/1
f 225/7/1 226/1/1 227/4/1 228/8/1
f 229/5/1 230/6/1 231/1/1 232/7/1
f 233/1/1 234/2/1 235/3/1 236/4/1
f 237/1/1 238/2/1 239/3/1 240/4/1
f 241/6/1 242/9/1 243/2/1 244/1/1
f 245/1/1 246/2/1 247/3/1 248/4/1
f 249/7/1 250/1/1 251/4/1 252/8/1
f 253/1/1 254/2/1 255/3/1 256/4/1
f 257/7/1 258/1/1 259/4/1 260/8/1
f 261/5/1 262/6/1 263/1/1 264/7/1
f 265/7/1 266/1/1 267/4/1 268/8/1
f 269/7/1 270/1/1 271/4/1 272/8/1
f 273/6/1 274/9/1 275/2/1 276/1/1
f 277/1/1 278/2/1 279/3/1 280/4/1
f 281/1/1 282/2/1 283/3/1 284/4/1
f 285/5/1 286/6/1 287/1/1 288/7/1
f 289/7/1 290/1/1 291/4/1 292/8/1
f 293/7/1 294/1/1 295/4/1 296/8/1
f 297/1/1 298/2/1 299/3/1 300/4/1
f 301/6/1 302/9/1 303/2/1 304/1/1
f 305/6/1 306/9/1 307/2/1 308/1/1
f 309/5/1 310/6/1 311/1/1 312/7/1
f 313/5/1 314/6/1 315/1/1 316/7/1
f 317/1/1 318/2/1 319/3/1 320/4/1
f 321/7/1 322/1/1 323/4/1 324/8/1
f 325/6/1 326/9/1 327/2/1 328/1/1
f 329/5/1 330/6/1 331/1/1 332/7/1
f 333/5/1 334/6/1 335/1/1 336/7/1
f 337/5/1 338/6/1 339/1/1 340/7/1
f 341/5/1 342/6/1 343/1/1 344/7/1
f 345/5/1 346/6/1 347/1/1 348/7/1
f 349/5/1 350/6/1 351/1/1 352/7/1
f 353/1/1 354/2/1 355/3/1 356/4/1
f 357/5/1 358/6/1 359/1/1 360/7/1
f 361/7/1 362/1/1 363/4/1 364/8/1
f 365/1/1 366/2/1 367/3/1 368/4/1
f 369/7/1 370/1/1 371/4/1 372/8/1
f 373/1/1 374/2/1 375/3/1 376/4/1
f 377/5/1 378/6/1 379/1/1 380/7/1
f 381/7/1 382/1/1 383/4/1 384/8/1
f 385/7/1 386/1/1 387/4/1 388/8/1
f 389/1/1 390/2/1 391/3/1 392/4/1
f 393/1/1 394/2/1 395/3/1 396/4/1
f 397/1/1 398/2/1 399/3/1 400/4/1
f 401/6/1 402/9/1 403/2/1 404/1/1
f 405/6/1 406/9/1 407/2/1 408/1/1
f 409/7/1 410/1/1 411/4/1 412/8/1
f 413/1/1 414/2/1 415/3/1 416/4/1
f 417/7/1 418/1/1 419/4/1 420/8/1
f 421/5/1 422/6/1 423/1/1 424/7/1
f 425/1/1 426/2/1 427/3/1 428/4/1
f 429/1/1 430/2/1 431/3/1 432/4/1
f 433/1/1 434/2/1 435/3/1 436/4/1
f 437/6/1 438/9/1 439/2/1 440/1/1
f 441/5/1 442/6/1 443/1/1 444/7/1
f 445/1/1 446/2/1 447/3/1 448/4/1
f 449/6/1 450/9/1 451/2/1 452/1/1
f 453/1/1 454/2/1 455/3/1 456/4/1
f 457/5/1 458/6/1 459/1/1 460/7/1
f 461/1/1 462/2/1 463/3/1 464/4/1
f 465/6/1 466/9/1 467/2/1 468/1/1
f 469/5/1 470/6/1 471/1/1 472/7/1
f 473/6/1 474/9/1 475/2/1 476/1/1
f 477/5/1 478/6/1 479/1/1 480/7/1
f 481/6/1 482/9/1 483/2/1 484/1/1
f 485/5/1 486/6/1 487/1/1 488/7/1
f 489/1/1 490/2/1 491/3/1 492/4/1
f 493/1/1 494/2/1 495/3/1 496/4/1
f 497/5/1 498/6/1 499/1/1 500/7/1
f 501/6/1 502/9/1 503/2/1 504/1/1
f 505/7/1 506/1/1 507/4/1 508/8/1
f 509/7/1 510/1/1 511/4/1 512/8/1
f 513/7/1 514/1/1 515/4/1 516/8/1
f 517/1/1 518/2/1 519/3/1 520/4/1
f 521/6/1 522/9/1 523/2/1 524/1/1
f 525/5/1 526/6/1 527/1/1 528/7/1
f 529/7/1 530/1/1 531/4/1 532/8/1
f 533/1/1 534/2/1 535/3/1 536/4/1
f 537/6/1 538/9/1 539/2/1 540/1/1
f 541/6/1 542/9/1 543/2/1 544/1/1
f 545/7/1 546/1/1 547/4/1 548/8/1
f 549/1/1 550/2/1 551/3/1 552/4/1
f 553/7/1 554/1/1 555/4/1 556/8/1
f 557/6/1 558/9/1 559/2/1 560/1/1
f 561/5/1 562/6/1 563/1/1 564/7/1
f 565/7/1 566/1/1 567/4/1 568/8/1
f 569/7/1 570/1/1 571/4/1 572/8/1
f 573/5/1 574/6/1 575/1/1 576/7/1
f 577/5/1 578/6/1 579/1/1 580/7/1
f 581/6/1 582/9/1 583/2/1 584/1/1
f 585/5/1 586/6/1 587/1/1 588/7/1
f 589/5/1 590/6/1 591/1/1 592/7/1
f 593/5/1 594/6/1 595/1/1 596/7/1
f 597/7/1 598/1/1 599/4/1 600/8/1
f 601/5/1 602/6/1 603/1/1 604/7/1
f 605/1/1 606/2/1 607/3/1 608/4/1
f 609/1/1 610/2/1 611/3/1 612/4/1
f 613/6/1 614/9/1 615/2/1 616/1/1
f 617/5/1 618/6/1 619/1/1 620/7/1
f 621/6/1 622/9/1 623/2/1 624/1/1
f 625/7/1 626/1/1 627/4/1 628/8/1
f 629/5/1 630/6/1 631/1/1 632/7/1
f 633/7/1 634/1/1 635/4/1 636/8/1
f 637/7/1 638/1/1 639/4/1 640/8/1
f 641/5/1 642/6/1 643/1/1 644/7/1
f 645/5/1 646/6/1 647/1/1 648/7/1
f 649/5/1 650/6/1 651/1/1 652/7/1
f 653/5/1 654/6/1 655/1/1 656/7/1
f 657/7/1 658/1/1 659/4/1 660/8/1
f 661/1/1 662/2/1 663/3/1 664/4/1
f 665/1/1 666/2/1 667/3/1 668/4/1
f 669/1/1 670/2/1 671/3/1 672/4/1
f 673/1/1 674/2/1 675/3/1 676/4/1
f 677/6/1 678/9/1 679/2/1 680/1/1
f 681/5/1 682/6/1 683/1/1 684/7/1
f 685/7/1 686/1/1 687/4/1 688/8/1
f 689/1/1 690/2/1 691/3/1 692/4/1
f 693/5/1 694/6/1 695/1/1 696/7/1
f 697/6/1 698/9/1 699/2/1 700/1/1
f 701/6/1 702/9/1 703/2/1 704/1/1
f 705/1/1 706/2/1 707/3/1 708/4/1
f 709/6/1 710/9/1 711/2/1 712/1/1
f 713/7/1 714/1/1 715/4/1 716/8/1
f 717/6/1 718/9/1 719/2/1 720/1/1
f 721/1/1 722/2/1 723/3/1 724/4/1
f 725/5/1 726/6/1 727/1/1 728/7/1
f 729/7/1 730/1/1 731/4/1 732/8/1
f 733/6/1 734/9/1 735/2/1 736/1/1
f 737/7/1 738/1/1 739/4/1 740/8/1
f 741/1/1 742/2/1 743/3/1 744/4/1
f 745/6/1 746/9/1 747/2/1 748/1/1
f 749/7/1 750/1/1 751/4/1 752/8/1
f 753/7/1 754/1/1 755/4/1 756/8/1
f 757/7/1 758/1/1 759/4/1 760/8/1
f 761/5/1 762/6/1 763/1/1 764/7/1
f 765/5/1 766/6/1 767/1/1 768/7/1
f 769/5/1 770/6/1 771/1/1 772/7/1
f 773/7/1 774/1/1 775/4/1 776/8/1
f 777/6/1 778/9/1 779/2/1 780/1/1
f 781/1/1 782/2/1 783/3/1 784/4/1
f 785/5/1 786/6/1 787/1/1 788/7/1
f 789/5/1 790/6/1 791/1/1 792/7/1
f 793/7/1 794/1/1 795/4/1 796/8/1
f 797/5/1 798/6/1 799/1/1 800/7/1
f 801/7/1 802/1/1 803/4/1 804/8/1
f 805/5/1 806/6/1 807/1/1 808/7/1
f 809/1/1 810/2/1 811/3/1 812/4/1
f 813/7/1 814/1/1 815/4/1 816/8/1
f 817/1/1 818/2/1 819/3/1 820/4/1
f 821/7/1 822/1/1 823/4/1 824/8/1
f 825/5/1 826/6/1 827/1/1 828/7/1
f 829/1/1 830/2/1 831/3/1 832/4/1
f 833/6/1 834/9/1 835/2/1 836/1/1
f 837/1/1 838/2/1 839/3/1 840/4/1
f 841/1/1 842/2/1 843/3/1 844/4/1
f 845/7/1 846/1/1 847/4/1 848/8/1
f 849/1/1 850/2/1 851/3/1 852/4/1
f 853/1/1 854/2/1 855/3/1 856/4/1
f 857/1/1 858/2/1 859/3/1 860/4/1
f 861/6/1 862/9/1 863/2/1 864/1/1
f 865/7/1 866/1/1 867/4/1 868/8/1
f 869/7/1 870/1/1 871/4/1 872/8/1
f 873/7/1 874/1/1 875/4/1 876/8/1
f 877/5/1 878/6/1 879/1/1 880/7/1
f 881/1/1 882/2/1 883/3/1 884/4/1
f 885/5/1 886/6/1 887/1/1 888/7/1
f 889/7/1 890/1/1 891/4/1 892/8/1
f 893/7/1 894/1/1 895/4/1 896/8/1
f 897/6/1 898/9/1 899/2/1 900/1/1
f 901/1/1 902/2/1 903/3/1 904/4/1
f 905/5/1 906/6/1 907/1/1 908/7/1
f 909/6/1 910/9/1 911/2/1 912/1/1
f 913/6/1 914/9/1 915/2/1 916/1/1
f 917/1/1 918/2/1 919/3/1 920/4/1
f 921/1/1 922/2/1 923/3/1 924/4/1
f 925/1/1 926/2/1 927/3/1 928/4/1
f 929/6/1 930/9/1 931/2/1 932/1/1
f 933/6/1 934/9/1 935/2/1 936/1/1
f 937/7/1 938/1/1 939/4/1 940/8/1
f 941/6/1 942/9/1 943/2/1 944/1/1
f 945/5/1 946/6/1 947/1/1 948/7/1
f 949/7/1 950/1/1 951/4/1 952/8/1
f 953/6/1 954/9/1 955/2/1 956/1/1
f 957/5/1 958/6/1 959/1/1 960/7/1
f 961/1/1 962/2/1 963/3/1 964/4/1
f 965/6/1 966/9/1 967/2/1 968/1/1
f 969/5/1 970/6/1 971/1/1 972/7/1
f 973/5/1 974/6/1 975/1/1 976/7/1
f 977/7/1 978/1/1 979/4/1 980/8/1
f 981/7/1 982/1/1 983/4/1 984/8/1
f 985/6/1 986/9/1 987/2/1 988/1/1
f 989/6/1 990/9/1 991/2/1 992/1/1
f 993/6/1 994/9/1 995/2/1 996/1/1
f 997/1/1 998/2/1 999/3/1 1000/4/1
f 1001/1/1 1002/2/1 1003/3/1 1004/4/1
f 1005/5/1 1006/6/1 1007/1/1 1008/7/1
f 1009/5/1 1010/6/1 1011/1/1 1012/7/1
f 1013/7/1 1014/1/1 1015/4/1 1016/8/1
f 1017/6/1 1018/9/1 1019/2/1 1020/1/1
f 1021/1/1 1022/2/1 1023/3/1 1024/4/1

