# Tiled2Unity generated file. Do not modify by hand.
# Wavefront file for 'Village_mesh_0067.obj'

# Vertices (Count = 1024)
v -240 -16 0
v -256 -16 0
v -256 0 0
v -240 0 0
v -224 -16 0
v -240 -16 0
v -240 0 0
v -224 0 0
v -208 -16 0
v -224 -16 0
v -224 0 0
v -208 0 0
v -192 -16 0
v -208 -16 0
v -208 0 0
v -192 0 0
v -176 -16 0
v -192 -16 0
v -192 0 0
v -176 0 0
v -160 -16 0
v -176 -16 0
v -176 0 0
v -160 0 0
v -144 -16 0
v -160 -16 0
v -160 0 0
v -144 0 0
v -128 -16 0
v -144 -16 0
v -144 0 0
v -128 0 0
v -112 -16 0
v -128 -16 0
v -128 0 0
v -112 0 0
v -96 -16 0
v -112 -16 0
v -112 0 0
v -96 0 0
v -80 -16 0
v -96 -16 0
v -96 0 0
v -80 0 0
v -64 -16 0
v -80 -16 0
v -80 0 0
v -64 0 0
v -48 -16 0
v -64 -16 0
v -64 0 0
v -48 0 0
v -32 -16 0
v -48 -16 0
v -48 0 0
v -32 0 0
v -16 -16 0
v -32 -16 0
v -32 0 0
v -16 0 0
v 0 -16 0
v -16 -16 0
v -16 0 0
v 0 0 0
v -240 -32 0
v -256 -32 0
v -256 -16 0
v -240 -16 0
v -224 -32 0
v -240 -32 0
v -240 -16 0
v -224 -16 0
v -208 -32 0
v -224 -32 0
v -224 -16 0
v -208 -16 0
v -192 -32 0
v -208 -32 0
v -208 -16 0
v -192 -16 0
v -176 -32 0
v -192 -32 0
v -192 -16 0
v -176 -16 0
v -160 -32 0
v -176 -32 0
v -176 -16 0
v -160 -16 0
v -144 -32 0
v -160 -32 0
v -160 -16 0
v -144 -16 0
v -128 -32 0
v -144 -32 0
v -144 -16 0
v -128 -16 0
v -112 -32 0
v -128 -32 0
v -128 -16 0
v -112 -16 0
v -96 -32 0
v -112 -32 0
v -112 -16 0
v -96 -16 0
v -80 -32 0
v -96 -32 0
v -96 -16 0
v -80 -16 0
v -64 -32 0
v -80 -32 0
v -80 -16 0
v -64 -16 0
v -48 -32 0
v -64 -32 0
v -64 -16 0
v -48 -16 0
v -32 -32 0
v -48 -32 0
v -48 -16 0
v -32 -16 0
v -16 -32 0
v -32 -32 0
v -32 -16 0
v -16 -16 0
v 0 -32 0
v -16 -32 0
v -16 -16 0
v 0 -16 0
v -240 -48 0
v -256 -48 0
v -256 -32 0
v -240 -32 0
v -224 -48 0
v -240 -48 0
v -240 -32 0
v -224 -32 0
v -208 -48 0
v -224 -48 0
v -224 -32 0
v -208 -32 0
v -192 -48 0
v -208 -48 0
v -208 -32 0
v -192 -32 0
v -176 -48 0
v -192 -48 0
v -192 -32 0
v -176 -32 0
v -160 -48 0
v -176 -48 0
v -176 -32 0
v -160 -32 0
v -144 -48 0
v -160 -48 0
v -160 -32 0
v -144 -32 0
v -128 -48 0
v -144 -48 0
v -144 -32 0
v -128 -32 0
v -112 -48 0
v -128 -48 0
v -128 -32 0
v -112 -32 0
v -96 -48 0
v -112 -48 0
v -112 -32 0
v -96 -32 0
v -80 -48 0
v -96 -48 0
v -96 -32 0
v -80 -32 0
v -64 -48 0
v -80 -48 0
v -80 -32 0
v -64 -32 0
v -48 -48 0
v -64 -48 0
v -64 -32 0
v -48 -32 0
v -32 -48 0
v -48 -48 0
v -48 -32 0
v -32 -32 0
v -16 -48 0
v -32 -48 0
v -32 -32 0
v -16 -32 0
v 0 -48 0
v -16 -48 0
v -16 -32 0
v 0 -32 0
v -240 -64 0
v -256 -64 0
v -256 -48 0
v -240 -48 0
v -224 -64 0
v -240 -64 0
v -240 -48 0
v -224 -48 0
v -208 -64 0
v -224 -64 0
v -224 -48 0
v -208 -48 0
v -192 -64 0
v -208 -64 0
v -208 -48 0
v -192 -48 0
v -176 -64 0
v -192 -64 0
v -192 -48 0
v -176 -48 0
v -160 -64 0
v -176 -64 0
v -176 -48 0
v -160 -48 0
v -144 -64 0
v -160 -64 0
v -160 -48 0
v -144 -48 0
v -128 -64 0
v -144 -64 0
v -144 -48 0
v -128 -48 0
v -112 -64 0
v -128 -64 0
v -128 -48 0
v -112 -48 0
v -96 -64 0
v -112 -64 0
v -112 -48 0
v -96 -48 0
v -80 -64 0
v -96 -64 0
v -96 -48 0
v -80 -48 0
v -64 -64 0
v -80 -64 0
v -80 -48 0
v -64 -48 0
v -48 -64 0
v -64 -64 0
v -64 -48 0
v -48 -48 0
v -32 -64 0
v -48 -64 0
v -48 -48 0
v -32 -48 0
v -16 -64 0
v -32 -64 0
v -32 -48 0
v -16 -48 0
v 0 -64 0
v -16 -64 0
v -16 -48 0
v 0 -48 0
v -240 -80 0
v -256 -80 0
v -256 -64 0
v -240 -64 0
v -224 -80 0
v -240 -80 0
v -240 -64 0
v -224 -64 0
v -208 -80 0
v -224 -80 0
v -224 -64 0
v -208 -64 0
v -192 -80 0
v -208 -80 0
v -208 -64 0
v -192 -64 0
v -176 -80 0
v -192 -80 0
v -192 -64 0
v -176 -64 0
v -160 -80 0
v -176 -80 0
v -176 -64 0
v -160 -64 0
v -144 -80 0
v -160 -80 0
v -160 -64 0
v -144 -64 0
v -128 -80 0
v -144 -80 0
v -144 -64 0
v -128 -64 0
v -112 -80 0
v -128 -80 0
v -128 -64 0
v -112 -64 0
v -96 -80 0
v -112 -80 0
v -112 -64 0
v -96 -64 0
v -80 -80 0
v -96 -80 0
v -96 -64 0
v -80 -64 0
v -64 -80 0
v -80 -80 0
v -80 -64 0
v -64 -64 0
v -48 -80 0
v -64 -80 0
v -64 -64 0
v -48 -64 0
v -32 -80 0
v -48 -80 0
v -48 -64 0
v -32 -64 0
v -16 -80 0
v -32 -80 0
v -32 -64 0
v -16 -64 0
v 0 -80 0
v -16 -80 0
v -16 -64 0
v 0 -64 0
v -240 -96 0
v -256 -96 0
v -256 -80 0
v -240 -80 0
v -224 -96 0
v -240 -96 0
v -240 -80 0
v -224 -80 0
v -208 -96 0
v -224 -96 0
v -224 -80 0
v -208 -80 0
v -192 -96 0
v -208 -96 0
v -208 -80 0
v -192 -80 0
v -176 -96 0
v -192 -96 0
v -192 -80 0
v -176 -80 0
v -160 -96 0
v -176 -96 0
v -176 -80 0
v -160 -80 0
v -144 -96 0
v -160 -96 0
v -160 -80 0
v -144 -80 0
v -128 -96 0
v -144 -96 0
v -144 -80 0
v -128 -80 0
v -112 -96 0
v -128 -96 0
v -128 -80 0
v -112 -80 0
v -96 -96 0
v -112 -96 0
v -112 -80 0
v -96 -80 0
v -80 -96 0
v -96 -96 0
v -96 -80 0
v -80 -80 0
v -64 -96 0
v -80 -96 0
v -80 -80 0
v -64 -80 0
v -48 -96 0
v -64 -96 0
v -64 -80 0
v -48 -80 0
v -32 -96 0
v -48 -96 0
v -48 -80 0
v -32 -80 0
v -16 -96 0
v -32 -96 0
v -32 -80 0
v -16 -80 0
v 0 -96 0
v -16 -96 0
v -16 -80 0
v 0 -80 0
v -240 -112 0
v -256 -112 0
v -256 -96 0
v -240 -96 0
v -224 -112 0
v -240 -112 0
v -240 -96 0
v -224 -96 0
v -208 -112 0
v -224 -112 0
v -224 -96 0
v -208 -96 0
v -192 -112 0
v -208 -112 0
v -208 -96 0
v -192 -96 0
v -176 -112 0
v -192 -112 0
v -192 -96 0
v -176 -96 0
v -160 -112 0
v -176 -112 0
v -176 -96 0
v -160 -96 0
v -144 -112 0
v -160 -112 0
v -160 -96 0
v -144 -96 0
v -128 -112 0
v -144 -112 0
v -144 -96 0
v -128 -96 0
v -112 -112 0
v -128 -112 0
v -128 -96 0
v -112 -96 0
v -96 -112 0
v -112 -112 0
v -112 -96 0
v -96 -96 0
v -80 -112 0
v -96 -112 0
v -96 -96 0
v -80 -96 0
v -64 -112 0
v -80 -112 0
v -80 -96 0
v -64 -96 0
v -48 -112 0
v -64 -112 0
v -64 -96 0
v -48 -96 0
v -32 -112 0
v -48 -112 0
v -48 -96 0
v -32 -96 0
v -16 -112 0
v -32 -112 0
v -32 -96 0
v -16 -96 0
v 0 -112 0
v -16 -112 0
v -16 -96 0
v 0 -96 0
v -240 -128 0
v -256 -128 0
v -256 -112 0
v -240 -112 0
v -224 -128 0
v -240 -128 0
v -240 -112 0
v -224 -112 0
v -208 -128 0
v -224 -128 0
v -224 -112 0
v -208 -112 0
v -192 -128 0
v -208 -128 0
v -208 -112 0
v -192 -112 0
v -176 -128 0
v -192 -128 0
v -192 -112 0
v -176 -112 0
v -160 -128 0
v -176 -128 0
v -176 -112 0
v -160 -112 0
v -144 -128 0
v -160 -128 0
v -160 -112 0
v -144 -112 0
v -128 -128 0
v -144 -128 0
v -144 -112 0
v -128 -112 0
v -112 -128 0
v -128 -128 0
v -128 -112 0
v -112 -112 0
v -96 -128 0
v -112 -128 0
v -112 -112 0
v -96 -112 0
v -80 -128 0
v -96 -128 0
v -96 -112 0
v -80 -112 0
v -64 -128 0
v -80 -128 0
v -80 -112 0
v -64 -112 0
v -48 -128 0
v -64 -128 0
v -64 -112 0
v -48 -112 0
v -32 -128 0
v -48 -128 0
v -48 -112 0
v -32 -112 0
v -16 -128 0
v -32 -128 0
v -32 -112 0
v -16 -112 0
v 0 -128 0
v -16 -128 0
v -16 -112 0
v 0 -112 0
v -240 -144 0
v -256 -144 0
v -256 -128 0
v -240 -128 0
v -224 -144 0
v -240 -144 0
v -240 -128 0
v -224 -128 0
v -208 -144 0
v -224 -144 0
v -224 -128 0
v -208 -128 0
v -192 -144 0
v -208 -144 0
v -208 -128 0
v -192 -128 0
v -176 -144 0
v -192 -144 0
v -192 -128 0
v -176 -128 0
v -160 -144 0
v -176 -144 0
v -176 -128 0
v -160 -128 0
v -144 -144 0
v -160 -144 0
v -160 -128 0
v -144 -128 0
v -128 -144 0
v -144 -144 0
v -144 -128 0
v -128 -128 0
v -112 -144 0
v -128 -144 0
v -128 -128 0
v -112 -128 0
v -96 -144 0
v -112 -144 0
v -112 -128 0
v -96 -128 0
v -80 -144 0
v -96 -144 0
v -96 -128 0
v -80 -128 0
v -64 -144 0
v -80 -144 0
v -80 -128 0
v -64 -128 0
v -48 -144 0
v -64 -144 0
v -64 -128 0
v -48 -128 0
v -32 -144 0
v -48 -144 0
v -48 -128 0
v -32 -128 0
v -16 -144 0
v -32 -144 0
v -32 -128 0
v -16 -128 0
v 0 -144 0
v -16 -144 0
v -16 -128 0
v 0 -128 0
v -240 -160 0
v -256 -160 0
v -256 -144 0
v -240 -144 0
v -224 -160 0
v -240 -160 0
v -240 -144 0
v -224 -144 0
v -208 -160 0
v -224 -160 0
v -224 -144 0
v -208 -144 0
v -192 -160 0
v -208 -160 0
v -208 -144 0
v -192 -144 0
v -176 -160 0
v -192 -160 0
v -192 -144 0
v -176 -144 0
v -160 -160 0
v -176 -160 0
v -176 -144 0
v -160 -144 0
v -144 -160 0
v -160 -160 0
v -160 -144 0
v -144 -144 0
v -128 -160 0
v -144 -160 0
v -144 -144 0
v -128 -144 0
v -112 -160 0
v -128 -160 0
v -128 -144 0
v -112 -144 0
v -96 -160 0
v -112 -160 0
v -112 -144 0
v -96 -144 0
v -80 -160 0
v -96 -160 0
v -96 -144 0
v -80 -144 0
v -64 -160 0
v -80 -160 0
v -80 -144 0
v -64 -144 0
v -48 -160 0
v -64 -160 0
v -64 -144 0
v -48 -144 0
v -32 -160 0
v -48 -160 0
v -48 -144 0
v -32 -144 0
v -16 -160 0
v -32 -160 0
v -32 -144 0
v -16 -144 0
v 0 -160 0
v -16 -160 0
v -16 -144 0
v 0 -144 0
v -240 -176 0
v -256 -176 0
v -256 -160 0
v -240 -160 0
v -224 -176 0
v -240 -176 0
v -240 -160 0
v -224 -160 0
v -208 -176 0
v -224 -176 0
v -224 -160 0
v -208 -160 0
v -192 -176 0
v -208 -176 0
v -208 -160 0
v -192 -160 0
v -176 -176 0
v -192 -176 0
v -192 -160 0
v -176 -160 0
v -160 -176 0
v -176 -176 0
v -176 -160 0
v -160 -160 0
v -144 -176 0
v -160 -176 0
v -160 -160 0
v -144 -160 0
v -128 -176 0
v -144 -176 0
v -144 -160 0
v -128 -160 0
v -112 -176 0
v -128 -176 0
v -128 -160 0
v -112 -160 0
v -96 -176 0
v -112 -176 0
v -112 -160 0
v -96 -160 0
v -80 -176 0
v -96 -176 0
v -96 -160 0
v -80 -160 0
v -64 -176 0
v -80 -176 0
v -80 -160 0
v -64 -160 0
v -48 -176 0
v -64 -176 0
v -64 -160 0
v -48 -160 0
v -32 -176 0
v -48 -176 0
v -48 -160 0
v -32 -160 0
v -16 -176 0
v -32 -176 0
v -32 -160 0
v -16 -160 0
v 0 -176 0
v -16 -176 0
v -16 -160 0
v 0 -160 0
v -240 -192 0
v -256 -192 0
v -256 -176 0
v -240 -176 0
v -224 -192 0
v -240 -192 0
v -240 -176 0
v -224 -176 0
v -208 -192 0
v -224 -192 0
v -224 -176 0
v -208 -176 0
v -192 -192 0
v -208 -192 0
v -208 -176 0
v -192 -176 0
v -176 -192 0
v -192 -192 0
v -192 -176 0
v -176 -176 0
v -160 -192 0
v -176 -192 0
v -176 -176 0
v -160 -176 0
v -144 -192 0
v -160 -192 0
v -160 -176 0
v -144 -176 0
v -128 -192 0
v -144 -192 0
v -144 -176 0
v -128 -176 0
v -112 -192 0
v -128 -192 0
v -128 -176 0
v -112 -176 0
v -96 -192 0
v -112 -192 0
v -112 -176 0
v -96 -176 0
v -80 -192 0
v -96 -192 0
v -96 -176 0
v -80 -176 0
v -64 -192 0
v -80 -192 0
v -80 -176 0
v -64 -176 0
v -48 -192 0
v -64 -192 0
v -64 -176 0
v -48 -176 0
v -32 -192 0
v -48 -192 0
v -48 -176 0
v -32 -176 0
v -16 -192 0
v -32 -192 0
v -32 -176 0
v -16 -176 0
v 0 -192 0
v -16 -192 0
v -16 -176 0
v 0 -176 0
v -240 -208 0
v -256 -208 0
v -256 -192 0
v -240 -192 0
v -224 -208 0
v -240 -208 0
v -240 -192 0
v -224 -192 0
v -208 -208 0
v -224 -208 0
v -224 -192 0
v -208 -192 0
v -192 -208 0
v -208 -208 0
v -208 -192 0
v -192 -192 0
v -176 -208 0
v -192 -208 0
v -192 -192 0
v -176 -192 0
v -160 -208 0
v -176 -208 0
v -176 -192 0
v -160 -192 0
v -144 -208 0
v -160 -208 0
v -160 -192 0
v -144 -192 0
v -128 -208 0
v -144 -208 0
v -144 -192 0
v -128 -192 0
v -112 -208 0
v -128 -208 0
v -128 -192 0
v -112 -192 0
v -96 -208 0
v -112 -208 0
v -112 -192 0
v -96 -192 0
v -80 -208 0
v -96 -208 0
v -96 -192 0
v -80 -192 0
v -64 -208 0
v -80 -208 0
v -80 -192 0
v -64 -192 0
v -48 -208 0
v -64 -208 0
v -64 -192 0
v -48 -192 0
v -32 -208 0
v -48 -208 0
v -48 -192 0
v -32 -192 0
v -16 -208 0
v -32 -208 0
v -32 -192 0
v -16 -192 0
v 0 -208 0
v -16 -208 0
v -16 -192 0
v 0 -192 0
v -240 -224 0
v -256 -224 0
v -256 -208 0
v -240 -208 0
v -224 -224 0
v -240 -224 0
v -240 -208 0
v -224 -208 0
v -208 -224 0
v -224 -224 0
v -224 -208 0
v -208 -208 0
v -192 -224 0
v -208 -224 0
v -208 -208 0
v -192 -208 0
v -176 -224 0
v -192 -224 0
v -192 -208 0
v -176 -208 0
v -160 -224 0
v -176 -224 0
v -176 -208 0
v -160 -208 0
v -144 -224 0
v -160 -224 0
v -160 -208 0
v -144 -208 0
v -128 -224 0
v -144 -224 0
v -144 -208 0
v -128 -208 0
v -112 -224 0
v -128 -224 0
v -128 -208 0
v -112 -208 0
v -96 -224 0
v -112 -224 0
v -112 -208 0
v -96 -208 0
v -80 -224 0
v -96 -224 0
v -96 -208 0
v -80 -208 0
v -64 -224 0
v -80 -224 0
v -80 -208 0
v -64 -208 0
v -48 -224 0
v -64 -224 0
v -64 -208 0
v -48 -208 0
v -32 -224 0
v -48 -224 0
v -48 -208 0
v -32 -208 0
v -16 -224 0
v -32 -224 0
v -32 -208 0
v -16 -208 0
v 0 -224 0
v -16 -224 0
v -16 -208 0
v 0 -208 0
v -240 -240 0
v -256 -240 0
v -256 -224 0
v -240 -224 0
v -224 -240 0
v -240 -240 0
v -240 -224 0
v -224 -224 0
v -208 -240 0
v -224 -240 0
v -224 -224 0
v -208 -224 0
v -192 -240 0
v -208 -240 0
v -208 -224 0
v -192 -224 0
v -176 -240 0
v -192 -240 0
v -192 -224 0
v -176 -224 0
v -160 -240 0
v -176 -240 0
v -176 -224 0
v -160 -224 0
v -144 -240 0
v -160 -240 0
v -160 -224 0
v -144 -224 0
v -128 -240 0
v -144 -240 0
v -144 -224 0
v -128 -224 0
v -112 -240 0
v -128 -240 0
v -128 -224 0
v -112 -224 0
v -96 -240 0
v -112 -240 0
v -112 -224 0
v -96 -224 0
v -80 -240 0
v -96 -240 0
v -96 -224 0
v -80 -224 0
v -64 -240 0
v -80 -240 0
v -80 -224 0
v -64 -224 0
v -48 -240 0
v -64 -240 0
v -64 -224 0
v -48 -224 0
v -32 -240 0
v -48 -240 0
v -48 -224 0
v -32 -224 0
v -16 -240 0
v -32 -240 0
v -32 -224 0
v -16 -224 0
v 0 -240 0
v -16 -240 0
v -16 -224 0
v 0 -224 0
v -240 -256 0
v -256 -256 0
v -256 -240 0
v -240 -240 0
v -224 -256 0
v -240 -256 0
v -240 -240 0
v -224 -240 0
v -208 -256 0
v -224 -256 0
v -224 -240 0
v -208 -240 0
v -192 -256 0
v -208 -256 0
v -208 -240 0
v -192 -240 0
v -176 -256 0
v -192 -256 0
v -192 -240 0
v -176 -240 0
v -160 -256 0
v -176 -256 0
v -176 -240 0
v -160 -240 0
v -144 -256 0
v -160 -256 0
v -160 -240 0
v -144 -240 0
v -128 -256 0
v -144 -256 0
v -144 -240 0
v -128 -240 0
v -112 -256 0
v -128 -256 0
v -128 -240 0
v -112 -240 0
v -96 -256 0
v -112 -256 0
v -112 -240 0
v -96 -240 0
v -80 -256 0
v -96 -256 0
v -96 -240 0
v -80 -240 0
v -64 -256 0
v -80 -256 0
v -80 -240 0
v -64 -240 0
v -48 -256 0
v -64 -256 0
v -64 -240 0
v -48 -240 0
v -32 -256 0
v -48 -256 0
v -48 -240 0
v -32 -240 0
v -16 -256 0
v -32 -256 0
v -32 -240 0
v -16 -240 0
v 0 -256 0
v -16 -256 0
v -16 -240 0
v 0 -240 0

# Texture cooridinates (Count = 9)
vt 0.175 0.6944444
vt 0.2 0.6944444
vt 0.2 0.7222222
vt 0.175 0.7222222
vt 0.225 0.7222222
vt 0.225 0.75
vt 0.2 0.75
vt 0.225 0.6944444
vt 0.175 0.75

# Normal
vn 0 0 -1

# Mesh description
g Village_mesh_0067

# Faces
f 1/1/1 2/2/1 3/3/1 4/4/1
f 5/3/1 6/5/1 7/6/1 8/7/1
f 9/3/1 10/5/1 11/6/1 12/7/1
f 13/1/1 14/2/1 15/3/1 16/4/1
f 17/2/1 18/8/1 19/5/1 20/3/1
f 21/2/1 22/8/1 23/5/1 24/3/1
f 25/3/1 26/5/1 27/6/1 28/7/1
f 29/4/1 30/3/1 31/7/1 32/9/1
f 33/3/1 34/5/1 35/6/1 36/7/1
f 37/2/1 38/8/1 39/5/1 40/3/1
f 41/3/1 42/5/1 43/6/1 44/7/1
f 45/1/1 46/2/1 47/3/1 48/4/1
f 49/4/1 50/3/1 51/7/1 52/9/1
f 53/2/1 54/8/1 55/5/1 56/3/1
f 57/4/1 58/3/1 59/7/1 60/9/1
f 61/3/1 62/5/1 63/6/1 64/7/1
f 65/3/1 66/5/1 67/6/1 68/7/1
f 69/2/1 70/8/1 71/5/1 72/3/1
f 73/3/1 74/5/1 75/6/1 76/7/1
f 77/2/1 78/8/1 79/5/1 80/3/1
f 81/2/1 82/8/1 83/5/1 84/3/1
f 85/3/1 86/5/1 87/6/1 88/7/1
f 89/2/1 90/8/1 91/5/1 92/3/1
f 93/4/1 94/3/1 95/7/1 96/9/1
f 97/3/1 98/5/1 99/6/1 100/7/1
f 101/4/1 102/3/1 103/7/1 104/9/1
f 105/2/1 106/8/1 107/5/1 108/3/1
f 109/2/1 110/8/1 111/5/1 112/3/1
f 113/3/1 114/5/1 115/6/1 116/7/1
f 117/1/1 118/2/1 119/3/1 120/4/1
f 121/3/1 122/5/1 123/6/1 124/7/1
f 125/3/1 126/5/1 127/6/1 128/7/1
f 129/1/1 130/2/1 131/3/1 132/4/1
f 133/1/1 134/2/1 135/3/1 136/4/1
f 137/1/1 138/2/1 139/3/1 140/4/1
f 141/2/1 142/8/1 143/5/1 144/3/1
f 145/4/1 146/3/1 147/7/1 148/9/1
f 149/1/1 150/2/1 151/3/1 152/4/1
f 153/4/1 154/3/1 155/7/1 156/9/1
f 157/2/1 158/8/1 159/5/1 160/3/1
f 161/3/1 162/5/1 163/6/1 164/7/1
f 165/2/1 166/8/1 167/5/1 168/3/1
f 169/1/1 170/2/1 171/3/1 172/4/1
f 173/4/1 174/3/1 175/7/1 176/9/1
f 177/4/1 178/3/1 179/7/1 180/9/1
f 181/4/1 182/3/1 183/7/1 184/9/1
f 185/3/1 186/5/1 187/6/1 188/7/1
f 189/2/1 190/8/1 191/5/1 192/3/1
f 193/3/1 194/5/1 195/6/1 196/7/1
f 197/2/1 198/8/1 199/5/1 200/3/1
f 201/2/1 202/8/1 203/5/1 204/3/1
f 205/4/1 206/3/1 207/7/1 208/9/1
f 209/1/1 210/2/1 211/3/1 212/4/1
f 213/4/1 214/3/1 215/7/1 216/9/1
f 217/3/1 218/5/1 219/6/1 220/7/1
f 221/4/1 222/3/1 223/7/1 224/9/1
f 225/4/1 226/3/1 227/7/1 228/9/1
f 229/1/1 230/2/1 231/3/1 232/4/1
f 233/3/1 234/5/1 235/6/1 236/7/1
f 237/2/1 238/8/1 239/5/1 240/3/1
f 241/1/1 242/2/1 243/3/1 244/4/1
f 245/3/1 246/5/1 247/6/1 248/7/1
f 249/2/1 250/8/1 251/5/1 252/3/1
f 253/1/1 254/2/1 255/3/1 256/4/1
f 257/3/1 258/5/1 259/6/1 260/7/1
f 261/2/1 262/8/1 263/5/1 264/3/1
f 265/4/1 266/3/1 267/7/1 268/9/1
f 269/4/1 270/3/1 271/7/1 272/9/1
f 273/4/1 274/3/1 275/7/1 276/9/1
f 277/4/1 278/3/1 279/7/1 280/9/1
f 281/1/1 282/2/1 283/3/1 284/4/1
f 285/1/1 286/2/1 287/3/1 288/4/1
f 289/3/1 290/5/1 291/6/1 292/7/1
f 293/4/1 294/3/1 295/7/1 296/9/1
f 297/2/1 298/8/1 299/5/1 300/3/1
f 301/4/1 302/3/1 303/7/1 304/9/1
f 305/4/1 306/3/1 307/7/1 308/9/1
f 309/1/1 310/2/1 311/3/1 312/4/1
f 313/3/1 314/5/1 315/6/1 316/7/1
f 317/2/1 318/8/1 319/5/1 320/3/1
f 321/3/1 322/5/1 323/6/1 324/7/1
f 325/2/1 326/8/1 327/5/1 328/3/1
f 329/3/1 330/5/1 331/6/1 332/7/1
f 333/1/1 334/2/1 335/3/1 336/4/1
f 337/3/1 338/5/1 339/6/1 340/7/1
f 341/3/1 342/5/1 343/6/1 344/7/1
f 345/4/1 346/3/1 347/7/1 348/9/1
f 349/4/1 350/3/1 351/7/1 352/9/1
f 353/1/1 354/2/1 355/3/1 356/4/1
f 357/1/1 358/2/1 359/3/1 360/4/1
f 361/2/1 362/8/1 363/5/1 364/3/1
f 365/3/1 366/5/1 367/6/1 368/7/1
f 369/4/1 370/3/1 371/7/1 372/9/1
f 373/4/1 374/3/1 375/7/1 376/9/1
f 377/1/1 378/2/1 379/3/1 380/4/1
f 381/3/1 382/5/1 383/6/1 384/7/1
f 385/3/1 386/5/1 387/6/1 388/7/1
f 389/3/1 390/5/1 391/6/1 392/7/1
f 393/4/1 394/3/1 395/7/1 396/9/1
f 397/3/1 398/5/1 399/6/1 400/7/1
f 401/2/1 402/8/1 403/5/1 404/3/1
f 405/4/1 406/3/1 407/7/1 408/9/1
f 409/3/1 410/5/1 411/6/1 412/7/1
f 413/2/1 414/8/1 415/5/1 416/3/1
f 417/4/1 418/3/1 419/7/1 420/9/1
f 421/2/1 422/8/1 423/5/1 424/3/1
f 425/4/1 426/3/1 427/7/1 428/9/1
f 429/1/1 430/2/1 431/3/1 432/4/1
f 433/2/1 434/8/1 435/5/1 436/3/1
f 437/4/1 438/3/1 439/7/1 440/9/1
f 441/1/1 442/2/1 443/3/1 444/4/1
f 445/4/1 446/3/1 447/7/1 448/9/1
f 449/4/1 450/3/1 451/7/1 452/9/1
f 453/4/1 454/3/1 455/7/1 456/9/1
f 457/1/1 458/2/1 459/3/1 460/4/1
f 461/4/1 462/3/1 463/7/1 464/9/1
f 465/3/1 466/5/1 467/6/1 468/7/1
f 469/3/1 470/5/1 471/6/1 472/7/1
f 473/2/1 474/8/1 475/5/1 476/3/1
f 477/1/1 478/2/1 479/3/1 480/4/1
f 481/1/1 482/2/1 483/3/1 484/4/1
f 485/3/1 486/5/1 487/6/1 488/7/1
f 489/2/1 490/8/1 491/5/1 492/3/1
f 493/2/1 494/8/1 495/5/1 496/3/1
f 497/3/1 498/5/1 499/6/1 500/7/1
f 501/1/1 502/2/1 503/3/1 504/4/1
f 505/1/1 506/2/1 507/3/1 508/4/1
f 509/3/1 510/5/1 511/6/1 512/7/1
f 513/1/1 514/2/1 515/3/1 516/4/1
f 517/4/1 518/3/1 519/7/1 520/9/1
f 521/1/1 522/2/1 523/3/1 524/4/1
f 525/2/1 526/8/1 527/5/1 528/3/1
f 529/2/1 530/8/1 531/5/1 532/3/1
f 533/3/1 534/5/1 535/6/1 536/7/1
f 537/4/1 538/3/1 539/7/1 540/9/1
f 541/3/1 542/5/1 543/6/1 544/7/1
f 545/4/1 546/3/1 547/7/1 548/9/1
f 549/4/1 550/3/1 551/7/1 552/9/1
f 553/3/1 554/5/1 555/6/1 556/7/1
f 557/1/1 558/2/1 559/3/1 560/4/1
f 561/2/1 562/8/1 563/5/1 564/3/1
f 565/2/1 566/8/1 567/5/1 568/3/1
f 569/3/1 570/5/1 571/6/1 572/7/1
f 573/3/1 574/5/1 575/6/1 576/7/1
f 577/2/1 578/8/1 579/5/1 580/3/1
f 581/1/1 582/2/1 583/3/1 584/4/1
f 585/1/1 586/2/1 587/3/1 588/4/1
f 589/4/1 590/3/1 591/7/1 592/9/1
f 593/2/1 594/8/1 595/5/1 596/3/1
f 597/1/1 598/2/1 599/3/1 600/4/1
f 601/2/1 602/8/1 603/5/1 604/3/1
f 605/4/1 606/3/1 607/7/1 608/9/1
f 609/1/1 610/2/1 611/3/1 612/4/1
f 613/2/1 614/8/1 615/5/1 616/3/1
f 617/1/1 618/2/1 619/3/1 620/4/1
f 621/3/1 622/5/1 623/6/1 624/7/1
f 625/2/1 626/8/1 627/5/1 628/3/1
f 629/4/1 630/3/1 631/7/1 632/9/1
f 633/4/1 634/3/1 635/7/1 636/9/1
f 637/3/1 638/5/1 639/6/1 640/7/1
f 641/4/1 642/3/1 643/7/1 644/9/1
f 645/3/1 646/5/1 647/6/1 648/7/1
f 649/2/1 650/8/1 651/5/1 652/3/1
f 653/1/1 654/2/1 655/3/1 656/4/1
f 657/2/1 658/8/1 659/5/1 660/3/1
f 661/1/1 662/2/1 663/3/1 664/4/1
f 665/3/1 666/5/1 667/6/1 668/7/1
f 669/2/1 670/8/1 671/5/1 672/3/1
f 673/3/1 674/5/1 675/6/1 676/7/1
f 677/1/1 678/2/1 679/3/1 680/4/1
f 681/4/1 682/3/1 683/7/1 684/9/1
f 685/3/1 686/5/1 687/6/1 688/7/1
f 689/2/1 690/8/1 691/5/1 692/3/1
f 693/4/1 694/3/1 695/7/1 696/9/1
f 697/1/1 698/2/1 699/3/1 700/4/1
f 701/4/1 702/3/1 703/7/1 704/9/1
f 705/3/1 706/5/1 707/6/1 708/7/1
f 709/3/1 710/5/1 711/6/1 712/7/1
f 713/3/1 714/5/1 715/6/1 716/7/1
f 717/2/1 718/8/1 719/5/1 720/3/1
f 721/1/1 722/2/1 723/3/1 724/4/1
f 725/3/1 726/5/1 727/6/1 728/7/1
f 729/1/1 730/2/1 731/3/1 732/4/1
f 733/4/1 734/3/1 735/7/1 736/9/1
f 737/2/1 738/8/1 739/5/1 740/3/1
f 741/2/1 742/8/1 743/5/1 744/3/1
f 745/3/1 746/5/1 747/6/1 748/7/1
f 749/2/1 750/8/1 751/5/1 752/3/1
f 753/4/1 754/3/1 755/7/1 756/9/1
f 757/1/1 758/2/1 759/3/1 760/4/1
f 761/4/1 762/3/1 763/7/1 764/9/1
f 765/1/1 766/2/1 767/3/1 768/4/1
f 769/1/1 770/2/1 771/3/1 772/4/1
f 773/2/1 774/8/1 775/5/1 776/3/1
f 777/4/1 778/3/1 779/7/1 780/9/1
f 781/4/1 782/3/1 783/7/1 784/9/1
f 785/2/1 786/8/1 787/5/1 788/3/1
f 789/2/1 790/8/1 791/5/1 792/3/1
f 793/2/1 794/8/1 795/5/1 796/3/1
f 797/2/1 798/8/1 799/5/1 800/3/1
f 801/3/1 802/5/1 803/6/1 804/7/1
f 805/2/1 806/8/1 807/5/1 808/3/1
f 809/1/1 810/2/1 811/3/1 812/4/1
f 813/2/1 814/8/1 815/5/1 816/3/1
f 817/1/1 818/2/1 819/3/1 820/4/1
f 821/3/1 822/5/1 823/6/1 824/7/1
f 825/1/1 826/2/1 827/3/1 828/4/1
f 829/3/1 830/5/1 831/6/1 832/7/1
f 833/2/1 834/8/1 835/5/1 836/3/1
f 837/1/1 838/2/1 839/3/1 840/4/1
f 841/3/1 842/5/1 843/6/1 844/7/1
f 845/4/1 846/3/1 847/7/1 848/9/1
f 849/2/1 850/8/1 851/5/1 852/3/1
f 853/4/1 854/3/1 855/7/1 856/9/1
f 857/4/1 858/3/1 859/7/1 860/9/1
f 861/3/1 862/5/1 863/6/1 864/7/1
f 865/1/1 866/2/1 867/3/1 868/4/1
f 869/3/1 870/5/1 871/6/1 872/7/1
f 873/4/1 874/3/1 875/7/1 876/9/1
f 877/1/1 878/2/1 879/3/1 880/4/1
f 881/4/1 882/3/1 883/7/1 884/9/1
f 885/3/1 886/5/1 887/6/1 888/7/1
f 889/3/1 890/5/1 891/6/1 892/7/1
f 893/4/1 894/3/1 895/7/1 896/9/1
f 897/4/1 898/3/1 899/7/1 900/9/1
f 901/2/1 902/8/1 903/5/1 904/3/1
f 905/4/1 906/3/1 907/7/1 908/9/1
f 909/3/1 910/5/1 911/6/1 912/7/1
f 913/4/1 914/3/1 915/7/1 916/9/1
f 917/3/1 918/5/1 919/6/1 920/7/1
f 921/2/1 922/8/1 923/5/1 924/3/1
f 925/2/1 926/8/1 927/5/1 928/3/1
f 929/3/1 930/5/1 931/6/1 932/7/1
f 933/2/1 934/8/1 935/5/1 936/3/1
f 937/1/1 938/2/1 939/3/1 940/4/1
f 941/3/1 942/5/1 943/6/1 944/7/1
f 945/4/1 946/3/1 947/7/1 948/9/1
f 949/3/1 950/5/1 951/6/1 952/7/1
f 953/3/1 954/5/1 955/6/1 956/7/1
f 957/4/1 958/3/1 959/7/1 960/9/1
f 961/4/1 962/3/1 963/7/1 964/9/1
f 965/4/1 966/3/1 967/7/1 968/9/1
f 969/4/1 970/3/1 971/7/1 972/9/1
f 973/2/1 974/8/1 975/5/1 976/3/1
f 977/2/1 978/8/1 979/5/1 980/3/1
f 981/4/1 982/3/1 983/7/1 984/9/1
f 985/2/1 986/8/1 987/5/1 988/3/1
f 989/3/1 990/5/1 991/6/1 992/7/1
f 993/2/1 994/8/1 995/5/1 996/3/1
f 997/4/1 998/3/1 999/7/1 1000/9/1
f 1001/3/1 1002/5/1 1003/6/1 1004/7/1
f 1005/1/1 1006/2/1 1007/3/1 1008/4/1
f 1009/4/1 1010/3/1 1011/7/1 1012/9/1
f 1013/2/1 1014/8/1 1015/5/1 1016/3/1
f 1017/1/1 1018/2/1 1019/3/1 1020/4/1
f 1021/4/1 1022/3/1 1023/7/1 1024/9/1

