# Tiled2Unity generated file. Do not modify by hand.
# Wavefront file for 'Village_mesh_0014.obj'

# Vertices (Count = 1024)
v -240 -16 0
v -256 -16 0
v -256 0 0
v -240 0 0
v -224 -16 0
v -240 -16 0
v -240 0 0
v -224 0 0
v -208 -16 0
v -224 -16 0
v -224 0 0
v -208 0 0
v -192 -16 0
v -208 -16 0
v -208 0 0
v -192 0 0
v -176 -16 0
v -192 -16 0
v -192 0 0
v -176 0 0
v -160 -16 0
v -176 -16 0
v -176 0 0
v -160 0 0
v -144 -16 0
v -160 -16 0
v -160 0 0
v -144 0 0
v -128 -16 0
v -144 -16 0
v -144 0 0
v -128 0 0
v -112 -16 0
v -128 -16 0
v -128 0 0
v -112 0 0
v -96 -16 0
v -112 -16 0
v -112 0 0
v -96 0 0
v -80 -16 0
v -96 -16 0
v -96 0 0
v -80 0 0
v -64 -16 0
v -80 -16 0
v -80 0 0
v -64 0 0
v -48 -16 0
v -64 -16 0
v -64 0 0
v -48 0 0
v -32 -16 0
v -48 -16 0
v -48 0 0
v -32 0 0
v -16 -16 0
v -32 -16 0
v -32 0 0
v -16 0 0
v 0 -16 0
v -16 -16 0
v -16 0 0
v 0 0 0
v -240 -32 0
v -256 -32 0
v -256 -16 0
v -240 -16 0
v -224 -32 0
v -240 -32 0
v -240 -16 0
v -224 -16 0
v -208 -32 0
v -224 -32 0
v -224 -16 0
v -208 -16 0
v -192 -32 0
v -208 -32 0
v -208 -16 0
v -192 -16 0
v -176 -32 0
v -192 -32 0
v -192 -16 0
v -176 -16 0
v -160 -32 0
v -176 -32 0
v -176 -16 0
v -160 -16 0
v -144 -32 0
v -160 -32 0
v -160 -16 0
v -144 -16 0
v -128 -32 0
v -144 -32 0
v -144 -16 0
v -128 -16 0
v -112 -32 0
v -128 -32 0
v -128 -16 0
v -112 -16 0
v -96 -32 0
v -112 -32 0
v -112 -16 0
v -96 -16 0
v -80 -32 0
v -96 -32 0
v -96 -16 0
v -80 -16 0
v -64 -32 0
v -80 -32 0
v -80 -16 0
v -64 -16 0
v -48 -32 0
v -64 -32 0
v -64 -16 0
v -48 -16 0
v -32 -32 0
v -48 -32 0
v -48 -16 0
v -32 -16 0
v -16 -32 0
v -32 -32 0
v -32 -16 0
v -16 -16 0
v 0 -32 0
v -16 -32 0
v -16 -16 0
v 0 -16 0
v -240 -48 0
v -256 -48 0
v -256 -32 0
v -240 -32 0
v -224 -48 0
v -240 -48 0
v -240 -32 0
v -224 -32 0
v -208 -48 0
v -224 -48 0
v -224 -32 0
v -208 -32 0
v -192 -48 0
v -208 -48 0
v -208 -32 0
v -192 -32 0
v -176 -48 0
v -192 -48 0
v -192 -32 0
v -176 -32 0
v -160 -48 0
v -176 -48 0
v -176 -32 0
v -160 -32 0
v -144 -48 0
v -160 -48 0
v -160 -32 0
v -144 -32 0
v -128 -48 0
v -144 -48 0
v -144 -32 0
v -128 -32 0
v -112 -48 0
v -128 -48 0
v -128 -32 0
v -112 -32 0
v -96 -48 0
v -112 -48 0
v -112 -32 0
v -96 -32 0
v -80 -48 0
v -96 -48 0
v -96 -32 0
v -80 -32 0
v -64 -48 0
v -80 -48 0
v -80 -32 0
v -64 -32 0
v -48 -48 0
v -64 -48 0
v -64 -32 0
v -48 -32 0
v -32 -48 0
v -48 -48 0
v -48 -32 0
v -32 -32 0
v -16 -48 0
v -32 -48 0
v -32 -32 0
v -16 -32 0
v 0 -48 0
v -16 -48 0
v -16 -32 0
v 0 -32 0
v -240 -64 0
v -256 -64 0
v -256 -48 0
v -240 -48 0
v -224 -64 0
v -240 -64 0
v -240 -48 0
v -224 -48 0
v -208 -64 0
v -224 -64 0
v -224 -48 0
v -208 -48 0
v -192 -64 0
v -208 -64 0
v -208 -48 0
v -192 -48 0
v -176 -64 0
v -192 -64 0
v -192 -48 0
v -176 -48 0
v -160 -64 0
v -176 -64 0
v -176 -48 0
v -160 -48 0
v -144 -64 0
v -160 -64 0
v -160 -48 0
v -144 -48 0
v -128 -64 0
v -144 -64 0
v -144 -48 0
v -128 -48 0
v -112 -64 0
v -128 -64 0
v -128 -48 0
v -112 -48 0
v -96 -64 0
v -112 -64 0
v -112 -48 0
v -96 -48 0
v -80 -64 0
v -96 -64 0
v -96 -48 0
v -80 -48 0
v -64 -64 0
v -80 -64 0
v -80 -48 0
v -64 -48 0
v -48 -64 0
v -64 -64 0
v -64 -48 0
v -48 -48 0
v -32 -64 0
v -48 -64 0
v -48 -48 0
v -32 -48 0
v -16 -64 0
v -32 -64 0
v -32 -48 0
v -16 -48 0
v 0 -64 0
v -16 -64 0
v -16 -48 0
v 0 -48 0
v -240 -80 0
v -256 -80 0
v -256 -64 0
v -240 -64 0
v -224 -80 0
v -240 -80 0
v -240 -64 0
v -224 -64 0
v -208 -80 0
v -224 -80 0
v -224 -64 0
v -208 -64 0
v -192 -80 0
v -208 -80 0
v -208 -64 0
v -192 -64 0
v -176 -80 0
v -192 -80 0
v -192 -64 0
v -176 -64 0
v -160 -80 0
v -176 -80 0
v -176 -64 0
v -160 -64 0
v -144 -80 0
v -160 -80 0
v -160 -64 0
v -144 -64 0
v -128 -80 0
v -144 -80 0
v -144 -64 0
v -128 -64 0
v -112 -80 0
v -128 -80 0
v -128 -64 0
v -112 -64 0
v -96 -80 0
v -112 -80 0
v -112 -64 0
v -96 -64 0
v -80 -80 0
v -96 -80 0
v -96 -64 0
v -80 -64 0
v -64 -80 0
v -80 -80 0
v -80 -64 0
v -64 -64 0
v -48 -80 0
v -64 -80 0
v -64 -64 0
v -48 -64 0
v -32 -80 0
v -48 -80 0
v -48 -64 0
v -32 -64 0
v -16 -80 0
v -32 -80 0
v -32 -64 0
v -16 -64 0
v 0 -80 0
v -16 -80 0
v -16 -64 0
v 0 -64 0
v -240 -96 0
v -256 -96 0
v -256 -80 0
v -240 -80 0
v -224 -96 0
v -240 -96 0
v -240 -80 0
v -224 -80 0
v -208 -96 0
v -224 -96 0
v -224 -80 0
v -208 -80 0
v -192 -96 0
v -208 -96 0
v -208 -80 0
v -192 -80 0
v -176 -96 0
v -192 -96 0
v -192 -80 0
v -176 -80 0
v -160 -96 0
v -176 -96 0
v -176 -80 0
v -160 -80 0
v -144 -96 0
v -160 -96 0
v -160 -80 0
v -144 -80 0
v -128 -96 0
v -144 -96 0
v -144 -80 0
v -128 -80 0
v -112 -96 0
v -128 -96 0
v -128 -80 0
v -112 -80 0
v -96 -96 0
v -112 -96 0
v -112 -80 0
v -96 -80 0
v -80 -96 0
v -96 -96 0
v -96 -80 0
v -80 -80 0
v -64 -96 0
v -80 -96 0
v -80 -80 0
v -64 -80 0
v -48 -96 0
v -64 -96 0
v -64 -80 0
v -48 -80 0
v -32 -96 0
v -48 -96 0
v -48 -80 0
v -32 -80 0
v -16 -96 0
v -32 -96 0
v -32 -80 0
v -16 -80 0
v 0 -96 0
v -16 -96 0
v -16 -80 0
v 0 -80 0
v -240 -112 0
v -256 -112 0
v -256 -96 0
v -240 -96 0
v -224 -112 0
v -240 -112 0
v -240 -96 0
v -224 -96 0
v -208 -112 0
v -224 -112 0
v -224 -96 0
v -208 -96 0
v -192 -112 0
v -208 -112 0
v -208 -96 0
v -192 -96 0
v -176 -112 0
v -192 -112 0
v -192 -96 0
v -176 -96 0
v -160 -112 0
v -176 -112 0
v -176 -96 0
v -160 -96 0
v -144 -112 0
v -160 -112 0
v -160 -96 0
v -144 -96 0
v -128 -112 0
v -144 -112 0
v -144 -96 0
v -128 -96 0
v -112 -112 0
v -128 -112 0
v -128 -96 0
v -112 -96 0
v -96 -112 0
v -112 -112 0
v -112 -96 0
v -96 -96 0
v -80 -112 0
v -96 -112 0
v -96 -96 0
v -80 -96 0
v -64 -112 0
v -80 -112 0
v -80 -96 0
v -64 -96 0
v -48 -112 0
v -64 -112 0
v -64 -96 0
v -48 -96 0
v -32 -112 0
v -48 -112 0
v -48 -96 0
v -32 -96 0
v -16 -112 0
v -32 -112 0
v -32 -96 0
v -16 -96 0
v 0 -112 0
v -16 -112 0
v -16 -96 0
v 0 -96 0
v -240 -128 0
v -256 -128 0
v -256 -112 0
v -240 -112 0
v -224 -128 0
v -240 -128 0
v -240 -112 0
v -224 -112 0
v -208 -128 0
v -224 -128 0
v -224 -112 0
v -208 -112 0
v -192 -128 0
v -208 -128 0
v -208 -112 0
v -192 -112 0
v -176 -128 0
v -192 -128 0
v -192 -112 0
v -176 -112 0
v -160 -128 0
v -176 -128 0
v -176 -112 0
v -160 -112 0
v -144 -128 0
v -160 -128 0
v -160 -112 0
v -144 -112 0
v -128 -128 0
v -144 -128 0
v -144 -112 0
v -128 -112 0
v -112 -128 0
v -128 -128 0
v -128 -112 0
v -112 -112 0
v -96 -128 0
v -112 -128 0
v -112 -112 0
v -96 -112 0
v -80 -128 0
v -96 -128 0
v -96 -112 0
v -80 -112 0
v -64 -128 0
v -80 -128 0
v -80 -112 0
v -64 -112 0
v -48 -128 0
v -64 -128 0
v -64 -112 0
v -48 -112 0
v -32 -128 0
v -48 -128 0
v -48 -112 0
v -32 -112 0
v -16 -128 0
v -32 -128 0
v -32 -112 0
v -16 -112 0
v 0 -128 0
v -16 -128 0
v -16 -112 0
v 0 -112 0
v -240 -144 0
v -256 -144 0
v -256 -128 0
v -240 -128 0
v -224 -144 0
v -240 -144 0
v -240 -128 0
v -224 -128 0
v -208 -144 0
v -224 -144 0
v -224 -128 0
v -208 -128 0
v -192 -144 0
v -208 -144 0
v -208 -128 0
v -192 -128 0
v -176 -144 0
v -192 -144 0
v -192 -128 0
v -176 -128 0
v -160 -144 0
v -176 -144 0
v -176 -128 0
v -160 -128 0
v -144 -144 0
v -160 -144 0
v -160 -128 0
v -144 -128 0
v -128 -144 0
v -144 -144 0
v -144 -128 0
v -128 -128 0
v -112 -144 0
v -128 -144 0
v -128 -128 0
v -112 -128 0
v -96 -144 0
v -112 -144 0
v -112 -128 0
v -96 -128 0
v -80 -144 0
v -96 -144 0
v -96 -128 0
v -80 -128 0
v -64 -144 0
v -80 -144 0
v -80 -128 0
v -64 -128 0
v -48 -144 0
v -64 -144 0
v -64 -128 0
v -48 -128 0
v -32 -144 0
v -48 -144 0
v -48 -128 0
v -32 -128 0
v -16 -144 0
v -32 -144 0
v -32 -128 0
v -16 -128 0
v 0 -144 0
v -16 -144 0
v -16 -128 0
v 0 -128 0
v -240 -160 0
v -256 -160 0
v -256 -144 0
v -240 -144 0
v -224 -160 0
v -240 -160 0
v -240 -144 0
v -224 -144 0
v -208 -160 0
v -224 -160 0
v -224 -144 0
v -208 -144 0
v -192 -160 0
v -208 -160 0
v -208 -144 0
v -192 -144 0
v -176 -160 0
v -192 -160 0
v -192 -144 0
v -176 -144 0
v -160 -160 0
v -176 -160 0
v -176 -144 0
v -160 -144 0
v -144 -160 0
v -160 -160 0
v -160 -144 0
v -144 -144 0
v -128 -160 0
v -144 -160 0
v -144 -144 0
v -128 -144 0
v -112 -160 0
v -128 -160 0
v -128 -144 0
v -112 -144 0
v -96 -160 0
v -112 -160 0
v -112 -144 0
v -96 -144 0
v -80 -160 0
v -96 -160 0
v -96 -144 0
v -80 -144 0
v -64 -160 0
v -80 -160 0
v -80 -144 0
v -64 -144 0
v -48 -160 0
v -64 -160 0
v -64 -144 0
v -48 -144 0
v -32 -160 0
v -48 -160 0
v -48 -144 0
v -32 -144 0
v -16 -160 0
v -32 -160 0
v -32 -144 0
v -16 -144 0
v 0 -160 0
v -16 -160 0
v -16 -144 0
v 0 -144 0
v -240 -176 0
v -256 -176 0
v -256 -160 0
v -240 -160 0
v -224 -176 0
v -240 -176 0
v -240 -160 0
v -224 -160 0
v -208 -176 0
v -224 -176 0
v -224 -160 0
v -208 -160 0
v -192 -176 0
v -208 -176 0
v -208 -160 0
v -192 -160 0
v -176 -176 0
v -192 -176 0
v -192 -160 0
v -176 -160 0
v -160 -176 0
v -176 -176 0
v -176 -160 0
v -160 -160 0
v -144 -176 0
v -160 -176 0
v -160 -160 0
v -144 -160 0
v -128 -176 0
v -144 -176 0
v -144 -160 0
v -128 -160 0
v -112 -176 0
v -128 -176 0
v -128 -160 0
v -112 -160 0
v -96 -176 0
v -112 -176 0
v -112 -160 0
v -96 -160 0
v -80 -176 0
v -96 -176 0
v -96 -160 0
v -80 -160 0
v -64 -176 0
v -80 -176 0
v -80 -160 0
v -64 -160 0
v -48 -176 0
v -64 -176 0
v -64 -160 0
v -48 -160 0
v -32 -176 0
v -48 -176 0
v -48 -160 0
v -32 -160 0
v -16 -176 0
v -32 -176 0
v -32 -160 0
v -16 -160 0
v 0 -176 0
v -16 -176 0
v -16 -160 0
v 0 -160 0
v -240 -192 0
v -256 -192 0
v -256 -176 0
v -240 -176 0
v -224 -192 0
v -240 -192 0
v -240 -176 0
v -224 -176 0
v -208 -192 0
v -224 -192 0
v -224 -176 0
v -208 -176 0
v -192 -192 0
v -208 -192 0
v -208 -176 0
v -192 -176 0
v -176 -192 0
v -192 -192 0
v -192 -176 0
v -176 -176 0
v -160 -192 0
v -176 -192 0
v -176 -176 0
v -160 -176 0
v -144 -192 0
v -160 -192 0
v -160 -176 0
v -144 -176 0
v -128 -192 0
v -144 -192 0
v -144 -176 0
v -128 -176 0
v -112 -192 0
v -128 -192 0
v -128 -176 0
v -112 -176 0
v -96 -192 0
v -112 -192 0
v -112 -176 0
v -96 -176 0
v -80 -192 0
v -96 -192 0
v -96 -176 0
v -80 -176 0
v -64 -192 0
v -80 -192 0
v -80 -176 0
v -64 -176 0
v -48 -192 0
v -64 -192 0
v -64 -176 0
v -48 -176 0
v -32 -192 0
v -48 -192 0
v -48 -176 0
v -32 -176 0
v -16 -192 0
v -32 -192 0
v -32 -176 0
v -16 -176 0
v 0 -192 0
v -16 -192 0
v -16 -176 0
v 0 -176 0
v -240 -208 0
v -256 -208 0
v -256 -192 0
v -240 -192 0
v -224 -208 0
v -240 -208 0
v -240 -192 0
v -224 -192 0
v -208 -208 0
v -224 -208 0
v -224 -192 0
v -208 -192 0
v -192 -208 0
v -208 -208 0
v -208 -192 0
v -192 -192 0
v -176 -208 0
v -192 -208 0
v -192 -192 0
v -176 -192 0
v -160 -208 0
v -176 -208 0
v -176 -192 0
v -160 -192 0
v -144 -208 0
v -160 -208 0
v -160 -192 0
v -144 -192 0
v -128 -208 0
v -144 -208 0
v -144 -192 0
v -128 -192 0
v -112 -208 0
v -128 -208 0
v -128 -192 0
v -112 -192 0
v -96 -208 0
v -112 -208 0
v -112 -192 0
v -96 -192 0
v -80 -208 0
v -96 -208 0
v -96 -192 0
v -80 -192 0
v -64 -208 0
v -80 -208 0
v -80 -192 0
v -64 -192 0
v -48 -208 0
v -64 -208 0
v -64 -192 0
v -48 -192 0
v -32 -208 0
v -48 -208 0
v -48 -192 0
v -32 -192 0
v -16 -208 0
v -32 -208 0
v -32 -192 0
v -16 -192 0
v 0 -208 0
v -16 -208 0
v -16 -192 0
v 0 -192 0
v -240 -224 0
v -256 -224 0
v -256 -208 0
v -240 -208 0
v -224 -224 0
v -240 -224 0
v -240 -208 0
v -224 -208 0
v -208 -224 0
v -224 -224 0
v -224 -208 0
v -208 -208 0
v -192 -224 0
v -208 -224 0
v -208 -208 0
v -192 -208 0
v -176 -224 0
v -192 -224 0
v -192 -208 0
v -176 -208 0
v -160 -224 0
v -176 -224 0
v -176 -208 0
v -160 -208 0
v -144 -224 0
v -160 -224 0
v -160 -208 0
v -144 -208 0
v -128 -224 0
v -144 -224 0
v -144 -208 0
v -128 -208 0
v -112 -224 0
v -128 -224 0
v -128 -208 0
v -112 -208 0
v -96 -224 0
v -112 -224 0
v -112 -208 0
v -96 -208 0
v -80 -224 0
v -96 -224 0
v -96 -208 0
v -80 -208 0
v -64 -224 0
v -80 -224 0
v -80 -208 0
v -64 -208 0
v -48 -224 0
v -64 -224 0
v -64 -208 0
v -48 -208 0
v -32 -224 0
v -48 -224 0
v -48 -208 0
v -32 -208 0
v -16 -224 0
v -32 -224 0
v -32 -208 0
v -16 -208 0
v 0 -224 0
v -16 -224 0
v -16 -208 0
v 0 -208 0
v -240 -240 0
v -256 -240 0
v -256 -224 0
v -240 -224 0
v -224 -240 0
v -240 -240 0
v -240 -224 0
v -224 -224 0
v -208 -240 0
v -224 -240 0
v -224 -224 0
v -208 -224 0
v -192 -240 0
v -208 -240 0
v -208 -224 0
v -192 -224 0
v -176 -240 0
v -192 -240 0
v -192 -224 0
v -176 -224 0
v -160 -240 0
v -176 -240 0
v -176 -224 0
v -160 -224 0
v -144 -240 0
v -160 -240 0
v -160 -224 0
v -144 -224 0
v -128 -240 0
v -144 -240 0
v -144 -224 0
v -128 -224 0
v -112 -240 0
v -128 -240 0
v -128 -224 0
v -112 -224 0
v -96 -240 0
v -112 -240 0
v -112 -224 0
v -96 -224 0
v -80 -240 0
v -96 -240 0
v -96 -224 0
v -80 -224 0
v -64 -240 0
v -80 -240 0
v -80 -224 0
v -64 -224 0
v -48 -240 0
v -64 -240 0
v -64 -224 0
v -48 -224 0
v -32 -240 0
v -48 -240 0
v -48 -224 0
v -32 -224 0
v -16 -240 0
v -32 -240 0
v -32 -224 0
v -16 -224 0
v 0 -240 0
v -16 -240 0
v -16 -224 0
v 0 -224 0
v -240 -256 0
v -256 -256 0
v -256 -240 0
v -240 -240 0
v -224 -256 0
v -240 -256 0
v -240 -240 0
v -224 -240 0
v -208 -256 0
v -224 -256 0
v -224 -240 0
v -208 -240 0
v -192 -256 0
v -208 -256 0
v -208 -240 0
v -192 -240 0
v -176 -256 0
v -192 -256 0
v -192 -240 0
v -176 -240 0
v -160 -256 0
v -176 -256 0
v -176 -240 0
v -160 -240 0
v -144 -256 0
v -160 -256 0
v -160 -240 0
v -144 -240 0
v -128 -256 0
v -144 -256 0
v -144 -240 0
v -128 -240 0
v -112 -256 0
v -128 -256 0
v -128 -240 0
v -112 -240 0
v -96 -256 0
v -112 -256 0
v -112 -240 0
v -96 -240 0
v -80 -256 0
v -96 -256 0
v -96 -240 0
v -80 -240 0
v -64 -256 0
v -80 -256 0
v -80 -240 0
v -64 -240 0
v -48 -256 0
v -64 -256 0
v -64 -240 0
v -48 -240 0
v -32 -256 0
v -48 -256 0
v -48 -240 0
v -32 -240 0
v -16 -256 0
v -32 -256 0
v -32 -240 0
v -16 -240 0
v 0 -256 0
v -16 -256 0
v -16 -240 0
v 0 -240 0

# Texture cooridinates (Count = 9)
vt 0.2 0.7222222
vt 0.225 0.7222222
vt 0.225 0.75
vt 0.2 0.75
vt 0.175 0.7222222
vt 0.175 0.75
vt 0.2 0.6944444
vt 0.225 0.6944444
vt 0.175 0.6944444

# Normal
vn 0 0 -1

# Mesh description
g Village_mesh_0014

# Faces
f 1/1/1 2/2/1 3/3/1 4/4/1
f 5/5/1 6/1/1 7/4/1 8/6/1
f 9/5/1 10/1/1 11/4/1 12/6/1
f 13/7/1 14/8/1 15/2/1 16/1/1
f 17/7/1 18/8/1 19/2/1 20/1/1
f 21/5/1 22/1/1 23/4/1 24/6/1
f 25/1/1 26/2/1 27/3/1 28/4/1
f 29/1/1 30/2/1 31/3/1 32/4/1
f 33/7/1 34/8/1 35/2/1 36/1/1
f 37/5/1 38/1/1 39/4/1 40/6/1
f 41/7/1 42/8/1 43/2/1 44/1/1
f 45/5/1 46/1/1 47/4/1 48/6/1
f 49/9/1 50/7/1 51/1/1 52/5/1
f 53/1/1 54/2/1 55/3/1 56/4/1
f 57/9/1 58/7/1 59/1/1 60/5/1
f 61/5/1 62/1/1 63/4/1 64/6/1
f 65/1/1 66/2/1 67/3/1 68/4/1
f 69/5/1 70/1/1 71/4/1 72/6/1
f 73/7/1 74/8/1 75/2/1 76/1/1
f 77/5/1 78/1/1 79/4/1 80/6/1
f 81/7/1 82/8/1 83/2/1 84/1/1
f 85/9/1 86/7/1 87/1/1 88/5/1
f 89/7/1 90/8/1 91/2/1 92/1/1
f 93/9/1 94/7/1 95/1/1 96/5/1
f 97/9/1 98/7/1 99/1/1 100/5/1
f 101/7/1 102/8/1 103/2/1 104/1/1
f 105/5/1 106/1/1 107/4/1 108/6/1
f 109/7/1 110/8/1 111/2/1 112/1/1
f 113/7/1 114/8/1 115/2/1 116/1/1
f 117/7/1 118/8/1 119/2/1 120/1/1
f 121/7/1 122/8/1 123/2/1 124/1/1
f 125/1/1 126/2/1 127/3/1 128/4/1
f 129/7/1 130/8/1 131/2/1 132/1/1
f 133/5/1 134/1/1 135/4/1 136/6/1
f 137/5/1 138/1/1 139/4/1 140/6/1
f 141/5/1 142/1/1 143/4/1 144/6/1
f 145/1/1 146/2/1 147/3/1 148/4/1
f 149/5/1 150/1/1 151/4/1 152/6/1
f 153/1/1 154/2/1 155/3/1 156/4/1
f 157/7/1 158/8/1 159/2/1 160/1/1
f 161/1/1 162/2/1 163/3/1 164/4/1
f 165/5/1 166/1/1 167/4/1 168/6/1
f 169/5/1 170/1/1 171/4/1 172/6/1
f 173/9/1 174/7/1 175/1/1 176/5/1
f 177/7/1 178/8/1 179/2/1 180/1/1
f 181/9/1 182/7/1 183/1/1 184/5/1
f 185/5/1 186/1/1 187/4/1 188/6/1
f 189/7/1 190/8/1 191/2/1 192/1/1
f 193/9/1 194/7/1 195/1/1 196/5/1
f 197/9/1 198/7/1 199/1/1 200/5/1
f 201/9/1 202/7/1 203/1/1 204/5/1
f 205/5/1 206/1/1 207/4/1 208/6/1
f 209/9/1 210/7/1 211/1/1 212/5/1
f 213/5/1 214/1/1 215/4/1 216/6/1
f 217/1/1 218/2/1 219/3/1 220/4/1
f 221/7/1 222/8/1 223/2/1 224/1/1
f 225/5/1 226/1/1 227/4/1 228/6/1
f 229/9/1 230/7/1 231/1/1 232/5/1
f 233/7/1 234/8/1 235/2/1 236/1/1
f 237/1/1 238/2/1 239/3/1 240/4/1
f 241/9/1 242/7/1 243/1/1 244/5/1
f 245/1/1 246/2/1 247/3/1 248/4/1
f 249/7/1 250/8/1 251/2/1 252/1/1
f 253/5/1 254/1/1 255/4/1 256/6/1
f 257/1/1 258/2/1 259/3/1 260/4/1
f 261/5/1 262/1/1 263/4/1 264/6/1
f 265/1/1 266/2/1 267/3/1 268/4/1
f 269/9/1 270/7/1 271/1/1 272/5/1
f 273/7/1 274/8/1 275/2/1 276/1/1
f 277/7/1 278/8/1 279/2/1 280/1/1
f 281/1/1 282/2/1 283/3/1 284/4/1
f 285/5/1 286/1/1 287/4/1 288/6/1
f 289/9/1 290/7/1 291/1/1 292/5/1
f 293/7/1 294/8/1 295/2/1 296/1/1
f 297/5/1 298/1/1 299/4/1 300/6/1
f 301/7/1 302/8/1 303/2/1 304/1/1
f 305/7/1 306/8/1 307/2/1 308/1/1
f 309/7/1 310/8/1 311/2/1 312/1/1
f 313/5/1 314/1/1 315/4/1 316/6/1
f 317/7/1 318/8/1 319/2/1 320/1/1
f 321/7/1 322/8/1 323/2/1 324/1/1
f 325/7/1 326/8/1 327/2/1 328/1/1
f 329/9/1 330/7/1 331/1/1 332/5/1
f 333/5/1 334/1/1 335/4/1 336/6/1
f 337/7/1 338/8/1 339/2/1 340/1/1
f 341/1/1 342/2/1 343/3/1 344/4/1
f 345/1/1 346/2/1 347/3/1 348/4/1
f 349/7/1 350/8/1 351/2/1 352/1/1
f 353/7/1 354/8/1 355/2/1 356/1/1
f 357/7/1 358/8/1 359/2/1 360/1/1
f 361/1/1 362/2/1 363/3/1 364/4/1
f 365/7/1 366/8/1 367/2/1 368/1/1
f 369/7/1 370/8/1 371/2/1 372/1/1
f 373/1/1 374/2/1 375/3/1 376/4/1
f 377/5/1 378/1/1 379/4/1 380/6/1
f 381/9/1 382/7/1 383/1/1 384/5/1
f 385/9/1 386/7/1 387/1/1 388/5/1
f 389/5/1 390/1/1 391/4/1 392/6/1
f 393/1/1 394/2/1 395/3/1 396/4/1
f 397/7/1 398/8/1 399/2/1 400/1/1
f 401/1/1 402/2/1 403/3/1 404/4/1
f 405/9/1 406/7/1 407/1/1 408/5/1
f 409/9/1 410/7/1 411/1/1 412/5/1
f 413/9/1 414/7/1 415/1/1 416/5/1
f 417/9/1 418/7/1 419/1/1 420/5/1
f 421/9/1 422/7/1 423/1/1 424/5/1
f 425/5/1 426/1/1 427/4/1 428/6/1
f 429/9/1 430/7/1 431/1/1 432/5/1
f 433/7/1 434/8/1 435/2/1 436/1/1
f 437/7/1 438/8/1 439/2/1 440/1/1
f 441/7/1 442/8/1 443/2/1 444/1/1
f 445/5/1 446/1/1 447/4/1 448/6/1
f 449/9/1 450/7/1 451/1/1 452/5/1
f 453/5/1 454/1/1 455/4/1 456/6/1
f 457/1/1 458/2/1 459/3/1 460/4/1
f 461/1/1 462/2/1 463/3/1 464/4/1
f 465/1/1 466/2/1 467/3/1 468/4/1
f 469/5/1 470/1/1 471/4/1 472/6/1
f 473/9/1 474/7/1 475/1/1 476/5/1
f 477/1/1 478/2/1 479/3/1 480/4/1
f 481/5/1 482/1/1 483/4/1 484/6/1
f 485/5/1 486/1/1 487/4/1 488/6/1
f 489/5/1 490/1/1 491/4/1 492/6/1
f 493/9/1 494/7/1 495/1/1 496/5/1
f 497/7/1 498/8/1 499/2/1 500/1/1
f 501/7/1 502/8/1 503/2/1 504/1/1
f 505/7/1 506/8/1 507/2/1 508/1/1
f 509/1/1 510/2/1 511/3/1 512/4/1
f 513/9/1 514/7/1 515/1/1 516/5/1
f 517/7/1 518/8/1 519/2/1 520/1/1
f 521/5/1 522/1/1 523/4/1 524/6/1
f 525/5/1 526/1/1 527/4/1 528/6/1
f 529/7/1 530/8/1 531/2/1 532/1/1
f 533/7/1 534/8/1 535/2/1 536/1/1
f 537/5/1 538/1/1 539/4/1 540/6/1
f 541/7/1 542/8/1 543/2/1 544/1/1
f 545/9/1 546/7/1 547/1/1 548/5/1
f 549/5/1 550/1/1 551/4/1 552/6/1
f 553/1/1 554/2/1 555/3/1 556/4/1
f 557/1/1 558/2/1 559/3/1 560/4/1
f 561/5/1 562/1/1 563/4/1 564/6/1
f 565/1/1 566/2/1 567/3/1 568/4/1
f 569/7/1 570/8/1 571/2/1 572/1/1
f 573/1/1 574/2/1 575/3/1 576/4/1
f 577/9/1 578/7/1 579/1/1 580/5/1
f 581/9/1 582/7/1 583/1/1 584/5/1
f 585/7/1 586/8/1 587/2/1 588/1/1
f 589/5/1 590/1/1 591/4/1 592/6/1
f 593/5/1 594/1/1 595/4/1 596/6/1
f 597/5/1 598/1/1 599/4/1 600/6/1
f 601/7/1 602/8/1 603/2/1 604/1/1
f 605/7/1 606/8/1 607/2/1 608/1/1
f 609/1/1 610/2/1 611/3/1 612/4/1
f 613/5/1 614/1/1 615/4/1 616/6/1
f 617/7/1 618/8/1 619/2/1 620/1/1
f 621/9/1 622/7/1 623/1/1 624/5/1
f 625/9/1 626/7/1 627/1/1 628/5/1
f 629/5/1 630/1/1 631/4/1 632/6/1
f 633/7/1 634/8/1 635/2/1 636/1/1
f 637/9/1 638/7/1 639/1/1 640/5/1
f 641/7/1 642/8/1 643/2/1 644/1/1
f 645/7/1 646/8/1 647/2/1 648/1/1
f 649/5/1 650/1/1 651/4/1 652/6/1
f 653/5/1 654/1/1 655/4/1 656/6/1
f 657/7/1 658/8/1 659/2/1 660/1/1
f 661/5/1 662/1/1 663/4/1 664/6/1
f 665/1/1 666/2/1 667/3/1 668/4/1
f 669/1/1 670/2/1 671/3/1 672/4/1
f 673/7/1 674/8/1 675/2/1 676/1/1
f 677/5/1 678/1/1 679/4/1 680/6/1
f 681/1/1 682/2/1 683/3/1 684/4/1
f 685/7/1 686/8/1 687/2/1 688/1/1
f 689/9/1 690/7/1 691/1/1 692/5/1
f 693/5/1 694/1/1 695/4/1 696/6/1
f 697/9/1 698/7/1 699/1/1 700/5/1
f 701/1/1 702/2/1 703/3/1 704/4/1
f 705/7/1 706/8/1 707/2/1 708/1/1
f 709/5/1 710/1/1 711/4/1 712/6/1
f 713/9/1 714/7/1 715/1/1 716/5/1
f 717/7/1 718/8/1 719/2/1 720/1/1
f 721/1/1 722/2/1 723/3/1 724/4/1
f 725/1/1 726/2/1 727/3/1 728/4/1
f 729/5/1 730/1/1 731/4/1 732/6/1
f 733/1/1 734/2/1 735/3/1 736/4/1
f 737/1/1 738/2/1 739/3/1 740/4/1
f 741/9/1 742/7/1 743/1/1 744/5/1
f 745/1/1 746/2/1 747/3/1 748/4/1
f 749/7/1 750/8/1 751/2/1 752/1/1
f 753/7/1 754/8/1 755/2/1 756/1/1
f 757/5/1 758/1/1 759/4/1 760/6/1
f 761/9/1 762/7/1 763/1/1 764/5/1
f 765/5/1 766/1/1 767/4/1 768/6/1
f 769/9/1 770/7/1 771/1/1 772/5/1
f 773/1/1 774/2/1 775/3/1 776/4/1
f 777/9/1 778/7/1 779/1/1 780/5/1
f 781/5/1 782/1/1 783/4/1 784/6/1
f 785/7/1 786/8/1 787/2/1 788/1/1
f 789/7/1 790/8/1 791/2/1 792/1/1
f 793/1/1 794/2/1 795/3/1 796/4/1
f 797/1/1 798/2/1 799/3/1 800/4/1
f 801/7/1 802/8/1 803/2/1 804/1/1
f 805/5/1 806/1/1 807/4/1 808/6/1
f 809/5/1 810/1/1 811/4/1 812/6/1
f 813/9/1 814/7/1 815/1/1 816/5/1
f 817/9/1 818/7/1 819/1/1 820/5/1
f 821/5/1 822/1/1 823/4/1 824/6/1
f 825/9/1 826/7/1 827/1/1 828/5/1
f 829/5/1 830/1/1 831/4/1 832/6/1
f 833/7/1 834/8/1 835/2/1 836/1/1
f 837/5/1 838/1/1 839/4/1 840/6/1
f 841/7/1 842/8/1 843/2/1 844/1/1
f 845/9/1 846/7/1 847/1/1 848/5/1
f 849/7/1 850/8/1 851/2/1 852/1/1
f 853/9/1 854/7/1 855/1/1 856/5/1
f 857/5/1 858/1/1 859/4/1 860/6/1
f 861/7/1 862/8/1 863/2/1 864/1/1
f 865/7/1 866/8/1 867/2/1 868/1/1
f 869/1/1 870/2/1 871/3/1 872/4/1
f 873/9/1 874/7/1 875/1/1 876/5/1
f 877/9/1 878/7/1 879/1/1 880/5/1
f 881/1/1 882/2/1 883/3/1 884/4/1
f 885/7/1 886/8/1 887/2/1 888/1/1
f 889/5/1 890/1/1 891/4/1 892/6/1
f 893/1/1 894/2/1 895/3/1 896/4/1
f 897/9/1 898/7/1 899/1/1 900/5/1
f 901/1/1 902/2/1 903/3/1 904/4/1
f 905/9/1 906/7/1 907/1/1 908/5/1
f 909/9/1 910/7/1 911/1/1 912/5/1
f 913/5/1 914/1/1 915/4/1 916/6/1
f 917/5/1 918/1/1 919/4/1 920/6/1
f 921/9/1 922/7/1 923/1/1 924/5/1
f 925/1/1 926/2/1 927/3/1 928/4/1
f 929/5/1 930/1/1 931/4/1 932/6/1
f 933/7/1 934/8/1 935/2/1 936/1/1
f 937/7/1 938/8/1 939/2/1 940/1/1
f 941/1/1 942/2/1 943/3/1 944/4/1
f 945/7/1 946/8/1 947/2/1 948/1/1
f 949/7/1 950/8/1 951/2/1 952/1/1
f 953/5/1 954/1/1 955/4/1 956/6/1
f 957/7/1 958/8/1 959/2/1 960/1/1
f 961/9/1 962/7/1 963/1/1 964/5/1
f 965/7/1 966/8/1 967/2/1 968/1/1
f 969/9/1 970/7/1 971/1/1 972/5/1
f 973/9/1 974/7/1 975/1/1 976/5/1
f 977/1/1 978/2/1 979/3/1 980/4/1
f 981/1/1 982/2/1 983/3/1 984/4/1
f 985/1/1 986/2/1 987/3/1 988/4/1
f 989/7/1 990/8/1 991/2/1 992/1/1
f 993/5/1 994/1/1 995/4/1 996/6/1
f 997/9/1 998/7/1 999/1/1 1000/5/1
f 1001/7/1 1002/8/1 1003/2/1 1004/1/1
f 1005/9/1 1006/7/1 1007/1/1 1008/5/1
f 1009/7/1 1010/8/1 1011/2/1 1012/1/1
f 1013/7/1 1014/8/1 1015/2/1 1016/1/1
f 1017/9/1 1018/7/1 1019/1/1 1020/5/1
f 1021/9/1 1022/7/1 1023/1/1 1024/5/1

