# Tiled2Unity generated file. Do not modify by hand.
# Wavefront file for 'Village_mesh_0012.obj'

# Vertices (Count = 1024)
v -240 -16 0
v -256 -16 0
v -256 0 0
v -240 0 0
v -224 -16 0
v -240 -16 0
v -240 0 0
v -224 0 0
v -208 -16 0
v -224 -16 0
v -224 0 0
v -208 0 0
v -192 -16 0
v -208 -16 0
v -208 0 0
v -192 0 0
v -176 -16 0
v -192 -16 0
v -192 0 0
v -176 0 0
v -160 -16 0
v -176 -16 0
v -176 0 0
v -160 0 0
v -144 -16 0
v -160 -16 0
v -160 0 0
v -144 0 0
v -128 -16 0
v -144 -16 0
v -144 0 0
v -128 0 0
v -112 -16 0
v -128 -16 0
v -128 0 0
v -112 0 0
v -96 -16 0
v -112 -16 0
v -112 0 0
v -96 0 0
v -80 -16 0
v -96 -16 0
v -96 0 0
v -80 0 0
v -64 -16 0
v -80 -16 0
v -80 0 0
v -64 0 0
v -48 -16 0
v -64 -16 0
v -64 0 0
v -48 0 0
v -32 -16 0
v -48 -16 0
v -48 0 0
v -32 0 0
v -16 -16 0
v -32 -16 0
v -32 0 0
v -16 0 0
v 0 -16 0
v -16 -16 0
v -16 0 0
v 0 0 0
v -240 -32 0
v -256 -32 0
v -256 -16 0
v -240 -16 0
v -224 -32 0
v -240 -32 0
v -240 -16 0
v -224 -16 0
v -208 -32 0
v -224 -32 0
v -224 -16 0
v -208 -16 0
v -192 -32 0
v -208 -32 0
v -208 -16 0
v -192 -16 0
v -176 -32 0
v -192 -32 0
v -192 -16 0
v -176 -16 0
v -160 -32 0
v -176 -32 0
v -176 -16 0
v -160 -16 0
v -144 -32 0
v -160 -32 0
v -160 -16 0
v -144 -16 0
v -128 -32 0
v -144 -32 0
v -144 -16 0
v -128 -16 0
v -112 -32 0
v -128 -32 0
v -128 -16 0
v -112 -16 0
v -96 -32 0
v -112 -32 0
v -112 -16 0
v -96 -16 0
v -80 -32 0
v -96 -32 0
v -96 -16 0
v -80 -16 0
v -64 -32 0
v -80 -32 0
v -80 -16 0
v -64 -16 0
v -48 -32 0
v -64 -32 0
v -64 -16 0
v -48 -16 0
v -32 -32 0
v -48 -32 0
v -48 -16 0
v -32 -16 0
v -16 -32 0
v -32 -32 0
v -32 -16 0
v -16 -16 0
v 0 -32 0
v -16 -32 0
v -16 -16 0
v 0 -16 0
v -240 -48 0
v -256 -48 0
v -256 -32 0
v -240 -32 0
v -224 -48 0
v -240 -48 0
v -240 -32 0
v -224 -32 0
v -208 -48 0
v -224 -48 0
v -224 -32 0
v -208 -32 0
v -192 -48 0
v -208 -48 0
v -208 -32 0
v -192 -32 0
v -176 -48 0
v -192 -48 0
v -192 -32 0
v -176 -32 0
v -160 -48 0
v -176 -48 0
v -176 -32 0
v -160 -32 0
v -144 -48 0
v -160 -48 0
v -160 -32 0
v -144 -32 0
v -128 -48 0
v -144 -48 0
v -144 -32 0
v -128 -32 0
v -112 -48 0
v -128 -48 0
v -128 -32 0
v -112 -32 0
v -96 -48 0
v -112 -48 0
v -112 -32 0
v -96 -32 0
v -80 -48 0
v -96 -48 0
v -96 -32 0
v -80 -32 0
v -64 -48 0
v -80 -48 0
v -80 -32 0
v -64 -32 0
v -48 -48 0
v -64 -48 0
v -64 -32 0
v -48 -32 0
v -32 -48 0
v -48 -48 0
v -48 -32 0
v -32 -32 0
v -16 -48 0
v -32 -48 0
v -32 -32 0
v -16 -32 0
v 0 -48 0
v -16 -48 0
v -16 -32 0
v 0 -32 0
v -240 -64 0
v -256 -64 0
v -256 -48 0
v -240 -48 0
v -224 -64 0
v -240 -64 0
v -240 -48 0
v -224 -48 0
v -208 -64 0
v -224 -64 0
v -224 -48 0
v -208 -48 0
v -192 -64 0
v -208 -64 0
v -208 -48 0
v -192 -48 0
v -176 -64 0
v -192 -64 0
v -192 -48 0
v -176 -48 0
v -160 -64 0
v -176 -64 0
v -176 -48 0
v -160 -48 0
v -144 -64 0
v -160 -64 0
v -160 -48 0
v -144 -48 0
v -128 -64 0
v -144 -64 0
v -144 -48 0
v -128 -48 0
v -112 -64 0
v -128 -64 0
v -128 -48 0
v -112 -48 0
v -96 -64 0
v -112 -64 0
v -112 -48 0
v -96 -48 0
v -80 -64 0
v -96 -64 0
v -96 -48 0
v -80 -48 0
v -64 -64 0
v -80 -64 0
v -80 -48 0
v -64 -48 0
v -48 -64 0
v -64 -64 0
v -64 -48 0
v -48 -48 0
v -32 -64 0
v -48 -64 0
v -48 -48 0
v -32 -48 0
v -16 -64 0
v -32 -64 0
v -32 -48 0
v -16 -48 0
v 0 -64 0
v -16 -64 0
v -16 -48 0
v 0 -48 0
v -240 -80 0
v -256 -80 0
v -256 -64 0
v -240 -64 0
v -224 -80 0
v -240 -80 0
v -240 -64 0
v -224 -64 0
v -208 -80 0
v -224 -80 0
v -224 -64 0
v -208 -64 0
v -192 -80 0
v -208 -80 0
v -208 -64 0
v -192 -64 0
v -176 -80 0
v -192 -80 0
v -192 -64 0
v -176 -64 0
v -160 -80 0
v -176 -80 0
v -176 -64 0
v -160 -64 0
v -144 -80 0
v -160 -80 0
v -160 -64 0
v -144 -64 0
v -128 -80 0
v -144 -80 0
v -144 -64 0
v -128 -64 0
v -112 -80 0
v -128 -80 0
v -128 -64 0
v -112 -64 0
v -96 -80 0
v -112 -80 0
v -112 -64 0
v -96 -64 0
v -80 -80 0
v -96 -80 0
v -96 -64 0
v -80 -64 0
v -64 -80 0
v -80 -80 0
v -80 -64 0
v -64 -64 0
v -48 -80 0
v -64 -80 0
v -64 -64 0
v -48 -64 0
v -32 -80 0
v -48 -80 0
v -48 -64 0
v -32 -64 0
v -16 -80 0
v -32 -80 0
v -32 -64 0
v -16 -64 0
v 0 -80 0
v -16 -80 0
v -16 -64 0
v 0 -64 0
v -240 -96 0
v -256 -96 0
v -256 -80 0
v -240 -80 0
v -224 -96 0
v -240 -96 0
v -240 -80 0
v -224 -80 0
v -208 -96 0
v -224 -96 0
v -224 -80 0
v -208 -80 0
v -192 -96 0
v -208 -96 0
v -208 -80 0
v -192 -80 0
v -176 -96 0
v -192 -96 0
v -192 -80 0
v -176 -80 0
v -160 -96 0
v -176 -96 0
v -176 -80 0
v -160 -80 0
v -144 -96 0
v -160 -96 0
v -160 -80 0
v -144 -80 0
v -128 -96 0
v -144 -96 0
v -144 -80 0
v -128 -80 0
v -112 -96 0
v -128 -96 0
v -128 -80 0
v -112 -80 0
v -96 -96 0
v -112 -96 0
v -112 -80 0
v -96 -80 0
v -80 -96 0
v -96 -96 0
v -96 -80 0
v -80 -80 0
v -64 -96 0
v -80 -96 0
v -80 -80 0
v -64 -80 0
v -48 -96 0
v -64 -96 0
v -64 -80 0
v -48 -80 0
v -32 -96 0
v -48 -96 0
v -48 -80 0
v -32 -80 0
v -16 -96 0
v -32 -96 0
v -32 -80 0
v -16 -80 0
v 0 -96 0
v -16 -96 0
v -16 -80 0
v 0 -80 0
v -240 -112 0
v -256 -112 0
v -256 -96 0
v -240 -96 0
v -224 -112 0
v -240 -112 0
v -240 -96 0
v -224 -96 0
v -208 -112 0
v -224 -112 0
v -224 -96 0
v -208 -96 0
v -192 -112 0
v -208 -112 0
v -208 -96 0
v -192 -96 0
v -176 -112 0
v -192 -112 0
v -192 -96 0
v -176 -96 0
v -160 -112 0
v -176 -112 0
v -176 -96 0
v -160 -96 0
v -144 -112 0
v -160 -112 0
v -160 -96 0
v -144 -96 0
v -128 -112 0
v -144 -112 0
v -144 -96 0
v -128 -96 0
v -112 -112 0
v -128 -112 0
v -128 -96 0
v -112 -96 0
v -96 -112 0
v -112 -112 0
v -112 -96 0
v -96 -96 0
v -80 -112 0
v -96 -112 0
v -96 -96 0
v -80 -96 0
v -64 -112 0
v -80 -112 0
v -80 -96 0
v -64 -96 0
v -48 -112 0
v -64 -112 0
v -64 -96 0
v -48 -96 0
v -32 -112 0
v -48 -112 0
v -48 -96 0
v -32 -96 0
v -16 -112 0
v -32 -112 0
v -32 -96 0
v -16 -96 0
v 0 -112 0
v -16 -112 0
v -16 -96 0
v 0 -96 0
v -240 -128 0
v -256 -128 0
v -256 -112 0
v -240 -112 0
v -224 -128 0
v -240 -128 0
v -240 -112 0
v -224 -112 0
v -208 -128 0
v -224 -128 0
v -224 -112 0
v -208 -112 0
v -192 -128 0
v -208 -128 0
v -208 -112 0
v -192 -112 0
v -176 -128 0
v -192 -128 0
v -192 -112 0
v -176 -112 0
v -160 -128 0
v -176 -128 0
v -176 -112 0
v -160 -112 0
v -144 -128 0
v -160 -128 0
v -160 -112 0
v -144 -112 0
v -128 -128 0
v -144 -128 0
v -144 -112 0
v -128 -112 0
v -112 -128 0
v -128 -128 0
v -128 -112 0
v -112 -112 0
v -96 -128 0
v -112 -128 0
v -112 -112 0
v -96 -112 0
v -80 -128 0
v -96 -128 0
v -96 -112 0
v -80 -112 0
v -64 -128 0
v -80 -128 0
v -80 -112 0
v -64 -112 0
v -48 -128 0
v -64 -128 0
v -64 -112 0
v -48 -112 0
v -32 -128 0
v -48 -128 0
v -48 -112 0
v -32 -112 0
v -16 -128 0
v -32 -128 0
v -32 -112 0
v -16 -112 0
v 0 -128 0
v -16 -128 0
v -16 -112 0
v 0 -112 0
v -240 -144 0
v -256 -144 0
v -256 -128 0
v -240 -128 0
v -224 -144 0
v -240 -144 0
v -240 -128 0
v -224 -128 0
v -208 -144 0
v -224 -144 0
v -224 -128 0
v -208 -128 0
v -192 -144 0
v -208 -144 0
v -208 -128 0
v -192 -128 0
v -176 -144 0
v -192 -144 0
v -192 -128 0
v -176 -128 0
v -160 -144 0
v -176 -144 0
v -176 -128 0
v -160 -128 0
v -144 -144 0
v -160 -144 0
v -160 -128 0
v -144 -128 0
v -128 -144 0
v -144 -144 0
v -144 -128 0
v -128 -128 0
v -112 -144 0
v -128 -144 0
v -128 -128 0
v -112 -128 0
v -96 -144 0
v -112 -144 0
v -112 -128 0
v -96 -128 0
v -80 -144 0
v -96 -144 0
v -96 -128 0
v -80 -128 0
v -64 -144 0
v -80 -144 0
v -80 -128 0
v -64 -128 0
v -48 -144 0
v -64 -144 0
v -64 -128 0
v -48 -128 0
v -32 -144 0
v -48 -144 0
v -48 -128 0
v -32 -128 0
v -16 -144 0
v -32 -144 0
v -32 -128 0
v -16 -128 0
v 0 -144 0
v -16 -144 0
v -16 -128 0
v 0 -128 0
v -240 -160 0
v -256 -160 0
v -256 -144 0
v -240 -144 0
v -224 -160 0
v -240 -160 0
v -240 -144 0
v -224 -144 0
v -208 -160 0
v -224 -160 0
v -224 -144 0
v -208 -144 0
v -192 -160 0
v -208 -160 0
v -208 -144 0
v -192 -144 0
v -176 -160 0
v -192 -160 0
v -192 -144 0
v -176 -144 0
v -160 -160 0
v -176 -160 0
v -176 -144 0
v -160 -144 0
v -144 -160 0
v -160 -160 0
v -160 -144 0
v -144 -144 0
v -128 -160 0
v -144 -160 0
v -144 -144 0
v -128 -144 0
v -112 -160 0
v -128 -160 0
v -128 -144 0
v -112 -144 0
v -96 -160 0
v -112 -160 0
v -112 -144 0
v -96 -144 0
v -80 -160 0
v -96 -160 0
v -96 -144 0
v -80 -144 0
v -64 -160 0
v -80 -160 0
v -80 -144 0
v -64 -144 0
v -48 -160 0
v -64 -160 0
v -64 -144 0
v -48 -144 0
v -32 -160 0
v -48 -160 0
v -48 -144 0
v -32 -144 0
v -16 -160 0
v -32 -160 0
v -32 -144 0
v -16 -144 0
v 0 -160 0
v -16 -160 0
v -16 -144 0
v 0 -144 0
v -240 -176 0
v -256 -176 0
v -256 -160 0
v -240 -160 0
v -224 -176 0
v -240 -176 0
v -240 -160 0
v -224 -160 0
v -208 -176 0
v -224 -176 0
v -224 -160 0
v -208 -160 0
v -192 -176 0
v -208 -176 0
v -208 -160 0
v -192 -160 0
v -176 -176 0
v -192 -176 0
v -192 -160 0
v -176 -160 0
v -160 -176 0
v -176 -176 0
v -176 -160 0
v -160 -160 0
v -144 -176 0
v -160 -176 0
v -160 -160 0
v -144 -160 0
v -128 -176 0
v -144 -176 0
v -144 -160 0
v -128 -160 0
v -112 -176 0
v -128 -176 0
v -128 -160 0
v -112 -160 0
v -96 -176 0
v -112 -176 0
v -112 -160 0
v -96 -160 0
v -80 -176 0
v -96 -176 0
v -96 -160 0
v -80 -160 0
v -64 -176 0
v -80 -176 0
v -80 -160 0
v -64 -160 0
v -48 -176 0
v -64 -176 0
v -64 -160 0
v -48 -160 0
v -32 -176 0
v -48 -176 0
v -48 -160 0
v -32 -160 0
v -16 -176 0
v -32 -176 0
v -32 -160 0
v -16 -160 0
v 0 -176 0
v -16 -176 0
v -16 -160 0
v 0 -160 0
v -240 -192 0
v -256 -192 0
v -256 -176 0
v -240 -176 0
v -224 -192 0
v -240 -192 0
v -240 -176 0
v -224 -176 0
v -208 -192 0
v -224 -192 0
v -224 -176 0
v -208 -176 0
v -192 -192 0
v -208 -192 0
v -208 -176 0
v -192 -176 0
v -176 -192 0
v -192 -192 0
v -192 -176 0
v -176 -176 0
v -160 -192 0
v -176 -192 0
v -176 -176 0
v -160 -176 0
v -144 -192 0
v -160 -192 0
v -160 -176 0
v -144 -176 0
v -128 -192 0
v -144 -192 0
v -144 -176 0
v -128 -176 0
v -112 -192 0
v -128 -192 0
v -128 -176 0
v -112 -176 0
v -96 -192 0
v -112 -192 0
v -112 -176 0
v -96 -176 0
v -80 -192 0
v -96 -192 0
v -96 -176 0
v -80 -176 0
v -64 -192 0
v -80 -192 0
v -80 -176 0
v -64 -176 0
v -48 -192 0
v -64 -192 0
v -64 -176 0
v -48 -176 0
v -32 -192 0
v -48 -192 0
v -48 -176 0
v -32 -176 0
v -16 -192 0
v -32 -192 0
v -32 -176 0
v -16 -176 0
v 0 -192 0
v -16 -192 0
v -16 -176 0
v 0 -176 0
v -240 -208 0
v -256 -208 0
v -256 -192 0
v -240 -192 0
v -224 -208 0
v -240 -208 0
v -240 -192 0
v -224 -192 0
v -208 -208 0
v -224 -208 0
v -224 -192 0
v -208 -192 0
v -192 -208 0
v -208 -208 0
v -208 -192 0
v -192 -192 0
v -176 -208 0
v -192 -208 0
v -192 -192 0
v -176 -192 0
v -160 -208 0
v -176 -208 0
v -176 -192 0
v -160 -192 0
v -144 -208 0
v -160 -208 0
v -160 -192 0
v -144 -192 0
v -128 -208 0
v -144 -208 0
v -144 -192 0
v -128 -192 0
v -112 -208 0
v -128 -208 0
v -128 -192 0
v -112 -192 0
v -96 -208 0
v -112 -208 0
v -112 -192 0
v -96 -192 0
v -80 -208 0
v -96 -208 0
v -96 -192 0
v -80 -192 0
v -64 -208 0
v -80 -208 0
v -80 -192 0
v -64 -192 0
v -48 -208 0
v -64 -208 0
v -64 -192 0
v -48 -192 0
v -32 -208 0
v -48 -208 0
v -48 -192 0
v -32 -192 0
v -16 -208 0
v -32 -208 0
v -32 -192 0
v -16 -192 0
v 0 -208 0
v -16 -208 0
v -16 -192 0
v 0 -192 0
v -240 -224 0
v -256 -224 0
v -256 -208 0
v -240 -208 0
v -224 -224 0
v -240 -224 0
v -240 -208 0
v -224 -208 0
v -208 -224 0
v -224 -224 0
v -224 -208 0
v -208 -208 0
v -192 -224 0
v -208 -224 0
v -208 -208 0
v -192 -208 0
v -176 -224 0
v -192 -224 0
v -192 -208 0
v -176 -208 0
v -160 -224 0
v -176 -224 0
v -176 -208 0
v -160 -208 0
v -144 -224 0
v -160 -224 0
v -160 -208 0
v -144 -208 0
v -128 -224 0
v -144 -224 0
v -144 -208 0
v -128 -208 0
v -112 -224 0
v -128 -224 0
v -128 -208 0
v -112 -208 0
v -96 -224 0
v -112 -224 0
v -112 -208 0
v -96 -208 0
v -80 -224 0
v -96 -224 0
v -96 -208 0
v -80 -208 0
v -64 -224 0
v -80 -224 0
v -80 -208 0
v -64 -208 0
v -48 -224 0
v -64 -224 0
v -64 -208 0
v -48 -208 0
v -32 -224 0
v -48 -224 0
v -48 -208 0
v -32 -208 0
v -16 -224 0
v -32 -224 0
v -32 -208 0
v -16 -208 0
v 0 -224 0
v -16 -224 0
v -16 -208 0
v 0 -208 0
v -240 -240 0
v -256 -240 0
v -256 -224 0
v -240 -224 0
v -224 -240 0
v -240 -240 0
v -240 -224 0
v -224 -224 0
v -208 -240 0
v -224 -240 0
v -224 -224 0
v -208 -224 0
v -192 -240 0
v -208 -240 0
v -208 -224 0
v -192 -224 0
v -176 -240 0
v -192 -240 0
v -192 -224 0
v -176 -224 0
v -160 -240 0
v -176 -240 0
v -176 -224 0
v -160 -224 0
v -144 -240 0
v -160 -240 0
v -160 -224 0
v -144 -224 0
v -128 -240 0
v -144 -240 0
v -144 -224 0
v -128 -224 0
v -112 -240 0
v -128 -240 0
v -128 -224 0
v -112 -224 0
v -96 -240 0
v -112 -240 0
v -112 -224 0
v -96 -224 0
v -80 -240 0
v -96 -240 0
v -96 -224 0
v -80 -224 0
v -64 -240 0
v -80 -240 0
v -80 -224 0
v -64 -224 0
v -48 -240 0
v -64 -240 0
v -64 -224 0
v -48 -224 0
v -32 -240 0
v -48 -240 0
v -48 -224 0
v -32 -224 0
v -16 -240 0
v -32 -240 0
v -32 -224 0
v -16 -224 0
v 0 -240 0
v -16 -240 0
v -16 -224 0
v 0 -224 0
v -240 -256 0
v -256 -256 0
v -256 -240 0
v -240 -240 0
v -224 -256 0
v -240 -256 0
v -240 -240 0
v -224 -240 0
v -208 -256 0
v -224 -256 0
v -224 -240 0
v -208 -240 0
v -192 -256 0
v -208 -256 0
v -208 -240 0
v -192 -240 0
v -176 -256 0
v -192 -256 0
v -192 -240 0
v -176 -240 0
v -160 -256 0
v -176 -256 0
v -176 -240 0
v -160 -240 0
v -144 -256 0
v -160 -256 0
v -160 -240 0
v -144 -240 0
v -128 -256 0
v -144 -256 0
v -144 -240 0
v -128 -240 0
v -112 -256 0
v -128 -256 0
v -128 -240 0
v -112 -240 0
v -96 -256 0
v -112 -256 0
v -112 -240 0
v -96 -240 0
v -80 -256 0
v -96 -256 0
v -96 -240 0
v -80 -240 0
v -64 -256 0
v -80 -256 0
v -80 -240 0
v -64 -240 0
v -48 -256 0
v -64 -256 0
v -64 -240 0
v -48 -240 0
v -32 -256 0
v -48 -256 0
v -48 -240 0
v -32 -240 0
v -16 -256 0
v -32 -256 0
v -32 -240 0
v -16 -240 0
v 0 -256 0
v -16 -256 0
v -16 -240 0
v 0 -240 0

# Texture cooridinates (Count = 9)
vt 0.175 0.7222222
vt 0.2 0.7222222
vt 0.2 0.75
vt 0.175 0.75
vt 0.175 0.6944444
vt 0.2 0.6944444
vt 0.225 0.6944444
vt 0.225 0.7222222
vt 0.225 0.75

# Normal
vn 0 0 -1

# Mesh description
g Village_mesh_0012

# Faces
f 1/1/1 2/2/1 3/3/1 4/4/1
f 5/5/1 6/6/1 7/2/1 8/1/1
f 9/6/1 10/7/1 11/8/1 12/2/1
f 13/1/1 14/2/1 15/3/1 16/4/1
f 17/6/1 18/7/1 19/8/1 20/2/1
f 21/5/1 22/6/1 23/2/1 24/1/1
f 25/5/1 26/6/1 27/2/1 28/1/1
f 29/2/1 30/8/1 31/9/1 32/3/1
f 33/6/1 34/7/1 35/8/1 36/2/1
f 37/6/1 38/7/1 39/8/1 40/2/1
f 41/2/1 42/8/1 43/9/1 44/3/1
f 45/6/1 46/7/1 47/8/1 48/2/1
f 49/1/1 50/2/1 51/3/1 52/4/1
f 53/1/1 54/2/1 55/3/1 56/4/1
f 57/6/1 58/7/1 59/8/1 60/2/1
f 61/5/1 62/6/1 63/2/1 64/1/1
f 65/2/1 66/8/1 67/9/1 68/3/1
f 69/2/1 70/8/1 71/9/1 72/3/1
f 73/1/1 74/2/1 75/3/1 76/4/1
f 77/5/1 78/6/1 79/2/1 80/1/1
f 81/6/1 82/7/1 83/8/1 84/2/1
f 85/1/1 86/2/1 87/3/1 88/4/1
f 89/5/1 90/6/1 91/2/1 92/1/1
f 93/6/1 94/7/1 95/8/1 96/2/1
f 97/5/1 98/6/1 99/2/1 100/1/1
f 101/2/1 102/8/1 103/9/1 104/3/1
f 105/6/1 106/7/1 107/8/1 108/2/1
f 109/1/1 110/2/1 111/3/1 112/4/1
f 113/6/1 114/7/1 115/8/1 116/2/1
f 117/5/1 118/6/1 119/2/1 120/1/1
f 121/2/1 122/8/1 123/9/1 124/3/1
f 125/6/1 126/7/1 127/8/1 128/2/1
f 129/6/1 130/7/1 131/8/1 132/2/1
f 133/5/1 134/6/1 135/2/1 136/1/1
f 137/1/1 138/2/1 139/3/1 140/4/1
f 141/6/1 142/7/1 143/8/1 144/2/1
f 145/5/1 146/6/1 147/2/1 148/1/1
f 149/6/1 150/7/1 151/8/1 152/2/1
f 153/2/1 154/8/1 155/9/1 156/3/1
f 157/2/1 158/8/1 159/9/1 160/3/1
f 161/6/1 162/7/1 163/8/1 164/2/1
f 165/5/1 166/6/1 167/2/1 168/1/1
f 169/1/1 170/2/1 171/3/1 172/4/1
f 173/6/1 174/7/1 175/8/1 176/2/1
f 177/5/1 178/6/1 179/2/1 180/1/1
f 181/1/1 182/2/1 183/3/1 184/4/1
f 185/5/1 186/6/1 187/2/1 188/1/1
f 189/2/1 190/8/1 191/9/1 192/3/1
f 193/2/1 194/8/1 195/9/1 196/3/1
f 197/2/1 198/8/1 199/9/1 200/3/1
f 201/6/1 202/7/1 203/8/1 204/2/1
f 205/5/1 206/6/1 207/2/1 208/1/1
f 209/2/1 210/8/1 211/9/1 212/3/1
f 213/1/1 214/2/1 215/3/1 216/4/1
f 217/5/1 218/6/1 219/2/1 220/1/1
f 221/5/1 222/6/1 223/2/1 224/1/1
f 225/1/1 226/2/1 227/3/1 228/4/1
f 229/6/1 230/7/1 231/8/1 232/2/1
f 233/6/1 234/7/1 235/8/1 236/2/1
f 237/5/1 238/6/1 239/2/1 240/1/1
f 241/5/1 242/6/1 243/2/1 244/1/1
f 245/2/1 246/8/1 247/9/1 248/3/1
f 249/1/1 250/2/1 251/3/1 252/4/1
f 253/2/1 254/8/1 255/9/1 256/3/1
f 257/2/1 258/8/1 259/9/1 260/3/1
f 261/6/1 262/7/1 263/8/1 264/2/1
f 265/1/1 266/2/1 267/3/1 268/4/1
f 269/1/1 270/2/1 271/3/1 272/4/1
f 273/1/1 274/2/1 275/3/1 276/4/1
f 277/1/1 278/2/1 279/3/1 280/4/1
f 281/2/1 282/8/1 283/9/1 284/3/1
f 285/6/1 286/7/1 287/8/1 288/2/1
f 289/6/1 290/7/1 291/8/1 292/2/1
f 293/6/1 294/7/1 295/8/1 296/2/1
f 297/6/1 298/7/1 299/8/1 300/2/1
f 301/1/1 302/2/1 303/3/1 304/4/1
f 305/5/1 306/6/1 307/2/1 308/1/1
f 309/6/1 310/7/1 311/8/1 312/2/1
f 313/6/1 314/7/1 315/8/1 316/2/1
f 317/5/1 318/6/1 319/2/1 320/1/1
f 321/1/1 322/2/1 323/3/1 324/4/1
f 325/2/1 326/8/1 327/9/1 328/3/1
f 329/1/1 330/2/1 331/3/1 332/4/1
f 333/2/1 334/8/1 335/9/1 336/3/1
f 337/1/1 338/2/1 339/3/1 340/4/1
f 341/6/1 342/7/1 343/8/1 344/2/1
f 345/1/1 346/2/1 347/3/1 348/4/1
f 349/6/1 350/7/1 351/8/1 352/2/1
f 353/6/1 354/7/1 355/8/1 356/2/1
f 357/1/1 358/2/1 359/3/1 360/4/1
f 361/1/1 362/2/1 363/3/1 364/4/1
f 365/2/1 366/8/1 367/9/1 368/3/1
f 369/2/1 370/8/1 371/9/1 372/3/1
f 373/6/1 374/7/1 375/8/1 376/2/1
f 377/1/1 378/2/1 379/3/1 380/4/1
f 381/6/1 382/7/1 383/8/1 384/2/1
f 385/5/1 386/6/1 387/2/1 388/1/1
f 389/1/1 390/2/1 391/3/1 392/4/1
f 393/6/1 394/7/1 395/8/1 396/2/1
f 397/5/1 398/6/1 399/2/1 400/1/1
f 401/1/1 402/2/1 403/3/1 404/4/1
f 405/6/1 406/7/1 407/8/1 408/2/1
f 409/5/1 410/6/1 411/2/1 412/1/1
f 413/6/1 414/7/1 415/8/1 416/2/1
f 417/1/1 418/2/1 419/3/1 420/4/1
f 421/5/1 422/6/1 423/2/1 424/1/1
f 425/5/1 426/6/1 427/2/1 428/1/1
f 429/1/1 430/2/1 431/3/1 432/4/1
f 433/2/1 434/8/1 435/9/1 436/3/1
f 437/2/1 438/8/1 439/9/1 440/3/1
f 441/6/1 442/7/1 443/8/1 444/2/1
f 445/1/1 446/2/1 447/3/1 448/4/1
f 449/1/1 450/2/1 451/3/1 452/4/1
f 453/6/1 454/7/1 455/8/1 456/2/1
f 457/2/1 458/8/1 459/9/1 460/3/1
f 461/1/1 462/2/1 463/3/1 464/4/1
f 465/2/1 466/8/1 467/9/1 468/3/1
f 469/2/1 470/8/1 471/9/1 472/3/1
f 473/2/1 474/8/1 475/9/1 476/3/1
f 477/5/1 478/6/1 479/2/1 480/1/1
f 481/1/1 482/2/1 483/3/1 484/4/1
f 485/1/1 486/2/1 487/3/1 488/4/1
f 489/1/1 490/2/1 491/3/1 492/4/1
f 493/5/1 494/6/1 495/2/1 496/1/1
f 497/6/1 498/7/1 499/8/1 500/2/1
f 501/1/1 502/2/1 503/3/1 504/4/1
f 505/5/1 506/6/1 507/2/1 508/1/1
f 509/5/1 510/6/1 511/2/1 512/1/1
f 513/5/1 514/6/1 515/2/1 516/1/1
f 517/6/1 518/7/1 519/8/1 520/2/1
f 521/1/1 522/2/1 523/3/1 524/4/1
f 525/1/1 526/2/1 527/3/1 528/4/1
f 529/6/1 530/7/1 531/8/1 532/2/1
f 533/6/1 534/7/1 535/8/1 536/2/1
f 537/1/1 538/2/1 539/3/1 540/4/1
f 541/1/1 542/2/1 543/3/1 544/4/1
f 545/1/1 546/2/1 547/3/1 548/4/1
f 549/6/1 550/7/1 551/8/1 552/2/1
f 553/5/1 554/6/1 555/2/1 556/1/1
f 557/2/1 558/8/1 559/9/1 560/3/1
f 561/2/1 562/8/1 563/9/1 564/3/1
f 565/6/1 566/7/1 567/8/1 568/2/1
f 569/2/1 570/8/1 571/9/1 572/3/1
f 573/2/1 574/8/1 575/9/1 576/3/1
f 577/1/1 578/2/1 579/3/1 580/4/1
f 581/5/1 582/6/1 583/2/1 584/1/1
f 585/5/1 586/6/1 587/2/1 588/1/1
f 589/2/1 590/8/1 591/9/1 592/3/1
f 593/2/1 594/8/1 595/9/1 596/3/1
f 597/2/1 598/8/1 599/9/1 600/3/1
f 601/2/1 602/8/1 603/9/1 604/3/1
f 605/1/1 606/2/1 607/3/1 608/4/1
f 609/2/1 610/8/1 611/9/1 612/3/1
f 613/5/1 614/6/1 615/2/1 616/1/1
f 617/6/1 618/7/1 619/8/1 620/2/1
f 621/5/1 622/6/1 623/2/1 624/1/1
f 625/2/1 626/8/1 627/9/1 628/3/1
f 629/5/1 630/6/1 631/2/1 632/1/1
f 633/6/1 634/7/1 635/8/1 636/2/1
f 637/6/1 638/7/1 639/8/1 640/2/1
f 641/5/1 642/6/1 643/2/1 644/1/1
f 645/1/1 646/2/1 647/3/1 648/4/1
f 649/2/1 650/8/1 651/9/1 652/3/1
f 653/6/1 654/7/1 655/8/1 656/2/1
f 657/1/1 658/2/1 659/3/1 660/4/1
f 661/6/1 662/7/1 663/8/1 664/2/1
f 665/2/1 666/8/1 667/9/1 668/3/1
f 669/2/1 670/8/1 671/9/1 672/3/1
f 673/2/1 674/8/1 675/9/1 676/3/1
f 677/1/1 678/2/1 679/3/1 680/4/1
f 681/6/1 682/7/1 683/8/1 684/2/1
f 685/2/1 686/8/1 687/9/1 688/3/1
f 689/6/1 690/7/1 691/8/1 692/2/1
f 693/2/1 694/8/1 695/9/1 696/3/1
f 697/1/1 698/2/1 699/3/1 700/4/1
f 701/5/1 702/6/1 703/2/1 704/1/1
f 705/5/1 706/6/1 707/2/1 708/1/1
f 709/2/1 710/8/1 711/9/1 712/3/1
f 713/6/1 714/7/1 715/8/1 716/2/1
f 717/2/1 718/8/1 719/9/1 720/3/1
f 721/5/1 722/6/1 723/2/1 724/1/1
f 725/1/1 726/2/1 727/3/1 728/4/1
f 729/2/1 730/8/1 731/9/1 732/3/1
f 733/2/1 734/8/1 735/9/1 736/3/1
f 737/1/1 738/2/1 739/3/1 740/4/1
f 741/5/1 742/6/1 743/2/1 744/1/1
f 745/1/1 746/2/1 747/3/1 748/4/1
f 749/6/1 750/7/1 751/8/1 752/2/1
f 753/2/1 754/8/1 755/9/1 756/3/1
f 757/2/1 758/8/1 759/9/1 760/3/1
f 761/1/1 762/2/1 763/3/1 764/4/1
f 765/6/1 766/7/1 767/8/1 768/2/1
f 769/2/1 770/8/1 771/9/1 772/3/1
f 773/6/1 774/7/1 775/8/1 776/2/1
f 777/5/1 778/6/1 779/2/1 780/1/1
f 781/6/1 782/7/1 783/8/1 784/2/1
f 785/5/1 786/6/1 787/2/1 788/1/1
f 789/5/1 790/6/1 791/2/1 792/1/1
f 793/5/1 794/6/1 795/2/1 796/1/1
f 797/2/1 798/8/1 799/9/1 800/3/1
f 801/1/1 802/2/1 803/3/1 804/4/1
f 805/6/1 806/7/1 807/8/1 808/2/1
f 809/2/1 810/8/1 811/9/1 812/3/1
f 813/5/1 814/6/1 815/2/1 816/1/1
f 817/2/1 818/8/1 819/9/1 820/3/1
f 821/1/1 822/2/1 823/3/1 824/4/1
f 825/6/1 826/7/1 827/8/1 828/2/1
f 829/1/1 830/2/1 831/3/1 832/4/1
f 833/1/1 834/2/1 835/3/1 836/4/1
f 837/6/1 838/7/1 839/8/1 840/2/1
f 841/2/1 842/8/1 843/9/1 844/3/1
f 845/2/1 846/8/1 847/9/1 848/3/1
f 849/2/1 850/8/1 851/9/1 852/3/1
f 853/6/1 854/7/1 855/8/1 856/2/1
f 857/6/1 858/7/1 859/8/1 860/2/1
f 861/1/1 862/2/1 863/3/1 864/4/1
f 865/1/1 866/2/1 867/3/1 868/4/1
f 869/6/1 870/7/1 871/8/1 872/2/1
f 873/2/1 874/8/1 875/9/1 876/3/1
f 877/2/1 878/8/1 879/9/1 880/3/1
f 881/1/1 882/2/1 883/3/1 884/4/1
f 885/2/1 886/8/1 887/9/1 888/3/1
f 889/2/1 890/8/1 891/9/1 892/3/1
f 893/5/1 894/6/1 895/2/1 896/1/1
f 897/5/1 898/6/1 899/2/1 900/1/1
f 901/2/1 902/8/1 903/9/1 904/3/1
f 905/1/1 906/2/1 907/3/1 908/4/1
f 909/6/1 910/7/1 911/8/1 912/2/1
f 913/1/1 914/2/1 915/3/1 916/4/1
f 917/5/1 918/6/1 919/2/1 920/1/1
f 921/2/1 922/8/1 923/9/1 924/3/1
f 925/6/1 926/7/1 927/8/1 928/2/1
f 929/1/1 930/2/1 931/3/1 932/4/1
f 933/5/1 934/6/1 935/2/1 936/1/1
f 937/2/1 938/8/1 939/9/1 940/3/1
f 941/2/1 942/8/1 943/9/1 944/3/1
f 945/6/1 946/7/1 947/8/1 948/2/1
f 949/1/1 950/2/1 951/3/1 952/4/1
f 953/1/1 954/2/1 955/3/1 956/4/1
f 957/2/1 958/8/1 959/9/1 960/3/1
f 961/1/1 962/2/1 963/3/1 964/4/1
f 965/1/1 966/2/1 967/3/1 968/4/1
f 969/2/1 970/8/1 971/9/1 972/3/1
f 973/1/1 974/2/1 975/3/1 976/4/1
f 977/6/1 978/7/1 979/8/1 980/2/1
f 981/6/1 982/7/1 983/8/1 984/2/1
f 985/6/1 986/7/1 987/8/1 988/2/1
f 989/6/1 990/7/1 991/8/1 992/2/1
f 993/1/1 994/2/1 995/3/1 996/4/1
f 997/2/1 998/8/1 999/9/1 1000/3/1
f 1001/5/1 1002/6/1 1003/2/1 1004/1/1
f 1005/5/1 1006/6/1 1007/2/1 1008/1/1
f 1009/6/1 1010/7/1 1011/8/1 1012/2/1
f 1013/5/1 1014/6/1 1015/2/1 1016/1/1
f 1017/2/1 1018/8/1 1019/9/1 1020/3/1
f 1021/2/1 1022/8/1 1023/9/1 1024/3/1

