# Tiled2Unity generated file. Do not modify by hand.
# Wavefront file for 'Village_mesh_0022.obj'

# Vertices (Count = 84)
v -128 -112 0
v -144 -112 0
v -144 -96 0
v -128 -96 0
v -112 -112 0
v -128 -112 0
v -128 -96 0
v -112 -96 0
v -96 -112 0
v -112 -112 0
v -112 -96 0
v -96 -96 0
v -80 -112 0
v -96 -112 0
v -96 -96 0
v -80 -96 0
v -64 -112 0
v -80 -112 0
v -80 -96 0
v -64 -96 0
v -128 -128 0
v -144 -128 0
v -144 -112 0
v -128 -112 0
v -112 -128 0
v -128 -128 0
v -128 -112 0
v -112 -112 0
v -96 -128 0
v -112 -128 0
v -112 -112 0
v -96 -112 0
v -80 -128 0
v -96 -128 0
v -96 -112 0
v -80 -112 0
v -64 -128 0
v -80 -128 0
v -80 -112 0
v -64 -112 0
v -128 -144 0
v -144 -144 0
v -144 -128 0
v -128 -128 0
v -112 -144 0
v -128 -144 0
v -128 -128 0
v -112 -128 0
v -96 -144 0
v -112 -144 0
v -112 -128 0
v -96 -128 0
v -80 -144 0
v -96 -144 0
v -96 -128 0
v -80 -128 0
v -64 -144 0
v -80 -144 0
v -80 -128 0
v -64 -128 0
v -240 -160 0
v -256 -160 0
v -256 -144 0
v -240 -144 0
v -224 -160 0
v -240 -160 0
v -240 -144 0
v -224 -144 0
v -240 -176 0
v -256 -176 0
v -256 -160 0
v -240 -160 0
v -224 -176 0
v -240 -176 0
v -240 -160 0
v -224 -160 0
v -240 -192 0
v -256 -192 0
v -256 -176 0
v -240 -176 0
v -224 -192 0
v -240 -192 0
v -240 -176 0
v -224 -176 0

# Texture cooridinates (Count = 24)
vt 0.25 0.9166667
vt 0.275 0.9166667
vt 0.275 0.9444444
vt 0.25 0.9444444
vt 0.225 0.9166667
vt 0.225 0.9444444
vt 0.2 0.9166667
vt 0.2 0.9444444
vt 0.175 0.9166667
vt 0.175 0.9444444
vt 0.15 0.9166667
vt 0.15 0.9444444
vt 0.25 0.8888889
vt 0.275 0.8888889
vt 0.225 0.8888889
vt 0.2 0.8888889
vt 0.175 0.8888889
vt 0.15 0.8888889
vt 0.25 0.8611111
vt 0.275 0.8611111
vt 0.225 0.8611111
vt 0.2 0.8611111
vt 0.175 0.8611111
vt 0.15 0.8611111

# Normal
vn 0 0 -1

# Mesh description
g Village_mesh_0022

# Faces
f 1/1/1 2/2/1 3/3/1 4/4/1
f 5/5/1 6/1/1 7/4/1 8/6/1
f 9/7/1 10/5/1 11/6/1 12/8/1
f 13/9/1 14/7/1 15/8/1 16/10/1
f 17/11/1 18/9/1 19/10/1 20/12/1
f 21/13/1 22/14/1 23/2/1 24/1/1
f 25/15/1 26/13/1 27/1/1 28/5/1
f 29/16/1 30/15/1 31/5/1 32/7/1
f 33/17/1 34/16/1 35/7/1 36/9/1
f 37/18/1 38/17/1 39/9/1 40/11/1
f 41/19/1 42/20/1 43/14/1 44/13/1
f 45/21/1 46/19/1 47/13/1 48/15/1
f 49/22/1 50/21/1 51/15/1 52/16/1
f 53/23/1 54/22/1 55/16/1 56/17/1
f 57/24/1 58/23/1 59/17/1 60/18/1
f 61/9/1 62/7/1 63/8/1 64/10/1
f 65/11/1 66/9/1 67/10/1 68/12/1
f 69/17/1 70/16/1 71/7/1 72/9/1
f 73/18/1 74/17/1 75/9/1 76/11/1
f 77/23/1 78/22/1 79/16/1 80/17/1
f 81/24/1 82/23/1 83/17/1 84/18/1

