# Tiled2Unity generated file. Do not modify by hand.
# Wavefront file for 'Village_mesh_0025.obj'

# Vertices (Count = 1024)
v -240 -16 0
v -256 -16 0
v -256 0 0
v -240 0 0
v -224 -16 0
v -240 -16 0
v -240 0 0
v -224 0 0
v -208 -16 0
v -224 -16 0
v -224 0 0
v -208 0 0
v -192 -16 0
v -208 -16 0
v -208 0 0
v -192 0 0
v -176 -16 0
v -192 -16 0
v -192 0 0
v -176 0 0
v -160 -16 0
v -176 -16 0
v -176 0 0
v -160 0 0
v -144 -16 0
v -160 -16 0
v -160 0 0
v -144 0 0
v -128 -16 0
v -144 -16 0
v -144 0 0
v -128 0 0
v -112 -16 0
v -128 -16 0
v -128 0 0
v -112 0 0
v -96 -16 0
v -112 -16 0
v -112 0 0
v -96 0 0
v -80 -16 0
v -96 -16 0
v -96 0 0
v -80 0 0
v -64 -16 0
v -80 -16 0
v -80 0 0
v -64 0 0
v -48 -16 0
v -64 -16 0
v -64 0 0
v -48 0 0
v -32 -16 0
v -48 -16 0
v -48 0 0
v -32 0 0
v -16 -16 0
v -32 -16 0
v -32 0 0
v -16 0 0
v 0 -16 0
v -16 -16 0
v -16 0 0
v 0 0 0
v -240 -32 0
v -256 -32 0
v -256 -16 0
v -240 -16 0
v -224 -32 0
v -240 -32 0
v -240 -16 0
v -224 -16 0
v -208 -32 0
v -224 -32 0
v -224 -16 0
v -208 -16 0
v -192 -32 0
v -208 -32 0
v -208 -16 0
v -192 -16 0
v -176 -32 0
v -192 -32 0
v -192 -16 0
v -176 -16 0
v -160 -32 0
v -176 -32 0
v -176 -16 0
v -160 -16 0
v -144 -32 0
v -160 -32 0
v -160 -16 0
v -144 -16 0
v -128 -32 0
v -144 -32 0
v -144 -16 0
v -128 -16 0
v -112 -32 0
v -128 -32 0
v -128 -16 0
v -112 -16 0
v -96 -32 0
v -112 -32 0
v -112 -16 0
v -96 -16 0
v -80 -32 0
v -96 -32 0
v -96 -16 0
v -80 -16 0
v -64 -32 0
v -80 -32 0
v -80 -16 0
v -64 -16 0
v -48 -32 0
v -64 -32 0
v -64 -16 0
v -48 -16 0
v -32 -32 0
v -48 -32 0
v -48 -16 0
v -32 -16 0
v -16 -32 0
v -32 -32 0
v -32 -16 0
v -16 -16 0
v 0 -32 0
v -16 -32 0
v -16 -16 0
v 0 -16 0
v -240 -48 0
v -256 -48 0
v -256 -32 0
v -240 -32 0
v -224 -48 0
v -240 -48 0
v -240 -32 0
v -224 -32 0
v -208 -48 0
v -224 -48 0
v -224 -32 0
v -208 -32 0
v -192 -48 0
v -208 -48 0
v -208 -32 0
v -192 -32 0
v -176 -48 0
v -192 -48 0
v -192 -32 0
v -176 -32 0
v -160 -48 0
v -176 -48 0
v -176 -32 0
v -160 -32 0
v -144 -48 0
v -160 -48 0
v -160 -32 0
v -144 -32 0
v -128 -48 0
v -144 -48 0
v -144 -32 0
v -128 -32 0
v -112 -48 0
v -128 -48 0
v -128 -32 0
v -112 -32 0
v -96 -48 0
v -112 -48 0
v -112 -32 0
v -96 -32 0
v -80 -48 0
v -96 -48 0
v -96 -32 0
v -80 -32 0
v -64 -48 0
v -80 -48 0
v -80 -32 0
v -64 -32 0
v -48 -48 0
v -64 -48 0
v -64 -32 0
v -48 -32 0
v -32 -48 0
v -48 -48 0
v -48 -32 0
v -32 -32 0
v -16 -48 0
v -32 -48 0
v -32 -32 0
v -16 -32 0
v 0 -48 0
v -16 -48 0
v -16 -32 0
v 0 -32 0
v -240 -64 0
v -256 -64 0
v -256 -48 0
v -240 -48 0
v -224 -64 0
v -240 -64 0
v -240 -48 0
v -224 -48 0
v -208 -64 0
v -224 -64 0
v -224 -48 0
v -208 -48 0
v -192 -64 0
v -208 -64 0
v -208 -48 0
v -192 -48 0
v -176 -64 0
v -192 -64 0
v -192 -48 0
v -176 -48 0
v -160 -64 0
v -176 -64 0
v -176 -48 0
v -160 -48 0
v -144 -64 0
v -160 -64 0
v -160 -48 0
v -144 -48 0
v -128 -64 0
v -144 -64 0
v -144 -48 0
v -128 -48 0
v -112 -64 0
v -128 -64 0
v -128 -48 0
v -112 -48 0
v -96 -64 0
v -112 -64 0
v -112 -48 0
v -96 -48 0
v -80 -64 0
v -96 -64 0
v -96 -48 0
v -80 -48 0
v -64 -64 0
v -80 -64 0
v -80 -48 0
v -64 -48 0
v -48 -64 0
v -64 -64 0
v -64 -48 0
v -48 -48 0
v -32 -64 0
v -48 -64 0
v -48 -48 0
v -32 -48 0
v -16 -64 0
v -32 -64 0
v -32 -48 0
v -16 -48 0
v 0 -64 0
v -16 -64 0
v -16 -48 0
v 0 -48 0
v -240 -80 0
v -256 -80 0
v -256 -64 0
v -240 -64 0
v -224 -80 0
v -240 -80 0
v -240 -64 0
v -224 -64 0
v -208 -80 0
v -224 -80 0
v -224 -64 0
v -208 -64 0
v -192 -80 0
v -208 -80 0
v -208 -64 0
v -192 -64 0
v -176 -80 0
v -192 -80 0
v -192 -64 0
v -176 -64 0
v -160 -80 0
v -176 -80 0
v -176 -64 0
v -160 -64 0
v -144 -80 0
v -160 -80 0
v -160 -64 0
v -144 -64 0
v -128 -80 0
v -144 -80 0
v -144 -64 0
v -128 -64 0
v -112 -80 0
v -128 -80 0
v -128 -64 0
v -112 -64 0
v -96 -80 0
v -112 -80 0
v -112 -64 0
v -96 -64 0
v -80 -80 0
v -96 -80 0
v -96 -64 0
v -80 -64 0
v -64 -80 0
v -80 -80 0
v -80 -64 0
v -64 -64 0
v -48 -80 0
v -64 -80 0
v -64 -64 0
v -48 -64 0
v -32 -80 0
v -48 -80 0
v -48 -64 0
v -32 -64 0
v -16 -80 0
v -32 -80 0
v -32 -64 0
v -16 -64 0
v 0 -80 0
v -16 -80 0
v -16 -64 0
v 0 -64 0
v -240 -96 0
v -256 -96 0
v -256 -80 0
v -240 -80 0
v -224 -96 0
v -240 -96 0
v -240 -80 0
v -224 -80 0
v -208 -96 0
v -224 -96 0
v -224 -80 0
v -208 -80 0
v -192 -96 0
v -208 -96 0
v -208 -80 0
v -192 -80 0
v -176 -96 0
v -192 -96 0
v -192 -80 0
v -176 -80 0
v -160 -96 0
v -176 -96 0
v -176 -80 0
v -160 -80 0
v -144 -96 0
v -160 -96 0
v -160 -80 0
v -144 -80 0
v -128 -96 0
v -144 -96 0
v -144 -80 0
v -128 -80 0
v -112 -96 0
v -128 -96 0
v -128 -80 0
v -112 -80 0
v -96 -96 0
v -112 -96 0
v -112 -80 0
v -96 -80 0
v -80 -96 0
v -96 -96 0
v -96 -80 0
v -80 -80 0
v -64 -96 0
v -80 -96 0
v -80 -80 0
v -64 -80 0
v -48 -96 0
v -64 -96 0
v -64 -80 0
v -48 -80 0
v -32 -96 0
v -48 -96 0
v -48 -80 0
v -32 -80 0
v -16 -96 0
v -32 -96 0
v -32 -80 0
v -16 -80 0
v 0 -96 0
v -16 -96 0
v -16 -80 0
v 0 -80 0
v -240 -112 0
v -256 -112 0
v -256 -96 0
v -240 -96 0
v -224 -112 0
v -240 -112 0
v -240 -96 0
v -224 -96 0
v -208 -112 0
v -224 -112 0
v -224 -96 0
v -208 -96 0
v -192 -112 0
v -208 -112 0
v -208 -96 0
v -192 -96 0
v -176 -112 0
v -192 -112 0
v -192 -96 0
v -176 -96 0
v -160 -112 0
v -176 -112 0
v -176 -96 0
v -160 -96 0
v -144 -112 0
v -160 -112 0
v -160 -96 0
v -144 -96 0
v -128 -112 0
v -144 -112 0
v -144 -96 0
v -128 -96 0
v -112 -112 0
v -128 -112 0
v -128 -96 0
v -112 -96 0
v -96 -112 0
v -112 -112 0
v -112 -96 0
v -96 -96 0
v -80 -112 0
v -96 -112 0
v -96 -96 0
v -80 -96 0
v -64 -112 0
v -80 -112 0
v -80 -96 0
v -64 -96 0
v -48 -112 0
v -64 -112 0
v -64 -96 0
v -48 -96 0
v -32 -112 0
v -48 -112 0
v -48 -96 0
v -32 -96 0
v -16 -112 0
v -32 -112 0
v -32 -96 0
v -16 -96 0
v 0 -112 0
v -16 -112 0
v -16 -96 0
v 0 -96 0
v -240 -128 0
v -256 -128 0
v -256 -112 0
v -240 -112 0
v -224 -128 0
v -240 -128 0
v -240 -112 0
v -224 -112 0
v -208 -128 0
v -224 -128 0
v -224 -112 0
v -208 -112 0
v -192 -128 0
v -208 -128 0
v -208 -112 0
v -192 -112 0
v -176 -128 0
v -192 -128 0
v -192 -112 0
v -176 -112 0
v -160 -128 0
v -176 -128 0
v -176 -112 0
v -160 -112 0
v -144 -128 0
v -160 -128 0
v -160 -112 0
v -144 -112 0
v -128 -128 0
v -144 -128 0
v -144 -112 0
v -128 -112 0
v -112 -128 0
v -128 -128 0
v -128 -112 0
v -112 -112 0
v -96 -128 0
v -112 -128 0
v -112 -112 0
v -96 -112 0
v -80 -128 0
v -96 -128 0
v -96 -112 0
v -80 -112 0
v -64 -128 0
v -80 -128 0
v -80 -112 0
v -64 -112 0
v -48 -128 0
v -64 -128 0
v -64 -112 0
v -48 -112 0
v -32 -128 0
v -48 -128 0
v -48 -112 0
v -32 -112 0
v -16 -128 0
v -32 -128 0
v -32 -112 0
v -16 -112 0
v 0 -128 0
v -16 -128 0
v -16 -112 0
v 0 -112 0
v -240 -144 0
v -256 -144 0
v -256 -128 0
v -240 -128 0
v -224 -144 0
v -240 -144 0
v -240 -128 0
v -224 -128 0
v -208 -144 0
v -224 -144 0
v -224 -128 0
v -208 -128 0
v -192 -144 0
v -208 -144 0
v -208 -128 0
v -192 -128 0
v -176 -144 0
v -192 -144 0
v -192 -128 0
v -176 -128 0
v -160 -144 0
v -176 -144 0
v -176 -128 0
v -160 -128 0
v -144 -144 0
v -160 -144 0
v -160 -128 0
v -144 -128 0
v -128 -144 0
v -144 -144 0
v -144 -128 0
v -128 -128 0
v -112 -144 0
v -128 -144 0
v -128 -128 0
v -112 -128 0
v -96 -144 0
v -112 -144 0
v -112 -128 0
v -96 -128 0
v -80 -144 0
v -96 -144 0
v -96 -128 0
v -80 -128 0
v -64 -144 0
v -80 -144 0
v -80 -128 0
v -64 -128 0
v -48 -144 0
v -64 -144 0
v -64 -128 0
v -48 -128 0
v -32 -144 0
v -48 -144 0
v -48 -128 0
v -32 -128 0
v -16 -144 0
v -32 -144 0
v -32 -128 0
v -16 -128 0
v 0 -144 0
v -16 -144 0
v -16 -128 0
v 0 -128 0
v -240 -160 0
v -256 -160 0
v -256 -144 0
v -240 -144 0
v -224 -160 0
v -240 -160 0
v -240 -144 0
v -224 -144 0
v -208 -160 0
v -224 -160 0
v -224 -144 0
v -208 -144 0
v -192 -160 0
v -208 -160 0
v -208 -144 0
v -192 -144 0
v -176 -160 0
v -192 -160 0
v -192 -144 0
v -176 -144 0
v -160 -160 0
v -176 -160 0
v -176 -144 0
v -160 -144 0
v -144 -160 0
v -160 -160 0
v -160 -144 0
v -144 -144 0
v -128 -160 0
v -144 -160 0
v -144 -144 0
v -128 -144 0
v -112 -160 0
v -128 -160 0
v -128 -144 0
v -112 -144 0
v -96 -160 0
v -112 -160 0
v -112 -144 0
v -96 -144 0
v -80 -160 0
v -96 -160 0
v -96 -144 0
v -80 -144 0
v -64 -160 0
v -80 -160 0
v -80 -144 0
v -64 -144 0
v -48 -160 0
v -64 -160 0
v -64 -144 0
v -48 -144 0
v -32 -160 0
v -48 -160 0
v -48 -144 0
v -32 -144 0
v -16 -160 0
v -32 -160 0
v -32 -144 0
v -16 -144 0
v 0 -160 0
v -16 -160 0
v -16 -144 0
v 0 -144 0
v -240 -176 0
v -256 -176 0
v -256 -160 0
v -240 -160 0
v -224 -176 0
v -240 -176 0
v -240 -160 0
v -224 -160 0
v -208 -176 0
v -224 -176 0
v -224 -160 0
v -208 -160 0
v -192 -176 0
v -208 -176 0
v -208 -160 0
v -192 -160 0
v -176 -176 0
v -192 -176 0
v -192 -160 0
v -176 -160 0
v -160 -176 0
v -176 -176 0
v -176 -160 0
v -160 -160 0
v -144 -176 0
v -160 -176 0
v -160 -160 0
v -144 -160 0
v -128 -176 0
v -144 -176 0
v -144 -160 0
v -128 -160 0
v -112 -176 0
v -128 -176 0
v -128 -160 0
v -112 -160 0
v -96 -176 0
v -112 -176 0
v -112 -160 0
v -96 -160 0
v -80 -176 0
v -96 -176 0
v -96 -160 0
v -80 -160 0
v -64 -176 0
v -80 -176 0
v -80 -160 0
v -64 -160 0
v -48 -176 0
v -64 -176 0
v -64 -160 0
v -48 -160 0
v -32 -176 0
v -48 -176 0
v -48 -160 0
v -32 -160 0
v -16 -176 0
v -32 -176 0
v -32 -160 0
v -16 -160 0
v 0 -176 0
v -16 -176 0
v -16 -160 0
v 0 -160 0
v -240 -192 0
v -256 -192 0
v -256 -176 0
v -240 -176 0
v -224 -192 0
v -240 -192 0
v -240 -176 0
v -224 -176 0
v -208 -192 0
v -224 -192 0
v -224 -176 0
v -208 -176 0
v -192 -192 0
v -208 -192 0
v -208 -176 0
v -192 -176 0
v -176 -192 0
v -192 -192 0
v -192 -176 0
v -176 -176 0
v -160 -192 0
v -176 -192 0
v -176 -176 0
v -160 -176 0
v -144 -192 0
v -160 -192 0
v -160 -176 0
v -144 -176 0
v -128 -192 0
v -144 -192 0
v -144 -176 0
v -128 -176 0
v -112 -192 0
v -128 -192 0
v -128 -176 0
v -112 -176 0
v -96 -192 0
v -112 -192 0
v -112 -176 0
v -96 -176 0
v -80 -192 0
v -96 -192 0
v -96 -176 0
v -80 -176 0
v -64 -192 0
v -80 -192 0
v -80 -176 0
v -64 -176 0
v -48 -192 0
v -64 -192 0
v -64 -176 0
v -48 -176 0
v -32 -192 0
v -48 -192 0
v -48 -176 0
v -32 -176 0
v -16 -192 0
v -32 -192 0
v -32 -176 0
v -16 -176 0
v 0 -192 0
v -16 -192 0
v -16 -176 0
v 0 -176 0
v -240 -208 0
v -256 -208 0
v -256 -192 0
v -240 -192 0
v -224 -208 0
v -240 -208 0
v -240 -192 0
v -224 -192 0
v -208 -208 0
v -224 -208 0
v -224 -192 0
v -208 -192 0
v -192 -208 0
v -208 -208 0
v -208 -192 0
v -192 -192 0
v -176 -208 0
v -192 -208 0
v -192 -192 0
v -176 -192 0
v -160 -208 0
v -176 -208 0
v -176 -192 0
v -160 -192 0
v -144 -208 0
v -160 -208 0
v -160 -192 0
v -144 -192 0
v -128 -208 0
v -144 -208 0
v -144 -192 0
v -128 -192 0
v -112 -208 0
v -128 -208 0
v -128 -192 0
v -112 -192 0
v -96 -208 0
v -112 -208 0
v -112 -192 0
v -96 -192 0
v -80 -208 0
v -96 -208 0
v -96 -192 0
v -80 -192 0
v -64 -208 0
v -80 -208 0
v -80 -192 0
v -64 -192 0
v -48 -208 0
v -64 -208 0
v -64 -192 0
v -48 -192 0
v -32 -208 0
v -48 -208 0
v -48 -192 0
v -32 -192 0
v -16 -208 0
v -32 -208 0
v -32 -192 0
v -16 -192 0
v 0 -208 0
v -16 -208 0
v -16 -192 0
v 0 -192 0
v -240 -224 0
v -256 -224 0
v -256 -208 0
v -240 -208 0
v -224 -224 0
v -240 -224 0
v -240 -208 0
v -224 -208 0
v -208 -224 0
v -224 -224 0
v -224 -208 0
v -208 -208 0
v -192 -224 0
v -208 -224 0
v -208 -208 0
v -192 -208 0
v -176 -224 0
v -192 -224 0
v -192 -208 0
v -176 -208 0
v -160 -224 0
v -176 -224 0
v -176 -208 0
v -160 -208 0
v -144 -224 0
v -160 -224 0
v -160 -208 0
v -144 -208 0
v -128 -224 0
v -144 -224 0
v -144 -208 0
v -128 -208 0
v -112 -224 0
v -128 -224 0
v -128 -208 0
v -112 -208 0
v -96 -224 0
v -112 -224 0
v -112 -208 0
v -96 -208 0
v -80 -224 0
v -96 -224 0
v -96 -208 0
v -80 -208 0
v -64 -224 0
v -80 -224 0
v -80 -208 0
v -64 -208 0
v -48 -224 0
v -64 -224 0
v -64 -208 0
v -48 -208 0
v -32 -224 0
v -48 -224 0
v -48 -208 0
v -32 -208 0
v -16 -224 0
v -32 -224 0
v -32 -208 0
v -16 -208 0
v 0 -224 0
v -16 -224 0
v -16 -208 0
v 0 -208 0
v -240 -240 0
v -256 -240 0
v -256 -224 0
v -240 -224 0
v -224 -240 0
v -240 -240 0
v -240 -224 0
v -224 -224 0
v -208 -240 0
v -224 -240 0
v -224 -224 0
v -208 -224 0
v -192 -240 0
v -208 -240 0
v -208 -224 0
v -192 -224 0
v -176 -240 0
v -192 -240 0
v -192 -224 0
v -176 -224 0
v -160 -240 0
v -176 -240 0
v -176 -224 0
v -160 -224 0
v -144 -240 0
v -160 -240 0
v -160 -224 0
v -144 -224 0
v -128 -240 0
v -144 -240 0
v -144 -224 0
v -128 -224 0
v -112 -240 0
v -128 -240 0
v -128 -224 0
v -112 -224 0
v -96 -240 0
v -112 -240 0
v -112 -224 0
v -96 -224 0
v -80 -240 0
v -96 -240 0
v -96 -224 0
v -80 -224 0
v -64 -240 0
v -80 -240 0
v -80 -224 0
v -64 -224 0
v -48 -240 0
v -64 -240 0
v -64 -224 0
v -48 -224 0
v -32 -240 0
v -48 -240 0
v -48 -224 0
v -32 -224 0
v -16 -240 0
v -32 -240 0
v -32 -224 0
v -16 -224 0
v 0 -240 0
v -16 -240 0
v -16 -224 0
v 0 -224 0
v -240 -256 0
v -256 -256 0
v -256 -240 0
v -240 -240 0
v -224 -256 0
v -240 -256 0
v -240 -240 0
v -224 -240 0
v -208 -256 0
v -224 -256 0
v -224 -240 0
v -208 -240 0
v -192 -256 0
v -208 -256 0
v -208 -240 0
v -192 -240 0
v -176 -256 0
v -192 -256 0
v -192 -240 0
v -176 -240 0
v -160 -256 0
v -176 -256 0
v -176 -240 0
v -160 -240 0
v -144 -256 0
v -160 -256 0
v -160 -240 0
v -144 -240 0
v -128 -256 0
v -144 -256 0
v -144 -240 0
v -128 -240 0
v -112 -256 0
v -128 -256 0
v -128 -240 0
v -112 -240 0
v -96 -256 0
v -112 -256 0
v -112 -240 0
v -96 -240 0
v -80 -256 0
v -96 -256 0
v -96 -240 0
v -80 -240 0
v -64 -256 0
v -80 -256 0
v -80 -240 0
v -64 -240 0
v -48 -256 0
v -64 -256 0
v -64 -240 0
v -48 -240 0
v -32 -256 0
v -48 -256 0
v -48 -240 0
v -32 -240 0
v -16 -256 0
v -32 -256 0
v -32 -240 0
v -16 -240 0
v 0 -256 0
v -16 -256 0
v -16 -240 0
v 0 -240 0

# Texture cooridinates (Count = 9)
vt 0.2 0.7222222
vt 0.225 0.7222222
vt 0.225 0.75
vt 0.2 0.75
vt 0.2 0.6944444
vt 0.225 0.6944444
vt 0.175 0.6944444
vt 0.175 0.7222222
vt 0.175 0.75

# Normal
vn 0 0 -1

# Mesh description
g Village_mesh_0025

# Faces
f 1/1/1 2/2/1 3/3/1 4/4/1
f 5/1/1 6/2/1 7/3/1 8/4/1
f 9/1/1 10/2/1 11/3/1 12/4/1
f 13/5/1 14/6/1 15/2/1 16/1/1
f 17/7/1 18/5/1 19/1/1 20/8/1
f 21/7/1 22/5/1 23/1/1 24/8/1
f 25/1/1 26/2/1 27/3/1 28/4/1
f 29/7/1 30/5/1 31/1/1 32/8/1
f 33/7/1 34/5/1 35/1/1 36/8/1
f 37/1/1 38/2/1 39/3/1 40/4/1
f 41/1/1 42/2/1 43/3/1 44/4/1
f 45/8/1 46/1/1 47/4/1 48/9/1
f 49/5/1 50/6/1 51/2/1 52/1/1
f 53/5/1 54/6/1 55/2/1 56/1/1
f 57/5/1 58/6/1 59/2/1 60/1/1
f 61/1/1 62/2/1 63/3/1 64/4/1
f 65/7/1 66/5/1 67/1/1 68/8/1
f 69/8/1 70/1/1 71/4/1 72/9/1
f 73/5/1 74/6/1 75/2/1 76/1/1
f 77/7/1 78/5/1 79/1/1 80/8/1
f 81/1/1 82/2/1 83/3/1 84/4/1
f 85/8/1 86/1/1 87/4/1 88/9/1
f 89/8/1 90/1/1 91/4/1 92/9/1
f 93/7/1 94/5/1 95/1/1 96/8/1
f 97/1/1 98/2/1 99/3/1 100/4/1
f 101/8/1 102/1/1 103/4/1 104/9/1
f 105/7/1 106/5/1 107/1/1 108/8/1
f 109/8/1 110/1/1 111/4/1 112/9/1
f 113/5/1 114/6/1 115/2/1 116/1/1
f 117/7/1 118/5/1 119/1/1 120/8/1
f 121/5/1 122/6/1 123/2/1 124/1/1
f 125/1/1 126/2/1 127/3/1 128/4/1
f 129/8/1 130/1/1 131/4/1 132/9/1
f 133/8/1 134/1/1 135/4/1 136/9/1
f 137/5/1 138/6/1 139/2/1 140/1/1
f 141/7/1 142/5/1 143/1/1 144/8/1
f 145/7/1 146/5/1 147/1/1 148/8/1
f 149/7/1 150/5/1 151/1/1 152/8/1
f 153/8/1 154/1/1 155/4/1 156/9/1
f 157/7/1 158/5/1 159/1/1 160/8/1
f 161/1/1 162/2/1 163/3/1 164/4/1
f 165/7/1 166/5/1 167/1/1 168/8/1
f 169/7/1 170/5/1 171/1/1 172/8/1
f 173/7/1 174/5/1 175/1/1 176/8/1
f 177/7/1 178/5/1 179/1/1 180/8/1
f 181/5/1 182/6/1 183/2/1 184/1/1
f 185/5/1 186/6/1 187/2/1 188/1/1
f 189/8/1 190/1/1 191/4/1 192/9/1
f 193/5/1 194/6/1 195/2/1 196/1/1
f 197/1/1 198/2/1 199/3/1 200/4/1
f 201/5/1 202/6/1 203/2/1 204/1/1
f 205/7/1 206/5/1 207/1/1 208/8/1
f 209/7/1 210/5/1 211/1/1 212/8/1
f 213/7/1 214/5/1 215/1/1 216/8/1
f 217/5/1 218/6/1 219/2/1 220/1/1
f 221/1/1 222/2/1 223/3/1 224/4/1
f 225/7/1 226/5/1 227/1/1 228/8/1
f 229/1/1 230/2/1 231/3/1 232/4/1
f 233/7/1 234/5/1 235/1/1 236/8/1
f 237/8/1 238/1/1 239/4/1 240/9/1
f 241/5/1 242/6/1 243/2/1 244/1/1
f 245/8/1 246/1/1 247/4/1 248/9/1
f 249/8/1 250/1/1 251/4/1 252/9/1
f 253/8/1 254/1/1 255/4/1 256/9/1
f 257/8/1 258/1/1 259/4/1 260/9/1
f 261/5/1 262/6/1 263/2/1 264/1/1
f 265/5/1 266/6/1 267/2/1 268/1/1
f 269/7/1 270/5/1 271/1/1 272/8/1
f 273/1/1 274/2/1 275/3/1 276/4/1
f 277/8/1 278/1/1 279/4/1 280/9/1
f 281/8/1 282/1/1 283/4/1 284/9/1
f 285/1/1 286/2/1 287/3/1 288/4/1
f 289/1/1 290/2/1 291/3/1 292/4/1
f 293/7/1 294/5/1 295/1/1 296/8/1
f 297/8/1 298/1/1 299/4/1 300/9/1
f 301/7/1 302/5/1 303/1/1 304/8/1
f 305/8/1 306/1/1 307/4/1 308/9/1
f 309/7/1 310/5/1 311/1/1 312/8/1
f 313/1/1 314/2/1 315/3/1 316/4/1
f 317/7/1 318/5/1 319/1/1 320/8/1
f 321/1/1 322/2/1 323/3/1 324/4/1
f 325/5/1 326/6/1 327/2/1 328/1/1
f 329/5/1 330/6/1 331/2/1 332/1/1
f 333/7/1 334/5/1 335/1/1 336/8/1
f 337/1/1 338/2/1 339/3/1 340/4/1
f 341/7/1 342/5/1 343/1/1 344/8/1
f 345/8/1 346/1/1 347/4/1 348/9/1
f 349/1/1 350/2/1 351/3/1 352/4/1
f 353/8/1 354/1/1 355/4/1 356/9/1
f 357/5/1 358/6/1 359/2/1 360/1/1
f 361/7/1 362/5/1 363/1/1 364/8/1
f 365/5/1 366/6/1 367/2/1 368/1/1
f 369/7/1 370/5/1 371/1/1 372/8/1
f 373/7/1 374/5/1 375/1/1 376/8/1
f 377/7/1 378/5/1 379/1/1 380/8/1
f 381/7/1 382/5/1 383/1/1 384/8/1
f 385/1/1 386/2/1 387/3/1 388/4/1
f 389/5/1 390/6/1 391/2/1 392/1/1
f 393/7/1 394/5/1 395/1/1 396/8/1
f 397/5/1 398/6/1 399/2/1 400/1/1
f 401/7/1 402/5/1 403/1/1 404/8/1
f 405/5/1 406/6/1 407/2/1 408/1/1
f 409/8/1 410/1/1 411/4/1 412/9/1
f 413/5/1 414/6/1 415/2/1 416/1/1
f 417/8/1 418/1/1 419/4/1 420/9/1
f 421/1/1 422/2/1 423/3/1 424/4/1
f 425/7/1 426/5/1 427/1/1 428/8/1
f 429/1/1 430/2/1 431/3/1 432/4/1
f 433/5/1 434/6/1 435/2/1 436/1/1
f 437/8/1 438/1/1 439/4/1 440/9/1
f 441/5/1 442/6/1 443/2/1 444/1/1
f 445/8/1 446/1/1 447/4/1 448/9/1
f 449/5/1 450/6/1 451/2/1 452/1/1
f 453/5/1 454/6/1 455/2/1 456/1/1
f 457/7/1 458/5/1 459/1/1 460/8/1
f 461/7/1 462/5/1 463/1/1 464/8/1
f 465/1/1 466/2/1 467/3/1 468/4/1
f 469/5/1 470/6/1 471/2/1 472/1/1
f 473/7/1 474/5/1 475/1/1 476/8/1
f 477/7/1 478/5/1 479/1/1 480/8/1
f 481/5/1 482/6/1 483/2/1 484/1/1
f 485/5/1 486/6/1 487/2/1 488/1/1
f 489/7/1 490/5/1 491/1/1 492/8/1
f 493/8/1 494/1/1 495/4/1 496/9/1
f 497/8/1 498/1/1 499/4/1 500/9/1
f 501/7/1 502/5/1 503/1/1 504/8/1
f 505/1/1 506/2/1 507/3/1 508/4/1
f 509/8/1 510/1/1 511/4/1 512/9/1
f 513/5/1 514/6/1 515/2/1 516/1/1
f 517/7/1 518/5/1 519/1/1 520/8/1
f 521/1/1 522/2/1 523/3/1 524/4/1
f 525/1/1 526/2/1 527/3/1 528/4/1
f 529/8/1 530/1/1 531/4/1 532/9/1
f 533/1/1 534/2/1 535/3/1 536/4/1
f 537/1/1 538/2/1 539/3/1 540/4/1
f 541/7/1 542/5/1 543/1/1 544/8/1
f 545/8/1 546/1/1 547/4/1 548/9/1
f 549/7/1 550/5/1 551/1/1 552/8/1
f 553/1/1 554/2/1 555/3/1 556/4/1
f 557/5/1 558/6/1 559/2/1 560/1/1
f 561/1/1 562/2/1 563/3/1 564/4/1
f 565/1/1 566/2/1 567/3/1 568/4/1
f 569/1/1 570/2/1 571/3/1 572/4/1
f 573/5/1 574/6/1 575/2/1 576/1/1
f 577/5/1 578/6/1 579/2/1 580/1/1
f 581/7/1 582/5/1 583/1/1 584/8/1
f 585/8/1 586/1/1 587/4/1 588/9/1
f 589/7/1 590/5/1 591/1/1 592/8/1
f 593/7/1 594/5/1 595/1/1 596/8/1
f 597/1/1 598/2/1 599/3/1 600/4/1
f 601/5/1 602/6/1 603/2/1 604/1/1
f 605/1/1 606/2/1 607/3/1 608/4/1
f 609/1/1 610/2/1 611/3/1 612/4/1
f 613/5/1 614/6/1 615/2/1 616/1/1
f 617/1/1 618/2/1 619/3/1 620/4/1
f 621/1/1 622/2/1 623/3/1 624/4/1
f 625/7/1 626/5/1 627/1/1 628/8/1
f 629/1/1 630/2/1 631/3/1 632/4/1
f 633/8/1 634/1/1 635/4/1 636/9/1
f 637/1/1 638/2/1 639/3/1 640/4/1
f 641/7/1 642/5/1 643/1/1 644/8/1
f 645/8/1 646/1/1 647/4/1 648/9/1
f 649/1/1 650/2/1 651/3/1 652/4/1
f 653/5/1 654/6/1 655/2/1 656/1/1
f 657/1/1 658/2/1 659/3/1 660/4/1
f 661/7/1 662/5/1 663/1/1 664/8/1
f 665/7/1 666/5/1 667/1/1 668/8/1
f 669/1/1 670/2/1 671/3/1 672/4/1
f 673/1/1 674/2/1 675/3/1 676/4/1
f 677/8/1 678/1/1 679/4/1 680/9/1
f 681/1/1 682/2/1 683/3/1 684/4/1
f 685/5/1 686/6/1 687/2/1 688/1/1
f 689/7/1 690/5/1 691/1/1 692/8/1
f 693/7/1 694/5/1 695/1/1 696/8/1
f 697/8/1 698/1/1 699/4/1 700/9/1
f 701/1/1 702/2/1 703/3/1 704/4/1
f 705/7/1 706/5/1 707/1/1 708/8/1
f 709/5/1 710/6/1 711/2/1 712/1/1
f 713/1/1 714/2/1 715/3/1 716/4/1
f 717/7/1 718/5/1 719/1/1 720/8/1
f 721/1/1 722/2/1 723/3/1 724/4/1
f 725/1/1 726/2/1 727/3/1 728/4/1
f 729/7/1 730/5/1 731/1/1 732/8/1
f 733/1/1 734/2/1 735/3/1 736/4/1
f 737/1/1 738/2/1 739/3/1 740/4/1
f 741/5/1 742/6/1 743/2/1 744/1/1
f 745/5/1 746/6/1 747/2/1 748/1/1
f 749/5/1 750/6/1 751/2/1 752/1/1
f 753/7/1 754/5/1 755/1/1 756/8/1
f 757/8/1 758/1/1 759/4/1 760/9/1
f 761/1/1 762/2/1 763/3/1 764/4/1
f 765/7/1 766/5/1 767/1/1 768/8/1
f 769/5/1 770/6/1 771/2/1 772/1/1
f 773/5/1 774/6/1 775/2/1 776/1/1
f 777/7/1 778/5/1 779/1/1 780/8/1
f 781/7/1 782/5/1 783/1/1 784/8/1
f 785/1/1 786/2/1 787/3/1 788/4/1
f 789/7/1 790/5/1 791/1/1 792/8/1
f 793/1/1 794/2/1 795/3/1 796/4/1
f 797/8/1 798/1/1 799/4/1 800/9/1
f 801/7/1 802/5/1 803/1/1 804/8/1
f 805/7/1 806/5/1 807/1/1 808/8/1
f 809/1/1 810/2/1 811/3/1 812/4/1
f 813/8/1 814/1/1 815/4/1 816/9/1
f 817/5/1 818/6/1 819/2/1 820/1/1
f 821/5/1 822/6/1 823/2/1 824/1/1
f 825/1/1 826/2/1 827/3/1 828/4/1
f 829/8/1 830/1/1 831/4/1 832/9/1
f 833/7/1 834/5/1 835/1/1 836/8/1
f 837/7/1 838/5/1 839/1/1 840/8/1
f 841/7/1 842/5/1 843/1/1 844/8/1
f 845/8/1 846/1/1 847/4/1 848/9/1
f 849/8/1 850/1/1 851/4/1 852/9/1
f 853/7/1 854/5/1 855/1/1 856/8/1
f 857/5/1 858/6/1 859/2/1 860/1/1
f 861/5/1 862/6/1 863/2/1 864/1/1
f 865/5/1 866/6/1 867/2/1 868/1/1
f 869/8/1 870/1/1 871/4/1 872/9/1
f 873/7/1 874/5/1 875/1/1 876/8/1
f 877/7/1 878/5/1 879/1/1 880/8/1
f 881/1/1 882/2/1 883/3/1 884/4/1
f 885/7/1 886/5/1 887/1/1 888/8/1
f 889/7/1 890/5/1 891/1/1 892/8/1
f 893/5/1 894/6/1 895/2/1 896/1/1
f 897/7/1 898/5/1 899/1/1 900/8/1
f 901/5/1 902/6/1 903/2/1 904/1/1
f 905/5/1 906/6/1 907/2/1 908/1/1
f 909/7/1 910/5/1 911/1/1 912/8/1
f 913/1/1 914/2/1 915/3/1 916/4/1
f 917/8/1 918/1/1 919/4/1 920/9/1
f 921/7/1 922/5/1 923/1/1 924/8/1
f 925/8/1 926/1/1 927/4/1 928/9/1
f 929/8/1 930/1/1 931/4/1 932/9/1
f 933/7/1 934/5/1 935/1/1 936/8/1
f 937/8/1 938/1/1 939/4/1 940/9/1
f 941/7/1 942/5/1 943/1/1 944/8/1
f 945/1/1 946/2/1 947/3/1 948/4/1
f 949/1/1 950/2/1 951/3/1 952/4/1
f 953/5/1 954/6/1 955/2/1 956/1/1
f 957/8/1 958/1/1 959/4/1 960/9/1
f 961/8/1 962/1/1 963/4/1 964/9/1
f 965/5/1 966/6/1 967/2/1 968/1/1
f 969/5/1 970/6/1 971/2/1 972/1/1
f 973/5/1 974/6/1 975/2/1 976/1/1
f 977/7/1 978/5/1 979/1/1 980/8/1
f 981/5/1 982/6/1 983/2/1 984/1/1
f 985/7/1 986/5/1 987/1/1 988/8/1
f 989/5/1 990/6/1 991/2/1 992/1/1
f 993/7/1 994/5/1 995/1/1 996/8/1
f 997/7/1 998/5/1 999/1/1 1000/8/1
f 1001/7/1 1002/5/1 1003/1/1 1004/8/1
f 1005/8/1 1006/1/1 1007/4/1 1008/9/1
f 1009/1/1 1010/2/1 1011/3/1 1012/4/1
f 1013/8/1 1014/1/1 1015/4/1 1016/9/1
f 1017/1/1 1018/2/1 1019/3/1 1020/4/1
f 1021/1/1 1022/2/1 1023/3/1 1024/4/1

