# Tiled2Unity generated file. Do not modify by hand.
# Wavefront file for 'Village_mesh_0012.obj'

# Vertices (Count = 1024)
v -240 -16 0
v -256 -16 0
v -256 0 0
v -240 0 0
v -224 -16 0
v -240 -16 0
v -240 0 0
v -224 0 0
v -208 -16 0
v -224 -16 0
v -224 0 0
v -208 0 0
v -192 -16 0
v -208 -16 0
v -208 0 0
v -192 0 0
v -176 -16 0
v -192 -16 0
v -192 0 0
v -176 0 0
v -160 -16 0
v -176 -16 0
v -176 0 0
v -160 0 0
v -144 -16 0
v -160 -16 0
v -160 0 0
v -144 0 0
v -128 -16 0
v -144 -16 0
v -144 0 0
v -128 0 0
v -112 -16 0
v -128 -16 0
v -128 0 0
v -112 0 0
v -96 -16 0
v -112 -16 0
v -112 0 0
v -96 0 0
v -80 -16 0
v -96 -16 0
v -96 0 0
v -80 0 0
v -64 -16 0
v -80 -16 0
v -80 0 0
v -64 0 0
v -48 -16 0
v -64 -16 0
v -64 0 0
v -48 0 0
v -32 -16 0
v -48 -16 0
v -48 0 0
v -32 0 0
v -16 -16 0
v -32 -16 0
v -32 0 0
v -16 0 0
v 0 -16 0
v -16 -16 0
v -16 0 0
v 0 0 0
v -240 -32 0
v -256 -32 0
v -256 -16 0
v -240 -16 0
v -224 -32 0
v -240 -32 0
v -240 -16 0
v -224 -16 0
v -208 -32 0
v -224 -32 0
v -224 -16 0
v -208 -16 0
v -192 -32 0
v -208 -32 0
v -208 -16 0
v -192 -16 0
v -176 -32 0
v -192 -32 0
v -192 -16 0
v -176 -16 0
v -160 -32 0
v -176 -32 0
v -176 -16 0
v -160 -16 0
v -144 -32 0
v -160 -32 0
v -160 -16 0
v -144 -16 0
v -128 -32 0
v -144 -32 0
v -144 -16 0
v -128 -16 0
v -112 -32 0
v -128 -32 0
v -128 -16 0
v -112 -16 0
v -96 -32 0
v -112 -32 0
v -112 -16 0
v -96 -16 0
v -80 -32 0
v -96 -32 0
v -96 -16 0
v -80 -16 0
v -64 -32 0
v -80 -32 0
v -80 -16 0
v -64 -16 0
v -48 -32 0
v -64 -32 0
v -64 -16 0
v -48 -16 0
v -32 -32 0
v -48 -32 0
v -48 -16 0
v -32 -16 0
v -16 -32 0
v -32 -32 0
v -32 -16 0
v -16 -16 0
v 0 -32 0
v -16 -32 0
v -16 -16 0
v 0 -16 0
v -240 -48 0
v -256 -48 0
v -256 -32 0
v -240 -32 0
v -224 -48 0
v -240 -48 0
v -240 -32 0
v -224 -32 0
v -208 -48 0
v -224 -48 0
v -224 -32 0
v -208 -32 0
v -192 -48 0
v -208 -48 0
v -208 -32 0
v -192 -32 0
v -176 -48 0
v -192 -48 0
v -192 -32 0
v -176 -32 0
v -160 -48 0
v -176 -48 0
v -176 -32 0
v -160 -32 0
v -144 -48 0
v -160 -48 0
v -160 -32 0
v -144 -32 0
v -128 -48 0
v -144 -48 0
v -144 -32 0
v -128 -32 0
v -112 -48 0
v -128 -48 0
v -128 -32 0
v -112 -32 0
v -96 -48 0
v -112 -48 0
v -112 -32 0
v -96 -32 0
v -80 -48 0
v -96 -48 0
v -96 -32 0
v -80 -32 0
v -64 -48 0
v -80 -48 0
v -80 -32 0
v -64 -32 0
v -48 -48 0
v -64 -48 0
v -64 -32 0
v -48 -32 0
v -32 -48 0
v -48 -48 0
v -48 -32 0
v -32 -32 0
v -16 -48 0
v -32 -48 0
v -32 -32 0
v -16 -32 0
v 0 -48 0
v -16 -48 0
v -16 -32 0
v 0 -32 0
v -240 -64 0
v -256 -64 0
v -256 -48 0
v -240 -48 0
v -224 -64 0
v -240 -64 0
v -240 -48 0
v -224 -48 0
v -208 -64 0
v -224 -64 0
v -224 -48 0
v -208 -48 0
v -192 -64 0
v -208 -64 0
v -208 -48 0
v -192 -48 0
v -176 -64 0
v -192 -64 0
v -192 -48 0
v -176 -48 0
v -160 -64 0
v -176 -64 0
v -176 -48 0
v -160 -48 0
v -144 -64 0
v -160 -64 0
v -160 -48 0
v -144 -48 0
v -128 -64 0
v -144 -64 0
v -144 -48 0
v -128 -48 0
v -112 -64 0
v -128 -64 0
v -128 -48 0
v -112 -48 0
v -96 -64 0
v -112 -64 0
v -112 -48 0
v -96 -48 0
v -80 -64 0
v -96 -64 0
v -96 -48 0
v -80 -48 0
v -64 -64 0
v -80 -64 0
v -80 -48 0
v -64 -48 0
v -48 -64 0
v -64 -64 0
v -64 -48 0
v -48 -48 0
v -32 -64 0
v -48 -64 0
v -48 -48 0
v -32 -48 0
v -16 -64 0
v -32 -64 0
v -32 -48 0
v -16 -48 0
v 0 -64 0
v -16 -64 0
v -16 -48 0
v 0 -48 0
v -240 -80 0
v -256 -80 0
v -256 -64 0
v -240 -64 0
v -224 -80 0
v -240 -80 0
v -240 -64 0
v -224 -64 0
v -208 -80 0
v -224 -80 0
v -224 -64 0
v -208 -64 0
v -192 -80 0
v -208 -80 0
v -208 -64 0
v -192 -64 0
v -176 -80 0
v -192 -80 0
v -192 -64 0
v -176 -64 0
v -160 -80 0
v -176 -80 0
v -176 -64 0
v -160 -64 0
v -144 -80 0
v -160 -80 0
v -160 -64 0
v -144 -64 0
v -128 -80 0
v -144 -80 0
v -144 -64 0
v -128 -64 0
v -112 -80 0
v -128 -80 0
v -128 -64 0
v -112 -64 0
v -96 -80 0
v -112 -80 0
v -112 -64 0
v -96 -64 0
v -80 -80 0
v -96 -80 0
v -96 -64 0
v -80 -64 0
v -64 -80 0
v -80 -80 0
v -80 -64 0
v -64 -64 0
v -48 -80 0
v -64 -80 0
v -64 -64 0
v -48 -64 0
v -32 -80 0
v -48 -80 0
v -48 -64 0
v -32 -64 0
v -16 -80 0
v -32 -80 0
v -32 -64 0
v -16 -64 0
v 0 -80 0
v -16 -80 0
v -16 -64 0
v 0 -64 0
v -240 -96 0
v -256 -96 0
v -256 -80 0
v -240 -80 0
v -224 -96 0
v -240 -96 0
v -240 -80 0
v -224 -80 0
v -208 -96 0
v -224 -96 0
v -224 -80 0
v -208 -80 0
v -192 -96 0
v -208 -96 0
v -208 -80 0
v -192 -80 0
v -176 -96 0
v -192 -96 0
v -192 -80 0
v -176 -80 0
v -160 -96 0
v -176 -96 0
v -176 -80 0
v -160 -80 0
v -144 -96 0
v -160 -96 0
v -160 -80 0
v -144 -80 0
v -128 -96 0
v -144 -96 0
v -144 -80 0
v -128 -80 0
v -112 -96 0
v -128 -96 0
v -128 -80 0
v -112 -80 0
v -96 -96 0
v -112 -96 0
v -112 -80 0
v -96 -80 0
v -80 -96 0
v -96 -96 0
v -96 -80 0
v -80 -80 0
v -64 -96 0
v -80 -96 0
v -80 -80 0
v -64 -80 0
v -48 -96 0
v -64 -96 0
v -64 -80 0
v -48 -80 0
v -32 -96 0
v -48 -96 0
v -48 -80 0
v -32 -80 0
v -16 -96 0
v -32 -96 0
v -32 -80 0
v -16 -80 0
v 0 -96 0
v -16 -96 0
v -16 -80 0
v 0 -80 0
v -240 -112 0
v -256 -112 0
v -256 -96 0
v -240 -96 0
v -224 -112 0
v -240 -112 0
v -240 -96 0
v -224 -96 0
v -208 -112 0
v -224 -112 0
v -224 -96 0
v -208 -96 0
v -192 -112 0
v -208 -112 0
v -208 -96 0
v -192 -96 0
v -176 -112 0
v -192 -112 0
v -192 -96 0
v -176 -96 0
v -160 -112 0
v -176 -112 0
v -176 -96 0
v -160 -96 0
v -144 -112 0
v -160 -112 0
v -160 -96 0
v -144 -96 0
v -128 -112 0
v -144 -112 0
v -144 -96 0
v -128 -96 0
v -112 -112 0
v -128 -112 0
v -128 -96 0
v -112 -96 0
v -96 -112 0
v -112 -112 0
v -112 -96 0
v -96 -96 0
v -80 -112 0
v -96 -112 0
v -96 -96 0
v -80 -96 0
v -64 -112 0
v -80 -112 0
v -80 -96 0
v -64 -96 0
v -48 -112 0
v -64 -112 0
v -64 -96 0
v -48 -96 0
v -32 -112 0
v -48 -112 0
v -48 -96 0
v -32 -96 0
v -16 -112 0
v -32 -112 0
v -32 -96 0
v -16 -96 0
v 0 -112 0
v -16 -112 0
v -16 -96 0
v 0 -96 0
v -240 -128 0
v -256 -128 0
v -256 -112 0
v -240 -112 0
v -224 -128 0
v -240 -128 0
v -240 -112 0
v -224 -112 0
v -208 -128 0
v -224 -128 0
v -224 -112 0
v -208 -112 0
v -192 -128 0
v -208 -128 0
v -208 -112 0
v -192 -112 0
v -176 -128 0
v -192 -128 0
v -192 -112 0
v -176 -112 0
v -160 -128 0
v -176 -128 0
v -176 -112 0
v -160 -112 0
v -144 -128 0
v -160 -128 0
v -160 -112 0
v -144 -112 0
v -128 -128 0
v -144 -128 0
v -144 -112 0
v -128 -112 0
v -112 -128 0
v -128 -128 0
v -128 -112 0
v -112 -112 0
v -96 -128 0
v -112 -128 0
v -112 -112 0
v -96 -112 0
v -80 -128 0
v -96 -128 0
v -96 -112 0
v -80 -112 0
v -64 -128 0
v -80 -128 0
v -80 -112 0
v -64 -112 0
v -48 -128 0
v -64 -128 0
v -64 -112 0
v -48 -112 0
v -32 -128 0
v -48 -128 0
v -48 -112 0
v -32 -112 0
v -16 -128 0
v -32 -128 0
v -32 -112 0
v -16 -112 0
v 0 -128 0
v -16 -128 0
v -16 -112 0
v 0 -112 0
v -240 -144 0
v -256 -144 0
v -256 -128 0
v -240 -128 0
v -224 -144 0
v -240 -144 0
v -240 -128 0
v -224 -128 0
v -208 -144 0
v -224 -144 0
v -224 -128 0
v -208 -128 0
v -192 -144 0
v -208 -144 0
v -208 -128 0
v -192 -128 0
v -176 -144 0
v -192 -144 0
v -192 -128 0
v -176 -128 0
v -160 -144 0
v -176 -144 0
v -176 -128 0
v -160 -128 0
v -144 -144 0
v -160 -144 0
v -160 -128 0
v -144 -128 0
v -128 -144 0
v -144 -144 0
v -144 -128 0
v -128 -128 0
v -112 -144 0
v -128 -144 0
v -128 -128 0
v -112 -128 0
v -96 -144 0
v -112 -144 0
v -112 -128 0
v -96 -128 0
v -80 -144 0
v -96 -144 0
v -96 -128 0
v -80 -128 0
v -64 -144 0
v -80 -144 0
v -80 -128 0
v -64 -128 0
v -48 -144 0
v -64 -144 0
v -64 -128 0
v -48 -128 0
v -32 -144 0
v -48 -144 0
v -48 -128 0
v -32 -128 0
v -16 -144 0
v -32 -144 0
v -32 -128 0
v -16 -128 0
v 0 -144 0
v -16 -144 0
v -16 -128 0
v 0 -128 0
v -240 -160 0
v -256 -160 0
v -256 -144 0
v -240 -144 0
v -224 -160 0
v -240 -160 0
v -240 -144 0
v -224 -144 0
v -208 -160 0
v -224 -160 0
v -224 -144 0
v -208 -144 0
v -192 -160 0
v -208 -160 0
v -208 -144 0
v -192 -144 0
v -176 -160 0
v -192 -160 0
v -192 -144 0
v -176 -144 0
v -160 -160 0
v -176 -160 0
v -176 -144 0
v -160 -144 0
v -144 -160 0
v -160 -160 0
v -160 -144 0
v -144 -144 0
v -128 -160 0
v -144 -160 0
v -144 -144 0
v -128 -144 0
v -112 -160 0
v -128 -160 0
v -128 -144 0
v -112 -144 0
v -96 -160 0
v -112 -160 0
v -112 -144 0
v -96 -144 0
v -80 -160 0
v -96 -160 0
v -96 -144 0
v -80 -144 0
v -64 -160 0
v -80 -160 0
v -80 -144 0
v -64 -144 0
v -48 -160 0
v -64 -160 0
v -64 -144 0
v -48 -144 0
v -32 -160 0
v -48 -160 0
v -48 -144 0
v -32 -144 0
v -16 -160 0
v -32 -160 0
v -32 -144 0
v -16 -144 0
v 0 -160 0
v -16 -160 0
v -16 -144 0
v 0 -144 0
v -240 -176 0
v -256 -176 0
v -256 -160 0
v -240 -160 0
v -224 -176 0
v -240 -176 0
v -240 -160 0
v -224 -160 0
v -208 -176 0
v -224 -176 0
v -224 -160 0
v -208 -160 0
v -192 -176 0
v -208 -176 0
v -208 -160 0
v -192 -160 0
v -176 -176 0
v -192 -176 0
v -192 -160 0
v -176 -160 0
v -160 -176 0
v -176 -176 0
v -176 -160 0
v -160 -160 0
v -144 -176 0
v -160 -176 0
v -160 -160 0
v -144 -160 0
v -128 -176 0
v -144 -176 0
v -144 -160 0
v -128 -160 0
v -112 -176 0
v -128 -176 0
v -128 -160 0
v -112 -160 0
v -96 -176 0
v -112 -176 0
v -112 -160 0
v -96 -160 0
v -80 -176 0
v -96 -176 0
v -96 -160 0
v -80 -160 0
v -64 -176 0
v -80 -176 0
v -80 -160 0
v -64 -160 0
v -48 -176 0
v -64 -176 0
v -64 -160 0
v -48 -160 0
v -32 -176 0
v -48 -176 0
v -48 -160 0
v -32 -160 0
v -16 -176 0
v -32 -176 0
v -32 -160 0
v -16 -160 0
v 0 -176 0
v -16 -176 0
v -16 -160 0
v 0 -160 0
v -240 -192 0
v -256 -192 0
v -256 -176 0
v -240 -176 0
v -224 -192 0
v -240 -192 0
v -240 -176 0
v -224 -176 0
v -208 -192 0
v -224 -192 0
v -224 -176 0
v -208 -176 0
v -192 -192 0
v -208 -192 0
v -208 -176 0
v -192 -176 0
v -176 -192 0
v -192 -192 0
v -192 -176 0
v -176 -176 0
v -160 -192 0
v -176 -192 0
v -176 -176 0
v -160 -176 0
v -144 -192 0
v -160 -192 0
v -160 -176 0
v -144 -176 0
v -128 -192 0
v -144 -192 0
v -144 -176 0
v -128 -176 0
v -112 -192 0
v -128 -192 0
v -128 -176 0
v -112 -176 0
v -96 -192 0
v -112 -192 0
v -112 -176 0
v -96 -176 0
v -80 -192 0
v -96 -192 0
v -96 -176 0
v -80 -176 0
v -64 -192 0
v -80 -192 0
v -80 -176 0
v -64 -176 0
v -48 -192 0
v -64 -192 0
v -64 -176 0
v -48 -176 0
v -32 -192 0
v -48 -192 0
v -48 -176 0
v -32 -176 0
v -16 -192 0
v -32 -192 0
v -32 -176 0
v -16 -176 0
v 0 -192 0
v -16 -192 0
v -16 -176 0
v 0 -176 0
v -240 -208 0
v -256 -208 0
v -256 -192 0
v -240 -192 0
v -224 -208 0
v -240 -208 0
v -240 -192 0
v -224 -192 0
v -208 -208 0
v -224 -208 0
v -224 -192 0
v -208 -192 0
v -192 -208 0
v -208 -208 0
v -208 -192 0
v -192 -192 0
v -176 -208 0
v -192 -208 0
v -192 -192 0
v -176 -192 0
v -160 -208 0
v -176 -208 0
v -176 -192 0
v -160 -192 0
v -144 -208 0
v -160 -208 0
v -160 -192 0
v -144 -192 0
v -128 -208 0
v -144 -208 0
v -144 -192 0
v -128 -192 0
v -112 -208 0
v -128 -208 0
v -128 -192 0
v -112 -192 0
v -96 -208 0
v -112 -208 0
v -112 -192 0
v -96 -192 0
v -80 -208 0
v -96 -208 0
v -96 -192 0
v -80 -192 0
v -64 -208 0
v -80 -208 0
v -80 -192 0
v -64 -192 0
v -48 -208 0
v -64 -208 0
v -64 -192 0
v -48 -192 0
v -32 -208 0
v -48 -208 0
v -48 -192 0
v -32 -192 0
v -16 -208 0
v -32 -208 0
v -32 -192 0
v -16 -192 0
v 0 -208 0
v -16 -208 0
v -16 -192 0
v 0 -192 0
v -240 -224 0
v -256 -224 0
v -256 -208 0
v -240 -208 0
v -224 -224 0
v -240 -224 0
v -240 -208 0
v -224 -208 0
v -208 -224 0
v -224 -224 0
v -224 -208 0
v -208 -208 0
v -192 -224 0
v -208 -224 0
v -208 -208 0
v -192 -208 0
v -176 -224 0
v -192 -224 0
v -192 -208 0
v -176 -208 0
v -160 -224 0
v -176 -224 0
v -176 -208 0
v -160 -208 0
v -144 -224 0
v -160 -224 0
v -160 -208 0
v -144 -208 0
v -128 -224 0
v -144 -224 0
v -144 -208 0
v -128 -208 0
v -112 -224 0
v -128 -224 0
v -128 -208 0
v -112 -208 0
v -96 -224 0
v -112 -224 0
v -112 -208 0
v -96 -208 0
v -80 -224 0
v -96 -224 0
v -96 -208 0
v -80 -208 0
v -64 -224 0
v -80 -224 0
v -80 -208 0
v -64 -208 0
v -48 -224 0
v -64 -224 0
v -64 -208 0
v -48 -208 0
v -32 -224 0
v -48 -224 0
v -48 -208 0
v -32 -208 0
v -16 -224 0
v -32 -224 0
v -32 -208 0
v -16 -208 0
v 0 -224 0
v -16 -224 0
v -16 -208 0
v 0 -208 0
v -240 -240 0
v -256 -240 0
v -256 -224 0
v -240 -224 0
v -224 -240 0
v -240 -240 0
v -240 -224 0
v -224 -224 0
v -208 -240 0
v -224 -240 0
v -224 -224 0
v -208 -224 0
v -192 -240 0
v -208 -240 0
v -208 -224 0
v -192 -224 0
v -176 -240 0
v -192 -240 0
v -192 -224 0
v -176 -224 0
v -160 -240 0
v -176 -240 0
v -176 -224 0
v -160 -224 0
v -144 -240 0
v -160 -240 0
v -160 -224 0
v -144 -224 0
v -128 -240 0
v -144 -240 0
v -144 -224 0
v -128 -224 0
v -112 -240 0
v -128 -240 0
v -128 -224 0
v -112 -224 0
v -96 -240 0
v -112 -240 0
v -112 -224 0
v -96 -224 0
v -80 -240 0
v -96 -240 0
v -96 -224 0
v -80 -224 0
v -64 -240 0
v -80 -240 0
v -80 -224 0
v -64 -224 0
v -48 -240 0
v -64 -240 0
v -64 -224 0
v -48 -224 0
v -32 -240 0
v -48 -240 0
v -48 -224 0
v -32 -224 0
v -16 -240 0
v -32 -240 0
v -32 -224 0
v -16 -224 0
v 0 -240 0
v -16 -240 0
v -16 -224 0
v 0 -224 0
v -240 -256 0
v -256 -256 0
v -256 -240 0
v -240 -240 0
v -224 -256 0
v -240 -256 0
v -240 -240 0
v -224 -240 0
v -208 -256 0
v -224 -256 0
v -224 -240 0
v -208 -240 0
v -192 -256 0
v -208 -256 0
v -208 -240 0
v -192 -240 0
v -176 -256 0
v -192 -256 0
v -192 -240 0
v -176 -240 0
v -160 -256 0
v -176 -256 0
v -176 -240 0
v -160 -240 0
v -144 -256 0
v -160 -256 0
v -160 -240 0
v -144 -240 0
v -128 -256 0
v -144 -256 0
v -144 -240 0
v -128 -240 0
v -112 -256 0
v -128 -256 0
v -128 -240 0
v -112 -240 0
v -96 -256 0
v -112 -256 0
v -112 -240 0
v -96 -240 0
v -80 -256 0
v -96 -256 0
v -96 -240 0
v -80 -240 0
v -64 -256 0
v -80 -256 0
v -80 -240 0
v -64 -240 0
v -48 -256 0
v -64 -256 0
v -64 -240 0
v -48 -240 0
v -32 -256 0
v -48 -256 0
v -48 -240 0
v -32 -240 0
v -16 -256 0
v -32 -256 0
v -32 -240 0
v -16 -240 0
v 0 -256 0
v -16 -256 0
v -16 -240 0
v 0 -240 0

# Texture cooridinates (Count = 9)
vt 0.175 0.7222222
vt 0.2 0.7222222
vt 0.2 0.75
vt 0.175 0.75
vt 0.2 0.6944444
vt 0.225 0.6944444
vt 0.225 0.7222222
vt 0.225 0.75
vt 0.175 0.6944444

# Normal
vn 0 0 -1

# Mesh description
g Village_mesh_0012

# Faces
f 1/1/1 2/2/1 3/3/1 4/4/1
f 5/5/1 6/6/1 7/7/1 8/2/1
f 9/2/1 10/7/1 11/8/1 12/3/1
f 13/9/1 14/5/1 15/2/1 16/1/1
f 17/9/1 18/5/1 19/2/1 20/1/1
f 21/9/1 22/5/1 23/2/1 24/1/1
f 25/2/1 26/7/1 27/8/1 28/3/1
f 29/2/1 30/7/1 31/8/1 32/3/1
f 33/1/1 34/2/1 35/3/1 36/4/1
f 37/1/1 38/2/1 39/3/1 40/4/1
f 41/2/1 42/7/1 43/8/1 44/3/1
f 45/9/1 46/5/1 47/2/1 48/1/1
f 49/9/1 50/5/1 51/2/1 52/1/1
f 53/9/1 54/5/1 55/2/1 56/1/1
f 57/1/1 58/2/1 59/3/1 60/4/1
f 61/9/1 62/5/1 63/2/1 64/1/1
f 65/1/1 66/2/1 67/3/1 68/4/1
f 69/1/1 70/2/1 71/3/1 72/4/1
f 73/5/1 74/6/1 75/7/1 76/2/1
f 77/5/1 78/6/1 79/7/1 80/2/1
f 81/2/1 82/7/1 83/8/1 84/3/1
f 85/5/1 86/6/1 87/7/1 88/2/1
f 89/2/1 90/7/1 91/8/1 92/3/1
f 93/5/1 94/6/1 95/7/1 96/2/1
f 97/2/1 98/7/1 99/8/1 100/3/1
f 101/1/1 102/2/1 103/3/1 104/4/1
f 105/9/1 106/5/1 107/2/1 108/1/1
f 109/1/1 110/2/1 111/3/1 112/4/1
f 113/2/1 114/7/1 115/8/1 116/3/1
f 117/9/1 118/5/1 119/2/1 120/1/1
f 121/1/1 122/2/1 123/3/1 124/4/1
f 125/5/1 126/6/1 127/7/1 128/2/1
f 129/2/1 130/7/1 131/8/1 132/3/1
f 133/2/1 134/7/1 135/8/1 136/3/1
f 137/9/1 138/5/1 139/2/1 140/1/1
f 141/5/1 142/6/1 143/7/1 144/2/1
f 145/1/1 146/2/1 147/3/1 148/4/1
f 149/1/1 150/2/1 151/3/1 152/4/1
f 153/1/1 154/2/1 155/3/1 156/4/1
f 157/2/1 158/7/1 159/8/1 160/3/1
f 161/2/1 162/7/1 163/8/1 164/3/1
f 165/9/1 166/5/1 167/2/1 168/1/1
f 169/1/1 170/2/1 171/3/1 172/4/1
f 173/5/1 174/6/1 175/7/1 176/2/1
f 177/2/1 178/7/1 179/8/1 180/3/1
f 181/2/1 182/7/1 183/8/1 184/3/1
f 185/9/1 186/5/1 187/2/1 188/1/1
f 189/1/1 190/2/1 191/3/1 192/4/1
f 193/2/1 194/7/1 195/8/1 196/3/1
f 197/9/1 198/5/1 199/2/1 200/1/1
f 201/9/1 202/5/1 203/2/1 204/1/1
f 205/9/1 206/5/1 207/2/1 208/1/1
f 209/2/1 210/7/1 211/8/1 212/3/1
f 213/5/1 214/6/1 215/7/1 216/2/1
f 217/2/1 218/7/1 219/8/1 220/3/1
f 221/5/1 222/6/1 223/7/1 224/2/1
f 225/2/1 226/7/1 227/8/1 228/3/1
f 229/9/1 230/5/1 231/2/1 232/1/1
f 233/2/1 234/7/1 235/8/1 236/3/1
f 237/2/1 238/7/1 239/8/1 240/3/1
f 241/2/1 242/7/1 243/8/1 244/3/1
f 245/2/1 246/7/1 247/8/1 248/3/1
f 249/2/1 250/7/1 251/8/1 252/3/1
f 253/2/1 254/7/1 255/8/1 256/3/1
f 257/1/1 258/2/1 259/3/1 260/4/1
f 261/5/1 262/6/1 263/7/1 264/2/1
f 265/1/1 266/2/1 267/3/1 268/4/1
f 269/5/1 270/6/1 271/7/1 272/2/1
f 273/1/1 274/2/1 275/3/1 276/4/1
f 277/5/1 278/6/1 279/7/1 280/2/1
f 281/5/1 282/6/1 283/7/1 284/2/1
f 285/1/1 286/2/1 287/3/1 288/4/1
f 289/2/1 290/7/1 291/8/1 292/3/1
f 293/5/1 294/6/1 295/7/1 296/2/1
f 297/9/1 298/5/1 299/2/1 300/1/1
f 301/2/1 302/7/1 303/8/1 304/3/1
f 305/2/1 306/7/1 307/8/1 308/3/1
f 309/9/1 310/5/1 311/2/1 312/1/1
f 313/5/1 314/6/1 315/7/1 316/2/1
f 317/1/1 318/2/1 319/3/1 320/4/1
f 321/9/1 322/5/1 323/2/1 324/1/1
f 325/5/1 326/6/1 327/7/1 328/2/1
f 329/5/1 330/6/1 331/7/1 332/2/1
f 333/9/1 334/5/1 335/2/1 336/1/1
f 337/2/1 338/7/1 339/8/1 340/3/1
f 341/5/1 342/6/1 343/7/1 344/2/1
f 345/1/1 346/2/1 347/3/1 348/4/1
f 349/1/1 350/2/1 351/3/1 352/4/1
f 353/2/1 354/7/1 355/8/1 356/3/1
f 357/2/1 358/7/1 359/8/1 360/3/1
f 361/5/1 362/6/1 363/7/1 364/2/1
f 365/1/1 366/2/1 367/3/1 368/4/1
f 369/2/1 370/7/1 371/8/1 372/3/1
f 373/9/1 374/5/1 375/2/1 376/1/1
f 377/1/1 378/2/1 379/3/1 380/4/1
f 381/1/1 382/2/1 383/3/1 384/4/1
f 385/9/1 386/5/1 387/2/1 388/1/1
f 389/2/1 390/7/1 391/8/1 392/3/1
f 393/9/1 394/5/1 395/2/1 396/1/1
f 397/2/1 398/7/1 399/8/1 400/3/1
f 401/1/1 402/2/1 403/3/1 404/4/1
f 405/9/1 406/5/1 407/2/1 408/1/1
f 409/9/1 410/5/1 411/2/1 412/1/1
f 413/9/1 414/5/1 415/2/1 416/1/1
f 417/2/1 418/7/1 419/8/1 420/3/1
f 421/1/1 422/2/1 423/3/1 424/4/1
f 425/5/1 426/6/1 427/7/1 428/2/1
f 429/9/1 430/5/1 431/2/1 432/1/1
f 433/1/1 434/2/1 435/3/1 436/4/1
f 437/9/1 438/5/1 439/2/1 440/1/1
f 441/5/1 442/6/1 443/7/1 444/2/1
f 445/2/1 446/7/1 447/8/1 448/3/1
f 449/2/1 450/7/1 451/8/1 452/3/1
f 453/5/1 454/6/1 455/7/1 456/2/1
f 457/5/1 458/6/1 459/7/1 460/2/1
f 461/2/1 462/7/1 463/8/1 464/3/1
f 465/1/1 466/2/1 467/3/1 468/4/1
f 469/1/1 470/2/1 471/3/1 472/4/1
f 473/9/1 474/5/1 475/2/1 476/1/1
f 477/9/1 478/5/1 479/2/1 480/1/1
f 481/9/1 482/5/1 483/2/1 484/1/1
f 485/5/1 486/6/1 487/7/1 488/2/1
f 489/2/1 490/7/1 491/8/1 492/3/1
f 493/2/1 494/7/1 495/8/1 496/3/1
f 497/1/1 498/2/1 499/3/1 500/4/1
f 501/5/1 502/6/1 503/7/1 504/2/1
f 505/2/1 506/7/1 507/8/1 508/3/1
f 509/2/1 510/7/1 511/8/1 512/3/1
f 513/5/1 514/6/1 515/7/1 516/2/1
f 517/2/1 518/7/1 519/8/1 520/3/1
f 521/2/1 522/7/1 523/8/1 524/3/1
f 525/2/1 526/7/1 527/8/1 528/3/1
f 529/9/1 530/5/1 531/2/1 532/1/1
f 533/5/1 534/6/1 535/7/1 536/2/1
f 537/2/1 538/7/1 539/8/1 540/3/1
f 541/2/1 542/7/1 543/8/1 544/3/1
f 545/5/1 546/6/1 547/7/1 548/2/1
f 549/1/1 550/2/1 551/3/1 552/4/1
f 553/1/1 554/2/1 555/3/1 556/4/1
f 557/5/1 558/6/1 559/7/1 560/2/1
f 561/1/1 562/2/1 563/3/1 564/4/1
f 565/2/1 566/7/1 567/8/1 568/3/1
f 569/1/1 570/2/1 571/3/1 572/4/1
f 573/2/1 574/7/1 575/8/1 576/3/1
f 577/5/1 578/6/1 579/7/1 580/2/1
f 581/1/1 582/2/1 583/3/1 584/4/1
f 585/2/1 586/7/1 587/8/1 588/3/1
f 589/9/1 590/5/1 591/2/1 592/1/1
f 593/2/1 594/7/1 595/8/1 596/3/1
f 597/1/1 598/2/1 599/3/1 600/4/1
f 601/1/1 602/2/1 603/3/1 604/4/1
f 605/9/1 606/5/1 607/2/1 608/1/1
f 609/2/1 610/7/1 611/8/1 612/3/1
f 613/5/1 614/6/1 615/7/1 616/2/1
f 617/1/1 618/2/1 619/3/1 620/4/1
f 621/9/1 622/5/1 623/2/1 624/1/1
f 625/9/1 626/5/1 627/2/1 628/1/1
f 629/1/1 630/2/1 631/3/1 632/4/1
f 633/2/1 634/7/1 635/8/1 636/3/1
f 637/2/1 638/7/1 639/8/1 640/3/1
f 641/2/1 642/7/1 643/8/1 644/3/1
f 645/2/1 646/7/1 647/8/1 648/3/1
f 649/9/1 650/5/1 651/2/1 652/1/1
f 653/2/1 654/7/1 655/8/1 656/3/1
f 657/5/1 658/6/1 659/7/1 660/2/1
f 661/9/1 662/5/1 663/2/1 664/1/1
f 665/1/1 666/2/1 667/3/1 668/4/1
f 669/2/1 670/7/1 671/8/1 672/3/1
f 673/9/1 674/5/1 675/2/1 676/1/1
f 677/2/1 678/7/1 679/8/1 680/3/1
f 681/9/1 682/5/1 683/2/1 684/1/1
f 685/1/1 686/2/1 687/3/1 688/4/1
f 689/2/1 690/7/1 691/8/1 692/3/1
f 693/5/1 694/6/1 695/7/1 696/2/1
f 697/1/1 698/2/1 699/3/1 700/4/1
f 701/1/1 702/2/1 703/3/1 704/4/1
f 705/5/1 706/6/1 707/7/1 708/2/1
f 709/9/1 710/5/1 711/2/1 712/1/1
f 713/9/1 714/5/1 715/2/1 716/1/1
f 717/1/1 718/2/1 719/3/1 720/4/1
f 721/5/1 722/6/1 723/7/1 724/2/1
f 725/2/1 726/7/1 727/8/1 728/3/1
f 729/5/1 730/6/1 731/7/1 732/2/1
f 733/5/1 734/6/1 735/7/1 736/2/1
f 737/2/1 738/7/1 739/8/1 740/3/1
f 741/9/1 742/5/1 743/2/1 744/1/1
f 745/2/1 746/7/1 747/8/1 748/3/1
f 749/9/1 750/5/1 751/2/1 752/1/1
f 753/2/1 754/7/1 755/8/1 756/3/1
f 757/2/1 758/7/1 759/8/1 760/3/1
f 761/2/1 762/7/1 763/8/1 764/3/1
f 765/2/1 766/7/1 767/8/1 768/3/1
f 769/1/1 770/2/1 771/3/1 772/4/1
f 773/5/1 774/6/1 775/7/1 776/2/1
f 777/2/1 778/7/1 779/8/1 780/3/1
f 781/9/1 782/5/1 783/2/1 784/1/1
f 785/2/1 786/7/1 787/8/1 788/3/1
f 789/1/1 790/2/1 791/3/1 792/4/1
f 793/1/1 794/2/1 795/3/1 796/4/1
f 797/1/1 798/2/1 799/3/1 800/4/1
f 801/1/1 802/2/1 803/3/1 804/4/1
f 805/9/1 806/5/1 807/2/1 808/1/1
f 809/9/1 810/5/1 811/2/1 812/1/1
f 813/9/1 814/5/1 815/2/1 816/1/1
f 817/1/1 818/2/1 819/3/1 820/4/1
f 821/2/1 822/7/1 823/8/1 824/3/1
f 825/2/1 826/7/1 827/8/1 828/3/1
f 829/2/1 830/7/1 831/8/1 832/3/1
f 833/1/1 834/2/1 835/3/1 836/4/1
f 837/9/1 838/5/1 839/2/1 840/1/1
f 841/1/1 842/2/1 843/3/1 844/4/1
f 845/9/1 846/5/1 847/2/1 848/1/1
f 849/5/1 850/6/1 851/7/1 852/2/1
f 853/2/1 854/7/1 855/8/1 856/3/1
f 857/9/1 858/5/1 859/2/1 860/1/1
f 861/5/1 862/6/1 863/7/1 864/2/1
f 865/9/1 866/5/1 867/2/1 868/1/1
f 869/1/1 870/2/1 871/3/1 872/4/1
f 873/5/1 874/6/1 875/7/1 876/2/1
f 877/2/1 878/7/1 879/8/1 880/3/1
f 881/5/1 882/6/1 883/7/1 884/2/1
f 885/1/1 886/2/1 887/3/1 888/4/1
f 889/1/1 890/2/1 891/3/1 892/4/1
f 893/5/1 894/6/1 895/7/1 896/2/1
f 897/5/1 898/6/1 899/7/1 900/2/1
f 901/5/1 902/6/1 903/7/1 904/2/1
f 905/5/1 906/6/1 907/7/1 908/2/1
f 909/9/1 910/5/1 911/2/1 912/1/1
f 913/9/1 914/5/1 915/2/1 916/1/1
f 917/5/1 918/6/1 919/7/1 920/2/1
f 921/2/1 922/7/1 923/8/1 924/3/1
f 925/5/1 926/6/1 927/7/1 928/2/1
f 929/5/1 930/6/1 931/7/1 932/2/1
f 933/1/1 934/2/1 935/3/1 936/4/1
f 937/2/1 938/7/1 939/8/1 940/3/1
f 941/5/1 942/6/1 943/7/1 944/2/1
f 945/1/1 946/2/1 947/3/1 948/4/1
f 949/2/1 950/7/1 951/8/1 952/3/1
f 953/1/1 954/2/1 955/3/1 956/4/1
f 957/1/1 958/2/1 959/3/1 960/4/1
f 961/9/1 962/5/1 963/2/1 964/1/1
f 965/9/1 966/5/1 967/2/1 968/1/1
f 969/2/1 970/7/1 971/8/1 972/3/1
f 973/1/1 974/2/1 975/3/1 976/4/1
f 977/1/1 978/2/1 979/3/1 980/4/1
f 981/9/1 982/5/1 983/2/1 984/1/1
f 985/1/1 986/2/1 987/3/1 988/4/1
f 989/9/1 990/5/1 991/2/1 992/1/1
f 993/2/1 994/7/1 995/8/1 996/3/1
f 997/9/1 998/5/1 999/2/1 1000/1/1
f 1001/5/1 1002/6/1 1003/7/1 1004/2/1
f 1005/5/1 1006/6/1 1007/7/1 1008/2/1
f 1009/2/1 1010/7/1 1011/8/1 1012/3/1
f 1013/2/1 1014/7/1 1015/8/1 1016/3/1
f 1017/5/1 1018/6/1 1019/7/1 1020/2/1
f 1021/5/1 1022/6/1 1023/7/1 1024/2/1

