# Tiled2Unity generated file. Do not modify by hand.
# Wavefront file for 'Village_mesh_0024.obj'

# Vertices (Count = 1024)
v -240 -16 0
v -256 -16 0
v -256 0 0
v -240 0 0
v -224 -16 0
v -240 -16 0
v -240 0 0
v -224 0 0
v -208 -16 0
v -224 -16 0
v -224 0 0
v -208 0 0
v -192 -16 0
v -208 -16 0
v -208 0 0
v -192 0 0
v -176 -16 0
v -192 -16 0
v -192 0 0
v -176 0 0
v -160 -16 0
v -176 -16 0
v -176 0 0
v -160 0 0
v -144 -16 0
v -160 -16 0
v -160 0 0
v -144 0 0
v -128 -16 0
v -144 -16 0
v -144 0 0
v -128 0 0
v -112 -16 0
v -128 -16 0
v -128 0 0
v -112 0 0
v -96 -16 0
v -112 -16 0
v -112 0 0
v -96 0 0
v -80 -16 0
v -96 -16 0
v -96 0 0
v -80 0 0
v -64 -16 0
v -80 -16 0
v -80 0 0
v -64 0 0
v -48 -16 0
v -64 -16 0
v -64 0 0
v -48 0 0
v -32 -16 0
v -48 -16 0
v -48 0 0
v -32 0 0
v -16 -16 0
v -32 -16 0
v -32 0 0
v -16 0 0
v 0 -16 0
v -16 -16 0
v -16 0 0
v 0 0 0
v -240 -32 0
v -256 -32 0
v -256 -16 0
v -240 -16 0
v -224 -32 0
v -240 -32 0
v -240 -16 0
v -224 -16 0
v -208 -32 0
v -224 -32 0
v -224 -16 0
v -208 -16 0
v -192 -32 0
v -208 -32 0
v -208 -16 0
v -192 -16 0
v -176 -32 0
v -192 -32 0
v -192 -16 0
v -176 -16 0
v -160 -32 0
v -176 -32 0
v -176 -16 0
v -160 -16 0
v -144 -32 0
v -160 -32 0
v -160 -16 0
v -144 -16 0
v -128 -32 0
v -144 -32 0
v -144 -16 0
v -128 -16 0
v -112 -32 0
v -128 -32 0
v -128 -16 0
v -112 -16 0
v -96 -32 0
v -112 -32 0
v -112 -16 0
v -96 -16 0
v -80 -32 0
v -96 -32 0
v -96 -16 0
v -80 -16 0
v -64 -32 0
v -80 -32 0
v -80 -16 0
v -64 -16 0
v -48 -32 0
v -64 -32 0
v -64 -16 0
v -48 -16 0
v -32 -32 0
v -48 -32 0
v -48 -16 0
v -32 -16 0
v -16 -32 0
v -32 -32 0
v -32 -16 0
v -16 -16 0
v 0 -32 0
v -16 -32 0
v -16 -16 0
v 0 -16 0
v -240 -48 0
v -256 -48 0
v -256 -32 0
v -240 -32 0
v -224 -48 0
v -240 -48 0
v -240 -32 0
v -224 -32 0
v -208 -48 0
v -224 -48 0
v -224 -32 0
v -208 -32 0
v -192 -48 0
v -208 -48 0
v -208 -32 0
v -192 -32 0
v -176 -48 0
v -192 -48 0
v -192 -32 0
v -176 -32 0
v -160 -48 0
v -176 -48 0
v -176 -32 0
v -160 -32 0
v -144 -48 0
v -160 -48 0
v -160 -32 0
v -144 -32 0
v -128 -48 0
v -144 -48 0
v -144 -32 0
v -128 -32 0
v -112 -48 0
v -128 -48 0
v -128 -32 0
v -112 -32 0
v -96 -48 0
v -112 -48 0
v -112 -32 0
v -96 -32 0
v -80 -48 0
v -96 -48 0
v -96 -32 0
v -80 -32 0
v -64 -48 0
v -80 -48 0
v -80 -32 0
v -64 -32 0
v -48 -48 0
v -64 -48 0
v -64 -32 0
v -48 -32 0
v -32 -48 0
v -48 -48 0
v -48 -32 0
v -32 -32 0
v -16 -48 0
v -32 -48 0
v -32 -32 0
v -16 -32 0
v 0 -48 0
v -16 -48 0
v -16 -32 0
v 0 -32 0
v -240 -64 0
v -256 -64 0
v -256 -48 0
v -240 -48 0
v -224 -64 0
v -240 -64 0
v -240 -48 0
v -224 -48 0
v -208 -64 0
v -224 -64 0
v -224 -48 0
v -208 -48 0
v -192 -64 0
v -208 -64 0
v -208 -48 0
v -192 -48 0
v -176 -64 0
v -192 -64 0
v -192 -48 0
v -176 -48 0
v -160 -64 0
v -176 -64 0
v -176 -48 0
v -160 -48 0
v -144 -64 0
v -160 -64 0
v -160 -48 0
v -144 -48 0
v -128 -64 0
v -144 -64 0
v -144 -48 0
v -128 -48 0
v -112 -64 0
v -128 -64 0
v -128 -48 0
v -112 -48 0
v -96 -64 0
v -112 -64 0
v -112 -48 0
v -96 -48 0
v -80 -64 0
v -96 -64 0
v -96 -48 0
v -80 -48 0
v -64 -64 0
v -80 -64 0
v -80 -48 0
v -64 -48 0
v -48 -64 0
v -64 -64 0
v -64 -48 0
v -48 -48 0
v -32 -64 0
v -48 -64 0
v -48 -48 0
v -32 -48 0
v -16 -64 0
v -32 -64 0
v -32 -48 0
v -16 -48 0
v 0 -64 0
v -16 -64 0
v -16 -48 0
v 0 -48 0
v -240 -80 0
v -256 -80 0
v -256 -64 0
v -240 -64 0
v -224 -80 0
v -240 -80 0
v -240 -64 0
v -224 -64 0
v -208 -80 0
v -224 -80 0
v -224 -64 0
v -208 -64 0
v -192 -80 0
v -208 -80 0
v -208 -64 0
v -192 -64 0
v -176 -80 0
v -192 -80 0
v -192 -64 0
v -176 -64 0
v -160 -80 0
v -176 -80 0
v -176 -64 0
v -160 -64 0
v -144 -80 0
v -160 -80 0
v -160 -64 0
v -144 -64 0
v -128 -80 0
v -144 -80 0
v -144 -64 0
v -128 -64 0
v -112 -80 0
v -128 -80 0
v -128 -64 0
v -112 -64 0
v -96 -80 0
v -112 -80 0
v -112 -64 0
v -96 -64 0
v -80 -80 0
v -96 -80 0
v -96 -64 0
v -80 -64 0
v -64 -80 0
v -80 -80 0
v -80 -64 0
v -64 -64 0
v -48 -80 0
v -64 -80 0
v -64 -64 0
v -48 -64 0
v -32 -80 0
v -48 -80 0
v -48 -64 0
v -32 -64 0
v -16 -80 0
v -32 -80 0
v -32 -64 0
v -16 -64 0
v 0 -80 0
v -16 -80 0
v -16 -64 0
v 0 -64 0
v -240 -96 0
v -256 -96 0
v -256 -80 0
v -240 -80 0
v -224 -96 0
v -240 -96 0
v -240 -80 0
v -224 -80 0
v -208 -96 0
v -224 -96 0
v -224 -80 0
v -208 -80 0
v -192 -96 0
v -208 -96 0
v -208 -80 0
v -192 -80 0
v -176 -96 0
v -192 -96 0
v -192 -80 0
v -176 -80 0
v -160 -96 0
v -176 -96 0
v -176 -80 0
v -160 -80 0
v -144 -96 0
v -160 -96 0
v -160 -80 0
v -144 -80 0
v -128 -96 0
v -144 -96 0
v -144 -80 0
v -128 -80 0
v -112 -96 0
v -128 -96 0
v -128 -80 0
v -112 -80 0
v -96 -96 0
v -112 -96 0
v -112 -80 0
v -96 -80 0
v -80 -96 0
v -96 -96 0
v -96 -80 0
v -80 -80 0
v -64 -96 0
v -80 -96 0
v -80 -80 0
v -64 -80 0
v -48 -96 0
v -64 -96 0
v -64 -80 0
v -48 -80 0
v -32 -96 0
v -48 -96 0
v -48 -80 0
v -32 -80 0
v -16 -96 0
v -32 -96 0
v -32 -80 0
v -16 -80 0
v 0 -96 0
v -16 -96 0
v -16 -80 0
v 0 -80 0
v -240 -112 0
v -256 -112 0
v -256 -96 0
v -240 -96 0
v -224 -112 0
v -240 -112 0
v -240 -96 0
v -224 -96 0
v -208 -112 0
v -224 -112 0
v -224 -96 0
v -208 -96 0
v -192 -112 0
v -208 -112 0
v -208 -96 0
v -192 -96 0
v -176 -112 0
v -192 -112 0
v -192 -96 0
v -176 -96 0
v -160 -112 0
v -176 -112 0
v -176 -96 0
v -160 -96 0
v -144 -112 0
v -160 -112 0
v -160 -96 0
v -144 -96 0
v -128 -112 0
v -144 -112 0
v -144 -96 0
v -128 -96 0
v -112 -112 0
v -128 -112 0
v -128 -96 0
v -112 -96 0
v -96 -112 0
v -112 -112 0
v -112 -96 0
v -96 -96 0
v -80 -112 0
v -96 -112 0
v -96 -96 0
v -80 -96 0
v -64 -112 0
v -80 -112 0
v -80 -96 0
v -64 -96 0
v -48 -112 0
v -64 -112 0
v -64 -96 0
v -48 -96 0
v -32 -112 0
v -48 -112 0
v -48 -96 0
v -32 -96 0
v -16 -112 0
v -32 -112 0
v -32 -96 0
v -16 -96 0
v 0 -112 0
v -16 -112 0
v -16 -96 0
v 0 -96 0
v -240 -128 0
v -256 -128 0
v -256 -112 0
v -240 -112 0
v -224 -128 0
v -240 -128 0
v -240 -112 0
v -224 -112 0
v -208 -128 0
v -224 -128 0
v -224 -112 0
v -208 -112 0
v -192 -128 0
v -208 -128 0
v -208 -112 0
v -192 -112 0
v -176 -128 0
v -192 -128 0
v -192 -112 0
v -176 -112 0
v -160 -128 0
v -176 -128 0
v -176 -112 0
v -160 -112 0
v -144 -128 0
v -160 -128 0
v -160 -112 0
v -144 -112 0
v -128 -128 0
v -144 -128 0
v -144 -112 0
v -128 -112 0
v -112 -128 0
v -128 -128 0
v -128 -112 0
v -112 -112 0
v -96 -128 0
v -112 -128 0
v -112 -112 0
v -96 -112 0
v -80 -128 0
v -96 -128 0
v -96 -112 0
v -80 -112 0
v -64 -128 0
v -80 -128 0
v -80 -112 0
v -64 -112 0
v -48 -128 0
v -64 -128 0
v -64 -112 0
v -48 -112 0
v -32 -128 0
v -48 -128 0
v -48 -112 0
v -32 -112 0
v -16 -128 0
v -32 -128 0
v -32 -112 0
v -16 -112 0
v 0 -128 0
v -16 -128 0
v -16 -112 0
v 0 -112 0
v -240 -144 0
v -256 -144 0
v -256 -128 0
v -240 -128 0
v -224 -144 0
v -240 -144 0
v -240 -128 0
v -224 -128 0
v -208 -144 0
v -224 -144 0
v -224 -128 0
v -208 -128 0
v -192 -144 0
v -208 -144 0
v -208 -128 0
v -192 -128 0
v -176 -144 0
v -192 -144 0
v -192 -128 0
v -176 -128 0
v -160 -144 0
v -176 -144 0
v -176 -128 0
v -160 -128 0
v -144 -144 0
v -160 -144 0
v -160 -128 0
v -144 -128 0
v -128 -144 0
v -144 -144 0
v -144 -128 0
v -128 -128 0
v -112 -144 0
v -128 -144 0
v -128 -128 0
v -112 -128 0
v -96 -144 0
v -112 -144 0
v -112 -128 0
v -96 -128 0
v -80 -144 0
v -96 -144 0
v -96 -128 0
v -80 -128 0
v -64 -144 0
v -80 -144 0
v -80 -128 0
v -64 -128 0
v -48 -144 0
v -64 -144 0
v -64 -128 0
v -48 -128 0
v -32 -144 0
v -48 -144 0
v -48 -128 0
v -32 -128 0
v -16 -144 0
v -32 -144 0
v -32 -128 0
v -16 -128 0
v 0 -144 0
v -16 -144 0
v -16 -128 0
v 0 -128 0
v -240 -160 0
v -256 -160 0
v -256 -144 0
v -240 -144 0
v -224 -160 0
v -240 -160 0
v -240 -144 0
v -224 -144 0
v -208 -160 0
v -224 -160 0
v -224 -144 0
v -208 -144 0
v -192 -160 0
v -208 -160 0
v -208 -144 0
v -192 -144 0
v -176 -160 0
v -192 -160 0
v -192 -144 0
v -176 -144 0
v -160 -160 0
v -176 -160 0
v -176 -144 0
v -160 -144 0
v -144 -160 0
v -160 -160 0
v -160 -144 0
v -144 -144 0
v -128 -160 0
v -144 -160 0
v -144 -144 0
v -128 -144 0
v -112 -160 0
v -128 -160 0
v -128 -144 0
v -112 -144 0
v -96 -160 0
v -112 -160 0
v -112 -144 0
v -96 -144 0
v -80 -160 0
v -96 -160 0
v -96 -144 0
v -80 -144 0
v -64 -160 0
v -80 -160 0
v -80 -144 0
v -64 -144 0
v -48 -160 0
v -64 -160 0
v -64 -144 0
v -48 -144 0
v -32 -160 0
v -48 -160 0
v -48 -144 0
v -32 -144 0
v -16 -160 0
v -32 -160 0
v -32 -144 0
v -16 -144 0
v 0 -160 0
v -16 -160 0
v -16 -144 0
v 0 -144 0
v -240 -176 0
v -256 -176 0
v -256 -160 0
v -240 -160 0
v -224 -176 0
v -240 -176 0
v -240 -160 0
v -224 -160 0
v -208 -176 0
v -224 -176 0
v -224 -160 0
v -208 -160 0
v -192 -176 0
v -208 -176 0
v -208 -160 0
v -192 -160 0
v -176 -176 0
v -192 -176 0
v -192 -160 0
v -176 -160 0
v -160 -176 0
v -176 -176 0
v -176 -160 0
v -160 -160 0
v -144 -176 0
v -160 -176 0
v -160 -160 0
v -144 -160 0
v -128 -176 0
v -144 -176 0
v -144 -160 0
v -128 -160 0
v -112 -176 0
v -128 -176 0
v -128 -160 0
v -112 -160 0
v -96 -176 0
v -112 -176 0
v -112 -160 0
v -96 -160 0
v -80 -176 0
v -96 -176 0
v -96 -160 0
v -80 -160 0
v -64 -176 0
v -80 -176 0
v -80 -160 0
v -64 -160 0
v -48 -176 0
v -64 -176 0
v -64 -160 0
v -48 -160 0
v -32 -176 0
v -48 -176 0
v -48 -160 0
v -32 -160 0
v -16 -176 0
v -32 -176 0
v -32 -160 0
v -16 -160 0
v 0 -176 0
v -16 -176 0
v -16 -160 0
v 0 -160 0
v -240 -192 0
v -256 -192 0
v -256 -176 0
v -240 -176 0
v -224 -192 0
v -240 -192 0
v -240 -176 0
v -224 -176 0
v -208 -192 0
v -224 -192 0
v -224 -176 0
v -208 -176 0
v -192 -192 0
v -208 -192 0
v -208 -176 0
v -192 -176 0
v -176 -192 0
v -192 -192 0
v -192 -176 0
v -176 -176 0
v -160 -192 0
v -176 -192 0
v -176 -176 0
v -160 -176 0
v -144 -192 0
v -160 -192 0
v -160 -176 0
v -144 -176 0
v -128 -192 0
v -144 -192 0
v -144 -176 0
v -128 -176 0
v -112 -192 0
v -128 -192 0
v -128 -176 0
v -112 -176 0
v -96 -192 0
v -112 -192 0
v -112 -176 0
v -96 -176 0
v -80 -192 0
v -96 -192 0
v -96 -176 0
v -80 -176 0
v -64 -192 0
v -80 -192 0
v -80 -176 0
v -64 -176 0
v -48 -192 0
v -64 -192 0
v -64 -176 0
v -48 -176 0
v -32 -192 0
v -48 -192 0
v -48 -176 0
v -32 -176 0
v -16 -192 0
v -32 -192 0
v -32 -176 0
v -16 -176 0
v 0 -192 0
v -16 -192 0
v -16 -176 0
v 0 -176 0
v -240 -208 0
v -256 -208 0
v -256 -192 0
v -240 -192 0
v -224 -208 0
v -240 -208 0
v -240 -192 0
v -224 -192 0
v -208 -208 0
v -224 -208 0
v -224 -192 0
v -208 -192 0
v -192 -208 0
v -208 -208 0
v -208 -192 0
v -192 -192 0
v -176 -208 0
v -192 -208 0
v -192 -192 0
v -176 -192 0
v -160 -208 0
v -176 -208 0
v -176 -192 0
v -160 -192 0
v -144 -208 0
v -160 -208 0
v -160 -192 0
v -144 -192 0
v -128 -208 0
v -144 -208 0
v -144 -192 0
v -128 -192 0
v -112 -208 0
v -128 -208 0
v -128 -192 0
v -112 -192 0
v -96 -208 0
v -112 -208 0
v -112 -192 0
v -96 -192 0
v -80 -208 0
v -96 -208 0
v -96 -192 0
v -80 -192 0
v -64 -208 0
v -80 -208 0
v -80 -192 0
v -64 -192 0
v -48 -208 0
v -64 -208 0
v -64 -192 0
v -48 -192 0
v -32 -208 0
v -48 -208 0
v -48 -192 0
v -32 -192 0
v -16 -208 0
v -32 -208 0
v -32 -192 0
v -16 -192 0
v 0 -208 0
v -16 -208 0
v -16 -192 0
v 0 -192 0
v -240 -224 0
v -256 -224 0
v -256 -208 0
v -240 -208 0
v -224 -224 0
v -240 -224 0
v -240 -208 0
v -224 -208 0
v -208 -224 0
v -224 -224 0
v -224 -208 0
v -208 -208 0
v -192 -224 0
v -208 -224 0
v -208 -208 0
v -192 -208 0
v -176 -224 0
v -192 -224 0
v -192 -208 0
v -176 -208 0
v -160 -224 0
v -176 -224 0
v -176 -208 0
v -160 -208 0
v -144 -224 0
v -160 -224 0
v -160 -208 0
v -144 -208 0
v -128 -224 0
v -144 -224 0
v -144 -208 0
v -128 -208 0
v -112 -224 0
v -128 -224 0
v -128 -208 0
v -112 -208 0
v -96 -224 0
v -112 -224 0
v -112 -208 0
v -96 -208 0
v -80 -224 0
v -96 -224 0
v -96 -208 0
v -80 -208 0
v -64 -224 0
v -80 -224 0
v -80 -208 0
v -64 -208 0
v -48 -224 0
v -64 -224 0
v -64 -208 0
v -48 -208 0
v -32 -224 0
v -48 -224 0
v -48 -208 0
v -32 -208 0
v -16 -224 0
v -32 -224 0
v -32 -208 0
v -16 -208 0
v 0 -224 0
v -16 -224 0
v -16 -208 0
v 0 -208 0
v -240 -240 0
v -256 -240 0
v -256 -224 0
v -240 -224 0
v -224 -240 0
v -240 -240 0
v -240 -224 0
v -224 -224 0
v -208 -240 0
v -224 -240 0
v -224 -224 0
v -208 -224 0
v -192 -240 0
v -208 -240 0
v -208 -224 0
v -192 -224 0
v -176 -240 0
v -192 -240 0
v -192 -224 0
v -176 -224 0
v -160 -240 0
v -176 -240 0
v -176 -224 0
v -160 -224 0
v -144 -240 0
v -160 -240 0
v -160 -224 0
v -144 -224 0
v -128 -240 0
v -144 -240 0
v -144 -224 0
v -128 -224 0
v -112 -240 0
v -128 -240 0
v -128 -224 0
v -112 -224 0
v -96 -240 0
v -112 -240 0
v -112 -224 0
v -96 -224 0
v -80 -240 0
v -96 -240 0
v -96 -224 0
v -80 -224 0
v -64 -240 0
v -80 -240 0
v -80 -224 0
v -64 -224 0
v -48 -240 0
v -64 -240 0
v -64 -224 0
v -48 -224 0
v -32 -240 0
v -48 -240 0
v -48 -224 0
v -32 -224 0
v -16 -240 0
v -32 -240 0
v -32 -224 0
v -16 -224 0
v 0 -240 0
v -16 -240 0
v -16 -224 0
v 0 -224 0
v -240 -256 0
v -256 -256 0
v -256 -240 0
v -240 -240 0
v -224 -256 0
v -240 -256 0
v -240 -240 0
v -224 -240 0
v -208 -256 0
v -224 -256 0
v -224 -240 0
v -208 -240 0
v -192 -256 0
v -208 -256 0
v -208 -240 0
v -192 -240 0
v -176 -256 0
v -192 -256 0
v -192 -240 0
v -176 -240 0
v -160 -256 0
v -176 -256 0
v -176 -240 0
v -160 -240 0
v -144 -256 0
v -160 -256 0
v -160 -240 0
v -144 -240 0
v -128 -256 0
v -144 -256 0
v -144 -240 0
v -128 -240 0
v -112 -256 0
v -128 -256 0
v -128 -240 0
v -112 -240 0
v -96 -256 0
v -112 -256 0
v -112 -240 0
v -96 -240 0
v -80 -256 0
v -96 -256 0
v -96 -240 0
v -80 -240 0
v -64 -256 0
v -80 -256 0
v -80 -240 0
v -64 -240 0
v -48 -256 0
v -64 -256 0
v -64 -240 0
v -48 -240 0
v -32 -256 0
v -48 -256 0
v -48 -240 0
v -32 -240 0
v -16 -256 0
v -32 -256 0
v -32 -240 0
v -16 -240 0
v 0 -256 0
v -16 -256 0
v -16 -240 0
v 0 -240 0

# Texture cooridinates (Count = 9)
vt 0.2 0.7222222
vt 0.225 0.7222222
vt 0.225 0.75
vt 0.2 0.75
vt 0.175 0.6944444
vt 0.2 0.6944444
vt 0.175 0.7222222
vt 0.175 0.75
vt 0.225 0.6944444

# Normal
vn 0 0 -1

# Mesh description
g Village_mesh_0024

# Faces
f 1/1/1 2/2/1 3/3/1 4/4/1
f 5/5/1 6/6/1 7/1/1 8/7/1
f 9/7/1 10/1/1 11/4/1 12/8/1
f 13/1/1 14/2/1 15/3/1 16/4/1
f 17/5/1 18/6/1 19/1/1 20/7/1
f 21/6/1 22/9/1 23/2/1 24/1/1
f 25/5/1 26/6/1 27/1/1 28/7/1
f 29/5/1 30/6/1 31/1/1 32/7/1
f 33/7/1 34/1/1 35/4/1 36/8/1
f 37/5/1 38/6/1 39/1/1 40/7/1
f 41/6/1 42/9/1 43/2/1 44/1/1
f 45/1/1 46/2/1 47/3/1 48/4/1
f 49/6/1 50/9/1 51/2/1 52/1/1
f 53/5/1 54/6/1 55/1/1 56/7/1
f 57/5/1 58/6/1 59/1/1 60/7/1
f 61/6/1 62/9/1 63/2/1 64/1/1
f 65/1/1 66/2/1 67/3/1 68/4/1
f 69/7/1 70/1/1 71/4/1 72/8/1
f 73/5/1 74/6/1 75/1/1 76/7/1
f 77/7/1 78/1/1 79/4/1 80/8/1
f 81/5/1 82/6/1 83/1/1 84/7/1
f 85/6/1 86/9/1 87/2/1 88/1/1
f 89/1/1 90/2/1 91/3/1 92/4/1
f 93/5/1 94/6/1 95/1/1 96/7/1
f 97/1/1 98/2/1 99/3/1 100/4/1
f 101/6/1 102/9/1 103/2/1 104/1/1
f 105/5/1 106/6/1 107/1/1 108/7/1
f 109/6/1 110/9/1 111/2/1 112/1/1
f 113/7/1 114/1/1 115/4/1 116/8/1
f 117/7/1 118/1/1 119/4/1 120/8/1
f 121/1/1 122/2/1 123/3/1 124/4/1
f 125/7/1 126/1/1 127/4/1 128/8/1
f 129/1/1 130/2/1 131/3/1 132/4/1
f 133/5/1 134/6/1 135/1/1 136/7/1
f 137/7/1 138/1/1 139/4/1 140/8/1
f 141/1/1 142/2/1 143/3/1 144/4/1
f 145/7/1 146/1/1 147/4/1 148/8/1
f 149/7/1 150/1/1 151/4/1 152/8/1
f 153/7/1 154/1/1 155/4/1 156/8/1
f 157/6/1 158/9/1 159/2/1 160/1/1
f 161/7/1 162/1/1 163/4/1 164/8/1
f 165/5/1 166/6/1 167/1/1 168/7/1
f 169/5/1 170/6/1 171/1/1 172/7/1
f 173/6/1 174/9/1 175/2/1 176/1/1
f 177/7/1 178/1/1 179/4/1 180/8/1
f 181/7/1 182/1/1 183/4/1 184/8/1
f 185/7/1 186/1/1 187/4/1 188/8/1
f 189/1/1 190/2/1 191/3/1 192/4/1
f 193/1/1 194/2/1 195/3/1 196/4/1
f 197/5/1 198/6/1 199/1/1 200/7/1
f 201/7/1 202/1/1 203/4/1 204/8/1
f 205/6/1 206/9/1 207/2/1 208/1/1
f 209/6/1 210/9/1 211/2/1 212/1/1
f 213/7/1 214/1/1 215/4/1 216/8/1
f 217/7/1 218/1/1 219/4/1 220/8/1
f 221/5/1 222/6/1 223/1/1 224/7/1
f 225/1/1 226/2/1 227/3/1 228/4/1
f 229/5/1 230/6/1 231/1/1 232/7/1
f 233/6/1 234/9/1 235/2/1 236/1/1
f 237/6/1 238/9/1 239/2/1 240/1/1
f 241/6/1 242/9/1 243/2/1 244/1/1
f 245/6/1 246/9/1 247/2/1 248/1/1
f 249/1/1 250/2/1 251/3/1 252/4/1
f 253/6/1 254/9/1 255/2/1 256/1/1
f 257/6/1 258/9/1 259/2/1 260/1/1
f 261/6/1 262/9/1 263/2/1 264/1/1
f 265/6/1 266/9/1 267/2/1 268/1/1
f 269/1/1 270/2/1 271/3/1 272/4/1
f 273/1/1 274/2/1 275/3/1 276/4/1
f 277/6/1 278/9/1 279/2/1 280/1/1
f 281/1/1 282/2/1 283/3/1 284/4/1
f 285/1/1 286/2/1 287/3/1 288/4/1
f 289/7/1 290/1/1 291/4/1 292/8/1
f 293/1/1 294/2/1 295/3/1 296/4/1
f 297/5/1 298/6/1 299/1/1 300/7/1
f 301/1/1 302/2/1 303/3/1 304/4/1
f 305/1/1 306/2/1 307/3/1 308/4/1
f 309/7/1 310/1/1 311/4/1 312/8/1
f 313/7/1 314/1/1 315/4/1 316/8/1
f 317/7/1 318/1/1 319/4/1 320/8/1
f 321/1/1 322/2/1 323/3/1 324/4/1
f 325/1/1 326/2/1 327/3/1 328/4/1
f 329/7/1 330/1/1 331/4/1 332/8/1
f 333/5/1 334/6/1 335/1/1 336/7/1
f 337/1/1 338/2/1 339/3/1 340/4/1
f 341/6/1 342/9/1 343/2/1 344/1/1
f 345/1/1 346/2/1 347/3/1 348/4/1
f 349/1/1 350/2/1 351/3/1 352/4/1
f 353/1/1 354/2/1 355/3/1 356/4/1
f 357/1/1 358/2/1 359/3/1 360/4/1
f 361/1/1 362/2/1 363/3/1 364/4/1
f 365/6/1 366/9/1 367/2/1 368/1/1
f 369/6/1 370/9/1 371/2/1 372/1/1
f 373/5/1 374/6/1 375/1/1 376/7/1
f 377/1/1 378/2/1 379/3/1 380/4/1
f 381/6/1 382/9/1 383/2/1 384/1/1
f 385/6/1 386/9/1 387/2/1 388/1/1
f 389/5/1 390/6/1 391/1/1 392/7/1
f 393/6/1 394/9/1 395/2/1 396/1/1
f 397/7/1 398/1/1 399/4/1 400/8/1
f 401/5/1 402/6/1 403/1/1 404/7/1
f 405/5/1 406/6/1 407/1/1 408/7/1
f 409/1/1 410/2/1 411/3/1 412/4/1
f 413/6/1 414/9/1 415/2/1 416/1/1
f 417/1/1 418/2/1 419/3/1 420/4/1
f 421/6/1 422/9/1 423/2/1 424/1/1
f 425/6/1 426/9/1 427/2/1 428/1/1
f 429/6/1 430/9/1 431/2/1 432/1/1
f 433/5/1 434/6/1 435/1/1 436/7/1
f 437/7/1 438/1/1 439/4/1 440/8/1
f 441/5/1 442/6/1 443/1/1 444/7/1
f 445/6/1 446/9/1 447/2/1 448/1/1
f 449/7/1 450/1/1 451/4/1 452/8/1
f 453/6/1 454/9/1 455/2/1 456/1/1
f 457/5/1 458/6/1 459/1/1 460/7/1
f 461/5/1 462/6/1 463/1/1 464/7/1
f 465/7/1 466/1/1 467/4/1 468/8/1
f 469/6/1 470/9/1 471/2/1 472/1/1
f 473/7/1 474/1/1 475/4/1 476/8/1
f 477/7/1 478/1/1 479/4/1 480/8/1
f 481/7/1 482/1/1 483/4/1 484/8/1
f 485/6/1 486/9/1 487/2/1 488/1/1
f 489/5/1 490/6/1 491/1/1 492/7/1
f 493/6/1 494/9/1 495/2/1 496/1/1
f 497/5/1 498/6/1 499/1/1 500/7/1
f 501/7/1 502/1/1 503/4/1 504/8/1
f 505/5/1 506/6/1 507/1/1 508/7/1
f 509/1/1 510/2/1 511/3/1 512/4/1
f 513/5/1 514/6/1 515/1/1 516/7/1
f 517/5/1 518/6/1 519/1/1 520/7/1
f 521/7/1 522/1/1 523/4/1 524/8/1
f 525/1/1 526/2/1 527/3/1 528/4/1
f 529/7/1 530/1/1 531/4/1 532/8/1
f 533/6/1 534/9/1 535/2/1 536/1/1
f 537/5/1 538/6/1 539/1/1 540/7/1
f 541/1/1 542/2/1 543/3/1 544/4/1
f 545/7/1 546/1/1 547/4/1 548/8/1
f 549/7/1 550/1/1 551/4/1 552/8/1
f 553/1/1 554/2/1 555/3/1 556/4/1
f 557/6/1 558/9/1 559/2/1 560/1/1
f 561/5/1 562/6/1 563/1/1 564/7/1
f 565/5/1 566/6/1 567/1/1 568/7/1
f 569/6/1 570/9/1 571/2/1 572/1/1
f 573/1/1 574/2/1 575/3/1 576/4/1
f 577/6/1 578/9/1 579/2/1 580/1/1
f 581/1/1 582/2/1 583/3/1 584/4/1
f 585/5/1 586/6/1 587/1/1 588/7/1
f 589/5/1 590/6/1 591/1/1 592/7/1
f 593/1/1 594/2/1 595/3/1 596/4/1
f 597/5/1 598/6/1 599/1/1 600/7/1
f 601/1/1 602/2/1 603/3/1 604/4/1
f 605/7/1 606/1/1 607/4/1 608/8/1
f 609/1/1 610/2/1 611/3/1 612/4/1
f 613/1/1 614/2/1 615/3/1 616/4/1
f 617/6/1 618/9/1 619/2/1 620/1/1
f 621/7/1 622/1/1 623/4/1 624/8/1
f 625/1/1 626/2/1 627/3/1 628/4/1
f 629/1/1 630/2/1 631/3/1 632/4/1
f 633/5/1 634/6/1 635/1/1 636/7/1
f 637/1/1 638/2/1 639/3/1 640/4/1
f 641/6/1 642/9/1 643/2/1 644/1/1
f 645/1/1 646/2/1 647/3/1 648/4/1
f 649/7/1 650/1/1 651/4/1 652/8/1
f 653/6/1 654/9/1 655/2/1 656/1/1
f 657/5/1 658/6/1 659/1/1 660/7/1
f 661/1/1 662/2/1 663/3/1 664/4/1
f 665/1/1 666/2/1 667/3/1 668/4/1
f 669/5/1 670/6/1 671/1/1 672/7/1
f 673/7/1 674/1/1 675/4/1 676/8/1
f 677/6/1 678/9/1 679/2/1 680/1/1
f 681/1/1 682/2/1 683/3/1 684/4/1
f 685/6/1 686/9/1 687/2/1 688/1/1
f 689/6/1 690/9/1 691/2/1 692/1/1
f 693/7/1 694/1/1 695/4/1 696/8/1
f 697/5/1 698/6/1 699/1/1 700/7/1
f 701/7/1 702/1/1 703/4/1 704/8/1
f 705/6/1 706/9/1 707/2/1 708/1/1
f 709/7/1 710/1/1 711/4/1 712/8/1
f 713/1/1 714/2/1 715/3/1 716/4/1
f 717/7/1 718/1/1 719/4/1 720/8/1
f 721/5/1 722/6/1 723/1/1 724/7/1
f 725/1/1 726/2/1 727/3/1 728/4/1
f 729/1/1 730/2/1 731/3/1 732/4/1
f 733/1/1 734/2/1 735/3/1 736/4/1
f 737/7/1 738/1/1 739/4/1 740/8/1
f 741/7/1 742/1/1 743/4/1 744/8/1
f 745/6/1 746/9/1 747/2/1 748/1/1
f 749/7/1 750/1/1 751/4/1 752/8/1
f 753/1/1 754/2/1 755/3/1 756/4/1
f 757/6/1 758/9/1 759/2/1 760/1/1
f 761/6/1 762/9/1 763/2/1 764/1/1
f 765/5/1 766/6/1 767/1/1 768/7/1
f 769/1/1 770/2/1 771/3/1 772/4/1
f 773/7/1 774/1/1 775/4/1 776/8/1
f 777/1/1 778/2/1 779/3/1 780/4/1
f 781/6/1 782/9/1 783/2/1 784/1/1
f 785/7/1 786/1/1 787/4/1 788/8/1
f 789/5/1 790/6/1 791/1/1 792/7/1
f 793/5/1 794/6/1 795/1/1 796/7/1
f 797/5/1 798/6/1 799/1/1 800/7/1
f 801/6/1 802/9/1 803/2/1 804/1/1
f 805/1/1 806/2/1 807/3/1 808/4/1
f 809/7/1 810/1/1 811/4/1 812/8/1
f 813/6/1 814/9/1 815/2/1 816/1/1
f 817/1/1 818/2/1 819/3/1 820/4/1
f 821/1/1 822/2/1 823/3/1 824/4/1
f 825/6/1 826/9/1 827/2/1 828/1/1
f 829/7/1 830/1/1 831/4/1 832/8/1
f 833/1/1 834/2/1 835/3/1 836/4/1
f 837/6/1 838/9/1 839/2/1 840/1/1
f 841/7/1 842/1/1 843/4/1 844/8/1
f 845/6/1 846/9/1 847/2/1 848/1/1
f 849/5/1 850/6/1 851/1/1 852/7/1
f 853/7/1 854/1/1 855/4/1 856/8/1
f 857/6/1 858/9/1 859/2/1 860/1/1
f 861/7/1 862/1/1 863/4/1 864/8/1
f 865/6/1 866/9/1 867/2/1 868/1/1
f 869/1/1 870/2/1 871/3/1 872/4/1
f 873/1/1 874/2/1 875/3/1 876/4/1
f 877/5/1 878/6/1 879/1/1 880/7/1
f 881/1/1 882/2/1 883/3/1 884/4/1
f 885/7/1 886/1/1 887/4/1 888/8/1
f 889/6/1 890/9/1 891/2/1 892/1/1
f 893/7/1 894/1/1 895/4/1 896/8/1
f 897/6/1 898/9/1 899/2/1 900/1/1
f 901/6/1 902/9/1 903/2/1 904/1/1
f 905/6/1 906/9/1 907/2/1 908/1/1
f 909/5/1 910/6/1 911/1/1 912/7/1
f 913/6/1 914/9/1 915/2/1 916/1/1
f 917/6/1 918/9/1 919/2/1 920/1/1
f 921/1/1 922/2/1 923/3/1 924/4/1
f 925/6/1 926/9/1 927/2/1 928/1/1
f 929/1/1 930/2/1 931/3/1 932/4/1
f 933/7/1 934/1/1 935/4/1 936/8/1
f 937/1/1 938/2/1 939/3/1 940/4/1
f 941/6/1 942/9/1 943/2/1 944/1/1
f 945/6/1 946/9/1 947/2/1 948/1/1
f 949/5/1 950/6/1 951/1/1 952/7/1
f 953/5/1 954/6/1 955/1/1 956/7/1
f 957/1/1 958/2/1 959/3/1 960/4/1
f 961/1/1 962/2/1 963/3/1 964/4/1
f 965/1/1 966/2/1 967/3/1 968/4/1
f 969/7/1 970/1/1 971/4/1 972/8/1
f 973/7/1 974/1/1 975/4/1 976/8/1
f 977/1/1 978/2/1 979/3/1 980/4/1
f 981/6/1 982/9/1 983/2/1 984/1/1
f 985/6/1 986/9/1 987/2/1 988/1/1
f 989/1/1 990/2/1 991/3/1 992/4/1
f 993/1/1 994/2/1 995/3/1 996/4/1
f 997/7/1 998/1/1 999/4/1 1000/8/1
f 1001/6/1 1002/9/1 1003/2/1 1004/1/1
f 1005/6/1 1006/9/1 1007/2/1 1008/1/1
f 1009/6/1 1010/9/1 1011/2/1 1012/1/1
f 1013/6/1 1014/9/1 1015/2/1 1016/1/1
f 1017/6/1 1018/9/1 1019/2/1 1020/1/1
f 1021/7/1 1022/1/1 1023/4/1 1024/8/1

