# Tiled2Unity generated file. Do not modify by hand.
# Wavefront file for 'Village_mesh_0031.obj'

# Vertices (Count = 72)
v -240 -32 0
v -256 -32 0
v -256 -16 0
v -240 -16 0
v -224 -32 0
v -240 -32 0
v -240 -16 0
v -224 -16 0
v -240 -48 0
v -256 -48 0
v -256 -32 0
v -240 -32 0
v -224 -48 0
v -240 -48 0
v -240 -32 0
v -224 -32 0
v -240 -64 0
v -256 -64 0
v -256 -48 0
v -240 -48 0
v -240 -80 0
v -256 -80 0
v -256 -64 0
v -240 -64 0
v -16 -80 0
v -32 -80 0
v -32 -64 0
v -16 -64 0
v 0 -80 0
v -16 -80 0
v -16 -64 0
v 0 -64 0
v -16 -96 0
v -32 -96 0
v -32 -80 0
v -16 -80 0
v 0 -96 0
v -16 -96 0
v -16 -80 0
v 0 -80 0
v -16 -112 0
v -32 -112 0
v -32 -96 0
v -16 -96 0
v 0 -112 0
v -16 -112 0
v -16 -96 0
v 0 -96 0
v -16 -128 0
v -32 -128 0
v -32 -112 0
v -16 -112 0
v 0 -128 0
v -16 -128 0
v -16 -112 0
v 0 -112 0
v -192 -208 0
v -208 -208 0
v -208 -192 0
v -192 -192 0
v -176 -208 0
v -192 -208 0
v -192 -192 0
v -176 -192 0
v -192 -224 0
v -208 -224 0
v -208 -208 0
v -192 -208 0
v -176 -224 0
v -192 -224 0
v -192 -208 0
v -176 -208 0

# Texture cooridinates (Count = 27)
vt 0.25 0.6666666
vt 0.275 0.6666666
vt 0.275 0.6944444
vt 0.25 0.6944444
vt 0.225 0.6666666
vt 0.225 0.6944444
vt 0.25 0.6388889
vt 0.275 0.6388889
vt 0.225 0.6388889
vt 0.125 0.9444444
vt 0.15 0.9444444
vt 0.15 0.9722222
vt 0.125 0.9722222
vt 0.1 0.9444444
vt 0.1 0.9722222
vt 0.125 0.9166667
vt 0.15 0.9166667
vt 0.1 0.9166667
vt 0.15 0.5277778
vt 0.175 0.5277778
vt 0.175 0.5555556
vt 0.15 0.5555556
vt 0.125 0.5277778
vt 0.125 0.5555556
vt 0.15 0.5
vt 0.175 0.5
vt 0.125 0.5

# Normal
vn 0 0 -1

# Mesh description
g Village_mesh_0031

# Faces
f 1/1/1 2/2/1 3/3/1 4/4/1
f 5/5/1 6/1/1 7/4/1 8/6/1
f 9/7/1 10/8/1 11/2/1 12/1/1
f 13/9/1 14/7/1 15/1/1 16/5/1
f 17/5/1 18/1/1 19/4/1 20/6/1
f 21/9/1 22/7/1 23/1/1 24/5/1
f 25/10/1 26/11/1 27/12/1 28/13/1
f 29/14/1 30/10/1 31/13/1 32/15/1
f 33/16/1 34/17/1 35/11/1 36/10/1
f 37/18/1 38/16/1 39/10/1 40/14/1
f 41/10/1 42/11/1 43/12/1 44/13/1
f 45/14/1 46/10/1 47/13/1 48/15/1
f 49/16/1 50/17/1 51/11/1 52/10/1
f 53/18/1 54/16/1 55/10/1 56/14/1
f 57/19/1 58/20/1 59/21/1 60/22/1
f 61/23/1 62/19/1 63/22/1 64/24/1
f 65/25/1 66/26/1 67/20/1 68/19/1
f 69/27/1 70/25/1 71/19/1 72/23/1

