# Tiled2Unity generated file. Do not modify by hand.
# Wavefront file for 'Village_mesh_0100.obj'

# Vertices (Count = 96)
v -192 -80 0
v -208 -80 0
v -208 -64 0
v -192 -64 0
v -176 -80 0
v -192 -80 0
v -192 -64 0
v -176 -64 0
v -128 -80 0
v -144 -80 0
v -144 -64 0
v -128 -64 0
v -112 -80 0
v -128 -80 0
v -128 -64 0
v -112 -64 0
v -96 -80 0
v -112 -80 0
v -112 -64 0
v -96 -64 0
v -192 -96 0
v -208 -96 0
v -208 -80 0
v -192 -80 0
v -176 -96 0
v -192 -96 0
v -192 -80 0
v -176 -80 0
v -128 -96 0
v -144 -96 0
v -144 -80 0
v -128 -80 0
v -112 -96 0
v -128 -96 0
v -128 -80 0
v -112 -80 0
v -96 -96 0
v -112 -96 0
v -112 -80 0
v -96 -80 0
v -192 -112 0
v -208 -112 0
v -208 -96 0
v -192 -96 0
v -176 -112 0
v -192 -112 0
v -192 -96 0
v -176 -96 0
v -160 -112 0
v -176 -112 0
v -176 -96 0
v -160 -96 0
v -144 -112 0
v -160 -112 0
v -160 -96 0
v -144 -96 0
v -128 -112 0
v -144 -112 0
v -144 -96 0
v -128 -96 0
v -112 -112 0
v -128 -112 0
v -128 -96 0
v -112 -96 0
v -96 -112 0
v -112 -112 0
v -112 -96 0
v -96 -96 0
v -192 -128 0
v -208 -128 0
v -208 -112 0
v -192 -112 0
v -176 -128 0
v -192 -128 0
v -192 -112 0
v -176 -112 0
v -160 -128 0
v -176 -128 0
v -176 -112 0
v -160 -112 0
v -144 -128 0
v -160 -128 0
v -160 -112 0
v -144 -112 0
v -128 -128 0
v -144 -128 0
v -144 -112 0
v -128 -112 0
v -112 -128 0
v -128 -128 0
v -128 -112 0
v -112 -112 0
v -96 -128 0
v -112 -128 0
v -112 -112 0
v -96 -112 0

# Texture cooridinates (Count = 26)
vt 0.203125 0.452381
vt 0.21875 0.452381
vt 0.21875 0.4603174
vt 0.203125 0.4603174
vt 0.234375 0.4444444
vt 0.25 0.4444444
vt 0.25 0.452381
vt 0.234375 0.452381
vt 0.171875 0.452381
vt 0.1875 0.452381
vt 0.1875 0.4603174
vt 0.171875 0.4603174
vt 0.15625 0.452381
vt 0.15625 0.4603174
vt 0.171875 0.4444444
vt 0.1875 0.4444444
vt 0.203125 0.4444444
vt 0.140625 0.452381
vt 0.140625 0.4603174
vt 0.21875 0.4444444
vt 0.25 0.4603174
vt 0.234375 0.4603174
vt 0.125 0.452381
vt 0.125 0.4603174
vt 0.125 0.4444444
vt 0.140625 0.4444444

# Normal
vn 0 0 -1

# Mesh description
g Village_mesh_0100

# Faces
f 1/1/1 2/2/1 3/3/1 4/4/1
f 5/5/1 6/6/1 7/7/1 8/8/1
f 9/9/1 10/10/1 11/11/1 12/12/1
f 13/13/1 14/9/1 15/12/1 16/14/1
f 17/15/1 18/16/1 19/10/1 20/9/1
f 21/16/1 22/17/1 23/1/1 24/10/1
f 25/15/1 26/16/1 27/10/1 28/9/1
f 29/18/1 30/13/1 31/14/1 32/19/1
f 33/20/1 34/5/1 35/8/1 36/2/1
f 37/16/1 38/17/1 39/1/1 40/10/1
f 41/18/1 42/13/1 43/14/1 44/19/1
f 45/8/1 46/7/1 47/21/1 48/22/1
f 49/13/1 50/9/1 51/12/1 52/14/1
f 53/23/1 54/18/1 55/19/1 56/24/1
f 57/1/1 58/2/1 59/3/1 60/4/1
f 61/17/1 62/20/1 63/2/1 64/1/1
f 65/23/1 66/18/1 67/19/1 68/24/1
f 69/8/1 70/7/1 71/21/1 72/22/1
f 73/5/1 74/6/1 75/7/1 76/8/1
f 77/25/1 78/26/1 79/18/1 80/23/1
f 81/20/1 82/5/1 83/8/1 84/2/1
f 85/13/1 86/9/1 87/12/1 88/14/1
f 89/25/1 90/26/1 91/18/1 92/23/1
f 93/8/1 94/7/1 95/21/1 96/22/1

