# Tiled2Unity generated file. Do not modify by hand.
# Wavefront file for 'Village_mesh_0040.obj'

# Vertices (Count = 1024)
v -240 -16 0
v -256 -16 0
v -256 0 0
v -240 0 0
v -224 -16 0
v -240 -16 0
v -240 0 0
v -224 0 0
v -208 -16 0
v -224 -16 0
v -224 0 0
v -208 0 0
v -192 -16 0
v -208 -16 0
v -208 0 0
v -192 0 0
v -176 -16 0
v -192 -16 0
v -192 0 0
v -176 0 0
v -160 -16 0
v -176 -16 0
v -176 0 0
v -160 0 0
v -144 -16 0
v -160 -16 0
v -160 0 0
v -144 0 0
v -128 -16 0
v -144 -16 0
v -144 0 0
v -128 0 0
v -112 -16 0
v -128 -16 0
v -128 0 0
v -112 0 0
v -96 -16 0
v -112 -16 0
v -112 0 0
v -96 0 0
v -80 -16 0
v -96 -16 0
v -96 0 0
v -80 0 0
v -64 -16 0
v -80 -16 0
v -80 0 0
v -64 0 0
v -48 -16 0
v -64 -16 0
v -64 0 0
v -48 0 0
v -32 -16 0
v -48 -16 0
v -48 0 0
v -32 0 0
v -16 -16 0
v -32 -16 0
v -32 0 0
v -16 0 0
v 0 -16 0
v -16 -16 0
v -16 0 0
v 0 0 0
v -240 -32 0
v -256 -32 0
v -256 -16 0
v -240 -16 0
v -224 -32 0
v -240 -32 0
v -240 -16 0
v -224 -16 0
v -208 -32 0
v -224 -32 0
v -224 -16 0
v -208 -16 0
v -192 -32 0
v -208 -32 0
v -208 -16 0
v -192 -16 0
v -176 -32 0
v -192 -32 0
v -192 -16 0
v -176 -16 0
v -160 -32 0
v -176 -32 0
v -176 -16 0
v -160 -16 0
v -144 -32 0
v -160 -32 0
v -160 -16 0
v -144 -16 0
v -128 -32 0
v -144 -32 0
v -144 -16 0
v -128 -16 0
v -112 -32 0
v -128 -32 0
v -128 -16 0
v -112 -16 0
v -96 -32 0
v -112 -32 0
v -112 -16 0
v -96 -16 0
v -80 -32 0
v -96 -32 0
v -96 -16 0
v -80 -16 0
v -64 -32 0
v -80 -32 0
v -80 -16 0
v -64 -16 0
v -48 -32 0
v -64 -32 0
v -64 -16 0
v -48 -16 0
v -32 -32 0
v -48 -32 0
v -48 -16 0
v -32 -16 0
v -16 -32 0
v -32 -32 0
v -32 -16 0
v -16 -16 0
v 0 -32 0
v -16 -32 0
v -16 -16 0
v 0 -16 0
v -240 -48 0
v -256 -48 0
v -256 -32 0
v -240 -32 0
v -224 -48 0
v -240 -48 0
v -240 -32 0
v -224 -32 0
v -208 -48 0
v -224 -48 0
v -224 -32 0
v -208 -32 0
v -192 -48 0
v -208 -48 0
v -208 -32 0
v -192 -32 0
v -176 -48 0
v -192 -48 0
v -192 -32 0
v -176 -32 0
v -160 -48 0
v -176 -48 0
v -176 -32 0
v -160 -32 0
v -144 -48 0
v -160 -48 0
v -160 -32 0
v -144 -32 0
v -128 -48 0
v -144 -48 0
v -144 -32 0
v -128 -32 0
v -112 -48 0
v -128 -48 0
v -128 -32 0
v -112 -32 0
v -96 -48 0
v -112 -48 0
v -112 -32 0
v -96 -32 0
v -80 -48 0
v -96 -48 0
v -96 -32 0
v -80 -32 0
v -64 -48 0
v -80 -48 0
v -80 -32 0
v -64 -32 0
v -48 -48 0
v -64 -48 0
v -64 -32 0
v -48 -32 0
v -32 -48 0
v -48 -48 0
v -48 -32 0
v -32 -32 0
v -16 -48 0
v -32 -48 0
v -32 -32 0
v -16 -32 0
v 0 -48 0
v -16 -48 0
v -16 -32 0
v 0 -32 0
v -240 -64 0
v -256 -64 0
v -256 -48 0
v -240 -48 0
v -224 -64 0
v -240 -64 0
v -240 -48 0
v -224 -48 0
v -208 -64 0
v -224 -64 0
v -224 -48 0
v -208 -48 0
v -192 -64 0
v -208 -64 0
v -208 -48 0
v -192 -48 0
v -176 -64 0
v -192 -64 0
v -192 -48 0
v -176 -48 0
v -160 -64 0
v -176 -64 0
v -176 -48 0
v -160 -48 0
v -144 -64 0
v -160 -64 0
v -160 -48 0
v -144 -48 0
v -128 -64 0
v -144 -64 0
v -144 -48 0
v -128 -48 0
v -112 -64 0
v -128 -64 0
v -128 -48 0
v -112 -48 0
v -96 -64 0
v -112 -64 0
v -112 -48 0
v -96 -48 0
v -80 -64 0
v -96 -64 0
v -96 -48 0
v -80 -48 0
v -64 -64 0
v -80 -64 0
v -80 -48 0
v -64 -48 0
v -48 -64 0
v -64 -64 0
v -64 -48 0
v -48 -48 0
v -32 -64 0
v -48 -64 0
v -48 -48 0
v -32 -48 0
v -16 -64 0
v -32 -64 0
v -32 -48 0
v -16 -48 0
v 0 -64 0
v -16 -64 0
v -16 -48 0
v 0 -48 0
v -240 -80 0
v -256 -80 0
v -256 -64 0
v -240 -64 0
v -224 -80 0
v -240 -80 0
v -240 -64 0
v -224 -64 0
v -208 -80 0
v -224 -80 0
v -224 -64 0
v -208 -64 0
v -192 -80 0
v -208 -80 0
v -208 -64 0
v -192 -64 0
v -176 -80 0
v -192 -80 0
v -192 -64 0
v -176 -64 0
v -160 -80 0
v -176 -80 0
v -176 -64 0
v -160 -64 0
v -144 -80 0
v -160 -80 0
v -160 -64 0
v -144 -64 0
v -128 -80 0
v -144 -80 0
v -144 -64 0
v -128 -64 0
v -112 -80 0
v -128 -80 0
v -128 -64 0
v -112 -64 0
v -96 -80 0
v -112 -80 0
v -112 -64 0
v -96 -64 0
v -80 -80 0
v -96 -80 0
v -96 -64 0
v -80 -64 0
v -64 -80 0
v -80 -80 0
v -80 -64 0
v -64 -64 0
v -48 -80 0
v -64 -80 0
v -64 -64 0
v -48 -64 0
v -32 -80 0
v -48 -80 0
v -48 -64 0
v -32 -64 0
v -16 -80 0
v -32 -80 0
v -32 -64 0
v -16 -64 0
v 0 -80 0
v -16 -80 0
v -16 -64 0
v 0 -64 0
v -240 -96 0
v -256 -96 0
v -256 -80 0
v -240 -80 0
v -224 -96 0
v -240 -96 0
v -240 -80 0
v -224 -80 0
v -208 -96 0
v -224 -96 0
v -224 -80 0
v -208 -80 0
v -192 -96 0
v -208 -96 0
v -208 -80 0
v -192 -80 0
v -176 -96 0
v -192 -96 0
v -192 -80 0
v -176 -80 0
v -160 -96 0
v -176 -96 0
v -176 -80 0
v -160 -80 0
v -144 -96 0
v -160 -96 0
v -160 -80 0
v -144 -80 0
v -128 -96 0
v -144 -96 0
v -144 -80 0
v -128 -80 0
v -112 -96 0
v -128 -96 0
v -128 -80 0
v -112 -80 0
v -96 -96 0
v -112 -96 0
v -112 -80 0
v -96 -80 0
v -80 -96 0
v -96 -96 0
v -96 -80 0
v -80 -80 0
v -64 -96 0
v -80 -96 0
v -80 -80 0
v -64 -80 0
v -48 -96 0
v -64 -96 0
v -64 -80 0
v -48 -80 0
v -32 -96 0
v -48 -96 0
v -48 -80 0
v -32 -80 0
v -16 -96 0
v -32 -96 0
v -32 -80 0
v -16 -80 0
v 0 -96 0
v -16 -96 0
v -16 -80 0
v 0 -80 0
v -240 -112 0
v -256 -112 0
v -256 -96 0
v -240 -96 0
v -224 -112 0
v -240 -112 0
v -240 -96 0
v -224 -96 0
v -208 -112 0
v -224 -112 0
v -224 -96 0
v -208 -96 0
v -192 -112 0
v -208 -112 0
v -208 -96 0
v -192 -96 0
v -176 -112 0
v -192 -112 0
v -192 -96 0
v -176 -96 0
v -160 -112 0
v -176 -112 0
v -176 -96 0
v -160 -96 0
v -144 -112 0
v -160 -112 0
v -160 -96 0
v -144 -96 0
v -128 -112 0
v -144 -112 0
v -144 -96 0
v -128 -96 0
v -112 -112 0
v -128 -112 0
v -128 -96 0
v -112 -96 0
v -96 -112 0
v -112 -112 0
v -112 -96 0
v -96 -96 0
v -80 -112 0
v -96 -112 0
v -96 -96 0
v -80 -96 0
v -64 -112 0
v -80 -112 0
v -80 -96 0
v -64 -96 0
v -48 -112 0
v -64 -112 0
v -64 -96 0
v -48 -96 0
v -32 -112 0
v -48 -112 0
v -48 -96 0
v -32 -96 0
v -16 -112 0
v -32 -112 0
v -32 -96 0
v -16 -96 0
v 0 -112 0
v -16 -112 0
v -16 -96 0
v 0 -96 0
v -240 -128 0
v -256 -128 0
v -256 -112 0
v -240 -112 0
v -224 -128 0
v -240 -128 0
v -240 -112 0
v -224 -112 0
v -208 -128 0
v -224 -128 0
v -224 -112 0
v -208 -112 0
v -192 -128 0
v -208 -128 0
v -208 -112 0
v -192 -112 0
v -176 -128 0
v -192 -128 0
v -192 -112 0
v -176 -112 0
v -160 -128 0
v -176 -128 0
v -176 -112 0
v -160 -112 0
v -144 -128 0
v -160 -128 0
v -160 -112 0
v -144 -112 0
v -128 -128 0
v -144 -128 0
v -144 -112 0
v -128 -112 0
v -112 -128 0
v -128 -128 0
v -128 -112 0
v -112 -112 0
v -96 -128 0
v -112 -128 0
v -112 -112 0
v -96 -112 0
v -80 -128 0
v -96 -128 0
v -96 -112 0
v -80 -112 0
v -64 -128 0
v -80 -128 0
v -80 -112 0
v -64 -112 0
v -48 -128 0
v -64 -128 0
v -64 -112 0
v -48 -112 0
v -32 -128 0
v -48 -128 0
v -48 -112 0
v -32 -112 0
v -16 -128 0
v -32 -128 0
v -32 -112 0
v -16 -112 0
v 0 -128 0
v -16 -128 0
v -16 -112 0
v 0 -112 0
v -240 -144 0
v -256 -144 0
v -256 -128 0
v -240 -128 0
v -224 -144 0
v -240 -144 0
v -240 -128 0
v -224 -128 0
v -208 -144 0
v -224 -144 0
v -224 -128 0
v -208 -128 0
v -192 -144 0
v -208 -144 0
v -208 -128 0
v -192 -128 0
v -176 -144 0
v -192 -144 0
v -192 -128 0
v -176 -128 0
v -160 -144 0
v -176 -144 0
v -176 -128 0
v -160 -128 0
v -144 -144 0
v -160 -144 0
v -160 -128 0
v -144 -128 0
v -128 -144 0
v -144 -144 0
v -144 -128 0
v -128 -128 0
v -112 -144 0
v -128 -144 0
v -128 -128 0
v -112 -128 0
v -96 -144 0
v -112 -144 0
v -112 -128 0
v -96 -128 0
v -80 -144 0
v -96 -144 0
v -96 -128 0
v -80 -128 0
v -64 -144 0
v -80 -144 0
v -80 -128 0
v -64 -128 0
v -48 -144 0
v -64 -144 0
v -64 -128 0
v -48 -128 0
v -32 -144 0
v -48 -144 0
v -48 -128 0
v -32 -128 0
v -16 -144 0
v -32 -144 0
v -32 -128 0
v -16 -128 0
v 0 -144 0
v -16 -144 0
v -16 -128 0
v 0 -128 0
v -240 -160 0
v -256 -160 0
v -256 -144 0
v -240 -144 0
v -224 -160 0
v -240 -160 0
v -240 -144 0
v -224 -144 0
v -208 -160 0
v -224 -160 0
v -224 -144 0
v -208 -144 0
v -192 -160 0
v -208 -160 0
v -208 -144 0
v -192 -144 0
v -176 -160 0
v -192 -160 0
v -192 -144 0
v -176 -144 0
v -160 -160 0
v -176 -160 0
v -176 -144 0
v -160 -144 0
v -144 -160 0
v -160 -160 0
v -160 -144 0
v -144 -144 0
v -128 -160 0
v -144 -160 0
v -144 -144 0
v -128 -144 0
v -112 -160 0
v -128 -160 0
v -128 -144 0
v -112 -144 0
v -96 -160 0
v -112 -160 0
v -112 -144 0
v -96 -144 0
v -80 -160 0
v -96 -160 0
v -96 -144 0
v -80 -144 0
v -64 -160 0
v -80 -160 0
v -80 -144 0
v -64 -144 0
v -48 -160 0
v -64 -160 0
v -64 -144 0
v -48 -144 0
v -32 -160 0
v -48 -160 0
v -48 -144 0
v -32 -144 0
v -16 -160 0
v -32 -160 0
v -32 -144 0
v -16 -144 0
v 0 -160 0
v -16 -160 0
v -16 -144 0
v 0 -144 0
v -240 -176 0
v -256 -176 0
v -256 -160 0
v -240 -160 0
v -224 -176 0
v -240 -176 0
v -240 -160 0
v -224 -160 0
v -208 -176 0
v -224 -176 0
v -224 -160 0
v -208 -160 0
v -192 -176 0
v -208 -176 0
v -208 -160 0
v -192 -160 0
v -176 -176 0
v -192 -176 0
v -192 -160 0
v -176 -160 0
v -160 -176 0
v -176 -176 0
v -176 -160 0
v -160 -160 0
v -144 -176 0
v -160 -176 0
v -160 -160 0
v -144 -160 0
v -128 -176 0
v -144 -176 0
v -144 -160 0
v -128 -160 0
v -112 -176 0
v -128 -176 0
v -128 -160 0
v -112 -160 0
v -96 -176 0
v -112 -176 0
v -112 -160 0
v -96 -160 0
v -80 -176 0
v -96 -176 0
v -96 -160 0
v -80 -160 0
v -64 -176 0
v -80 -176 0
v -80 -160 0
v -64 -160 0
v -48 -176 0
v -64 -176 0
v -64 -160 0
v -48 -160 0
v -32 -176 0
v -48 -176 0
v -48 -160 0
v -32 -160 0
v -16 -176 0
v -32 -176 0
v -32 -160 0
v -16 -160 0
v 0 -176 0
v -16 -176 0
v -16 -160 0
v 0 -160 0
v -240 -192 0
v -256 -192 0
v -256 -176 0
v -240 -176 0
v -224 -192 0
v -240 -192 0
v -240 -176 0
v -224 -176 0
v -208 -192 0
v -224 -192 0
v -224 -176 0
v -208 -176 0
v -192 -192 0
v -208 -192 0
v -208 -176 0
v -192 -176 0
v -176 -192 0
v -192 -192 0
v -192 -176 0
v -176 -176 0
v -160 -192 0
v -176 -192 0
v -176 -176 0
v -160 -176 0
v -144 -192 0
v -160 -192 0
v -160 -176 0
v -144 -176 0
v -128 -192 0
v -144 -192 0
v -144 -176 0
v -128 -176 0
v -112 -192 0
v -128 -192 0
v -128 -176 0
v -112 -176 0
v -96 -192 0
v -112 -192 0
v -112 -176 0
v -96 -176 0
v -80 -192 0
v -96 -192 0
v -96 -176 0
v -80 -176 0
v -64 -192 0
v -80 -192 0
v -80 -176 0
v -64 -176 0
v -48 -192 0
v -64 -192 0
v -64 -176 0
v -48 -176 0
v -32 -192 0
v -48 -192 0
v -48 -176 0
v -32 -176 0
v -16 -192 0
v -32 -192 0
v -32 -176 0
v -16 -176 0
v 0 -192 0
v -16 -192 0
v -16 -176 0
v 0 -176 0
v -240 -208 0
v -256 -208 0
v -256 -192 0
v -240 -192 0
v -224 -208 0
v -240 -208 0
v -240 -192 0
v -224 -192 0
v -208 -208 0
v -224 -208 0
v -224 -192 0
v -208 -192 0
v -192 -208 0
v -208 -208 0
v -208 -192 0
v -192 -192 0
v -176 -208 0
v -192 -208 0
v -192 -192 0
v -176 -192 0
v -160 -208 0
v -176 -208 0
v -176 -192 0
v -160 -192 0
v -144 -208 0
v -160 -208 0
v -160 -192 0
v -144 -192 0
v -128 -208 0
v -144 -208 0
v -144 -192 0
v -128 -192 0
v -112 -208 0
v -128 -208 0
v -128 -192 0
v -112 -192 0
v -96 -208 0
v -112 -208 0
v -112 -192 0
v -96 -192 0
v -80 -208 0
v -96 -208 0
v -96 -192 0
v -80 -192 0
v -64 -208 0
v -80 -208 0
v -80 -192 0
v -64 -192 0
v -48 -208 0
v -64 -208 0
v -64 -192 0
v -48 -192 0
v -32 -208 0
v -48 -208 0
v -48 -192 0
v -32 -192 0
v -16 -208 0
v -32 -208 0
v -32 -192 0
v -16 -192 0
v 0 -208 0
v -16 -208 0
v -16 -192 0
v 0 -192 0
v -240 -224 0
v -256 -224 0
v -256 -208 0
v -240 -208 0
v -224 -224 0
v -240 -224 0
v -240 -208 0
v -224 -208 0
v -208 -224 0
v -224 -224 0
v -224 -208 0
v -208 -208 0
v -192 -224 0
v -208 -224 0
v -208 -208 0
v -192 -208 0
v -176 -224 0
v -192 -224 0
v -192 -208 0
v -176 -208 0
v -160 -224 0
v -176 -224 0
v -176 -208 0
v -160 -208 0
v -144 -224 0
v -160 -224 0
v -160 -208 0
v -144 -208 0
v -128 -224 0
v -144 -224 0
v -144 -208 0
v -128 -208 0
v -112 -224 0
v -128 -224 0
v -128 -208 0
v -112 -208 0
v -96 -224 0
v -112 -224 0
v -112 -208 0
v -96 -208 0
v -80 -224 0
v -96 -224 0
v -96 -208 0
v -80 -208 0
v -64 -224 0
v -80 -224 0
v -80 -208 0
v -64 -208 0
v -48 -224 0
v -64 -224 0
v -64 -208 0
v -48 -208 0
v -32 -224 0
v -48 -224 0
v -48 -208 0
v -32 -208 0
v -16 -224 0
v -32 -224 0
v -32 -208 0
v -16 -208 0
v 0 -224 0
v -16 -224 0
v -16 -208 0
v 0 -208 0
v -240 -240 0
v -256 -240 0
v -256 -224 0
v -240 -224 0
v -224 -240 0
v -240 -240 0
v -240 -224 0
v -224 -224 0
v -208 -240 0
v -224 -240 0
v -224 -224 0
v -208 -224 0
v -192 -240 0
v -208 -240 0
v -208 -224 0
v -192 -224 0
v -176 -240 0
v -192 -240 0
v -192 -224 0
v -176 -224 0
v -160 -240 0
v -176 -240 0
v -176 -224 0
v -160 -224 0
v -144 -240 0
v -160 -240 0
v -160 -224 0
v -144 -224 0
v -128 -240 0
v -144 -240 0
v -144 -224 0
v -128 -224 0
v -112 -240 0
v -128 -240 0
v -128 -224 0
v -112 -224 0
v -96 -240 0
v -112 -240 0
v -112 -224 0
v -96 -224 0
v -80 -240 0
v -96 -240 0
v -96 -224 0
v -80 -224 0
v -64 -240 0
v -80 -240 0
v -80 -224 0
v -64 -224 0
v -48 -240 0
v -64 -240 0
v -64 -224 0
v -48 -224 0
v -32 -240 0
v -48 -240 0
v -48 -224 0
v -32 -224 0
v -16 -240 0
v -32 -240 0
v -32 -224 0
v -16 -224 0
v 0 -240 0
v -16 -240 0
v -16 -224 0
v 0 -224 0
v -240 -256 0
v -256 -256 0
v -256 -240 0
v -240 -240 0
v -224 -256 0
v -240 -256 0
v -240 -240 0
v -224 -240 0
v -208 -256 0
v -224 -256 0
v -224 -240 0
v -208 -240 0
v -192 -256 0
v -208 -256 0
v -208 -240 0
v -192 -240 0
v -176 -256 0
v -192 -256 0
v -192 -240 0
v -176 -240 0
v -160 -256 0
v -176 -256 0
v -176 -240 0
v -160 -240 0
v -144 -256 0
v -160 -256 0
v -160 -240 0
v -144 -240 0
v -128 -256 0
v -144 -256 0
v -144 -240 0
v -128 -240 0
v -112 -256 0
v -128 -256 0
v -128 -240 0
v -112 -240 0
v -96 -256 0
v -112 -256 0
v -112 -240 0
v -96 -240 0
v -80 -256 0
v -96 -256 0
v -96 -240 0
v -80 -240 0
v -64 -256 0
v -80 -256 0
v -80 -240 0
v -64 -240 0
v -48 -256 0
v -64 -256 0
v -64 -240 0
v -48 -240 0
v -32 -256 0
v -48 -256 0
v -48 -240 0
v -32 -240 0
v -16 -256 0
v -32 -256 0
v -32 -240 0
v -16 -240 0
v 0 -256 0
v -16 -256 0
v -16 -240 0
v 0 -240 0

# Texture cooridinates (Count = 13)
vt 0.2 0.6944444
vt 0.225 0.6944444
vt 0.225 0.7222222
vt 0.2 0.7222222
vt 0.175 0.6944444
vt 0.175 0.7222222
vt 0.2 0.75
vt 0.175 0.75
vt 0.225 0.75
vt 0.05 0.08333331
vt 0.075 0.08333331
vt 0.075 0.1111111
vt 0.05 0.1111111

# Normal
vn 0 0 -1

# Mesh description
g Village_mesh_0040

# Faces
f 1/1/1 2/2/1 3/3/1 4/4/1
f 5/5/1 6/1/1 7/4/1 8/6/1
f 9/6/1 10/4/1 11/7/1 12/8/1
f 13/1/1 14/2/1 15/3/1 16/4/1
f 17/6/1 18/4/1 19/7/1 20/8/1
f 21/4/1 22/3/1 23/9/1 24/7/1
f 25/1/1 26/2/1 27/3/1 28/4/1
f 29/6/1 30/4/1 31/7/1 32/8/1
f 33/6/1 34/4/1 35/7/1 36/8/1
f 37/6/1 38/4/1 39/7/1 40/8/1
f 41/5/1 42/1/1 43/4/1 44/6/1
f 45/4/1 46/3/1 47/9/1 48/7/1
f 49/5/1 50/1/1 51/4/1 52/6/1
f 53/6/1 54/4/1 55/7/1 56/8/1
f 57/1/1 58/2/1 59/3/1 60/4/1
f 61/1/1 62/2/1 63/3/1 64/4/1
f 65/5/1 66/1/1 67/4/1 68/6/1
f 69/6/1 70/4/1 71/7/1 72/8/1
f 73/5/1 74/1/1 75/4/1 76/6/1
f 77/1/1 78/2/1 79/3/1 80/4/1
f 81/6/1 82/4/1 83/7/1 84/8/1
f 85/6/1 86/4/1 87/7/1 88/8/1
f 89/5/1 90/1/1 91/4/1 92/6/1
f 93/6/1 94/4/1 95/7/1 96/8/1
f 97/5/1 98/1/1 99/4/1 100/6/1
f 101/6/1 102/4/1 103/7/1 104/8/1
f 105/4/1 106/3/1 107/9/1 108/7/1
f 109/1/1 110/2/1 111/3/1 112/4/1
f 113/6/1 114/4/1 115/7/1 116/8/1
f 117/4/1 118/3/1 119/9/1 120/7/1
f 121/4/1 122/3/1 123/9/1 124/7/1
f 125/6/1 126/4/1 127/7/1 128/8/1
f 129/4/1 130/3/1 131/9/1 132/7/1
f 133/6/1 134/4/1 135/7/1 136/8/1
f 137/5/1 138/1/1 139/4/1 140/6/1
f 141/5/1 142/1/1 143/4/1 144/6/1
f 145/4/1 146/3/1 147/9/1 148/7/1
f 149/6/1 150/4/1 151/7/1 152/8/1
f 153/6/1 154/4/1 155/7/1 156/8/1
f 157/5/1 158/1/1 159/4/1 160/6/1
f 161/6/1 162/4/1 163/7/1 164/8/1
f 165/1/1 166/2/1 167/3/1 168/4/1
f 169/4/1 170/3/1 171/9/1 172/7/1
f 173/6/1 174/4/1 175/7/1 176/8/1
f 177/1/1 178/2/1 179/3/1 180/4/1
f 181/4/1 182/3/1 183/9/1 184/7/1
f 185/6/1 186/4/1 187/7/1 188/8/1
f 189/6/1 190/4/1 191/7/1 192/8/1
f 193/6/1 194/4/1 195/7/1 196/8/1
f 197/1/1 198/2/1 199/3/1 200/4/1
f 201/5/1 202/1/1 203/4/1 204/6/1
f 205/4/1 206/3/1 207/9/1 208/7/1
f 209/6/1 210/4/1 211/7/1 212/8/1
f 213/1/1 214/2/1 215/3/1 216/4/1
f 217/6/1 218/4/1 219/7/1 220/8/1
f 221/1/1 222/2/1 223/3/1 224/4/1
f 225/1/1 226/2/1 227/3/1 228/4/1
f 229/5/1 230/1/1 231/4/1 232/6/1
f 233/1/1 234/2/1 235/3/1 236/4/1
f 237/4/1 238/3/1 239/9/1 240/7/1
f 241/5/1 242/1/1 243/4/1 244/6/1
f 245/1/1 246/2/1 247/3/1 248/4/1
f 249/6/1 250/4/1 251/7/1 252/8/1
f 253/5/1 254/1/1 255/4/1 256/6/1
f 257/6/1 258/4/1 259/7/1 260/8/1
f 261/4/1 262/3/1 263/9/1 264/7/1
f 265/1/1 266/2/1 267/3/1 268/4/1
f 269/6/1 270/4/1 271/7/1 272/8/1
f 273/4/1 274/3/1 275/9/1 276/7/1
f 277/6/1 278/4/1 279/7/1 280/8/1
f 281/6/1 282/4/1 283/7/1 284/8/1
f 285/5/1 286/1/1 287/4/1 288/6/1
f 289/4/1 290/3/1 291/9/1 292/7/1
f 293/4/1 294/3/1 295/9/1 296/7/1
f 297/5/1 298/1/1 299/4/1 300/6/1
f 301/4/1 302/3/1 303/9/1 304/7/1
f 305/1/1 306/2/1 307/3/1 308/4/1
f 309/5/1 310/1/1 311/4/1 312/6/1
f 313/4/1 314/3/1 315/9/1 316/7/1
f 317/4/1 318/3/1 319/9/1 320/7/1
f 321/6/1 322/4/1 323/7/1 324/8/1
f 325/4/1 326/3/1 327/9/1 328/7/1
f 329/5/1 330/1/1 331/4/1 332/6/1
f 333/6/1 334/4/1 335/7/1 336/8/1
f 337/4/1 338/3/1 339/9/1 340/7/1
f 341/1/1 342/2/1 343/3/1 344/4/1
f 345/1/1 346/2/1 347/3/1 348/4/1
f 349/4/1 350/3/1 351/9/1 352/7/1
f 353/4/1 354/3/1 355/9/1 356/7/1
f 357/1/1 358/2/1 359/3/1 360/4/1
f 361/6/1 362/4/1 363/7/1 364/8/1
f 365/6/1 366/4/1 367/7/1 368/8/1
f 369/5/1 370/1/1 371/4/1 372/6/1
f 373/1/1 374/2/1 375/3/1 376/4/1
f 377/4/1 378/3/1 379/9/1 380/7/1
f 381/6/1 382/4/1 383/7/1 384/8/1
f 385/5/1 386/1/1 387/4/1 388/6/1
f 389/4/1 390/3/1 391/9/1 392/7/1
f 393/1/1 394/2/1 395/3/1 396/4/1
f 397/6/1 398/4/1 399/7/1 400/8/1
f 401/5/1 402/1/1 403/4/1 404/6/1
f 405/6/1 406/4/1 407/7/1 408/8/1
f 409/5/1 410/1/1 411/4/1 412/6/1
f 413/1/1 414/2/1 415/3/1 416/4/1
f 417/1/1 418/2/1 419/3/1 420/4/1
f 421/6/1 422/4/1 423/7/1 424/8/1
f 425/5/1 426/1/1 427/4/1 428/6/1
f 429/6/1 430/4/1 431/7/1 432/8/1
f 433/1/1 434/2/1 435/3/1 436/4/1
f 437/1/1 438/2/1 439/3/1 440/4/1
f 441/4/1 442/3/1 443/9/1 444/7/1
f 445/6/1 446/4/1 447/7/1 448/8/1
f 449/4/1 450/3/1 451/9/1 452/7/1
f 453/1/1 454/2/1 455/3/1 456/4/1
f 457/4/1 458/3/1 459/9/1 460/7/1
f 461/4/1 462/3/1 463/9/1 464/7/1
f 465/6/1 466/4/1 467/7/1 468/8/1
f 469/5/1 470/1/1 471/4/1 472/6/1
f 473/1/1 474/2/1 475/3/1 476/4/1
f 477/4/1 478/3/1 479/9/1 480/7/1
f 481/4/1 482/3/1 483/9/1 484/7/1
f 485/1/1 486/2/1 487/3/1 488/4/1
f 489/5/1 490/1/1 491/4/1 492/6/1
f 493/4/1 494/3/1 495/9/1 496/7/1
f 497/6/1 498/4/1 499/7/1 500/8/1
f 501/4/1 502/3/1 503/9/1 504/7/1
f 505/6/1 506/4/1 507/7/1 508/8/1
f 509/5/1 510/1/1 511/4/1 512/6/1
f 513/6/1 514/4/1 515/7/1 516/8/1
f 517/4/1 518/3/1 519/9/1 520/7/1
f 521/1/1 522/2/1 523/3/1 524/4/1
f 525/1/1 526/2/1 527/3/1 528/4/1
f 529/5/1 530/1/1 531/4/1 532/6/1
f 533/4/1 534/3/1 535/9/1 536/7/1
f 537/1/1 538/2/1 539/3/1 540/4/1
f 541/6/1 542/4/1 543/7/1 544/8/1
f 545/5/1 546/1/1 547/4/1 548/6/1
f 549/5/1 550/1/1 551/4/1 552/6/1
f 553/6/1 554/4/1 555/7/1 556/8/1
f 557/4/1 558/3/1 559/9/1 560/7/1
f 561/4/1 562/3/1 563/9/1 564/7/1
f 565/6/1 566/4/1 567/7/1 568/8/1
f 569/6/1 570/4/1 571/7/1 572/8/1
f 573/6/1 574/4/1 575/7/1 576/8/1
f 577/5/1 578/1/1 579/4/1 580/6/1
f 581/6/1 582/4/1 583/7/1 584/8/1
f 585/1/1 586/2/1 587/3/1 588/4/1
f 589/6/1 590/4/1 591/7/1 592/8/1
f 593/6/1 594/4/1 595/7/1 596/8/1
f 597/4/1 598/3/1 599/9/1 600/7/1
f 601/6/1 602/4/1 603/7/1 604/8/1
f 605/1/1 606/2/1 607/3/1 608/4/1
f 609/5/1 610/1/1 611/4/1 612/6/1
f 613/4/1 614/3/1 615/9/1 616/7/1
f 617/6/1 618/4/1 619/7/1 620/8/1
f 621/1/1 622/2/1 623/3/1 624/4/1
f 625/4/1 626/3/1 627/9/1 628/7/1
f 629/6/1 630/4/1 631/7/1 632/8/1
f 633/5/1 634/1/1 635/4/1 636/6/1
f 637/1/1 638/2/1 639/3/1 640/4/1
f 641/6/1 642/4/1 643/7/1 644/8/1
f 645/1/1 646/2/1 647/3/1 648/4/1
f 649/5/1 650/1/1 651/4/1 652/6/1
f 653/1/1 654/2/1 655/3/1 656/4/1
f 657/1/1 658/2/1 659/3/1 660/4/1
f 661/6/1 662/4/1 663/7/1 664/8/1
f 665/5/1 666/1/1 667/4/1 668/6/1
f 669/5/1 670/1/1 671/4/1 672/6/1
f 673/1/1 674/2/1 675/3/1 676/4/1
f 677/1/1 678/2/1 679/3/1 680/4/1
f 681/4/1 682/3/1 683/9/1 684/7/1
f 685/4/1 686/3/1 687/9/1 688/7/1
f 689/6/1 690/4/1 691/7/1 692/8/1
f 693/5/1 694/1/1 695/4/1 696/6/1
f 697/5/1 698/1/1 699/4/1 700/6/1
f 701/5/1 702/1/1 703/4/1 704/6/1
f 705/5/1 706/1/1 707/4/1 708/6/1
f 709/6/1 710/4/1 711/7/1 712/8/1
f 713/1/1 714/2/1 715/3/1 716/4/1
f 717/4/1 718/3/1 719/9/1 720/7/1
f 721/6/1 722/4/1 723/7/1 724/8/1
f 725/4/1 726/3/1 727/9/1 728/7/1
f 729/4/1 730/3/1 731/9/1 732/7/1
f 733/1/1 734/2/1 735/3/1 736/4/1
f 737/4/1 738/3/1 739/9/1 740/7/1
f 741/5/1 742/1/1 743/4/1 744/6/1
f 745/4/1 746/3/1 747/9/1 748/7/1
f 749/6/1 750/4/1 751/7/1 752/8/1
f 753/5/1 754/1/1 755/4/1 756/6/1
f 757/1/1 758/2/1 759/3/1 760/4/1
f 761/6/1 762/4/1 763/7/1 764/8/1
f 765/4/1 766/3/1 767/9/1 768/7/1
f 769/10/1 770/11/1 771/12/1 772/13/1
f 773/10/1 774/11/1 775/12/1 776/13/1
f 777/10/1 778/11/1 779/12/1 780/13/1
f 781/10/1 782/11/1 783/12/1 784/13/1
f 785/10/1 786/11/1 787/12/1 788/13/1
f 789/10/1 790/11/1 791/12/1 792/13/1
f 793/5/1 794/1/1 795/4/1 796/6/1
f 797/6/1 798/4/1 799/7/1 800/8/1
f 801/4/1 802/3/1 803/9/1 804/7/1
f 805/4/1 806/3/1 807/9/1 808/7/1
f 809/6/1 810/4/1 811/7/1 812/8/1
f 813/5/1 814/1/1 815/4/1 816/6/1
f 817/6/1 818/4/1 819/7/1 820/8/1
f 821/4/1 822/3/1 823/9/1 824/7/1
f 825/5/1 826/1/1 827/4/1 828/6/1
f 829/1/1 830/2/1 831/3/1 832/4/1
f 833/10/1 834/11/1 835/12/1 836/13/1
f 837/10/1 838/11/1 839/12/1 840/13/1
f 841/10/1 842/11/1 843/12/1 844/13/1
f 845/10/1 846/11/1 847/12/1 848/13/1
f 849/10/1 850/11/1 851/12/1 852/13/1
f 853/10/1 854/11/1 855/12/1 856/13/1
f 857/6/1 858/4/1 859/7/1 860/8/1
f 861/6/1 862/4/1 863/7/1 864/8/1
f 865/4/1 866/3/1 867/9/1 868/7/1
f 869/6/1 870/4/1 871/7/1 872/8/1
f 873/5/1 874/1/1 875/4/1 876/6/1
f 877/1/1 878/2/1 879/3/1 880/4/1
f 881/4/1 882/3/1 883/9/1 884/7/1
f 885/5/1 886/1/1 887/4/1 888/6/1
f 889/5/1 890/1/1 891/4/1 892/6/1
f 893/4/1 894/3/1 895/9/1 896/7/1
f 897/6/1 898/4/1 899/7/1 900/8/1
f 901/1/1 902/2/1 903/3/1 904/4/1
f 905/1/1 906/2/1 907/3/1 908/4/1
f 909/1/1 910/2/1 911/3/1 912/4/1
f 913/1/1 914/2/1 915/3/1 916/4/1
f 917/5/1 918/1/1 919/4/1 920/6/1
f 921/1/1 922/2/1 923/3/1 924/4/1
f 925/4/1 926/3/1 927/9/1 928/7/1
f 929/6/1 930/4/1 931/7/1 932/8/1
f 933/5/1 934/1/1 935/4/1 936/6/1
f 937/6/1 938/4/1 939/7/1 940/8/1
f 941/6/1 942/4/1 943/7/1 944/8/1
f 945/5/1 946/1/1 947/4/1 948/6/1
f 949/1/1 950/2/1 951/3/1 952/4/1
f 953/4/1 954/3/1 955/9/1 956/7/1
f 957/6/1 958/4/1 959/7/1 960/8/1
f 961/5/1 962/1/1 963/4/1 964/6/1
f 965/1/1 966/2/1 967/3/1 968/4/1
f 969/1/1 970/2/1 971/3/1 972/4/1
f 973/5/1 974/1/1 975/4/1 976/6/1
f 977/6/1 978/4/1 979/7/1 980/8/1
f 981/4/1 982/3/1 983/9/1 984/7/1
f 985/4/1 986/3/1 987/9/1 988/7/1
f 989/6/1 990/4/1 991/7/1 992/8/1
f 993/5/1 994/1/1 995/4/1 996/6/1
f 997/5/1 998/1/1 999/4/1 1000/6/1
f 1001/4/1 1002/3/1 1003/9/1 1004/7/1
f 1005/5/1 1006/1/1 1007/4/1 1008/6/1
f 1009/4/1 1010/3/1 1011/9/1 1012/7/1
f 1013/1/1 1014/2/1 1015/3/1 1016/4/1
f 1017/6/1 1018/4/1 1019/7/1 1020/8/1
f 1021/5/1 1022/1/1 1023/4/1 1024/6/1

