# Tiled2Unity generated file. Do not modify by hand.
# Wavefront file for 'Village_mesh_0101.obj'

# Vertices (Count = 8)
v -144 -256 0
v -160 -256 0
v -160 -240 0
v -144 -240 0
v -128 -256 0
v -144 -256 0
v -144 -240 0
v -128 -240 0

# Texture cooridinates (Count = 6)
vt 0.046875 0.2936508
vt 0.0625 0.2936508
vt 0.0625 0.3015873
vt 0.046875 0.3015873
vt 0.03125 0.2936508
vt 0.03125 0.3015873

# Normal
vn 0 0 -1

# Mesh description
g Village_mesh_0101

# Faces
f 1/1/1 2/2/1 3/3/1 4/4/1
f 5/5/1 6/1/1 7/4/1 8/6/1

