# Tiled2Unity generated file. Do not modify by hand.
# Wavefront file for 'Village_mesh_0011.obj'

# Vertices (Count = 1024)
v -240 -16 0
v -256 -16 0
v -256 0 0
v -240 0 0
v -224 -16 0
v -240 -16 0
v -240 0 0
v -224 0 0
v -208 -16 0
v -224 -16 0
v -224 0 0
v -208 0 0
v -192 -16 0
v -208 -16 0
v -208 0 0
v -192 0 0
v -176 -16 0
v -192 -16 0
v -192 0 0
v -176 0 0
v -160 -16 0
v -176 -16 0
v -176 0 0
v -160 0 0
v -144 -16 0
v -160 -16 0
v -160 0 0
v -144 0 0
v -128 -16 0
v -144 -16 0
v -144 0 0
v -128 0 0
v -112 -16 0
v -128 -16 0
v -128 0 0
v -112 0 0
v -96 -16 0
v -112 -16 0
v -112 0 0
v -96 0 0
v -80 -16 0
v -96 -16 0
v -96 0 0
v -80 0 0
v -64 -16 0
v -80 -16 0
v -80 0 0
v -64 0 0
v -48 -16 0
v -64 -16 0
v -64 0 0
v -48 0 0
v -32 -16 0
v -48 -16 0
v -48 0 0
v -32 0 0
v -16 -16 0
v -32 -16 0
v -32 0 0
v -16 0 0
v 0 -16 0
v -16 -16 0
v -16 0 0
v 0 0 0
v -240 -32 0
v -256 -32 0
v -256 -16 0
v -240 -16 0
v -224 -32 0
v -240 -32 0
v -240 -16 0
v -224 -16 0
v -208 -32 0
v -224 -32 0
v -224 -16 0
v -208 -16 0
v -192 -32 0
v -208 -32 0
v -208 -16 0
v -192 -16 0
v -176 -32 0
v -192 -32 0
v -192 -16 0
v -176 -16 0
v -160 -32 0
v -176 -32 0
v -176 -16 0
v -160 -16 0
v -144 -32 0
v -160 -32 0
v -160 -16 0
v -144 -16 0
v -128 -32 0
v -144 -32 0
v -144 -16 0
v -128 -16 0
v -112 -32 0
v -128 -32 0
v -128 -16 0
v -112 -16 0
v -96 -32 0
v -112 -32 0
v -112 -16 0
v -96 -16 0
v -80 -32 0
v -96 -32 0
v -96 -16 0
v -80 -16 0
v -64 -32 0
v -80 -32 0
v -80 -16 0
v -64 -16 0
v -48 -32 0
v -64 -32 0
v -64 -16 0
v -48 -16 0
v -32 -32 0
v -48 -32 0
v -48 -16 0
v -32 -16 0
v -16 -32 0
v -32 -32 0
v -32 -16 0
v -16 -16 0
v 0 -32 0
v -16 -32 0
v -16 -16 0
v 0 -16 0
v -240 -48 0
v -256 -48 0
v -256 -32 0
v -240 -32 0
v -224 -48 0
v -240 -48 0
v -240 -32 0
v -224 -32 0
v -208 -48 0
v -224 -48 0
v -224 -32 0
v -208 -32 0
v -192 -48 0
v -208 -48 0
v -208 -32 0
v -192 -32 0
v -176 -48 0
v -192 -48 0
v -192 -32 0
v -176 -32 0
v -160 -48 0
v -176 -48 0
v -176 -32 0
v -160 -32 0
v -144 -48 0
v -160 -48 0
v -160 -32 0
v -144 -32 0
v -128 -48 0
v -144 -48 0
v -144 -32 0
v -128 -32 0
v -112 -48 0
v -128 -48 0
v -128 -32 0
v -112 -32 0
v -96 -48 0
v -112 -48 0
v -112 -32 0
v -96 -32 0
v -80 -48 0
v -96 -48 0
v -96 -32 0
v -80 -32 0
v -64 -48 0
v -80 -48 0
v -80 -32 0
v -64 -32 0
v -48 -48 0
v -64 -48 0
v -64 -32 0
v -48 -32 0
v -32 -48 0
v -48 -48 0
v -48 -32 0
v -32 -32 0
v -16 -48 0
v -32 -48 0
v -32 -32 0
v -16 -32 0
v 0 -48 0
v -16 -48 0
v -16 -32 0
v 0 -32 0
v -240 -64 0
v -256 -64 0
v -256 -48 0
v -240 -48 0
v -224 -64 0
v -240 -64 0
v -240 -48 0
v -224 -48 0
v -208 -64 0
v -224 -64 0
v -224 -48 0
v -208 -48 0
v -192 -64 0
v -208 -64 0
v -208 -48 0
v -192 -48 0
v -176 -64 0
v -192 -64 0
v -192 -48 0
v -176 -48 0
v -160 -64 0
v -176 -64 0
v -176 -48 0
v -160 -48 0
v -144 -64 0
v -160 -64 0
v -160 -48 0
v -144 -48 0
v -128 -64 0
v -144 -64 0
v -144 -48 0
v -128 -48 0
v -112 -64 0
v -128 -64 0
v -128 -48 0
v -112 -48 0
v -96 -64 0
v -112 -64 0
v -112 -48 0
v -96 -48 0
v -80 -64 0
v -96 -64 0
v -96 -48 0
v -80 -48 0
v -64 -64 0
v -80 -64 0
v -80 -48 0
v -64 -48 0
v -48 -64 0
v -64 -64 0
v -64 -48 0
v -48 -48 0
v -32 -64 0
v -48 -64 0
v -48 -48 0
v -32 -48 0
v -16 -64 0
v -32 -64 0
v -32 -48 0
v -16 -48 0
v 0 -64 0
v -16 -64 0
v -16 -48 0
v 0 -48 0
v -240 -80 0
v -256 -80 0
v -256 -64 0
v -240 -64 0
v -224 -80 0
v -240 -80 0
v -240 -64 0
v -224 -64 0
v -208 -80 0
v -224 -80 0
v -224 -64 0
v -208 -64 0
v -192 -80 0
v -208 -80 0
v -208 -64 0
v -192 -64 0
v -176 -80 0
v -192 -80 0
v -192 -64 0
v -176 -64 0
v -160 -80 0
v -176 -80 0
v -176 -64 0
v -160 -64 0
v -144 -80 0
v -160 -80 0
v -160 -64 0
v -144 -64 0
v -128 -80 0
v -144 -80 0
v -144 -64 0
v -128 -64 0
v -112 -80 0
v -128 -80 0
v -128 -64 0
v -112 -64 0
v -96 -80 0
v -112 -80 0
v -112 -64 0
v -96 -64 0
v -80 -80 0
v -96 -80 0
v -96 -64 0
v -80 -64 0
v -64 -80 0
v -80 -80 0
v -80 -64 0
v -64 -64 0
v -48 -80 0
v -64 -80 0
v -64 -64 0
v -48 -64 0
v -32 -80 0
v -48 -80 0
v -48 -64 0
v -32 -64 0
v -16 -80 0
v -32 -80 0
v -32 -64 0
v -16 -64 0
v 0 -80 0
v -16 -80 0
v -16 -64 0
v 0 -64 0
v -240 -96 0
v -256 -96 0
v -256 -80 0
v -240 -80 0
v -224 -96 0
v -240 -96 0
v -240 -80 0
v -224 -80 0
v -208 -96 0
v -224 -96 0
v -224 -80 0
v -208 -80 0
v -192 -96 0
v -208 -96 0
v -208 -80 0
v -192 -80 0
v -176 -96 0
v -192 -96 0
v -192 -80 0
v -176 -80 0
v -160 -96 0
v -176 -96 0
v -176 -80 0
v -160 -80 0
v -144 -96 0
v -160 -96 0
v -160 -80 0
v -144 -80 0
v -128 -96 0
v -144 -96 0
v -144 -80 0
v -128 -80 0
v -112 -96 0
v -128 -96 0
v -128 -80 0
v -112 -80 0
v -96 -96 0
v -112 -96 0
v -112 -80 0
v -96 -80 0
v -80 -96 0
v -96 -96 0
v -96 -80 0
v -80 -80 0
v -64 -96 0
v -80 -96 0
v -80 -80 0
v -64 -80 0
v -48 -96 0
v -64 -96 0
v -64 -80 0
v -48 -80 0
v -32 -96 0
v -48 -96 0
v -48 -80 0
v -32 -80 0
v -16 -96 0
v -32 -96 0
v -32 -80 0
v -16 -80 0
v 0 -96 0
v -16 -96 0
v -16 -80 0
v 0 -80 0
v -240 -112 0
v -256 -112 0
v -256 -96 0
v -240 -96 0
v -224 -112 0
v -240 -112 0
v -240 -96 0
v -224 -96 0
v -208 -112 0
v -224 -112 0
v -224 -96 0
v -208 -96 0
v -192 -112 0
v -208 -112 0
v -208 -96 0
v -192 -96 0
v -176 -112 0
v -192 -112 0
v -192 -96 0
v -176 -96 0
v -160 -112 0
v -176 -112 0
v -176 -96 0
v -160 -96 0
v -144 -112 0
v -160 -112 0
v -160 -96 0
v -144 -96 0
v -128 -112 0
v -144 -112 0
v -144 -96 0
v -128 -96 0
v -112 -112 0
v -128 -112 0
v -128 -96 0
v -112 -96 0
v -96 -112 0
v -112 -112 0
v -112 -96 0
v -96 -96 0
v -80 -112 0
v -96 -112 0
v -96 -96 0
v -80 -96 0
v -64 -112 0
v -80 -112 0
v -80 -96 0
v -64 -96 0
v -48 -112 0
v -64 -112 0
v -64 -96 0
v -48 -96 0
v -32 -112 0
v -48 -112 0
v -48 -96 0
v -32 -96 0
v -16 -112 0
v -32 -112 0
v -32 -96 0
v -16 -96 0
v 0 -112 0
v -16 -112 0
v -16 -96 0
v 0 -96 0
v -240 -128 0
v -256 -128 0
v -256 -112 0
v -240 -112 0
v -224 -128 0
v -240 -128 0
v -240 -112 0
v -224 -112 0
v -208 -128 0
v -224 -128 0
v -224 -112 0
v -208 -112 0
v -192 -128 0
v -208 -128 0
v -208 -112 0
v -192 -112 0
v -176 -128 0
v -192 -128 0
v -192 -112 0
v -176 -112 0
v -160 -128 0
v -176 -128 0
v -176 -112 0
v -160 -112 0
v -144 -128 0
v -160 -128 0
v -160 -112 0
v -144 -112 0
v -128 -128 0
v -144 -128 0
v -144 -112 0
v -128 -112 0
v -112 -128 0
v -128 -128 0
v -128 -112 0
v -112 -112 0
v -96 -128 0
v -112 -128 0
v -112 -112 0
v -96 -112 0
v -80 -128 0
v -96 -128 0
v -96 -112 0
v -80 -112 0
v -64 -128 0
v -80 -128 0
v -80 -112 0
v -64 -112 0
v -48 -128 0
v -64 -128 0
v -64 -112 0
v -48 -112 0
v -32 -128 0
v -48 -128 0
v -48 -112 0
v -32 -112 0
v -16 -128 0
v -32 -128 0
v -32 -112 0
v -16 -112 0
v 0 -128 0
v -16 -128 0
v -16 -112 0
v 0 -112 0
v -240 -144 0
v -256 -144 0
v -256 -128 0
v -240 -128 0
v -224 -144 0
v -240 -144 0
v -240 -128 0
v -224 -128 0
v -208 -144 0
v -224 -144 0
v -224 -128 0
v -208 -128 0
v -192 -144 0
v -208 -144 0
v -208 -128 0
v -192 -128 0
v -176 -144 0
v -192 -144 0
v -192 -128 0
v -176 -128 0
v -160 -144 0
v -176 -144 0
v -176 -128 0
v -160 -128 0
v -144 -144 0
v -160 -144 0
v -160 -128 0
v -144 -128 0
v -128 -144 0
v -144 -144 0
v -144 -128 0
v -128 -128 0
v -112 -144 0
v -128 -144 0
v -128 -128 0
v -112 -128 0
v -96 -144 0
v -112 -144 0
v -112 -128 0
v -96 -128 0
v -80 -144 0
v -96 -144 0
v -96 -128 0
v -80 -128 0
v -64 -144 0
v -80 -144 0
v -80 -128 0
v -64 -128 0
v -48 -144 0
v -64 -144 0
v -64 -128 0
v -48 -128 0
v -32 -144 0
v -48 -144 0
v -48 -128 0
v -32 -128 0
v -16 -144 0
v -32 -144 0
v -32 -128 0
v -16 -128 0
v 0 -144 0
v -16 -144 0
v -16 -128 0
v 0 -128 0
v -240 -160 0
v -256 -160 0
v -256 -144 0
v -240 -144 0
v -224 -160 0
v -240 -160 0
v -240 -144 0
v -224 -144 0
v -208 -160 0
v -224 -160 0
v -224 -144 0
v -208 -144 0
v -192 -160 0
v -208 -160 0
v -208 -144 0
v -192 -144 0
v -176 -160 0
v -192 -160 0
v -192 -144 0
v -176 -144 0
v -160 -160 0
v -176 -160 0
v -176 -144 0
v -160 -144 0
v -144 -160 0
v -160 -160 0
v -160 -144 0
v -144 -144 0
v -128 -160 0
v -144 -160 0
v -144 -144 0
v -128 -144 0
v -112 -160 0
v -128 -160 0
v -128 -144 0
v -112 -144 0
v -96 -160 0
v -112 -160 0
v -112 -144 0
v -96 -144 0
v -80 -160 0
v -96 -160 0
v -96 -144 0
v -80 -144 0
v -64 -160 0
v -80 -160 0
v -80 -144 0
v -64 -144 0
v -48 -160 0
v -64 -160 0
v -64 -144 0
v -48 -144 0
v -32 -160 0
v -48 -160 0
v -48 -144 0
v -32 -144 0
v -16 -160 0
v -32 -160 0
v -32 -144 0
v -16 -144 0
v 0 -160 0
v -16 -160 0
v -16 -144 0
v 0 -144 0
v -240 -176 0
v -256 -176 0
v -256 -160 0
v -240 -160 0
v -224 -176 0
v -240 -176 0
v -240 -160 0
v -224 -160 0
v -208 -176 0
v -224 -176 0
v -224 -160 0
v -208 -160 0
v -192 -176 0
v -208 -176 0
v -208 -160 0
v -192 -160 0
v -176 -176 0
v -192 -176 0
v -192 -160 0
v -176 -160 0
v -160 -176 0
v -176 -176 0
v -176 -160 0
v -160 -160 0
v -144 -176 0
v -160 -176 0
v -160 -160 0
v -144 -160 0
v -128 -176 0
v -144 -176 0
v -144 -160 0
v -128 -160 0
v -112 -176 0
v -128 -176 0
v -128 -160 0
v -112 -160 0
v -96 -176 0
v -112 -176 0
v -112 -160 0
v -96 -160 0
v -80 -176 0
v -96 -176 0
v -96 -160 0
v -80 -160 0
v -64 -176 0
v -80 -176 0
v -80 -160 0
v -64 -160 0
v -48 -176 0
v -64 -176 0
v -64 -160 0
v -48 -160 0
v -32 -176 0
v -48 -176 0
v -48 -160 0
v -32 -160 0
v -16 -176 0
v -32 -176 0
v -32 -160 0
v -16 -160 0
v 0 -176 0
v -16 -176 0
v -16 -160 0
v 0 -160 0
v -240 -192 0
v -256 -192 0
v -256 -176 0
v -240 -176 0
v -224 -192 0
v -240 -192 0
v -240 -176 0
v -224 -176 0
v -208 -192 0
v -224 -192 0
v -224 -176 0
v -208 -176 0
v -192 -192 0
v -208 -192 0
v -208 -176 0
v -192 -176 0
v -176 -192 0
v -192 -192 0
v -192 -176 0
v -176 -176 0
v -160 -192 0
v -176 -192 0
v -176 -176 0
v -160 -176 0
v -144 -192 0
v -160 -192 0
v -160 -176 0
v -144 -176 0
v -128 -192 0
v -144 -192 0
v -144 -176 0
v -128 -176 0
v -112 -192 0
v -128 -192 0
v -128 -176 0
v -112 -176 0
v -96 -192 0
v -112 -192 0
v -112 -176 0
v -96 -176 0
v -80 -192 0
v -96 -192 0
v -96 -176 0
v -80 -176 0
v -64 -192 0
v -80 -192 0
v -80 -176 0
v -64 -176 0
v -48 -192 0
v -64 -192 0
v -64 -176 0
v -48 -176 0
v -32 -192 0
v -48 -192 0
v -48 -176 0
v -32 -176 0
v -16 -192 0
v -32 -192 0
v -32 -176 0
v -16 -176 0
v 0 -192 0
v -16 -192 0
v -16 -176 0
v 0 -176 0
v -240 -208 0
v -256 -208 0
v -256 -192 0
v -240 -192 0
v -224 -208 0
v -240 -208 0
v -240 -192 0
v -224 -192 0
v -208 -208 0
v -224 -208 0
v -224 -192 0
v -208 -192 0
v -192 -208 0
v -208 -208 0
v -208 -192 0
v -192 -192 0
v -176 -208 0
v -192 -208 0
v -192 -192 0
v -176 -192 0
v -160 -208 0
v -176 -208 0
v -176 -192 0
v -160 -192 0
v -144 -208 0
v -160 -208 0
v -160 -192 0
v -144 -192 0
v -128 -208 0
v -144 -208 0
v -144 -192 0
v -128 -192 0
v -112 -208 0
v -128 -208 0
v -128 -192 0
v -112 -192 0
v -96 -208 0
v -112 -208 0
v -112 -192 0
v -96 -192 0
v -80 -208 0
v -96 -208 0
v -96 -192 0
v -80 -192 0
v -64 -208 0
v -80 -208 0
v -80 -192 0
v -64 -192 0
v -48 -208 0
v -64 -208 0
v -64 -192 0
v -48 -192 0
v -32 -208 0
v -48 -208 0
v -48 -192 0
v -32 -192 0
v -16 -208 0
v -32 -208 0
v -32 -192 0
v -16 -192 0
v 0 -208 0
v -16 -208 0
v -16 -192 0
v 0 -192 0
v -240 -224 0
v -256 -224 0
v -256 -208 0
v -240 -208 0
v -224 -224 0
v -240 -224 0
v -240 -208 0
v -224 -208 0
v -208 -224 0
v -224 -224 0
v -224 -208 0
v -208 -208 0
v -192 -224 0
v -208 -224 0
v -208 -208 0
v -192 -208 0
v -176 -224 0
v -192 -224 0
v -192 -208 0
v -176 -208 0
v -160 -224 0
v -176 -224 0
v -176 -208 0
v -160 -208 0
v -144 -224 0
v -160 -224 0
v -160 -208 0
v -144 -208 0
v -128 -224 0
v -144 -224 0
v -144 -208 0
v -128 -208 0
v -112 -224 0
v -128 -224 0
v -128 -208 0
v -112 -208 0
v -96 -224 0
v -112 -224 0
v -112 -208 0
v -96 -208 0
v -80 -224 0
v -96 -224 0
v -96 -208 0
v -80 -208 0
v -64 -224 0
v -80 -224 0
v -80 -208 0
v -64 -208 0
v -48 -224 0
v -64 -224 0
v -64 -208 0
v -48 -208 0
v -32 -224 0
v -48 -224 0
v -48 -208 0
v -32 -208 0
v -16 -224 0
v -32 -224 0
v -32 -208 0
v -16 -208 0
v 0 -224 0
v -16 -224 0
v -16 -208 0
v 0 -208 0
v -240 -240 0
v -256 -240 0
v -256 -224 0
v -240 -224 0
v -224 -240 0
v -240 -240 0
v -240 -224 0
v -224 -224 0
v -208 -240 0
v -224 -240 0
v -224 -224 0
v -208 -224 0
v -192 -240 0
v -208 -240 0
v -208 -224 0
v -192 -224 0
v -176 -240 0
v -192 -240 0
v -192 -224 0
v -176 -224 0
v -160 -240 0
v -176 -240 0
v -176 -224 0
v -160 -224 0
v -144 -240 0
v -160 -240 0
v -160 -224 0
v -144 -224 0
v -128 -240 0
v -144 -240 0
v -144 -224 0
v -128 -224 0
v -112 -240 0
v -128 -240 0
v -128 -224 0
v -112 -224 0
v -96 -240 0
v -112 -240 0
v -112 -224 0
v -96 -224 0
v -80 -240 0
v -96 -240 0
v -96 -224 0
v -80 -224 0
v -64 -240 0
v -80 -240 0
v -80 -224 0
v -64 -224 0
v -48 -240 0
v -64 -240 0
v -64 -224 0
v -48 -224 0
v -32 -240 0
v -48 -240 0
v -48 -224 0
v -32 -224 0
v -16 -240 0
v -32 -240 0
v -32 -224 0
v -16 -224 0
v 0 -240 0
v -16 -240 0
v -16 -224 0
v 0 -224 0
v -240 -256 0
v -256 -256 0
v -256 -240 0
v -240 -240 0
v -224 -256 0
v -240 -256 0
v -240 -240 0
v -224 -240 0
v -208 -256 0
v -224 -256 0
v -224 -240 0
v -208 -240 0
v -192 -256 0
v -208 -256 0
v -208 -240 0
v -192 -240 0
v -176 -256 0
v -192 -256 0
v -192 -240 0
v -176 -240 0
v -160 -256 0
v -176 -256 0
v -176 -240 0
v -160 -240 0
v -144 -256 0
v -160 -256 0
v -160 -240 0
v -144 -240 0
v -128 -256 0
v -144 -256 0
v -144 -240 0
v -128 -240 0
v -112 -256 0
v -128 -256 0
v -128 -240 0
v -112 -240 0
v -96 -256 0
v -112 -256 0
v -112 -240 0
v -96 -240 0
v -80 -256 0
v -96 -256 0
v -96 -240 0
v -80 -240 0
v -64 -256 0
v -80 -256 0
v -80 -240 0
v -64 -240 0
v -48 -256 0
v -64 -256 0
v -64 -240 0
v -48 -240 0
v -32 -256 0
v -48 -256 0
v -48 -240 0
v -32 -240 0
v -16 -256 0
v -32 -256 0
v -32 -240 0
v -16 -240 0
v 0 -256 0
v -16 -256 0
v -16 -240 0
v 0 -240 0

# Texture cooridinates (Count = 9)
vt 0.175 0.7222222
vt 0.2 0.7222222
vt 0.2 0.75
vt 0.175 0.75
vt 0.175 0.6944444
vt 0.2 0.6944444
vt 0.225 0.6944444
vt 0.225 0.7222222
vt 0.225 0.75

# Normal
vn 0 0 -1

# Mesh description
g Village_mesh_0011

# Faces
f 1/1/1 2/2/1 3/3/1 4/4/1
f 5/5/1 6/6/1 7/2/1 8/1/1
f 9/1/1 10/2/1 11/3/1 12/4/1
f 13/6/1 14/7/1 15/8/1 16/2/1
f 17/5/1 18/6/1 19/2/1 20/1/1
f 21/2/1 22/8/1 23/9/1 24/3/1
f 25/6/1 26/7/1 27/8/1 28/2/1
f 29/6/1 30/7/1 31/8/1 32/2/1
f 33/2/1 34/8/1 35/9/1 36/3/1
f 37/5/1 38/6/1 39/2/1 40/1/1
f 41/2/1 42/8/1 43/9/1 44/3/1
f 45/6/1 46/7/1 47/8/1 48/2/1
f 49/6/1 50/7/1 51/8/1 52/2/1
f 53/1/1 54/2/1 55/3/1 56/4/1
f 57/6/1 58/7/1 59/8/1 60/2/1
f 61/2/1 62/8/1 63/9/1 64/3/1
f 65/5/1 66/6/1 67/2/1 68/1/1
f 69/2/1 70/8/1 71/9/1 72/3/1
f 73/5/1 74/6/1 75/2/1 76/1/1
f 77/2/1 78/8/1 79/9/1 80/3/1
f 81/5/1 82/6/1 83/2/1 84/1/1
f 85/5/1 86/6/1 87/2/1 88/1/1
f 89/2/1 90/8/1 91/9/1 92/3/1
f 93/6/1 94/7/1 95/8/1 96/2/1
f 97/2/1 98/8/1 99/9/1 100/3/1
f 101/2/1 102/8/1 103/9/1 104/3/1
f 105/1/1 106/2/1 107/3/1 108/4/1
f 109/1/1 110/2/1 111/3/1 112/4/1
f 113/1/1 114/2/1 115/3/1 116/4/1
f 117/5/1 118/6/1 119/2/1 120/1/1
f 121/1/1 122/2/1 123/3/1 124/4/1
f 125/6/1 126/7/1 127/8/1 128/2/1
f 129/1/1 130/2/1 131/3/1 132/4/1
f 133/1/1 134/2/1 135/3/1 136/4/1
f 137/6/1 138/7/1 139/8/1 140/2/1
f 141/1/1 142/2/1 143/3/1 144/4/1
f 145/6/1 146/7/1 147/8/1 148/2/1
f 149/5/1 150/6/1 151/2/1 152/1/1
f 153/2/1 154/8/1 155/9/1 156/3/1
f 157/2/1 158/8/1 159/9/1 160/3/1
f 161/1/1 162/2/1 163/3/1 164/4/1
f 165/2/1 166/8/1 167/9/1 168/3/1
f 169/1/1 170/2/1 171/3/1 172/4/1
f 173/1/1 174/2/1 175/3/1 176/4/1
f 177/2/1 178/8/1 179/9/1 180/3/1
f 181/6/1 182/7/1 183/8/1 184/2/1
f 185/1/1 186/2/1 187/3/1 188/4/1
f 189/6/1 190/7/1 191/8/1 192/2/1
f 193/2/1 194/8/1 195/9/1 196/3/1
f 197/6/1 198/7/1 199/8/1 200/2/1
f 201/5/1 202/6/1 203/2/1 204/1/1
f 205/2/1 206/8/1 207/9/1 208/3/1
f 209/1/1 210/2/1 211/3/1 212/4/1
f 213/5/1 214/6/1 215/2/1 216/1/1
f 217/1/1 218/2/1 219/3/1 220/4/1
f 221/5/1 222/6/1 223/2/1 224/1/1
f 225/5/1 226/6/1 227/2/1 228/1/1
f 229/6/1 230/7/1 231/8/1 232/2/1
f 233/2/1 234/8/1 235/9/1 236/3/1
f 237/6/1 238/7/1 239/8/1 240/2/1
f 241/6/1 242/7/1 243/8/1 244/2/1
f 245/6/1 246/7/1 247/8/1 248/2/1
f 249/1/1 250/2/1 251/3/1 252/4/1
f 253/1/1 254/2/1 255/3/1 256/4/1
f 257/1/1 258/2/1 259/3/1 260/4/1
f 261/5/1 262/6/1 263/2/1 264/1/1
f 265/5/1 266/6/1 267/2/1 268/1/1
f 269/6/1 270/7/1 271/8/1 272/2/1
f 273/6/1 274/7/1 275/8/1 276/2/1
f 277/2/1 278/8/1 279/9/1 280/3/1
f 281/2/1 282/8/1 283/9/1 284/3/1
f 285/2/1 286/8/1 287/9/1 288/3/1
f 289/2/1 290/8/1 291/9/1 292/3/1
f 293/1/1 294/2/1 295/3/1 296/4/1
f 297/1/1 298/2/1 299/3/1 300/4/1
f 301/1/1 302/2/1 303/3/1 304/4/1
f 305/6/1 306/7/1 307/8/1 308/2/1
f 309/5/1 310/6/1 311/2/1 312/1/1
f 313/6/1 314/7/1 315/8/1 316/2/1
f 317/2/1 318/8/1 319/9/1 320/3/1
f 321/5/1 322/6/1 323/2/1 324/1/1
f 325/6/1 326/7/1 327/8/1 328/2/1
f 329/6/1 330/7/1 331/8/1 332/2/1
f 333/2/1 334/8/1 335/9/1 336/3/1
f 337/5/1 338/6/1 339/2/1 340/1/1
f 341/1/1 342/2/1 343/3/1 344/4/1
f 345/6/1 346/7/1 347/8/1 348/2/1
f 349/1/1 350/2/1 351/3/1 352/4/1
f 353/1/1 354/2/1 355/3/1 356/4/1
f 357/2/1 358/8/1 359/9/1 360/3/1
f 361/5/1 362/6/1 363/2/1 364/1/1
f 365/6/1 366/7/1 367/8/1 368/2/1
f 369/2/1 370/8/1 371/9/1 372/3/1
f 373/6/1 374/7/1 375/8/1 376/2/1
f 377/2/1 378/8/1 379/9/1 380/3/1
f 381/2/1 382/8/1 383/9/1 384/3/1
f 385/1/1 386/2/1 387/3/1 388/4/1
f 389/1/1 390/2/1 391/3/1 392/4/1
f 393/1/1 394/2/1 395/3/1 396/4/1
f 397/1/1 398/2/1 399/3/1 400/4/1
f 401/6/1 402/7/1 403/8/1 404/2/1
f 405/6/1 406/7/1 407/8/1 408/2/1
f 409/6/1 410/7/1 411/8/1 412/2/1
f 413/6/1 414/7/1 415/8/1 416/2/1
f 417/1/1 418/2/1 419/3/1 420/4/1
f 421/1/1 422/2/1 423/3/1 424/4/1
f 425/6/1 426/7/1 427/8/1 428/2/1
f 429/6/1 430/7/1 431/8/1 432/2/1
f 433/2/1 434/8/1 435/9/1 436/3/1
f 437/1/1 438/2/1 439/3/1 440/4/1
f 441/2/1 442/8/1 443/9/1 444/3/1
f 445/6/1 446/7/1 447/8/1 448/2/1
f 449/2/1 450/8/1 451/9/1 452/3/1
f 453/6/1 454/7/1 455/8/1 456/2/1
f 457/1/1 458/2/1 459/3/1 460/4/1
f 461/6/1 462/7/1 463/8/1 464/2/1
f 465/5/1 466/6/1 467/2/1 468/1/1
f 469/1/1 470/2/1 471/3/1 472/4/1
f 473/5/1 474/6/1 475/2/1 476/1/1
f 477/1/1 478/2/1 479/3/1 480/4/1
f 481/5/1 482/6/1 483/2/1 484/1/1
f 485/5/1 486/6/1 487/2/1 488/1/1
f 489/1/1 490/2/1 491/3/1 492/4/1
f 493/5/1 494/6/1 495/2/1 496/1/1
f 497/2/1 498/8/1 499/9/1 500/3/1
f 501/1/1 502/2/1 503/3/1 504/4/1
f 505/2/1 506/8/1 507/9/1 508/3/1
f 509/1/1 510/2/1 511/3/1 512/4/1
f 513/1/1 514/2/1 515/3/1 516/4/1
f 517/6/1 518/7/1 519/8/1 520/2/1
f 521/6/1 522/7/1 523/8/1 524/2/1
f 525/1/1 526/2/1 527/3/1 528/4/1
f 529/2/1 530/8/1 531/9/1 532/3/1
f 533/6/1 534/7/1 535/8/1 536/2/1
f 537/5/1 538/6/1 539/2/1 540/1/1
f 541/1/1 542/2/1 543/3/1 544/4/1
f 545/6/1 546/7/1 547/8/1 548/2/1
f 549/6/1 550/7/1 551/8/1 552/2/1
f 553/2/1 554/8/1 555/9/1 556/3/1
f 557/2/1 558/8/1 559/9/1 560/3/1
f 561/5/1 562/6/1 563/2/1 564/1/1
f 565/6/1 566/7/1 567/8/1 568/2/1
f 569/1/1 570/2/1 571/3/1 572/4/1
f 573/2/1 574/8/1 575/9/1 576/3/1
f 577/1/1 578/2/1 579/3/1 580/4/1
f 581/6/1 582/7/1 583/8/1 584/2/1
f 585/2/1 586/8/1 587/9/1 588/3/1
f 589/5/1 590/6/1 591/2/1 592/1/1
f 593/5/1 594/6/1 595/2/1 596/1/1
f 597/6/1 598/7/1 599/8/1 600/2/1
f 601/2/1 602/8/1 603/9/1 604/3/1
f 605/1/1 606/2/1 607/3/1 608/4/1
f 609/5/1 610/6/1 611/2/1 612/1/1
f 613/1/1 614/2/1 615/3/1 616/4/1
f 617/5/1 618/6/1 619/2/1 620/1/1
f 621/6/1 622/7/1 623/8/1 624/2/1
f 625/2/1 626/8/1 627/9/1 628/3/1
f 629/6/1 630/7/1 631/8/1 632/2/1
f 633/2/1 634/8/1 635/9/1 636/3/1
f 637/1/1 638/2/1 639/3/1 640/4/1
f 641/2/1 642/8/1 643/9/1 644/3/1
f 645/2/1 646/8/1 647/9/1 648/3/1
f 649/5/1 650/6/1 651/2/1 652/1/1
f 653/5/1 654/6/1 655/2/1 656/1/1
f 657/5/1 658/6/1 659/2/1 660/1/1
f 661/5/1 662/6/1 663/2/1 664/1/1
f 665/6/1 666/7/1 667/8/1 668/2/1
f 669/1/1 670/2/1 671/3/1 672/4/1
f 673/1/1 674/2/1 675/3/1 676/4/1
f 677/6/1 678/7/1 679/8/1 680/2/1
f 681/6/1 682/7/1 683/8/1 684/2/1
f 685/6/1 686/7/1 687/8/1 688/2/1
f 689/2/1 690/8/1 691/9/1 692/3/1
f 693/1/1 694/2/1 695/3/1 696/4/1
f 697/1/1 698/2/1 699/3/1 700/4/1
f 701/5/1 702/6/1 703/2/1 704/1/1
f 705/1/1 706/2/1 707/3/1 708/4/1
f 709/5/1 710/6/1 711/2/1 712/1/1
f 713/5/1 714/6/1 715/2/1 716/1/1
f 717/2/1 718/8/1 719/9/1 720/3/1
f 721/6/1 722/7/1 723/8/1 724/2/1
f 725/5/1 726/6/1 727/2/1 728/1/1
f 729/5/1 730/6/1 731/2/1 732/1/1
f 733/2/1 734/8/1 735/9/1 736/3/1
f 737/5/1 738/6/1 739/2/1 740/1/1
f 741/2/1 742/8/1 743/9/1 744/3/1
f 745/2/1 746/8/1 747/9/1 748/3/1
f 749/2/1 750/8/1 751/9/1 752/3/1
f 753/2/1 754/8/1 755/9/1 756/3/1
f 757/2/1 758/8/1 759/9/1 760/3/1
f 761/6/1 762/7/1 763/8/1 764/2/1
f 765/5/1 766/6/1 767/2/1 768/1/1
f 769/1/1 770/2/1 771/3/1 772/4/1
f 773/5/1 774/6/1 775/2/1 776/1/1
f 777/2/1 778/8/1 779/9/1 780/3/1
f 781/6/1 782/7/1 783/8/1 784/2/1
f 785/1/1 786/2/1 787/3/1 788/4/1
f 789/6/1 790/7/1 791/8/1 792/2/1
f 793/6/1 794/7/1 795/8/1 796/2/1
f 797/5/1 798/6/1 799/2/1 800/1/1
f 801/1/1 802/2/1 803/3/1 804/4/1
f 805/1/1 806/2/1 807/3/1 808/4/1
f 809/1/1 810/2/1 811/3/1 812/4/1
f 813/6/1 814/7/1 815/8/1 816/2/1
f 817/2/1 818/8/1 819/9/1 820/3/1
f 821/2/1 822/8/1 823/9/1 824/3/1
f 825/1/1 826/2/1 827/3/1 828/4/1
f 829/6/1 830/7/1 831/8/1 832/2/1
f 833/5/1 834/6/1 835/2/1 836/1/1
f 837/6/1 838/7/1 839/8/1 840/2/1
f 841/6/1 842/7/1 843/8/1 844/2/1
f 845/1/1 846/2/1 847/3/1 848/4/1
f 849/6/1 850/7/1 851/8/1 852/2/1
f 853/2/1 854/8/1 855/9/1 856/3/1
f 857/2/1 858/8/1 859/9/1 860/3/1
f 861/1/1 862/2/1 863/3/1 864/4/1
f 865/2/1 866/8/1 867/9/1 868/3/1
f 869/1/1 870/2/1 871/3/1 872/4/1
f 873/6/1 874/7/1 875/8/1 876/2/1
f 877/5/1 878/6/1 879/2/1 880/1/1
f 881/6/1 882/7/1 883/8/1 884/2/1
f 885/1/1 886/2/1 887/3/1 888/4/1
f 889/5/1 890/6/1 891/2/1 892/1/1
f 893/1/1 894/2/1 895/3/1 896/4/1
f 897/1/1 898/2/1 899/3/1 900/4/1
f 901/5/1 902/6/1 903/2/1 904/1/1
f 905/2/1 906/8/1 907/9/1 908/3/1
f 909/1/1 910/2/1 911/3/1 912/4/1
f 913/5/1 914/6/1 915/2/1 916/1/1
f 917/5/1 918/6/1 919/2/1 920/1/1
f 921/2/1 922/8/1 923/9/1 924/3/1
f 925/5/1 926/6/1 927/2/1 928/1/1
f 929/1/1 930/2/1 931/3/1 932/4/1
f 933/6/1 934/7/1 935/8/1 936/2/1
f 937/5/1 938/6/1 939/2/1 940/1/1
f 941/1/1 942/2/1 943/3/1 944/4/1
f 945/1/1 946/2/1 947/3/1 948/4/1
f 949/6/1 950/7/1 951/8/1 952/2/1
f 953/1/1 954/2/1 955/3/1 956/4/1
f 957/5/1 958/6/1 959/2/1 960/1/1
f 961/1/1 962/2/1 963/3/1 964/4/1
f 965/1/1 966/2/1 967/3/1 968/4/1
f 969/2/1 970/8/1 971/9/1 972/3/1
f 973/2/1 974/8/1 975/9/1 976/3/1
f 977/2/1 978/8/1 979/9/1 980/3/1
f 981/6/1 982/7/1 983/8/1 984/2/1
f 985/2/1 986/8/1 987/9/1 988/3/1
f 989/2/1 990/8/1 991/9/1 992/3/1
f 993/6/1 994/7/1 995/8/1 996/2/1
f 997/5/1 998/6/1 999/2/1 1000/1/1
f 1001/5/1 1002/6/1 1003/2/1 1004/1/1
f 1005/6/1 1006/7/1 1007/8/1 1008/2/1
f 1009/2/1 1010/8/1 1011/9/1 1012/3/1
f 1013/2/1 1014/8/1 1015/9/1 1016/3/1
f 1017/1/1 1018/2/1 1019/3/1 1020/4/1
f 1021/2/1 1022/8/1 1023/9/1 1024/3/1

