# Tiled2Unity generated file. Do not modify by hand.
# Wavefront file for 'Village_mesh_0030.obj'

# Vertices (Count = 1024)
v -240 -16 0
v -256 -16 0
v -256 0 0
v -240 0 0
v -224 -16 0
v -240 -16 0
v -240 0 0
v -224 0 0
v -208 -16 0
v -224 -16 0
v -224 0 0
v -208 0 0
v -192 -16 0
v -208 -16 0
v -208 0 0
v -192 0 0
v -176 -16 0
v -192 -16 0
v -192 0 0
v -176 0 0
v -160 -16 0
v -176 -16 0
v -176 0 0
v -160 0 0
v -144 -16 0
v -160 -16 0
v -160 0 0
v -144 0 0
v -128 -16 0
v -144 -16 0
v -144 0 0
v -128 0 0
v -112 -16 0
v -128 -16 0
v -128 0 0
v -112 0 0
v -96 -16 0
v -112 -16 0
v -112 0 0
v -96 0 0
v -80 -16 0
v -96 -16 0
v -96 0 0
v -80 0 0
v -64 -16 0
v -80 -16 0
v -80 0 0
v -64 0 0
v -48 -16 0
v -64 -16 0
v -64 0 0
v -48 0 0
v -32 -16 0
v -48 -16 0
v -48 0 0
v -32 0 0
v -16 -16 0
v -32 -16 0
v -32 0 0
v -16 0 0
v 0 -16 0
v -16 -16 0
v -16 0 0
v 0 0 0
v -240 -32 0
v -256 -32 0
v -256 -16 0
v -240 -16 0
v -224 -32 0
v -240 -32 0
v -240 -16 0
v -224 -16 0
v -208 -32 0
v -224 -32 0
v -224 -16 0
v -208 -16 0
v -192 -32 0
v -208 -32 0
v -208 -16 0
v -192 -16 0
v -176 -32 0
v -192 -32 0
v -192 -16 0
v -176 -16 0
v -160 -32 0
v -176 -32 0
v -176 -16 0
v -160 -16 0
v -144 -32 0
v -160 -32 0
v -160 -16 0
v -144 -16 0
v -128 -32 0
v -144 -32 0
v -144 -16 0
v -128 -16 0
v -112 -32 0
v -128 -32 0
v -128 -16 0
v -112 -16 0
v -96 -32 0
v -112 -32 0
v -112 -16 0
v -96 -16 0
v -80 -32 0
v -96 -32 0
v -96 -16 0
v -80 -16 0
v -64 -32 0
v -80 -32 0
v -80 -16 0
v -64 -16 0
v -48 -32 0
v -64 -32 0
v -64 -16 0
v -48 -16 0
v -32 -32 0
v -48 -32 0
v -48 -16 0
v -32 -16 0
v -16 -32 0
v -32 -32 0
v -32 -16 0
v -16 -16 0
v 0 -32 0
v -16 -32 0
v -16 -16 0
v 0 -16 0
v -240 -48 0
v -256 -48 0
v -256 -32 0
v -240 -32 0
v -224 -48 0
v -240 -48 0
v -240 -32 0
v -224 -32 0
v -208 -48 0
v -224 -48 0
v -224 -32 0
v -208 -32 0
v -192 -48 0
v -208 -48 0
v -208 -32 0
v -192 -32 0
v -176 -48 0
v -192 -48 0
v -192 -32 0
v -176 -32 0
v -160 -48 0
v -176 -48 0
v -176 -32 0
v -160 -32 0
v -144 -48 0
v -160 -48 0
v -160 -32 0
v -144 -32 0
v -128 -48 0
v -144 -48 0
v -144 -32 0
v -128 -32 0
v -112 -48 0
v -128 -48 0
v -128 -32 0
v -112 -32 0
v -96 -48 0
v -112 -48 0
v -112 -32 0
v -96 -32 0
v -80 -48 0
v -96 -48 0
v -96 -32 0
v -80 -32 0
v -64 -48 0
v -80 -48 0
v -80 -32 0
v -64 -32 0
v -48 -48 0
v -64 -48 0
v -64 -32 0
v -48 -32 0
v -32 -48 0
v -48 -48 0
v -48 -32 0
v -32 -32 0
v -16 -48 0
v -32 -48 0
v -32 -32 0
v -16 -32 0
v 0 -48 0
v -16 -48 0
v -16 -32 0
v 0 -32 0
v -240 -64 0
v -256 -64 0
v -256 -48 0
v -240 -48 0
v -224 -64 0
v -240 -64 0
v -240 -48 0
v -224 -48 0
v -208 -64 0
v -224 -64 0
v -224 -48 0
v -208 -48 0
v -192 -64 0
v -208 -64 0
v -208 -48 0
v -192 -48 0
v -176 -64 0
v -192 -64 0
v -192 -48 0
v -176 -48 0
v -160 -64 0
v -176 -64 0
v -176 -48 0
v -160 -48 0
v -144 -64 0
v -160 -64 0
v -160 -48 0
v -144 -48 0
v -128 -64 0
v -144 -64 0
v -144 -48 0
v -128 -48 0
v -112 -64 0
v -128 -64 0
v -128 -48 0
v -112 -48 0
v -96 -64 0
v -112 -64 0
v -112 -48 0
v -96 -48 0
v -80 -64 0
v -96 -64 0
v -96 -48 0
v -80 -48 0
v -64 -64 0
v -80 -64 0
v -80 -48 0
v -64 -48 0
v -48 -64 0
v -64 -64 0
v -64 -48 0
v -48 -48 0
v -32 -64 0
v -48 -64 0
v -48 -48 0
v -32 -48 0
v -16 -64 0
v -32 -64 0
v -32 -48 0
v -16 -48 0
v 0 -64 0
v -16 -64 0
v -16 -48 0
v 0 -48 0
v -240 -80 0
v -256 -80 0
v -256 -64 0
v -240 -64 0
v -224 -80 0
v -240 -80 0
v -240 -64 0
v -224 -64 0
v -208 -80 0
v -224 -80 0
v -224 -64 0
v -208 -64 0
v -192 -80 0
v -208 -80 0
v -208 -64 0
v -192 -64 0
v -176 -80 0
v -192 -80 0
v -192 -64 0
v -176 -64 0
v -160 -80 0
v -176 -80 0
v -176 -64 0
v -160 -64 0
v -144 -80 0
v -160 -80 0
v -160 -64 0
v -144 -64 0
v -128 -80 0
v -144 -80 0
v -144 -64 0
v -128 -64 0
v -112 -80 0
v -128 -80 0
v -128 -64 0
v -112 -64 0
v -96 -80 0
v -112 -80 0
v -112 -64 0
v -96 -64 0
v -80 -80 0
v -96 -80 0
v -96 -64 0
v -80 -64 0
v -64 -80 0
v -80 -80 0
v -80 -64 0
v -64 -64 0
v -48 -80 0
v -64 -80 0
v -64 -64 0
v -48 -64 0
v -32 -80 0
v -48 -80 0
v -48 -64 0
v -32 -64 0
v -16 -80 0
v -32 -80 0
v -32 -64 0
v -16 -64 0
v 0 -80 0
v -16 -80 0
v -16 -64 0
v 0 -64 0
v -240 -96 0
v -256 -96 0
v -256 -80 0
v -240 -80 0
v -224 -96 0
v -240 -96 0
v -240 -80 0
v -224 -80 0
v -208 -96 0
v -224 -96 0
v -224 -80 0
v -208 -80 0
v -192 -96 0
v -208 -96 0
v -208 -80 0
v -192 -80 0
v -176 -96 0
v -192 -96 0
v -192 -80 0
v -176 -80 0
v -160 -96 0
v -176 -96 0
v -176 -80 0
v -160 -80 0
v -144 -96 0
v -160 -96 0
v -160 -80 0
v -144 -80 0
v -128 -96 0
v -144 -96 0
v -144 -80 0
v -128 -80 0
v -112 -96 0
v -128 -96 0
v -128 -80 0
v -112 -80 0
v -96 -96 0
v -112 -96 0
v -112 -80 0
v -96 -80 0
v -80 -96 0
v -96 -96 0
v -96 -80 0
v -80 -80 0
v -64 -96 0
v -80 -96 0
v -80 -80 0
v -64 -80 0
v -48 -96 0
v -64 -96 0
v -64 -80 0
v -48 -80 0
v -32 -96 0
v -48 -96 0
v -48 -80 0
v -32 -80 0
v -16 -96 0
v -32 -96 0
v -32 -80 0
v -16 -80 0
v 0 -96 0
v -16 -96 0
v -16 -80 0
v 0 -80 0
v -240 -112 0
v -256 -112 0
v -256 -96 0
v -240 -96 0
v -224 -112 0
v -240 -112 0
v -240 -96 0
v -224 -96 0
v -208 -112 0
v -224 -112 0
v -224 -96 0
v -208 -96 0
v -192 -112 0
v -208 -112 0
v -208 -96 0
v -192 -96 0
v -176 -112 0
v -192 -112 0
v -192 -96 0
v -176 -96 0
v -160 -112 0
v -176 -112 0
v -176 -96 0
v -160 -96 0
v -144 -112 0
v -160 -112 0
v -160 -96 0
v -144 -96 0
v -128 -112 0
v -144 -112 0
v -144 -96 0
v -128 -96 0
v -112 -112 0
v -128 -112 0
v -128 -96 0
v -112 -96 0
v -96 -112 0
v -112 -112 0
v -112 -96 0
v -96 -96 0
v -80 -112 0
v -96 -112 0
v -96 -96 0
v -80 -96 0
v -64 -112 0
v -80 -112 0
v -80 -96 0
v -64 -96 0
v -48 -112 0
v -64 -112 0
v -64 -96 0
v -48 -96 0
v -32 -112 0
v -48 -112 0
v -48 -96 0
v -32 -96 0
v -16 -112 0
v -32 -112 0
v -32 -96 0
v -16 -96 0
v 0 -112 0
v -16 -112 0
v -16 -96 0
v 0 -96 0
v -240 -128 0
v -256 -128 0
v -256 -112 0
v -240 -112 0
v -224 -128 0
v -240 -128 0
v -240 -112 0
v -224 -112 0
v -208 -128 0
v -224 -128 0
v -224 -112 0
v -208 -112 0
v -192 -128 0
v -208 -128 0
v -208 -112 0
v -192 -112 0
v -176 -128 0
v -192 -128 0
v -192 -112 0
v -176 -112 0
v -160 -128 0
v -176 -128 0
v -176 -112 0
v -160 -112 0
v -144 -128 0
v -160 -128 0
v -160 -112 0
v -144 -112 0
v -128 -128 0
v -144 -128 0
v -144 -112 0
v -128 -112 0
v -112 -128 0
v -128 -128 0
v -128 -112 0
v -112 -112 0
v -96 -128 0
v -112 -128 0
v -112 -112 0
v -96 -112 0
v -80 -128 0
v -96 -128 0
v -96 -112 0
v -80 -112 0
v -64 -128 0
v -80 -128 0
v -80 -112 0
v -64 -112 0
v -48 -128 0
v -64 -128 0
v -64 -112 0
v -48 -112 0
v -32 -128 0
v -48 -128 0
v -48 -112 0
v -32 -112 0
v -16 -128 0
v -32 -128 0
v -32 -112 0
v -16 -112 0
v 0 -128 0
v -16 -128 0
v -16 -112 0
v 0 -112 0
v -240 -144 0
v -256 -144 0
v -256 -128 0
v -240 -128 0
v -224 -144 0
v -240 -144 0
v -240 -128 0
v -224 -128 0
v -208 -144 0
v -224 -144 0
v -224 -128 0
v -208 -128 0
v -192 -144 0
v -208 -144 0
v -208 -128 0
v -192 -128 0
v -176 -144 0
v -192 -144 0
v -192 -128 0
v -176 -128 0
v -160 -144 0
v -176 -144 0
v -176 -128 0
v -160 -128 0
v -144 -144 0
v -160 -144 0
v -160 -128 0
v -144 -128 0
v -128 -144 0
v -144 -144 0
v -144 -128 0
v -128 -128 0
v -112 -144 0
v -128 -144 0
v -128 -128 0
v -112 -128 0
v -96 -144 0
v -112 -144 0
v -112 -128 0
v -96 -128 0
v -80 -144 0
v -96 -144 0
v -96 -128 0
v -80 -128 0
v -64 -144 0
v -80 -144 0
v -80 -128 0
v -64 -128 0
v -48 -144 0
v -64 -144 0
v -64 -128 0
v -48 -128 0
v -32 -144 0
v -48 -144 0
v -48 -128 0
v -32 -128 0
v -16 -144 0
v -32 -144 0
v -32 -128 0
v -16 -128 0
v 0 -144 0
v -16 -144 0
v -16 -128 0
v 0 -128 0
v -240 -160 0
v -256 -160 0
v -256 -144 0
v -240 -144 0
v -224 -160 0
v -240 -160 0
v -240 -144 0
v -224 -144 0
v -208 -160 0
v -224 -160 0
v -224 -144 0
v -208 -144 0
v -192 -160 0
v -208 -160 0
v -208 -144 0
v -192 -144 0
v -176 -160 0
v -192 -160 0
v -192 -144 0
v -176 -144 0
v -160 -160 0
v -176 -160 0
v -176 -144 0
v -160 -144 0
v -144 -160 0
v -160 -160 0
v -160 -144 0
v -144 -144 0
v -128 -160 0
v -144 -160 0
v -144 -144 0
v -128 -144 0
v -112 -160 0
v -128 -160 0
v -128 -144 0
v -112 -144 0
v -96 -160 0
v -112 -160 0
v -112 -144 0
v -96 -144 0
v -80 -160 0
v -96 -160 0
v -96 -144 0
v -80 -144 0
v -64 -160 0
v -80 -160 0
v -80 -144 0
v -64 -144 0
v -48 -160 0
v -64 -160 0
v -64 -144 0
v -48 -144 0
v -32 -160 0
v -48 -160 0
v -48 -144 0
v -32 -144 0
v -16 -160 0
v -32 -160 0
v -32 -144 0
v -16 -144 0
v 0 -160 0
v -16 -160 0
v -16 -144 0
v 0 -144 0
v -240 -176 0
v -256 -176 0
v -256 -160 0
v -240 -160 0
v -224 -176 0
v -240 -176 0
v -240 -160 0
v -224 -160 0
v -208 -176 0
v -224 -176 0
v -224 -160 0
v -208 -160 0
v -192 -176 0
v -208 -176 0
v -208 -160 0
v -192 -160 0
v -176 -176 0
v -192 -176 0
v -192 -160 0
v -176 -160 0
v -160 -176 0
v -176 -176 0
v -176 -160 0
v -160 -160 0
v -144 -176 0
v -160 -176 0
v -160 -160 0
v -144 -160 0
v -128 -176 0
v -144 -176 0
v -144 -160 0
v -128 -160 0
v -112 -176 0
v -128 -176 0
v -128 -160 0
v -112 -160 0
v -96 -176 0
v -112 -176 0
v -112 -160 0
v -96 -160 0
v -80 -176 0
v -96 -176 0
v -96 -160 0
v -80 -160 0
v -64 -176 0
v -80 -176 0
v -80 -160 0
v -64 -160 0
v -48 -176 0
v -64 -176 0
v -64 -160 0
v -48 -160 0
v -32 -176 0
v -48 -176 0
v -48 -160 0
v -32 -160 0
v -16 -176 0
v -32 -176 0
v -32 -160 0
v -16 -160 0
v 0 -176 0
v -16 -176 0
v -16 -160 0
v 0 -160 0
v -240 -192 0
v -256 -192 0
v -256 -176 0
v -240 -176 0
v -224 -192 0
v -240 -192 0
v -240 -176 0
v -224 -176 0
v -208 -192 0
v -224 -192 0
v -224 -176 0
v -208 -176 0
v -192 -192 0
v -208 -192 0
v -208 -176 0
v -192 -176 0
v -176 -192 0
v -192 -192 0
v -192 -176 0
v -176 -176 0
v -160 -192 0
v -176 -192 0
v -176 -176 0
v -160 -176 0
v -144 -192 0
v -160 -192 0
v -160 -176 0
v -144 -176 0
v -128 -192 0
v -144 -192 0
v -144 -176 0
v -128 -176 0
v -112 -192 0
v -128 -192 0
v -128 -176 0
v -112 -176 0
v -96 -192 0
v -112 -192 0
v -112 -176 0
v -96 -176 0
v -80 -192 0
v -96 -192 0
v -96 -176 0
v -80 -176 0
v -64 -192 0
v -80 -192 0
v -80 -176 0
v -64 -176 0
v -48 -192 0
v -64 -192 0
v -64 -176 0
v -48 -176 0
v -32 -192 0
v -48 -192 0
v -48 -176 0
v -32 -176 0
v -16 -192 0
v -32 -192 0
v -32 -176 0
v -16 -176 0
v 0 -192 0
v -16 -192 0
v -16 -176 0
v 0 -176 0
v -240 -208 0
v -256 -208 0
v -256 -192 0
v -240 -192 0
v -224 -208 0
v -240 -208 0
v -240 -192 0
v -224 -192 0
v -208 -208 0
v -224 -208 0
v -224 -192 0
v -208 -192 0
v -192 -208 0
v -208 -208 0
v -208 -192 0
v -192 -192 0
v -176 -208 0
v -192 -208 0
v -192 -192 0
v -176 -192 0
v -160 -208 0
v -176 -208 0
v -176 -192 0
v -160 -192 0
v -144 -208 0
v -160 -208 0
v -160 -192 0
v -144 -192 0
v -128 -208 0
v -144 -208 0
v -144 -192 0
v -128 -192 0
v -112 -208 0
v -128 -208 0
v -128 -192 0
v -112 -192 0
v -96 -208 0
v -112 -208 0
v -112 -192 0
v -96 -192 0
v -80 -208 0
v -96 -208 0
v -96 -192 0
v -80 -192 0
v -64 -208 0
v -80 -208 0
v -80 -192 0
v -64 -192 0
v -48 -208 0
v -64 -208 0
v -64 -192 0
v -48 -192 0
v -32 -208 0
v -48 -208 0
v -48 -192 0
v -32 -192 0
v -16 -208 0
v -32 -208 0
v -32 -192 0
v -16 -192 0
v 0 -208 0
v -16 -208 0
v -16 -192 0
v 0 -192 0
v -240 -224 0
v -256 -224 0
v -256 -208 0
v -240 -208 0
v -224 -224 0
v -240 -224 0
v -240 -208 0
v -224 -208 0
v -208 -224 0
v -224 -224 0
v -224 -208 0
v -208 -208 0
v -192 -224 0
v -208 -224 0
v -208 -208 0
v -192 -208 0
v -176 -224 0
v -192 -224 0
v -192 -208 0
v -176 -208 0
v -160 -224 0
v -176 -224 0
v -176 -208 0
v -160 -208 0
v -144 -224 0
v -160 -224 0
v -160 -208 0
v -144 -208 0
v -128 -224 0
v -144 -224 0
v -144 -208 0
v -128 -208 0
v -112 -224 0
v -128 -224 0
v -128 -208 0
v -112 -208 0
v -96 -224 0
v -112 -224 0
v -112 -208 0
v -96 -208 0
v -80 -224 0
v -96 -224 0
v -96 -208 0
v -80 -208 0
v -64 -224 0
v -80 -224 0
v -80 -208 0
v -64 -208 0
v -48 -224 0
v -64 -224 0
v -64 -208 0
v -48 -208 0
v -32 -224 0
v -48 -224 0
v -48 -208 0
v -32 -208 0
v -16 -224 0
v -32 -224 0
v -32 -208 0
v -16 -208 0
v 0 -224 0
v -16 -224 0
v -16 -208 0
v 0 -208 0
v -240 -240 0
v -256 -240 0
v -256 -224 0
v -240 -224 0
v -224 -240 0
v -240 -240 0
v -240 -224 0
v -224 -224 0
v -208 -240 0
v -224 -240 0
v -224 -224 0
v -208 -224 0
v -192 -240 0
v -208 -240 0
v -208 -224 0
v -192 -224 0
v -176 -240 0
v -192 -240 0
v -192 -224 0
v -176 -224 0
v -160 -240 0
v -176 -240 0
v -176 -224 0
v -160 -224 0
v -144 -240 0
v -160 -240 0
v -160 -224 0
v -144 -224 0
v -128 -240 0
v -144 -240 0
v -144 -224 0
v -128 -224 0
v -112 -240 0
v -128 -240 0
v -128 -224 0
v -112 -224 0
v -96 -240 0
v -112 -240 0
v -112 -224 0
v -96 -224 0
v -80 -240 0
v -96 -240 0
v -96 -224 0
v -80 -224 0
v -64 -240 0
v -80 -240 0
v -80 -224 0
v -64 -224 0
v -48 -240 0
v -64 -240 0
v -64 -224 0
v -48 -224 0
v -32 -240 0
v -48 -240 0
v -48 -224 0
v -32 -224 0
v -16 -240 0
v -32 -240 0
v -32 -224 0
v -16 -224 0
v 0 -240 0
v -16 -240 0
v -16 -224 0
v 0 -224 0
v -240 -256 0
v -256 -256 0
v -256 -240 0
v -240 -240 0
v -224 -256 0
v -240 -256 0
v -240 -240 0
v -224 -240 0
v -208 -256 0
v -224 -256 0
v -224 -240 0
v -208 -240 0
v -192 -256 0
v -208 -256 0
v -208 -240 0
v -192 -240 0
v -176 -256 0
v -192 -256 0
v -192 -240 0
v -176 -240 0
v -160 -256 0
v -176 -256 0
v -176 -240 0
v -160 -240 0
v -144 -256 0
v -160 -256 0
v -160 -240 0
v -144 -240 0
v -128 -256 0
v -144 -256 0
v -144 -240 0
v -128 -240 0
v -112 -256 0
v -128 -256 0
v -128 -240 0
v -112 -240 0
v -96 -256 0
v -112 -256 0
v -112 -240 0
v -96 -240 0
v -80 -256 0
v -96 -256 0
v -96 -240 0
v -80 -240 0
v -64 -256 0
v -80 -256 0
v -80 -240 0
v -64 -240 0
v -48 -256 0
v -64 -256 0
v -64 -240 0
v -48 -240 0
v -32 -256 0
v -48 -256 0
v -48 -240 0
v -32 -240 0
v -16 -256 0
v -32 -256 0
v -32 -240 0
v -16 -240 0
v 0 -256 0
v -16 -256 0
v -16 -240 0
v 0 -240 0

# Texture cooridinates (Count = 9)
vt 0.175 0.7222222
vt 0.2 0.7222222
vt 0.2 0.75
vt 0.175 0.75
vt 0.2 0.6944444
vt 0.225 0.6944444
vt 0.225 0.7222222
vt 0.175 0.6944444
vt 0.225 0.75

# Normal
vn 0 0 -1

# Mesh description
g Village_mesh_0030

# Faces
f 1/1/1 2/2/1 3/3/1 4/4/1
f 5/5/1 6/6/1 7/7/1 8/2/1
f 9/8/1 10/5/1 11/2/1 12/1/1
f 13/5/1 14/6/1 15/7/1 16/2/1
f 17/8/1 18/5/1 19/2/1 20/1/1
f 21/2/1 22/7/1 23/9/1 24/3/1
f 25/2/1 26/7/1 27/9/1 28/3/1
f 29/5/1 30/6/1 31/7/1 32/2/1
f 33/2/1 34/7/1 35/9/1 36/3/1
f 37/8/1 38/5/1 39/2/1 40/1/1
f 41/5/1 42/6/1 43/7/1 44/2/1
f 45/8/1 46/5/1 47/2/1 48/1/1
f 49/5/1 50/6/1 51/7/1 52/2/1
f 53/5/1 54/6/1 55/7/1 56/2/1
f 57/2/1 58/7/1 59/9/1 60/3/1
f 61/5/1 62/6/1 63/7/1 64/2/1
f 65/2/1 66/7/1 67/9/1 68/3/1
f 69/1/1 70/2/1 71/3/1 72/4/1
f 73/5/1 74/6/1 75/7/1 76/2/1
f 77/2/1 78/7/1 79/9/1 80/3/1
f 81/5/1 82/6/1 83/7/1 84/2/1
f 85/8/1 86/5/1 87/2/1 88/1/1
f 89/1/1 90/2/1 91/3/1 92/4/1
f 93/5/1 94/6/1 95/7/1 96/2/1
f 97/5/1 98/6/1 99/7/1 100/2/1
f 101/5/1 102/6/1 103/7/1 104/2/1
f 105/2/1 106/7/1 107/9/1 108/3/1
f 109/8/1 110/5/1 111/2/1 112/1/1
f 113/5/1 114/6/1 115/7/1 116/2/1
f 117/5/1 118/6/1 119/7/1 120/2/1
f 121/8/1 122/5/1 123/2/1 124/1/1
f 125/5/1 126/6/1 127/7/1 128/2/1
f 129/2/1 130/7/1 131/9/1 132/3/1
f 133/2/1 134/7/1 135/9/1 136/3/1
f 137/1/1 138/2/1 139/3/1 140/4/1
f 141/2/1 142/7/1 143/9/1 144/3/1
f 145/2/1 146/7/1 147/9/1 148/3/1
f 149/1/1 150/2/1 151/3/1 152/4/1
f 153/1/1 154/2/1 155/3/1 156/4/1
f 157/1/1 158/2/1 159/3/1 160/4/1
f 161/1/1 162/2/1 163/3/1 164/4/1
f 165/5/1 166/6/1 167/7/1 168/2/1
f 169/5/1 170/6/1 171/7/1 172/2/1
f 173/1/1 174/2/1 175/3/1 176/4/1
f 177/2/1 178/7/1 179/9/1 180/3/1
f 181/5/1 182/6/1 183/7/1 184/2/1
f 185/2/1 186/7/1 187/9/1 188/3/1
f 189/8/1 190/5/1 191/2/1 192/1/1
f 193/5/1 194/6/1 195/7/1 196/2/1
f 197/2/1 198/7/1 199/9/1 200/3/1
f 201/2/1 202/7/1 203/9/1 204/3/1
f 205/1/1 206/2/1 207/3/1 208/4/1
f 209/2/1 210/7/1 211/9/1 212/3/1
f 213/5/1 214/6/1 215/7/1 216/2/1
f 217/5/1 218/6/1 219/7/1 220/2/1
f 221/2/1 222/7/1 223/9/1 224/3/1
f 225/1/1 226/2/1 227/3/1 228/4/1
f 229/5/1 230/6/1 231/7/1 232/2/1
f 233/2/1 234/7/1 235/9/1 236/3/1
f 237/1/1 238/2/1 239/3/1 240/4/1
f 241/8/1 242/5/1 243/2/1 244/1/1
f 245/2/1 246/7/1 247/9/1 248/3/1
f 249/1/1 250/2/1 251/3/1 252/4/1
f 253/1/1 254/2/1 255/3/1 256/4/1
f 257/5/1 258/6/1 259/7/1 260/2/1
f 261/5/1 262/6/1 263/7/1 264/2/1
f 265/2/1 266/7/1 267/9/1 268/3/1
f 269/1/1 270/2/1 271/3/1 272/4/1
f 273/1/1 274/2/1 275/3/1 276/4/1
f 277/2/1 278/7/1 279/9/1 280/3/1
f 281/2/1 282/7/1 283/9/1 284/3/1
f 285/1/1 286/2/1 287/3/1 288/4/1
f 289/1/1 290/2/1 291/3/1 292/4/1
f 293/8/1 294/5/1 295/2/1 296/1/1
f 297/8/1 298/5/1 299/2/1 300/1/1
f 301/5/1 302/6/1 303/7/1 304/2/1
f 305/2/1 306/7/1 307/9/1 308/3/1
f 309/2/1 310/7/1 311/9/1 312/3/1
f 313/8/1 314/5/1 315/2/1 316/1/1
f 317/1/1 318/2/1 319/3/1 320/4/1
f 321/1/1 322/2/1 323/3/1 324/4/1
f 325/8/1 326/5/1 327/2/1 328/1/1
f 329/2/1 330/7/1 331/9/1 332/3/1
f 333/2/1 334/7/1 335/9/1 336/3/1
f 337/1/1 338/2/1 339/3/1 340/4/1
f 341/1/1 342/2/1 343/3/1 344/4/1
f 345/5/1 346/6/1 347/7/1 348/2/1
f 349/8/1 350/5/1 351/2/1 352/1/1
f 353/2/1 354/7/1 355/9/1 356/3/1
f 357/2/1 358/7/1 359/9/1 360/3/1
f 361/8/1 362/5/1 363/2/1 364/1/1
f 365/2/1 366/7/1 367/9/1 368/3/1
f 369/2/1 370/7/1 371/9/1 372/3/1
f 373/5/1 374/6/1 375/7/1 376/2/1
f 377/1/1 378/2/1 379/3/1 380/4/1
f 381/2/1 382/7/1 383/9/1 384/3/1
f 385/2/1 386/7/1 387/9/1 388/3/1
f 389/2/1 390/7/1 391/9/1 392/3/1
f 393/5/1 394/6/1 395/7/1 396/2/1
f 397/2/1 398/7/1 399/9/1 400/3/1
f 401/1/1 402/2/1 403/3/1 404/4/1
f 405/8/1 406/5/1 407/2/1 408/1/1
f 409/1/1 410/2/1 411/3/1 412/4/1
f 413/1/1 414/2/1 415/3/1 416/4/1
f 417/5/1 418/6/1 419/7/1 420/2/1
f 421/2/1 422/7/1 423/9/1 424/3/1
f 425/8/1 426/5/1 427/2/1 428/1/1
f 429/2/1 430/7/1 431/9/1 432/3/1
f 433/1/1 434/2/1 435/3/1 436/4/1
f 437/5/1 438/6/1 439/7/1 440/2/1
f 441/5/1 442/6/1 443/7/1 444/2/1
f 445/2/1 446/7/1 447/9/1 448/3/1
f 449/2/1 450/7/1 451/9/1 452/3/1
f 453/1/1 454/2/1 455/3/1 456/4/1
f 457/2/1 458/7/1 459/9/1 460/3/1
f 461/1/1 462/2/1 463/3/1 464/4/1
f 465/1/1 466/2/1 467/3/1 468/4/1
f 469/5/1 470/6/1 471/7/1 472/2/1
f 473/2/1 474/7/1 475/9/1 476/3/1
f 477/8/1 478/5/1 479/2/1 480/1/1
f 481/1/1 482/2/1 483/3/1 484/4/1
f 485/1/1 486/2/1 487/3/1 488/4/1
f 489/8/1 490/5/1 491/2/1 492/1/1
f 493/2/1 494/7/1 495/9/1 496/3/1
f 497/2/1 498/7/1 499/9/1 500/3/1
f 501/1/1 502/2/1 503/3/1 504/4/1
f 505/2/1 506/7/1 507/9/1 508/3/1
f 509/2/1 510/7/1 511/9/1 512/3/1
f 513/8/1 514/5/1 515/2/1 516/1/1
f 517/5/1 518/6/1 519/7/1 520/2/1
f 521/2/1 522/7/1 523/9/1 524/3/1
f 525/1/1 526/2/1 527/3/1 528/4/1
f 529/8/1 530/5/1 531/2/1 532/1/1
f 533/5/1 534/6/1 535/7/1 536/2/1
f 537/5/1 538/6/1 539/7/1 540/2/1
f 541/2/1 542/7/1 543/9/1 544/3/1
f 545/8/1 546/5/1 547/2/1 548/1/1
f 549/5/1 550/6/1 551/7/1 552/2/1
f 553/8/1 554/5/1 555/2/1 556/1/1
f 557/8/1 558/5/1 559/2/1 560/1/1
f 561/2/1 562/7/1 563/9/1 564/3/1
f 565/2/1 566/7/1 567/9/1 568/3/1
f 569/2/1 570/7/1 571/9/1 572/3/1
f 573/5/1 574/6/1 575/7/1 576/2/1
f 577/5/1 578/6/1 579/7/1 580/2/1
f 581/5/1 582/6/1 583/7/1 584/2/1
f 585/2/1 586/7/1 587/9/1 588/3/1
f 589/1/1 590/2/1 591/3/1 592/4/1
f 593/8/1 594/5/1 595/2/1 596/1/1
f 597/2/1 598/7/1 599/9/1 600/3/1
f 601/8/1 602/5/1 603/2/1 604/1/1
f 605/1/1 606/2/1 607/3/1 608/4/1
f 609/2/1 610/7/1 611/9/1 612/3/1
f 613/2/1 614/7/1 615/9/1 616/3/1
f 617/5/1 618/6/1 619/7/1 620/2/1
f 621/1/1 622/2/1 623/3/1 624/4/1
f 625/8/1 626/5/1 627/2/1 628/1/1
f 629/1/1 630/2/1 631/3/1 632/4/1
f 633/1/1 634/2/1 635/3/1 636/4/1
f 637/8/1 638/5/1 639/2/1 640/1/1
f 641/1/1 642/2/1 643/3/1 644/4/1
f 645/2/1 646/7/1 647/9/1 648/3/1
f 649/2/1 650/7/1 651/9/1 652/3/1
f 653/1/1 654/2/1 655/3/1 656/4/1
f 657/1/1 658/2/1 659/3/1 660/4/1
f 661/8/1 662/5/1 663/2/1 664/1/1
f 665/8/1 666/5/1 667/2/1 668/1/1
f 669/5/1 670/6/1 671/7/1 672/2/1
f 673/1/1 674/2/1 675/3/1 676/4/1
f 677/2/1 678/7/1 679/9/1 680/3/1
f 681/2/1 682/7/1 683/9/1 684/3/1
f 685/8/1 686/5/1 687/2/1 688/1/1
f 689/2/1 690/7/1 691/9/1 692/3/1
f 693/8/1 694/5/1 695/2/1 696/1/1
f 697/1/1 698/2/1 699/3/1 700/4/1
f 701/2/1 702/7/1 703/9/1 704/3/1
f 705/8/1 706/5/1 707/2/1 708/1/1
f 709/8/1 710/5/1 711/2/1 712/1/1
f 713/2/1 714/7/1 715/9/1 716/3/1
f 717/1/1 718/2/1 719/3/1 720/4/1
f 721/2/1 722/7/1 723/9/1 724/3/1
f 725/8/1 726/5/1 727/2/1 728/1/1
f 729/5/1 730/6/1 731/7/1 732/2/1
f 733/1/1 734/2/1 735/3/1 736/4/1
f 737/2/1 738/7/1 739/9/1 740/3/1
f 741/2/1 742/7/1 743/9/1 744/3/1
f 745/5/1 746/6/1 747/7/1 748/2/1
f 749/8/1 750/5/1 751/2/1 752/1/1
f 753/2/1 754/7/1 755/9/1 756/3/1
f 757/8/1 758/5/1 759/2/1 760/1/1
f 761/2/1 762/7/1 763/9/1 764/3/1
f 765/1/1 766/2/1 767/3/1 768/4/1
f 769/5/1 770/6/1 771/7/1 772/2/1
f 773/1/1 774/2/1 775/3/1 776/4/1
f 777/2/1 778/7/1 779/9/1 780/3/1
f 781/1/1 782/2/1 783/3/1 784/4/1
f 785/5/1 786/6/1 787/7/1 788/2/1
f 789/5/1 790/6/1 791/7/1 792/2/1
f 793/1/1 794/2/1 795/3/1 796/4/1
f 797/1/1 798/2/1 799/3/1 800/4/1
f 801/8/1 802/5/1 803/2/1 804/1/1
f 805/5/1 806/6/1 807/7/1 808/2/1
f 809/1/1 810/2/1 811/3/1 812/4/1
f 813/5/1 814/6/1 815/7/1 816/2/1
f 817/8/1 818/5/1 819/2/1 820/1/1
f 821/8/1 822/5/1 823/2/1 824/1/1
f 825/5/1 826/6/1 827/7/1 828/2/1
f 829/8/1 830/5/1 831/2/1 832/1/1
f 833/2/1 834/7/1 835/9/1 836/3/1
f 837/1/1 838/2/1 839/3/1 840/4/1
f 841/2/1 842/7/1 843/9/1 844/3/1
f 845/1/1 846/2/1 847/3/1 848/4/1
f 849/5/1 850/6/1 851/7/1 852/2/1
f 853/1/1 854/2/1 855/3/1 856/4/1
f 857/2/1 858/7/1 859/9/1 860/3/1
f 861/8/1 862/5/1 863/2/1 864/1/1
f 865/2/1 866/7/1 867/9/1 868/3/1
f 869/2/1 870/7/1 871/9/1 872/3/1
f 873/8/1 874/5/1 875/2/1 876/1/1
f 877/8/1 878/5/1 879/2/1 880/1/1
f 881/2/1 882/7/1 883/9/1 884/3/1
f 885/8/1 886/5/1 887/2/1 888/1/1
f 889/2/1 890/7/1 891/9/1 892/3/1
f 893/2/1 894/7/1 895/9/1 896/3/1
f 897/2/1 898/7/1 899/9/1 900/3/1
f 901/2/1 902/7/1 903/9/1 904/3/1
f 905/1/1 906/2/1 907/3/1 908/4/1
f 909/8/1 910/5/1 911/2/1 912/1/1
f 913/2/1 914/7/1 915/9/1 916/3/1
f 917/2/1 918/7/1 919/9/1 920/3/1
f 921/2/1 922/7/1 923/9/1 924/3/1
f 925/8/1 926/5/1 927/2/1 928/1/1
f 929/8/1 930/5/1 931/2/1 932/1/1
f 933/1/1 934/2/1 935/3/1 936/4/1
f 937/5/1 938/6/1 939/7/1 940/2/1
f 941/2/1 942/7/1 943/9/1 944/3/1
f 945/8/1 946/5/1 947/2/1 948/1/1
f 949/1/1 950/2/1 951/3/1 952/4/1
f 953/5/1 954/6/1 955/7/1 956/2/1
f 957/5/1 958/6/1 959/7/1 960/2/1
f 961/1/1 962/2/1 963/3/1 964/4/1
f 965/2/1 966/7/1 967/9/1 968/3/1
f 969/1/1 970/2/1 971/3/1 972/4/1
f 973/2/1 974/7/1 975/9/1 976/3/1
f 977/8/1 978/5/1 979/2/1 980/1/1
f 981/1/1 982/2/1 983/3/1 984/4/1
f 985/8/1 986/5/1 987/2/1 988/1/1
f 989/2/1 990/7/1 991/9/1 992/3/1
f 993/1/1 994/2/1 995/3/1 996/4/1
f 997/2/1 998/7/1 999/9/1 1000/3/1
f 1001/5/1 1002/6/1 1003/7/1 1004/2/1
f 1005/2/1 1006/7/1 1007/9/1 1008/3/1
f 1009/5/1 1010/6/1 1011/7/1 1012/2/1
f 1013/8/1 1014/5/1 1015/2/1 1016/1/1
f 1017/1/1 1018/2/1 1019/3/1 1020/4/1
f 1021/2/1 1022/7/1 1023/9/1 1024/3/1

