# Tiled2Unity generated file. Do not modify by hand.
# Wavefront file for 'Plage32_mesh_0027.obj'

# Vertices (Count = 1024)
v -480 -32 0
v -512 -32 0
v -512 0 0
v -480 0 0
v -448 -32 0
v -480 -32 0
v -480 0 0
v -448 0 0
v -416 -32 0
v -448 -32 0
v -448 0 0
v -416 0 0
v -384 -32 0
v -416 -32 0
v -416 0 0
v -384 0 0
v -352 -32 0
v -384 -32 0
v -384 0 0
v -352 0 0
v -320 -32 0
v -352 -32 0
v -352 0 0
v -320 0 0
v -288 -32 0
v -320 -32 0
v -320 0 0
v -288 0 0
v -256 -32 0
v -288 -32 0
v -288 0 0
v -256 0 0
v -224 -32 0
v -256 -32 0
v -256 0 0
v -224 0 0
v -192 -32 0
v -224 -32 0
v -224 0 0
v -192 0 0
v -160 -32 0
v -192 -32 0
v -192 0 0
v -160 0 0
v -128 -32 0
v -160 -32 0
v -160 0 0
v -128 0 0
v -96 -32 0
v -128 -32 0
v -128 0 0
v -96 0 0
v -64 -32 0
v -96 -32 0
v -96 0 0
v -64 0 0
v -32 -32 0
v -64 -32 0
v -64 0 0
v -32 0 0
v 0 -32 0
v -32 -32 0
v -32 0 0
v 0 0 0
v -480 -64 0
v -512 -64 0
v -512 -32 0
v -480 -32 0
v -448 -64 0
v -480 -64 0
v -480 -32 0
v -448 -32 0
v -416 -64 0
v -448 -64 0
v -448 -32 0
v -416 -32 0
v -384 -64 0
v -416 -64 0
v -416 -32 0
v -384 -32 0
v -352 -64 0
v -384 -64 0
v -384 -32 0
v -352 -32 0
v -320 -64 0
v -352 -64 0
v -352 -32 0
v -320 -32 0
v -288 -64 0
v -320 -64 0
v -320 -32 0
v -288 -32 0
v -256 -64 0
v -288 -64 0
v -288 -32 0
v -256 -32 0
v -224 -64 0
v -256 -64 0
v -256 -32 0
v -224 -32 0
v -192 -64 0
v -224 -64 0
v -224 -32 0
v -192 -32 0
v -160 -64 0
v -192 -64 0
v -192 -32 0
v -160 -32 0
v -128 -64 0
v -160 -64 0
v -160 -32 0
v -128 -32 0
v -96 -64 0
v -128 -64 0
v -128 -32 0
v -96 -32 0
v -64 -64 0
v -96 -64 0
v -96 -32 0
v -64 -32 0
v -32 -64 0
v -64 -64 0
v -64 -32 0
v -32 -32 0
v 0 -64 0
v -32 -64 0
v -32 -32 0
v 0 -32 0
v -480 -96 0
v -512 -96 0
v -512 -64 0
v -480 -64 0
v -448 -96 0
v -480 -96 0
v -480 -64 0
v -448 -64 0
v -416 -96 0
v -448 -96 0
v -448 -64 0
v -416 -64 0
v -384 -96 0
v -416 -96 0
v -416 -64 0
v -384 -64 0
v -352 -96 0
v -384 -96 0
v -384 -64 0
v -352 -64 0
v -320 -96 0
v -352 -96 0
v -352 -64 0
v -320 -64 0
v -288 -96 0
v -320 -96 0
v -320 -64 0
v -288 -64 0
v -256 -96 0
v -288 -96 0
v -288 -64 0
v -256 -64 0
v -224 -96 0
v -256 -96 0
v -256 -64 0
v -224 -64 0
v -192 -96 0
v -224 -96 0
v -224 -64 0
v -192 -64 0
v -160 -96 0
v -192 -96 0
v -192 -64 0
v -160 -64 0
v -128 -96 0
v -160 -96 0
v -160 -64 0
v -128 -64 0
v -96 -96 0
v -128 -96 0
v -128 -64 0
v -96 -64 0
v -64 -96 0
v -96 -96 0
v -96 -64 0
v -64 -64 0
v -32 -96 0
v -64 -96 0
v -64 -64 0
v -32 -64 0
v 0 -96 0
v -32 -96 0
v -32 -64 0
v 0 -64 0
v -480 -128 0
v -512 -128 0
v -512 -96 0
v -480 -96 0
v -448 -128 0
v -480 -128 0
v -480 -96 0
v -448 -96 0
v -416 -128 0
v -448 -128 0
v -448 -96 0
v -416 -96 0
v -384 -128 0
v -416 -128 0
v -416 -96 0
v -384 -96 0
v -352 -128 0
v -384 -128 0
v -384 -96 0
v -352 -96 0
v -320 -128 0
v -352 -128 0
v -352 -96 0
v -320 -96 0
v -288 -128 0
v -320 -128 0
v -320 -96 0
v -288 -96 0
v -256 -128 0
v -288 -128 0
v -288 -96 0
v -256 -96 0
v -224 -128 0
v -256 -128 0
v -256 -96 0
v -224 -96 0
v -192 -128 0
v -224 -128 0
v -224 -96 0
v -192 -96 0
v -160 -128 0
v -192 -128 0
v -192 -96 0
v -160 -96 0
v -128 -128 0
v -160 -128 0
v -160 -96 0
v -128 -96 0
v -96 -128 0
v -128 -128 0
v -128 -96 0
v -96 -96 0
v -64 -128 0
v -96 -128 0
v -96 -96 0
v -64 -96 0
v -32 -128 0
v -64 -128 0
v -64 -96 0
v -32 -96 0
v 0 -128 0
v -32 -128 0
v -32 -96 0
v 0 -96 0
v -480 -160 0
v -512 -160 0
v -512 -128 0
v -480 -128 0
v -448 -160 0
v -480 -160 0
v -480 -128 0
v -448 -128 0
v -416 -160 0
v -448 -160 0
v -448 -128 0
v -416 -128 0
v -384 -160 0
v -416 -160 0
v -416 -128 0
v -384 -128 0
v -352 -160 0
v -384 -160 0
v -384 -128 0
v -352 -128 0
v -320 -160 0
v -352 -160 0
v -352 -128 0
v -320 -128 0
v -288 -160 0
v -320 -160 0
v -320 -128 0
v -288 -128 0
v -256 -160 0
v -288 -160 0
v -288 -128 0
v -256 -128 0
v -224 -160 0
v -256 -160 0
v -256 -128 0
v -224 -128 0
v -192 -160 0
v -224 -160 0
v -224 -128 0
v -192 -128 0
v -160 -160 0
v -192 -160 0
v -192 -128 0
v -160 -128 0
v -128 -160 0
v -160 -160 0
v -160 -128 0
v -128 -128 0
v -96 -160 0
v -128 -160 0
v -128 -128 0
v -96 -128 0
v -64 -160 0
v -96 -160 0
v -96 -128 0
v -64 -128 0
v -32 -160 0
v -64 -160 0
v -64 -128 0
v -32 -128 0
v 0 -160 0
v -32 -160 0
v -32 -128 0
v 0 -128 0
v -480 -192 0
v -512 -192 0
v -512 -160 0
v -480 -160 0
v -448 -192 0
v -480 -192 0
v -480 -160 0
v -448 -160 0
v -416 -192 0
v -448 -192 0
v -448 -160 0
v -416 -160 0
v -384 -192 0
v -416 -192 0
v -416 -160 0
v -384 -160 0
v -352 -192 0
v -384 -192 0
v -384 -160 0
v -352 -160 0
v -320 -192 0
v -352 -192 0
v -352 -160 0
v -320 -160 0
v -288 -192 0
v -320 -192 0
v -320 -160 0
v -288 -160 0
v -256 -192 0
v -288 -192 0
v -288 -160 0
v -256 -160 0
v -224 -192 0
v -256 -192 0
v -256 -160 0
v -224 -160 0
v -192 -192 0
v -224 -192 0
v -224 -160 0
v -192 -160 0
v -160 -192 0
v -192 -192 0
v -192 -160 0
v -160 -160 0
v -128 -192 0
v -160 -192 0
v -160 -160 0
v -128 -160 0
v -96 -192 0
v -128 -192 0
v -128 -160 0
v -96 -160 0
v -64 -192 0
v -96 -192 0
v -96 -160 0
v -64 -160 0
v -32 -192 0
v -64 -192 0
v -64 -160 0
v -32 -160 0
v 0 -192 0
v -32 -192 0
v -32 -160 0
v 0 -160 0
v -480 -224 0
v -512 -224 0
v -512 -192 0
v -480 -192 0
v -448 -224 0
v -480 -224 0
v -480 -192 0
v -448 -192 0
v -416 -224 0
v -448 -224 0
v -448 -192 0
v -416 -192 0
v -384 -224 0
v -416 -224 0
v -416 -192 0
v -384 -192 0
v -352 -224 0
v -384 -224 0
v -384 -192 0
v -352 -192 0
v -320 -224 0
v -352 -224 0
v -352 -192 0
v -320 -192 0
v -288 -224 0
v -320 -224 0
v -320 -192 0
v -288 -192 0
v -256 -224 0
v -288 -224 0
v -288 -192 0
v -256 -192 0
v -224 -224 0
v -256 -224 0
v -256 -192 0
v -224 -192 0
v -192 -224 0
v -224 -224 0
v -224 -192 0
v -192 -192 0
v -160 -224 0
v -192 -224 0
v -192 -192 0
v -160 -192 0
v -128 -224 0
v -160 -224 0
v -160 -192 0
v -128 -192 0
v -96 -224 0
v -128 -224 0
v -128 -192 0
v -96 -192 0
v -64 -224 0
v -96 -224 0
v -96 -192 0
v -64 -192 0
v -32 -224 0
v -64 -224 0
v -64 -192 0
v -32 -192 0
v 0 -224 0
v -32 -224 0
v -32 -192 0
v 0 -192 0
v -480 -256 0
v -512 -256 0
v -512 -224 0
v -480 -224 0
v -448 -256 0
v -480 -256 0
v -480 -224 0
v -448 -224 0
v -416 -256 0
v -448 -256 0
v -448 -224 0
v -416 -224 0
v -384 -256 0
v -416 -256 0
v -416 -224 0
v -384 -224 0
v -352 -256 0
v -384 -256 0
v -384 -224 0
v -352 -224 0
v -320 -256 0
v -352 -256 0
v -352 -224 0
v -320 -224 0
v -288 -256 0
v -320 -256 0
v -320 -224 0
v -288 -224 0
v -256 -256 0
v -288 -256 0
v -288 -224 0
v -256 -224 0
v -224 -256 0
v -256 -256 0
v -256 -224 0
v -224 -224 0
v -192 -256 0
v -224 -256 0
v -224 -224 0
v -192 -224 0
v -160 -256 0
v -192 -256 0
v -192 -224 0
v -160 -224 0
v -128 -256 0
v -160 -256 0
v -160 -224 0
v -128 -224 0
v -96 -256 0
v -128 -256 0
v -128 -224 0
v -96 -224 0
v -64 -256 0
v -96 -256 0
v -96 -224 0
v -64 -224 0
v -32 -256 0
v -64 -256 0
v -64 -224 0
v -32 -224 0
v 0 -256 0
v -32 -256 0
v -32 -224 0
v 0 -224 0
v -480 -288 0
v -512 -288 0
v -512 -256 0
v -480 -256 0
v -448 -288 0
v -480 -288 0
v -480 -256 0
v -448 -256 0
v -416 -288 0
v -448 -288 0
v -448 -256 0
v -416 -256 0
v -384 -288 0
v -416 -288 0
v -416 -256 0
v -384 -256 0
v -352 -288 0
v -384 -288 0
v -384 -256 0
v -352 -256 0
v -320 -288 0
v -352 -288 0
v -352 -256 0
v -320 -256 0
v -288 -288 0
v -320 -288 0
v -320 -256 0
v -288 -256 0
v -256 -288 0
v -288 -288 0
v -288 -256 0
v -256 -256 0
v -224 -288 0
v -256 -288 0
v -256 -256 0
v -224 -256 0
v -192 -288 0
v -224 -288 0
v -224 -256 0
v -192 -256 0
v -160 -288 0
v -192 -288 0
v -192 -256 0
v -160 -256 0
v -128 -288 0
v -160 -288 0
v -160 -256 0
v -128 -256 0
v -96 -288 0
v -128 -288 0
v -128 -256 0
v -96 -256 0
v -64 -288 0
v -96 -288 0
v -96 -256 0
v -64 -256 0
v -32 -288 0
v -64 -288 0
v -64 -256 0
v -32 -256 0
v 0 -288 0
v -32 -288 0
v -32 -256 0
v 0 -256 0
v -480 -320 0
v -512 -320 0
v -512 -288 0
v -480 -288 0
v -448 -320 0
v -480 -320 0
v -480 -288 0
v -448 -288 0
v -416 -320 0
v -448 -320 0
v -448 -288 0
v -416 -288 0
v -384 -320 0
v -416 -320 0
v -416 -288 0
v -384 -288 0
v -352 -320 0
v -384 -320 0
v -384 -288 0
v -352 -288 0
v -320 -320 0
v -352 -320 0
v -352 -288 0
v -320 -288 0
v -288 -320 0
v -320 -320 0
v -320 -288 0
v -288 -288 0
v -256 -320 0
v -288 -320 0
v -288 -288 0
v -256 -288 0
v -224 -320 0
v -256 -320 0
v -256 -288 0
v -224 -288 0
v -192 -320 0
v -224 -320 0
v -224 -288 0
v -192 -288 0
v -160 -320 0
v -192 -320 0
v -192 -288 0
v -160 -288 0
v -128 -320 0
v -160 -320 0
v -160 -288 0
v -128 -288 0
v -96 -320 0
v -128 -320 0
v -128 -288 0
v -96 -288 0
v -64 -320 0
v -96 -320 0
v -96 -288 0
v -64 -288 0
v -32 -320 0
v -64 -320 0
v -64 -288 0
v -32 -288 0
v 0 -320 0
v -32 -320 0
v -32 -288 0
v 0 -288 0
v -480 -352 0
v -512 -352 0
v -512 -320 0
v -480 -320 0
v -448 -352 0
v -480 -352 0
v -480 -320 0
v -448 -320 0
v -416 -352 0
v -448 -352 0
v -448 -320 0
v -416 -320 0
v -384 -352 0
v -416 -352 0
v -416 -320 0
v -384 -320 0
v -352 -352 0
v -384 -352 0
v -384 -320 0
v -352 -320 0
v -320 -352 0
v -352 -352 0
v -352 -320 0
v -320 -320 0
v -288 -352 0
v -320 -352 0
v -320 -320 0
v -288 -320 0
v -256 -352 0
v -288 -352 0
v -288 -320 0
v -256 -320 0
v -224 -352 0
v -256 -352 0
v -256 -320 0
v -224 -320 0
v -192 -352 0
v -224 -352 0
v -224 -320 0
v -192 -320 0
v -160 -352 0
v -192 -352 0
v -192 -320 0
v -160 -320 0
v -128 -352 0
v -160 -352 0
v -160 -320 0
v -128 -320 0
v -96 -352 0
v -128 -352 0
v -128 -320 0
v -96 -320 0
v -64 -352 0
v -96 -352 0
v -96 -320 0
v -64 -320 0
v -32 -352 0
v -64 -352 0
v -64 -320 0
v -32 -320 0
v 0 -352 0
v -32 -352 0
v -32 -320 0
v 0 -320 0
v -480 -384 0
v -512 -384 0
v -512 -352 0
v -480 -352 0
v -448 -384 0
v -480 -384 0
v -480 -352 0
v -448 -352 0
v -416 -384 0
v -448 -384 0
v -448 -352 0
v -416 -352 0
v -384 -384 0
v -416 -384 0
v -416 -352 0
v -384 -352 0
v -352 -384 0
v -384 -384 0
v -384 -352 0
v -352 -352 0
v -320 -384 0
v -352 -384 0
v -352 -352 0
v -320 -352 0
v -288 -384 0
v -320 -384 0
v -320 -352 0
v -288 -352 0
v -256 -384 0
v -288 -384 0
v -288 -352 0
v -256 -352 0
v -224 -384 0
v -256 -384 0
v -256 -352 0
v -224 -352 0
v -192 -384 0
v -224 -384 0
v -224 -352 0
v -192 -352 0
v -160 -384 0
v -192 -384 0
v -192 -352 0
v -160 -352 0
v -128 -384 0
v -160 -384 0
v -160 -352 0
v -128 -352 0
v -96 -384 0
v -128 -384 0
v -128 -352 0
v -96 -352 0
v -64 -384 0
v -96 -384 0
v -96 -352 0
v -64 -352 0
v -32 -384 0
v -64 -384 0
v -64 -352 0
v -32 -352 0
v 0 -384 0
v -32 -384 0
v -32 -352 0
v 0 -352 0
v -480 -416 0
v -512 -416 0
v -512 -384 0
v -480 -384 0
v -448 -416 0
v -480 -416 0
v -480 -384 0
v -448 -384 0
v -416 -416 0
v -448 -416 0
v -448 -384 0
v -416 -384 0
v -384 -416 0
v -416 -416 0
v -416 -384 0
v -384 -384 0
v -352 -416 0
v -384 -416 0
v -384 -384 0
v -352 -384 0
v -320 -416 0
v -352 -416 0
v -352 -384 0
v -320 -384 0
v -288 -416 0
v -320 -416 0
v -320 -384 0
v -288 -384 0
v -256 -416 0
v -288 -416 0
v -288 -384 0
v -256 -384 0
v -224 -416 0
v -256 -416 0
v -256 -384 0
v -224 -384 0
v -192 -416 0
v -224 -416 0
v -224 -384 0
v -192 -384 0
v -160 -416 0
v -192 -416 0
v -192 -384 0
v -160 -384 0
v -128 -416 0
v -160 -416 0
v -160 -384 0
v -128 -384 0
v -96 -416 0
v -128 -416 0
v -128 -384 0
v -96 -384 0
v -64 -416 0
v -96 -416 0
v -96 -384 0
v -64 -384 0
v -32 -416 0
v -64 -416 0
v -64 -384 0
v -32 -384 0
v 0 -416 0
v -32 -416 0
v -32 -384 0
v 0 -384 0
v -480 -448 0
v -512 -448 0
v -512 -416 0
v -480 -416 0
v -448 -448 0
v -480 -448 0
v -480 -416 0
v -448 -416 0
v -416 -448 0
v -448 -448 0
v -448 -416 0
v -416 -416 0
v -384 -448 0
v -416 -448 0
v -416 -416 0
v -384 -416 0
v -352 -448 0
v -384 -448 0
v -384 -416 0
v -352 -416 0
v -320 -448 0
v -352 -448 0
v -352 -416 0
v -320 -416 0
v -288 -448 0
v -320 -448 0
v -320 -416 0
v -288 -416 0
v -256 -448 0
v -288 -448 0
v -288 -416 0
v -256 -416 0
v -224 -448 0
v -256 -448 0
v -256 -416 0
v -224 -416 0
v -192 -448 0
v -224 -448 0
v -224 -416 0
v -192 -416 0
v -160 -448 0
v -192 -448 0
v -192 -416 0
v -160 -416 0
v -128 -448 0
v -160 -448 0
v -160 -416 0
v -128 -416 0
v -96 -448 0
v -128 -448 0
v -128 -416 0
v -96 -416 0
v -64 -448 0
v -96 -448 0
v -96 -416 0
v -64 -416 0
v -32 -448 0
v -64 -448 0
v -64 -416 0
v -32 -416 0
v 0 -448 0
v -32 -448 0
v -32 -416 0
v 0 -416 0
v -480 -480 0
v -512 -480 0
v -512 -448 0
v -480 -448 0
v -448 -480 0
v -480 -480 0
v -480 -448 0
v -448 -448 0
v -416 -480 0
v -448 -480 0
v -448 -448 0
v -416 -448 0
v -384 -480 0
v -416 -480 0
v -416 -448 0
v -384 -448 0
v -352 -480 0
v -384 -480 0
v -384 -448 0
v -352 -448 0
v -320 -480 0
v -352 -480 0
v -352 -448 0
v -320 -448 0
v -288 -480 0
v -320 -480 0
v -320 -448 0
v -288 -448 0
v -256 -480 0
v -288 -480 0
v -288 -448 0
v -256 -448 0
v -224 -480 0
v -256 -480 0
v -256 -448 0
v -224 -448 0
v -192 -480 0
v -224 -480 0
v -224 -448 0
v -192 -448 0
v -160 -480 0
v -192 -480 0
v -192 -448 0
v -160 -448 0
v -128 -480 0
v -160 -480 0
v -160 -448 0
v -128 -448 0
v -96 -480 0
v -128 -480 0
v -128 -448 0
v -96 -448 0
v -64 -480 0
v -96 -480 0
v -96 -448 0
v -64 -448 0
v -32 -480 0
v -64 -480 0
v -64 -448 0
v -32 -448 0
v 0 -480 0
v -32 -480 0
v -32 -448 0
v 0 -448 0
v -480 -512 0
v -512 -512 0
v -512 -480 0
v -480 -480 0
v -448 -512 0
v -480 -512 0
v -480 -480 0
v -448 -480 0
v -416 -512 0
v -448 -512 0
v -448 -480 0
v -416 -480 0
v -384 -512 0
v -416 -512 0
v -416 -480 0
v -384 -480 0
v -352 -512 0
v -384 -512 0
v -384 -480 0
v -352 -480 0
v -320 -512 0
v -352 -512 0
v -352 -480 0
v -320 -480 0
v -288 -512 0
v -320 -512 0
v -320 -480 0
v -288 -480 0
v -256 -512 0
v -288 -512 0
v -288 -480 0
v -256 -480 0
v -224 -512 0
v -256 -512 0
v -256 -480 0
v -224 -480 0
v -192 -512 0
v -224 -512 0
v -224 -480 0
v -192 -480 0
v -160 -512 0
v -192 -512 0
v -192 -480 0
v -160 -480 0
v -128 -512 0
v -160 -512 0
v -160 -480 0
v -128 -480 0
v -96 -512 0
v -128 -512 0
v -128 -480 0
v -96 -480 0
v -64 -512 0
v -96 -512 0
v -96 -480 0
v -64 -480 0
v -32 -512 0
v -64 -512 0
v -64 -480 0
v -32 -480 0
v 0 -512 0
v -32 -512 0
v -32 -480 0
v 0 -480 0

# Texture cooridinates (Count = 23)
vt 0.03125 0.53125
vt 0.0625 0.53125
vt 0.0625 0.5625
vt 0.03125 0.5625
vt 0 0.53125
vt 0 0.5625
vt 0.125 0.59375
vt 0.15625 0.59375
vt 0.15625 0.625
vt 0.125 0.625
vt 0.09375 0.53125
vt 0.09375 0.5625
vt 0.15625 0.6875
vt 0.1875 0.6875
vt 0.1875 0.71875
vt 0.15625 0.71875
vt 0.125 0.5625
vt 0.15625 0.5625
vt 0.09375 0.59375
vt 0.25 0.53125
vt 0.28125 0.53125
vt 0.28125 0.5625
vt 0.25 0.5625

# Normal
vn 0 0 -1

# Mesh description
g Plage32_mesh_0027

# Faces
f 1/1/1 2/2/1 3/3/1 4/4/1
f 5/5/1 6/1/1 7/4/1 8/6/1
f 9/5/1 10/1/1 11/4/1 12/6/1
f 13/1/1 14/2/1 15/3/1 16/4/1
f 17/7/1 18/8/1 19/9/1 20/10/1
f 21/5/1 22/1/1 23/4/1 24/6/1
f 25/5/1 26/1/1 27/4/1 28/6/1
f 29/5/1 30/1/1 31/4/1 32/6/1
f 33/5/1 34/1/1 35/4/1 36/6/1
f 37/5/1 38/1/1 39/4/1 40/6/1
f 41/1/1 42/2/1 43/3/1 44/4/1
f 45/7/1 46/8/1 47/9/1 48/10/1
f 49/5/1 50/1/1 51/4/1 52/6/1
f 53/5/1 54/1/1 55/4/1 56/6/1
f 57/1/1 58/2/1 59/3/1 60/4/1
f 61/1/1 62/2/1 63/3/1 64/4/1
f 65/7/1 66/8/1 67/9/1 68/10/1
f 69/5/1 70/1/1 71/4/1 72/6/1
f 73/2/1 74/11/1 75/12/1 76/3/1
f 77/7/1 78/8/1 79/9/1 80/10/1
f 81/7/1 82/8/1 83/9/1 84/10/1
f 85/7/1 86/8/1 87/9/1 88/10/1
f 89/2/1 90/11/1 91/12/1 92/3/1
f 93/1/1 94/2/1 95/3/1 96/4/1
f 97/7/1 98/8/1 99/9/1 100/10/1
f 101/5/1 102/1/1 103/4/1 104/6/1
f 105/7/1 106/8/1 107/9/1 108/10/1
f 109/1/1 110/2/1 111/3/1 112/4/1
f 113/7/1 114/8/1 115/9/1 116/10/1
f 117/5/1 118/1/1 119/4/1 120/6/1
f 121/5/1 122/1/1 123/4/1 124/6/1
f 125/2/1 126/11/1 127/12/1 128/3/1
f 129/1/1 130/2/1 131/3/1 132/4/1
f 133/2/1 134/11/1 135/12/1 136/3/1
f 137/2/1 138/11/1 139/12/1 140/3/1
f 141/2/1 142/11/1 143/12/1 144/3/1
f 145/7/1 146/8/1 147/9/1 148/10/1
f 149/7/1 150/8/1 151/9/1 152/10/1
f 153/1/1 154/2/1 155/3/1 156/4/1
f 157/7/1 158/8/1 159/9/1 160/10/1
f 161/2/1 162/11/1 163/12/1 164/3/1
f 165/2/1 166/11/1 167/12/1 168/3/1
f 169/2/1 170/11/1 171/12/1 172/3/1
f 173/7/1 174/8/1 175/9/1 176/10/1
f 177/2/1 178/11/1 179/12/1 180/3/1
f 181/1/1 182/2/1 183/3/1 184/4/1
f 185/7/1 186/8/1 187/9/1 188/10/1
f 189/1/1 190/2/1 191/3/1 192/4/1
f 193/2/1 194/11/1 195/12/1 196/3/1
f 197/1/1 198/2/1 199/3/1 200/4/1
f 201/1/1 202/2/1 203/3/1 204/4/1
f 205/5/1 206/1/1 207/4/1 208/6/1
f 209/7/1 210/8/1 211/9/1 212/10/1
f 213/2/1 214/11/1 215/12/1 216/3/1
f 217/5/1 218/1/1 219/4/1 220/6/1
f 221/7/1 222/8/1 223/9/1 224/10/1
f 225/1/1 226/2/1 227/3/1 228/4/1
f 229/1/1 230/2/1 231/3/1 232/4/1
f 233/7/1 234/8/1 235/9/1 236/10/1
f 237/2/1 238/11/1 239/12/1 240/3/1
f 241/5/1 242/1/1 243/4/1 244/6/1
f 245/1/1 246/2/1 247/3/1 248/4/1
f 249/2/1 250/11/1 251/12/1 252/3/1
f 253/2/1 254/11/1 255/12/1 256/3/1
f 257/1/1 258/2/1 259/3/1 260/4/1
f 261/1/1 262/2/1 263/3/1 264/4/1
f 265/2/1 266/11/1 267/12/1 268/3/1
f 269/5/1 270/1/1 271/4/1 272/6/1
f 273/5/1 274/1/1 275/4/1 276/6/1
f 277/5/1 278/1/1 279/4/1 280/6/1
f 281/7/1 282/8/1 283/9/1 284/10/1
f 285/1/1 286/2/1 287/3/1 288/4/1
f 289/5/1 290/1/1 291/4/1 292/6/1
f 293/2/1 294/11/1 295/12/1 296/3/1
f 297/5/1 298/1/1 299/4/1 300/6/1
f 301/2/1 302/11/1 303/12/1 304/3/1
f 305/7/1 306/8/1 307/9/1 308/10/1
f 309/5/1 310/1/1 311/4/1 312/6/1
f 313/2/1 314/11/1 315/12/1 316/3/1
f 317/1/1 318/2/1 319/3/1 320/4/1
f 321/1/1 322/2/1 323/3/1 324/4/1
f 325/1/1 326/2/1 327/3/1 328/4/1
f 329/1/1 330/2/1 331/3/1 332/4/1
f 333/5/1 334/1/1 335/4/1 336/6/1
f 337/7/1 338/8/1 339/9/1 340/10/1
f 341/5/1 342/1/1 343/4/1 344/6/1
f 345/1/1 346/2/1 347/3/1 348/4/1
f 349/5/1 350/1/1 351/4/1 352/6/1
f 353/2/1 354/11/1 355/12/1 356/3/1
f 357/5/1 358/1/1 359/4/1 360/6/1
f 361/5/1 362/1/1 363/4/1 364/6/1
f 365/2/1 366/11/1 367/12/1 368/3/1
f 369/2/1 370/11/1 371/12/1 372/3/1
f 373/1/1 374/2/1 375/3/1 376/4/1
f 377/2/1 378/11/1 379/12/1 380/3/1
f 381/13/1 382/14/1 383/15/1 384/16/1
f 385/5/1 386/1/1 387/4/1 388/6/1
f 389/7/1 390/8/1 391/9/1 392/10/1
f 393/7/1 394/8/1 395/9/1 396/10/1
f 397/5/1 398/1/1 399/4/1 400/6/1
f 401/7/1 402/8/1 403/9/1 404/10/1
f 405/1/1 406/2/1 407/3/1 408/4/1
f 409/2/1 410/11/1 411/12/1 412/3/1
f 413/5/1 414/1/1 415/4/1 416/6/1
f 417/5/1 418/1/1 419/4/1 420/6/1
f 421/1/1 422/2/1 423/3/1 424/4/1
f 425/5/1 426/1/1 427/4/1 428/6/1
f 429/7/1 430/8/1 431/9/1 432/10/1
f 433/5/1 434/1/1 435/4/1 436/6/1
f 437/13/1 438/14/1 439/15/1 440/16/1
f 441/17/1 442/18/1 443/8/1 444/7/1
f 445/12/1 446/17/1 447/7/1 448/19/1
f 449/5/1 450/1/1 451/4/1 452/6/1
f 453/1/1 454/2/1 455/3/1 456/4/1
f 457/5/1 458/1/1 459/4/1 460/6/1
f 461/1/1 462/2/1 463/3/1 464/4/1
f 465/2/1 466/11/1 467/12/1 468/3/1
f 469/7/1 470/8/1 471/9/1 472/10/1
f 473/2/1 474/11/1 475/12/1 476/3/1
f 477/7/1 478/8/1 479/9/1 480/10/1
f 481/5/1 482/1/1 483/4/1 484/6/1
f 485/7/1 486/8/1 487/9/1 488/10/1
f 489/7/1 490/8/1 491/9/1 492/10/1
f 493/5/1 494/1/1 495/4/1 496/6/1
f 497/13/1 498/14/1 499/15/1 500/16/1
f 501/12/1 502/17/1 503/7/1 504/19/1
f 505/20/1 506/21/1 507/22/1 508/23/1
f 509/20/1 510/21/1 511/22/1 512/23/1
f 513/7/1 514/8/1 515/9/1 516/10/1
f 517/5/1 518/1/1 519/4/1 520/6/1
f 521/2/1 522/11/1 523/12/1 524/3/1
f 525/5/1 526/1/1 527/4/1 528/6/1
f 529/2/1 530/11/1 531/12/1 532/3/1
f 533/7/1 534/8/1 535/9/1 536/10/1
f 537/7/1 538/8/1 539/9/1 540/10/1
f 541/7/1 542/8/1 543/9/1 544/10/1
f 545/1/1 546/2/1 547/3/1 548/4/1
f 549/7/1 550/8/1 551/9/1 552/10/1
f 553/13/1 554/14/1 555/15/1 556/16/1
f 557/17/1 558/18/1 559/8/1 560/7/1
f 561/12/1 562/17/1 563/7/1 564/19/1
f 565/20/1 566/21/1 567/22/1 568/23/1
f 569/20/1 570/21/1 571/22/1 572/23/1
f 573/20/1 574/21/1 575/22/1 576/23/1
f 577/7/1 578/8/1 579/9/1 580/10/1
f 581/7/1 582/8/1 583/9/1 584/10/1
f 585/2/1 586/11/1 587/12/1 588/3/1
f 589/2/1 590/11/1 591/12/1 592/3/1
f 593/1/1 594/2/1 595/3/1 596/4/1
f 597/1/1 598/2/1 599/3/1 600/4/1
f 601/1/1 602/2/1 603/3/1 604/4/1
f 605/7/1 606/8/1 607/9/1 608/10/1
f 609/13/1 610/14/1 611/15/1 612/16/1
f 613/17/1 614/18/1 615/8/1 616/7/1
f 617/12/1 618/17/1 619/7/1 620/19/1
f 621/20/1 622/21/1 623/22/1 624/23/1
f 625/20/1 626/21/1 627/22/1 628/23/1
f 629/20/1 630/21/1 631/22/1 632/23/1
f 633/20/1 634/21/1 635/22/1 636/23/1
f 637/20/1 638/21/1 639/22/1 640/23/1
f 641/1/1 642/2/1 643/3/1 644/4/1
f 645/5/1 646/1/1 647/4/1 648/6/1
f 649/5/1 650/1/1 651/4/1 652/6/1
f 653/5/1 654/1/1 655/4/1 656/6/1
f 657/2/1 658/11/1 659/12/1 660/3/1
f 661/7/1 662/8/1 663/9/1 664/10/1
f 665/13/1 666/14/1 667/15/1 668/16/1
f 669/12/1 670/17/1 671/7/1 672/19/1
f 673/20/1 674/21/1 675/22/1 676/23/1
f 677/20/1 678/21/1 679/22/1 680/23/1
f 681/20/1 682/21/1 683/22/1 684/23/1
f 685/20/1 686/21/1 687/22/1 688/23/1
f 689/20/1 690/21/1 691/22/1 692/23/1
f 693/20/1 694/21/1 695/22/1 696/23/1
f 697/20/1 698/21/1 699/22/1 700/23/1
f 701/20/1 702/21/1 703/22/1 704/23/1
f 705/5/1 706/1/1 707/4/1 708/6/1
f 709/2/1 710/11/1 711/12/1 712/3/1
f 713/5/1 714/1/1 715/4/1 716/6/1
f 717/7/1 718/8/1 719/9/1 720/10/1
f 721/13/1 722/14/1 723/15/1 724/16/1
f 725/17/1 726/18/1 727/8/1 728/7/1
f 729/12/1 730/17/1 731/7/1 732/19/1
f 733/20/1 734/21/1 735/22/1 736/23/1
f 737/20/1 738/21/1 739/22/1 740/23/1
f 741/20/1 742/21/1 743/22/1 744/23/1
f 745/20/1 746/21/1 747/22/1 748/23/1
f 749/20/1 750/21/1 751/22/1 752/23/1
f 753/20/1 754/21/1 755/22/1 756/23/1
f 757/20/1 758/21/1 759/22/1 760/23/1
f 761/20/1 762/21/1 763/22/1 764/23/1
f 765/20/1 766/21/1 767/22/1 768/23/1
f 769/17/1 770/18/1 771/8/1 772/7/1
f 773/17/1 774/18/1 775/8/1 776/7/1
f 777/17/1 778/18/1 779/8/1 780/7/1
f 781/17/1 782/18/1 783/8/1 784/7/1
f 785/12/1 786/17/1 787/7/1 788/19/1
f 789/20/1 790/21/1 791/22/1 792/23/1
f 793/20/1 794/21/1 795/22/1 796/23/1
f 797/20/1 798/21/1 799/22/1 800/23/1
f 801/20/1 802/21/1 803/22/1 804/23/1
f 805/20/1 806/21/1 807/22/1 808/23/1
f 809/20/1 810/21/1 811/22/1 812/23/1
f 813/20/1 814/21/1 815/22/1 816/23/1
f 817/20/1 818/21/1 819/22/1 820/23/1
f 821/20/1 822/21/1 823/22/1 824/23/1
f 825/20/1 826/21/1 827/22/1 828/23/1
f 829/20/1 830/21/1 831/22/1 832/23/1
f 833/20/1 834/21/1 835/22/1 836/23/1
f 837/20/1 838/21/1 839/22/1 840/23/1
f 841/20/1 842/21/1 843/22/1 844/23/1
f 845/20/1 846/21/1 847/22/1 848/23/1
f 849/20/1 850/21/1 851/22/1 852/23/1
f 853/20/1 854/21/1 855/22/1 856/23/1
f 857/20/1 858/21/1 859/22/1 860/23/1
f 861/20/1 862/21/1 863/22/1 864/23/1
f 865/20/1 866/21/1 867/22/1 868/23/1
f 869/20/1 870/21/1 871/22/1 872/23/1
f 873/20/1 874/21/1 875/22/1 876/23/1
f 877/20/1 878/21/1 879/22/1 880/23/1
f 881/20/1 882/21/1 883/22/1 884/23/1
f 885/20/1 886/21/1 887/22/1 888/23/1
f 889/20/1 890/21/1 891/22/1 892/23/1
f 893/20/1 894/21/1 895/22/1 896/23/1
f 897/20/1 898/21/1 899/22/1 900/23/1
f 901/20/1 902/21/1 903/22/1 904/23/1
f 905/20/1 906/21/1 907/22/1 908/23/1
f 909/20/1 910/21/1 911/22/1 912/23/1
f 913/20/1 914/21/1 915/22/1 916/23/1
f 917/20/1 918/21/1 919/22/1 920/23/1
f 921/20/1 922/21/1 923/22/1 924/23/1
f 925/20/1 926/21/1 927/22/1 928/23/1
f 929/20/1 930/21/1 931/22/1 932/23/1
f 933/20/1 934/21/1 935/22/1 936/23/1
f 937/20/1 938/21/1 939/22/1 940/23/1
f 941/20/1 942/21/1 943/22/1 944/23/1
f 945/20/1 946/21/1 947/22/1 948/23/1
f 949/20/1 950/21/1 951/22/1 952/23/1
f 953/20/1 954/21/1 955/22/1 956/23/1
f 957/20/1 958/21/1 959/22/1 960/23/1
f 961/20/1 962/21/1 963/22/1 964/23/1
f 965/20/1 966/21/1 967/22/1 968/23/1
f 969/20/1 970/21/1 971/22/1 972/23/1
f 973/20/1 974/21/1 975/22/1 976/23/1
f 977/20/1 978/21/1 979/22/1 980/23/1
f 981/20/1 982/21/1 983/22/1 984/23/1
f 985/20/1 986/21/1 987/22/1 988/23/1
f 989/20/1 990/21/1 991/22/1 992/23/1
f 993/20/1 994/21/1 995/22/1 996/23/1
f 997/20/1 998/21/1 999/22/1 1000/23/1
f 1001/20/1 1002/21/1 1003/22/1 1004/23/1
f 1005/20/1 1006/21/1 1007/22/1 1008/23/1
f 1009/20/1 1010/21/1 1011/22/1 1012/23/1
f 1013/20/1 1014/21/1 1015/22/1 1016/23/1
f 1017/20/1 1018/21/1 1019/22/1 1020/23/1
f 1021/20/1 1022/21/1 1023/22/1 1024/23/1

