# Tiled2Unity generated file. Do not modify by hand.
# Wavefront file for 'Plage32_mesh_0077.obj'

# Vertices (Count = 56)
v -192 -32 0
v -224 -32 0
v -224 0 0
v -192 0 0
v -288 -64 0
v -320 -64 0
v -320 -32 0
v -288 -32 0
v -256 -128 0
v -288 -128 0
v -288 -96 0
v -256 -96 0
v -320 -160 0
v -352 -160 0
v -352 -128 0
v -320 -128 0
v -256 -192 0
v -288 -192 0
v -288 -160 0
v -256 -160 0
v -64 -192 0
v -96 -192 0
v -96 -160 0
v -64 -160 0
v -224 -224 0
v -256 -224 0
v -256 -192 0
v -224 -192 0
v -256 -256 0
v -288 -256 0
v -288 -224 0
v -256 -224 0
v -160 -288 0
v -192 -288 0
v -192 -256 0
v -160 -256 0
v -320 -320 0
v -352 -320 0
v -352 -288 0
v -320 -288 0
v -288 -320 0
v -320 -320 0
v -320 -288 0
v -288 -288 0
v -224 -352 0
v -256 -352 0
v -256 -320 0
v -224 -320 0
v -256 -384 0
v -288 -384 0
v -288 -352 0
v -256 -352 0
v -288 -416 0
v -320 -416 0
v -320 -384 0
v -288 -384 0

# Texture cooridinates (Count = 4)
vt 0.125 0.4285714
vt 0.15625 0.4285714
vt 0.15625 0.4444444
vt 0.125 0.4444444

# Normal
vn 0 0 -1

# Mesh description
g Plage32_mesh_0077

# Faces
f 1/1/1 2/2/1 3/3/1 4/4/1
f 5/1/1 6/2/1 7/3/1 8/4/1
f 9/1/1 10/2/1 11/3/1 12/4/1
f 13/1/1 14/2/1 15/3/1 16/4/1
f 17/1/1 18/2/1 19/3/1 20/4/1
f 21/1/1 22/2/1 23/3/1 24/4/1
f 25/1/1 26/2/1 27/3/1 28/4/1
f 29/1/1 30/2/1 31/3/1 32/4/1
f 33/1/1 34/2/1 35/3/1 36/4/1
f 37/1/1 38/2/1 39/3/1 40/4/1
f 41/1/1 42/2/1 43/3/1 44/4/1
f 45/1/1 46/2/1 47/3/1 48/4/1
f 49/1/1 50/2/1 51/3/1 52/4/1
f 53/1/1 54/2/1 55/3/1 56/4/1

