# Tiled2Unity generated file. Do not modify by hand.
# Wavefront file for 'Plage32_mesh_0022.obj'

# Vertices (Count = 1024)
v -480 -32 0
v -512 -32 0
v -512 0 0
v -480 0 0
v -448 -32 0
v -480 -32 0
v -480 0 0
v -448 0 0
v -416 -32 0
v -448 -32 0
v -448 0 0
v -416 0 0
v -384 -32 0
v -416 -32 0
v -416 0 0
v -384 0 0
v -352 -32 0
v -384 -32 0
v -384 0 0
v -352 0 0
v -320 -32 0
v -352 -32 0
v -352 0 0
v -320 0 0
v -288 -32 0
v -320 -32 0
v -320 0 0
v -288 0 0
v -256 -32 0
v -288 -32 0
v -288 0 0
v -256 0 0
v -224 -32 0
v -256 -32 0
v -256 0 0
v -224 0 0
v -192 -32 0
v -224 -32 0
v -224 0 0
v -192 0 0
v -160 -32 0
v -192 -32 0
v -192 0 0
v -160 0 0
v -128 -32 0
v -160 -32 0
v -160 0 0
v -128 0 0
v -96 -32 0
v -128 -32 0
v -128 0 0
v -96 0 0
v -64 -32 0
v -96 -32 0
v -96 0 0
v -64 0 0
v -32 -32 0
v -64 -32 0
v -64 0 0
v -32 0 0
v 0 -32 0
v -32 -32 0
v -32 0 0
v 0 0 0
v -480 -64 0
v -512 -64 0
v -512 -32 0
v -480 -32 0
v -448 -64 0
v -480 -64 0
v -480 -32 0
v -448 -32 0
v -416 -64 0
v -448 -64 0
v -448 -32 0
v -416 -32 0
v -384 -64 0
v -416 -64 0
v -416 -32 0
v -384 -32 0
v -352 -64 0
v -384 -64 0
v -384 -32 0
v -352 -32 0
v -320 -64 0
v -352 -64 0
v -352 -32 0
v -320 -32 0
v -288 -64 0
v -320 -64 0
v -320 -32 0
v -288 -32 0
v -256 -64 0
v -288 -64 0
v -288 -32 0
v -256 -32 0
v -224 -64 0
v -256 -64 0
v -256 -32 0
v -224 -32 0
v -192 -64 0
v -224 -64 0
v -224 -32 0
v -192 -32 0
v -160 -64 0
v -192 -64 0
v -192 -32 0
v -160 -32 0
v -128 -64 0
v -160 -64 0
v -160 -32 0
v -128 -32 0
v -96 -64 0
v -128 -64 0
v -128 -32 0
v -96 -32 0
v -64 -64 0
v -96 -64 0
v -96 -32 0
v -64 -32 0
v -32 -64 0
v -64 -64 0
v -64 -32 0
v -32 -32 0
v 0 -64 0
v -32 -64 0
v -32 -32 0
v 0 -32 0
v -480 -96 0
v -512 -96 0
v -512 -64 0
v -480 -64 0
v -448 -96 0
v -480 -96 0
v -480 -64 0
v -448 -64 0
v -416 -96 0
v -448 -96 0
v -448 -64 0
v -416 -64 0
v -384 -96 0
v -416 -96 0
v -416 -64 0
v -384 -64 0
v -352 -96 0
v -384 -96 0
v -384 -64 0
v -352 -64 0
v -320 -96 0
v -352 -96 0
v -352 -64 0
v -320 -64 0
v -288 -96 0
v -320 -96 0
v -320 -64 0
v -288 -64 0
v -256 -96 0
v -288 -96 0
v -288 -64 0
v -256 -64 0
v -224 -96 0
v -256 -96 0
v -256 -64 0
v -224 -64 0
v -192 -96 0
v -224 -96 0
v -224 -64 0
v -192 -64 0
v -160 -96 0
v -192 -96 0
v -192 -64 0
v -160 -64 0
v -128 -96 0
v -160 -96 0
v -160 -64 0
v -128 -64 0
v -96 -96 0
v -128 -96 0
v -128 -64 0
v -96 -64 0
v -64 -96 0
v -96 -96 0
v -96 -64 0
v -64 -64 0
v -32 -96 0
v -64 -96 0
v -64 -64 0
v -32 -64 0
v 0 -96 0
v -32 -96 0
v -32 -64 0
v 0 -64 0
v -480 -128 0
v -512 -128 0
v -512 -96 0
v -480 -96 0
v -448 -128 0
v -480 -128 0
v -480 -96 0
v -448 -96 0
v -416 -128 0
v -448 -128 0
v -448 -96 0
v -416 -96 0
v -384 -128 0
v -416 -128 0
v -416 -96 0
v -384 -96 0
v -352 -128 0
v -384 -128 0
v -384 -96 0
v -352 -96 0
v -320 -128 0
v -352 -128 0
v -352 -96 0
v -320 -96 0
v -288 -128 0
v -320 -128 0
v -320 -96 0
v -288 -96 0
v -256 -128 0
v -288 -128 0
v -288 -96 0
v -256 -96 0
v -224 -128 0
v -256 -128 0
v -256 -96 0
v -224 -96 0
v -192 -128 0
v -224 -128 0
v -224 -96 0
v -192 -96 0
v -160 -128 0
v -192 -128 0
v -192 -96 0
v -160 -96 0
v -128 -128 0
v -160 -128 0
v -160 -96 0
v -128 -96 0
v -96 -128 0
v -128 -128 0
v -128 -96 0
v -96 -96 0
v -64 -128 0
v -96 -128 0
v -96 -96 0
v -64 -96 0
v -32 -128 0
v -64 -128 0
v -64 -96 0
v -32 -96 0
v 0 -128 0
v -32 -128 0
v -32 -96 0
v 0 -96 0
v -480 -160 0
v -512 -160 0
v -512 -128 0
v -480 -128 0
v -448 -160 0
v -480 -160 0
v -480 -128 0
v -448 -128 0
v -416 -160 0
v -448 -160 0
v -448 -128 0
v -416 -128 0
v -384 -160 0
v -416 -160 0
v -416 -128 0
v -384 -128 0
v -352 -160 0
v -384 -160 0
v -384 -128 0
v -352 -128 0
v -320 -160 0
v -352 -160 0
v -352 -128 0
v -320 -128 0
v -288 -160 0
v -320 -160 0
v -320 -128 0
v -288 -128 0
v -256 -160 0
v -288 -160 0
v -288 -128 0
v -256 -128 0
v -224 -160 0
v -256 -160 0
v -256 -128 0
v -224 -128 0
v -192 -160 0
v -224 -160 0
v -224 -128 0
v -192 -128 0
v -160 -160 0
v -192 -160 0
v -192 -128 0
v -160 -128 0
v -128 -160 0
v -160 -160 0
v -160 -128 0
v -128 -128 0
v -96 -160 0
v -128 -160 0
v -128 -128 0
v -96 -128 0
v -64 -160 0
v -96 -160 0
v -96 -128 0
v -64 -128 0
v -32 -160 0
v -64 -160 0
v -64 -128 0
v -32 -128 0
v 0 -160 0
v -32 -160 0
v -32 -128 0
v 0 -128 0
v -480 -192 0
v -512 -192 0
v -512 -160 0
v -480 -160 0
v -448 -192 0
v -480 -192 0
v -480 -160 0
v -448 -160 0
v -416 -192 0
v -448 -192 0
v -448 -160 0
v -416 -160 0
v -384 -192 0
v -416 -192 0
v -416 -160 0
v -384 -160 0
v -352 -192 0
v -384 -192 0
v -384 -160 0
v -352 -160 0
v -320 -192 0
v -352 -192 0
v -352 -160 0
v -320 -160 0
v -288 -192 0
v -320 -192 0
v -320 -160 0
v -288 -160 0
v -256 -192 0
v -288 -192 0
v -288 -160 0
v -256 -160 0
v -224 -192 0
v -256 -192 0
v -256 -160 0
v -224 -160 0
v -192 -192 0
v -224 -192 0
v -224 -160 0
v -192 -160 0
v -160 -192 0
v -192 -192 0
v -192 -160 0
v -160 -160 0
v -128 -192 0
v -160 -192 0
v -160 -160 0
v -128 -160 0
v -96 -192 0
v -128 -192 0
v -128 -160 0
v -96 -160 0
v -64 -192 0
v -96 -192 0
v -96 -160 0
v -64 -160 0
v -32 -192 0
v -64 -192 0
v -64 -160 0
v -32 -160 0
v 0 -192 0
v -32 -192 0
v -32 -160 0
v 0 -160 0
v -480 -224 0
v -512 -224 0
v -512 -192 0
v -480 -192 0
v -448 -224 0
v -480 -224 0
v -480 -192 0
v -448 -192 0
v -416 -224 0
v -448 -224 0
v -448 -192 0
v -416 -192 0
v -384 -224 0
v -416 -224 0
v -416 -192 0
v -384 -192 0
v -352 -224 0
v -384 -224 0
v -384 -192 0
v -352 -192 0
v -320 -224 0
v -352 -224 0
v -352 -192 0
v -320 -192 0
v -288 -224 0
v -320 -224 0
v -320 -192 0
v -288 -192 0
v -256 -224 0
v -288 -224 0
v -288 -192 0
v -256 -192 0
v -224 -224 0
v -256 -224 0
v -256 -192 0
v -224 -192 0
v -192 -224 0
v -224 -224 0
v -224 -192 0
v -192 -192 0
v -160 -224 0
v -192 -224 0
v -192 -192 0
v -160 -192 0
v -128 -224 0
v -160 -224 0
v -160 -192 0
v -128 -192 0
v -96 -224 0
v -128 -224 0
v -128 -192 0
v -96 -192 0
v -64 -224 0
v -96 -224 0
v -96 -192 0
v -64 -192 0
v -32 -224 0
v -64 -224 0
v -64 -192 0
v -32 -192 0
v 0 -224 0
v -32 -224 0
v -32 -192 0
v 0 -192 0
v -480 -256 0
v -512 -256 0
v -512 -224 0
v -480 -224 0
v -448 -256 0
v -480 -256 0
v -480 -224 0
v -448 -224 0
v -416 -256 0
v -448 -256 0
v -448 -224 0
v -416 -224 0
v -384 -256 0
v -416 -256 0
v -416 -224 0
v -384 -224 0
v -352 -256 0
v -384 -256 0
v -384 -224 0
v -352 -224 0
v -320 -256 0
v -352 -256 0
v -352 -224 0
v -320 -224 0
v -288 -256 0
v -320 -256 0
v -320 -224 0
v -288 -224 0
v -256 -256 0
v -288 -256 0
v -288 -224 0
v -256 -224 0
v -224 -256 0
v -256 -256 0
v -256 -224 0
v -224 -224 0
v -192 -256 0
v -224 -256 0
v -224 -224 0
v -192 -224 0
v -160 -256 0
v -192 -256 0
v -192 -224 0
v -160 -224 0
v -128 -256 0
v -160 -256 0
v -160 -224 0
v -128 -224 0
v -96 -256 0
v -128 -256 0
v -128 -224 0
v -96 -224 0
v -64 -256 0
v -96 -256 0
v -96 -224 0
v -64 -224 0
v -32 -256 0
v -64 -256 0
v -64 -224 0
v -32 -224 0
v 0 -256 0
v -32 -256 0
v -32 -224 0
v 0 -224 0
v -480 -288 0
v -512 -288 0
v -512 -256 0
v -480 -256 0
v -448 -288 0
v -480 -288 0
v -480 -256 0
v -448 -256 0
v -416 -288 0
v -448 -288 0
v -448 -256 0
v -416 -256 0
v -384 -288 0
v -416 -288 0
v -416 -256 0
v -384 -256 0
v -352 -288 0
v -384 -288 0
v -384 -256 0
v -352 -256 0
v -320 -288 0
v -352 -288 0
v -352 -256 0
v -320 -256 0
v -288 -288 0
v -320 -288 0
v -320 -256 0
v -288 -256 0
v -256 -288 0
v -288 -288 0
v -288 -256 0
v -256 -256 0
v -224 -288 0
v -256 -288 0
v -256 -256 0
v -224 -256 0
v -192 -288 0
v -224 -288 0
v -224 -256 0
v -192 -256 0
v -160 -288 0
v -192 -288 0
v -192 -256 0
v -160 -256 0
v -128 -288 0
v -160 -288 0
v -160 -256 0
v -128 -256 0
v -96 -288 0
v -128 -288 0
v -128 -256 0
v -96 -256 0
v -64 -288 0
v -96 -288 0
v -96 -256 0
v -64 -256 0
v -32 -288 0
v -64 -288 0
v -64 -256 0
v -32 -256 0
v 0 -288 0
v -32 -288 0
v -32 -256 0
v 0 -256 0
v -480 -320 0
v -512 -320 0
v -512 -288 0
v -480 -288 0
v -448 -320 0
v -480 -320 0
v -480 -288 0
v -448 -288 0
v -416 -320 0
v -448 -320 0
v -448 -288 0
v -416 -288 0
v -384 -320 0
v -416 -320 0
v -416 -288 0
v -384 -288 0
v -352 -320 0
v -384 -320 0
v -384 -288 0
v -352 -288 0
v -320 -320 0
v -352 -320 0
v -352 -288 0
v -320 -288 0
v -288 -320 0
v -320 -320 0
v -320 -288 0
v -288 -288 0
v -256 -320 0
v -288 -320 0
v -288 -288 0
v -256 -288 0
v -224 -320 0
v -256 -320 0
v -256 -288 0
v -224 -288 0
v -192 -320 0
v -224 -320 0
v -224 -288 0
v -192 -288 0
v -160 -320 0
v -192 -320 0
v -192 -288 0
v -160 -288 0
v -128 -320 0
v -160 -320 0
v -160 -288 0
v -128 -288 0
v -96 -320 0
v -128 -320 0
v -128 -288 0
v -96 -288 0
v -64 -320 0
v -96 -320 0
v -96 -288 0
v -64 -288 0
v -32 -320 0
v -64 -320 0
v -64 -288 0
v -32 -288 0
v 0 -320 0
v -32 -320 0
v -32 -288 0
v 0 -288 0
v -480 -352 0
v -512 -352 0
v -512 -320 0
v -480 -320 0
v -448 -352 0
v -480 -352 0
v -480 -320 0
v -448 -320 0
v -416 -352 0
v -448 -352 0
v -448 -320 0
v -416 -320 0
v -384 -352 0
v -416 -352 0
v -416 -320 0
v -384 -320 0
v -352 -352 0
v -384 -352 0
v -384 -320 0
v -352 -320 0
v -320 -352 0
v -352 -352 0
v -352 -320 0
v -320 -320 0
v -288 -352 0
v -320 -352 0
v -320 -320 0
v -288 -320 0
v -256 -352 0
v -288 -352 0
v -288 -320 0
v -256 -320 0
v -224 -352 0
v -256 -352 0
v -256 -320 0
v -224 -320 0
v -192 -352 0
v -224 -352 0
v -224 -320 0
v -192 -320 0
v -160 -352 0
v -192 -352 0
v -192 -320 0
v -160 -320 0
v -128 -352 0
v -160 -352 0
v -160 -320 0
v -128 -320 0
v -96 -352 0
v -128 -352 0
v -128 -320 0
v -96 -320 0
v -64 -352 0
v -96 -352 0
v -96 -320 0
v -64 -320 0
v -32 -352 0
v -64 -352 0
v -64 -320 0
v -32 -320 0
v 0 -352 0
v -32 -352 0
v -32 -320 0
v 0 -320 0
v -480 -384 0
v -512 -384 0
v -512 -352 0
v -480 -352 0
v -448 -384 0
v -480 -384 0
v -480 -352 0
v -448 -352 0
v -416 -384 0
v -448 -384 0
v -448 -352 0
v -416 -352 0
v -384 -384 0
v -416 -384 0
v -416 -352 0
v -384 -352 0
v -352 -384 0
v -384 -384 0
v -384 -352 0
v -352 -352 0
v -320 -384 0
v -352 -384 0
v -352 -352 0
v -320 -352 0
v -288 -384 0
v -320 -384 0
v -320 -352 0
v -288 -352 0
v -256 -384 0
v -288 -384 0
v -288 -352 0
v -256 -352 0
v -224 -384 0
v -256 -384 0
v -256 -352 0
v -224 -352 0
v -192 -384 0
v -224 -384 0
v -224 -352 0
v -192 -352 0
v -160 -384 0
v -192 -384 0
v -192 -352 0
v -160 -352 0
v -128 -384 0
v -160 -384 0
v -160 -352 0
v -128 -352 0
v -96 -384 0
v -128 -384 0
v -128 -352 0
v -96 -352 0
v -64 -384 0
v -96 -384 0
v -96 -352 0
v -64 -352 0
v -32 -384 0
v -64 -384 0
v -64 -352 0
v -32 -352 0
v 0 -384 0
v -32 -384 0
v -32 -352 0
v 0 -352 0
v -480 -416 0
v -512 -416 0
v -512 -384 0
v -480 -384 0
v -448 -416 0
v -480 -416 0
v -480 -384 0
v -448 -384 0
v -416 -416 0
v -448 -416 0
v -448 -384 0
v -416 -384 0
v -384 -416 0
v -416 -416 0
v -416 -384 0
v -384 -384 0
v -352 -416 0
v -384 -416 0
v -384 -384 0
v -352 -384 0
v -320 -416 0
v -352 -416 0
v -352 -384 0
v -320 -384 0
v -288 -416 0
v -320 -416 0
v -320 -384 0
v -288 -384 0
v -256 -416 0
v -288 -416 0
v -288 -384 0
v -256 -384 0
v -224 -416 0
v -256 -416 0
v -256 -384 0
v -224 -384 0
v -192 -416 0
v -224 -416 0
v -224 -384 0
v -192 -384 0
v -160 -416 0
v -192 -416 0
v -192 -384 0
v -160 -384 0
v -128 -416 0
v -160 -416 0
v -160 -384 0
v -128 -384 0
v -96 -416 0
v -128 -416 0
v -128 -384 0
v -96 -384 0
v -64 -416 0
v -96 -416 0
v -96 -384 0
v -64 -384 0
v -32 -416 0
v -64 -416 0
v -64 -384 0
v -32 -384 0
v 0 -416 0
v -32 -416 0
v -32 -384 0
v 0 -384 0
v -480 -448 0
v -512 -448 0
v -512 -416 0
v -480 -416 0
v -448 -448 0
v -480 -448 0
v -480 -416 0
v -448 -416 0
v -416 -448 0
v -448 -448 0
v -448 -416 0
v -416 -416 0
v -384 -448 0
v -416 -448 0
v -416 -416 0
v -384 -416 0
v -352 -448 0
v -384 -448 0
v -384 -416 0
v -352 -416 0
v -320 -448 0
v -352 -448 0
v -352 -416 0
v -320 -416 0
v -288 -448 0
v -320 -448 0
v -320 -416 0
v -288 -416 0
v -256 -448 0
v -288 -448 0
v -288 -416 0
v -256 -416 0
v -224 -448 0
v -256 -448 0
v -256 -416 0
v -224 -416 0
v -192 -448 0
v -224 -448 0
v -224 -416 0
v -192 -416 0
v -160 -448 0
v -192 -448 0
v -192 -416 0
v -160 -416 0
v -128 -448 0
v -160 -448 0
v -160 -416 0
v -128 -416 0
v -96 -448 0
v -128 -448 0
v -128 -416 0
v -96 -416 0
v -64 -448 0
v -96 -448 0
v -96 -416 0
v -64 -416 0
v -32 -448 0
v -64 -448 0
v -64 -416 0
v -32 -416 0
v 0 -448 0
v -32 -448 0
v -32 -416 0
v 0 -416 0
v -480 -480 0
v -512 -480 0
v -512 -448 0
v -480 -448 0
v -448 -480 0
v -480 -480 0
v -480 -448 0
v -448 -448 0
v -416 -480 0
v -448 -480 0
v -448 -448 0
v -416 -448 0
v -384 -480 0
v -416 -480 0
v -416 -448 0
v -384 -448 0
v -352 -480 0
v -384 -480 0
v -384 -448 0
v -352 -448 0
v -320 -480 0
v -352 -480 0
v -352 -448 0
v -320 -448 0
v -288 -480 0
v -320 -480 0
v -320 -448 0
v -288 -448 0
v -256 -480 0
v -288 -480 0
v -288 -448 0
v -256 -448 0
v -224 -480 0
v -256 -480 0
v -256 -448 0
v -224 -448 0
v -192 -480 0
v -224 -480 0
v -224 -448 0
v -192 -448 0
v -160 -480 0
v -192 -480 0
v -192 -448 0
v -160 -448 0
v -128 -480 0
v -160 -480 0
v -160 -448 0
v -128 -448 0
v -96 -480 0
v -128 -480 0
v -128 -448 0
v -96 -448 0
v -64 -480 0
v -96 -480 0
v -96 -448 0
v -64 -448 0
v -32 -480 0
v -64 -480 0
v -64 -448 0
v -32 -448 0
v 0 -480 0
v -32 -480 0
v -32 -448 0
v 0 -448 0
v -480 -512 0
v -512 -512 0
v -512 -480 0
v -480 -480 0
v -448 -512 0
v -480 -512 0
v -480 -480 0
v -448 -480 0
v -416 -512 0
v -448 -512 0
v -448 -480 0
v -416 -480 0
v -384 -512 0
v -416 -512 0
v -416 -480 0
v -384 -480 0
v -352 -512 0
v -384 -512 0
v -384 -480 0
v -352 -480 0
v -320 -512 0
v -352 -512 0
v -352 -480 0
v -320 -480 0
v -288 -512 0
v -320 -512 0
v -320 -480 0
v -288 -480 0
v -256 -512 0
v -288 -512 0
v -288 -480 0
v -256 -480 0
v -224 -512 0
v -256 -512 0
v -256 -480 0
v -224 -480 0
v -192 -512 0
v -224 -512 0
v -224 -480 0
v -192 -480 0
v -160 -512 0
v -192 -512 0
v -192 -480 0
v -160 -480 0
v -128 -512 0
v -160 -512 0
v -160 -480 0
v -128 -480 0
v -96 -512 0
v -128 -512 0
v -128 -480 0
v -96 -480 0
v -64 -512 0
v -96 -512 0
v -96 -480 0
v -64 -480 0
v -32 -512 0
v -64 -512 0
v -64 -480 0
v -32 -480 0
v 0 -512 0
v -32 -512 0
v -32 -480 0
v 0 -480 0

# Texture cooridinates (Count = 18)
vt 0.125 0.59375
vt 0.15625 0.59375
vt 0.15625 0.625
vt 0.125 0.625
vt 0 0.53125
vt 0.03125 0.53125
vt 0.03125 0.5625
vt 0 0.5625
vt 0.0625 0.53125
vt 0.09375 0.53125
vt 0.09375 0.5625
vt 0.0625 0.5625
vt 0.125 0.5625
vt 0.15625 0.5625
vt 0.25 0.53125
vt 0.28125 0.53125
vt 0.28125 0.5625
vt 0.25 0.5625

# Normal
vn 0 0 -1

# Mesh description
g Plage32_mesh_0022

# Faces
f 1/1/1 2/2/1 3/3/1 4/4/1
f 5/1/1 6/2/1 7/3/1 8/4/1
f 9/1/1 10/2/1 11/3/1 12/4/1
f 13/5/1 14/6/1 15/7/1 16/8/1
f 17/9/1 18/10/1 19/11/1 20/12/1
f 21/5/1 22/6/1 23/7/1 24/8/1
f 25/6/1 26/9/1 27/12/1 28/7/1
f 29/5/1 30/6/1 31/7/1 32/8/1
f 33/5/1 34/6/1 35/7/1 36/8/1
f 37/6/1 38/9/1 39/12/1 40/7/1
f 41/6/1 42/9/1 43/12/1 44/7/1
f 45/1/1 46/2/1 47/3/1 48/4/1
f 49/1/1 50/2/1 51/3/1 52/4/1
f 53/1/1 54/2/1 55/3/1 56/4/1
f 57/6/1 58/9/1 59/12/1 60/7/1
f 61/5/1 62/6/1 63/7/1 64/8/1
f 65/1/1 66/2/1 67/3/1 68/4/1
f 69/5/1 70/6/1 71/7/1 72/8/1
f 73/5/1 74/6/1 75/7/1 76/8/1
f 77/6/1 78/9/1 79/12/1 80/7/1
f 81/5/1 82/6/1 83/7/1 84/8/1
f 85/5/1 86/6/1 87/7/1 88/8/1
f 89/9/1 90/10/1 91/11/1 92/12/1
f 93/5/1 94/6/1 95/7/1 96/8/1
f 97/5/1 98/6/1 99/7/1 100/8/1
f 101/6/1 102/9/1 103/12/1 104/7/1
f 105/9/1 106/10/1 107/11/1 108/12/1
f 109/9/1 110/10/1 111/11/1 112/12/1
f 113/6/1 114/9/1 115/12/1 116/7/1
f 117/5/1 118/6/1 119/7/1 120/8/1
f 121/9/1 122/10/1 123/11/1 124/12/1
f 125/6/1 126/9/1 127/12/1 128/7/1
f 129/1/1 130/2/1 131/3/1 132/4/1
f 133/5/1 134/6/1 135/7/1 136/8/1
f 137/9/1 138/10/1 139/11/1 140/12/1
f 141/6/1 142/9/1 143/12/1 144/7/1
f 145/1/1 146/2/1 147/3/1 148/4/1
f 149/1/1 150/2/1 151/3/1 152/4/1
f 153/1/1 154/2/1 155/3/1 156/4/1
f 157/9/1 158/10/1 159/11/1 160/12/1
f 161/6/1 162/9/1 163/12/1 164/7/1
f 165/6/1 166/9/1 167/12/1 168/7/1
f 169/9/1 170/10/1 171/11/1 172/12/1
f 173/5/1 174/6/1 175/7/1 176/8/1
f 177/9/1 178/10/1 179/11/1 180/12/1
f 181/6/1 182/9/1 183/12/1 184/7/1
f 185/9/1 186/10/1 187/11/1 188/12/1
f 189/1/1 190/2/1 191/3/1 192/4/1
f 193/13/1 194/14/1 195/2/1 196/1/1
f 197/13/1 198/14/1 199/2/1 200/1/1
f 201/13/1 202/14/1 203/2/1 204/1/1
f 205/13/1 206/14/1 207/2/1 208/1/1
f 209/13/1 210/14/1 211/2/1 212/1/1
f 213/13/1 214/14/1 215/2/1 216/1/1
f 217/13/1 218/14/1 219/2/1 220/1/1
f 221/13/1 222/14/1 223/2/1 224/1/1
f 225/13/1 226/14/1 227/2/1 228/1/1
f 229/13/1 230/14/1 231/2/1 232/1/1
f 233/13/1 234/14/1 235/2/1 236/1/1
f 237/13/1 238/14/1 239/2/1 240/1/1
f 241/13/1 242/14/1 243/2/1 244/1/1
f 245/13/1 246/14/1 247/2/1 248/1/1
f 249/13/1 250/14/1 251/2/1 252/1/1
f 253/13/1 254/14/1 255/2/1 256/1/1
f 257/15/1 258/16/1 259/17/1 260/18/1
f 261/15/1 262/16/1 263/17/1 264/18/1
f 265/15/1 266/16/1 267/17/1 268/18/1
f 269/15/1 270/16/1 271/17/1 272/18/1
f 273/15/1 274/16/1 275/17/1 276/18/1
f 277/15/1 278/16/1 279/17/1 280/18/1
f 281/15/1 282/16/1 283/17/1 284/18/1
f 285/15/1 286/16/1 287/17/1 288/18/1
f 289/15/1 290/16/1 291/17/1 292/18/1
f 293/15/1 294/16/1 295/17/1 296/18/1
f 297/15/1 298/16/1 299/17/1 300/18/1
f 301/15/1 302/16/1 303/17/1 304/18/1
f 305/15/1 306/16/1 307/17/1 308/18/1
f 309/15/1 310/16/1 311/17/1 312/18/1
f 313/15/1 314/16/1 315/17/1 316/18/1
f 317/15/1 318/16/1 319/17/1 320/18/1
f 321/15/1 322/16/1 323/17/1 324/18/1
f 325/15/1 326/16/1 327/17/1 328/18/1
f 329/15/1 330/16/1 331/17/1 332/18/1
f 333/15/1 334/16/1 335/17/1 336/18/1
f 337/15/1 338/16/1 339/17/1 340/18/1
f 341/15/1 342/16/1 343/17/1 344/18/1
f 345/15/1 346/16/1 347/17/1 348/18/1
f 349/15/1 350/16/1 351/17/1 352/18/1
f 353/15/1 354/16/1 355/17/1 356/18/1
f 357/15/1 358/16/1 359/17/1 360/18/1
f 361/15/1 362/16/1 363/17/1 364/18/1
f 365/15/1 366/16/1 367/17/1 368/18/1
f 369/15/1 370/16/1 371/17/1 372/18/1
f 373/15/1 374/16/1 375/17/1 376/18/1
f 377/15/1 378/16/1 379/17/1 380/18/1
f 381/15/1 382/16/1 383/17/1 384/18/1
f 385/15/1 386/16/1 387/17/1 388/18/1
f 389/15/1 390/16/1 391/17/1 392/18/1
f 393/15/1 394/16/1 395/17/1 396/18/1
f 397/15/1 398/16/1 399/17/1 400/18/1
f 401/15/1 402/16/1 403/17/1 404/18/1
f 405/15/1 406/16/1 407/17/1 408/18/1
f 409/15/1 410/16/1 411/17/1 412/18/1
f 413/15/1 414/16/1 415/17/1 416/18/1
f 417/15/1 418/16/1 419/17/1 420/18/1
f 421/15/1 422/16/1 423/17/1 424/18/1
f 425/15/1 426/16/1 427/17/1 428/18/1
f 429/15/1 430/16/1 431/17/1 432/18/1
f 433/15/1 434/16/1 435/17/1 436/18/1
f 437/15/1 438/16/1 439/17/1 440/18/1
f 441/15/1 442/16/1 443/17/1 444/18/1
f 445/15/1 446/16/1 447/17/1 448/18/1
f 449/15/1 450/16/1 451/17/1 452/18/1
f 453/15/1 454/16/1 455/17/1 456/18/1
f 457/15/1 458/16/1 459/17/1 460/18/1
f 461/15/1 462/16/1 463/17/1 464/18/1
f 465/15/1 466/16/1 467/17/1 468/18/1
f 469/15/1 470/16/1 471/17/1 472/18/1
f 473/15/1 474/16/1 475/17/1 476/18/1
f 477/15/1 478/16/1 479/17/1 480/18/1
f 481/15/1 482/16/1 483/17/1 484/18/1
f 485/15/1 486/16/1 487/17/1 488/18/1
f 489/15/1 490/16/1 491/17/1 492/18/1
f 493/15/1 494/16/1 495/17/1 496/18/1
f 497/15/1 498/16/1 499/17/1 500/18/1
f 501/15/1 502/16/1 503/17/1 504/18/1
f 505/15/1 506/16/1 507/17/1 508/18/1
f 509/15/1 510/16/1 511/17/1 512/18/1
f 513/15/1 514/16/1 515/17/1 516/18/1
f 517/15/1 518/16/1 519/17/1 520/18/1
f 521/15/1 522/16/1 523/17/1 524/18/1
f 525/15/1 526/16/1 527/17/1 528/18/1
f 529/15/1 530/16/1 531/17/1 532/18/1
f 533/15/1 534/16/1 535/17/1 536/18/1
f 537/15/1 538/16/1 539/17/1 540/18/1
f 541/15/1 542/16/1 543/17/1 544/18/1
f 545/15/1 546/16/1 547/17/1 548/18/1
f 549/15/1 550/16/1 551/17/1 552/18/1
f 553/15/1 554/16/1 555/17/1 556/18/1
f 557/15/1 558/16/1 559/17/1 560/18/1
f 561/15/1 562/16/1 563/17/1 564/18/1
f 565/15/1 566/16/1 567/17/1 568/18/1
f 569/15/1 570/16/1 571/17/1 572/18/1
f 573/15/1 574/16/1 575/17/1 576/18/1
f 577/15/1 578/16/1 579/17/1 580/18/1
f 581/15/1 582/16/1 583/17/1 584/18/1
f 585/15/1 586/16/1 587/17/1 588/18/1
f 589/15/1 590/16/1 591/17/1 592/18/1
f 593/15/1 594/16/1 595/17/1 596/18/1
f 597/15/1 598/16/1 599/17/1 600/18/1
f 601/15/1 602/16/1 603/17/1 604/18/1
f 605/15/1 606/16/1 607/17/1 608/18/1
f 609/15/1 610/16/1 611/17/1 612/18/1
f 613/15/1 614/16/1 615/17/1 616/18/1
f 617/15/1 618/16/1 619/17/1 620/18/1
f 621/15/1 622/16/1 623/17/1 624/18/1
f 625/15/1 626/16/1 627/17/1 628/18/1
f 629/15/1 630/16/1 631/17/1 632/18/1
f 633/15/1 634/16/1 635/17/1 636/18/1
f 637/15/1 638/16/1 639/17/1 640/18/1
f 641/15/1 642/16/1 643/17/1 644/18/1
f 645/15/1 646/16/1 647/17/1 648/18/1
f 649/15/1 650/16/1 651/17/1 652/18/1
f 653/15/1 654/16/1 655/17/1 656/18/1
f 657/15/1 658/16/1 659/17/1 660/18/1
f 661/15/1 662/16/1 663/17/1 664/18/1
f 665/15/1 666/16/1 667/17/1 668/18/1
f 669/15/1 670/16/1 671/17/1 672/18/1
f 673/15/1 674/16/1 675/17/1 676/18/1
f 677/15/1 678/16/1 679/17/1 680/18/1
f 681/15/1 682/16/1 683/17/1 684/18/1
f 685/15/1 686/16/1 687/17/1 688/18/1
f 689/15/1 690/16/1 691/17/1 692/18/1
f 693/15/1 694/16/1 695/17/1 696/18/1
f 697/15/1 698/16/1 699/17/1 700/18/1
f 701/15/1 702/16/1 703/17/1 704/18/1
f 705/15/1 706/16/1 707/17/1 708/18/1
f 709/15/1 710/16/1 711/17/1 712/18/1
f 713/15/1 714/16/1 715/17/1 716/18/1
f 717/15/1 718/16/1 719/17/1 720/18/1
f 721/15/1 722/16/1 723/17/1 724/18/1
f 725/15/1 726/16/1 727/17/1 728/18/1
f 729/15/1 730/16/1 731/17/1 732/18/1
f 733/15/1 734/16/1 735/17/1 736/18/1
f 737/15/1 738/16/1 739/17/1 740/18/1
f 741/15/1 742/16/1 743/17/1 744/18/1
f 745/15/1 746/16/1 747/17/1 748/18/1
f 749/15/1 750/16/1 751/17/1 752/18/1
f 753/15/1 754/16/1 755/17/1 756/18/1
f 757/15/1 758/16/1 759/17/1 760/18/1
f 761/15/1 762/16/1 763/17/1 764/18/1
f 765/15/1 766/16/1 767/17/1 768/18/1
f 769/15/1 770/16/1 771/17/1 772/18/1
f 773/15/1 774/16/1 775/17/1 776/18/1
f 777/15/1 778/16/1 779/17/1 780/18/1
f 781/15/1 782/16/1 783/17/1 784/18/1
f 785/15/1 786/16/1 787/17/1 788/18/1
f 789/15/1 790/16/1 791/17/1 792/18/1
f 793/15/1 794/16/1 795/17/1 796/18/1
f 797/15/1 798/16/1 799/17/1 800/18/1
f 801/15/1 802/16/1 803/17/1 804/18/1
f 805/15/1 806/16/1 807/17/1 808/18/1
f 809/15/1 810/16/1 811/17/1 812/18/1
f 813/15/1 814/16/1 815/17/1 816/18/1
f 817/15/1 818/16/1 819/17/1 820/18/1
f 821/15/1 822/16/1 823/17/1 824/18/1
f 825/15/1 826/16/1 827/17/1 828/18/1
f 829/15/1 830/16/1 831/17/1 832/18/1
f 833/15/1 834/16/1 835/17/1 836/18/1
f 837/15/1 838/16/1 839/17/1 840/18/1
f 841/15/1 842/16/1 843/17/1 844/18/1
f 845/15/1 846/16/1 847/17/1 848/18/1
f 849/15/1 850/16/1 851/17/1 852/18/1
f 853/15/1 854/16/1 855/17/1 856/18/1
f 857/15/1 858/16/1 859/17/1 860/18/1
f 861/15/1 862/16/1 863/17/1 864/18/1
f 865/15/1 866/16/1 867/17/1 868/18/1
f 869/15/1 870/16/1 871/17/1 872/18/1
f 873/15/1 874/16/1 875/17/1 876/18/1
f 877/15/1 878/16/1 879/17/1 880/18/1
f 881/15/1 882/16/1 883/17/1 884/18/1
f 885/15/1 886/16/1 887/17/1 888/18/1
f 889/15/1 890/16/1 891/17/1 892/18/1
f 893/15/1 894/16/1 895/17/1 896/18/1
f 897/15/1 898/16/1 899/17/1 900/18/1
f 901/15/1 902/16/1 903/17/1 904/18/1
f 905/15/1 906/16/1 907/17/1 908/18/1
f 909/15/1 910/16/1 911/17/1 912/18/1
f 913/15/1 914/16/1 915/17/1 916/18/1
f 917/15/1 918/16/1 919/17/1 920/18/1
f 921/15/1 922/16/1 923/17/1 924/18/1
f 925/15/1 926/16/1 927/17/1 928/18/1
f 929/15/1 930/16/1 931/17/1 932/18/1
f 933/15/1 934/16/1 935/17/1 936/18/1
f 937/15/1 938/16/1 939/17/1 940/18/1
f 941/15/1 942/16/1 943/17/1 944/18/1
f 945/15/1 946/16/1 947/17/1 948/18/1
f 949/15/1 950/16/1 951/17/1 952/18/1
f 953/15/1 954/16/1 955/17/1 956/18/1
f 957/15/1 958/16/1 959/17/1 960/18/1
f 961/15/1 962/16/1 963/17/1 964/18/1
f 965/15/1 966/16/1 967/17/1 968/18/1
f 969/15/1 970/16/1 971/17/1 972/18/1
f 973/15/1 974/16/1 975/17/1 976/18/1
f 977/15/1 978/16/1 979/17/1 980/18/1
f 981/15/1 982/16/1 983/17/1 984/18/1
f 985/15/1 986/16/1 987/17/1 988/18/1
f 989/15/1 990/16/1 991/17/1 992/18/1
f 993/15/1 994/16/1 995/17/1 996/18/1
f 997/15/1 998/16/1 999/17/1 1000/18/1
f 1001/15/1 1002/16/1 1003/17/1 1004/18/1
f 1005/15/1 1006/16/1 1007/17/1 1008/18/1
f 1009/15/1 1010/16/1 1011/17/1 1012/18/1
f 1013/15/1 1014/16/1 1015/17/1 1016/18/1
f 1017/15/1 1018/16/1 1019/17/1 1020/18/1
f 1021/15/1 1022/16/1 1023/17/1 1024/18/1

