# Tiled2Unity generated file. Do not modify by hand.
# Wavefront file for 'Plage32_mesh_0062.obj'

# Vertices (Count = 44)
v -416 -224 0
v -448 -224 0
v -448 -192 0
v -416 -192 0
v -384 -224 0
v -416 -224 0
v -416 -192 0
v -384 -192 0
v -352 -224 0
v -384 -224 0
v -384 -192 0
v -352 -192 0
v -320 -224 0
v -352 -224 0
v -352 -192 0
v -320 -192 0
v -416 -256 0
v -448 -256 0
v -448 -224 0
v -416 -224 0
v -384 -256 0
v -416 -256 0
v -416 -224 0
v -384 -224 0
v -352 -256 0
v -384 -256 0
v -384 -224 0
v -352 -224 0
v -320 -256 0
v -352 -256 0
v -352 -224 0
v -320 -224 0
v -288 -256 0
v -320 -256 0
v -320 -224 0
v -288 -224 0
v -288 -288 0
v -320 -288 0
v -320 -256 0
v -288 -256 0
v -256 -512 0
v -288 -512 0
v -288 -480 0
v -256 -480 0

# Texture cooridinates (Count = 10)
vt 0.0625 0.04761904
vt 0.09375 0.04761904
vt 0.09375 0.06349206
vt 0.0625 0.06349206
vt 0.0625 0.03174603
vt 0.09375 0.03174603
vt 0 0.04761904
vt 0.03125 0.04761904
vt 0.03125 0.06349206
vt 0 0.06349206

# Normal
vn 0 0 -1

# Mesh description
g Plage32_mesh_0062

# Faces
f 1/1/1 2/2/1 3/3/1 4/4/1
f 5/1/1 6/2/1 7/3/1 8/4/1
f 9/1/1 10/2/1 11/3/1 12/4/1
f 13/1/1 14/2/1 15/3/1 16/4/1
f 17/5/1 18/6/1 19/2/1 20/1/1
f 21/5/1 22/6/1 23/2/1 24/1/1
f 25/5/1 26/6/1 27/2/1 28/1/1
f 29/5/1 30/6/1 31/2/1 32/1/1
f 33/1/1 34/2/1 35/3/1 36/4/1
f 37/5/1 38/6/1 39/2/1 40/1/1
f 41/7/1 42/8/1 43/9/1 44/10/1

