# Tiled2Unity generated file. Do not modify by hand.
# Wavefront file for 'Plage32_mesh_0002.obj'

# Vertices (Count = 1024)
v -480 -32 0
v -512 -32 0
v -512 0 0
v -480 0 0
v -448 -32 0
v -480 -32 0
v -480 0 0
v -448 0 0
v -416 -32 0
v -448 -32 0
v -448 0 0
v -416 0 0
v -384 -32 0
v -416 -32 0
v -416 0 0
v -384 0 0
v -352 -32 0
v -384 -32 0
v -384 0 0
v -352 0 0
v -320 -32 0
v -352 -32 0
v -352 0 0
v -320 0 0
v -288 -32 0
v -320 -32 0
v -320 0 0
v -288 0 0
v -256 -32 0
v -288 -32 0
v -288 0 0
v -256 0 0
v -224 -32 0
v -256 -32 0
v -256 0 0
v -224 0 0
v -192 -32 0
v -224 -32 0
v -224 0 0
v -192 0 0
v -160 -32 0
v -192 -32 0
v -192 0 0
v -160 0 0
v -128 -32 0
v -160 -32 0
v -160 0 0
v -128 0 0
v -96 -32 0
v -128 -32 0
v -128 0 0
v -96 0 0
v -64 -32 0
v -96 -32 0
v -96 0 0
v -64 0 0
v -32 -32 0
v -64 -32 0
v -64 0 0
v -32 0 0
v 0 -32 0
v -32 -32 0
v -32 0 0
v 0 0 0
v -480 -64 0
v -512 -64 0
v -512 -32 0
v -480 -32 0
v -448 -64 0
v -480 -64 0
v -480 -32 0
v -448 -32 0
v -416 -64 0
v -448 -64 0
v -448 -32 0
v -416 -32 0
v -384 -64 0
v -416 -64 0
v -416 -32 0
v -384 -32 0
v -352 -64 0
v -384 -64 0
v -384 -32 0
v -352 -32 0
v -320 -64 0
v -352 -64 0
v -352 -32 0
v -320 -32 0
v -288 -64 0
v -320 -64 0
v -320 -32 0
v -288 -32 0
v -256 -64 0
v -288 -64 0
v -288 -32 0
v -256 -32 0
v -224 -64 0
v -256 -64 0
v -256 -32 0
v -224 -32 0
v -192 -64 0
v -224 -64 0
v -224 -32 0
v -192 -32 0
v -160 -64 0
v -192 -64 0
v -192 -32 0
v -160 -32 0
v -128 -64 0
v -160 -64 0
v -160 -32 0
v -128 -32 0
v -96 -64 0
v -128 -64 0
v -128 -32 0
v -96 -32 0
v -64 -64 0
v -96 -64 0
v -96 -32 0
v -64 -32 0
v -32 -64 0
v -64 -64 0
v -64 -32 0
v -32 -32 0
v 0 -64 0
v -32 -64 0
v -32 -32 0
v 0 -32 0
v -480 -96 0
v -512 -96 0
v -512 -64 0
v -480 -64 0
v -448 -96 0
v -480 -96 0
v -480 -64 0
v -448 -64 0
v -416 -96 0
v -448 -96 0
v -448 -64 0
v -416 -64 0
v -384 -96 0
v -416 -96 0
v -416 -64 0
v -384 -64 0
v -352 -96 0
v -384 -96 0
v -384 -64 0
v -352 -64 0
v -320 -96 0
v -352 -96 0
v -352 -64 0
v -320 -64 0
v -288 -96 0
v -320 -96 0
v -320 -64 0
v -288 -64 0
v -256 -96 0
v -288 -96 0
v -288 -64 0
v -256 -64 0
v -224 -96 0
v -256 -96 0
v -256 -64 0
v -224 -64 0
v -192 -96 0
v -224 -96 0
v -224 -64 0
v -192 -64 0
v -160 -96 0
v -192 -96 0
v -192 -64 0
v -160 -64 0
v -128 -96 0
v -160 -96 0
v -160 -64 0
v -128 -64 0
v -96 -96 0
v -128 -96 0
v -128 -64 0
v -96 -64 0
v -64 -96 0
v -96 -96 0
v -96 -64 0
v -64 -64 0
v -32 -96 0
v -64 -96 0
v -64 -64 0
v -32 -64 0
v 0 -96 0
v -32 -96 0
v -32 -64 0
v 0 -64 0
v -480 -128 0
v -512 -128 0
v -512 -96 0
v -480 -96 0
v -448 -128 0
v -480 -128 0
v -480 -96 0
v -448 -96 0
v -416 -128 0
v -448 -128 0
v -448 -96 0
v -416 -96 0
v -384 -128 0
v -416 -128 0
v -416 -96 0
v -384 -96 0
v -352 -128 0
v -384 -128 0
v -384 -96 0
v -352 -96 0
v -320 -128 0
v -352 -128 0
v -352 -96 0
v -320 -96 0
v -288 -128 0
v -320 -128 0
v -320 -96 0
v -288 -96 0
v -256 -128 0
v -288 -128 0
v -288 -96 0
v -256 -96 0
v -224 -128 0
v -256 -128 0
v -256 -96 0
v -224 -96 0
v -192 -128 0
v -224 -128 0
v -224 -96 0
v -192 -96 0
v -160 -128 0
v -192 -128 0
v -192 -96 0
v -160 -96 0
v -128 -128 0
v -160 -128 0
v -160 -96 0
v -128 -96 0
v -96 -128 0
v -128 -128 0
v -128 -96 0
v -96 -96 0
v -64 -128 0
v -96 -128 0
v -96 -96 0
v -64 -96 0
v -32 -128 0
v -64 -128 0
v -64 -96 0
v -32 -96 0
v 0 -128 0
v -32 -128 0
v -32 -96 0
v 0 -96 0
v -480 -160 0
v -512 -160 0
v -512 -128 0
v -480 -128 0
v -448 -160 0
v -480 -160 0
v -480 -128 0
v -448 -128 0
v -416 -160 0
v -448 -160 0
v -448 -128 0
v -416 -128 0
v -384 -160 0
v -416 -160 0
v -416 -128 0
v -384 -128 0
v -352 -160 0
v -384 -160 0
v -384 -128 0
v -352 -128 0
v -320 -160 0
v -352 -160 0
v -352 -128 0
v -320 -128 0
v -288 -160 0
v -320 -160 0
v -320 -128 0
v -288 -128 0
v -256 -160 0
v -288 -160 0
v -288 -128 0
v -256 -128 0
v -224 -160 0
v -256 -160 0
v -256 -128 0
v -224 -128 0
v -192 -160 0
v -224 -160 0
v -224 -128 0
v -192 -128 0
v -160 -160 0
v -192 -160 0
v -192 -128 0
v -160 -128 0
v -128 -160 0
v -160 -160 0
v -160 -128 0
v -128 -128 0
v -96 -160 0
v -128 -160 0
v -128 -128 0
v -96 -128 0
v -64 -160 0
v -96 -160 0
v -96 -128 0
v -64 -128 0
v -32 -160 0
v -64 -160 0
v -64 -128 0
v -32 -128 0
v 0 -160 0
v -32 -160 0
v -32 -128 0
v 0 -128 0
v -480 -192 0
v -512 -192 0
v -512 -160 0
v -480 -160 0
v -448 -192 0
v -480 -192 0
v -480 -160 0
v -448 -160 0
v -416 -192 0
v -448 -192 0
v -448 -160 0
v -416 -160 0
v -384 -192 0
v -416 -192 0
v -416 -160 0
v -384 -160 0
v -352 -192 0
v -384 -192 0
v -384 -160 0
v -352 -160 0
v -320 -192 0
v -352 -192 0
v -352 -160 0
v -320 -160 0
v -288 -192 0
v -320 -192 0
v -320 -160 0
v -288 -160 0
v -256 -192 0
v -288 -192 0
v -288 -160 0
v -256 -160 0
v -224 -192 0
v -256 -192 0
v -256 -160 0
v -224 -160 0
v -192 -192 0
v -224 -192 0
v -224 -160 0
v -192 -160 0
v -160 -192 0
v -192 -192 0
v -192 -160 0
v -160 -160 0
v -128 -192 0
v -160 -192 0
v -160 -160 0
v -128 -160 0
v -96 -192 0
v -128 -192 0
v -128 -160 0
v -96 -160 0
v -64 -192 0
v -96 -192 0
v -96 -160 0
v -64 -160 0
v -32 -192 0
v -64 -192 0
v -64 -160 0
v -32 -160 0
v 0 -192 0
v -32 -192 0
v -32 -160 0
v 0 -160 0
v -480 -224 0
v -512 -224 0
v -512 -192 0
v -480 -192 0
v -448 -224 0
v -480 -224 0
v -480 -192 0
v -448 -192 0
v -416 -224 0
v -448 -224 0
v -448 -192 0
v -416 -192 0
v -384 -224 0
v -416 -224 0
v -416 -192 0
v -384 -192 0
v -352 -224 0
v -384 -224 0
v -384 -192 0
v -352 -192 0
v -320 -224 0
v -352 -224 0
v -352 -192 0
v -320 -192 0
v -288 -224 0
v -320 -224 0
v -320 -192 0
v -288 -192 0
v -256 -224 0
v -288 -224 0
v -288 -192 0
v -256 -192 0
v -224 -224 0
v -256 -224 0
v -256 -192 0
v -224 -192 0
v -192 -224 0
v -224 -224 0
v -224 -192 0
v -192 -192 0
v -160 -224 0
v -192 -224 0
v -192 -192 0
v -160 -192 0
v -128 -224 0
v -160 -224 0
v -160 -192 0
v -128 -192 0
v -96 -224 0
v -128 -224 0
v -128 -192 0
v -96 -192 0
v -64 -224 0
v -96 -224 0
v -96 -192 0
v -64 -192 0
v -32 -224 0
v -64 -224 0
v -64 -192 0
v -32 -192 0
v 0 -224 0
v -32 -224 0
v -32 -192 0
v 0 -192 0
v -480 -256 0
v -512 -256 0
v -512 -224 0
v -480 -224 0
v -448 -256 0
v -480 -256 0
v -480 -224 0
v -448 -224 0
v -416 -256 0
v -448 -256 0
v -448 -224 0
v -416 -224 0
v -384 -256 0
v -416 -256 0
v -416 -224 0
v -384 -224 0
v -352 -256 0
v -384 -256 0
v -384 -224 0
v -352 -224 0
v -320 -256 0
v -352 -256 0
v -352 -224 0
v -320 -224 0
v -288 -256 0
v -320 -256 0
v -320 -224 0
v -288 -224 0
v -256 -256 0
v -288 -256 0
v -288 -224 0
v -256 -224 0
v -224 -256 0
v -256 -256 0
v -256 -224 0
v -224 -224 0
v -192 -256 0
v -224 -256 0
v -224 -224 0
v -192 -224 0
v -160 -256 0
v -192 -256 0
v -192 -224 0
v -160 -224 0
v -128 -256 0
v -160 -256 0
v -160 -224 0
v -128 -224 0
v -96 -256 0
v -128 -256 0
v -128 -224 0
v -96 -224 0
v -64 -256 0
v -96 -256 0
v -96 -224 0
v -64 -224 0
v -32 -256 0
v -64 -256 0
v -64 -224 0
v -32 -224 0
v 0 -256 0
v -32 -256 0
v -32 -224 0
v 0 -224 0
v -480 -288 0
v -512 -288 0
v -512 -256 0
v -480 -256 0
v -448 -288 0
v -480 -288 0
v -480 -256 0
v -448 -256 0
v -416 -288 0
v -448 -288 0
v -448 -256 0
v -416 -256 0
v -384 -288 0
v -416 -288 0
v -416 -256 0
v -384 -256 0
v -352 -288 0
v -384 -288 0
v -384 -256 0
v -352 -256 0
v -320 -288 0
v -352 -288 0
v -352 -256 0
v -320 -256 0
v -288 -288 0
v -320 -288 0
v -320 -256 0
v -288 -256 0
v -256 -288 0
v -288 -288 0
v -288 -256 0
v -256 -256 0
v -224 -288 0
v -256 -288 0
v -256 -256 0
v -224 -256 0
v -192 -288 0
v -224 -288 0
v -224 -256 0
v -192 -256 0
v -160 -288 0
v -192 -288 0
v -192 -256 0
v -160 -256 0
v -128 -288 0
v -160 -288 0
v -160 -256 0
v -128 -256 0
v -96 -288 0
v -128 -288 0
v -128 -256 0
v -96 -256 0
v -64 -288 0
v -96 -288 0
v -96 -256 0
v -64 -256 0
v -32 -288 0
v -64 -288 0
v -64 -256 0
v -32 -256 0
v 0 -288 0
v -32 -288 0
v -32 -256 0
v 0 -256 0
v -480 -320 0
v -512 -320 0
v -512 -288 0
v -480 -288 0
v -448 -320 0
v -480 -320 0
v -480 -288 0
v -448 -288 0
v -416 -320 0
v -448 -320 0
v -448 -288 0
v -416 -288 0
v -384 -320 0
v -416 -320 0
v -416 -288 0
v -384 -288 0
v -352 -320 0
v -384 -320 0
v -384 -288 0
v -352 -288 0
v -320 -320 0
v -352 -320 0
v -352 -288 0
v -320 -288 0
v -288 -320 0
v -320 -320 0
v -320 -288 0
v -288 -288 0
v -256 -320 0
v -288 -320 0
v -288 -288 0
v -256 -288 0
v -224 -320 0
v -256 -320 0
v -256 -288 0
v -224 -288 0
v -192 -320 0
v -224 -320 0
v -224 -288 0
v -192 -288 0
v -160 -320 0
v -192 -320 0
v -192 -288 0
v -160 -288 0
v -128 -320 0
v -160 -320 0
v -160 -288 0
v -128 -288 0
v -96 -320 0
v -128 -320 0
v -128 -288 0
v -96 -288 0
v -64 -320 0
v -96 -320 0
v -96 -288 0
v -64 -288 0
v -32 -320 0
v -64 -320 0
v -64 -288 0
v -32 -288 0
v 0 -320 0
v -32 -320 0
v -32 -288 0
v 0 -288 0
v -480 -352 0
v -512 -352 0
v -512 -320 0
v -480 -320 0
v -448 -352 0
v -480 -352 0
v -480 -320 0
v -448 -320 0
v -416 -352 0
v -448 -352 0
v -448 -320 0
v -416 -320 0
v -384 -352 0
v -416 -352 0
v -416 -320 0
v -384 -320 0
v -352 -352 0
v -384 -352 0
v -384 -320 0
v -352 -320 0
v -320 -352 0
v -352 -352 0
v -352 -320 0
v -320 -320 0
v -288 -352 0
v -320 -352 0
v -320 -320 0
v -288 -320 0
v -256 -352 0
v -288 -352 0
v -288 -320 0
v -256 -320 0
v -224 -352 0
v -256 -352 0
v -256 -320 0
v -224 -320 0
v -192 -352 0
v -224 -352 0
v -224 -320 0
v -192 -320 0
v -160 -352 0
v -192 -352 0
v -192 -320 0
v -160 -320 0
v -128 -352 0
v -160 -352 0
v -160 -320 0
v -128 -320 0
v -96 -352 0
v -128 -352 0
v -128 -320 0
v -96 -320 0
v -64 -352 0
v -96 -352 0
v -96 -320 0
v -64 -320 0
v -32 -352 0
v -64 -352 0
v -64 -320 0
v -32 -320 0
v 0 -352 0
v -32 -352 0
v -32 -320 0
v 0 -320 0
v -480 -384 0
v -512 -384 0
v -512 -352 0
v -480 -352 0
v -448 -384 0
v -480 -384 0
v -480 -352 0
v -448 -352 0
v -416 -384 0
v -448 -384 0
v -448 -352 0
v -416 -352 0
v -384 -384 0
v -416 -384 0
v -416 -352 0
v -384 -352 0
v -352 -384 0
v -384 -384 0
v -384 -352 0
v -352 -352 0
v -320 -384 0
v -352 -384 0
v -352 -352 0
v -320 -352 0
v -288 -384 0
v -320 -384 0
v -320 -352 0
v -288 -352 0
v -256 -384 0
v -288 -384 0
v -288 -352 0
v -256 -352 0
v -224 -384 0
v -256 -384 0
v -256 -352 0
v -224 -352 0
v -192 -384 0
v -224 -384 0
v -224 -352 0
v -192 -352 0
v -160 -384 0
v -192 -384 0
v -192 -352 0
v -160 -352 0
v -128 -384 0
v -160 -384 0
v -160 -352 0
v -128 -352 0
v -96 -384 0
v -128 -384 0
v -128 -352 0
v -96 -352 0
v -64 -384 0
v -96 -384 0
v -96 -352 0
v -64 -352 0
v -32 -384 0
v -64 -384 0
v -64 -352 0
v -32 -352 0
v 0 -384 0
v -32 -384 0
v -32 -352 0
v 0 -352 0
v -480 -416 0
v -512 -416 0
v -512 -384 0
v -480 -384 0
v -448 -416 0
v -480 -416 0
v -480 -384 0
v -448 -384 0
v -416 -416 0
v -448 -416 0
v -448 -384 0
v -416 -384 0
v -384 -416 0
v -416 -416 0
v -416 -384 0
v -384 -384 0
v -352 -416 0
v -384 -416 0
v -384 -384 0
v -352 -384 0
v -320 -416 0
v -352 -416 0
v -352 -384 0
v -320 -384 0
v -288 -416 0
v -320 -416 0
v -320 -384 0
v -288 -384 0
v -256 -416 0
v -288 -416 0
v -288 -384 0
v -256 -384 0
v -224 -416 0
v -256 -416 0
v -256 -384 0
v -224 -384 0
v -192 -416 0
v -224 -416 0
v -224 -384 0
v -192 -384 0
v -160 -416 0
v -192 -416 0
v -192 -384 0
v -160 -384 0
v -128 -416 0
v -160 -416 0
v -160 -384 0
v -128 -384 0
v -96 -416 0
v -128 -416 0
v -128 -384 0
v -96 -384 0
v -64 -416 0
v -96 -416 0
v -96 -384 0
v -64 -384 0
v -32 -416 0
v -64 -416 0
v -64 -384 0
v -32 -384 0
v 0 -416 0
v -32 -416 0
v -32 -384 0
v 0 -384 0
v -480 -448 0
v -512 -448 0
v -512 -416 0
v -480 -416 0
v -448 -448 0
v -480 -448 0
v -480 -416 0
v -448 -416 0
v -416 -448 0
v -448 -448 0
v -448 -416 0
v -416 -416 0
v -384 -448 0
v -416 -448 0
v -416 -416 0
v -384 -416 0
v -352 -448 0
v -384 -448 0
v -384 -416 0
v -352 -416 0
v -320 -448 0
v -352 -448 0
v -352 -416 0
v -320 -416 0
v -288 -448 0
v -320 -448 0
v -320 -416 0
v -288 -416 0
v -256 -448 0
v -288 -448 0
v -288 -416 0
v -256 -416 0
v -224 -448 0
v -256 -448 0
v -256 -416 0
v -224 -416 0
v -192 -448 0
v -224 -448 0
v -224 -416 0
v -192 -416 0
v -160 -448 0
v -192 -448 0
v -192 -416 0
v -160 -416 0
v -128 -448 0
v -160 -448 0
v -160 -416 0
v -128 -416 0
v -96 -448 0
v -128 -448 0
v -128 -416 0
v -96 -416 0
v -64 -448 0
v -96 -448 0
v -96 -416 0
v -64 -416 0
v -32 -448 0
v -64 -448 0
v -64 -416 0
v -32 -416 0
v 0 -448 0
v -32 -448 0
v -32 -416 0
v 0 -416 0
v -480 -480 0
v -512 -480 0
v -512 -448 0
v -480 -448 0
v -448 -480 0
v -480 -480 0
v -480 -448 0
v -448 -448 0
v -416 -480 0
v -448 -480 0
v -448 -448 0
v -416 -448 0
v -384 -480 0
v -416 -480 0
v -416 -448 0
v -384 -448 0
v -352 -480 0
v -384 -480 0
v -384 -448 0
v -352 -448 0
v -320 -480 0
v -352 -480 0
v -352 -448 0
v -320 -448 0
v -288 -480 0
v -320 -480 0
v -320 -448 0
v -288 -448 0
v -256 -480 0
v -288 -480 0
v -288 -448 0
v -256 -448 0
v -224 -480 0
v -256 -480 0
v -256 -448 0
v -224 -448 0
v -192 -480 0
v -224 -480 0
v -224 -448 0
v -192 -448 0
v -160 -480 0
v -192 -480 0
v -192 -448 0
v -160 -448 0
v -128 -480 0
v -160 -480 0
v -160 -448 0
v -128 -448 0
v -96 -480 0
v -128 -480 0
v -128 -448 0
v -96 -448 0
v -64 -480 0
v -96 -480 0
v -96 -448 0
v -64 -448 0
v -32 -480 0
v -64 -480 0
v -64 -448 0
v -32 -448 0
v 0 -480 0
v -32 -480 0
v -32 -448 0
v 0 -448 0
v -480 -512 0
v -512 -512 0
v -512 -480 0
v -480 -480 0
v -448 -512 0
v -480 -512 0
v -480 -480 0
v -448 -480 0
v -416 -512 0
v -448 -512 0
v -448 -480 0
v -416 -480 0
v -384 -512 0
v -416 -512 0
v -416 -480 0
v -384 -480 0
v -352 -512 0
v -384 -512 0
v -384 -480 0
v -352 -480 0
v -320 -512 0
v -352 -512 0
v -352 -480 0
v -320 -480 0
v -288 -512 0
v -320 -512 0
v -320 -480 0
v -288 -480 0
v -256 -512 0
v -288 -512 0
v -288 -480 0
v -256 -480 0
v -224 -512 0
v -256 -512 0
v -256 -480 0
v -224 -480 0
v -192 -512 0
v -224 -512 0
v -224 -480 0
v -192 -480 0
v -160 -512 0
v -192 -512 0
v -192 -480 0
v -160 -480 0
v -128 -512 0
v -160 -512 0
v -160 -480 0
v -128 -480 0
v -96 -512 0
v -128 -512 0
v -128 -480 0
v -96 -480 0
v -64 -512 0
v -96 -512 0
v -96 -480 0
v -64 -480 0
v -32 -512 0
v -64 -512 0
v -64 -480 0
v -32 -480 0
v 0 -512 0
v -32 -512 0
v -32 -480 0
v 0 -480 0

# Texture cooridinates (Count = 12)
vt 0.0625 0.53125
vt 0.09375 0.53125
vt 0.09375 0.5625
vt 0.0625 0.5625
vt 0 0.53125
vt 0.03125 0.53125
vt 0.03125 0.5625
vt 0 0.5625
vt 0.125 0.59375
vt 0.15625 0.59375
vt 0.15625 0.625
vt 0.125 0.625

# Normal
vn 0 0 -1

# Mesh description
g Plage32_mesh_0002

# Faces
f 1/1/1 2/2/1 3/3/1 4/4/1
f 5/5/1 6/6/1 7/7/1 8/8/1
f 9/9/1 10/10/1 11/11/1 12/12/1
f 13/5/1 14/6/1 15/7/1 16/8/1
f 17/6/1 18/1/1 19/4/1 20/7/1
f 21/9/1 22/10/1 23/11/1 24/12/1
f 25/9/1 26/10/1 27/11/1 28/12/1
f 29/5/1 30/6/1 31/7/1 32/8/1
f 33/6/1 34/1/1 35/4/1 36/7/1
f 37/1/1 38/2/1 39/3/1 40/4/1
f 41/1/1 42/2/1 43/3/1 44/4/1
f 45/5/1 46/6/1 47/7/1 48/8/1
f 49/9/1 50/10/1 51/11/1 52/12/1
f 53/5/1 54/6/1 55/7/1 56/8/1
f 57/6/1 58/1/1 59/4/1 60/7/1
f 61/9/1 62/10/1 63/11/1 64/12/1
f 65/9/1 66/10/1 67/11/1 68/12/1
f 69/6/1 70/1/1 71/4/1 72/7/1
f 73/5/1 74/6/1 75/7/1 76/8/1
f 77/5/1 78/6/1 79/7/1 80/8/1
f 81/5/1 82/6/1 83/7/1 84/8/1
f 85/6/1 86/1/1 87/4/1 88/7/1
f 89/6/1 90/1/1 91/4/1 92/7/1
f 93/1/1 94/2/1 95/3/1 96/4/1
f 97/9/1 98/10/1 99/11/1 100/12/1
f 101/5/1 102/6/1 103/7/1 104/8/1
f 105/9/1 106/10/1 107/11/1 108/12/1
f 109/9/1 110/10/1 111/11/1 112/12/1
f 113/9/1 114/10/1 115/11/1 116/12/1
f 117/6/1 118/1/1 119/4/1 120/7/1
f 121/1/1 122/2/1 123/3/1 124/4/1
f 125/1/1 126/2/1 127/3/1 128/4/1
f 129/6/1 130/1/1 131/4/1 132/7/1
f 133/1/1 134/2/1 135/3/1 136/4/1
f 137/6/1 138/1/1 139/4/1 140/7/1
f 141/9/1 142/10/1 143/11/1 144/12/1
f 145/1/1 146/2/1 147/3/1 148/4/1
f 149/6/1 150/1/1 151/4/1 152/7/1
f 153/5/1 154/6/1 155/7/1 156/8/1
f 157/1/1 158/2/1 159/3/1 160/4/1
f 161/6/1 162/1/1 163/4/1 164/7/1
f 165/9/1 166/10/1 167/11/1 168/12/1
f 169/9/1 170/10/1 171/11/1 172/12/1
f 173/5/1 174/6/1 175/7/1 176/8/1
f 177/6/1 178/1/1 179/4/1 180/7/1
f 181/5/1 182/6/1 183/7/1 184/8/1
f 185/5/1 186/6/1 187/7/1 188/8/1
f 189/1/1 190/2/1 191/3/1 192/4/1
f 193/1/1 194/2/1 195/3/1 196/4/1
f 197/9/1 198/10/1 199/11/1 200/12/1
f 201/1/1 202/2/1 203/3/1 204/4/1
f 205/9/1 206/10/1 207/11/1 208/12/1
f 209/6/1 210/1/1 211/4/1 212/7/1
f 213/9/1 214/10/1 215/11/1 216/12/1
f 217/5/1 218/6/1 219/7/1 220/8/1
f 221/9/1 222/10/1 223/11/1 224/12/1
f 225/9/1 226/10/1 227/11/1 228/12/1
f 229/9/1 230/10/1 231/11/1 232/12/1
f 233/1/1 234/2/1 235/3/1 236/4/1
f 237/6/1 238/1/1 239/4/1 240/7/1
f 241/1/1 242/2/1 243/3/1 244/4/1
f 245/5/1 246/6/1 247/7/1 248/8/1
f 249/9/1 250/10/1 251/11/1 252/12/1
f 253/9/1 254/10/1 255/11/1 256/12/1
f 257/9/1 258/10/1 259/11/1 260/12/1
f 261/1/1 262/2/1 263/3/1 264/4/1
f 265/6/1 266/1/1 267/4/1 268/7/1
f 269/5/1 270/6/1 271/7/1 272/8/1
f 273/6/1 274/1/1 275/4/1 276/7/1
f 277/5/1 278/6/1 279/7/1 280/8/1
f 281/9/1 282/10/1 283/11/1 284/12/1
f 285/9/1 286/10/1 287/11/1 288/12/1
f 289/6/1 290/1/1 291/4/1 292/7/1
f 293/6/1 294/1/1 295/4/1 296/7/1
f 297/9/1 298/10/1 299/11/1 300/12/1
f 301/1/1 302/2/1 303/3/1 304/4/1
f 305/9/1 306/10/1 307/11/1 308/12/1
f 309/5/1 310/6/1 311/7/1 312/8/1
f 313/9/1 314/10/1 315/11/1 316/12/1
f 317/1/1 318/2/1 319/3/1 320/4/1
f 321/6/1 322/1/1 323/4/1 324/7/1
f 325/5/1 326/6/1 327/7/1 328/8/1
f 329/1/1 330/2/1 331/3/1 332/4/1
f 333/1/1 334/2/1 335/3/1 336/4/1
f 337/1/1 338/2/1 339/3/1 340/4/1
f 341/6/1 342/1/1 343/4/1 344/7/1
f 345/1/1 346/2/1 347/3/1 348/4/1
f 349/9/1 350/10/1 351/11/1 352/12/1
f 353/5/1 354/6/1 355/7/1 356/8/1
f 357/6/1 358/1/1 359/4/1 360/7/1
f 361/6/1 362/1/1 363/4/1 364/7/1
f 365/5/1 366/6/1 367/7/1 368/8/1
f 369/9/1 370/10/1 371/11/1 372/12/1
f 373/6/1 374/1/1 375/4/1 376/7/1
f 377/1/1 378/2/1 379/3/1 380/4/1
f 381/5/1 382/6/1 383/7/1 384/8/1
f 385/1/1 386/2/1 387/3/1 388/4/1
f 389/1/1 390/2/1 391/3/1 392/4/1
f 393/9/1 394/10/1 395/11/1 396/12/1
f 397/5/1 398/6/1 399/7/1 400/8/1
f 401/6/1 402/1/1 403/4/1 404/7/1
f 405/5/1 406/6/1 407/7/1 408/8/1
f 409/9/1 410/10/1 411/11/1 412/12/1
f 413/6/1 414/1/1 415/4/1 416/7/1
f 417/9/1 418/10/1 419/11/1 420/12/1
f 421/1/1 422/2/1 423/3/1 424/4/1
f 425/1/1 426/2/1 427/3/1 428/4/1
f 429/9/1 430/10/1 431/11/1 432/12/1
f 433/5/1 434/6/1 435/7/1 436/8/1
f 437/9/1 438/10/1 439/11/1 440/12/1
f 441/5/1 442/6/1 443/7/1 444/8/1
f 445/1/1 446/2/1 447/3/1 448/4/1
f 449/5/1 450/6/1 451/7/1 452/8/1
f 453/9/1 454/10/1 455/11/1 456/12/1
f 457/1/1 458/2/1 459/3/1 460/4/1
f 461/1/1 462/2/1 463/3/1 464/4/1
f 465/1/1 466/2/1 467/3/1 468/4/1
f 469/6/1 470/1/1 471/4/1 472/7/1
f 473/1/1 474/2/1 475/3/1 476/4/1
f 477/1/1 478/2/1 479/3/1 480/4/1
f 481/1/1 482/2/1 483/3/1 484/4/1
f 485/9/1 486/10/1 487/11/1 488/12/1
f 489/6/1 490/1/1 491/4/1 492/7/1
f 493/9/1 494/10/1 495/11/1 496/12/1
f 497/1/1 498/2/1 499/3/1 500/4/1
f 501/6/1 502/1/1 503/4/1 504/7/1
f 505/5/1 506/6/1 507/7/1 508/8/1
f 509/6/1 510/1/1 511/4/1 512/7/1
f 513/9/1 514/10/1 515/11/1 516/12/1
f 517/9/1 518/10/1 519/11/1 520/12/1
f 521/1/1 522/2/1 523/3/1 524/4/1
f 525/6/1 526/1/1 527/4/1 528/7/1
f 529/6/1 530/1/1 531/4/1 532/7/1
f 533/5/1 534/6/1 535/7/1 536/8/1
f 537/1/1 538/2/1 539/3/1 540/4/1
f 541/9/1 542/10/1 543/11/1 544/12/1
f 545/1/1 546/2/1 547/3/1 548/4/1
f 549/9/1 550/10/1 551/11/1 552/12/1
f 553/1/1 554/2/1 555/3/1 556/4/1
f 557/1/1 558/2/1 559/3/1 560/4/1
f 561/9/1 562/10/1 563/11/1 564/12/1
f 565/6/1 566/1/1 567/4/1 568/7/1
f 569/1/1 570/2/1 571/3/1 572/4/1
f 573/5/1 574/6/1 575/7/1 576/8/1
f 577/1/1 578/2/1 579/3/1 580/4/1
f 581/5/1 582/6/1 583/7/1 584/8/1
f 585/6/1 586/1/1 587/4/1 588/7/1
f 589/1/1 590/2/1 591/3/1 592/4/1
f 593/6/1 594/1/1 595/4/1 596/7/1
f 597/1/1 598/2/1 599/3/1 600/4/1
f 601/6/1 602/1/1 603/4/1 604/7/1
f 605/5/1 606/6/1 607/7/1 608/8/1
f 609/5/1 610/6/1 611/7/1 612/8/1
f 613/9/1 614/10/1 615/11/1 616/12/1
f 617/9/1 618/10/1 619/11/1 620/12/1
f 621/1/1 622/2/1 623/3/1 624/4/1
f 625/9/1 626/10/1 627/11/1 628/12/1
f 629/6/1 630/1/1 631/4/1 632/7/1
f 633/6/1 634/1/1 635/4/1 636/7/1
f 637/5/1 638/6/1 639/7/1 640/8/1
f 641/9/1 642/10/1 643/11/1 644/12/1
f 645/6/1 646/1/1 647/4/1 648/7/1
f 649/9/1 650/10/1 651/11/1 652/12/1
f 653/6/1 654/1/1 655/4/1 656/7/1
f 657/6/1 658/1/1 659/4/1 660/7/1
f 661/6/1 662/1/1 663/4/1 664/7/1
f 665/9/1 666/10/1 667/11/1 668/12/1
f 669/1/1 670/2/1 671/3/1 672/4/1
f 673/9/1 674/10/1 675/11/1 676/12/1
f 677/1/1 678/2/1 679/3/1 680/4/1
f 681/5/1 682/6/1 683/7/1 684/8/1
f 685/9/1 686/10/1 687/11/1 688/12/1
f 689/1/1 690/2/1 691/3/1 692/4/1
f 693/1/1 694/2/1 695/3/1 696/4/1
f 697/9/1 698/10/1 699/11/1 700/12/1
f 701/9/1 702/10/1 703/11/1 704/12/1
f 705/5/1 706/6/1 707/7/1 708/8/1
f 709/6/1 710/1/1 711/4/1 712/7/1
f 713/5/1 714/6/1 715/7/1 716/8/1
f 717/1/1 718/2/1 719/3/1 720/4/1
f 721/1/1 722/2/1 723/3/1 724/4/1
f 725/1/1 726/2/1 727/3/1 728/4/1
f 729/1/1 730/2/1 731/3/1 732/4/1
f 733/9/1 734/10/1 735/11/1 736/12/1
f 737/1/1 738/2/1 739/3/1 740/4/1
f 741/1/1 742/2/1 743/3/1 744/4/1
f 745/9/1 746/10/1 747/11/1 748/12/1
f 749/1/1 750/2/1 751/3/1 752/4/1
f 753/6/1 754/1/1 755/4/1 756/7/1
f 757/5/1 758/6/1 759/7/1 760/8/1
f 761/5/1 762/6/1 763/7/1 764/8/1
f 765/9/1 766/10/1 767/11/1 768/12/1
f 769/6/1 770/1/1 771/4/1 772/7/1
f 773/9/1 774/10/1 775/11/1 776/12/1
f 777/5/1 778/6/1 779/7/1 780/8/1
f 781/5/1 782/6/1 783/7/1 784/8/1
f 785/9/1 786/10/1 787/11/1 788/12/1
f 789/5/1 790/6/1 791/7/1 792/8/1
f 793/6/1 794/1/1 795/4/1 796/7/1
f 797/6/1 798/1/1 799/4/1 800/7/1
f 801/1/1 802/2/1 803/3/1 804/4/1
f 805/1/1 806/2/1 807/3/1 808/4/1
f 809/9/1 810/10/1 811/11/1 812/12/1
f 813/9/1 814/10/1 815/11/1 816/12/1
f 817/6/1 818/1/1 819/4/1 820/7/1
f 821/1/1 822/2/1 823/3/1 824/4/1
f 825/5/1 826/6/1 827/7/1 828/8/1
f 829/9/1 830/10/1 831/11/1 832/12/1
f 833/6/1 834/1/1 835/4/1 836/7/1
f 837/6/1 838/1/1 839/4/1 840/7/1
f 841/9/1 842/10/1 843/11/1 844/12/1
f 845/5/1 846/6/1 847/7/1 848/8/1
f 849/6/1 850/1/1 851/4/1 852/7/1
f 853/5/1 854/6/1 855/7/1 856/8/1
f 857/9/1 858/10/1 859/11/1 860/12/1
f 861/6/1 862/1/1 863/4/1 864/7/1
f 865/1/1 866/2/1 867/3/1 868/4/1
f 869/6/1 870/1/1 871/4/1 872/7/1
f 873/1/1 874/2/1 875/3/1 876/4/1
f 877/6/1 878/1/1 879/4/1 880/7/1
f 881/1/1 882/2/1 883/3/1 884/4/1
f 885/9/1 886/10/1 887/11/1 888/12/1
f 889/5/1 890/6/1 891/7/1 892/8/1
f 893/6/1 894/1/1 895/4/1 896/7/1
f 897/6/1 898/1/1 899/4/1 900/7/1
f 901/5/1 902/6/1 903/7/1 904/8/1
f 905/1/1 906/2/1 907/3/1 908/4/1
f 909/5/1 910/6/1 911/7/1 912/8/1
f 913/5/1 914/6/1 915/7/1 916/8/1
f 917/9/1 918/10/1 919/11/1 920/12/1
f 921/1/1 922/2/1 923/3/1 924/4/1
f 925/6/1 926/1/1 927/4/1 928/7/1
f 929/1/1 930/2/1 931/3/1 932/4/1
f 933/9/1 934/10/1 935/11/1 936/12/1
f 937/6/1 938/1/1 939/4/1 940/7/1
f 941/5/1 942/6/1 943/7/1 944/8/1
f 945/9/1 946/10/1 947/11/1 948/12/1
f 949/5/1 950/6/1 951/7/1 952/8/1
f 953/9/1 954/10/1 955/11/1 956/12/1
f 957/1/1 958/2/1 959/3/1 960/4/1
f 961/1/1 962/2/1 963/3/1 964/4/1
f 965/5/1 966/6/1 967/7/1 968/8/1
f 969/1/1 970/2/1 971/3/1 972/4/1
f 973/5/1 974/6/1 975/7/1 976/8/1
f 977/6/1 978/1/1 979/4/1 980/7/1
f 981/9/1 982/10/1 983/11/1 984/12/1
f 985/1/1 986/2/1 987/3/1 988/4/1
f 989/6/1 990/1/1 991/4/1 992/7/1
f 993/6/1 994/1/1 995/4/1 996/7/1
f 997/6/1 998/1/1 999/4/1 1000/7/1
f 1001/6/1 1002/1/1 1003/4/1 1004/7/1
f 1005/5/1 1006/6/1 1007/7/1 1008/8/1
f 1009/9/1 1010/10/1 1011/11/1 1012/12/1
f 1013/9/1 1014/10/1 1015/11/1 1016/12/1
f 1017/6/1 1018/1/1 1019/4/1 1020/7/1
f 1021/9/1 1022/10/1 1023/11/1 1024/12/1

