# Tiled2Unity generated file. Do not modify by hand.
# Wavefront file for 'Plage32_mesh_0026.obj'

# Vertices (Count = 1024)
v -480 -32 0
v -512 -32 0
v -512 0 0
v -480 0 0
v -448 -32 0
v -480 -32 0
v -480 0 0
v -448 0 0
v -416 -32 0
v -448 -32 0
v -448 0 0
v -416 0 0
v -384 -32 0
v -416 -32 0
v -416 0 0
v -384 0 0
v -352 -32 0
v -384 -32 0
v -384 0 0
v -352 0 0
v -320 -32 0
v -352 -32 0
v -352 0 0
v -320 0 0
v -288 -32 0
v -320 -32 0
v -320 0 0
v -288 0 0
v -256 -32 0
v -288 -32 0
v -288 0 0
v -256 0 0
v -224 -32 0
v -256 -32 0
v -256 0 0
v -224 0 0
v -192 -32 0
v -224 -32 0
v -224 0 0
v -192 0 0
v -160 -32 0
v -192 -32 0
v -192 0 0
v -160 0 0
v -128 -32 0
v -160 -32 0
v -160 0 0
v -128 0 0
v -96 -32 0
v -128 -32 0
v -128 0 0
v -96 0 0
v -64 -32 0
v -96 -32 0
v -96 0 0
v -64 0 0
v -32 -32 0
v -64 -32 0
v -64 0 0
v -32 0 0
v 0 -32 0
v -32 -32 0
v -32 0 0
v 0 0 0
v -480 -64 0
v -512 -64 0
v -512 -32 0
v -480 -32 0
v -448 -64 0
v -480 -64 0
v -480 -32 0
v -448 -32 0
v -416 -64 0
v -448 -64 0
v -448 -32 0
v -416 -32 0
v -384 -64 0
v -416 -64 0
v -416 -32 0
v -384 -32 0
v -352 -64 0
v -384 -64 0
v -384 -32 0
v -352 -32 0
v -320 -64 0
v -352 -64 0
v -352 -32 0
v -320 -32 0
v -288 -64 0
v -320 -64 0
v -320 -32 0
v -288 -32 0
v -256 -64 0
v -288 -64 0
v -288 -32 0
v -256 -32 0
v -224 -64 0
v -256 -64 0
v -256 -32 0
v -224 -32 0
v -192 -64 0
v -224 -64 0
v -224 -32 0
v -192 -32 0
v -160 -64 0
v -192 -64 0
v -192 -32 0
v -160 -32 0
v -128 -64 0
v -160 -64 0
v -160 -32 0
v -128 -32 0
v -96 -64 0
v -128 -64 0
v -128 -32 0
v -96 -32 0
v -64 -64 0
v -96 -64 0
v -96 -32 0
v -64 -32 0
v -32 -64 0
v -64 -64 0
v -64 -32 0
v -32 -32 0
v 0 -64 0
v -32 -64 0
v -32 -32 0
v 0 -32 0
v -480 -96 0
v -512 -96 0
v -512 -64 0
v -480 -64 0
v -448 -96 0
v -480 -96 0
v -480 -64 0
v -448 -64 0
v -416 -96 0
v -448 -96 0
v -448 -64 0
v -416 -64 0
v -384 -96 0
v -416 -96 0
v -416 -64 0
v -384 -64 0
v -352 -96 0
v -384 -96 0
v -384 -64 0
v -352 -64 0
v -320 -96 0
v -352 -96 0
v -352 -64 0
v -320 -64 0
v -288 -96 0
v -320 -96 0
v -320 -64 0
v -288 -64 0
v -256 -96 0
v -288 -96 0
v -288 -64 0
v -256 -64 0
v -224 -96 0
v -256 -96 0
v -256 -64 0
v -224 -64 0
v -192 -96 0
v -224 -96 0
v -224 -64 0
v -192 -64 0
v -160 -96 0
v -192 -96 0
v -192 -64 0
v -160 -64 0
v -128 -96 0
v -160 -96 0
v -160 -64 0
v -128 -64 0
v -96 -96 0
v -128 -96 0
v -128 -64 0
v -96 -64 0
v -64 -96 0
v -96 -96 0
v -96 -64 0
v -64 -64 0
v -32 -96 0
v -64 -96 0
v -64 -64 0
v -32 -64 0
v 0 -96 0
v -32 -96 0
v -32 -64 0
v 0 -64 0
v -480 -128 0
v -512 -128 0
v -512 -96 0
v -480 -96 0
v -448 -128 0
v -480 -128 0
v -480 -96 0
v -448 -96 0
v -416 -128 0
v -448 -128 0
v -448 -96 0
v -416 -96 0
v -384 -128 0
v -416 -128 0
v -416 -96 0
v -384 -96 0
v -352 -128 0
v -384 -128 0
v -384 -96 0
v -352 -96 0
v -320 -128 0
v -352 -128 0
v -352 -96 0
v -320 -96 0
v -288 -128 0
v -320 -128 0
v -320 -96 0
v -288 -96 0
v -256 -128 0
v -288 -128 0
v -288 -96 0
v -256 -96 0
v -224 -128 0
v -256 -128 0
v -256 -96 0
v -224 -96 0
v -192 -128 0
v -224 -128 0
v -224 -96 0
v -192 -96 0
v -160 -128 0
v -192 -128 0
v -192 -96 0
v -160 -96 0
v -128 -128 0
v -160 -128 0
v -160 -96 0
v -128 -96 0
v -96 -128 0
v -128 -128 0
v -128 -96 0
v -96 -96 0
v -64 -128 0
v -96 -128 0
v -96 -96 0
v -64 -96 0
v -32 -128 0
v -64 -128 0
v -64 -96 0
v -32 -96 0
v 0 -128 0
v -32 -128 0
v -32 -96 0
v 0 -96 0
v -480 -160 0
v -512 -160 0
v -512 -128 0
v -480 -128 0
v -448 -160 0
v -480 -160 0
v -480 -128 0
v -448 -128 0
v -416 -160 0
v -448 -160 0
v -448 -128 0
v -416 -128 0
v -384 -160 0
v -416 -160 0
v -416 -128 0
v -384 -128 0
v -352 -160 0
v -384 -160 0
v -384 -128 0
v -352 -128 0
v -320 -160 0
v -352 -160 0
v -352 -128 0
v -320 -128 0
v -288 -160 0
v -320 -160 0
v -320 -128 0
v -288 -128 0
v -256 -160 0
v -288 -160 0
v -288 -128 0
v -256 -128 0
v -224 -160 0
v -256 -160 0
v -256 -128 0
v -224 -128 0
v -192 -160 0
v -224 -160 0
v -224 -128 0
v -192 -128 0
v -160 -160 0
v -192 -160 0
v -192 -128 0
v -160 -128 0
v -128 -160 0
v -160 -160 0
v -160 -128 0
v -128 -128 0
v -96 -160 0
v -128 -160 0
v -128 -128 0
v -96 -128 0
v -64 -160 0
v -96 -160 0
v -96 -128 0
v -64 -128 0
v -32 -160 0
v -64 -160 0
v -64 -128 0
v -32 -128 0
v 0 -160 0
v -32 -160 0
v -32 -128 0
v 0 -128 0
v -480 -192 0
v -512 -192 0
v -512 -160 0
v -480 -160 0
v -448 -192 0
v -480 -192 0
v -480 -160 0
v -448 -160 0
v -416 -192 0
v -448 -192 0
v -448 -160 0
v -416 -160 0
v -384 -192 0
v -416 -192 0
v -416 -160 0
v -384 -160 0
v -352 -192 0
v -384 -192 0
v -384 -160 0
v -352 -160 0
v -320 -192 0
v -352 -192 0
v -352 -160 0
v -320 -160 0
v -288 -192 0
v -320 -192 0
v -320 -160 0
v -288 -160 0
v -256 -192 0
v -288 -192 0
v -288 -160 0
v -256 -160 0
v -224 -192 0
v -256 -192 0
v -256 -160 0
v -224 -160 0
v -192 -192 0
v -224 -192 0
v -224 -160 0
v -192 -160 0
v -160 -192 0
v -192 -192 0
v -192 -160 0
v -160 -160 0
v -128 -192 0
v -160 -192 0
v -160 -160 0
v -128 -160 0
v -96 -192 0
v -128 -192 0
v -128 -160 0
v -96 -160 0
v -64 -192 0
v -96 -192 0
v -96 -160 0
v -64 -160 0
v -32 -192 0
v -64 -192 0
v -64 -160 0
v -32 -160 0
v 0 -192 0
v -32 -192 0
v -32 -160 0
v 0 -160 0
v -480 -224 0
v -512 -224 0
v -512 -192 0
v -480 -192 0
v -448 -224 0
v -480 -224 0
v -480 -192 0
v -448 -192 0
v -416 -224 0
v -448 -224 0
v -448 -192 0
v -416 -192 0
v -384 -224 0
v -416 -224 0
v -416 -192 0
v -384 -192 0
v -352 -224 0
v -384 -224 0
v -384 -192 0
v -352 -192 0
v -320 -224 0
v -352 -224 0
v -352 -192 0
v -320 -192 0
v -288 -224 0
v -320 -224 0
v -320 -192 0
v -288 -192 0
v -256 -224 0
v -288 -224 0
v -288 -192 0
v -256 -192 0
v -224 -224 0
v -256 -224 0
v -256 -192 0
v -224 -192 0
v -192 -224 0
v -224 -224 0
v -224 -192 0
v -192 -192 0
v -160 -224 0
v -192 -224 0
v -192 -192 0
v -160 -192 0
v -128 -224 0
v -160 -224 0
v -160 -192 0
v -128 -192 0
v -96 -224 0
v -128 -224 0
v -128 -192 0
v -96 -192 0
v -64 -224 0
v -96 -224 0
v -96 -192 0
v -64 -192 0
v -32 -224 0
v -64 -224 0
v -64 -192 0
v -32 -192 0
v 0 -224 0
v -32 -224 0
v -32 -192 0
v 0 -192 0
v -480 -256 0
v -512 -256 0
v -512 -224 0
v -480 -224 0
v -448 -256 0
v -480 -256 0
v -480 -224 0
v -448 -224 0
v -416 -256 0
v -448 -256 0
v -448 -224 0
v -416 -224 0
v -384 -256 0
v -416 -256 0
v -416 -224 0
v -384 -224 0
v -352 -256 0
v -384 -256 0
v -384 -224 0
v -352 -224 0
v -320 -256 0
v -352 -256 0
v -352 -224 0
v -320 -224 0
v -288 -256 0
v -320 -256 0
v -320 -224 0
v -288 -224 0
v -256 -256 0
v -288 -256 0
v -288 -224 0
v -256 -224 0
v -224 -256 0
v -256 -256 0
v -256 -224 0
v -224 -224 0
v -192 -256 0
v -224 -256 0
v -224 -224 0
v -192 -224 0
v -160 -256 0
v -192 -256 0
v -192 -224 0
v -160 -224 0
v -128 -256 0
v -160 -256 0
v -160 -224 0
v -128 -224 0
v -96 -256 0
v -128 -256 0
v -128 -224 0
v -96 -224 0
v -64 -256 0
v -96 -256 0
v -96 -224 0
v -64 -224 0
v -32 -256 0
v -64 -256 0
v -64 -224 0
v -32 -224 0
v 0 -256 0
v -32 -256 0
v -32 -224 0
v 0 -224 0
v -480 -288 0
v -512 -288 0
v -512 -256 0
v -480 -256 0
v -448 -288 0
v -480 -288 0
v -480 -256 0
v -448 -256 0
v -416 -288 0
v -448 -288 0
v -448 -256 0
v -416 -256 0
v -384 -288 0
v -416 -288 0
v -416 -256 0
v -384 -256 0
v -352 -288 0
v -384 -288 0
v -384 -256 0
v -352 -256 0
v -320 -288 0
v -352 -288 0
v -352 -256 0
v -320 -256 0
v -288 -288 0
v -320 -288 0
v -320 -256 0
v -288 -256 0
v -256 -288 0
v -288 -288 0
v -288 -256 0
v -256 -256 0
v -224 -288 0
v -256 -288 0
v -256 -256 0
v -224 -256 0
v -192 -288 0
v -224 -288 0
v -224 -256 0
v -192 -256 0
v -160 -288 0
v -192 -288 0
v -192 -256 0
v -160 -256 0
v -128 -288 0
v -160 -288 0
v -160 -256 0
v -128 -256 0
v -96 -288 0
v -128 -288 0
v -128 -256 0
v -96 -256 0
v -64 -288 0
v -96 -288 0
v -96 -256 0
v -64 -256 0
v -32 -288 0
v -64 -288 0
v -64 -256 0
v -32 -256 0
v 0 -288 0
v -32 -288 0
v -32 -256 0
v 0 -256 0
v -480 -320 0
v -512 -320 0
v -512 -288 0
v -480 -288 0
v -448 -320 0
v -480 -320 0
v -480 -288 0
v -448 -288 0
v -416 -320 0
v -448 -320 0
v -448 -288 0
v -416 -288 0
v -384 -320 0
v -416 -320 0
v -416 -288 0
v -384 -288 0
v -352 -320 0
v -384 -320 0
v -384 -288 0
v -352 -288 0
v -320 -320 0
v -352 -320 0
v -352 -288 0
v -320 -288 0
v -288 -320 0
v -320 -320 0
v -320 -288 0
v -288 -288 0
v -256 -320 0
v -288 -320 0
v -288 -288 0
v -256 -288 0
v -224 -320 0
v -256 -320 0
v -256 -288 0
v -224 -288 0
v -192 -320 0
v -224 -320 0
v -224 -288 0
v -192 -288 0
v -160 -320 0
v -192 -320 0
v -192 -288 0
v -160 -288 0
v -128 -320 0
v -160 -320 0
v -160 -288 0
v -128 -288 0
v -96 -320 0
v -128 -320 0
v -128 -288 0
v -96 -288 0
v -64 -320 0
v -96 -320 0
v -96 -288 0
v -64 -288 0
v -32 -320 0
v -64 -320 0
v -64 -288 0
v -32 -288 0
v 0 -320 0
v -32 -320 0
v -32 -288 0
v 0 -288 0
v -480 -352 0
v -512 -352 0
v -512 -320 0
v -480 -320 0
v -448 -352 0
v -480 -352 0
v -480 -320 0
v -448 -320 0
v -416 -352 0
v -448 -352 0
v -448 -320 0
v -416 -320 0
v -384 -352 0
v -416 -352 0
v -416 -320 0
v -384 -320 0
v -352 -352 0
v -384 -352 0
v -384 -320 0
v -352 -320 0
v -320 -352 0
v -352 -352 0
v -352 -320 0
v -320 -320 0
v -288 -352 0
v -320 -352 0
v -320 -320 0
v -288 -320 0
v -256 -352 0
v -288 -352 0
v -288 -320 0
v -256 -320 0
v -224 -352 0
v -256 -352 0
v -256 -320 0
v -224 -320 0
v -192 -352 0
v -224 -352 0
v -224 -320 0
v -192 -320 0
v -160 -352 0
v -192 -352 0
v -192 -320 0
v -160 -320 0
v -128 -352 0
v -160 -352 0
v -160 -320 0
v -128 -320 0
v -96 -352 0
v -128 -352 0
v -128 -320 0
v -96 -320 0
v -64 -352 0
v -96 -352 0
v -96 -320 0
v -64 -320 0
v -32 -352 0
v -64 -352 0
v -64 -320 0
v -32 -320 0
v 0 -352 0
v -32 -352 0
v -32 -320 0
v 0 -320 0
v -480 -384 0
v -512 -384 0
v -512 -352 0
v -480 -352 0
v -448 -384 0
v -480 -384 0
v -480 -352 0
v -448 -352 0
v -416 -384 0
v -448 -384 0
v -448 -352 0
v -416 -352 0
v -384 -384 0
v -416 -384 0
v -416 -352 0
v -384 -352 0
v -352 -384 0
v -384 -384 0
v -384 -352 0
v -352 -352 0
v -320 -384 0
v -352 -384 0
v -352 -352 0
v -320 -352 0
v -288 -384 0
v -320 -384 0
v -320 -352 0
v -288 -352 0
v -256 -384 0
v -288 -384 0
v -288 -352 0
v -256 -352 0
v -224 -384 0
v -256 -384 0
v -256 -352 0
v -224 -352 0
v -192 -384 0
v -224 -384 0
v -224 -352 0
v -192 -352 0
v -160 -384 0
v -192 -384 0
v -192 -352 0
v -160 -352 0
v -128 -384 0
v -160 -384 0
v -160 -352 0
v -128 -352 0
v -96 -384 0
v -128 -384 0
v -128 -352 0
v -96 -352 0
v -64 -384 0
v -96 -384 0
v -96 -352 0
v -64 -352 0
v -32 -384 0
v -64 -384 0
v -64 -352 0
v -32 -352 0
v 0 -384 0
v -32 -384 0
v -32 -352 0
v 0 -352 0
v -480 -416 0
v -512 -416 0
v -512 -384 0
v -480 -384 0
v -448 -416 0
v -480 -416 0
v -480 -384 0
v -448 -384 0
v -416 -416 0
v -448 -416 0
v -448 -384 0
v -416 -384 0
v -384 -416 0
v -416 -416 0
v -416 -384 0
v -384 -384 0
v -352 -416 0
v -384 -416 0
v -384 -384 0
v -352 -384 0
v -320 -416 0
v -352 -416 0
v -352 -384 0
v -320 -384 0
v -288 -416 0
v -320 -416 0
v -320 -384 0
v -288 -384 0
v -256 -416 0
v -288 -416 0
v -288 -384 0
v -256 -384 0
v -224 -416 0
v -256 -416 0
v -256 -384 0
v -224 -384 0
v -192 -416 0
v -224 -416 0
v -224 -384 0
v -192 -384 0
v -160 -416 0
v -192 -416 0
v -192 -384 0
v -160 -384 0
v -128 -416 0
v -160 -416 0
v -160 -384 0
v -128 -384 0
v -96 -416 0
v -128 -416 0
v -128 -384 0
v -96 -384 0
v -64 -416 0
v -96 -416 0
v -96 -384 0
v -64 -384 0
v -32 -416 0
v -64 -416 0
v -64 -384 0
v -32 -384 0
v 0 -416 0
v -32 -416 0
v -32 -384 0
v 0 -384 0
v -480 -448 0
v -512 -448 0
v -512 -416 0
v -480 -416 0
v -448 -448 0
v -480 -448 0
v -480 -416 0
v -448 -416 0
v -416 -448 0
v -448 -448 0
v -448 -416 0
v -416 -416 0
v -384 -448 0
v -416 -448 0
v -416 -416 0
v -384 -416 0
v -352 -448 0
v -384 -448 0
v -384 -416 0
v -352 -416 0
v -320 -448 0
v -352 -448 0
v -352 -416 0
v -320 -416 0
v -288 -448 0
v -320 -448 0
v -320 -416 0
v -288 -416 0
v -256 -448 0
v -288 -448 0
v -288 -416 0
v -256 -416 0
v -224 -448 0
v -256 -448 0
v -256 -416 0
v -224 -416 0
v -192 -448 0
v -224 -448 0
v -224 -416 0
v -192 -416 0
v -160 -448 0
v -192 -448 0
v -192 -416 0
v -160 -416 0
v -128 -448 0
v -160 -448 0
v -160 -416 0
v -128 -416 0
v -96 -448 0
v -128 -448 0
v -128 -416 0
v -96 -416 0
v -64 -448 0
v -96 -448 0
v -96 -416 0
v -64 -416 0
v -32 -448 0
v -64 -448 0
v -64 -416 0
v -32 -416 0
v 0 -448 0
v -32 -448 0
v -32 -416 0
v 0 -416 0
v -480 -480 0
v -512 -480 0
v -512 -448 0
v -480 -448 0
v -448 -480 0
v -480 -480 0
v -480 -448 0
v -448 -448 0
v -416 -480 0
v -448 -480 0
v -448 -448 0
v -416 -448 0
v -384 -480 0
v -416 -480 0
v -416 -448 0
v -384 -448 0
v -352 -480 0
v -384 -480 0
v -384 -448 0
v -352 -448 0
v -320 -480 0
v -352 -480 0
v -352 -448 0
v -320 -448 0
v -288 -480 0
v -320 -480 0
v -320 -448 0
v -288 -448 0
v -256 -480 0
v -288 -480 0
v -288 -448 0
v -256 -448 0
v -224 -480 0
v -256 -480 0
v -256 -448 0
v -224 -448 0
v -192 -480 0
v -224 -480 0
v -224 -448 0
v -192 -448 0
v -160 -480 0
v -192 -480 0
v -192 -448 0
v -160 -448 0
v -128 -480 0
v -160 -480 0
v -160 -448 0
v -128 -448 0
v -96 -480 0
v -128 -480 0
v -128 -448 0
v -96 -448 0
v -64 -480 0
v -96 -480 0
v -96 -448 0
v -64 -448 0
v -32 -480 0
v -64 -480 0
v -64 -448 0
v -32 -448 0
v 0 -480 0
v -32 -480 0
v -32 -448 0
v 0 -448 0
v -480 -512 0
v -512 -512 0
v -512 -480 0
v -480 -480 0
v -448 -512 0
v -480 -512 0
v -480 -480 0
v -448 -480 0
v -416 -512 0
v -448 -512 0
v -448 -480 0
v -416 -480 0
v -384 -512 0
v -416 -512 0
v -416 -480 0
v -384 -480 0
v -352 -512 0
v -384 -512 0
v -384 -480 0
v -352 -480 0
v -320 -512 0
v -352 -512 0
v -352 -480 0
v -320 -480 0
v -288 -512 0
v -320 -512 0
v -320 -480 0
v -288 -480 0
v -256 -512 0
v -288 -512 0
v -288 -480 0
v -256 -480 0
v -224 -512 0
v -256 -512 0
v -256 -480 0
v -224 -480 0
v -192 -512 0
v -224 -512 0
v -224 -480 0
v -192 -480 0
v -160 -512 0
v -192 -512 0
v -192 -480 0
v -160 -480 0
v -128 -512 0
v -160 -512 0
v -160 -480 0
v -128 -480 0
v -96 -512 0
v -128 -512 0
v -128 -480 0
v -96 -480 0
v -64 -512 0
v -96 -512 0
v -96 -480 0
v -64 -480 0
v -32 -512 0
v -64 -512 0
v -64 -480 0
v -32 -480 0
v 0 -512 0
v -32 -512 0
v -32 -480 0
v 0 -480 0

# Texture cooridinates (Count = 27)
vt 0 0.53125
vt 0.03125 0.53125
vt 0.03125 0.5625
vt 0 0.5625
vt 0.0625 0.53125
vt 0.09375 0.53125
vt 0.09375 0.5625
vt 0.0625 0.5625
vt 0.125 0.59375
vt 0.15625 0.59375
vt 0.15625 0.625
vt 0.125 0.625
vt 0.15625 0.6875
vt 0.1875 0.6875
vt 0.1875 0.71875
vt 0.15625 0.71875
vt 0.125 0.5625
vt 0.15625 0.5625
vt 0.09375 0.59375
vt 0.25 0.53125
vt 0.28125 0.53125
vt 0.28125 0.5625
vt 0.25 0.5625
vt 0.21875 0.59375
vt 0.25 0.59375
vt 0.25 0.625
vt 0.21875 0.625

# Normal
vn 0 0 -1

# Mesh description
g Plage32_mesh_0026

# Faces
f 1/1/1 2/2/1 3/3/1 4/4/1
f 5/5/1 6/6/1 7/7/1 8/8/1
f 9/9/1 10/10/1 11/11/1 12/12/1
f 13/1/1 14/2/1 15/3/1 16/4/1
f 17/1/1 18/2/1 19/3/1 20/4/1
f 21/5/1 22/6/1 23/7/1 24/8/1
f 25/9/1 26/10/1 27/11/1 28/12/1
f 29/5/1 30/6/1 31/7/1 32/8/1
f 33/9/1 34/10/1 35/11/1 36/12/1
f 37/5/1 38/6/1 39/7/1 40/8/1
f 41/1/1 42/2/1 43/3/1 44/4/1
f 45/5/1 46/6/1 47/7/1 48/8/1
f 49/9/1 50/10/1 51/11/1 52/12/1
f 53/13/1 54/14/1 55/15/1 56/16/1
f 57/17/1 58/18/1 59/10/1 60/9/1
f 61/17/1 62/18/1 63/10/1 64/9/1
f 65/2/1 66/5/1 67/8/1 68/3/1
f 69/9/1 70/10/1 71/11/1 72/12/1
f 73/1/1 74/2/1 75/3/1 76/4/1
f 77/9/1 78/10/1 79/11/1 80/12/1
f 81/5/1 82/6/1 83/7/1 84/8/1
f 85/9/1 86/10/1 87/11/1 88/12/1
f 89/9/1 90/10/1 91/11/1 92/12/1
f 93/1/1 94/2/1 95/3/1 96/4/1
f 97/2/1 98/5/1 99/8/1 100/3/1
f 101/2/1 102/5/1 103/8/1 104/3/1
f 105/1/1 106/2/1 107/3/1 108/4/1
f 109/9/1 110/10/1 111/11/1 112/12/1
f 113/13/1 114/14/1 115/15/1 116/16/1
f 117/7/1 118/17/1 119/9/1 120/19/1
f 121/20/1 122/21/1 123/22/1 124/23/1
f 125/20/1 126/21/1 127/22/1 128/23/1
f 129/5/1 130/6/1 131/7/1 132/8/1
f 133/1/1 134/2/1 135/3/1 136/4/1
f 137/5/1 138/6/1 139/7/1 140/8/1
f 141/1/1 142/2/1 143/3/1 144/4/1
f 145/2/1 146/5/1 147/8/1 148/3/1
f 149/2/1 150/5/1 151/8/1 152/3/1
f 153/9/1 154/10/1 155/11/1 156/12/1
f 157/9/1 158/10/1 159/11/1 160/12/1
f 161/13/1 162/14/1 163/15/1 164/16/1
f 165/17/1 166/18/1 167/10/1 168/9/1
f 169/17/1 170/18/1 171/10/1 172/9/1
f 173/17/1 174/18/1 175/10/1 176/9/1
f 177/7/1 178/17/1 179/9/1 180/19/1
f 181/20/1 182/21/1 183/22/1 184/23/1
f 185/20/1 186/21/1 187/22/1 188/23/1
f 189/20/1 190/21/1 191/22/1 192/23/1
f 193/5/1 194/6/1 195/7/1 196/8/1
f 197/1/1 198/2/1 199/3/1 200/4/1
f 201/2/1 202/5/1 203/8/1 204/3/1
f 205/1/1 206/2/1 207/3/1 208/4/1
f 209/13/1 210/14/1 211/15/1 212/16/1
f 213/17/1 214/18/1 215/10/1 216/9/1
f 217/17/1 218/18/1 219/10/1 220/9/1
f 221/17/1 222/18/1 223/10/1 224/9/1
f 225/7/1 226/17/1 227/9/1 228/19/1
f 229/20/1 230/21/1 231/22/1 232/23/1
f 233/20/1 234/21/1 235/22/1 236/23/1
f 237/20/1 238/21/1 239/22/1 240/23/1
f 241/20/1 242/21/1 243/22/1 244/23/1
f 245/20/1 246/21/1 247/22/1 248/23/1
f 249/20/1 250/21/1 251/22/1 252/23/1
f 253/20/1 254/21/1 255/22/1 256/23/1
f 257/9/1 258/10/1 259/11/1 260/12/1
f 261/13/1 262/14/1 263/15/1 264/16/1
f 265/17/1 266/18/1 267/10/1 268/9/1
f 269/17/1 270/18/1 271/10/1 272/9/1
f 273/7/1 274/17/1 275/9/1 276/19/1
f 277/24/1 278/25/1 279/26/1 280/27/1
f 281/20/1 282/21/1 283/22/1 284/23/1
f 285/20/1 286/21/1 287/22/1 288/23/1
f 289/20/1 290/21/1 291/22/1 292/23/1
f 293/20/1 294/21/1 295/22/1 296/23/1
f 297/20/1 298/21/1 299/22/1 300/23/1
f 301/20/1 302/21/1 303/22/1 304/23/1
f 305/20/1 306/21/1 307/22/1 308/23/1
f 309/20/1 310/21/1 311/22/1 312/23/1
f 313/20/1 314/21/1 315/22/1 316/23/1
f 317/20/1 318/21/1 319/22/1 320/23/1
f 321/17/1 322/18/1 323/10/1 324/9/1
f 325/7/1 326/17/1 327/9/1 328/19/1
f 329/20/1 330/21/1 331/22/1 332/23/1
f 333/20/1 334/21/1 335/22/1 336/23/1
f 337/20/1 338/21/1 339/22/1 340/23/1
f 341/20/1 342/21/1 343/22/1 344/23/1
f 345/20/1 346/21/1 347/22/1 348/23/1
f 349/20/1 350/21/1 351/22/1 352/23/1
f 353/20/1 354/21/1 355/22/1 356/23/1
f 357/20/1 358/21/1 359/22/1 360/23/1
f 361/20/1 362/21/1 363/22/1 364/23/1
f 365/20/1 366/21/1 367/22/1 368/23/1
f 369/20/1 370/21/1 371/22/1 372/23/1
f 373/20/1 374/21/1 375/22/1 376/23/1
f 377/20/1 378/21/1 379/22/1 380/23/1
f 381/20/1 382/21/1 383/22/1 384/23/1
f 385/20/1 386/21/1 387/22/1 388/23/1
f 389/20/1 390/21/1 391/22/1 392/23/1
f 393/20/1 394/21/1 395/22/1 396/23/1
f 397/20/1 398/21/1 399/22/1 400/23/1
f 401/20/1 402/21/1 403/22/1 404/23/1
f 405/20/1 406/21/1 407/22/1 408/23/1
f 409/20/1 410/21/1 411/22/1 412/23/1
f 413/20/1 414/21/1 415/22/1 416/23/1
f 417/20/1 418/21/1 419/22/1 420/23/1
f 421/20/1 422/21/1 423/22/1 424/23/1
f 425/20/1 426/21/1 427/22/1 428/23/1
f 429/20/1 430/21/1 431/22/1 432/23/1
f 433/20/1 434/21/1 435/22/1 436/23/1
f 437/20/1 438/21/1 439/22/1 440/23/1
f 441/20/1 442/21/1 443/22/1 444/23/1
f 445/20/1 446/21/1 447/22/1 448/23/1
f 449/20/1 450/21/1 451/22/1 452/23/1
f 453/20/1 454/21/1 455/22/1 456/23/1
f 457/20/1 458/21/1 459/22/1 460/23/1
f 461/20/1 462/21/1 463/22/1 464/23/1
f 465/20/1 466/21/1 467/22/1 468/23/1
f 469/20/1 470/21/1 471/22/1 472/23/1
f 473/20/1 474/21/1 475/22/1 476/23/1
f 477/20/1 478/21/1 479/22/1 480/23/1
f 481/20/1 482/21/1 483/22/1 484/23/1
f 485/20/1 486/21/1 487/22/1 488/23/1
f 489/20/1 490/21/1 491/22/1 492/23/1
f 493/20/1 494/21/1 495/22/1 496/23/1
f 497/20/1 498/21/1 499/22/1 500/23/1
f 501/20/1 502/21/1 503/22/1 504/23/1
f 505/20/1 506/21/1 507/22/1 508/23/1
f 509/20/1 510/21/1 511/22/1 512/23/1
f 513/20/1 514/21/1 515/22/1 516/23/1
f 517/20/1 518/21/1 519/22/1 520/23/1
f 521/20/1 522/21/1 523/22/1 524/23/1
f 525/20/1 526/21/1 527/22/1 528/23/1
f 529/20/1 530/21/1 531/22/1 532/23/1
f 533/20/1 534/21/1 535/22/1 536/23/1
f 537/20/1 538/21/1 539/22/1 540/23/1
f 541/20/1 542/21/1 543/22/1 544/23/1
f 545/20/1 546/21/1 547/22/1 548/23/1
f 549/20/1 550/21/1 551/22/1 552/23/1
f 553/20/1 554/21/1 555/22/1 556/23/1
f 557/20/1 558/21/1 559/22/1 560/23/1
f 561/20/1 562/21/1 563/22/1 564/23/1
f 565/20/1 566/21/1 567/22/1 568/23/1
f 569/20/1 570/21/1 571/22/1 572/23/1
f 573/20/1 574/21/1 575/22/1 576/23/1
f 577/20/1 578/21/1 579/22/1 580/23/1
f 581/20/1 582/21/1 583/22/1 584/23/1
f 585/20/1 586/21/1 587/22/1 588/23/1
f 589/20/1 590/21/1 591/22/1 592/23/1
f 593/20/1 594/21/1 595/22/1 596/23/1
f 597/20/1 598/21/1 599/22/1 600/23/1
f 601/20/1 602/21/1 603/22/1 604/23/1
f 605/20/1 606/21/1 607/22/1 608/23/1
f 609/20/1 610/21/1 611/22/1 612/23/1
f 613/20/1 614/21/1 615/22/1 616/23/1
f 617/20/1 618/21/1 619/22/1 620/23/1
f 621/20/1 622/21/1 623/22/1 624/23/1
f 625/20/1 626/21/1 627/22/1 628/23/1
f 629/20/1 630/21/1 631/22/1 632/23/1
f 633/20/1 634/21/1 635/22/1 636/23/1
f 637/20/1 638/21/1 639/22/1 640/23/1
f 641/20/1 642/21/1 643/22/1 644/23/1
f 645/20/1 646/21/1 647/22/1 648/23/1
f 649/20/1 650/21/1 651/22/1 652/23/1
f 653/20/1 654/21/1 655/22/1 656/23/1
f 657/20/1 658/21/1 659/22/1 660/23/1
f 661/20/1 662/21/1 663/22/1 664/23/1
f 665/20/1 666/21/1 667/22/1 668/23/1
f 669/20/1 670/21/1 671/22/1 672/23/1
f 673/20/1 674/21/1 675/22/1 676/23/1
f 677/20/1 678/21/1 679/22/1 680/23/1
f 681/20/1 682/21/1 683/22/1 684/23/1
f 685/20/1 686/21/1 687/22/1 688/23/1
f 689/20/1 690/21/1 691/22/1 692/23/1
f 693/20/1 694/21/1 695/22/1 696/23/1
f 697/20/1 698/21/1 699/22/1 700/23/1
f 701/20/1 702/21/1 703/22/1 704/23/1
f 705/20/1 706/21/1 707/22/1 708/23/1
f 709/20/1 710/21/1 711/22/1 712/23/1
f 713/20/1 714/21/1 715/22/1 716/23/1
f 717/20/1 718/21/1 719/22/1 720/23/1
f 721/20/1 722/21/1 723/22/1 724/23/1
f 725/20/1 726/21/1 727/22/1 728/23/1
f 729/20/1 730/21/1 731/22/1 732/23/1
f 733/20/1 734/21/1 735/22/1 736/23/1
f 737/20/1 738/21/1 739/22/1 740/23/1
f 741/20/1 742/21/1 743/22/1 744/23/1
f 745/20/1 746/21/1 747/22/1 748/23/1
f 749/20/1 750/21/1 751/22/1 752/23/1
f 753/20/1 754/21/1 755/22/1 756/23/1
f 757/20/1 758/21/1 759/22/1 760/23/1
f 761/20/1 762/21/1 763/22/1 764/23/1
f 765/20/1 766/21/1 767/22/1 768/23/1
f 769/20/1 770/21/1 771/22/1 772/23/1
f 773/20/1 774/21/1 775/22/1 776/23/1
f 777/20/1 778/21/1 779/22/1 780/23/1
f 781/20/1 782/21/1 783/22/1 784/23/1
f 785/20/1 786/21/1 787/22/1 788/23/1
f 789/20/1 790/21/1 791/22/1 792/23/1
f 793/20/1 794/21/1 795/22/1 796/23/1
f 797/20/1 798/21/1 799/22/1 800/23/1
f 801/20/1 802/21/1 803/22/1 804/23/1
f 805/20/1 806/21/1 807/22/1 808/23/1
f 809/20/1 810/21/1 811/22/1 812/23/1
f 813/20/1 814/21/1 815/22/1 816/23/1
f 817/20/1 818/21/1 819/22/1 820/23/1
f 821/20/1 822/21/1 823/22/1 824/23/1
f 825/20/1 826/21/1 827/22/1 828/23/1
f 829/20/1 830/21/1 831/22/1 832/23/1
f 833/20/1 834/21/1 835/22/1 836/23/1
f 837/20/1 838/21/1 839/22/1 840/23/1
f 841/20/1 842/21/1 843/22/1 844/23/1
f 845/20/1 846/21/1 847/22/1 848/23/1
f 849/20/1 850/21/1 851/22/1 852/23/1
f 853/20/1 854/21/1 855/22/1 856/23/1
f 857/20/1 858/21/1 859/22/1 860/23/1
f 861/20/1 862/21/1 863/22/1 864/23/1
f 865/20/1 866/21/1 867/22/1 868/23/1
f 869/20/1 870/21/1 871/22/1 872/23/1
f 873/20/1 874/21/1 875/22/1 876/23/1
f 877/20/1 878/21/1 879/22/1 880/23/1
f 881/20/1 882/21/1 883/22/1 884/23/1
f 885/20/1 886/21/1 887/22/1 888/23/1
f 889/20/1 890/21/1 891/22/1 892/23/1
f 893/20/1 894/21/1 895/22/1 896/23/1
f 897/20/1 898/21/1 899/22/1 900/23/1
f 901/20/1 902/21/1 903/22/1 904/23/1
f 905/20/1 906/21/1 907/22/1 908/23/1
f 909/20/1 910/21/1 911/22/1 912/23/1
f 913/20/1 914/21/1 915/22/1 916/23/1
f 917/20/1 918/21/1 919/22/1 920/23/1
f 921/20/1 922/21/1 923/22/1 924/23/1
f 925/20/1 926/21/1 927/22/1 928/23/1
f 929/20/1 930/21/1 931/22/1 932/23/1
f 933/20/1 934/21/1 935/22/1 936/23/1
f 937/20/1 938/21/1 939/22/1 940/23/1
f 941/20/1 942/21/1 943/22/1 944/23/1
f 945/20/1 946/21/1 947/22/1 948/23/1
f 949/20/1 950/21/1 951/22/1 952/23/1
f 953/20/1 954/21/1 955/22/1 956/23/1
f 957/20/1 958/21/1 959/22/1 960/23/1
f 961/20/1 962/21/1 963/22/1 964/23/1
f 965/20/1 966/21/1 967/22/1 968/23/1
f 969/20/1 970/21/1 971/22/1 972/23/1
f 973/20/1 974/21/1 975/22/1 976/23/1
f 977/20/1 978/21/1 979/22/1 980/23/1
f 981/20/1 982/21/1 983/22/1 984/23/1
f 985/20/1 986/21/1 987/22/1 988/23/1
f 989/20/1 990/21/1 991/22/1 992/23/1
f 993/20/1 994/21/1 995/22/1 996/23/1
f 997/20/1 998/21/1 999/22/1 1000/23/1
f 1001/20/1 1002/21/1 1003/22/1 1004/23/1
f 1005/20/1 1006/21/1 1007/22/1 1008/23/1
f 1009/20/1 1010/21/1 1011/22/1 1012/23/1
f 1013/20/1 1014/21/1 1015/22/1 1016/23/1
f 1017/20/1 1018/21/1 1019/22/1 1020/23/1
f 1021/20/1 1022/21/1 1023/22/1 1024/23/1

