# Tiled2Unity generated file. Do not modify by hand.
# Wavefront file for 'Plage32_mesh_0060.obj'

# Vertices (Count = 12)
v -256 -416 0
v -272 -416 0
v -272 -400 0
v -256 -400 0
v -256 -448 0
v -272 -448 0
v -272 -432 0
v -256 -432 0
v -256 -480 0
v -272 -480 0
v -272 -464 0
v -256 -464 0

# Texture cooridinates (Count = 4)
vt 0.175 0.6111111
vt 0.2 0.6111111
vt 0.2 0.6388889
vt 0.175 0.6388889

# Normal
vn 0 0 -1

# Mesh description
g Plage32_mesh_0060

# Faces
f 1/1/1 2/2/1 3/3/1 4/4/1
f 5/1/1 6/2/1 7/3/1 8/4/1
f 9/1/1 10/2/1 11/3/1 12/4/1

