# Tiled2Unity generated file. Do not modify by hand.
# Wavefront file for 'Plage32_mesh_0065.obj'

# Vertices (Count = 92)
v -256 -32 0
v -288 -32 0
v -288 0 0
v -256 0 0
v -224 -32 0
v -256 -32 0
v -256 0 0
v -224 0 0
v -224 -64 0
v -256 -64 0
v -256 -32 0
v -224 -32 0
v -256 -96 0
v -288 -96 0
v -288 -64 0
v -256 -64 0
v -256 -128 0
v -288 -128 0
v -288 -96 0
v -256 -96 0
v -224 -128 0
v -256 -128 0
v -256 -96 0
v -224 -96 0
v -256 -160 0
v -288 -160 0
v -288 -128 0
v -256 -128 0
v -224 -160 0
v -256 -160 0
v -256 -128 0
v -224 -128 0
v -256 -192 0
v -288 -192 0
v -288 -160 0
v -256 -160 0
v -224 -192 0
v -256 -192 0
v -256 -160 0
v -224 -160 0
v -224 -224 0
v -256 -224 0
v -256 -192 0
v -224 -192 0
v -192 -224 0
v -224 -224 0
v -224 -192 0
v -192 -192 0
v -192 -256 0
v -224 -256 0
v -224 -224 0
v -192 -224 0
v -256 -288 0
v -288 -288 0
v -288 -256 0
v -256 -256 0
v -224 -288 0
v -256 -288 0
v -256 -256 0
v -224 -256 0
v -256 -352 0
v -288 -352 0
v -288 -320 0
v -256 -320 0
v -224 -384 0
v -256 -384 0
v -256 -352 0
v -224 -352 0
v -288 -416 0
v -320 -416 0
v -320 -384 0
v -288 -384 0
v -352 -448 0
v -384 -448 0
v -384 -416 0
v -352 -416 0
v -320 -448 0
v -352 -448 0
v -352 -416 0
v -320 -416 0
v -256 -448 0
v -288 -448 0
v -288 -416 0
v -256 -416 0
v -224 -448 0
v -256 -448 0
v -256 -416 0
v -224 -416 0
v -288 -512 0
v -320 -512 0
v -320 -480 0
v -288 -480 0

# Texture cooridinates (Count = 14)
vt 0 0.03174603
vt 0.03125 0.03174603
vt 0.03125 0.04761904
vt 0 0.04761904
vt 0.03125 0.06349206
vt 0 0.06349206
vt 0.125 0.4126984
vt 0.15625 0.4126984
vt 0.15625 0.4285714
vt 0.125 0.4285714
vt 0.1875 0.4285714
vt 0.21875 0.4285714
vt 0.21875 0.4444444
vt 0.1875 0.4444444

# Normal
vn 0 0 -1

# Mesh description
g Plage32_mesh_0065

# Faces
f 1/1/1 2/2/1 3/3/1 4/4/1
f 5/4/1 6/3/1 7/5/1 8/6/1
f 9/1/1 10/2/1 11/3/1 12/4/1
f 13/4/1 14/3/1 15/5/1 16/6/1
f 17/1/1 18/2/1 19/3/1 20/4/1
f 21/4/1 22/3/1 23/5/1 24/6/1
f 25/4/1 26/3/1 27/5/1 28/6/1
f 29/1/1 30/2/1 31/3/1 32/4/1
f 33/1/1 34/2/1 35/3/1 36/4/1
f 37/4/1 38/3/1 39/5/1 40/6/1
f 41/1/1 42/2/1 43/3/1 44/4/1
f 45/4/1 46/3/1 47/5/1 48/6/1
f 49/1/1 50/2/1 51/3/1 52/4/1
f 53/7/1 54/8/1 55/9/1 56/10/1
f 57/7/1 58/8/1 59/9/1 60/10/1
f 61/7/1 62/8/1 63/9/1 64/10/1
f 65/7/1 66/8/1 67/9/1 68/10/1
f 69/7/1 70/8/1 71/9/1 72/10/1
f 73/7/1 74/8/1 75/9/1 76/10/1
f 77/7/1 78/8/1 79/9/1 80/10/1
f 81/7/1 82/8/1 83/9/1 84/10/1
f 85/11/1 86/12/1 87/13/1 88/14/1
f 89/7/1 90/8/1 91/9/1 92/10/1

