# Tiled2Unity generated file. Do not modify by hand.
# Wavefront file for 'Plage32_mesh_0007.obj'

# Vertices (Count = 1024)
v -480 -32 0
v -512 -32 0
v -512 0 0
v -480 0 0
v -448 -32 0
v -480 -32 0
v -480 0 0
v -448 0 0
v -416 -32 0
v -448 -32 0
v -448 0 0
v -416 0 0
v -384 -32 0
v -416 -32 0
v -416 0 0
v -384 0 0
v -352 -32 0
v -384 -32 0
v -384 0 0
v -352 0 0
v -320 -32 0
v -352 -32 0
v -352 0 0
v -320 0 0
v -288 -32 0
v -320 -32 0
v -320 0 0
v -288 0 0
v -256 -32 0
v -288 -32 0
v -288 0 0
v -256 0 0
v -224 -32 0
v -256 -32 0
v -256 0 0
v -224 0 0
v -192 -32 0
v -224 -32 0
v -224 0 0
v -192 0 0
v -160 -32 0
v -192 -32 0
v -192 0 0
v -160 0 0
v -128 -32 0
v -160 -32 0
v -160 0 0
v -128 0 0
v -96 -32 0
v -128 -32 0
v -128 0 0
v -96 0 0
v -64 -32 0
v -96 -32 0
v -96 0 0
v -64 0 0
v -32 -32 0
v -64 -32 0
v -64 0 0
v -32 0 0
v 0 -32 0
v -32 -32 0
v -32 0 0
v 0 0 0
v -480 -64 0
v -512 -64 0
v -512 -32 0
v -480 -32 0
v -448 -64 0
v -480 -64 0
v -480 -32 0
v -448 -32 0
v -416 -64 0
v -448 -64 0
v -448 -32 0
v -416 -32 0
v -384 -64 0
v -416 -64 0
v -416 -32 0
v -384 -32 0
v -352 -64 0
v -384 -64 0
v -384 -32 0
v -352 -32 0
v -320 -64 0
v -352 -64 0
v -352 -32 0
v -320 -32 0
v -288 -64 0
v -320 -64 0
v -320 -32 0
v -288 -32 0
v -256 -64 0
v -288 -64 0
v -288 -32 0
v -256 -32 0
v -224 -64 0
v -256 -64 0
v -256 -32 0
v -224 -32 0
v -192 -64 0
v -224 -64 0
v -224 -32 0
v -192 -32 0
v -160 -64 0
v -192 -64 0
v -192 -32 0
v -160 -32 0
v -128 -64 0
v -160 -64 0
v -160 -32 0
v -128 -32 0
v -96 -64 0
v -128 -64 0
v -128 -32 0
v -96 -32 0
v -64 -64 0
v -96 -64 0
v -96 -32 0
v -64 -32 0
v -32 -64 0
v -64 -64 0
v -64 -32 0
v -32 -32 0
v 0 -64 0
v -32 -64 0
v -32 -32 0
v 0 -32 0
v -480 -96 0
v -512 -96 0
v -512 -64 0
v -480 -64 0
v -448 -96 0
v -480 -96 0
v -480 -64 0
v -448 -64 0
v -416 -96 0
v -448 -96 0
v -448 -64 0
v -416 -64 0
v -384 -96 0
v -416 -96 0
v -416 -64 0
v -384 -64 0
v -352 -96 0
v -384 -96 0
v -384 -64 0
v -352 -64 0
v -320 -96 0
v -352 -96 0
v -352 -64 0
v -320 -64 0
v -288 -96 0
v -320 -96 0
v -320 -64 0
v -288 -64 0
v -256 -96 0
v -288 -96 0
v -288 -64 0
v -256 -64 0
v -224 -96 0
v -256 -96 0
v -256 -64 0
v -224 -64 0
v -192 -96 0
v -224 -96 0
v -224 -64 0
v -192 -64 0
v -160 -96 0
v -192 -96 0
v -192 -64 0
v -160 -64 0
v -128 -96 0
v -160 -96 0
v -160 -64 0
v -128 -64 0
v -96 -96 0
v -128 -96 0
v -128 -64 0
v -96 -64 0
v -64 -96 0
v -96 -96 0
v -96 -64 0
v -64 -64 0
v -32 -96 0
v -64 -96 0
v -64 -64 0
v -32 -64 0
v 0 -96 0
v -32 -96 0
v -32 -64 0
v 0 -64 0
v -480 -128 0
v -512 -128 0
v -512 -96 0
v -480 -96 0
v -448 -128 0
v -480 -128 0
v -480 -96 0
v -448 -96 0
v -416 -128 0
v -448 -128 0
v -448 -96 0
v -416 -96 0
v -384 -128 0
v -416 -128 0
v -416 -96 0
v -384 -96 0
v -352 -128 0
v -384 -128 0
v -384 -96 0
v -352 -96 0
v -320 -128 0
v -352 -128 0
v -352 -96 0
v -320 -96 0
v -288 -128 0
v -320 -128 0
v -320 -96 0
v -288 -96 0
v -256 -128 0
v -288 -128 0
v -288 -96 0
v -256 -96 0
v -224 -128 0
v -256 -128 0
v -256 -96 0
v -224 -96 0
v -192 -128 0
v -224 -128 0
v -224 -96 0
v -192 -96 0
v -160 -128 0
v -192 -128 0
v -192 -96 0
v -160 -96 0
v -128 -128 0
v -160 -128 0
v -160 -96 0
v -128 -96 0
v -96 -128 0
v -128 -128 0
v -128 -96 0
v -96 -96 0
v -64 -128 0
v -96 -128 0
v -96 -96 0
v -64 -96 0
v -32 -128 0
v -64 -128 0
v -64 -96 0
v -32 -96 0
v 0 -128 0
v -32 -128 0
v -32 -96 0
v 0 -96 0
v -480 -160 0
v -512 -160 0
v -512 -128 0
v -480 -128 0
v -448 -160 0
v -480 -160 0
v -480 -128 0
v -448 -128 0
v -416 -160 0
v -448 -160 0
v -448 -128 0
v -416 -128 0
v -384 -160 0
v -416 -160 0
v -416 -128 0
v -384 -128 0
v -352 -160 0
v -384 -160 0
v -384 -128 0
v -352 -128 0
v -320 -160 0
v -352 -160 0
v -352 -128 0
v -320 -128 0
v -288 -160 0
v -320 -160 0
v -320 -128 0
v -288 -128 0
v -256 -160 0
v -288 -160 0
v -288 -128 0
v -256 -128 0
v -224 -160 0
v -256 -160 0
v -256 -128 0
v -224 -128 0
v -192 -160 0
v -224 -160 0
v -224 -128 0
v -192 -128 0
v -160 -160 0
v -192 -160 0
v -192 -128 0
v -160 -128 0
v -128 -160 0
v -160 -160 0
v -160 -128 0
v -128 -128 0
v -96 -160 0
v -128 -160 0
v -128 -128 0
v -96 -128 0
v -64 -160 0
v -96 -160 0
v -96 -128 0
v -64 -128 0
v -32 -160 0
v -64 -160 0
v -64 -128 0
v -32 -128 0
v 0 -160 0
v -32 -160 0
v -32 -128 0
v 0 -128 0
v -480 -192 0
v -512 -192 0
v -512 -160 0
v -480 -160 0
v -448 -192 0
v -480 -192 0
v -480 -160 0
v -448 -160 0
v -416 -192 0
v -448 -192 0
v -448 -160 0
v -416 -160 0
v -384 -192 0
v -416 -192 0
v -416 -160 0
v -384 -160 0
v -352 -192 0
v -384 -192 0
v -384 -160 0
v -352 -160 0
v -320 -192 0
v -352 -192 0
v -352 -160 0
v -320 -160 0
v -288 -192 0
v -320 -192 0
v -320 -160 0
v -288 -160 0
v -256 -192 0
v -288 -192 0
v -288 -160 0
v -256 -160 0
v -224 -192 0
v -256 -192 0
v -256 -160 0
v -224 -160 0
v -192 -192 0
v -224 -192 0
v -224 -160 0
v -192 -160 0
v -160 -192 0
v -192 -192 0
v -192 -160 0
v -160 -160 0
v -128 -192 0
v -160 -192 0
v -160 -160 0
v -128 -160 0
v -96 -192 0
v -128 -192 0
v -128 -160 0
v -96 -160 0
v -64 -192 0
v -96 -192 0
v -96 -160 0
v -64 -160 0
v -32 -192 0
v -64 -192 0
v -64 -160 0
v -32 -160 0
v 0 -192 0
v -32 -192 0
v -32 -160 0
v 0 -160 0
v -480 -224 0
v -512 -224 0
v -512 -192 0
v -480 -192 0
v -448 -224 0
v -480 -224 0
v -480 -192 0
v -448 -192 0
v -416 -224 0
v -448 -224 0
v -448 -192 0
v -416 -192 0
v -384 -224 0
v -416 -224 0
v -416 -192 0
v -384 -192 0
v -352 -224 0
v -384 -224 0
v -384 -192 0
v -352 -192 0
v -320 -224 0
v -352 -224 0
v -352 -192 0
v -320 -192 0
v -288 -224 0
v -320 -224 0
v -320 -192 0
v -288 -192 0
v -256 -224 0
v -288 -224 0
v -288 -192 0
v -256 -192 0
v -224 -224 0
v -256 -224 0
v -256 -192 0
v -224 -192 0
v -192 -224 0
v -224 -224 0
v -224 -192 0
v -192 -192 0
v -160 -224 0
v -192 -224 0
v -192 -192 0
v -160 -192 0
v -128 -224 0
v -160 -224 0
v -160 -192 0
v -128 -192 0
v -96 -224 0
v -128 -224 0
v -128 -192 0
v -96 -192 0
v -64 -224 0
v -96 -224 0
v -96 -192 0
v -64 -192 0
v -32 -224 0
v -64 -224 0
v -64 -192 0
v -32 -192 0
v 0 -224 0
v -32 -224 0
v -32 -192 0
v 0 -192 0
v -480 -256 0
v -512 -256 0
v -512 -224 0
v -480 -224 0
v -448 -256 0
v -480 -256 0
v -480 -224 0
v -448 -224 0
v -416 -256 0
v -448 -256 0
v -448 -224 0
v -416 -224 0
v -384 -256 0
v -416 -256 0
v -416 -224 0
v -384 -224 0
v -352 -256 0
v -384 -256 0
v -384 -224 0
v -352 -224 0
v -320 -256 0
v -352 -256 0
v -352 -224 0
v -320 -224 0
v -288 -256 0
v -320 -256 0
v -320 -224 0
v -288 -224 0
v -256 -256 0
v -288 -256 0
v -288 -224 0
v -256 -224 0
v -224 -256 0
v -256 -256 0
v -256 -224 0
v -224 -224 0
v -192 -256 0
v -224 -256 0
v -224 -224 0
v -192 -224 0
v -160 -256 0
v -192 -256 0
v -192 -224 0
v -160 -224 0
v -128 -256 0
v -160 -256 0
v -160 -224 0
v -128 -224 0
v -96 -256 0
v -128 -256 0
v -128 -224 0
v -96 -224 0
v -64 -256 0
v -96 -256 0
v -96 -224 0
v -64 -224 0
v -32 -256 0
v -64 -256 0
v -64 -224 0
v -32 -224 0
v 0 -256 0
v -32 -256 0
v -32 -224 0
v 0 -224 0
v -480 -288 0
v -512 -288 0
v -512 -256 0
v -480 -256 0
v -448 -288 0
v -480 -288 0
v -480 -256 0
v -448 -256 0
v -416 -288 0
v -448 -288 0
v -448 -256 0
v -416 -256 0
v -384 -288 0
v -416 -288 0
v -416 -256 0
v -384 -256 0
v -352 -288 0
v -384 -288 0
v -384 -256 0
v -352 -256 0
v -320 -288 0
v -352 -288 0
v -352 -256 0
v -320 -256 0
v -288 -288 0
v -320 -288 0
v -320 -256 0
v -288 -256 0
v -256 -288 0
v -288 -288 0
v -288 -256 0
v -256 -256 0
v -224 -288 0
v -256 -288 0
v -256 -256 0
v -224 -256 0
v -192 -288 0
v -224 -288 0
v -224 -256 0
v -192 -256 0
v -160 -288 0
v -192 -288 0
v -192 -256 0
v -160 -256 0
v -128 -288 0
v -160 -288 0
v -160 -256 0
v -128 -256 0
v -96 -288 0
v -128 -288 0
v -128 -256 0
v -96 -256 0
v -64 -288 0
v -96 -288 0
v -96 -256 0
v -64 -256 0
v -32 -288 0
v -64 -288 0
v -64 -256 0
v -32 -256 0
v 0 -288 0
v -32 -288 0
v -32 -256 0
v 0 -256 0
v -480 -320 0
v -512 -320 0
v -512 -288 0
v -480 -288 0
v -448 -320 0
v -480 -320 0
v -480 -288 0
v -448 -288 0
v -416 -320 0
v -448 -320 0
v -448 -288 0
v -416 -288 0
v -384 -320 0
v -416 -320 0
v -416 -288 0
v -384 -288 0
v -352 -320 0
v -384 -320 0
v -384 -288 0
v -352 -288 0
v -320 -320 0
v -352 -320 0
v -352 -288 0
v -320 -288 0
v -288 -320 0
v -320 -320 0
v -320 -288 0
v -288 -288 0
v -256 -320 0
v -288 -320 0
v -288 -288 0
v -256 -288 0
v -224 -320 0
v -256 -320 0
v -256 -288 0
v -224 -288 0
v -192 -320 0
v -224 -320 0
v -224 -288 0
v -192 -288 0
v -160 -320 0
v -192 -320 0
v -192 -288 0
v -160 -288 0
v -128 -320 0
v -160 -320 0
v -160 -288 0
v -128 -288 0
v -96 -320 0
v -128 -320 0
v -128 -288 0
v -96 -288 0
v -64 -320 0
v -96 -320 0
v -96 -288 0
v -64 -288 0
v -32 -320 0
v -64 -320 0
v -64 -288 0
v -32 -288 0
v 0 -320 0
v -32 -320 0
v -32 -288 0
v 0 -288 0
v -480 -352 0
v -512 -352 0
v -512 -320 0
v -480 -320 0
v -448 -352 0
v -480 -352 0
v -480 -320 0
v -448 -320 0
v -416 -352 0
v -448 -352 0
v -448 -320 0
v -416 -320 0
v -384 -352 0
v -416 -352 0
v -416 -320 0
v -384 -320 0
v -352 -352 0
v -384 -352 0
v -384 -320 0
v -352 -320 0
v -320 -352 0
v -352 -352 0
v -352 -320 0
v -320 -320 0
v -288 -352 0
v -320 -352 0
v -320 -320 0
v -288 -320 0
v -256 -352 0
v -288 -352 0
v -288 -320 0
v -256 -320 0
v -224 -352 0
v -256 -352 0
v -256 -320 0
v -224 -320 0
v -192 -352 0
v -224 -352 0
v -224 -320 0
v -192 -320 0
v -160 -352 0
v -192 -352 0
v -192 -320 0
v -160 -320 0
v -128 -352 0
v -160 -352 0
v -160 -320 0
v -128 -320 0
v -96 -352 0
v -128 -352 0
v -128 -320 0
v -96 -320 0
v -64 -352 0
v -96 -352 0
v -96 -320 0
v -64 -320 0
v -32 -352 0
v -64 -352 0
v -64 -320 0
v -32 -320 0
v 0 -352 0
v -32 -352 0
v -32 -320 0
v 0 -320 0
v -480 -384 0
v -512 -384 0
v -512 -352 0
v -480 -352 0
v -448 -384 0
v -480 -384 0
v -480 -352 0
v -448 -352 0
v -416 -384 0
v -448 -384 0
v -448 -352 0
v -416 -352 0
v -384 -384 0
v -416 -384 0
v -416 -352 0
v -384 -352 0
v -352 -384 0
v -384 -384 0
v -384 -352 0
v -352 -352 0
v -320 -384 0
v -352 -384 0
v -352 -352 0
v -320 -352 0
v -288 -384 0
v -320 -384 0
v -320 -352 0
v -288 -352 0
v -256 -384 0
v -288 -384 0
v -288 -352 0
v -256 -352 0
v -224 -384 0
v -256 -384 0
v -256 -352 0
v -224 -352 0
v -192 -384 0
v -224 -384 0
v -224 -352 0
v -192 -352 0
v -160 -384 0
v -192 -384 0
v -192 -352 0
v -160 -352 0
v -128 -384 0
v -160 -384 0
v -160 -352 0
v -128 -352 0
v -96 -384 0
v -128 -384 0
v -128 -352 0
v -96 -352 0
v -64 -384 0
v -96 -384 0
v -96 -352 0
v -64 -352 0
v -32 -384 0
v -64 -384 0
v -64 -352 0
v -32 -352 0
v 0 -384 0
v -32 -384 0
v -32 -352 0
v 0 -352 0
v -480 -416 0
v -512 -416 0
v -512 -384 0
v -480 -384 0
v -448 -416 0
v -480 -416 0
v -480 -384 0
v -448 -384 0
v -416 -416 0
v -448 -416 0
v -448 -384 0
v -416 -384 0
v -384 -416 0
v -416 -416 0
v -416 -384 0
v -384 -384 0
v -352 -416 0
v -384 -416 0
v -384 -384 0
v -352 -384 0
v -320 -416 0
v -352 -416 0
v -352 -384 0
v -320 -384 0
v -288 -416 0
v -320 -416 0
v -320 -384 0
v -288 -384 0
v -256 -416 0
v -288 -416 0
v -288 -384 0
v -256 -384 0
v -224 -416 0
v -256 -416 0
v -256 -384 0
v -224 -384 0
v -192 -416 0
v -224 -416 0
v -224 -384 0
v -192 -384 0
v -160 -416 0
v -192 -416 0
v -192 -384 0
v -160 -384 0
v -128 -416 0
v -160 -416 0
v -160 -384 0
v -128 -384 0
v -96 -416 0
v -128 -416 0
v -128 -384 0
v -96 -384 0
v -64 -416 0
v -96 -416 0
v -96 -384 0
v -64 -384 0
v -32 -416 0
v -64 -416 0
v -64 -384 0
v -32 -384 0
v 0 -416 0
v -32 -416 0
v -32 -384 0
v 0 -384 0
v -480 -448 0
v -512 -448 0
v -512 -416 0
v -480 -416 0
v -448 -448 0
v -480 -448 0
v -480 -416 0
v -448 -416 0
v -416 -448 0
v -448 -448 0
v -448 -416 0
v -416 -416 0
v -384 -448 0
v -416 -448 0
v -416 -416 0
v -384 -416 0
v -352 -448 0
v -384 -448 0
v -384 -416 0
v -352 -416 0
v -320 -448 0
v -352 -448 0
v -352 -416 0
v -320 -416 0
v -288 -448 0
v -320 -448 0
v -320 -416 0
v -288 -416 0
v -256 -448 0
v -288 -448 0
v -288 -416 0
v -256 -416 0
v -224 -448 0
v -256 -448 0
v -256 -416 0
v -224 -416 0
v -192 -448 0
v -224 -448 0
v -224 -416 0
v -192 -416 0
v -160 -448 0
v -192 -448 0
v -192 -416 0
v -160 -416 0
v -128 -448 0
v -160 -448 0
v -160 -416 0
v -128 -416 0
v -96 -448 0
v -128 -448 0
v -128 -416 0
v -96 -416 0
v -64 -448 0
v -96 -448 0
v -96 -416 0
v -64 -416 0
v -32 -448 0
v -64 -448 0
v -64 -416 0
v -32 -416 0
v 0 -448 0
v -32 -448 0
v -32 -416 0
v 0 -416 0
v -480 -480 0
v -512 -480 0
v -512 -448 0
v -480 -448 0
v -448 -480 0
v -480 -480 0
v -480 -448 0
v -448 -448 0
v -416 -480 0
v -448 -480 0
v -448 -448 0
v -416 -448 0
v -384 -480 0
v -416 -480 0
v -416 -448 0
v -384 -448 0
v -352 -480 0
v -384 -480 0
v -384 -448 0
v -352 -448 0
v -320 -480 0
v -352 -480 0
v -352 -448 0
v -320 -448 0
v -288 -480 0
v -320 -480 0
v -320 -448 0
v -288 -448 0
v -256 -480 0
v -288 -480 0
v -288 -448 0
v -256 -448 0
v -224 -480 0
v -256 -480 0
v -256 -448 0
v -224 -448 0
v -192 -480 0
v -224 -480 0
v -224 -448 0
v -192 -448 0
v -160 -480 0
v -192 -480 0
v -192 -448 0
v -160 -448 0
v -128 -480 0
v -160 -480 0
v -160 -448 0
v -128 -448 0
v -96 -480 0
v -128 -480 0
v -128 -448 0
v -96 -448 0
v -64 -480 0
v -96 -480 0
v -96 -448 0
v -64 -448 0
v -32 -480 0
v -64 -480 0
v -64 -448 0
v -32 -448 0
v 0 -480 0
v -32 -480 0
v -32 -448 0
v 0 -448 0
v -480 -512 0
v -512 -512 0
v -512 -480 0
v -480 -480 0
v -448 -512 0
v -480 -512 0
v -480 -480 0
v -448 -480 0
v -416 -512 0
v -448 -512 0
v -448 -480 0
v -416 -480 0
v -384 -512 0
v -416 -512 0
v -416 -480 0
v -384 -480 0
v -352 -512 0
v -384 -512 0
v -384 -480 0
v -352 -480 0
v -320 -512 0
v -352 -512 0
v -352 -480 0
v -320 -480 0
v -288 -512 0
v -320 -512 0
v -320 -480 0
v -288 -480 0
v -256 -512 0
v -288 -512 0
v -288 -480 0
v -256 -480 0
v -224 -512 0
v -256 -512 0
v -256 -480 0
v -224 -480 0
v -192 -512 0
v -224 -512 0
v -224 -480 0
v -192 -480 0
v -160 -512 0
v -192 -512 0
v -192 -480 0
v -160 -480 0
v -128 -512 0
v -160 -512 0
v -160 -480 0
v -128 -480 0
v -96 -512 0
v -128 -512 0
v -128 -480 0
v -96 -480 0
v -64 -512 0
v -96 -512 0
v -96 -480 0
v -64 -480 0
v -32 -512 0
v -64 -512 0
v -64 -480 0
v -32 -480 0
v 0 -512 0
v -32 -512 0
v -32 -480 0
v 0 -480 0

# Texture cooridinates (Count = 12)
vt 0.03125 0.53125
vt 0.0625 0.53125
vt 0.0625 0.5625
vt 0.03125 0.5625
vt 0 0.53125
vt 0 0.5625
vt 0.125 0.59375
vt 0.15625 0.59375
vt 0.15625 0.625
vt 0.125 0.625
vt 0.09375 0.53125
vt 0.09375 0.5625

# Normal
vn 0 0 -1

# Mesh description
g Plage32_mesh_0007

# Faces
f 1/1/1 2/2/1 3/3/1 4/4/1
f 5/5/1 6/1/1 7/4/1 8/6/1
f 9/7/1 10/8/1 11/9/1 12/10/1
f 13/1/1 14/2/1 15/3/1 16/4/1
f 17/1/1 18/2/1 19/3/1 20/4/1
f 21/2/1 22/11/1 23/12/1 24/3/1
f 25/1/1 26/2/1 27/3/1 28/4/1
f 29/7/1 30/8/1 31/9/1 32/10/1
f 33/2/1 34/11/1 35/12/1 36/3/1
f 37/5/1 38/1/1 39/4/1 40/6/1
f 41/7/1 42/8/1 43/9/1 44/10/1
f 45/2/1 46/11/1 47/12/1 48/3/1
f 49/2/1 50/11/1 51/12/1 52/3/1
f 53/7/1 54/8/1 55/9/1 56/10/1
f 57/7/1 58/8/1 59/9/1 60/10/1
f 61/2/1 62/11/1 63/12/1 64/3/1
f 65/1/1 66/2/1 67/3/1 68/4/1
f 69/2/1 70/11/1 71/12/1 72/3/1
f 73/1/1 74/2/1 75/3/1 76/4/1
f 77/1/1 78/2/1 79/3/1 80/4/1
f 81/7/1 82/8/1 83/9/1 84/10/1
f 85/2/1 86/11/1 87/12/1 88/3/1
f 89/2/1 90/11/1 91/12/1 92/3/1
f 93/1/1 94/2/1 95/3/1 96/4/1
f 97/1/1 98/2/1 99/3/1 100/4/1
f 101/1/1 102/2/1 103/3/1 104/4/1
f 105/5/1 106/1/1 107/4/1 108/6/1
f 109/1/1 110/2/1 111/3/1 112/4/1
f 113/2/1 114/11/1 115/12/1 116/3/1
f 117/2/1 118/11/1 119/12/1 120/3/1
f 121/1/1 122/2/1 123/3/1 124/4/1
f 125/2/1 126/11/1 127/12/1 128/3/1
f 129/2/1 130/11/1 131/12/1 132/3/1
f 133/7/1 134/8/1 135/9/1 136/10/1
f 137/5/1 138/1/1 139/4/1 140/6/1
f 141/5/1 142/1/1 143/4/1 144/6/1
f 145/1/1 146/2/1 147/3/1 148/4/1
f 149/2/1 150/11/1 151/12/1 152/3/1
f 153/5/1 154/1/1 155/4/1 156/6/1
f 157/7/1 158/8/1 159/9/1 160/10/1
f 161/2/1 162/11/1 163/12/1 164/3/1
f 165/5/1 166/1/1 167/4/1 168/6/1
f 169/5/1 170/1/1 171/4/1 172/6/1
f 173/1/1 174/2/1 175/3/1 176/4/1
f 177/5/1 178/1/1 179/4/1 180/6/1
f 181/5/1 182/1/1 183/4/1 184/6/1
f 185/2/1 186/11/1 187/12/1 188/3/1
f 189/7/1 190/8/1 191/9/1 192/10/1
f 193/2/1 194/11/1 195/12/1 196/3/1
f 197/1/1 198/2/1 199/3/1 200/4/1
f 201/7/1 202/8/1 203/9/1 204/10/1
f 205/5/1 206/1/1 207/4/1 208/6/1
f 209/1/1 210/2/1 211/3/1 212/4/1
f 213/1/1 214/2/1 215/3/1 216/4/1
f 217/5/1 218/1/1 219/4/1 220/6/1
f 221/2/1 222/11/1 223/12/1 224/3/1
f 225/2/1 226/11/1 227/12/1 228/3/1
f 229/5/1 230/1/1 231/4/1 232/6/1
f 233/7/1 234/8/1 235/9/1 236/10/1
f 237/5/1 238/1/1 239/4/1 240/6/1
f 241/7/1 242/8/1 243/9/1 244/10/1
f 245/2/1 246/11/1 247/12/1 248/3/1
f 249/1/1 250/2/1 251/3/1 252/4/1
f 253/1/1 254/2/1 255/3/1 256/4/1
f 257/7/1 258/8/1 259/9/1 260/10/1
f 261/2/1 262/11/1 263/12/1 264/3/1
f 265/1/1 266/2/1 267/3/1 268/4/1
f 269/7/1 270/8/1 271/9/1 272/10/1
f 273/5/1 274/1/1 275/4/1 276/6/1
f 277/2/1 278/11/1 279/12/1 280/3/1
f 281/2/1 282/11/1 283/12/1 284/3/1
f 285/7/1 286/8/1 287/9/1 288/10/1
f 289/7/1 290/8/1 291/9/1 292/10/1
f 293/7/1 294/8/1 295/9/1 296/10/1
f 297/1/1 298/2/1 299/3/1 300/4/1
f 301/5/1 302/1/1 303/4/1 304/6/1
f 305/5/1 306/1/1 307/4/1 308/6/1
f 309/5/1 310/1/1 311/4/1 312/6/1
f 313/7/1 314/8/1 315/9/1 316/10/1
f 317/5/1 318/1/1 319/4/1 320/6/1
f 321/2/1 322/11/1 323/12/1 324/3/1
f 325/2/1 326/11/1 327/12/1 328/3/1
f 329/7/1 330/8/1 331/9/1 332/10/1
f 333/1/1 334/2/1 335/3/1 336/4/1
f 337/1/1 338/2/1 339/3/1 340/4/1
f 341/7/1 342/8/1 343/9/1 344/10/1
f 345/1/1 346/2/1 347/3/1 348/4/1
f 349/7/1 350/8/1 351/9/1 352/10/1
f 353/5/1 354/1/1 355/4/1 356/6/1
f 357/1/1 358/2/1 359/3/1 360/4/1
f 361/5/1 362/1/1 363/4/1 364/6/1
f 365/5/1 366/1/1 367/4/1 368/6/1
f 369/2/1 370/11/1 371/12/1 372/3/1
f 373/1/1 374/2/1 375/3/1 376/4/1
f 377/2/1 378/11/1 379/12/1 380/3/1
f 381/2/1 382/11/1 383/12/1 384/3/1
f 385/1/1 386/2/1 387/3/1 388/4/1
f 389/5/1 390/1/1 391/4/1 392/6/1
f 393/2/1 394/11/1 395/12/1 396/3/1
f 397/1/1 398/2/1 399/3/1 400/4/1
f 401/1/1 402/2/1 403/3/1 404/4/1
f 405/1/1 406/2/1 407/3/1 408/4/1
f 409/1/1 410/2/1 411/3/1 412/4/1
f 413/7/1 414/8/1 415/9/1 416/10/1
f 417/7/1 418/8/1 419/9/1 420/10/1
f 421/2/1 422/11/1 423/12/1 424/3/1
f 425/5/1 426/1/1 427/4/1 428/6/1
f 429/1/1 430/2/1 431/3/1 432/4/1
f 433/7/1 434/8/1 435/9/1 436/10/1
f 437/5/1 438/1/1 439/4/1 440/6/1
f 441/1/1 442/2/1 443/3/1 444/4/1
f 445/5/1 446/1/1 447/4/1 448/6/1
f 449/5/1 450/1/1 451/4/1 452/6/1
f 453/2/1 454/11/1 455/12/1 456/3/1
f 457/1/1 458/2/1 459/3/1 460/4/1
f 461/1/1 462/2/1 463/3/1 464/4/1
f 465/5/1 466/1/1 467/4/1 468/6/1
f 469/1/1 470/2/1 471/3/1 472/4/1
f 473/2/1 474/11/1 475/12/1 476/3/1
f 477/1/1 478/2/1 479/3/1 480/4/1
f 481/2/1 482/11/1 483/12/1 484/3/1
f 485/1/1 486/2/1 487/3/1 488/4/1
f 489/7/1 490/8/1 491/9/1 492/10/1
f 493/5/1 494/1/1 495/4/1 496/6/1
f 497/5/1 498/1/1 499/4/1 500/6/1
f 501/2/1 502/11/1 503/12/1 504/3/1
f 505/2/1 506/11/1 507/12/1 508/3/1
f 509/2/1 510/11/1 511/12/1 512/3/1
f 513/7/1 514/8/1 515/9/1 516/10/1
f 517/7/1 518/8/1 519/9/1 520/10/1
f 521/7/1 522/8/1 523/9/1 524/10/1
f 525/7/1 526/8/1 527/9/1 528/10/1
f 529/2/1 530/11/1 531/12/1 532/3/1
f 533/5/1 534/1/1 535/4/1 536/6/1
f 537/7/1 538/8/1 539/9/1 540/10/1
f 541/7/1 542/8/1 543/9/1 544/10/1
f 545/1/1 546/2/1 547/3/1 548/4/1
f 549/7/1 550/8/1 551/9/1 552/10/1
f 553/2/1 554/11/1 555/12/1 556/3/1
f 557/5/1 558/1/1 559/4/1 560/6/1
f 561/7/1 562/8/1 563/9/1 564/10/1
f 565/7/1 566/8/1 567/9/1 568/10/1
f 569/2/1 570/11/1 571/12/1 572/3/1
f 573/1/1 574/2/1 575/3/1 576/4/1
f 577/5/1 578/1/1 579/4/1 580/6/1
f 581/2/1 582/11/1 583/12/1 584/3/1
f 585/7/1 586/8/1 587/9/1 588/10/1
f 589/2/1 590/11/1 591/12/1 592/3/1
f 593/2/1 594/11/1 595/12/1 596/3/1
f 597/5/1 598/1/1 599/4/1 600/6/1
f 601/2/1 602/11/1 603/12/1 604/3/1
f 605/2/1 606/11/1 607/12/1 608/3/1
f 609/5/1 610/1/1 611/4/1 612/6/1
f 613/2/1 614/11/1 615/12/1 616/3/1
f 617/2/1 618/11/1 619/12/1 620/3/1
f 621/7/1 622/8/1 623/9/1 624/10/1
f 625/2/1 626/11/1 627/12/1 628/3/1
f 629/2/1 630/11/1 631/12/1 632/3/1
f 633/5/1 634/1/1 635/4/1 636/6/1
f 637/5/1 638/1/1 639/4/1 640/6/1
f 641/5/1 642/1/1 643/4/1 644/6/1
f 645/1/1 646/2/1 647/3/1 648/4/1
f 649/7/1 650/8/1 651/9/1 652/10/1
f 653/5/1 654/1/1 655/4/1 656/6/1
f 657/7/1 658/8/1 659/9/1 660/10/1
f 661/2/1 662/11/1 663/12/1 664/3/1
f 665/2/1 666/11/1 667/12/1 668/3/1
f 669/7/1 670/8/1 671/9/1 672/10/1
f 673/2/1 674/11/1 675/12/1 676/3/1
f 677/7/1 678/8/1 679/9/1 680/10/1
f 681/5/1 682/1/1 683/4/1 684/6/1
f 685/1/1 686/2/1 687/3/1 688/4/1
f 689/5/1 690/1/1 691/4/1 692/6/1
f 693/2/1 694/11/1 695/12/1 696/3/1
f 697/5/1 698/1/1 699/4/1 700/6/1
f 701/2/1 702/11/1 703/12/1 704/3/1
f 705/5/1 706/1/1 707/4/1 708/6/1
f 709/2/1 710/11/1 711/12/1 712/3/1
f 713/1/1 714/2/1 715/3/1 716/4/1
f 717/5/1 718/1/1 719/4/1 720/6/1
f 721/5/1 722/1/1 723/4/1 724/6/1
f 725/7/1 726/8/1 727/9/1 728/10/1
f 729/5/1 730/1/1 731/4/1 732/6/1
f 733/5/1 734/1/1 735/4/1 736/6/1
f 737/1/1 738/2/1 739/3/1 740/4/1
f 741/2/1 742/11/1 743/12/1 744/3/1
f 745/5/1 746/1/1 747/4/1 748/6/1
f 749/7/1 750/8/1 751/9/1 752/10/1
f 753/5/1 754/1/1 755/4/1 756/6/1
f 757/2/1 758/11/1 759/12/1 760/3/1
f 761/7/1 762/8/1 763/9/1 764/10/1
f 765/7/1 766/8/1 767/9/1 768/10/1
f 769/2/1 770/11/1 771/12/1 772/3/1
f 773/5/1 774/1/1 775/4/1 776/6/1
f 777/1/1 778/2/1 779/3/1 780/4/1
f 781/2/1 782/11/1 783/12/1 784/3/1
f 785/1/1 786/2/1 787/3/1 788/4/1
f 789/1/1 790/2/1 791/3/1 792/4/1
f 793/5/1 794/1/1 795/4/1 796/6/1
f 797/2/1 798/11/1 799/12/1 800/3/1
f 801/7/1 802/8/1 803/9/1 804/10/1
f 805/7/1 806/8/1 807/9/1 808/10/1
f 809/5/1 810/1/1 811/4/1 812/6/1
f 813/2/1 814/11/1 815/12/1 816/3/1
f 817/5/1 818/1/1 819/4/1 820/6/1
f 821/7/1 822/8/1 823/9/1 824/10/1
f 825/5/1 826/1/1 827/4/1 828/6/1
f 829/7/1 830/8/1 831/9/1 832/10/1
f 833/1/1 834/2/1 835/3/1 836/4/1
f 837/1/1 838/2/1 839/3/1 840/4/1
f 841/1/1 842/2/1 843/3/1 844/4/1
f 845/5/1 846/1/1 847/4/1 848/6/1
f 849/2/1 850/11/1 851/12/1 852/3/1
f 853/7/1 854/8/1 855/9/1 856/10/1
f 857/5/1 858/1/1 859/4/1 860/6/1
f 861/5/1 862/1/1 863/4/1 864/6/1
f 865/5/1 866/1/1 867/4/1 868/6/1
f 869/5/1 870/1/1 871/4/1 872/6/1
f 873/1/1 874/2/1 875/3/1 876/4/1
f 877/7/1 878/8/1 879/9/1 880/10/1
f 881/5/1 882/1/1 883/4/1 884/6/1
f 885/5/1 886/1/1 887/4/1 888/6/1
f 889/7/1 890/8/1 891/9/1 892/10/1
f 893/7/1 894/8/1 895/9/1 896/10/1
f 897/1/1 898/2/1 899/3/1 900/4/1
f 901/2/1 902/11/1 903/12/1 904/3/1
f 905/2/1 906/11/1 907/12/1 908/3/1
f 909/2/1 910/11/1 911/12/1 912/3/1
f 913/5/1 914/1/1 915/4/1 916/6/1
f 917/2/1 918/11/1 919/12/1 920/3/1
f 921/5/1 922/1/1 923/4/1 924/6/1
f 925/1/1 926/2/1 927/3/1 928/4/1
f 929/5/1 930/1/1 931/4/1 932/6/1
f 933/2/1 934/11/1 935/12/1 936/3/1
f 937/5/1 938/1/1 939/4/1 940/6/1
f 941/5/1 942/1/1 943/4/1 944/6/1
f 945/5/1 946/1/1 947/4/1 948/6/1
f 949/5/1 950/1/1 951/4/1 952/6/1
f 953/7/1 954/8/1 955/9/1 956/10/1
f 957/5/1 958/1/1 959/4/1 960/6/1
f 961/7/1 962/8/1 963/9/1 964/10/1
f 965/2/1 966/11/1 967/12/1 968/3/1
f 969/5/1 970/1/1 971/4/1 972/6/1
f 973/5/1 974/1/1 975/4/1 976/6/1
f 977/2/1 978/11/1 979/12/1 980/3/1
f 981/1/1 982/2/1 983/3/1 984/4/1
f 985/1/1 986/2/1 987/3/1 988/4/1
f 989/7/1 990/8/1 991/9/1 992/10/1
f 993/5/1 994/1/1 995/4/1 996/6/1
f 997/5/1 998/1/1 999/4/1 1000/6/1
f 1001/2/1 1002/11/1 1003/12/1 1004/3/1
f 1005/7/1 1006/8/1 1007/9/1 1008/10/1
f 1009/1/1 1010/2/1 1011/3/1 1012/4/1
f 1013/5/1 1014/1/1 1015/4/1 1016/6/1
f 1017/5/1 1018/1/1 1019/4/1 1020/6/1
f 1021/7/1 1022/8/1 1023/9/1 1024/10/1

