# Tiled2Unity generated file. Do not modify by hand.
# Wavefront file for 'Plage32_mesh_0055.obj'

# Vertices (Count = 16)
v -288 -416 0
v -304 -416 0
v -304 -400 0
v -288 -400 0
v -288 -448 0
v -304 -448 0
v -304 -432 0
v -288 -432 0
v -288 -480 0
v -304 -480 0
v -304 -464 0
v -288 -464 0
v -288 -512 0
v -304 -512 0
v -304 -496 0
v -288 -496 0

# Texture cooridinates (Count = 8)
vt 0.175 0.5833334
vt 0.2 0.5833334
vt 0.2 0.6111111
vt 0.175 0.6111111
vt 0.2 0.6388889
vt 0.175 0.6388889
vt 0.175 0.5555556
vt 0.2 0.5555556

# Normal
vn 0 0 -1

# Mesh description
g Plage32_mesh_0055

# Faces
f 1/1/1 2/2/1 3/3/1 4/4/1
f 5/4/1 6/3/1 7/5/1 8/6/1
f 9/4/1 10/3/1 11/5/1 12/6/1
f 13/7/1 14/8/1 15/2/1 16/1/1

