# Tiled2Unity generated file. Do not modify by hand.
# Wavefront file for 'Plage32_mesh_0012.obj'

# Vertices (Count = 1024)
v -480 -32 0
v -512 -32 0
v -512 0 0
v -480 0 0
v -448 -32 0
v -480 -32 0
v -480 0 0
v -448 0 0
v -416 -32 0
v -448 -32 0
v -448 0 0
v -416 0 0
v -384 -32 0
v -416 -32 0
v -416 0 0
v -384 0 0
v -352 -32 0
v -384 -32 0
v -384 0 0
v -352 0 0
v -320 -32 0
v -352 -32 0
v -352 0 0
v -320 0 0
v -288 -32 0
v -320 -32 0
v -320 0 0
v -288 0 0
v -256 -32 0
v -288 -32 0
v -288 0 0
v -256 0 0
v -224 -32 0
v -256 -32 0
v -256 0 0
v -224 0 0
v -192 -32 0
v -224 -32 0
v -224 0 0
v -192 0 0
v -160 -32 0
v -192 -32 0
v -192 0 0
v -160 0 0
v -128 -32 0
v -160 -32 0
v -160 0 0
v -128 0 0
v -96 -32 0
v -128 -32 0
v -128 0 0
v -96 0 0
v -64 -32 0
v -96 -32 0
v -96 0 0
v -64 0 0
v -32 -32 0
v -64 -32 0
v -64 0 0
v -32 0 0
v 0 -32 0
v -32 -32 0
v -32 0 0
v 0 0 0
v -480 -64 0
v -512 -64 0
v -512 -32 0
v -480 -32 0
v -448 -64 0
v -480 -64 0
v -480 -32 0
v -448 -32 0
v -416 -64 0
v -448 -64 0
v -448 -32 0
v -416 -32 0
v -384 -64 0
v -416 -64 0
v -416 -32 0
v -384 -32 0
v -352 -64 0
v -384 -64 0
v -384 -32 0
v -352 -32 0
v -320 -64 0
v -352 -64 0
v -352 -32 0
v -320 -32 0
v -288 -64 0
v -320 -64 0
v -320 -32 0
v -288 -32 0
v -256 -64 0
v -288 -64 0
v -288 -32 0
v -256 -32 0
v -224 -64 0
v -256 -64 0
v -256 -32 0
v -224 -32 0
v -192 -64 0
v -224 -64 0
v -224 -32 0
v -192 -32 0
v -160 -64 0
v -192 -64 0
v -192 -32 0
v -160 -32 0
v -128 -64 0
v -160 -64 0
v -160 -32 0
v -128 -32 0
v -96 -64 0
v -128 -64 0
v -128 -32 0
v -96 -32 0
v -64 -64 0
v -96 -64 0
v -96 -32 0
v -64 -32 0
v -32 -64 0
v -64 -64 0
v -64 -32 0
v -32 -32 0
v 0 -64 0
v -32 -64 0
v -32 -32 0
v 0 -32 0
v -480 -96 0
v -512 -96 0
v -512 -64 0
v -480 -64 0
v -448 -96 0
v -480 -96 0
v -480 -64 0
v -448 -64 0
v -416 -96 0
v -448 -96 0
v -448 -64 0
v -416 -64 0
v -384 -96 0
v -416 -96 0
v -416 -64 0
v -384 -64 0
v -352 -96 0
v -384 -96 0
v -384 -64 0
v -352 -64 0
v -320 -96 0
v -352 -96 0
v -352 -64 0
v -320 -64 0
v -288 -96 0
v -320 -96 0
v -320 -64 0
v -288 -64 0
v -256 -96 0
v -288 -96 0
v -288 -64 0
v -256 -64 0
v -224 -96 0
v -256 -96 0
v -256 -64 0
v -224 -64 0
v -192 -96 0
v -224 -96 0
v -224 -64 0
v -192 -64 0
v -160 -96 0
v -192 -96 0
v -192 -64 0
v -160 -64 0
v -128 -96 0
v -160 -96 0
v -160 -64 0
v -128 -64 0
v -96 -96 0
v -128 -96 0
v -128 -64 0
v -96 -64 0
v -64 -96 0
v -96 -96 0
v -96 -64 0
v -64 -64 0
v -32 -96 0
v -64 -96 0
v -64 -64 0
v -32 -64 0
v 0 -96 0
v -32 -96 0
v -32 -64 0
v 0 -64 0
v -480 -128 0
v -512 -128 0
v -512 -96 0
v -480 -96 0
v -448 -128 0
v -480 -128 0
v -480 -96 0
v -448 -96 0
v -416 -128 0
v -448 -128 0
v -448 -96 0
v -416 -96 0
v -384 -128 0
v -416 -128 0
v -416 -96 0
v -384 -96 0
v -352 -128 0
v -384 -128 0
v -384 -96 0
v -352 -96 0
v -320 -128 0
v -352 -128 0
v -352 -96 0
v -320 -96 0
v -288 -128 0
v -320 -128 0
v -320 -96 0
v -288 -96 0
v -256 -128 0
v -288 -128 0
v -288 -96 0
v -256 -96 0
v -224 -128 0
v -256 -128 0
v -256 -96 0
v -224 -96 0
v -192 -128 0
v -224 -128 0
v -224 -96 0
v -192 -96 0
v -160 -128 0
v -192 -128 0
v -192 -96 0
v -160 -96 0
v -128 -128 0
v -160 -128 0
v -160 -96 0
v -128 -96 0
v -96 -128 0
v -128 -128 0
v -128 -96 0
v -96 -96 0
v -64 -128 0
v -96 -128 0
v -96 -96 0
v -64 -96 0
v -32 -128 0
v -64 -128 0
v -64 -96 0
v -32 -96 0
v 0 -128 0
v -32 -128 0
v -32 -96 0
v 0 -96 0
v -480 -160 0
v -512 -160 0
v -512 -128 0
v -480 -128 0
v -448 -160 0
v -480 -160 0
v -480 -128 0
v -448 -128 0
v -416 -160 0
v -448 -160 0
v -448 -128 0
v -416 -128 0
v -384 -160 0
v -416 -160 0
v -416 -128 0
v -384 -128 0
v -352 -160 0
v -384 -160 0
v -384 -128 0
v -352 -128 0
v -320 -160 0
v -352 -160 0
v -352 -128 0
v -320 -128 0
v -288 -160 0
v -320 -160 0
v -320 -128 0
v -288 -128 0
v -256 -160 0
v -288 -160 0
v -288 -128 0
v -256 -128 0
v -224 -160 0
v -256 -160 0
v -256 -128 0
v -224 -128 0
v -192 -160 0
v -224 -160 0
v -224 -128 0
v -192 -128 0
v -160 -160 0
v -192 -160 0
v -192 -128 0
v -160 -128 0
v -128 -160 0
v -160 -160 0
v -160 -128 0
v -128 -128 0
v -96 -160 0
v -128 -160 0
v -128 -128 0
v -96 -128 0
v -64 -160 0
v -96 -160 0
v -96 -128 0
v -64 -128 0
v -32 -160 0
v -64 -160 0
v -64 -128 0
v -32 -128 0
v 0 -160 0
v -32 -160 0
v -32 -128 0
v 0 -128 0
v -480 -192 0
v -512 -192 0
v -512 -160 0
v -480 -160 0
v -448 -192 0
v -480 -192 0
v -480 -160 0
v -448 -160 0
v -416 -192 0
v -448 -192 0
v -448 -160 0
v -416 -160 0
v -384 -192 0
v -416 -192 0
v -416 -160 0
v -384 -160 0
v -352 -192 0
v -384 -192 0
v -384 -160 0
v -352 -160 0
v -320 -192 0
v -352 -192 0
v -352 -160 0
v -320 -160 0
v -288 -192 0
v -320 -192 0
v -320 -160 0
v -288 -160 0
v -256 -192 0
v -288 -192 0
v -288 -160 0
v -256 -160 0
v -224 -192 0
v -256 -192 0
v -256 -160 0
v -224 -160 0
v -192 -192 0
v -224 -192 0
v -224 -160 0
v -192 -160 0
v -160 -192 0
v -192 -192 0
v -192 -160 0
v -160 -160 0
v -128 -192 0
v -160 -192 0
v -160 -160 0
v -128 -160 0
v -96 -192 0
v -128 -192 0
v -128 -160 0
v -96 -160 0
v -64 -192 0
v -96 -192 0
v -96 -160 0
v -64 -160 0
v -32 -192 0
v -64 -192 0
v -64 -160 0
v -32 -160 0
v 0 -192 0
v -32 -192 0
v -32 -160 0
v 0 -160 0
v -480 -224 0
v -512 -224 0
v -512 -192 0
v -480 -192 0
v -448 -224 0
v -480 -224 0
v -480 -192 0
v -448 -192 0
v -416 -224 0
v -448 -224 0
v -448 -192 0
v -416 -192 0
v -384 -224 0
v -416 -224 0
v -416 -192 0
v -384 -192 0
v -352 -224 0
v -384 -224 0
v -384 -192 0
v -352 -192 0
v -320 -224 0
v -352 -224 0
v -352 -192 0
v -320 -192 0
v -288 -224 0
v -320 -224 0
v -320 -192 0
v -288 -192 0
v -256 -224 0
v -288 -224 0
v -288 -192 0
v -256 -192 0
v -224 -224 0
v -256 -224 0
v -256 -192 0
v -224 -192 0
v -192 -224 0
v -224 -224 0
v -224 -192 0
v -192 -192 0
v -160 -224 0
v -192 -224 0
v -192 -192 0
v -160 -192 0
v -128 -224 0
v -160 -224 0
v -160 -192 0
v -128 -192 0
v -96 -224 0
v -128 -224 0
v -128 -192 0
v -96 -192 0
v -64 -224 0
v -96 -224 0
v -96 -192 0
v -64 -192 0
v -32 -224 0
v -64 -224 0
v -64 -192 0
v -32 -192 0
v 0 -224 0
v -32 -224 0
v -32 -192 0
v 0 -192 0
v -480 -256 0
v -512 -256 0
v -512 -224 0
v -480 -224 0
v -448 -256 0
v -480 -256 0
v -480 -224 0
v -448 -224 0
v -416 -256 0
v -448 -256 0
v -448 -224 0
v -416 -224 0
v -384 -256 0
v -416 -256 0
v -416 -224 0
v -384 -224 0
v -352 -256 0
v -384 -256 0
v -384 -224 0
v -352 -224 0
v -320 -256 0
v -352 -256 0
v -352 -224 0
v -320 -224 0
v -288 -256 0
v -320 -256 0
v -320 -224 0
v -288 -224 0
v -256 -256 0
v -288 -256 0
v -288 -224 0
v -256 -224 0
v -224 -256 0
v -256 -256 0
v -256 -224 0
v -224 -224 0
v -192 -256 0
v -224 -256 0
v -224 -224 0
v -192 -224 0
v -160 -256 0
v -192 -256 0
v -192 -224 0
v -160 -224 0
v -128 -256 0
v -160 -256 0
v -160 -224 0
v -128 -224 0
v -96 -256 0
v -128 -256 0
v -128 -224 0
v -96 -224 0
v -64 -256 0
v -96 -256 0
v -96 -224 0
v -64 -224 0
v -32 -256 0
v -64 -256 0
v -64 -224 0
v -32 -224 0
v 0 -256 0
v -32 -256 0
v -32 -224 0
v 0 -224 0
v -480 -288 0
v -512 -288 0
v -512 -256 0
v -480 -256 0
v -448 -288 0
v -480 -288 0
v -480 -256 0
v -448 -256 0
v -416 -288 0
v -448 -288 0
v -448 -256 0
v -416 -256 0
v -384 -288 0
v -416 -288 0
v -416 -256 0
v -384 -256 0
v -352 -288 0
v -384 -288 0
v -384 -256 0
v -352 -256 0
v -320 -288 0
v -352 -288 0
v -352 -256 0
v -320 -256 0
v -288 -288 0
v -320 -288 0
v -320 -256 0
v -288 -256 0
v -256 -288 0
v -288 -288 0
v -288 -256 0
v -256 -256 0
v -224 -288 0
v -256 -288 0
v -256 -256 0
v -224 -256 0
v -192 -288 0
v -224 -288 0
v -224 -256 0
v -192 -256 0
v -160 -288 0
v -192 -288 0
v -192 -256 0
v -160 -256 0
v -128 -288 0
v -160 -288 0
v -160 -256 0
v -128 -256 0
v -96 -288 0
v -128 -288 0
v -128 -256 0
v -96 -256 0
v -64 -288 0
v -96 -288 0
v -96 -256 0
v -64 -256 0
v -32 -288 0
v -64 -288 0
v -64 -256 0
v -32 -256 0
v 0 -288 0
v -32 -288 0
v -32 -256 0
v 0 -256 0
v -480 -320 0
v -512 -320 0
v -512 -288 0
v -480 -288 0
v -448 -320 0
v -480 -320 0
v -480 -288 0
v -448 -288 0
v -416 -320 0
v -448 -320 0
v -448 -288 0
v -416 -288 0
v -384 -320 0
v -416 -320 0
v -416 -288 0
v -384 -288 0
v -352 -320 0
v -384 -320 0
v -384 -288 0
v -352 -288 0
v -320 -320 0
v -352 -320 0
v -352 -288 0
v -320 -288 0
v -288 -320 0
v -320 -320 0
v -320 -288 0
v -288 -288 0
v -256 -320 0
v -288 -320 0
v -288 -288 0
v -256 -288 0
v -224 -320 0
v -256 -320 0
v -256 -288 0
v -224 -288 0
v -192 -320 0
v -224 -320 0
v -224 -288 0
v -192 -288 0
v -160 -320 0
v -192 -320 0
v -192 -288 0
v -160 -288 0
v -128 -320 0
v -160 -320 0
v -160 -288 0
v -128 -288 0
v -96 -320 0
v -128 -320 0
v -128 -288 0
v -96 -288 0
v -64 -320 0
v -96 -320 0
v -96 -288 0
v -64 -288 0
v -32 -320 0
v -64 -320 0
v -64 -288 0
v -32 -288 0
v 0 -320 0
v -32 -320 0
v -32 -288 0
v 0 -288 0
v -480 -352 0
v -512 -352 0
v -512 -320 0
v -480 -320 0
v -448 -352 0
v -480 -352 0
v -480 -320 0
v -448 -320 0
v -416 -352 0
v -448 -352 0
v -448 -320 0
v -416 -320 0
v -384 -352 0
v -416 -352 0
v -416 -320 0
v -384 -320 0
v -352 -352 0
v -384 -352 0
v -384 -320 0
v -352 -320 0
v -320 -352 0
v -352 -352 0
v -352 -320 0
v -320 -320 0
v -288 -352 0
v -320 -352 0
v -320 -320 0
v -288 -320 0
v -256 -352 0
v -288 -352 0
v -288 -320 0
v -256 -320 0
v -224 -352 0
v -256 -352 0
v -256 -320 0
v -224 -320 0
v -192 -352 0
v -224 -352 0
v -224 -320 0
v -192 -320 0
v -160 -352 0
v -192 -352 0
v -192 -320 0
v -160 -320 0
v -128 -352 0
v -160 -352 0
v -160 -320 0
v -128 -320 0
v -96 -352 0
v -128 -352 0
v -128 -320 0
v -96 -320 0
v -64 -352 0
v -96 -352 0
v -96 -320 0
v -64 -320 0
v -32 -352 0
v -64 -352 0
v -64 -320 0
v -32 -320 0
v 0 -352 0
v -32 -352 0
v -32 -320 0
v 0 -320 0
v -480 -384 0
v -512 -384 0
v -512 -352 0
v -480 -352 0
v -448 -384 0
v -480 -384 0
v -480 -352 0
v -448 -352 0
v -416 -384 0
v -448 -384 0
v -448 -352 0
v -416 -352 0
v -384 -384 0
v -416 -384 0
v -416 -352 0
v -384 -352 0
v -352 -384 0
v -384 -384 0
v -384 -352 0
v -352 -352 0
v -320 -384 0
v -352 -384 0
v -352 -352 0
v -320 -352 0
v -288 -384 0
v -320 -384 0
v -320 -352 0
v -288 -352 0
v -256 -384 0
v -288 -384 0
v -288 -352 0
v -256 -352 0
v -224 -384 0
v -256 -384 0
v -256 -352 0
v -224 -352 0
v -192 -384 0
v -224 -384 0
v -224 -352 0
v -192 -352 0
v -160 -384 0
v -192 -384 0
v -192 -352 0
v -160 -352 0
v -128 -384 0
v -160 -384 0
v -160 -352 0
v -128 -352 0
v -96 -384 0
v -128 -384 0
v -128 -352 0
v -96 -352 0
v -64 -384 0
v -96 -384 0
v -96 -352 0
v -64 -352 0
v -32 -384 0
v -64 -384 0
v -64 -352 0
v -32 -352 0
v 0 -384 0
v -32 -384 0
v -32 -352 0
v 0 -352 0
v -480 -416 0
v -512 -416 0
v -512 -384 0
v -480 -384 0
v -448 -416 0
v -480 -416 0
v -480 -384 0
v -448 -384 0
v -416 -416 0
v -448 -416 0
v -448 -384 0
v -416 -384 0
v -384 -416 0
v -416 -416 0
v -416 -384 0
v -384 -384 0
v -352 -416 0
v -384 -416 0
v -384 -384 0
v -352 -384 0
v -320 -416 0
v -352 -416 0
v -352 -384 0
v -320 -384 0
v -288 -416 0
v -320 -416 0
v -320 -384 0
v -288 -384 0
v -256 -416 0
v -288 -416 0
v -288 -384 0
v -256 -384 0
v -224 -416 0
v -256 -416 0
v -256 -384 0
v -224 -384 0
v -192 -416 0
v -224 -416 0
v -224 -384 0
v -192 -384 0
v -160 -416 0
v -192 -416 0
v -192 -384 0
v -160 -384 0
v -128 -416 0
v -160 -416 0
v -160 -384 0
v -128 -384 0
v -96 -416 0
v -128 -416 0
v -128 -384 0
v -96 -384 0
v -64 -416 0
v -96 -416 0
v -96 -384 0
v -64 -384 0
v -32 -416 0
v -64 -416 0
v -64 -384 0
v -32 -384 0
v 0 -416 0
v -32 -416 0
v -32 -384 0
v 0 -384 0
v -480 -448 0
v -512 -448 0
v -512 -416 0
v -480 -416 0
v -448 -448 0
v -480 -448 0
v -480 -416 0
v -448 -416 0
v -416 -448 0
v -448 -448 0
v -448 -416 0
v -416 -416 0
v -384 -448 0
v -416 -448 0
v -416 -416 0
v -384 -416 0
v -352 -448 0
v -384 -448 0
v -384 -416 0
v -352 -416 0
v -320 -448 0
v -352 -448 0
v -352 -416 0
v -320 -416 0
v -288 -448 0
v -320 -448 0
v -320 -416 0
v -288 -416 0
v -256 -448 0
v -288 -448 0
v -288 -416 0
v -256 -416 0
v -224 -448 0
v -256 -448 0
v -256 -416 0
v -224 -416 0
v -192 -448 0
v -224 -448 0
v -224 -416 0
v -192 -416 0
v -160 -448 0
v -192 -448 0
v -192 -416 0
v -160 -416 0
v -128 -448 0
v -160 -448 0
v -160 -416 0
v -128 -416 0
v -96 -448 0
v -128 -448 0
v -128 -416 0
v -96 -416 0
v -64 -448 0
v -96 -448 0
v -96 -416 0
v -64 -416 0
v -32 -448 0
v -64 -448 0
v -64 -416 0
v -32 -416 0
v 0 -448 0
v -32 -448 0
v -32 -416 0
v 0 -416 0
v -480 -480 0
v -512 -480 0
v -512 -448 0
v -480 -448 0
v -448 -480 0
v -480 -480 0
v -480 -448 0
v -448 -448 0
v -416 -480 0
v -448 -480 0
v -448 -448 0
v -416 -448 0
v -384 -480 0
v -416 -480 0
v -416 -448 0
v -384 -448 0
v -352 -480 0
v -384 -480 0
v -384 -448 0
v -352 -448 0
v -320 -480 0
v -352 -480 0
v -352 -448 0
v -320 -448 0
v -288 -480 0
v -320 -480 0
v -320 -448 0
v -288 -448 0
v -256 -480 0
v -288 -480 0
v -288 -448 0
v -256 -448 0
v -224 -480 0
v -256 -480 0
v -256 -448 0
v -224 -448 0
v -192 -480 0
v -224 -480 0
v -224 -448 0
v -192 -448 0
v -160 -480 0
v -192 -480 0
v -192 -448 0
v -160 -448 0
v -128 -480 0
v -160 -480 0
v -160 -448 0
v -128 -448 0
v -96 -480 0
v -128 -480 0
v -128 -448 0
v -96 -448 0
v -64 -480 0
v -96 -480 0
v -96 -448 0
v -64 -448 0
v -32 -480 0
v -64 -480 0
v -64 -448 0
v -32 -448 0
v 0 -480 0
v -32 -480 0
v -32 -448 0
v 0 -448 0
v -480 -512 0
v -512 -512 0
v -512 -480 0
v -480 -480 0
v -448 -512 0
v -480 -512 0
v -480 -480 0
v -448 -480 0
v -416 -512 0
v -448 -512 0
v -448 -480 0
v -416 -480 0
v -384 -512 0
v -416 -512 0
v -416 -480 0
v -384 -480 0
v -352 -512 0
v -384 -512 0
v -384 -480 0
v -352 -480 0
v -320 -512 0
v -352 -512 0
v -352 -480 0
v -320 -480 0
v -288 -512 0
v -320 -512 0
v -320 -480 0
v -288 -480 0
v -256 -512 0
v -288 -512 0
v -288 -480 0
v -256 -480 0
v -224 -512 0
v -256 -512 0
v -256 -480 0
v -224 -480 0
v -192 -512 0
v -224 -512 0
v -224 -480 0
v -192 -480 0
v -160 -512 0
v -192 -512 0
v -192 -480 0
v -160 -480 0
v -128 -512 0
v -160 -512 0
v -160 -480 0
v -128 -480 0
v -96 -512 0
v -128 -512 0
v -128 -480 0
v -96 -480 0
v -64 -512 0
v -96 -512 0
v -96 -480 0
v -64 -480 0
v -32 -512 0
v -64 -512 0
v -64 -480 0
v -32 -480 0
v 0 -512 0
v -32 -512 0
v -32 -480 0
v 0 -480 0

# Texture cooridinates (Count = 12)
vt 0.0625 0.53125
vt 0.09375 0.53125
vt 0.09375 0.5625
vt 0.0625 0.5625
vt 0.03125 0.53125
vt 0.03125 0.5625
vt 0 0.53125
vt 0 0.5625
vt 0.125 0.59375
vt 0.15625 0.59375
vt 0.15625 0.625
vt 0.125 0.625

# Normal
vn 0 0 -1

# Mesh description
g Plage32_mesh_0012

# Faces
f 1/1/1 2/2/1 3/3/1 4/4/1
f 5/1/1 6/2/1 7/3/1 8/4/1
f 9/1/1 10/2/1 11/3/1 12/4/1
f 13/5/1 14/1/1 15/4/1 16/6/1
f 17/7/1 18/5/1 19/6/1 20/8/1
f 21/5/1 22/1/1 23/4/1 24/6/1
f 25/1/1 26/2/1 27/3/1 28/4/1
f 29/5/1 30/1/1 31/4/1 32/6/1
f 33/1/1 34/2/1 35/3/1 36/4/1
f 37/1/1 38/2/1 39/3/1 40/4/1
f 41/7/1 42/5/1 43/6/1 44/8/1
f 45/5/1 46/1/1 47/4/1 48/6/1
f 49/5/1 50/1/1 51/4/1 52/6/1
f 53/5/1 54/1/1 55/4/1 56/6/1
f 57/1/1 58/2/1 59/3/1 60/4/1
f 61/5/1 62/1/1 63/4/1 64/6/1
f 65/7/1 66/5/1 67/6/1 68/8/1
f 69/1/1 70/2/1 71/3/1 72/4/1
f 73/5/1 74/1/1 75/4/1 76/6/1
f 77/7/1 78/5/1 79/6/1 80/8/1
f 81/5/1 82/1/1 83/4/1 84/6/1
f 85/9/1 86/10/1 87/11/1 88/12/1
f 89/1/1 90/2/1 91/3/1 92/4/1
f 93/1/1 94/2/1 95/3/1 96/4/1
f 97/1/1 98/2/1 99/3/1 100/4/1
f 101/9/1 102/10/1 103/11/1 104/12/1
f 105/7/1 106/5/1 107/6/1 108/8/1
f 109/1/1 110/2/1 111/3/1 112/4/1
f 113/1/1 114/2/1 115/3/1 116/4/1
f 117/5/1 118/1/1 119/4/1 120/6/1
f 121/7/1 122/5/1 123/6/1 124/8/1
f 125/7/1 126/5/1 127/6/1 128/8/1
f 129/5/1 130/1/1 131/4/1 132/6/1
f 133/1/1 134/2/1 135/3/1 136/4/1
f 137/9/1 138/10/1 139/11/1 140/12/1
f 141/1/1 142/2/1 143/3/1 144/4/1
f 145/9/1 146/10/1 147/11/1 148/12/1
f 149/1/1 150/2/1 151/3/1 152/4/1
f 153/7/1 154/5/1 155/6/1 156/8/1
f 157/9/1 158/10/1 159/11/1 160/12/1
f 161/7/1 162/5/1 163/6/1 164/8/1
f 165/7/1 166/5/1 167/6/1 168/8/1
f 169/7/1 170/5/1 171/6/1 172/8/1
f 173/9/1 174/10/1 175/11/1 176/12/1
f 177/5/1 178/1/1 179/4/1 180/6/1
f 181/7/1 182/5/1 183/6/1 184/8/1
f 185/7/1 186/5/1 187/6/1 188/8/1
f 189/5/1 190/1/1 191/4/1 192/6/1
f 193/9/1 194/10/1 195/11/1 196/12/1
f 197/1/1 198/2/1 199/3/1 200/4/1
f 201/5/1 202/1/1 203/4/1 204/6/1
f 205/1/1 206/2/1 207/3/1 208/4/1
f 209/1/1 210/2/1 211/3/1 212/4/1
f 213/1/1 214/2/1 215/3/1 216/4/1
f 217/7/1 218/5/1 219/6/1 220/8/1
f 221/7/1 222/5/1 223/6/1 224/8/1
f 225/7/1 226/5/1 227/6/1 228/8/1
f 229/5/1 230/1/1 231/4/1 232/6/1
f 233/9/1 234/10/1 235/11/1 236/12/1
f 237/9/1 238/10/1 239/11/1 240/12/1
f 241/1/1 242/2/1 243/3/1 244/4/1
f 245/9/1 246/10/1 247/11/1 248/12/1
f 249/7/1 250/5/1 251/6/1 252/8/1
f 253/1/1 254/2/1 255/3/1 256/4/1
f 257/1/1 258/2/1 259/3/1 260/4/1
f 261/1/1 262/2/1 263/3/1 264/4/1
f 265/1/1 266/2/1 267/3/1 268/4/1
f 269/5/1 270/1/1 271/4/1 272/6/1
f 273/9/1 274/10/1 275/11/1 276/12/1
f 277/1/1 278/2/1 279/3/1 280/4/1
f 281/1/1 282/2/1 283/3/1 284/4/1
f 285/1/1 286/2/1 287/3/1 288/4/1
f 289/1/1 290/2/1 291/3/1 292/4/1
f 293/7/1 294/5/1 295/6/1 296/8/1
f 297/5/1 298/1/1 299/4/1 300/6/1
f 301/5/1 302/1/1 303/4/1 304/6/1
f 305/9/1 306/10/1 307/11/1 308/12/1
f 309/5/1 310/1/1 311/4/1 312/6/1
f 313/9/1 314/10/1 315/11/1 316/12/1
f 317/7/1 318/5/1 319/6/1 320/8/1
f 321/1/1 322/2/1 323/3/1 324/4/1
f 325/5/1 326/1/1 327/4/1 328/6/1
f 329/5/1 330/1/1 331/4/1 332/6/1
f 333/1/1 334/2/1 335/3/1 336/4/1
f 337/7/1 338/5/1 339/6/1 340/8/1
f 341/9/1 342/10/1 343/11/1 344/12/1
f 345/7/1 346/5/1 347/6/1 348/8/1
f 349/7/1 350/5/1 351/6/1 352/8/1
f 353/1/1 354/2/1 355/3/1 356/4/1
f 357/7/1 358/5/1 359/6/1 360/8/1
f 361/7/1 362/5/1 363/6/1 364/8/1
f 365/7/1 366/5/1 367/6/1 368/8/1
f 369/7/1 370/5/1 371/6/1 372/8/1
f 373/9/1 374/10/1 375/11/1 376/12/1
f 377/1/1 378/2/1 379/3/1 380/4/1
f 381/9/1 382/10/1 383/11/1 384/12/1
f 385/7/1 386/5/1 387/6/1 388/8/1
f 389/5/1 390/1/1 391/4/1 392/6/1
f 393/7/1 394/5/1 395/6/1 396/8/1
f 397/5/1 398/1/1 399/4/1 400/6/1
f 401/5/1 402/1/1 403/4/1 404/6/1
f 405/7/1 406/5/1 407/6/1 408/8/1
f 409/9/1 410/10/1 411/11/1 412/12/1
f 413/5/1 414/1/1 415/4/1 416/6/1
f 417/9/1 418/10/1 419/11/1 420/12/1
f 421/7/1 422/5/1 423/6/1 424/8/1
f 425/7/1 426/5/1 427/6/1 428/8/1
f 429/1/1 430/2/1 431/3/1 432/4/1
f 433/5/1 434/1/1 435/4/1 436/6/1
f 437/5/1 438/1/1 439/4/1 440/6/1
f 441/5/1 442/1/1 443/4/1 444/6/1
f 445/9/1 446/10/1 447/11/1 448/12/1
f 449/9/1 450/10/1 451/11/1 452/12/1
f 453/9/1 454/10/1 455/11/1 456/12/1
f 457/9/1 458/10/1 459/11/1 460/12/1
f 461/9/1 462/10/1 463/11/1 464/12/1
f 465/1/1 466/2/1 467/3/1 468/4/1
f 469/7/1 470/5/1 471/6/1 472/8/1
f 473/7/1 474/5/1 475/6/1 476/8/1
f 477/1/1 478/2/1 479/3/1 480/4/1
f 481/9/1 482/10/1 483/11/1 484/12/1
f 485/1/1 486/2/1 487/3/1 488/4/1
f 489/1/1 490/2/1 491/3/1 492/4/1
f 493/5/1 494/1/1 495/4/1 496/6/1
f 497/5/1 498/1/1 499/4/1 500/6/1
f 501/5/1 502/1/1 503/4/1 504/6/1
f 505/1/1 506/2/1 507/3/1 508/4/1
f 509/9/1 510/10/1 511/11/1 512/12/1
f 513/1/1 514/2/1 515/3/1 516/4/1
f 517/5/1 518/1/1 519/4/1 520/6/1
f 521/5/1 522/1/1 523/4/1 524/6/1
f 525/1/1 526/2/1 527/3/1 528/4/1
f 529/9/1 530/10/1 531/11/1 532/12/1
f 533/9/1 534/10/1 535/11/1 536/12/1
f 537/9/1 538/10/1 539/11/1 540/12/1
f 541/7/1 542/5/1 543/6/1 544/8/1
f 545/9/1 546/10/1 547/11/1 548/12/1
f 549/9/1 550/10/1 551/11/1 552/12/1
f 553/7/1 554/5/1 555/6/1 556/8/1
f 557/5/1 558/1/1 559/4/1 560/6/1
f 561/7/1 562/5/1 563/6/1 564/8/1
f 565/9/1 566/10/1 567/11/1 568/12/1
f 569/1/1 570/2/1 571/3/1 572/4/1
f 573/5/1 574/1/1 575/4/1 576/6/1
f 577/1/1 578/2/1 579/3/1 580/4/1
f 581/1/1 582/2/1 583/3/1 584/4/1
f 585/9/1 586/10/1 587/11/1 588/12/1
f 589/5/1 590/1/1 591/4/1 592/6/1
f 593/9/1 594/10/1 595/11/1 596/12/1
f 597/1/1 598/2/1 599/3/1 600/4/1
f 601/5/1 602/1/1 603/4/1 604/6/1
f 605/5/1 606/1/1 607/4/1 608/6/1
f 609/7/1 610/5/1 611/6/1 612/8/1
f 613/9/1 614/10/1 615/11/1 616/12/1
f 617/5/1 618/1/1 619/4/1 620/6/1
f 621/7/1 622/5/1 623/6/1 624/8/1
f 625/5/1 626/1/1 627/4/1 628/6/1
f 629/1/1 630/2/1 631/3/1 632/4/1
f 633/1/1 634/2/1 635/3/1 636/4/1
f 637/7/1 638/5/1 639/6/1 640/8/1
f 641/7/1 642/5/1 643/6/1 644/8/1
f 645/1/1 646/2/1 647/3/1 648/4/1
f 649/5/1 650/1/1 651/4/1 652/6/1
f 653/9/1 654/10/1 655/11/1 656/12/1
f 657/5/1 658/1/1 659/4/1 660/6/1
f 661/9/1 662/10/1 663/11/1 664/12/1
f 665/1/1 666/2/1 667/3/1 668/4/1
f 669/1/1 670/2/1 671/3/1 672/4/1
f 673/5/1 674/1/1 675/4/1 676/6/1
f 677/1/1 678/2/1 679/3/1 680/4/1
f 681/5/1 682/1/1 683/4/1 684/6/1
f 685/7/1 686/5/1 687/6/1 688/8/1
f 689/9/1 690/10/1 691/11/1 692/12/1
f 693/9/1 694/10/1 695/11/1 696/12/1
f 697/5/1 698/1/1 699/4/1 700/6/1
f 701/7/1 702/5/1 703/6/1 704/8/1
f 705/5/1 706/1/1 707/4/1 708/6/1
f 709/1/1 710/2/1 711/3/1 712/4/1
f 713/7/1 714/5/1 715/6/1 716/8/1
f 717/1/1 718/2/1 719/3/1 720/4/1
f 721/7/1 722/5/1 723/6/1 724/8/1
f 725/1/1 726/2/1 727/3/1 728/4/1
f 729/7/1 730/5/1 731/6/1 732/8/1
f 733/5/1 734/1/1 735/4/1 736/6/1
f 737/7/1 738/5/1 739/6/1 740/8/1
f 741/9/1 742/10/1 743/11/1 744/12/1
f 745/7/1 746/5/1 747/6/1 748/8/1
f 749/5/1 750/1/1 751/4/1 752/6/1
f 753/7/1 754/5/1 755/6/1 756/8/1
f 757/5/1 758/1/1 759/4/1 760/6/1
f 761/9/1 762/10/1 763/11/1 764/12/1
f 765/5/1 766/1/1 767/4/1 768/6/1
f 769/5/1 770/1/1 771/4/1 772/6/1
f 773/9/1 774/10/1 775/11/1 776/12/1
f 777/7/1 778/5/1 779/6/1 780/8/1
f 781/5/1 782/1/1 783/4/1 784/6/1
f 785/9/1 786/10/1 787/11/1 788/12/1
f 789/5/1 790/1/1 791/4/1 792/6/1
f 793/5/1 794/1/1 795/4/1 796/6/1
f 797/7/1 798/5/1 799/6/1 800/8/1
f 801/9/1 802/10/1 803/11/1 804/12/1
f 805/9/1 806/10/1 807/11/1 808/12/1
f 809/5/1 810/1/1 811/4/1 812/6/1
f 813/5/1 814/1/1 815/4/1 816/6/1
f 817/7/1 818/5/1 819/6/1 820/8/1
f 821/5/1 822/1/1 823/4/1 824/6/1
f 825/5/1 826/1/1 827/4/1 828/6/1
f 829/1/1 830/2/1 831/3/1 832/4/1
f 833/7/1 834/5/1 835/6/1 836/8/1
f 837/7/1 838/5/1 839/6/1 840/8/1
f 841/9/1 842/10/1 843/11/1 844/12/1
f 845/7/1 846/5/1 847/6/1 848/8/1
f 849/1/1 850/2/1 851/3/1 852/4/1
f 853/7/1 854/5/1 855/6/1 856/8/1
f 857/7/1 858/5/1 859/6/1 860/8/1
f 861/5/1 862/1/1 863/4/1 864/6/1
f 865/1/1 866/2/1 867/3/1 868/4/1
f 869/5/1 870/1/1 871/4/1 872/6/1
f 873/5/1 874/1/1 875/4/1 876/6/1
f 877/1/1 878/2/1 879/3/1 880/4/1
f 881/7/1 882/5/1 883/6/1 884/8/1
f 885/1/1 886/2/1 887/3/1 888/4/1
f 889/7/1 890/5/1 891/6/1 892/8/1
f 893/9/1 894/10/1 895/11/1 896/12/1
f 897/1/1 898/2/1 899/3/1 900/4/1
f 901/7/1 902/5/1 903/6/1 904/8/1
f 905/7/1 906/5/1 907/6/1 908/8/1
f 909/1/1 910/2/1 911/3/1 912/4/1
f 913/9/1 914/10/1 915/11/1 916/12/1
f 917/9/1 918/10/1 919/11/1 920/12/1
f 921/7/1 922/5/1 923/6/1 924/8/1
f 925/7/1 926/5/1 927/6/1 928/8/1
f 929/1/1 930/2/1 931/3/1 932/4/1
f 933/7/1 934/5/1 935/6/1 936/8/1
f 937/9/1 938/10/1 939/11/1 940/12/1
f 941/9/1 942/10/1 943/11/1 944/12/1
f 945/9/1 946/10/1 947/11/1 948/12/1
f 949/5/1 950/1/1 951/4/1 952/6/1
f 953/1/1 954/2/1 955/3/1 956/4/1
f 957/1/1 958/2/1 959/3/1 960/4/1
f 961/7/1 962/5/1 963/6/1 964/8/1
f 965/9/1 966/10/1 967/11/1 968/12/1
f 969/7/1 970/5/1 971/6/1 972/8/1
f 973/1/1 974/2/1 975/3/1 976/4/1
f 977/1/1 978/2/1 979/3/1 980/4/1
f 981/9/1 982/10/1 983/11/1 984/12/1
f 985/5/1 986/1/1 987/4/1 988/6/1
f 989/7/1 990/5/1 991/6/1 992/8/1
f 993/5/1 994/1/1 995/4/1 996/6/1
f 997/5/1 998/1/1 999/4/1 1000/6/1
f 1001/9/1 1002/10/1 1003/11/1 1004/12/1
f 1005/1/1 1006/2/1 1007/3/1 1008/4/1
f 1009/9/1 1010/10/1 1011/11/1 1012/12/1
f 1013/1/1 1014/2/1 1015/3/1 1016/4/1
f 1017/1/1 1018/2/1 1019/3/1 1020/4/1
f 1021/1/1 1022/2/1 1023/3/1 1024/4/1

