# Tiled2Unity generated file. Do not modify by hand.
# Wavefront file for 'Plage32_mesh_0063.obj'

# Vertices (Count = 168)
v -160 -96 0
v -192 -96 0
v -192 -64 0
v -160 -64 0
v -128 -96 0
v -160 -96 0
v -160 -64 0
v -128 -64 0
v -96 -96 0
v -128 -96 0
v -128 -64 0
v -96 -64 0
v -64 -96 0
v -96 -96 0
v -96 -64 0
v -64 -64 0
v -32 -96 0
v -64 -96 0
v -64 -64 0
v -32 -64 0
v 0 -96 0
v -32 -96 0
v -32 -64 0
v 0 -64 0
v -160 -128 0
v -192 -128 0
v -192 -96 0
v -160 -96 0
v -128 -128 0
v -160 -128 0
v -160 -96 0
v -128 -96 0
v -96 -128 0
v -128 -128 0
v -128 -96 0
v -96 -96 0
v -64 -128 0
v -96 -128 0
v -96 -96 0
v -64 -96 0
v -32 -128 0
v -64 -128 0
v -64 -96 0
v -32 -96 0
v 0 -128 0
v -32 -128 0
v -32 -96 0
v 0 -96 0
v -160 -160 0
v -192 -160 0
v -192 -128 0
v -160 -128 0
v -128 -160 0
v -160 -160 0
v -160 -128 0
v -128 -128 0
v -96 -160 0
v -128 -160 0
v -128 -128 0
v -96 -128 0
v -64 -160 0
v -96 -160 0
v -96 -128 0
v -64 -128 0
v -32 -160 0
v -64 -160 0
v -64 -128 0
v -32 -128 0
v 0 -160 0
v -32 -160 0
v -32 -128 0
v 0 -128 0
v -160 -192 0
v -192 -192 0
v -192 -160 0
v -160 -160 0
v -128 -192 0
v -160 -192 0
v -160 -160 0
v -128 -160 0
v -96 -192 0
v -128 -192 0
v -128 -160 0
v -96 -160 0
v -64 -192 0
v -96 -192 0
v -96 -160 0
v -64 -160 0
v -32 -192 0
v -64 -192 0
v -64 -160 0
v -32 -160 0
v 0 -192 0
v -32 -192 0
v -32 -160 0
v 0 -160 0
v -160 -224 0
v -192 -224 0
v -192 -192 0
v -160 -192 0
v -128 -224 0
v -160 -224 0
v -160 -192 0
v -128 -192 0
v -96 -224 0
v -128 -224 0
v -128 -192 0
v -96 -192 0
v -64 -224 0
v -96 -224 0
v -96 -192 0
v -64 -192 0
v -32 -224 0
v -64 -224 0
v -64 -192 0
v -32 -192 0
v 0 -224 0
v -32 -224 0
v -32 -192 0
v 0 -192 0
v -160 -256 0
v -192 -256 0
v -192 -224 0
v -160 -224 0
v -128 -256 0
v -160 -256 0
v -160 -224 0
v -128 -224 0
v -96 -256 0
v -128 -256 0
v -128 -224 0
v -96 -224 0
v -64 -256 0
v -96 -256 0
v -96 -224 0
v -64 -224 0
v -32 -256 0
v -64 -256 0
v -64 -224 0
v -32 -224 0
v 0 -256 0
v -32 -256 0
v -32 -224 0
v 0 -224 0
v -160 -288 0
v -192 -288 0
v -192 -256 0
v -160 -256 0
v -128 -288 0
v -160 -288 0
v -160 -256 0
v -128 -256 0
v -96 -288 0
v -128 -288 0
v -128 -256 0
v -96 -256 0
v -64 -288 0
v -96 -288 0
v -96 -256 0
v -64 -256 0
v -32 -288 0
v -64 -288 0
v -64 -256 0
v -32 -256 0
v 0 -288 0
v -32 -288 0
v -32 -256 0
v 0 -256 0

# Texture cooridinates (Count = 18)
vt 0.21875 0.96875
vt 0.25 0.96875
vt 0.25 1
vt 0.21875 1
vt 0.1875 0.96875
vt 0.1875 1
vt 0.21875 0.9375
vt 0.25 0.9375
vt 0.1875 0.9375
vt 0.21875 0.90625
vt 0.25 0.90625
vt 0.1875 0.90625
vt 0.21875 0.875
vt 0.25 0.875
vt 0.1875 0.875
vt 0.21875 0.84375
vt 0.25 0.84375
vt 0.1875 0.84375

# Normal
vn 0 0 -1

# Mesh description
g Plage32_mesh_0063

# Faces
f 1/1/1 2/2/1 3/3/1 4/4/1
f 5/5/1 6/1/1 7/4/1 8/6/1
f 9/5/1 10/1/1 11/4/1 12/6/1
f 13/5/1 14/1/1 15/4/1 16/6/1
f 17/5/1 18/1/1 19/4/1 20/6/1
f 21/5/1 22/1/1 23/4/1 24/6/1
f 25/7/1 26/8/1 27/2/1 28/1/1
f 29/9/1 30/7/1 31/1/1 32/5/1
f 33/9/1 34/7/1 35/1/1 36/5/1
f 37/9/1 38/7/1 39/1/1 40/5/1
f 41/9/1 42/7/1 43/1/1 44/5/1
f 45/9/1 46/7/1 47/1/1 48/5/1
f 49/7/1 50/8/1 51/2/1 52/1/1
f 53/9/1 54/7/1 55/1/1 56/5/1
f 57/9/1 58/7/1 59/1/1 60/5/1
f 61/9/1 62/7/1 63/1/1 64/5/1
f 65/9/1 66/7/1 67/1/1 68/5/1
f 69/9/1 70/7/1 71/1/1 72/5/1
f 73/7/1 74/8/1 75/2/1 76/1/1
f 77/9/1 78/7/1 79/1/1 80/5/1
f 81/9/1 82/7/1 83/1/1 84/5/1
f 85/9/1 86/7/1 87/1/1 88/5/1
f 89/9/1 90/7/1 91/1/1 92/5/1
f 93/9/1 94/7/1 95/1/1 96/5/1
f 97/10/1 98/11/1 99/8/1 100/7/1
f 101/12/1 102/10/1 103/7/1 104/9/1
f 105/12/1 106/10/1 107/7/1 108/9/1
f 109/12/1 110/10/1 111/7/1 112/9/1
f 113/12/1 114/10/1 115/7/1 116/9/1
f 117/12/1 118/10/1 119/7/1 120/9/1
f 121/13/1 122/14/1 123/11/1 124/10/1
f 125/15/1 126/13/1 127/10/1 128/12/1
f 129/15/1 130/13/1 131/10/1 132/12/1
f 133/15/1 134/13/1 135/10/1 136/12/1
f 137/15/1 138/13/1 139/10/1 140/12/1
f 141/15/1 142/13/1 143/10/1 144/12/1
f 145/16/1 146/17/1 147/14/1 148/13/1
f 149/18/1 150/16/1 151/13/1 152/15/1
f 153/18/1 154/16/1 155/13/1 156/15/1
f 157/18/1 158/16/1 159/13/1 160/15/1
f 161/18/1 162/16/1 163/13/1 164/15/1
f 165/18/1 166/16/1 167/13/1 168/15/1

