# Tiled2Unity generated file. Do not modify by hand.
# Wavefront file for 'TerrainTest_mesh_0002.obj'

# Vertices (Count = 168)
v -320 -528 0
v -352 -528 0
v -352 -496 0
v -320 -496 0
v -288 -528 0
v -320 -528 0
v -320 -496 0
v -288 -496 0
v -256 -528 0
v -288 -528 0
v -288 -496 0
v -256 -496 0
v -224 -528 0
v -256 -528 0
v -256 -496 0
v -224 -496 0
v -192 -528 0
v -224 -528 0
v -224 -496 0
v -192 -496 0
v -160 -528 0
v -192 -528 0
v -192 -496 0
v -160 -496 0
v -320 -560 0
v -352 -560 0
v -352 -528 0
v -320 -528 0
v -288 -560 0
v -320 -560 0
v -320 -528 0
v -288 -528 0
v -256 -560 0
v -288 -560 0
v -288 -528 0
v -256 -528 0
v -224 -560 0
v -256 -560 0
v -256 -528 0
v -224 -528 0
v -192 -560 0
v -224 -560 0
v -224 -528 0
v -192 -528 0
v -160 -560 0
v -192 -560 0
v -192 -528 0
v -160 -528 0
v -320 -592 0
v -352 -592 0
v -352 -560 0
v -320 -560 0
v -288 -592 0
v -320 -592 0
v -320 -560 0
v -288 -560 0
v -256 -592 0
v -288 -592 0
v -288 -560 0
v -256 -560 0
v -224 -592 0
v -256 -592 0
v -256 -560 0
v -224 -560 0
v -192 -592 0
v -224 -592 0
v -224 -560 0
v -192 -560 0
v -160 -592 0
v -192 -592 0
v -192 -560 0
v -160 -560 0
v -320 -624 0
v -352 -624 0
v -352 -592 0
v -320 -592 0
v -288 -624 0
v -320 -624 0
v -320 -592 0
v -288 -592 0
v -256 -624 0
v -288 -624 0
v -288 -592 0
v -256 -592 0
v -224 -624 0
v -256 -624 0
v -256 -592 0
v -224 -592 0
v -192 -624 0
v -224 -624 0
v -224 -592 0
v -192 -592 0
v -160 -624 0
v -192 -624 0
v -192 -592 0
v -160 -592 0
v -320 -656 0
v -352 -656 0
v -352 -624 0
v -320 -624 0
v -288 -656 0
v -320 -656 0
v -320 -624 0
v -288 -624 0
v -256 -656 0
v -288 -656 0
v -288 -624 0
v -256 -624 0
v -224 -656 0
v -256 -656 0
v -256 -624 0
v -224 -624 0
v -192 -656 0
v -224 -656 0
v -224 -624 0
v -192 -624 0
v -160 -656 0
v -192 -656 0
v -192 -624 0
v -160 -624 0
v -320 -688 0
v -352 -688 0
v -352 -656 0
v -320 -656 0
v -288 -688 0
v -320 -688 0
v -320 -656 0
v -288 -656 0
v -256 -688 0
v -288 -688 0
v -288 -656 0
v -256 -656 0
v -224 -688 0
v -256 -688 0
v -256 -656 0
v -224 -656 0
v -192 -688 0
v -224 -688 0
v -224 -656 0
v -192 -656 0
v -160 -688 0
v -192 -688 0
v -192 -656 0
v -160 -656 0
v -320 -720 0
v -352 -720 0
v -352 -688 0
v -320 -688 0
v -288 -720 0
v -320 -720 0
v -320 -688 0
v -288 -688 0
v -256 -720 0
v -288 -720 0
v -288 -688 0
v -256 -688 0
v -224 -720 0
v -256 -720 0
v -256 -688 0
v -224 -688 0
v -192 -720 0
v -224 -720 0
v -224 -688 0
v -192 -688 0
v -160 -720 0
v -192 -720 0
v -192 -688 0
v -160 -688 0

# Texture cooridinates (Count = 47)
vt 0.21875 0.96875
vt 0.25 0.96875
vt 0.25 1
vt 0.21875 1
vt 0.1875 0.96875
vt 0.1875 1
vt 0.15625 0.96875
vt 0.15625 1
vt 0.21875 0.9375
vt 0.25 0.9375
vt 0.1875 0.9375
vt 0.15625 0.9375
vt 0.25 0.8125
vt 0.28125 0.8125
vt 0.28125 0.84375
vt 0.25 0.84375
vt 0.21875 0.8125
vt 0.21875 0.84375
vt 0.1875 0.8125
vt 0.1875 0.84375
vt 0.15625 0.8125
vt 0.15625 0.84375
vt 0.125 0.8125
vt 0.125 0.84375
vt 0.09375 0.8125
vt 0.09375 0.84375
vt 0.25 0.78125
vt 0.28125 0.78125
vt 0.21875 0.78125
vt 0.1875 0.78125
vt 0.15625 0.78125
vt 0.125 0.78125
vt 0.09375 0.78125
vt 0.25 0.75
vt 0.28125 0.75
vt 0.21875 0.75
vt 0.1875 0.75
vt 0.15625 0.75
vt 0.125 0.75
vt 0.09375 0.75
vt 0.25 0.71875
vt 0.28125 0.71875
vt 0.21875 0.71875
vt 0.1875 0.71875
vt 0.15625 0.71875
vt 0.125 0.71875
vt 0.09375 0.71875

# Normal
vn 0 0 -1

# Mesh description
g TerrainTest_mesh_0002

# Faces
f 1/1/1 2/2/1 3/3/1 4/4/1
f 5/5/1 6/1/1 7/4/1 8/6/1
f 9/5/1 10/1/1 11/4/1 12/6/1
f 13/5/1 14/1/1 15/4/1 16/6/1
f 17/5/1 18/1/1 19/4/1 20/6/1
f 21/7/1 22/5/1 23/6/1 24/8/1
f 25/9/1 26/10/1 27/2/1 28/1/1
f 29/11/1 30/9/1 31/1/1 32/5/1
f 33/11/1 34/9/1 35/1/1 36/5/1
f 37/11/1 38/9/1 39/1/1 40/5/1
f 41/11/1 42/9/1 43/1/1 44/5/1
f 45/12/1 46/11/1 47/5/1 48/7/1
f 49/9/1 50/10/1 51/2/1 52/1/1
f 53/11/1 54/9/1 55/1/1 56/5/1
f 57/11/1 58/9/1 59/1/1 60/5/1
f 61/11/1 62/9/1 63/1/1 64/5/1
f 65/11/1 66/9/1 67/1/1 68/5/1
f 69/12/1 70/11/1 71/5/1 72/7/1
f 73/13/1 74/14/1 75/15/1 76/16/1
f 77/17/1 78/13/1 79/16/1 80/18/1
f 81/19/1 82/17/1 83/18/1 84/20/1
f 85/21/1 86/19/1 87/20/1 88/22/1
f 89/23/1 90/21/1 91/22/1 92/24/1
f 93/25/1 94/23/1 95/24/1 96/26/1
f 97/27/1 98/28/1 99/14/1 100/13/1
f 101/29/1 102/27/1 103/13/1 104/17/1
f 105/30/1 106/29/1 107/17/1 108/19/1
f 109/31/1 110/30/1 111/19/1 112/21/1
f 113/32/1 114/31/1 115/21/1 116/23/1
f 117/33/1 118/32/1 119/23/1 120/25/1
f 121/34/1 122/35/1 123/28/1 124/27/1
f 125/36/1 126/34/1 127/27/1 128/29/1
f 129/37/1 130/36/1 131/29/1 132/30/1
f 133/38/1 134/37/1 135/30/1 136/31/1
f 137/39/1 138/38/1 139/31/1 140/32/1
f 141/40/1 142/39/1 143/32/1 144/33/1
f 145/41/1 146/42/1 147/35/1 148/34/1
f 149/43/1 150/41/1 151/34/1 152/36/1
f 153/44/1 154/43/1 155/36/1 156/37/1
f 157/45/1 158/44/1 159/37/1 160/38/1
f 161/46/1 162/45/1 163/38/1 164/39/1
f 165/47/1 166/46/1 167/39/1 168/40/1

