# Tiled2Unity generated file. Do not modify by hand.
# Wavefront file for 'Plage32_mesh_0048.obj'

# Vertices (Count = 512)
v -480 -32 0
v -512 -32 0
v -512 0 0
v -480 0 0
v -448 -32 0
v -480 -32 0
v -480 0 0
v -448 0 0
v -416 -32 0
v -448 -32 0
v -448 0 0
v -416 0 0
v -384 -32 0
v -416 -32 0
v -416 0 0
v -384 0 0
v -352 -32 0
v -384 -32 0
v -384 0 0
v -352 0 0
v -320 -32 0
v -352 -32 0
v -352 0 0
v -320 0 0
v -288 -32 0
v -320 -32 0
v -320 0 0
v -288 0 0
v -256 -32 0
v -288 -32 0
v -288 0 0
v -256 0 0
v -224 -32 0
v -256 -32 0
v -256 0 0
v -224 0 0
v -192 -32 0
v -224 -32 0
v -224 0 0
v -192 0 0
v -160 -32 0
v -192 -32 0
v -192 0 0
v -160 0 0
v -128 -32 0
v -160 -32 0
v -160 0 0
v -128 0 0
v -96 -32 0
v -128 -32 0
v -128 0 0
v -96 0 0
v -64 -32 0
v -96 -32 0
v -96 0 0
v -64 0 0
v -32 -32 0
v -64 -32 0
v -64 0 0
v -32 0 0
v 0 -32 0
v -32 -32 0
v -32 0 0
v 0 0 0
v -480 -64 0
v -512 -64 0
v -512 -32 0
v -480 -32 0
v -448 -64 0
v -480 -64 0
v -480 -32 0
v -448 -32 0
v -416 -64 0
v -448 -64 0
v -448 -32 0
v -416 -32 0
v -384 -64 0
v -416 -64 0
v -416 -32 0
v -384 -32 0
v -352 -64 0
v -384 -64 0
v -384 -32 0
v -352 -32 0
v -320 -64 0
v -352 -64 0
v -352 -32 0
v -320 -32 0
v -288 -64 0
v -320 -64 0
v -320 -32 0
v -288 -32 0
v -256 -64 0
v -288 -64 0
v -288 -32 0
v -256 -32 0
v -224 -64 0
v -256 -64 0
v -256 -32 0
v -224 -32 0
v -192 -64 0
v -224 -64 0
v -224 -32 0
v -192 -32 0
v -160 -64 0
v -192 -64 0
v -192 -32 0
v -160 -32 0
v -128 -64 0
v -160 -64 0
v -160 -32 0
v -128 -32 0
v -96 -64 0
v -128 -64 0
v -128 -32 0
v -96 -32 0
v -64 -64 0
v -96 -64 0
v -96 -32 0
v -64 -32 0
v -32 -64 0
v -64 -64 0
v -64 -32 0
v -32 -32 0
v 0 -64 0
v -32 -64 0
v -32 -32 0
v 0 -32 0
v -480 -96 0
v -512 -96 0
v -512 -64 0
v -480 -64 0
v -448 -96 0
v -480 -96 0
v -480 -64 0
v -448 -64 0
v -416 -96 0
v -448 -96 0
v -448 -64 0
v -416 -64 0
v -384 -96 0
v -416 -96 0
v -416 -64 0
v -384 -64 0
v -352 -96 0
v -384 -96 0
v -384 -64 0
v -352 -64 0
v -320 -96 0
v -352 -96 0
v -352 -64 0
v -320 -64 0
v -288 -96 0
v -320 -96 0
v -320 -64 0
v -288 -64 0
v -256 -96 0
v -288 -96 0
v -288 -64 0
v -256 -64 0
v -224 -96 0
v -256 -96 0
v -256 -64 0
v -224 -64 0
v -192 -96 0
v -224 -96 0
v -224 -64 0
v -192 -64 0
v -160 -96 0
v -192 -96 0
v -192 -64 0
v -160 -64 0
v -128 -96 0
v -160 -96 0
v -160 -64 0
v -128 -64 0
v -96 -96 0
v -128 -96 0
v -128 -64 0
v -96 -64 0
v -64 -96 0
v -96 -96 0
v -96 -64 0
v -64 -64 0
v -32 -96 0
v -64 -96 0
v -64 -64 0
v -32 -64 0
v 0 -96 0
v -32 -96 0
v -32 -64 0
v 0 -64 0
v -480 -128 0
v -512 -128 0
v -512 -96 0
v -480 -96 0
v -448 -128 0
v -480 -128 0
v -480 -96 0
v -448 -96 0
v -416 -128 0
v -448 -128 0
v -448 -96 0
v -416 -96 0
v -384 -128 0
v -416 -128 0
v -416 -96 0
v -384 -96 0
v -352 -128 0
v -384 -128 0
v -384 -96 0
v -352 -96 0
v -320 -128 0
v -352 -128 0
v -352 -96 0
v -320 -96 0
v -288 -128 0
v -320 -128 0
v -320 -96 0
v -288 -96 0
v -256 -128 0
v -288 -128 0
v -288 -96 0
v -256 -96 0
v -224 -128 0
v -256 -128 0
v -256 -96 0
v -224 -96 0
v -192 -128 0
v -224 -128 0
v -224 -96 0
v -192 -96 0
v -160 -128 0
v -192 -128 0
v -192 -96 0
v -160 -96 0
v -128 -128 0
v -160 -128 0
v -160 -96 0
v -128 -96 0
v -96 -128 0
v -128 -128 0
v -128 -96 0
v -96 -96 0
v -64 -128 0
v -96 -128 0
v -96 -96 0
v -64 -96 0
v -32 -128 0
v -64 -128 0
v -64 -96 0
v -32 -96 0
v 0 -128 0
v -32 -128 0
v -32 -96 0
v 0 -96 0
v -480 -160 0
v -512 -160 0
v -512 -128 0
v -480 -128 0
v -448 -160 0
v -480 -160 0
v -480 -128 0
v -448 -128 0
v -416 -160 0
v -448 -160 0
v -448 -128 0
v -416 -128 0
v -384 -160 0
v -416 -160 0
v -416 -128 0
v -384 -128 0
v -352 -160 0
v -384 -160 0
v -384 -128 0
v -352 -128 0
v -320 -160 0
v -352 -160 0
v -352 -128 0
v -320 -128 0
v -288 -160 0
v -320 -160 0
v -320 -128 0
v -288 -128 0
v -256 -160 0
v -288 -160 0
v -288 -128 0
v -256 -128 0
v -224 -160 0
v -256 -160 0
v -256 -128 0
v -224 -128 0
v -192 -160 0
v -224 -160 0
v -224 -128 0
v -192 -128 0
v -160 -160 0
v -192 -160 0
v -192 -128 0
v -160 -128 0
v -128 -160 0
v -160 -160 0
v -160 -128 0
v -128 -128 0
v -96 -160 0
v -128 -160 0
v -128 -128 0
v -96 -128 0
v -64 -160 0
v -96 -160 0
v -96 -128 0
v -64 -128 0
v -32 -160 0
v -64 -160 0
v -64 -128 0
v -32 -128 0
v 0 -160 0
v -32 -160 0
v -32 -128 0
v 0 -128 0
v -480 -192 0
v -512 -192 0
v -512 -160 0
v -480 -160 0
v -448 -192 0
v -480 -192 0
v -480 -160 0
v -448 -160 0
v -416 -192 0
v -448 -192 0
v -448 -160 0
v -416 -160 0
v -384 -192 0
v -416 -192 0
v -416 -160 0
v -384 -160 0
v -352 -192 0
v -384 -192 0
v -384 -160 0
v -352 -160 0
v -320 -192 0
v -352 -192 0
v -352 -160 0
v -320 -160 0
v -288 -192 0
v -320 -192 0
v -320 -160 0
v -288 -160 0
v -256 -192 0
v -288 -192 0
v -288 -160 0
v -256 -160 0
v -224 -192 0
v -256 -192 0
v -256 -160 0
v -224 -160 0
v -192 -192 0
v -224 -192 0
v -224 -160 0
v -192 -160 0
v -160 -192 0
v -192 -192 0
v -192 -160 0
v -160 -160 0
v -128 -192 0
v -160 -192 0
v -160 -160 0
v -128 -160 0
v -96 -192 0
v -128 -192 0
v -128 -160 0
v -96 -160 0
v -64 -192 0
v -96 -192 0
v -96 -160 0
v -64 -160 0
v -32 -192 0
v -64 -192 0
v -64 -160 0
v -32 -160 0
v 0 -192 0
v -32 -192 0
v -32 -160 0
v 0 -160 0
v -480 -224 0
v -512 -224 0
v -512 -192 0
v -480 -192 0
v -448 -224 0
v -480 -224 0
v -480 -192 0
v -448 -192 0
v -416 -224 0
v -448 -224 0
v -448 -192 0
v -416 -192 0
v -384 -224 0
v -416 -224 0
v -416 -192 0
v -384 -192 0
v -352 -224 0
v -384 -224 0
v -384 -192 0
v -352 -192 0
v -320 -224 0
v -352 -224 0
v -352 -192 0
v -320 -192 0
v -288 -224 0
v -320 -224 0
v -320 -192 0
v -288 -192 0
v -256 -224 0
v -288 -224 0
v -288 -192 0
v -256 -192 0
v -224 -224 0
v -256 -224 0
v -256 -192 0
v -224 -192 0
v -192 -224 0
v -224 -224 0
v -224 -192 0
v -192 -192 0
v -160 -224 0
v -192 -224 0
v -192 -192 0
v -160 -192 0
v -128 -224 0
v -160 -224 0
v -160 -192 0
v -128 -192 0
v -96 -224 0
v -128 -224 0
v -128 -192 0
v -96 -192 0
v -64 -224 0
v -96 -224 0
v -96 -192 0
v -64 -192 0
v -32 -224 0
v -64 -224 0
v -64 -192 0
v -32 -192 0
v 0 -224 0
v -32 -224 0
v -32 -192 0
v 0 -192 0
v -192 -256 0
v -224 -256 0
v -224 -224 0
v -192 -224 0
v -160 -256 0
v -192 -256 0
v -192 -224 0
v -160 -224 0
v -128 -256 0
v -160 -256 0
v -160 -224 0
v -128 -224 0
v -96 -256 0
v -128 -256 0
v -128 -224 0
v -96 -224 0
v -64 -256 0
v -96 -256 0
v -96 -224 0
v -64 -224 0
v -32 -256 0
v -64 -256 0
v -64 -224 0
v -32 -224 0
v 0 -256 0
v -32 -256 0
v -32 -224 0
v 0 -224 0
v -96 -288 0
v -128 -288 0
v -128 -256 0
v -96 -256 0
v -64 -288 0
v -96 -288 0
v -96 -256 0
v -64 -256 0
v -32 -288 0
v -64 -288 0
v -64 -256 0
v -32 -256 0
v 0 -288 0
v -32 -288 0
v -32 -256 0
v 0 -256 0
v -64 -320 0
v -96 -320 0
v -96 -288 0
v -64 -288 0
v -32 -320 0
v -64 -320 0
v -64 -288 0
v -32 -288 0
v 0 -320 0
v -32 -320 0
v -32 -288 0
v 0 -288 0
v -32 -352 0
v -64 -352 0
v -64 -320 0
v -32 -320 0
v 0 -352 0
v -32 -352 0
v -32 -320 0
v 0 -320 0

# Texture cooridinates (Count = 18)
vt 0.71875 0.8125
vt 0.75 0.8125
vt 0.75 0.84375
vt 0.71875 0.84375
vt 0.65625 0.8125
vt 0.6875 0.8125
vt 0.6875 0.84375
vt 0.65625 0.84375
vt 0.6875 0.65625
vt 0.71875 0.65625
vt 0.71875 0.6875
vt 0.6875 0.6875
vt 0.6875 0.96875
vt 0.71875 0.96875
vt 0.71875 1
vt 0.6875 1
vt 0.75 0.65625
vt 0.75 0.6875

# Normal
vn 0 0 -1

# Mesh description
g Plage32_mesh_0048

# Faces
f 1/1/1 2/2/1 3/3/1 4/4/1
f 5/5/1 6/6/1 7/7/1 8/8/1
f 9/5/1 10/6/1 11/7/1 12/8/1
f 13/6/1 14/1/1 15/4/1 16/7/1
f 17/1/1 18/2/1 19/3/1 20/4/1
f 21/1/1 22/2/1 23/3/1 24/4/1
f 25/6/1 26/1/1 27/4/1 28/7/1
f 29/6/1 30/1/1 31/4/1 32/7/1
f 33/5/1 34/6/1 35/7/1 36/8/1
f 37/5/1 38/6/1 39/7/1 40/8/1
f 41/6/1 42/1/1 43/4/1 44/7/1
f 45/5/1 46/6/1 47/7/1 48/8/1
f 49/5/1 50/6/1 51/7/1 52/8/1
f 53/5/1 54/6/1 55/7/1 56/8/1
f 57/1/1 58/2/1 59/3/1 60/4/1
f 61/6/1 62/1/1 63/4/1 64/7/1
f 65/5/1 66/6/1 67/7/1 68/8/1
f 69/5/1 70/6/1 71/7/1 72/8/1
f 73/1/1 74/2/1 75/3/1 76/4/1
f 77/6/1 78/1/1 79/4/1 80/7/1
f 81/1/1 82/2/1 83/3/1 84/4/1
f 85/6/1 86/1/1 87/4/1 88/7/1
f 89/5/1 90/6/1 91/7/1 92/8/1
f 93/5/1 94/6/1 95/7/1 96/8/1
f 97/6/1 98/1/1 99/4/1 100/7/1
f 101/1/1 102/2/1 103/3/1 104/4/1
f 105/6/1 106/1/1 107/4/1 108/7/1
f 109/5/1 110/6/1 111/7/1 112/8/1
f 113/5/1 114/6/1 115/7/1 116/8/1
f 117/1/1 118/2/1 119/3/1 120/4/1
f 121/6/1 122/1/1 123/4/1 124/7/1
f 125/1/1 126/2/1 127/3/1 128/4/1
f 129/1/1 130/2/1 131/3/1 132/4/1
f 133/5/1 134/6/1 135/7/1 136/8/1
f 137/5/1 138/6/1 139/7/1 140/8/1
f 141/1/1 142/2/1 143/3/1 144/4/1
f 145/5/1 146/6/1 147/7/1 148/8/1
f 149/6/1 150/1/1 151/4/1 152/7/1
f 153/1/1 154/2/1 155/3/1 156/4/1
f 157/1/1 158/2/1 159/3/1 160/4/1
f 161/1/1 162/2/1 163/3/1 164/4/1
f 165/5/1 166/6/1 167/7/1 168/8/1
f 169/5/1 170/6/1 171/7/1 172/8/1
f 173/6/1 174/1/1 175/4/1 176/7/1
f 177/6/1 178/1/1 179/4/1 180/7/1
f 181/5/1 182/6/1 183/7/1 184/8/1
f 185/1/1 186/2/1 187/3/1 188/4/1
f 189/6/1 190/1/1 191/4/1 192/7/1
f 193/5/1 194/6/1 195/7/1 196/8/1
f 197/1/1 198/2/1 199/3/1 200/4/1
f 201/5/1 202/6/1 203/7/1 204/8/1
f 205/1/1 206/2/1 207/3/1 208/4/1
f 209/1/1 210/2/1 211/3/1 212/4/1
f 213/1/1 214/2/1 215/3/1 216/4/1
f 217/5/1 218/6/1 219/7/1 220/8/1
f 221/6/1 222/1/1 223/4/1 224/7/1
f 225/5/1 226/6/1 227/7/1 228/8/1
f 229/5/1 230/6/1 231/7/1 232/8/1
f 233/1/1 234/2/1 235/3/1 236/4/1
f 237/5/1 238/6/1 239/7/1 240/8/1
f 241/1/1 242/2/1 243/3/1 244/4/1
f 245/5/1 246/6/1 247/7/1 248/8/1
f 249/5/1 250/6/1 251/7/1 252/8/1
f 253/6/1 254/1/1 255/4/1 256/7/1
f 257/6/1 258/1/1 259/4/1 260/7/1
f 261/6/1 262/1/1 263/4/1 264/7/1
f 265/6/1 266/1/1 267/4/1 268/7/1
f 269/6/1 270/1/1 271/4/1 272/7/1
f 273/6/1 274/1/1 275/4/1 276/7/1
f 277/5/1 278/6/1 279/7/1 280/8/1
f 281/1/1 282/2/1 283/3/1 284/4/1
f 285/6/1 286/1/1 287/4/1 288/7/1
f 289/1/1 290/2/1 291/3/1 292/4/1
f 293/1/1 294/2/1 295/3/1 296/4/1
f 297/6/1 298/1/1 299/4/1 300/7/1
f 301/6/1 302/1/1 303/4/1 304/7/1
f 305/1/1 306/2/1 307/3/1 308/4/1
f 309/5/1 310/6/1 311/7/1 312/8/1
f 313/6/1 314/1/1 315/4/1 316/7/1
f 317/6/1 318/1/1 319/4/1 320/7/1
f 321/5/1 322/6/1 323/7/1 324/8/1
f 325/6/1 326/1/1 327/4/1 328/7/1
f 329/6/1 330/1/1 331/4/1 332/7/1
f 333/6/1 334/1/1 335/4/1 336/7/1
f 337/1/1 338/2/1 339/3/1 340/4/1
f 341/1/1 342/2/1 343/3/1 344/4/1
f 345/1/1 346/2/1 347/3/1 348/4/1
f 349/6/1 350/1/1 351/4/1 352/7/1
f 353/6/1 354/1/1 355/4/1 356/7/1
f 357/6/1 358/1/1 359/4/1 360/7/1
f 361/5/1 362/6/1 363/7/1 364/8/1
f 365/6/1 366/1/1 367/4/1 368/7/1
f 369/5/1 370/6/1 371/7/1 372/8/1
f 373/6/1 374/1/1 375/4/1 376/7/1
f 377/5/1 378/6/1 379/7/1 380/8/1
f 381/6/1 382/1/1 383/4/1 384/7/1
f 385/9/1 386/10/1 387/11/1 388/12/1
f 389/9/1 390/10/1 391/11/1 392/12/1
f 393/9/1 394/10/1 395/11/1 396/12/1
f 397/9/1 398/10/1 399/11/1 400/12/1
f 401/9/1 402/10/1 403/11/1 404/12/1
f 405/9/1 406/10/1 407/11/1 408/12/1
f 409/9/1 410/10/1 411/11/1 412/12/1
f 413/9/1 414/10/1 415/11/1 416/12/1
f 417/9/1 418/10/1 419/11/1 420/12/1
f 421/13/1 422/14/1 423/15/1 424/16/1
f 425/6/1 426/1/1 427/4/1 428/7/1
f 429/6/1 430/1/1 431/4/1 432/7/1
f 433/1/1 434/2/1 435/3/1 436/4/1
f 437/1/1 438/2/1 439/3/1 440/4/1
f 441/6/1 442/1/1 443/4/1 444/7/1
f 445/6/1 446/1/1 447/4/1 448/7/1
f 449/10/1 450/17/1 451/18/1 452/11/1
f 453/9/1 454/10/1 455/11/1 456/12/1
f 457/9/1 458/10/1 459/11/1 460/12/1
f 461/6/1 462/1/1 463/4/1 464/7/1
f 465/1/1 466/2/1 467/3/1 468/4/1
f 469/6/1 470/1/1 471/4/1 472/7/1
f 473/1/1 474/2/1 475/3/1 476/4/1
f 477/10/1 478/17/1 479/18/1 480/11/1
f 481/13/1 482/14/1 483/15/1 484/16/1
f 485/5/1 486/6/1 487/7/1 488/8/1
f 489/1/1 490/2/1 491/3/1 492/4/1
f 493/10/1 494/17/1 495/18/1 496/11/1
f 497/13/1 498/14/1 499/15/1 500/16/1
f 501/6/1 502/1/1 503/4/1 504/7/1
f 505/10/1 506/17/1 507/18/1 508/11/1
f 509/13/1 510/14/1 511/15/1 512/16/1

