# Tiled2Unity generated file. Do not modify by hand.
# Wavefront file for 'TerrainTest_mesh_0005.obj'

# Vertices (Count = 296)
v -224 -48 0
v -256 -48 0
v -256 -16 0
v -224 -16 0
v -128 -48 0
v -160 -48 0
v -160 -16 0
v -128 -16 0
v -464 -64 0
v -496 -64 0
v -496 -32 0
v -464 -32 0
v -368 -64 0
v -400 -64 0
v -400 -32 0
v -368 -32 0
v -224 -80 0
v -256 -80 0
v -256 -48 0
v -224 -48 0
v -128 -80 0
v -160 -80 0
v -160 -48 0
v -128 -48 0
v -464 -96 0
v -496 -96 0
v -496 -64 0
v -464 -64 0
v -368 -96 0
v -400 -96 0
v -400 -64 0
v -368 -64 0
v -416 -112 0
v -448 -112 0
v -448 -80 0
v -416 -80 0
v -208 -112 0
v -240 -112 0
v -240 -80 0
v -208 -80 0
v -288 -128 0
v -320 -128 0
v -320 -96 0
v -288 -96 0
v -416 -144 0
v -448 -144 0
v -448 -112 0
v -416 -112 0
v -352 -144 0
v -384 -144 0
v -384 -112 0
v -352 -112 0
v -208 -144 0
v -240 -144 0
v -240 -112 0
v -208 -112 0
v -288 -160 0
v -320 -160 0
v -320 -128 0
v -288 -128 0
v -352 -176 0
v -384 -176 0
v -384 -144 0
v -352 -144 0
v -80 -240 0
v -112 -240 0
v -112 -208 0
v -80 -208 0
v -48 -240 0
v -80 -240 0
v -80 -208 0
v -48 -208 0
v -80 -272 0
v -112 -272 0
v -112 -240 0
v -80 -240 0
v -48 -272 0
v -80 -272 0
v -80 -240 0
v -48 -240 0
v -672 -720 0
v -704 -720 0
v -704 -688 0
v -672 -688 0
v -640 -720 0
v -672 -720 0
v -672 -688 0
v -640 -688 0
v -608 -720 0
v -640 -720 0
v -640 -688 0
v -608 -688 0
v -1024 -736 0
v -1056 -736 0
v -1056 -704 0
v -1024 -704 0
v -992 -736 0
v -1024 -736 0
v -1024 -704 0
v -992 -704 0
v -960 -736 0
v -992 -736 0
v -992 -704 0
v -960 -704 0
v -928 -736 0
v -960 -736 0
v -960 -704 0
v -928 -704 0
v -896 -736 0
v -928 -736 0
v -928 -704 0
v -896 -704 0
v -864 -736 0
v -896 -736 0
v -896 -704 0
v -864 -704 0
v -672 -752 0
v -704 -752 0
v -704 -720 0
v -672 -720 0
v -640 -752 0
v -672 -752 0
v -672 -720 0
v -640 -720 0
v -608 -752 0
v -640 -752 0
v -640 -720 0
v -608 -720 0
v -1024 -768 0
v -1056 -768 0
v -1056 -736 0
v -1024 -736 0
v -992 -768 0
v -1024 -768 0
v -1024 -736 0
v -992 -736 0
v -960 -768 0
v -992 -768 0
v -992 -736 0
v -960 -736 0
v -928 -768 0
v -960 -768 0
v -960 -736 0
v -928 -736 0
v -896 -768 0
v -928 -768 0
v -928 -736 0
v -896 -736 0
v -864 -768 0
v -896 -768 0
v -896 -736 0
v -864 -736 0
v -672 -784 0
v -704 -784 0
v -704 -752 0
v -672 -752 0
v -608 -784 0
v -640 -784 0
v -640 -752 0
v -608 -752 0
v -1024 -800 0
v -1056 -800 0
v -1056 -768 0
v -1024 -768 0
v -992 -800 0
v -1024 -800 0
v -1024 -768 0
v -992 -768 0
v -960 -800 0
v -992 -800 0
v -992 -768 0
v -960 -768 0
v -928 -800 0
v -960 -800 0
v -960 -768 0
v -928 -768 0
v -896 -800 0
v -928 -800 0
v -928 -768 0
v -896 -768 0
v -864 -800 0
v -896 -800 0
v -896 -768 0
v -864 -768 0
v -1024 -832 0
v -1056 -832 0
v -1056 -800 0
v -1024 -800 0
v -992 -832 0
v -1024 -832 0
v -1024 -800 0
v -992 -800 0
v -960 -832 0
v -992 -832 0
v -992 -800 0
v -960 -800 0
v -928 -832 0
v -960 -832 0
v -960 -800 0
v -928 -800 0
v -896 -832 0
v -928 -832 0
v -928 -800 0
v -896 -800 0
v -864 -832 0
v -896 -832 0
v -896 -800 0
v -864 -800 0
v -1024 -864 0
v -1056 -864 0
v -1056 -832 0
v -1024 -832 0
v -992 -864 0
v -1024 -864 0
v -1024 -832 0
v -992 -832 0
v -960 -864 0
v -992 -864 0
v -992 -832 0
v -960 -832 0
v -928 -864 0
v -960 -864 0
v -960 -832 0
v -928 -832 0
v -896 -864 0
v -928 -864 0
v -928 -832 0
v -896 -832 0
v -864 -864 0
v -896 -864 0
v -896 -832 0
v -864 -832 0
v -1024 -896 0
v -1056 -896 0
v -1056 -864 0
v -1024 -864 0
v -992 -896 0
v -1024 -896 0
v -1024 -864 0
v -992 -864 0
v -960 -896 0
v -992 -896 0
v -992 -864 0
v -960 -864 0
v -928 -896 0
v -960 -896 0
v -960 -864 0
v -928 -864 0
v -896 -896 0
v -928 -896 0
v -928 -864 0
v -896 -864 0
v -864 -896 0
v -896 -896 0
v -896 -864 0
v -864 -864 0
v -1024 -928 0
v -1056 -928 0
v -1056 -896 0
v -1024 -896 0
v -992 -928 0
v -1024 -928 0
v -1024 -896 0
v -992 -896 0
v -960 -928 0
v -992 -928 0
v -992 -896 0
v -960 -896 0
v -928 -928 0
v -960 -928 0
v -960 -896 0
v -928 -896 0
v -896 -928 0
v -928 -928 0
v -928 -896 0
v -896 -896 0
v -864 -928 0
v -896 -928 0
v -896 -896 0
v -864 -896 0
v -256 -960 0
v -288 -960 0
v -288 -928 0
v -256 -928 0
v -256 -992 0
v -288 -992 0
v -288 -960 0
v -256 -960 0
v -400 -1056 0
v -432 -1056 0
v -432 -1024 0
v -400 -1024 0
v -400 -1088 0
v -432 -1088 0
v -432 -1056 0
v -400 -1056 0

# Texture cooridinates (Count = 74)
vt 0.96875 0.3125
vt 1 0.3125
vt 1 0.34375
vt 0.96875 0.34375
vt 0.96875 0.28125
vt 1 0.28125
vt 0.84375 0.3125
vt 0.875 0.3125
vt 0.875 0.34375
vt 0.84375 0.34375
vt 0.8125 0.3125
vt 0.8125 0.34375
vt 0.84375 0.28125
vt 0.875 0.28125
vt 0.8125 0.28125
vt 0.5625 0.46875
vt 0.59375 0.46875
vt 0.59375 0.5
vt 0.5625 0.5
vt 0.53125 0.46875
vt 0.53125 0.5
vt 0.5 0.46875
vt 0.5 0.5
vt 0.21875 0.96875
vt 0.25 0.96875
vt 0.25 1
vt 0.21875 1
vt 0.1875 0.96875
vt 0.1875 1
vt 0.15625 0.96875
vt 0.15625 1
vt 0.5625 0.4375
vt 0.59375 0.4375
vt 0.53125 0.4375
vt 0.5 0.4375
vt 0.21875 0.9375
vt 0.25 0.9375
vt 0.1875 0.9375
vt 0.15625 0.9375
vt 0.5625 0.40625
vt 0.59375 0.40625
vt 0.5 0.40625
vt 0.53125 0.40625
vt 0.21875 0.90625
vt 0.25 0.90625
vt 0.1875 0.90625
vt 0.0625 0.8125
vt 0.09375 0.8125
vt 0.09375 0.84375
vt 0.0625 0.84375
vt 0.03125 0.8125
vt 0.03125 0.84375
vt 0.15625 0.90625
vt 0.21875 0.875
vt 0.25 0.875
vt 0.03125 0.875
vt 0.0625 0.875
vt 0.0625 0.90625
vt 0.03125 0.90625
vt 0.0625 0.78125
vt 0.09375 0.78125
vt 0.03125 0.78125
vt 0.15625 0.875
vt 0.1875 0.875
vt 0.21875 0.84375
vt 0.25 0.84375
vt 0.1875 0.84375
vt 0.0625 0.75
vt 0.09375 0.75
vt 0.03125 0.75
vt 0.15625 0.84375
vt 0.9375 0.3125
vt 0.9375 0.34375
vt 0.9375 0.28125

# Normal
vn 0 0 -1

# Mesh description
g TerrainTest_mesh_0005

# Faces
f 1/1/1 2/2/1 3/3/1 4/4/1
f 5/1/1 6/2/1 7/3/1 8/4/1
f 9/1/1 10/2/1 11/3/1 12/4/1
f 13/1/1 14/2/1 15/3/1 16/4/1
f 17/5/1 18/6/1 19/2/1 20/1/1
f 21/5/1 22/6/1 23/2/1 24/1/1
f 25/5/1 26/6/1 27/2/1 28/1/1
f 29/5/1 30/6/1 31/2/1 32/1/1
f 33/1/1 34/2/1 35/3/1 36/4/1
f 37/1/1 38/2/1 39/3/1 40/4/1
f 41/1/1 42/2/1 43/3/1 44/4/1
f 45/5/1 46/6/1 47/2/1 48/1/1
f 49/1/1 50/2/1 51/3/1 52/4/1
f 53/5/1 54/6/1 55/2/1 56/1/1
f 57/5/1 58/6/1 59/2/1 60/1/1
f 61/5/1 62/6/1 63/2/1 64/1/1
f 65/7/1 66/8/1 67/9/1 68/10/1
f 69/11/1 70/7/1 71/10/1 72/12/1
f 73/13/1 74/14/1 75/8/1 76/7/1
f 77/15/1 78/13/1 79/7/1 80/11/1
f 81/16/1 82/17/1 83/18/1 84/19/1
f 85/20/1 86/16/1 87/19/1 88/21/1
f 89/22/1 90/20/1 91/21/1 92/23/1
f 93/24/1 94/25/1 95/26/1 96/27/1
f 97/28/1 98/24/1 99/27/1 100/29/1
f 101/28/1 102/24/1 103/27/1 104/29/1
f 105/28/1 106/24/1 107/27/1 108/29/1
f 109/28/1 110/24/1 111/27/1 112/29/1
f 113/30/1 114/28/1 115/29/1 116/31/1
f 117/32/1 118/33/1 119/17/1 120/16/1
f 121/34/1 122/32/1 123/16/1 124/20/1
f 125/35/1 126/34/1 127/20/1 128/22/1
f 129/36/1 130/37/1 131/25/1 132/24/1
f 133/38/1 134/36/1 135/24/1 136/28/1
f 137/38/1 138/36/1 139/24/1 140/28/1
f 141/38/1 142/36/1 143/24/1 144/28/1
f 145/38/1 146/36/1 147/24/1 148/28/1
f 149/39/1 150/38/1 151/28/1 152/30/1
f 153/40/1 154/41/1 155/33/1 156/32/1
f 157/42/1 158/43/1 159/34/1 160/35/1
f 161/36/1 162/37/1 163/25/1 164/24/1
f 165/38/1 166/36/1 167/24/1 168/28/1
f 169/38/1 170/36/1 171/24/1 172/28/1
f 173/38/1 174/36/1 175/24/1 176/28/1
f 177/38/1 178/36/1 179/24/1 180/28/1
f 181/39/1 182/38/1 183/28/1 184/30/1
f 185/36/1 186/37/1 187/25/1 188/24/1
f 189/38/1 190/36/1 191/24/1 192/28/1
f 193/38/1 194/36/1 195/24/1 196/28/1
f 197/38/1 198/36/1 199/24/1 200/28/1
f 201/38/1 202/36/1 203/24/1 204/28/1
f 205/39/1 206/38/1 207/28/1 208/30/1
f 209/44/1 210/45/1 211/37/1 212/36/1
f 213/46/1 214/44/1 215/36/1 216/38/1
f 217/47/1 218/48/1 219/49/1 220/50/1
f 221/51/1 222/47/1 223/50/1 224/52/1
f 225/46/1 226/44/1 227/36/1 228/38/1
f 229/53/1 230/46/1 231/38/1 232/39/1
f 233/54/1 234/55/1 235/45/1 236/44/1
f 237/56/1 238/57/1 239/58/1 240/59/1
f 241/60/1 242/61/1 243/48/1 244/47/1
f 245/62/1 246/60/1 247/47/1 248/51/1
f 249/56/1 250/57/1 251/58/1 252/59/1
f 253/63/1 254/64/1 255/46/1 256/53/1
f 257/65/1 258/66/1 259/55/1 260/54/1
f 261/67/1 262/65/1 263/54/1 264/64/1
f 265/68/1 266/69/1 267/61/1 268/60/1
f 269/70/1 270/68/1 271/60/1 272/62/1
f 273/67/1 274/65/1 275/54/1 276/64/1
f 277/71/1 278/67/1 279/64/1 280/63/1
f 281/72/1 282/1/1 283/4/1 284/73/1
f 285/74/1 286/5/1 287/1/1 288/72/1
f 289/72/1 290/1/1 291/4/1 292/73/1
f 293/74/1 294/5/1 295/1/1 296/72/1

