# Tiled2Unity generated file. Do not modify by hand.
# Wavefront file for 'Int?rieur_maison_type_mesh_0004.obj'

# Vertices (Count = 136)
v -240 -16 0
v -256 -16 0
v -256 0 0
v -240 0 0
v 0 -16 0
v -16 -16 0
v -16 0 0
v 0 0 0
v -240 -32 0
v -256 -32 0
v -256 -16 0
v -240 -16 0
v 0 -32 0
v -16 -32 0
v -16 -16 0
v 0 -16 0
v -240 -48 0
v -256 -48 0
v -256 -32 0
v -240 -32 0
v 0 -48 0
v -16 -48 0
v -16 -32 0
v 0 -32 0
v -240 -64 0
v -256 -64 0
v -256 -48 0
v -240 -48 0
v 0 -64 0
v -16 -64 0
v -16 -48 0
v 0 -48 0
v -240 -80 0
v -256 -80 0
v -256 -64 0
v -240 -64 0
v 0 -80 0
v -16 -80 0
v -16 -64 0
v 0 -64 0
v -240 -96 0
v -256 -96 0
v -256 -80 0
v -240 -80 0
v 0 -96 0
v -16 -96 0
v -16 -80 0
v 0 -80 0
v -240 -112 0
v -256 -112 0
v -256 -96 0
v -240 -96 0
v 0 -112 0
v -16 -112 0
v -16 -96 0
v 0 -96 0
v -240 -128 0
v -256 -128 0
v -256 -112 0
v -240 -112 0
v 0 -128 0
v -16 -128 0
v -16 -112 0
v 0 -112 0
v -240 -144 0
v -256 -144 0
v -256 -128 0
v -240 -128 0
v 0 -144 0
v -16 -144 0
v -16 -128 0
v 0 -128 0
v -240 -160 0
v -256 -160 0
v -256 -144 0
v -240 -144 0
v 0 -160 0
v -16 -160 0
v -16 -144 0
v 0 -144 0
v -240 -176 0
v -256 -176 0
v -256 -160 0
v -240 -160 0
v 0 -176 0
v -16 -176 0
v -16 -160 0
v 0 -160 0
v -240 -192 0
v -256 -192 0
v -256 -176 0
v -240 -176 0
v -224 -192 0
v -240 -192 0
v -240 -176 0
v -224 -176 0
v -208 -192 0
v -224 -192 0
v -224 -176 0
v -208 -176 0
v -192 -192 0
v -208 -192 0
v -208 -176 0
v -192 -176 0
v -176 -192 0
v -192 -192 0
v -192 -176 0
v -176 -176 0
v -160 -192 0
v -176 -192 0
v -176 -176 0
v -160 -176 0
v -80 -192 0
v -96 -192 0
v -96 -176 0
v -80 -176 0
v -64 -192 0
v -80 -192 0
v -80 -176 0
v -64 -176 0
v -48 -192 0
v -64 -192 0
v -64 -176 0
v -48 -176 0
v -32 -192 0
v -48 -192 0
v -48 -176 0
v -32 -176 0
v -16 -192 0
v -32 -192 0
v -32 -176 0
v -16 -176 0
v 0 -192 0
v -16 -192 0
v -16 -176 0
v 0 -176 0

# Texture cooridinates (Count = 16)
vt 0.34375 0.5
vt 0.375 0.5
vt 0.375 0.5333333
vt 0.34375 0.5333333
vt 0.25 0.5333333
vt 0.28125 0.5333333
vt 0.28125 0.5666667
vt 0.25 0.5666667
vt 0.25 0.5
vt 0.28125 0.5
vt 0.34375 0.4666666
vt 0.375 0.4666666
vt 0.3125 0.4666666
vt 0.3125 0.5
vt 0.28125 0.4666666
vt 0.25 0.4666666

# Normal
vn 0 0 -1

# Mesh description
g Int?rieur_maison_type_mesh_0004

# Faces
f 1/1/1 2/2/1 3/3/1 4/4/1
f 5/5/1 6/6/1 7/7/1 8/8/1
f 9/1/1 10/2/1 11/3/1 12/4/1
f 13/5/1 14/6/1 15/7/1 16/8/1
f 17/1/1 18/2/1 19/3/1 20/4/1
f 21/5/1 22/6/1 23/7/1 24/8/1
f 25/1/1 26/2/1 27/3/1 28/4/1
f 29/5/1 30/6/1 31/7/1 32/8/1
f 33/1/1 34/2/1 35/3/1 36/4/1
f 37/5/1 38/6/1 39/7/1 40/8/1
f 41/1/1 42/2/1 43/3/1 44/4/1
f 45/5/1 46/6/1 47/7/1 48/8/1
f 49/1/1 50/2/1 51/3/1 52/4/1
f 53/9/1 54/10/1 55/6/1 56/5/1
f 57/1/1 58/2/1 59/3/1 60/4/1
f 61/9/1 62/10/1 63/6/1 64/5/1
f 65/1/1 66/2/1 67/3/1 68/4/1
f 69/9/1 70/10/1 71/6/1 72/5/1
f 73/1/1 74/2/1 75/3/1 76/4/1
f 77/9/1 78/10/1 79/6/1 80/5/1
f 81/1/1 82/2/1 83/3/1 84/4/1
f 85/9/1 86/10/1 87/6/1 88/5/1
f 89/11/1 90/12/1 91/2/1 92/1/1
f 93/13/1 94/11/1 95/1/1 96/14/1
f 97/13/1 98/11/1 99/1/1 100/14/1
f 101/13/1 102/11/1 103/1/1 104/14/1
f 105/13/1 106/11/1 107/1/1 108/14/1
f 109/13/1 110/11/1 111/1/1 112/14/1
f 113/15/1 114/13/1 115/14/1 116/10/1
f 117/15/1 118/13/1 119/14/1 120/10/1
f 121/15/1 122/13/1 123/14/1 124/10/1
f 125/15/1 126/13/1 127/14/1 128/10/1
f 129/15/1 130/13/1 131/14/1 132/10/1
f 133/16/1 134/15/1 135/10/1 136/9/1

