# Tiled2Unity generated file. Do not modify by hand.
# Wavefront file for 'Village_mesh_0101.obj'

# Vertices (Count = 68)
v -160 -48 0
v -176 -48 0
v -176 -32 0
v -160 -32 0
v -144 -48 0
v -160 -48 0
v -160 -32 0
v -144 -32 0
v -128 -48 0
v -144 -48 0
v -144 -32 0
v -128 -32 0
v -160 -64 0
v -176 -64 0
v -176 -48 0
v -160 -48 0
v -144 -64 0
v -160 -64 0
v -160 -48 0
v -144 -48 0
v -128 -64 0
v -144 -64 0
v -144 -48 0
v -128 -48 0
v -160 -80 0
v -176 -80 0
v -176 -64 0
v -160 -64 0
v -144 -80 0
v -160 -80 0
v -160 -64 0
v -144 -64 0
v -128 -80 0
v -144 -80 0
v -144 -64 0
v -128 -64 0
v -176 -112 0
v -192 -112 0
v -192 -96 0
v -176 -96 0
v -160 -112 0
v -176 -112 0
v -176 -96 0
v -160 -96 0
v -176 -128 0
v -192 -128 0
v -192 -112 0
v -176 -112 0
v -160 -128 0
v -176 -128 0
v -176 -112 0
v -160 -112 0
v -32 -128 0
v -48 -128 0
v -48 -112 0
v -32 -112 0
v -16 -128 0
v -32 -128 0
v -32 -112 0
v -16 -112 0
v -32 -144 0
v -48 -144 0
v -48 -128 0
v -32 -128 0
v -16 -144 0
v -32 -144 0
v -32 -128 0
v -16 -128 0

# Texture cooridinates (Count = 25)
vt 0.675 0.7222222
vt 0.7 0.7222222
vt 0.7 0.75
vt 0.675 0.75
vt 0.65 0.7222222
vt 0.65 0.75
vt 0.625 0.7222222
vt 0.625 0.75
vt 0.675 0.6944444
vt 0.7 0.6944444
vt 0.65 0.6944444
vt 0.625 0.6944444
vt 0.675 0.6666666
vt 0.7 0.6666666
vt 0.65 0.6666666
vt 0.625 0.6666666
vt 0.125 0.9444444
vt 0.15 0.9444444
vt 0.15 0.9722222
vt 0.125 0.9722222
vt 0.1 0.9444444
vt 0.1 0.9722222
vt 0.125 0.9166667
vt 0.15 0.9166667
vt 0.1 0.9166667

# Normal
vn 0 0 -1

# Mesh description
g Village_mesh_0101

# Faces
f 1/1/1 2/2/1 3/3/1 4/4/1
f 5/5/1 6/1/1 7/4/1 8/6/1
f 9/7/1 10/5/1 11/6/1 12/8/1
f 13/9/1 14/10/1 15/2/1 16/1/1
f 17/11/1 18/9/1 19/1/1 20/5/1
f 21/12/1 22/11/1 23/5/1 24/7/1
f 25/13/1 26/14/1 27/10/1 28/9/1
f 29/15/1 30/13/1 31/9/1 32/11/1
f 33/16/1 34/15/1 35/11/1 36/12/1
f 37/17/1 38/18/1 39/19/1 40/20/1
f 41/21/1 42/17/1 43/20/1 44/22/1
f 45/23/1 46/24/1 47/18/1 48/17/1
f 49/25/1 50/23/1 51/17/1 52/21/1
f 53/17/1 54/18/1 55/19/1 56/20/1
f 57/21/1 58/17/1 59/20/1 60/22/1
f 61/23/1 62/24/1 63/18/1 64/17/1
f 65/25/1 66/23/1 67/17/1 68/21/1

