# Tiled2Unity generated file. Do not modify by hand.
# Wavefront file for 'Village_mesh_0100.obj'

# Vertices (Count = 16)
v -144 -16 0
v -160 -16 0
v -160 0 0
v -144 0 0
v -128 -16 0
v -144 -16 0
v -144 0 0
v -128 0 0
v -80 -32 0
v -96 -32 0
v -96 -16 0
v -80 -16 0
v -64 -32 0
v -80 -32 0
v -80 -16 0
v -64 -16 0

# Texture cooridinates (Count = 12)
vt 0.046875 0.2857143
vt 0.0625 0.2857143
vt 0.0625 0.2936508
vt 0.046875 0.2936508
vt 0.03125 0.2857143
vt 0.03125 0.2936508
vt 0.140625 0.2380952
vt 0.15625 0.2380952
vt 0.15625 0.2460318
vt 0.140625 0.2460318
vt 0.125 0.2380952
vt 0.125 0.2460318

# Normal
vn 0 0 -1

# Mesh description
g Village_mesh_0100

# Faces
f 1/1/1 2/2/1 3/3/1 4/4/1
f 5/5/1 6/1/1 7/4/1 8/6/1
f 9/7/1 10/8/1 11/9/1 12/10/1
f 13/11/1 14/7/1 15/10/1 16/12/1

