# Tiled2Unity generated file. Do not modify by hand.
# Wavefront file for 'Village_mesh_0021.obj'

# Vertices (Count = 1024)
v -240 -16 0
v -256 -16 0
v -256 0 0
v -240 0 0
v -224 -16 0
v -240 -16 0
v -240 0 0
v -224 0 0
v -208 -16 0
v -224 -16 0
v -224 0 0
v -208 0 0
v -192 -16 0
v -208 -16 0
v -208 0 0
v -192 0 0
v -176 -16 0
v -192 -16 0
v -192 0 0
v -176 0 0
v -160 -16 0
v -176 -16 0
v -176 0 0
v -160 0 0
v -144 -16 0
v -160 -16 0
v -160 0 0
v -144 0 0
v -128 -16 0
v -144 -16 0
v -144 0 0
v -128 0 0
v -112 -16 0
v -128 -16 0
v -128 0 0
v -112 0 0
v -96 -16 0
v -112 -16 0
v -112 0 0
v -96 0 0
v -80 -16 0
v -96 -16 0
v -96 0 0
v -80 0 0
v -64 -16 0
v -80 -16 0
v -80 0 0
v -64 0 0
v -48 -16 0
v -64 -16 0
v -64 0 0
v -48 0 0
v -32 -16 0
v -48 -16 0
v -48 0 0
v -32 0 0
v -16 -16 0
v -32 -16 0
v -32 0 0
v -16 0 0
v 0 -16 0
v -16 -16 0
v -16 0 0
v 0 0 0
v -240 -32 0
v -256 -32 0
v -256 -16 0
v -240 -16 0
v -224 -32 0
v -240 -32 0
v -240 -16 0
v -224 -16 0
v -208 -32 0
v -224 -32 0
v -224 -16 0
v -208 -16 0
v -192 -32 0
v -208 -32 0
v -208 -16 0
v -192 -16 0
v -176 -32 0
v -192 -32 0
v -192 -16 0
v -176 -16 0
v -160 -32 0
v -176 -32 0
v -176 -16 0
v -160 -16 0
v -144 -32 0
v -160 -32 0
v -160 -16 0
v -144 -16 0
v -128 -32 0
v -144 -32 0
v -144 -16 0
v -128 -16 0
v -112 -32 0
v -128 -32 0
v -128 -16 0
v -112 -16 0
v -96 -32 0
v -112 -32 0
v -112 -16 0
v -96 -16 0
v -80 -32 0
v -96 -32 0
v -96 -16 0
v -80 -16 0
v -64 -32 0
v -80 -32 0
v -80 -16 0
v -64 -16 0
v -48 -32 0
v -64 -32 0
v -64 -16 0
v -48 -16 0
v -32 -32 0
v -48 -32 0
v -48 -16 0
v -32 -16 0
v -16 -32 0
v -32 -32 0
v -32 -16 0
v -16 -16 0
v 0 -32 0
v -16 -32 0
v -16 -16 0
v 0 -16 0
v -240 -48 0
v -256 -48 0
v -256 -32 0
v -240 -32 0
v -224 -48 0
v -240 -48 0
v -240 -32 0
v -224 -32 0
v -208 -48 0
v -224 -48 0
v -224 -32 0
v -208 -32 0
v -192 -48 0
v -208 -48 0
v -208 -32 0
v -192 -32 0
v -176 -48 0
v -192 -48 0
v -192 -32 0
v -176 -32 0
v -160 -48 0
v -176 -48 0
v -176 -32 0
v -160 -32 0
v -144 -48 0
v -160 -48 0
v -160 -32 0
v -144 -32 0
v -128 -48 0
v -144 -48 0
v -144 -32 0
v -128 -32 0
v -112 -48 0
v -128 -48 0
v -128 -32 0
v -112 -32 0
v -96 -48 0
v -112 -48 0
v -112 -32 0
v -96 -32 0
v -80 -48 0
v -96 -48 0
v -96 -32 0
v -80 -32 0
v -64 -48 0
v -80 -48 0
v -80 -32 0
v -64 -32 0
v -48 -48 0
v -64 -48 0
v -64 -32 0
v -48 -32 0
v -32 -48 0
v -48 -48 0
v -48 -32 0
v -32 -32 0
v -16 -48 0
v -32 -48 0
v -32 -32 0
v -16 -32 0
v 0 -48 0
v -16 -48 0
v -16 -32 0
v 0 -32 0
v -240 -64 0
v -256 -64 0
v -256 -48 0
v -240 -48 0
v -224 -64 0
v -240 -64 0
v -240 -48 0
v -224 -48 0
v -208 -64 0
v -224 -64 0
v -224 -48 0
v -208 -48 0
v -192 -64 0
v -208 -64 0
v -208 -48 0
v -192 -48 0
v -176 -64 0
v -192 -64 0
v -192 -48 0
v -176 -48 0
v -160 -64 0
v -176 -64 0
v -176 -48 0
v -160 -48 0
v -144 -64 0
v -160 -64 0
v -160 -48 0
v -144 -48 0
v -128 -64 0
v -144 -64 0
v -144 -48 0
v -128 -48 0
v -112 -64 0
v -128 -64 0
v -128 -48 0
v -112 -48 0
v -96 -64 0
v -112 -64 0
v -112 -48 0
v -96 -48 0
v -80 -64 0
v -96 -64 0
v -96 -48 0
v -80 -48 0
v -64 -64 0
v -80 -64 0
v -80 -48 0
v -64 -48 0
v -48 -64 0
v -64 -64 0
v -64 -48 0
v -48 -48 0
v -32 -64 0
v -48 -64 0
v -48 -48 0
v -32 -48 0
v -16 -64 0
v -32 -64 0
v -32 -48 0
v -16 -48 0
v 0 -64 0
v -16 -64 0
v -16 -48 0
v 0 -48 0
v -240 -80 0
v -256 -80 0
v -256 -64 0
v -240 -64 0
v -224 -80 0
v -240 -80 0
v -240 -64 0
v -224 -64 0
v -208 -80 0
v -224 -80 0
v -224 -64 0
v -208 -64 0
v -192 -80 0
v -208 -80 0
v -208 -64 0
v -192 -64 0
v -176 -80 0
v -192 -80 0
v -192 -64 0
v -176 -64 0
v -160 -80 0
v -176 -80 0
v -176 -64 0
v -160 -64 0
v -144 -80 0
v -160 -80 0
v -160 -64 0
v -144 -64 0
v -128 -80 0
v -144 -80 0
v -144 -64 0
v -128 -64 0
v -112 -80 0
v -128 -80 0
v -128 -64 0
v -112 -64 0
v -96 -80 0
v -112 -80 0
v -112 -64 0
v -96 -64 0
v -80 -80 0
v -96 -80 0
v -96 -64 0
v -80 -64 0
v -64 -80 0
v -80 -80 0
v -80 -64 0
v -64 -64 0
v -48 -80 0
v -64 -80 0
v -64 -64 0
v -48 -64 0
v -32 -80 0
v -48 -80 0
v -48 -64 0
v -32 -64 0
v -16 -80 0
v -32 -80 0
v -32 -64 0
v -16 -64 0
v 0 -80 0
v -16 -80 0
v -16 -64 0
v 0 -64 0
v -240 -96 0
v -256 -96 0
v -256 -80 0
v -240 -80 0
v -224 -96 0
v -240 -96 0
v -240 -80 0
v -224 -80 0
v -208 -96 0
v -224 -96 0
v -224 -80 0
v -208 -80 0
v -192 -96 0
v -208 -96 0
v -208 -80 0
v -192 -80 0
v -176 -96 0
v -192 -96 0
v -192 -80 0
v -176 -80 0
v -160 -96 0
v -176 -96 0
v -176 -80 0
v -160 -80 0
v -144 -96 0
v -160 -96 0
v -160 -80 0
v -144 -80 0
v -128 -96 0
v -144 -96 0
v -144 -80 0
v -128 -80 0
v -112 -96 0
v -128 -96 0
v -128 -80 0
v -112 -80 0
v -96 -96 0
v -112 -96 0
v -112 -80 0
v -96 -80 0
v -80 -96 0
v -96 -96 0
v -96 -80 0
v -80 -80 0
v -64 -96 0
v -80 -96 0
v -80 -80 0
v -64 -80 0
v -48 -96 0
v -64 -96 0
v -64 -80 0
v -48 -80 0
v -32 -96 0
v -48 -96 0
v -48 -80 0
v -32 -80 0
v -16 -96 0
v -32 -96 0
v -32 -80 0
v -16 -80 0
v 0 -96 0
v -16 -96 0
v -16 -80 0
v 0 -80 0
v -240 -112 0
v -256 -112 0
v -256 -96 0
v -240 -96 0
v -224 -112 0
v -240 -112 0
v -240 -96 0
v -224 -96 0
v -208 -112 0
v -224 -112 0
v -224 -96 0
v -208 -96 0
v -192 -112 0
v -208 -112 0
v -208 -96 0
v -192 -96 0
v -176 -112 0
v -192 -112 0
v -192 -96 0
v -176 -96 0
v -160 -112 0
v -176 -112 0
v -176 -96 0
v -160 -96 0
v -144 -112 0
v -160 -112 0
v -160 -96 0
v -144 -96 0
v -128 -112 0
v -144 -112 0
v -144 -96 0
v -128 -96 0
v -112 -112 0
v -128 -112 0
v -128 -96 0
v -112 -96 0
v -96 -112 0
v -112 -112 0
v -112 -96 0
v -96 -96 0
v -80 -112 0
v -96 -112 0
v -96 -96 0
v -80 -96 0
v -64 -112 0
v -80 -112 0
v -80 -96 0
v -64 -96 0
v -48 -112 0
v -64 -112 0
v -64 -96 0
v -48 -96 0
v -32 -112 0
v -48 -112 0
v -48 -96 0
v -32 -96 0
v -16 -112 0
v -32 -112 0
v -32 -96 0
v -16 -96 0
v 0 -112 0
v -16 -112 0
v -16 -96 0
v 0 -96 0
v -240 -128 0
v -256 -128 0
v -256 -112 0
v -240 -112 0
v -224 -128 0
v -240 -128 0
v -240 -112 0
v -224 -112 0
v -208 -128 0
v -224 -128 0
v -224 -112 0
v -208 -112 0
v -192 -128 0
v -208 -128 0
v -208 -112 0
v -192 -112 0
v -176 -128 0
v -192 -128 0
v -192 -112 0
v -176 -112 0
v -160 -128 0
v -176 -128 0
v -176 -112 0
v -160 -112 0
v -144 -128 0
v -160 -128 0
v -160 -112 0
v -144 -112 0
v -128 -128 0
v -144 -128 0
v -144 -112 0
v -128 -112 0
v -112 -128 0
v -128 -128 0
v -128 -112 0
v -112 -112 0
v -96 -128 0
v -112 -128 0
v -112 -112 0
v -96 -112 0
v -80 -128 0
v -96 -128 0
v -96 -112 0
v -80 -112 0
v -64 -128 0
v -80 -128 0
v -80 -112 0
v -64 -112 0
v -48 -128 0
v -64 -128 0
v -64 -112 0
v -48 -112 0
v -32 -128 0
v -48 -128 0
v -48 -112 0
v -32 -112 0
v -16 -128 0
v -32 -128 0
v -32 -112 0
v -16 -112 0
v 0 -128 0
v -16 -128 0
v -16 -112 0
v 0 -112 0
v -240 -144 0
v -256 -144 0
v -256 -128 0
v -240 -128 0
v -224 -144 0
v -240 -144 0
v -240 -128 0
v -224 -128 0
v -208 -144 0
v -224 -144 0
v -224 -128 0
v -208 -128 0
v -192 -144 0
v -208 -144 0
v -208 -128 0
v -192 -128 0
v -176 -144 0
v -192 -144 0
v -192 -128 0
v -176 -128 0
v -160 -144 0
v -176 -144 0
v -176 -128 0
v -160 -128 0
v -144 -144 0
v -160 -144 0
v -160 -128 0
v -144 -128 0
v -128 -144 0
v -144 -144 0
v -144 -128 0
v -128 -128 0
v -112 -144 0
v -128 -144 0
v -128 -128 0
v -112 -128 0
v -96 -144 0
v -112 -144 0
v -112 -128 0
v -96 -128 0
v -80 -144 0
v -96 -144 0
v -96 -128 0
v -80 -128 0
v -64 -144 0
v -80 -144 0
v -80 -128 0
v -64 -128 0
v -48 -144 0
v -64 -144 0
v -64 -128 0
v -48 -128 0
v -32 -144 0
v -48 -144 0
v -48 -128 0
v -32 -128 0
v -16 -144 0
v -32 -144 0
v -32 -128 0
v -16 -128 0
v 0 -144 0
v -16 -144 0
v -16 -128 0
v 0 -128 0
v -240 -160 0
v -256 -160 0
v -256 -144 0
v -240 -144 0
v -224 -160 0
v -240 -160 0
v -240 -144 0
v -224 -144 0
v -208 -160 0
v -224 -160 0
v -224 -144 0
v -208 -144 0
v -192 -160 0
v -208 -160 0
v -208 -144 0
v -192 -144 0
v -176 -160 0
v -192 -160 0
v -192 -144 0
v -176 -144 0
v -160 -160 0
v -176 -160 0
v -176 -144 0
v -160 -144 0
v -144 -160 0
v -160 -160 0
v -160 -144 0
v -144 -144 0
v -128 -160 0
v -144 -160 0
v -144 -144 0
v -128 -144 0
v -112 -160 0
v -128 -160 0
v -128 -144 0
v -112 -144 0
v -96 -160 0
v -112 -160 0
v -112 -144 0
v -96 -144 0
v -80 -160 0
v -96 -160 0
v -96 -144 0
v -80 -144 0
v -64 -160 0
v -80 -160 0
v -80 -144 0
v -64 -144 0
v -48 -160 0
v -64 -160 0
v -64 -144 0
v -48 -144 0
v -32 -160 0
v -48 -160 0
v -48 -144 0
v -32 -144 0
v -16 -160 0
v -32 -160 0
v -32 -144 0
v -16 -144 0
v 0 -160 0
v -16 -160 0
v -16 -144 0
v 0 -144 0
v -240 -176 0
v -256 -176 0
v -256 -160 0
v -240 -160 0
v -224 -176 0
v -240 -176 0
v -240 -160 0
v -224 -160 0
v -208 -176 0
v -224 -176 0
v -224 -160 0
v -208 -160 0
v -192 -176 0
v -208 -176 0
v -208 -160 0
v -192 -160 0
v -176 -176 0
v -192 -176 0
v -192 -160 0
v -176 -160 0
v -160 -176 0
v -176 -176 0
v -176 -160 0
v -160 -160 0
v -144 -176 0
v -160 -176 0
v -160 -160 0
v -144 -160 0
v -128 -176 0
v -144 -176 0
v -144 -160 0
v -128 -160 0
v -112 -176 0
v -128 -176 0
v -128 -160 0
v -112 -160 0
v -96 -176 0
v -112 -176 0
v -112 -160 0
v -96 -160 0
v -80 -176 0
v -96 -176 0
v -96 -160 0
v -80 -160 0
v -64 -176 0
v -80 -176 0
v -80 -160 0
v -64 -160 0
v -48 -176 0
v -64 -176 0
v -64 -160 0
v -48 -160 0
v -32 -176 0
v -48 -176 0
v -48 -160 0
v -32 -160 0
v -16 -176 0
v -32 -176 0
v -32 -160 0
v -16 -160 0
v 0 -176 0
v -16 -176 0
v -16 -160 0
v 0 -160 0
v -240 -192 0
v -256 -192 0
v -256 -176 0
v -240 -176 0
v -224 -192 0
v -240 -192 0
v -240 -176 0
v -224 -176 0
v -208 -192 0
v -224 -192 0
v -224 -176 0
v -208 -176 0
v -192 -192 0
v -208 -192 0
v -208 -176 0
v -192 -176 0
v -176 -192 0
v -192 -192 0
v -192 -176 0
v -176 -176 0
v -160 -192 0
v -176 -192 0
v -176 -176 0
v -160 -176 0
v -144 -192 0
v -160 -192 0
v -160 -176 0
v -144 -176 0
v -128 -192 0
v -144 -192 0
v -144 -176 0
v -128 -176 0
v -112 -192 0
v -128 -192 0
v -128 -176 0
v -112 -176 0
v -96 -192 0
v -112 -192 0
v -112 -176 0
v -96 -176 0
v -80 -192 0
v -96 -192 0
v -96 -176 0
v -80 -176 0
v -64 -192 0
v -80 -192 0
v -80 -176 0
v -64 -176 0
v -48 -192 0
v -64 -192 0
v -64 -176 0
v -48 -176 0
v -32 -192 0
v -48 -192 0
v -48 -176 0
v -32 -176 0
v -16 -192 0
v -32 -192 0
v -32 -176 0
v -16 -176 0
v 0 -192 0
v -16 -192 0
v -16 -176 0
v 0 -176 0
v -240 -208 0
v -256 -208 0
v -256 -192 0
v -240 -192 0
v -224 -208 0
v -240 -208 0
v -240 -192 0
v -224 -192 0
v -208 -208 0
v -224 -208 0
v -224 -192 0
v -208 -192 0
v -192 -208 0
v -208 -208 0
v -208 -192 0
v -192 -192 0
v -176 -208 0
v -192 -208 0
v -192 -192 0
v -176 -192 0
v -160 -208 0
v -176 -208 0
v -176 -192 0
v -160 -192 0
v -144 -208 0
v -160 -208 0
v -160 -192 0
v -144 -192 0
v -128 -208 0
v -144 -208 0
v -144 -192 0
v -128 -192 0
v -112 -208 0
v -128 -208 0
v -128 -192 0
v -112 -192 0
v -96 -208 0
v -112 -208 0
v -112 -192 0
v -96 -192 0
v -80 -208 0
v -96 -208 0
v -96 -192 0
v -80 -192 0
v -64 -208 0
v -80 -208 0
v -80 -192 0
v -64 -192 0
v -48 -208 0
v -64 -208 0
v -64 -192 0
v -48 -192 0
v -32 -208 0
v -48 -208 0
v -48 -192 0
v -32 -192 0
v -16 -208 0
v -32 -208 0
v -32 -192 0
v -16 -192 0
v 0 -208 0
v -16 -208 0
v -16 -192 0
v 0 -192 0
v -240 -224 0
v -256 -224 0
v -256 -208 0
v -240 -208 0
v -224 -224 0
v -240 -224 0
v -240 -208 0
v -224 -208 0
v -208 -224 0
v -224 -224 0
v -224 -208 0
v -208 -208 0
v -192 -224 0
v -208 -224 0
v -208 -208 0
v -192 -208 0
v -176 -224 0
v -192 -224 0
v -192 -208 0
v -176 -208 0
v -160 -224 0
v -176 -224 0
v -176 -208 0
v -160 -208 0
v -144 -224 0
v -160 -224 0
v -160 -208 0
v -144 -208 0
v -128 -224 0
v -144 -224 0
v -144 -208 0
v -128 -208 0
v -112 -224 0
v -128 -224 0
v -128 -208 0
v -112 -208 0
v -96 -224 0
v -112 -224 0
v -112 -208 0
v -96 -208 0
v -80 -224 0
v -96 -224 0
v -96 -208 0
v -80 -208 0
v -64 -224 0
v -80 -224 0
v -80 -208 0
v -64 -208 0
v -48 -224 0
v -64 -224 0
v -64 -208 0
v -48 -208 0
v -32 -224 0
v -48 -224 0
v -48 -208 0
v -32 -208 0
v -16 -224 0
v -32 -224 0
v -32 -208 0
v -16 -208 0
v 0 -224 0
v -16 -224 0
v -16 -208 0
v 0 -208 0
v -240 -240 0
v -256 -240 0
v -256 -224 0
v -240 -224 0
v -224 -240 0
v -240 -240 0
v -240 -224 0
v -224 -224 0
v -208 -240 0
v -224 -240 0
v -224 -224 0
v -208 -224 0
v -192 -240 0
v -208 -240 0
v -208 -224 0
v -192 -224 0
v -176 -240 0
v -192 -240 0
v -192 -224 0
v -176 -224 0
v -160 -240 0
v -176 -240 0
v -176 -224 0
v -160 -224 0
v -144 -240 0
v -160 -240 0
v -160 -224 0
v -144 -224 0
v -128 -240 0
v -144 -240 0
v -144 -224 0
v -128 -224 0
v -112 -240 0
v -128 -240 0
v -128 -224 0
v -112 -224 0
v -96 -240 0
v -112 -240 0
v -112 -224 0
v -96 -224 0
v -80 -240 0
v -96 -240 0
v -96 -224 0
v -80 -224 0
v -64 -240 0
v -80 -240 0
v -80 -224 0
v -64 -224 0
v -48 -240 0
v -64 -240 0
v -64 -224 0
v -48 -224 0
v -32 -240 0
v -48 -240 0
v -48 -224 0
v -32 -224 0
v -16 -240 0
v -32 -240 0
v -32 -224 0
v -16 -224 0
v 0 -240 0
v -16 -240 0
v -16 -224 0
v 0 -224 0
v -240 -256 0
v -256 -256 0
v -256 -240 0
v -240 -240 0
v -224 -256 0
v -240 -256 0
v -240 -240 0
v -224 -240 0
v -208 -256 0
v -224 -256 0
v -224 -240 0
v -208 -240 0
v -192 -256 0
v -208 -256 0
v -208 -240 0
v -192 -240 0
v -176 -256 0
v -192 -256 0
v -192 -240 0
v -176 -240 0
v -160 -256 0
v -176 -256 0
v -176 -240 0
v -160 -240 0
v -144 -256 0
v -160 -256 0
v -160 -240 0
v -144 -240 0
v -128 -256 0
v -144 -256 0
v -144 -240 0
v -128 -240 0
v -112 -256 0
v -128 -256 0
v -128 -240 0
v -112 -240 0
v -96 -256 0
v -112 -256 0
v -112 -240 0
v -96 -240 0
v -80 -256 0
v -96 -256 0
v -96 -240 0
v -80 -240 0
v -64 -256 0
v -80 -256 0
v -80 -240 0
v -64 -240 0
v -48 -256 0
v -64 -256 0
v -64 -240 0
v -48 -240 0
v -32 -256 0
v -48 -256 0
v -48 -240 0
v -32 -240 0
v -16 -256 0
v -32 -256 0
v -32 -240 0
v -16 -240 0
v 0 -256 0
v -16 -256 0
v -16 -240 0
v 0 -240 0

# Texture cooridinates (Count = 9)
vt 0.175 0.7222222
vt 0.2 0.7222222
vt 0.2 0.75
vt 0.175 0.75
vt 0.2 0.6944444
vt 0.225 0.6944444
vt 0.225 0.7222222
vt 0.175 0.6944444
vt 0.225 0.75

# Normal
vn 0 0 -1

# Mesh description
g Village_mesh_0021

# Faces
f 1/1/1 2/2/1 3/3/1 4/4/1
f 5/5/1 6/6/1 7/7/1 8/2/1
f 9/8/1 10/5/1 11/2/1 12/1/1
f 13/8/1 14/5/1 15/2/1 16/1/1
f 17/2/1 18/7/1 19/9/1 20/3/1
f 21/5/1 22/6/1 23/7/1 24/2/1
f 25/5/1 26/6/1 27/7/1 28/2/1
f 29/1/1 30/2/1 31/3/1 32/4/1
f 33/5/1 34/6/1 35/7/1 36/2/1
f 37/5/1 38/6/1 39/7/1 40/2/1
f 41/1/1 42/2/1 43/3/1 44/4/1
f 45/1/1 46/2/1 47/3/1 48/4/1
f 49/8/1 50/5/1 51/2/1 52/1/1
f 53/2/1 54/7/1 55/9/1 56/3/1
f 57/1/1 58/2/1 59/3/1 60/4/1
f 61/1/1 62/2/1 63/3/1 64/4/1
f 65/2/1 66/7/1 67/9/1 68/3/1
f 69/2/1 70/7/1 71/9/1 72/3/1
f 73/2/1 74/7/1 75/9/1 76/3/1
f 77/5/1 78/6/1 79/7/1 80/2/1
f 81/8/1 82/5/1 83/2/1 84/1/1
f 85/1/1 86/2/1 87/3/1 88/4/1
f 89/2/1 90/7/1 91/9/1 92/3/1
f 93/5/1 94/6/1 95/7/1 96/2/1
f 97/2/1 98/7/1 99/9/1 100/3/1
f 101/2/1 102/7/1 103/9/1 104/3/1
f 105/1/1 106/2/1 107/3/1 108/4/1
f 109/8/1 110/5/1 111/2/1 112/1/1
f 113/5/1 114/6/1 115/7/1 116/2/1
f 117/5/1 118/6/1 119/7/1 120/2/1
f 121/5/1 122/6/1 123/7/1 124/2/1
f 125/8/1 126/5/1 127/2/1 128/1/1
f 129/5/1 130/6/1 131/7/1 132/2/1
f 133/2/1 134/7/1 135/9/1 136/3/1
f 137/1/1 138/2/1 139/3/1 140/4/1
f 141/1/1 142/2/1 143/3/1 144/4/1
f 145/8/1 146/5/1 147/2/1 148/1/1
f 149/2/1 150/7/1 151/9/1 152/3/1
f 153/5/1 154/6/1 155/7/1 156/2/1
f 157/5/1 158/6/1 159/7/1 160/2/1
f 161/2/1 162/7/1 163/9/1 164/3/1
f 165/5/1 166/6/1 167/7/1 168/2/1
f 169/8/1 170/5/1 171/2/1 172/1/1
f 173/8/1 174/5/1 175/2/1 176/1/1
f 177/5/1 178/6/1 179/7/1 180/2/1
f 181/2/1 182/7/1 183/9/1 184/3/1
f 185/2/1 186/7/1 187/9/1 188/3/1
f 189/5/1 190/6/1 191/7/1 192/2/1
f 193/2/1 194/7/1 195/9/1 196/3/1
f 197/5/1 198/6/1 199/7/1 200/2/1
f 201/5/1 202/6/1 203/7/1 204/2/1
f 205/1/1 206/2/1 207/3/1 208/4/1
f 209/8/1 210/5/1 211/2/1 212/1/1
f 213/5/1 214/6/1 215/7/1 216/2/1
f 217/1/1 218/2/1 219/3/1 220/4/1
f 221/1/1 222/2/1 223/3/1 224/4/1
f 225/1/1 226/2/1 227/3/1 228/4/1
f 229/5/1 230/6/1 231/7/1 232/2/1
f 233/8/1 234/5/1 235/2/1 236/1/1
f 237/8/1 238/5/1 239/2/1 240/1/1
f 241/8/1 242/5/1 243/2/1 244/1/1
f 245/1/1 246/2/1 247/3/1 248/4/1
f 249/2/1 250/7/1 251/9/1 252/3/1
f 253/5/1 254/6/1 255/7/1 256/2/1
f 257/2/1 258/7/1 259/9/1 260/3/1
f 261/1/1 262/2/1 263/3/1 264/4/1
f 265/1/1 266/2/1 267/3/1 268/4/1
f 269/5/1 270/6/1 271/7/1 272/2/1
f 273/1/1 274/2/1 275/3/1 276/4/1
f 277/5/1 278/6/1 279/7/1 280/2/1
f 281/1/1 282/2/1 283/3/1 284/4/1
f 285/8/1 286/5/1 287/2/1 288/1/1
f 289/8/1 290/5/1 291/2/1 292/1/1
f 293/2/1 294/7/1 295/9/1 296/3/1
f 297/1/1 298/2/1 299/3/1 300/4/1
f 301/5/1 302/6/1 303/7/1 304/2/1
f 305/1/1 306/2/1 307/3/1 308/4/1
f 309/1/1 310/2/1 311/3/1 312/4/1
f 313/5/1 314/6/1 315/7/1 316/2/1
f 317/5/1 318/6/1 319/7/1 320/2/1
f 321/1/1 322/2/1 323/3/1 324/4/1
f 325/5/1 326/6/1 327/7/1 328/2/1
f 329/5/1 330/6/1 331/7/1 332/2/1
f 333/8/1 334/5/1 335/2/1 336/1/1
f 337/2/1 338/7/1 339/9/1 340/3/1
f 341/8/1 342/5/1 343/2/1 344/1/1
f 345/5/1 346/6/1 347/7/1 348/2/1
f 349/5/1 350/6/1 351/7/1 352/2/1
f 353/8/1 354/5/1 355/2/1 356/1/1
f 357/8/1 358/5/1 359/2/1 360/1/1
f 361/2/1 362/7/1 363/9/1 364/3/1
f 365/2/1 366/7/1 367/9/1 368/3/1
f 369/1/1 370/2/1 371/3/1 372/4/1
f 373/8/1 374/5/1 375/2/1 376/1/1
f 377/8/1 378/5/1 379/2/1 380/1/1
f 381/2/1 382/7/1 383/9/1 384/3/1
f 385/8/1 386/5/1 387/2/1 388/1/1
f 389/1/1 390/2/1 391/3/1 392/4/1
f 393/8/1 394/5/1 395/2/1 396/1/1
f 397/5/1 398/6/1 399/7/1 400/2/1
f 401/5/1 402/6/1 403/7/1 404/2/1
f 405/2/1 406/7/1 407/9/1 408/3/1
f 409/2/1 410/7/1 411/9/1 412/3/1
f 413/2/1 414/7/1 415/9/1 416/3/1
f 417/2/1 418/7/1 419/9/1 420/3/1
f 421/1/1 422/2/1 423/3/1 424/4/1
f 425/5/1 426/6/1 427/7/1 428/2/1
f 429/5/1 430/6/1 431/7/1 432/2/1
f 433/1/1 434/2/1 435/3/1 436/4/1
f 437/2/1 438/7/1 439/9/1 440/3/1
f 441/5/1 442/6/1 443/7/1 444/2/1
f 445/2/1 446/7/1 447/9/1 448/3/1
f 449/2/1 450/7/1 451/9/1 452/3/1
f 453/5/1 454/6/1 455/7/1 456/2/1
f 457/2/1 458/7/1 459/9/1 460/3/1
f 461/8/1 462/5/1 463/2/1 464/1/1
f 465/5/1 466/6/1 467/7/1 468/2/1
f 469/8/1 470/5/1 471/2/1 472/1/1
f 473/5/1 474/6/1 475/7/1 476/2/1
f 477/5/1 478/6/1 479/7/1 480/2/1
f 481/2/1 482/7/1 483/9/1 484/3/1
f 485/2/1 486/7/1 487/9/1 488/3/1
f 489/2/1 490/7/1 491/9/1 492/3/1
f 493/2/1 494/7/1 495/9/1 496/3/1
f 497/2/1 498/7/1 499/9/1 500/3/1
f 501/2/1 502/7/1 503/9/1 504/3/1
f 505/2/1 506/7/1 507/9/1 508/3/1
f 509/1/1 510/2/1 511/3/1 512/4/1
f 513/2/1 514/7/1 515/9/1 516/3/1
f 517/1/1 518/2/1 519/3/1 520/4/1
f 521/8/1 522/5/1 523/2/1 524/1/1
f 525/2/1 526/7/1 527/9/1 528/3/1
f 529/1/1 530/2/1 531/3/1 532/4/1
f 533/5/1 534/6/1 535/7/1 536/2/1
f 537/5/1 538/6/1 539/7/1 540/2/1
f 541/2/1 542/7/1 543/9/1 544/3/1
f 545/5/1 546/6/1 547/7/1 548/2/1
f 549/5/1 550/6/1 551/7/1 552/2/1
f 553/5/1 554/6/1 555/7/1 556/2/1
f 557/5/1 558/6/1 559/7/1 560/2/1
f 561/5/1 562/6/1 563/7/1 564/2/1
f 565/5/1 566/6/1 567/7/1 568/2/1
f 569/5/1 570/6/1 571/7/1 572/2/1
f 573/2/1 574/7/1 575/9/1 576/3/1
f 577/5/1 578/6/1 579/7/1 580/2/1
f 581/2/1 582/7/1 583/9/1 584/3/1
f 585/5/1 586/6/1 587/7/1 588/2/1
f 589/2/1 590/7/1 591/9/1 592/3/1
f 593/8/1 594/5/1 595/2/1 596/1/1
f 597/1/1 598/2/1 599/3/1 600/4/1
f 601/5/1 602/6/1 603/7/1 604/2/1
f 605/8/1 606/5/1 607/2/1 608/1/1
f 609/5/1 610/6/1 611/7/1 612/2/1
f 613/1/1 614/2/1 615/3/1 616/4/1
f 617/2/1 618/7/1 619/9/1 620/3/1
f 621/1/1 622/2/1 623/3/1 624/4/1
f 625/5/1 626/6/1 627/7/1 628/2/1
f 629/1/1 630/2/1 631/3/1 632/4/1
f 633/8/1 634/5/1 635/2/1 636/1/1
f 637/5/1 638/6/1 639/7/1 640/2/1
f 641/1/1 642/2/1 643/3/1 644/4/1
f 645/1/1 646/2/1 647/3/1 648/4/1
f 649/2/1 650/7/1 651/9/1 652/3/1
f 653/2/1 654/7/1 655/9/1 656/3/1
f 657/2/1 658/7/1 659/9/1 660/3/1
f 661/1/1 662/2/1 663/3/1 664/4/1
f 665/5/1 666/6/1 667/7/1 668/2/1
f 669/2/1 670/7/1 671/9/1 672/3/1
f 673/5/1 674/6/1 675/7/1 676/2/1
f 677/1/1 678/2/1 679/3/1 680/4/1
f 681/1/1 682/2/1 683/3/1 684/4/1
f 685/5/1 686/6/1 687/7/1 688/2/1
f 689/1/1 690/2/1 691/3/1 692/4/1
f 693/5/1 694/6/1 695/7/1 696/2/1
f 697/8/1 698/5/1 699/2/1 700/1/1
f 701/2/1 702/7/1 703/9/1 704/3/1
f 705/5/1 706/6/1 707/7/1 708/2/1
f 709/8/1 710/5/1 711/2/1 712/1/1
f 713/8/1 714/5/1 715/2/1 716/1/1
f 717/8/1 718/5/1 719/2/1 720/1/1
f 721/8/1 722/5/1 723/2/1 724/1/1
f 725/8/1 726/5/1 727/2/1 728/1/1
f 729/5/1 730/6/1 731/7/1 732/2/1
f 733/2/1 734/7/1 735/9/1 736/3/1
f 737/1/1 738/2/1 739/3/1 740/4/1
f 741/2/1 742/7/1 743/9/1 744/3/1
f 745/8/1 746/5/1 747/2/1 748/1/1
f 749/2/1 750/7/1 751/9/1 752/3/1
f 753/5/1 754/6/1 755/7/1 756/2/1
f 757/1/1 758/2/1 759/3/1 760/4/1
f 761/5/1 762/6/1 763/7/1 764/2/1
f 765/8/1 766/5/1 767/2/1 768/1/1
f 769/1/1 770/2/1 771/3/1 772/4/1
f 773/2/1 774/7/1 775/9/1 776/3/1
f 777/2/1 778/7/1 779/9/1 780/3/1
f 781/8/1 782/5/1 783/2/1 784/1/1
f 785/8/1 786/5/1 787/2/1 788/1/1
f 789/2/1 790/7/1 791/9/1 792/3/1
f 793/2/1 794/7/1 795/9/1 796/3/1
f 797/8/1 798/5/1 799/2/1 800/1/1
f 801/8/1 802/5/1 803/2/1 804/1/1
f 805/8/1 806/5/1 807/2/1 808/1/1
f 809/5/1 810/6/1 811/7/1 812/2/1
f 813/8/1 814/5/1 815/2/1 816/1/1
f 817/1/1 818/2/1 819/3/1 820/4/1
f 821/8/1 822/5/1 823/2/1 824/1/1
f 825/5/1 826/6/1 827/7/1 828/2/1
f 829/1/1 830/2/1 831/3/1 832/4/1
f 833/2/1 834/7/1 835/9/1 836/3/1
f 837/2/1 838/7/1 839/9/1 840/3/1
f 841/8/1 842/5/1 843/2/1 844/1/1
f 845/1/1 846/2/1 847/3/1 848/4/1
f 849/1/1 850/2/1 851/3/1 852/4/1
f 853/8/1 854/5/1 855/2/1 856/1/1
f 857/5/1 858/6/1 859/7/1 860/2/1
f 861/8/1 862/5/1 863/2/1 864/1/1
f 865/1/1 866/2/1 867/3/1 868/4/1
f 869/2/1 870/7/1 871/9/1 872/3/1
f 873/8/1 874/5/1 875/2/1 876/1/1
f 877/5/1 878/6/1 879/7/1 880/2/1
f 881/2/1 882/7/1 883/9/1 884/3/1
f 885/5/1 886/6/1 887/7/1 888/2/1
f 889/2/1 890/7/1 891/9/1 892/3/1
f 893/1/1 894/2/1 895/3/1 896/4/1
f 897/5/1 898/6/1 899/7/1 900/2/1
f 901/8/1 902/5/1 903/2/1 904/1/1
f 905/8/1 906/5/1 907/2/1 908/1/1
f 909/5/1 910/6/1 911/7/1 912/2/1
f 913/2/1 914/7/1 915/9/1 916/3/1
f 917/8/1 918/5/1 919/2/1 920/1/1
f 921/2/1 922/7/1 923/9/1 924/3/1
f 925/5/1 926/6/1 927/7/1 928/2/1
f 929/2/1 930/7/1 931/9/1 932/3/1
f 933/5/1 934/6/1 935/7/1 936/2/1
f 937/1/1 938/2/1 939/3/1 940/4/1
f 941/2/1 942/7/1 943/9/1 944/3/1
f 945/2/1 946/7/1 947/9/1 948/3/1
f 949/2/1 950/7/1 951/9/1 952/3/1
f 953/8/1 954/5/1 955/2/1 956/1/1
f 957/8/1 958/5/1 959/2/1 960/1/1
f 961/1/1 962/2/1 963/3/1 964/4/1
f 965/5/1 966/6/1 967/7/1 968/2/1
f 969/1/1 970/2/1 971/3/1 972/4/1
f 973/2/1 974/7/1 975/9/1 976/3/1
f 977/5/1 978/6/1 979/7/1 980/2/1
f 981/1/1 982/2/1 983/3/1 984/4/1
f 985/2/1 986/7/1 987/9/1 988/3/1
f 989/1/1 990/2/1 991/3/1 992/4/1
f 993/8/1 994/5/1 995/2/1 996/1/1
f 997/8/1 998/5/1 999/2/1 1000/1/1
f 1001/5/1 1002/6/1 1003/7/1 1004/2/1
f 1005/5/1 1006/6/1 1007/7/1 1008/2/1
f 1009/1/1 1010/2/1 1011/3/1 1012/4/1
f 1013/1/1 1014/2/1 1015/3/1 1016/4/1
f 1017/5/1 1018/6/1 1019/7/1 1020/2/1
f 1021/2/1 1022/7/1 1023/9/1 1024/3/1

