# Tiled2Unity generated file. Do not modify by hand.
# Wavefront file for 'Village_mesh_0043.obj'

# Vertices (Count = 1024)
v -240 -16 0
v -256 -16 0
v -256 0 0
v -240 0 0
v -224 -16 0
v -240 -16 0
v -240 0 0
v -224 0 0
v -208 -16 0
v -224 -16 0
v -224 0 0
v -208 0 0
v -192 -16 0
v -208 -16 0
v -208 0 0
v -192 0 0
v -176 -16 0
v -192 -16 0
v -192 0 0
v -176 0 0
v -160 -16 0
v -176 -16 0
v -176 0 0
v -160 0 0
v -144 -16 0
v -160 -16 0
v -160 0 0
v -144 0 0
v -128 -16 0
v -144 -16 0
v -144 0 0
v -128 0 0
v -112 -16 0
v -128 -16 0
v -128 0 0
v -112 0 0
v -96 -16 0
v -112 -16 0
v -112 0 0
v -96 0 0
v -80 -16 0
v -96 -16 0
v -96 0 0
v -80 0 0
v -64 -16 0
v -80 -16 0
v -80 0 0
v -64 0 0
v -48 -16 0
v -64 -16 0
v -64 0 0
v -48 0 0
v -32 -16 0
v -48 -16 0
v -48 0 0
v -32 0 0
v -16 -16 0
v -32 -16 0
v -32 0 0
v -16 0 0
v 0 -16 0
v -16 -16 0
v -16 0 0
v 0 0 0
v -240 -32 0
v -256 -32 0
v -256 -16 0
v -240 -16 0
v -224 -32 0
v -240 -32 0
v -240 -16 0
v -224 -16 0
v -208 -32 0
v -224 -32 0
v -224 -16 0
v -208 -16 0
v -192 -32 0
v -208 -32 0
v -208 -16 0
v -192 -16 0
v -176 -32 0
v -192 -32 0
v -192 -16 0
v -176 -16 0
v -160 -32 0
v -176 -32 0
v -176 -16 0
v -160 -16 0
v -144 -32 0
v -160 -32 0
v -160 -16 0
v -144 -16 0
v -128 -32 0
v -144 -32 0
v -144 -16 0
v -128 -16 0
v -112 -32 0
v -128 -32 0
v -128 -16 0
v -112 -16 0
v -96 -32 0
v -112 -32 0
v -112 -16 0
v -96 -16 0
v -80 -32 0
v -96 -32 0
v -96 -16 0
v -80 -16 0
v -64 -32 0
v -80 -32 0
v -80 -16 0
v -64 -16 0
v -48 -32 0
v -64 -32 0
v -64 -16 0
v -48 -16 0
v -32 -32 0
v -48 -32 0
v -48 -16 0
v -32 -16 0
v -16 -32 0
v -32 -32 0
v -32 -16 0
v -16 -16 0
v 0 -32 0
v -16 -32 0
v -16 -16 0
v 0 -16 0
v -240 -48 0
v -256 -48 0
v -256 -32 0
v -240 -32 0
v -224 -48 0
v -240 -48 0
v -240 -32 0
v -224 -32 0
v -208 -48 0
v -224 -48 0
v -224 -32 0
v -208 -32 0
v -192 -48 0
v -208 -48 0
v -208 -32 0
v -192 -32 0
v -176 -48 0
v -192 -48 0
v -192 -32 0
v -176 -32 0
v -160 -48 0
v -176 -48 0
v -176 -32 0
v -160 -32 0
v -144 -48 0
v -160 -48 0
v -160 -32 0
v -144 -32 0
v -128 -48 0
v -144 -48 0
v -144 -32 0
v -128 -32 0
v -112 -48 0
v -128 -48 0
v -128 -32 0
v -112 -32 0
v -96 -48 0
v -112 -48 0
v -112 -32 0
v -96 -32 0
v -80 -48 0
v -96 -48 0
v -96 -32 0
v -80 -32 0
v -64 -48 0
v -80 -48 0
v -80 -32 0
v -64 -32 0
v -48 -48 0
v -64 -48 0
v -64 -32 0
v -48 -32 0
v -32 -48 0
v -48 -48 0
v -48 -32 0
v -32 -32 0
v -16 -48 0
v -32 -48 0
v -32 -32 0
v -16 -32 0
v 0 -48 0
v -16 -48 0
v -16 -32 0
v 0 -32 0
v -240 -64 0
v -256 -64 0
v -256 -48 0
v -240 -48 0
v -224 -64 0
v -240 -64 0
v -240 -48 0
v -224 -48 0
v -208 -64 0
v -224 -64 0
v -224 -48 0
v -208 -48 0
v -192 -64 0
v -208 -64 0
v -208 -48 0
v -192 -48 0
v -176 -64 0
v -192 -64 0
v -192 -48 0
v -176 -48 0
v -160 -64 0
v -176 -64 0
v -176 -48 0
v -160 -48 0
v -144 -64 0
v -160 -64 0
v -160 -48 0
v -144 -48 0
v -128 -64 0
v -144 -64 0
v -144 -48 0
v -128 -48 0
v -112 -64 0
v -128 -64 0
v -128 -48 0
v -112 -48 0
v -96 -64 0
v -112 -64 0
v -112 -48 0
v -96 -48 0
v -80 -64 0
v -96 -64 0
v -96 -48 0
v -80 -48 0
v -64 -64 0
v -80 -64 0
v -80 -48 0
v -64 -48 0
v -48 -64 0
v -64 -64 0
v -64 -48 0
v -48 -48 0
v -32 -64 0
v -48 -64 0
v -48 -48 0
v -32 -48 0
v -16 -64 0
v -32 -64 0
v -32 -48 0
v -16 -48 0
v 0 -64 0
v -16 -64 0
v -16 -48 0
v 0 -48 0
v -240 -80 0
v -256 -80 0
v -256 -64 0
v -240 -64 0
v -224 -80 0
v -240 -80 0
v -240 -64 0
v -224 -64 0
v -208 -80 0
v -224 -80 0
v -224 -64 0
v -208 -64 0
v -192 -80 0
v -208 -80 0
v -208 -64 0
v -192 -64 0
v -176 -80 0
v -192 -80 0
v -192 -64 0
v -176 -64 0
v -160 -80 0
v -176 -80 0
v -176 -64 0
v -160 -64 0
v -144 -80 0
v -160 -80 0
v -160 -64 0
v -144 -64 0
v -128 -80 0
v -144 -80 0
v -144 -64 0
v -128 -64 0
v -112 -80 0
v -128 -80 0
v -128 -64 0
v -112 -64 0
v -96 -80 0
v -112 -80 0
v -112 -64 0
v -96 -64 0
v -80 -80 0
v -96 -80 0
v -96 -64 0
v -80 -64 0
v -64 -80 0
v -80 -80 0
v -80 -64 0
v -64 -64 0
v -48 -80 0
v -64 -80 0
v -64 -64 0
v -48 -64 0
v -32 -80 0
v -48 -80 0
v -48 -64 0
v -32 -64 0
v -16 -80 0
v -32 -80 0
v -32 -64 0
v -16 -64 0
v 0 -80 0
v -16 -80 0
v -16 -64 0
v 0 -64 0
v -240 -96 0
v -256 -96 0
v -256 -80 0
v -240 -80 0
v -224 -96 0
v -240 -96 0
v -240 -80 0
v -224 -80 0
v -208 -96 0
v -224 -96 0
v -224 -80 0
v -208 -80 0
v -192 -96 0
v -208 -96 0
v -208 -80 0
v -192 -80 0
v -176 -96 0
v -192 -96 0
v -192 -80 0
v -176 -80 0
v -160 -96 0
v -176 -96 0
v -176 -80 0
v -160 -80 0
v -144 -96 0
v -160 -96 0
v -160 -80 0
v -144 -80 0
v -128 -96 0
v -144 -96 0
v -144 -80 0
v -128 -80 0
v -112 -96 0
v -128 -96 0
v -128 -80 0
v -112 -80 0
v -96 -96 0
v -112 -96 0
v -112 -80 0
v -96 -80 0
v -80 -96 0
v -96 -96 0
v -96 -80 0
v -80 -80 0
v -64 -96 0
v -80 -96 0
v -80 -80 0
v -64 -80 0
v -48 -96 0
v -64 -96 0
v -64 -80 0
v -48 -80 0
v -32 -96 0
v -48 -96 0
v -48 -80 0
v -32 -80 0
v -16 -96 0
v -32 -96 0
v -32 -80 0
v -16 -80 0
v 0 -96 0
v -16 -96 0
v -16 -80 0
v 0 -80 0
v -240 -112 0
v -256 -112 0
v -256 -96 0
v -240 -96 0
v -224 -112 0
v -240 -112 0
v -240 -96 0
v -224 -96 0
v -208 -112 0
v -224 -112 0
v -224 -96 0
v -208 -96 0
v -192 -112 0
v -208 -112 0
v -208 -96 0
v -192 -96 0
v -176 -112 0
v -192 -112 0
v -192 -96 0
v -176 -96 0
v -160 -112 0
v -176 -112 0
v -176 -96 0
v -160 -96 0
v -144 -112 0
v -160 -112 0
v -160 -96 0
v -144 -96 0
v -128 -112 0
v -144 -112 0
v -144 -96 0
v -128 -96 0
v -112 -112 0
v -128 -112 0
v -128 -96 0
v -112 -96 0
v -96 -112 0
v -112 -112 0
v -112 -96 0
v -96 -96 0
v -80 -112 0
v -96 -112 0
v -96 -96 0
v -80 -96 0
v -64 -112 0
v -80 -112 0
v -80 -96 0
v -64 -96 0
v -48 -112 0
v -64 -112 0
v -64 -96 0
v -48 -96 0
v -32 -112 0
v -48 -112 0
v -48 -96 0
v -32 -96 0
v -16 -112 0
v -32 -112 0
v -32 -96 0
v -16 -96 0
v 0 -112 0
v -16 -112 0
v -16 -96 0
v 0 -96 0
v -240 -128 0
v -256 -128 0
v -256 -112 0
v -240 -112 0
v -224 -128 0
v -240 -128 0
v -240 -112 0
v -224 -112 0
v -208 -128 0
v -224 -128 0
v -224 -112 0
v -208 -112 0
v -192 -128 0
v -208 -128 0
v -208 -112 0
v -192 -112 0
v -176 -128 0
v -192 -128 0
v -192 -112 0
v -176 -112 0
v -160 -128 0
v -176 -128 0
v -176 -112 0
v -160 -112 0
v -144 -128 0
v -160 -128 0
v -160 -112 0
v -144 -112 0
v -128 -128 0
v -144 -128 0
v -144 -112 0
v -128 -112 0
v -112 -128 0
v -128 -128 0
v -128 -112 0
v -112 -112 0
v -96 -128 0
v -112 -128 0
v -112 -112 0
v -96 -112 0
v -80 -128 0
v -96 -128 0
v -96 -112 0
v -80 -112 0
v -64 -128 0
v -80 -128 0
v -80 -112 0
v -64 -112 0
v -48 -128 0
v -64 -128 0
v -64 -112 0
v -48 -112 0
v -32 -128 0
v -48 -128 0
v -48 -112 0
v -32 -112 0
v -16 -128 0
v -32 -128 0
v -32 -112 0
v -16 -112 0
v 0 -128 0
v -16 -128 0
v -16 -112 0
v 0 -112 0
v -240 -144 0
v -256 -144 0
v -256 -128 0
v -240 -128 0
v -224 -144 0
v -240 -144 0
v -240 -128 0
v -224 -128 0
v -208 -144 0
v -224 -144 0
v -224 -128 0
v -208 -128 0
v -192 -144 0
v -208 -144 0
v -208 -128 0
v -192 -128 0
v -176 -144 0
v -192 -144 0
v -192 -128 0
v -176 -128 0
v -160 -144 0
v -176 -144 0
v -176 -128 0
v -160 -128 0
v -144 -144 0
v -160 -144 0
v -160 -128 0
v -144 -128 0
v -128 -144 0
v -144 -144 0
v -144 -128 0
v -128 -128 0
v -112 -144 0
v -128 -144 0
v -128 -128 0
v -112 -128 0
v -96 -144 0
v -112 -144 0
v -112 -128 0
v -96 -128 0
v -80 -144 0
v -96 -144 0
v -96 -128 0
v -80 -128 0
v -64 -144 0
v -80 -144 0
v -80 -128 0
v -64 -128 0
v -48 -144 0
v -64 -144 0
v -64 -128 0
v -48 -128 0
v -32 -144 0
v -48 -144 0
v -48 -128 0
v -32 -128 0
v -16 -144 0
v -32 -144 0
v -32 -128 0
v -16 -128 0
v 0 -144 0
v -16 -144 0
v -16 -128 0
v 0 -128 0
v -240 -160 0
v -256 -160 0
v -256 -144 0
v -240 -144 0
v -224 -160 0
v -240 -160 0
v -240 -144 0
v -224 -144 0
v -208 -160 0
v -224 -160 0
v -224 -144 0
v -208 -144 0
v -192 -160 0
v -208 -160 0
v -208 -144 0
v -192 -144 0
v -176 -160 0
v -192 -160 0
v -192 -144 0
v -176 -144 0
v -160 -160 0
v -176 -160 0
v -176 -144 0
v -160 -144 0
v -144 -160 0
v -160 -160 0
v -160 -144 0
v -144 -144 0
v -128 -160 0
v -144 -160 0
v -144 -144 0
v -128 -144 0
v -112 -160 0
v -128 -160 0
v -128 -144 0
v -112 -144 0
v -96 -160 0
v -112 -160 0
v -112 -144 0
v -96 -144 0
v -80 -160 0
v -96 -160 0
v -96 -144 0
v -80 -144 0
v -64 -160 0
v -80 -160 0
v -80 -144 0
v -64 -144 0
v -48 -160 0
v -64 -160 0
v -64 -144 0
v -48 -144 0
v -32 -160 0
v -48 -160 0
v -48 -144 0
v -32 -144 0
v -16 -160 0
v -32 -160 0
v -32 -144 0
v -16 -144 0
v 0 -160 0
v -16 -160 0
v -16 -144 0
v 0 -144 0
v -240 -176 0
v -256 -176 0
v -256 -160 0
v -240 -160 0
v -224 -176 0
v -240 -176 0
v -240 -160 0
v -224 -160 0
v -208 -176 0
v -224 -176 0
v -224 -160 0
v -208 -160 0
v -192 -176 0
v -208 -176 0
v -208 -160 0
v -192 -160 0
v -176 -176 0
v -192 -176 0
v -192 -160 0
v -176 -160 0
v -160 -176 0
v -176 -176 0
v -176 -160 0
v -160 -160 0
v -144 -176 0
v -160 -176 0
v -160 -160 0
v -144 -160 0
v -128 -176 0
v -144 -176 0
v -144 -160 0
v -128 -160 0
v -112 -176 0
v -128 -176 0
v -128 -160 0
v -112 -160 0
v -96 -176 0
v -112 -176 0
v -112 -160 0
v -96 -160 0
v -80 -176 0
v -96 -176 0
v -96 -160 0
v -80 -160 0
v -64 -176 0
v -80 -176 0
v -80 -160 0
v -64 -160 0
v -48 -176 0
v -64 -176 0
v -64 -160 0
v -48 -160 0
v -32 -176 0
v -48 -176 0
v -48 -160 0
v -32 -160 0
v -16 -176 0
v -32 -176 0
v -32 -160 0
v -16 -160 0
v 0 -176 0
v -16 -176 0
v -16 -160 0
v 0 -160 0
v -240 -192 0
v -256 -192 0
v -256 -176 0
v -240 -176 0
v -224 -192 0
v -240 -192 0
v -240 -176 0
v -224 -176 0
v -208 -192 0
v -224 -192 0
v -224 -176 0
v -208 -176 0
v -192 -192 0
v -208 -192 0
v -208 -176 0
v -192 -176 0
v -176 -192 0
v -192 -192 0
v -192 -176 0
v -176 -176 0
v -160 -192 0
v -176 -192 0
v -176 -176 0
v -160 -176 0
v -144 -192 0
v -160 -192 0
v -160 -176 0
v -144 -176 0
v -128 -192 0
v -144 -192 0
v -144 -176 0
v -128 -176 0
v -112 -192 0
v -128 -192 0
v -128 -176 0
v -112 -176 0
v -96 -192 0
v -112 -192 0
v -112 -176 0
v -96 -176 0
v -80 -192 0
v -96 -192 0
v -96 -176 0
v -80 -176 0
v -64 -192 0
v -80 -192 0
v -80 -176 0
v -64 -176 0
v -48 -192 0
v -64 -192 0
v -64 -176 0
v -48 -176 0
v -32 -192 0
v -48 -192 0
v -48 -176 0
v -32 -176 0
v -16 -192 0
v -32 -192 0
v -32 -176 0
v -16 -176 0
v 0 -192 0
v -16 -192 0
v -16 -176 0
v 0 -176 0
v -240 -208 0
v -256 -208 0
v -256 -192 0
v -240 -192 0
v -224 -208 0
v -240 -208 0
v -240 -192 0
v -224 -192 0
v -208 -208 0
v -224 -208 0
v -224 -192 0
v -208 -192 0
v -192 -208 0
v -208 -208 0
v -208 -192 0
v -192 -192 0
v -176 -208 0
v -192 -208 0
v -192 -192 0
v -176 -192 0
v -160 -208 0
v -176 -208 0
v -176 -192 0
v -160 -192 0
v -144 -208 0
v -160 -208 0
v -160 -192 0
v -144 -192 0
v -128 -208 0
v -144 -208 0
v -144 -192 0
v -128 -192 0
v -112 -208 0
v -128 -208 0
v -128 -192 0
v -112 -192 0
v -96 -208 0
v -112 -208 0
v -112 -192 0
v -96 -192 0
v -80 -208 0
v -96 -208 0
v -96 -192 0
v -80 -192 0
v -64 -208 0
v -80 -208 0
v -80 -192 0
v -64 -192 0
v -48 -208 0
v -64 -208 0
v -64 -192 0
v -48 -192 0
v -32 -208 0
v -48 -208 0
v -48 -192 0
v -32 -192 0
v -16 -208 0
v -32 -208 0
v -32 -192 0
v -16 -192 0
v 0 -208 0
v -16 -208 0
v -16 -192 0
v 0 -192 0
v -240 -224 0
v -256 -224 0
v -256 -208 0
v -240 -208 0
v -224 -224 0
v -240 -224 0
v -240 -208 0
v -224 -208 0
v -208 -224 0
v -224 -224 0
v -224 -208 0
v -208 -208 0
v -192 -224 0
v -208 -224 0
v -208 -208 0
v -192 -208 0
v -176 -224 0
v -192 -224 0
v -192 -208 0
v -176 -208 0
v -160 -224 0
v -176 -224 0
v -176 -208 0
v -160 -208 0
v -144 -224 0
v -160 -224 0
v -160 -208 0
v -144 -208 0
v -128 -224 0
v -144 -224 0
v -144 -208 0
v -128 -208 0
v -112 -224 0
v -128 -224 0
v -128 -208 0
v -112 -208 0
v -96 -224 0
v -112 -224 0
v -112 -208 0
v -96 -208 0
v -80 -224 0
v -96 -224 0
v -96 -208 0
v -80 -208 0
v -64 -224 0
v -80 -224 0
v -80 -208 0
v -64 -208 0
v -48 -224 0
v -64 -224 0
v -64 -208 0
v -48 -208 0
v -32 -224 0
v -48 -224 0
v -48 -208 0
v -32 -208 0
v -16 -224 0
v -32 -224 0
v -32 -208 0
v -16 -208 0
v 0 -224 0
v -16 -224 0
v -16 -208 0
v 0 -208 0
v -240 -240 0
v -256 -240 0
v -256 -224 0
v -240 -224 0
v -224 -240 0
v -240 -240 0
v -240 -224 0
v -224 -224 0
v -208 -240 0
v -224 -240 0
v -224 -224 0
v -208 -224 0
v -192 -240 0
v -208 -240 0
v -208 -224 0
v -192 -224 0
v -176 -240 0
v -192 -240 0
v -192 -224 0
v -176 -224 0
v -160 -240 0
v -176 -240 0
v -176 -224 0
v -160 -224 0
v -144 -240 0
v -160 -240 0
v -160 -224 0
v -144 -224 0
v -128 -240 0
v -144 -240 0
v -144 -224 0
v -128 -224 0
v -112 -240 0
v -128 -240 0
v -128 -224 0
v -112 -224 0
v -96 -240 0
v -112 -240 0
v -112 -224 0
v -96 -224 0
v -80 -240 0
v -96 -240 0
v -96 -224 0
v -80 -224 0
v -64 -240 0
v -80 -240 0
v -80 -224 0
v -64 -224 0
v -48 -240 0
v -64 -240 0
v -64 -224 0
v -48 -224 0
v -32 -240 0
v -48 -240 0
v -48 -224 0
v -32 -224 0
v -16 -240 0
v -32 -240 0
v -32 -224 0
v -16 -224 0
v 0 -240 0
v -16 -240 0
v -16 -224 0
v 0 -224 0
v -240 -256 0
v -256 -256 0
v -256 -240 0
v -240 -240 0
v -224 -256 0
v -240 -256 0
v -240 -240 0
v -224 -240 0
v -208 -256 0
v -224 -256 0
v -224 -240 0
v -208 -240 0
v -192 -256 0
v -208 -256 0
v -208 -240 0
v -192 -240 0
v -176 -256 0
v -192 -256 0
v -192 -240 0
v -176 -240 0
v -160 -256 0
v -176 -256 0
v -176 -240 0
v -160 -240 0
v -144 -256 0
v -160 -256 0
v -160 -240 0
v -144 -240 0
v -128 -256 0
v -144 -256 0
v -144 -240 0
v -128 -240 0
v -112 -256 0
v -128 -256 0
v -128 -240 0
v -112 -240 0
v -96 -256 0
v -112 -256 0
v -112 -240 0
v -96 -240 0
v -80 -256 0
v -96 -256 0
v -96 -240 0
v -80 -240 0
v -64 -256 0
v -80 -256 0
v -80 -240 0
v -64 -240 0
v -48 -256 0
v -64 -256 0
v -64 -240 0
v -48 -240 0
v -32 -256 0
v -48 -256 0
v -48 -240 0
v -32 -240 0
v -16 -256 0
v -32 -256 0
v -32 -240 0
v -16 -240 0
v 0 -256 0
v -16 -256 0
v -16 -240 0
v 0 -240 0

# Texture cooridinates (Count = 9)
vt 0.175 0.7222222
vt 0.2 0.7222222
vt 0.2 0.75
vt 0.175 0.75
vt 0.175 0.6944444
vt 0.2 0.6944444
vt 0.225 0.6944444
vt 0.225 0.7222222
vt 0.225 0.75

# Normal
vn 0 0 -1

# Mesh description
g Village_mesh_0043

# Faces
f 1/1/1 2/2/1 3/3/1 4/4/1
f 5/5/1 6/6/1 7/2/1 8/1/1
f 9/1/1 10/2/1 11/3/1 12/4/1
f 13/6/1 14/7/1 15/8/1 16/2/1
f 17/1/1 18/2/1 19/3/1 20/4/1
f 21/5/1 22/6/1 23/2/1 24/1/1
f 25/2/1 26/8/1 27/9/1 28/3/1
f 29/5/1 30/6/1 31/2/1 32/1/1
f 33/2/1 34/8/1 35/9/1 36/3/1
f 37/6/1 38/7/1 39/8/1 40/2/1
f 41/6/1 42/7/1 43/8/1 44/2/1
f 45/5/1 46/6/1 47/2/1 48/1/1
f 49/6/1 50/7/1 51/8/1 52/2/1
f 53/1/1 54/2/1 55/3/1 56/4/1
f 57/2/1 58/8/1 59/9/1 60/3/1
f 61/1/1 62/2/1 63/3/1 64/4/1
f 65/1/1 66/2/1 67/3/1 68/4/1
f 69/6/1 70/7/1 71/8/1 72/2/1
f 73/2/1 74/8/1 75/9/1 76/3/1
f 77/1/1 78/2/1 79/3/1 80/4/1
f 81/6/1 82/7/1 83/8/1 84/2/1
f 85/6/1 86/7/1 87/8/1 88/2/1
f 89/6/1 90/7/1 91/8/1 92/2/1
f 93/6/1 94/7/1 95/8/1 96/2/1
f 97/6/1 98/7/1 99/8/1 100/2/1
f 101/5/1 102/6/1 103/2/1 104/1/1
f 105/2/1 106/8/1 107/9/1 108/3/1
f 109/6/1 110/7/1 111/8/1 112/2/1
f 113/2/1 114/8/1 115/9/1 116/3/1
f 117/1/1 118/2/1 119/3/1 120/4/1
f 121/5/1 122/6/1 123/2/1 124/1/1
f 125/1/1 126/2/1 127/3/1 128/4/1
f 129/5/1 130/6/1 131/2/1 132/1/1
f 133/6/1 134/7/1 135/8/1 136/2/1
f 137/6/1 138/7/1 139/8/1 140/2/1
f 141/6/1 142/7/1 143/8/1 144/2/1
f 145/6/1 146/7/1 147/8/1 148/2/1
f 149/1/1 150/2/1 151/3/1 152/4/1
f 153/6/1 154/7/1 155/8/1 156/2/1
f 157/1/1 158/2/1 159/3/1 160/4/1
f 161/6/1 162/7/1 163/8/1 164/2/1
f 165/5/1 166/6/1 167/2/1 168/1/1
f 169/6/1 170/7/1 171/8/1 172/2/1
f 173/6/1 174/7/1 175/8/1 176/2/1
f 177/6/1 178/7/1 179/8/1 180/2/1
f 181/2/1 182/8/1 183/9/1 184/3/1
f 185/2/1 186/8/1 187/9/1 188/3/1
f 189/5/1 190/6/1 191/2/1 192/1/1
f 193/2/1 194/8/1 195/9/1 196/3/1
f 197/6/1 198/7/1 199/8/1 200/2/1
f 201/2/1 202/8/1 203/9/1 204/3/1
f 205/2/1 206/8/1 207/9/1 208/3/1
f 209/6/1 210/7/1 211/8/1 212/2/1
f 213/1/1 214/2/1 215/3/1 216/4/1
f 217/2/1 218/8/1 219/9/1 220/3/1
f 221/5/1 222/6/1 223/2/1 224/1/1
f 225/5/1 226/6/1 227/2/1 228/1/1
f 229/5/1 230/6/1 231/2/1 232/1/1
f 233/5/1 234/6/1 235/2/1 236/1/1
f 237/1/1 238/2/1 239/3/1 240/4/1
f 241/5/1 242/6/1 243/2/1 244/1/1
f 245/2/1 246/8/1 247/9/1 248/3/1
f 249/1/1 250/2/1 251/3/1 252/4/1
f 253/5/1 254/6/1 255/2/1 256/1/1
f 257/5/1 258/6/1 259/2/1 260/1/1
f 261/2/1 262/8/1 263/9/1 264/3/1
f 265/2/1 266/8/1 267/9/1 268/3/1
f 269/2/1 270/8/1 271/9/1 272/3/1
f 273/1/1 274/2/1 275/3/1 276/4/1
f 277/5/1 278/6/1 279/2/1 280/1/1
f 281/5/1 282/6/1 283/2/1 284/1/1
f 285/1/1 286/2/1 287/3/1 288/4/1
f 289/1/1 290/2/1 291/3/1 292/4/1
f 293/1/1 294/2/1 295/3/1 296/4/1
f 297/6/1 298/7/1 299/8/1 300/2/1
f 301/5/1 302/6/1 303/2/1 304/1/1
f 305/1/1 306/2/1 307/3/1 308/4/1
f 309/6/1 310/7/1 311/8/1 312/2/1
f 313/5/1 314/6/1 315/2/1 316/1/1
f 317/5/1 318/6/1 319/2/1 320/1/1
f 321/5/1 322/6/1 323/2/1 324/1/1
f 325/1/1 326/2/1 327/3/1 328/4/1
f 329/2/1 330/8/1 331/9/1 332/3/1
f 333/2/1 334/8/1 335/9/1 336/3/1
f 337/6/1 338/7/1 339/8/1 340/2/1
f 341/5/1 342/6/1 343/2/1 344/1/1
f 345/5/1 346/6/1 347/2/1 348/1/1
f 349/6/1 350/7/1 351/8/1 352/2/1
f 353/2/1 354/8/1 355/9/1 356/3/1
f 357/6/1 358/7/1 359/8/1 360/2/1
f 361/5/1 362/6/1 363/2/1 364/1/1
f 365/2/1 366/8/1 367/9/1 368/3/1
f 369/2/1 370/8/1 371/9/1 372/3/1
f 373/6/1 374/7/1 375/8/1 376/2/1
f 377/5/1 378/6/1 379/2/1 380/1/1
f 381/6/1 382/7/1 383/8/1 384/2/1
f 385/6/1 386/7/1 387/8/1 388/2/1
f 389/1/1 390/2/1 391/3/1 392/4/1
f 393/6/1 394/7/1 395/8/1 396/2/1
f 397/5/1 398/6/1 399/2/1 400/1/1
f 401/1/1 402/2/1 403/3/1 404/4/1
f 405/2/1 406/8/1 407/9/1 408/3/1
f 409/2/1 410/8/1 411/9/1 412/3/1
f 413/5/1 414/6/1 415/2/1 416/1/1
f 417/5/1 418/6/1 419/2/1 420/1/1
f 421/5/1 422/6/1 423/2/1 424/1/1
f 425/2/1 426/8/1 427/9/1 428/3/1
f 429/6/1 430/7/1 431/8/1 432/2/1
f 433/5/1 434/6/1 435/2/1 436/1/1
f 437/6/1 438/7/1 439/8/1 440/2/1
f 441/5/1 442/6/1 443/2/1 444/1/1
f 445/1/1 446/2/1 447/3/1 448/4/1
f 449/1/1 450/2/1 451/3/1 452/4/1
f 453/1/1 454/2/1 455/3/1 456/4/1
f 457/5/1 458/6/1 459/2/1 460/1/1
f 461/1/1 462/2/1 463/3/1 464/4/1
f 465/2/1 466/8/1 467/9/1 468/3/1
f 469/2/1 470/8/1 471/9/1 472/3/1
f 473/2/1 474/8/1 475/9/1 476/3/1
f 477/5/1 478/6/1 479/2/1 480/1/1
f 481/5/1 482/6/1 483/2/1 484/1/1
f 485/6/1 486/7/1 487/8/1 488/2/1
f 489/5/1 490/6/1 491/2/1 492/1/1
f 493/2/1 494/8/1 495/9/1 496/3/1
f 497/5/1 498/6/1 499/2/1 500/1/1
f 501/1/1 502/2/1 503/3/1 504/4/1
f 505/6/1 506/7/1 507/8/1 508/2/1
f 509/5/1 510/6/1 511/2/1 512/1/1
f 513/2/1 514/8/1 515/9/1 516/3/1
f 517/2/1 518/8/1 519/9/1 520/3/1
f 521/6/1 522/7/1 523/8/1 524/2/1
f 525/2/1 526/8/1 527/9/1 528/3/1
f 529/1/1 530/2/1 531/3/1 532/4/1
f 533/6/1 534/7/1 535/8/1 536/2/1
f 537/6/1 538/7/1 539/8/1 540/2/1
f 541/2/1 542/8/1 543/9/1 544/3/1
f 545/6/1 546/7/1 547/8/1 548/2/1
f 549/1/1 550/2/1 551/3/1 552/4/1
f 553/2/1 554/8/1 555/9/1 556/3/1
f 557/2/1 558/8/1 559/9/1 560/3/1
f 561/5/1 562/6/1 563/2/1 564/1/1
f 565/6/1 566/7/1 567/8/1 568/2/1
f 569/6/1 570/7/1 571/8/1 572/2/1
f 573/5/1 574/6/1 575/2/1 576/1/1
f 577/1/1 578/2/1 579/3/1 580/4/1
f 581/6/1 582/7/1 583/8/1 584/2/1
f 585/2/1 586/8/1 587/9/1 588/3/1
f 589/6/1 590/7/1 591/8/1 592/2/1
f 593/2/1 594/8/1 595/9/1 596/3/1
f 597/1/1 598/2/1 599/3/1 600/4/1
f 601/2/1 602/8/1 603/9/1 604/3/1
f 605/2/1 606/8/1 607/9/1 608/3/1
f 609/5/1 610/6/1 611/2/1 612/1/1
f 613/2/1 614/8/1 615/9/1 616/3/1
f 617/6/1 618/7/1 619/8/1 620/2/1
f 621/6/1 622/7/1 623/8/1 624/2/1
f 625/6/1 626/7/1 627/8/1 628/2/1
f 629/6/1 630/7/1 631/8/1 632/2/1
f 633/1/1 634/2/1 635/3/1 636/4/1
f 637/6/1 638/7/1 639/8/1 640/2/1
f 641/2/1 642/8/1 643/9/1 644/3/1
f 645/6/1 646/7/1 647/8/1 648/2/1
f 649/1/1 650/2/1 651/3/1 652/4/1
f 653/6/1 654/7/1 655/8/1 656/2/1
f 657/1/1 658/2/1 659/3/1 660/4/1
f 661/5/1 662/6/1 663/2/1 664/1/1
f 665/2/1 666/8/1 667/9/1 668/3/1
f 669/2/1 670/8/1 671/9/1 672/3/1
f 673/5/1 674/6/1 675/2/1 676/1/1
f 677/2/1 678/8/1 679/9/1 680/3/1
f 681/5/1 682/6/1 683/2/1 684/1/1
f 685/6/1 686/7/1 687/8/1 688/2/1
f 689/1/1 690/2/1 691/3/1 692/4/1
f 693/5/1 694/6/1 695/2/1 696/1/1
f 697/2/1 698/8/1 699/9/1 700/3/1
f 701/6/1 702/7/1 703/8/1 704/2/1
f 705/2/1 706/8/1 707/9/1 708/3/1
f 709/1/1 710/2/1 711/3/1 712/4/1
f 713/5/1 714/6/1 715/2/1 716/1/1
f 717/6/1 718/7/1 719/8/1 720/2/1
f 721/6/1 722/7/1 723/8/1 724/2/1
f 725/5/1 726/6/1 727/2/1 728/1/1
f 729/2/1 730/8/1 731/9/1 732/3/1
f 733/2/1 734/8/1 735/9/1 736/3/1
f 737/2/1 738/8/1 739/9/1 740/3/1
f 741/6/1 742/7/1 743/8/1 744/2/1
f 745/1/1 746/2/1 747/3/1 748/4/1
f 749/2/1 750/8/1 751/9/1 752/3/1
f 753/1/1 754/2/1 755/3/1 756/4/1
f 757/5/1 758/6/1 759/2/1 760/1/1
f 761/2/1 762/8/1 763/9/1 764/3/1
f 765/6/1 766/7/1 767/8/1 768/2/1
f 769/6/1 770/7/1 771/8/1 772/2/1
f 773/6/1 774/7/1 775/8/1 776/2/1
f 777/5/1 778/6/1 779/2/1 780/1/1
f 781/5/1 782/6/1 783/2/1 784/1/1
f 785/6/1 786/7/1 787/8/1 788/2/1
f 789/6/1 790/7/1 791/8/1 792/2/1
f 793/2/1 794/8/1 795/9/1 796/3/1
f 797/2/1 798/8/1 799/9/1 800/3/1
f 801/6/1 802/7/1 803/8/1 804/2/1
f 805/5/1 806/6/1 807/2/1 808/1/1
f 809/5/1 810/6/1 811/2/1 812/1/1
f 813/2/1 814/8/1 815/9/1 816/3/1
f 817/6/1 818/7/1 819/8/1 820/2/1
f 821/5/1 822/6/1 823/2/1 824/1/1
f 825/5/1 826/6/1 827/2/1 828/1/1
f 829/2/1 830/8/1 831/9/1 832/3/1
f 833/5/1 834/6/1 835/2/1 836/1/1
f 837/5/1 838/6/1 839/2/1 840/1/1
f 841/6/1 842/7/1 843/8/1 844/2/1
f 845/5/1 846/6/1 847/2/1 848/1/1
f 849/6/1 850/7/1 851/8/1 852/2/1
f 853/5/1 854/6/1 855/2/1 856/1/1
f 857/2/1 858/8/1 859/9/1 860/3/1
f 861/2/1 862/8/1 863/9/1 864/3/1
f 865/6/1 866/7/1 867/8/1 868/2/1
f 869/2/1 870/8/1 871/9/1 872/3/1
f 873/6/1 874/7/1 875/8/1 876/2/1
f 877/2/1 878/8/1 879/9/1 880/3/1
f 881/5/1 882/6/1 883/2/1 884/1/1
f 885/6/1 886/7/1 887/8/1 888/2/1
f 889/6/1 890/7/1 891/8/1 892/2/1
f 893/1/1 894/2/1 895/3/1 896/4/1
f 897/1/1 898/2/1 899/3/1 900/4/1
f 901/1/1 902/2/1 903/3/1 904/4/1
f 905/1/1 906/2/1 907/3/1 908/4/1
f 909/2/1 910/8/1 911/9/1 912/3/1
f 913/2/1 914/8/1 915/9/1 916/3/1
f 917/6/1 918/7/1 919/8/1 920/2/1
f 921/5/1 922/6/1 923/2/1 924/1/1
f 925/6/1 926/7/1 927/8/1 928/2/1
f 929/1/1 930/2/1 931/3/1 932/4/1
f 933/1/1 934/2/1 935/3/1 936/4/1
f 937/5/1 938/6/1 939/2/1 940/1/1
f 941/5/1 942/6/1 943/2/1 944/1/1
f 945/5/1 946/6/1 947/2/1 948/1/1
f 949/6/1 950/7/1 951/8/1 952/2/1
f 953/1/1 954/2/1 955/3/1 956/4/1
f 957/6/1 958/7/1 959/8/1 960/2/1
f 961/1/1 962/2/1 963/3/1 964/4/1
f 965/5/1 966/6/1 967/2/1 968/1/1
f 969/5/1 970/6/1 971/2/1 972/1/1
f 973/6/1 974/7/1 975/8/1 976/2/1
f 977/5/1 978/6/1 979/2/1 980/1/1
f 981/6/1 982/7/1 983/8/1 984/2/1
f 985/5/1 986/6/1 987/2/1 988/1/1
f 989/1/1 990/2/1 991/3/1 992/4/1
f 993/5/1 994/6/1 995/2/1 996/1/1
f 997/2/1 998/8/1 999/9/1 1000/3/1
f 1001/2/1 1002/8/1 1003/9/1 1004/3/1
f 1005/2/1 1006/8/1 1007/9/1 1008/3/1
f 1009/6/1 1010/7/1 1011/8/1 1012/2/1
f 1013/5/1 1014/6/1 1015/2/1 1016/1/1
f 1017/6/1 1018/7/1 1019/8/1 1020/2/1
f 1021/5/1 1022/6/1 1023/2/1 1024/1/1

