# Tiled2Unity generated file. Do not modify by hand.
# Wavefront file for 'Village_mesh_0008.obj'

# Vertices (Count = 1024)
v -240 -16 0
v -256 -16 0
v -256 0 0
v -240 0 0
v -224 -16 0
v -240 -16 0
v -240 0 0
v -224 0 0
v -208 -16 0
v -224 -16 0
v -224 0 0
v -208 0 0
v -192 -16 0
v -208 -16 0
v -208 0 0
v -192 0 0
v -176 -16 0
v -192 -16 0
v -192 0 0
v -176 0 0
v -160 -16 0
v -176 -16 0
v -176 0 0
v -160 0 0
v -144 -16 0
v -160 -16 0
v -160 0 0
v -144 0 0
v -128 -16 0
v -144 -16 0
v -144 0 0
v -128 0 0
v -112 -16 0
v -128 -16 0
v -128 0 0
v -112 0 0
v -96 -16 0
v -112 -16 0
v -112 0 0
v -96 0 0
v -80 -16 0
v -96 -16 0
v -96 0 0
v -80 0 0
v -64 -16 0
v -80 -16 0
v -80 0 0
v -64 0 0
v -48 -16 0
v -64 -16 0
v -64 0 0
v -48 0 0
v -32 -16 0
v -48 -16 0
v -48 0 0
v -32 0 0
v -16 -16 0
v -32 -16 0
v -32 0 0
v -16 0 0
v 0 -16 0
v -16 -16 0
v -16 0 0
v 0 0 0
v -240 -32 0
v -256 -32 0
v -256 -16 0
v -240 -16 0
v -224 -32 0
v -240 -32 0
v -240 -16 0
v -224 -16 0
v -208 -32 0
v -224 -32 0
v -224 -16 0
v -208 -16 0
v -192 -32 0
v -208 -32 0
v -208 -16 0
v -192 -16 0
v -176 -32 0
v -192 -32 0
v -192 -16 0
v -176 -16 0
v -160 -32 0
v -176 -32 0
v -176 -16 0
v -160 -16 0
v -144 -32 0
v -160 -32 0
v -160 -16 0
v -144 -16 0
v -128 -32 0
v -144 -32 0
v -144 -16 0
v -128 -16 0
v -112 -32 0
v -128 -32 0
v -128 -16 0
v -112 -16 0
v -96 -32 0
v -112 -32 0
v -112 -16 0
v -96 -16 0
v -80 -32 0
v -96 -32 0
v -96 -16 0
v -80 -16 0
v -64 -32 0
v -80 -32 0
v -80 -16 0
v -64 -16 0
v -48 -32 0
v -64 -32 0
v -64 -16 0
v -48 -16 0
v -32 -32 0
v -48 -32 0
v -48 -16 0
v -32 -16 0
v -16 -32 0
v -32 -32 0
v -32 -16 0
v -16 -16 0
v 0 -32 0
v -16 -32 0
v -16 -16 0
v 0 -16 0
v -240 -48 0
v -256 -48 0
v -256 -32 0
v -240 -32 0
v -224 -48 0
v -240 -48 0
v -240 -32 0
v -224 -32 0
v -208 -48 0
v -224 -48 0
v -224 -32 0
v -208 -32 0
v -192 -48 0
v -208 -48 0
v -208 -32 0
v -192 -32 0
v -176 -48 0
v -192 -48 0
v -192 -32 0
v -176 -32 0
v -160 -48 0
v -176 -48 0
v -176 -32 0
v -160 -32 0
v -144 -48 0
v -160 -48 0
v -160 -32 0
v -144 -32 0
v -128 -48 0
v -144 -48 0
v -144 -32 0
v -128 -32 0
v -112 -48 0
v -128 -48 0
v -128 -32 0
v -112 -32 0
v -96 -48 0
v -112 -48 0
v -112 -32 0
v -96 -32 0
v -80 -48 0
v -96 -48 0
v -96 -32 0
v -80 -32 0
v -64 -48 0
v -80 -48 0
v -80 -32 0
v -64 -32 0
v -48 -48 0
v -64 -48 0
v -64 -32 0
v -48 -32 0
v -32 -48 0
v -48 -48 0
v -48 -32 0
v -32 -32 0
v -16 -48 0
v -32 -48 0
v -32 -32 0
v -16 -32 0
v 0 -48 0
v -16 -48 0
v -16 -32 0
v 0 -32 0
v -240 -64 0
v -256 -64 0
v -256 -48 0
v -240 -48 0
v -224 -64 0
v -240 -64 0
v -240 -48 0
v -224 -48 0
v -208 -64 0
v -224 -64 0
v -224 -48 0
v -208 -48 0
v -192 -64 0
v -208 -64 0
v -208 -48 0
v -192 -48 0
v -176 -64 0
v -192 -64 0
v -192 -48 0
v -176 -48 0
v -160 -64 0
v -176 -64 0
v -176 -48 0
v -160 -48 0
v -144 -64 0
v -160 -64 0
v -160 -48 0
v -144 -48 0
v -128 -64 0
v -144 -64 0
v -144 -48 0
v -128 -48 0
v -112 -64 0
v -128 -64 0
v -128 -48 0
v -112 -48 0
v -96 -64 0
v -112 -64 0
v -112 -48 0
v -96 -48 0
v -80 -64 0
v -96 -64 0
v -96 -48 0
v -80 -48 0
v -64 -64 0
v -80 -64 0
v -80 -48 0
v -64 -48 0
v -48 -64 0
v -64 -64 0
v -64 -48 0
v -48 -48 0
v -32 -64 0
v -48 -64 0
v -48 -48 0
v -32 -48 0
v -16 -64 0
v -32 -64 0
v -32 -48 0
v -16 -48 0
v 0 -64 0
v -16 -64 0
v -16 -48 0
v 0 -48 0
v -240 -80 0
v -256 -80 0
v -256 -64 0
v -240 -64 0
v -224 -80 0
v -240 -80 0
v -240 -64 0
v -224 -64 0
v -208 -80 0
v -224 -80 0
v -224 -64 0
v -208 -64 0
v -192 -80 0
v -208 -80 0
v -208 -64 0
v -192 -64 0
v -176 -80 0
v -192 -80 0
v -192 -64 0
v -176 -64 0
v -160 -80 0
v -176 -80 0
v -176 -64 0
v -160 -64 0
v -144 -80 0
v -160 -80 0
v -160 -64 0
v -144 -64 0
v -128 -80 0
v -144 -80 0
v -144 -64 0
v -128 -64 0
v -112 -80 0
v -128 -80 0
v -128 -64 0
v -112 -64 0
v -96 -80 0
v -112 -80 0
v -112 -64 0
v -96 -64 0
v -80 -80 0
v -96 -80 0
v -96 -64 0
v -80 -64 0
v -64 -80 0
v -80 -80 0
v -80 -64 0
v -64 -64 0
v -48 -80 0
v -64 -80 0
v -64 -64 0
v -48 -64 0
v -32 -80 0
v -48 -80 0
v -48 -64 0
v -32 -64 0
v -16 -80 0
v -32 -80 0
v -32 -64 0
v -16 -64 0
v 0 -80 0
v -16 -80 0
v -16 -64 0
v 0 -64 0
v -240 -96 0
v -256 -96 0
v -256 -80 0
v -240 -80 0
v -224 -96 0
v -240 -96 0
v -240 -80 0
v -224 -80 0
v -208 -96 0
v -224 -96 0
v -224 -80 0
v -208 -80 0
v -192 -96 0
v -208 -96 0
v -208 -80 0
v -192 -80 0
v -176 -96 0
v -192 -96 0
v -192 -80 0
v -176 -80 0
v -160 -96 0
v -176 -96 0
v -176 -80 0
v -160 -80 0
v -144 -96 0
v -160 -96 0
v -160 -80 0
v -144 -80 0
v -128 -96 0
v -144 -96 0
v -144 -80 0
v -128 -80 0
v -112 -96 0
v -128 -96 0
v -128 -80 0
v -112 -80 0
v -96 -96 0
v -112 -96 0
v -112 -80 0
v -96 -80 0
v -80 -96 0
v -96 -96 0
v -96 -80 0
v -80 -80 0
v -64 -96 0
v -80 -96 0
v -80 -80 0
v -64 -80 0
v -48 -96 0
v -64 -96 0
v -64 -80 0
v -48 -80 0
v -32 -96 0
v -48 -96 0
v -48 -80 0
v -32 -80 0
v -16 -96 0
v -32 -96 0
v -32 -80 0
v -16 -80 0
v 0 -96 0
v -16 -96 0
v -16 -80 0
v 0 -80 0
v -240 -112 0
v -256 -112 0
v -256 -96 0
v -240 -96 0
v -224 -112 0
v -240 -112 0
v -240 -96 0
v -224 -96 0
v -208 -112 0
v -224 -112 0
v -224 -96 0
v -208 -96 0
v -192 -112 0
v -208 -112 0
v -208 -96 0
v -192 -96 0
v -176 -112 0
v -192 -112 0
v -192 -96 0
v -176 -96 0
v -160 -112 0
v -176 -112 0
v -176 -96 0
v -160 -96 0
v -144 -112 0
v -160 -112 0
v -160 -96 0
v -144 -96 0
v -128 -112 0
v -144 -112 0
v -144 -96 0
v -128 -96 0
v -112 -112 0
v -128 -112 0
v -128 -96 0
v -112 -96 0
v -96 -112 0
v -112 -112 0
v -112 -96 0
v -96 -96 0
v -80 -112 0
v -96 -112 0
v -96 -96 0
v -80 -96 0
v -64 -112 0
v -80 -112 0
v -80 -96 0
v -64 -96 0
v -48 -112 0
v -64 -112 0
v -64 -96 0
v -48 -96 0
v -32 -112 0
v -48 -112 0
v -48 -96 0
v -32 -96 0
v -16 -112 0
v -32 -112 0
v -32 -96 0
v -16 -96 0
v 0 -112 0
v -16 -112 0
v -16 -96 0
v 0 -96 0
v -240 -128 0
v -256 -128 0
v -256 -112 0
v -240 -112 0
v -224 -128 0
v -240 -128 0
v -240 -112 0
v -224 -112 0
v -208 -128 0
v -224 -128 0
v -224 -112 0
v -208 -112 0
v -192 -128 0
v -208 -128 0
v -208 -112 0
v -192 -112 0
v -176 -128 0
v -192 -128 0
v -192 -112 0
v -176 -112 0
v -160 -128 0
v -176 -128 0
v -176 -112 0
v -160 -112 0
v -144 -128 0
v -160 -128 0
v -160 -112 0
v -144 -112 0
v -128 -128 0
v -144 -128 0
v -144 -112 0
v -128 -112 0
v -112 -128 0
v -128 -128 0
v -128 -112 0
v -112 -112 0
v -96 -128 0
v -112 -128 0
v -112 -112 0
v -96 -112 0
v -80 -128 0
v -96 -128 0
v -96 -112 0
v -80 -112 0
v -64 -128 0
v -80 -128 0
v -80 -112 0
v -64 -112 0
v -48 -128 0
v -64 -128 0
v -64 -112 0
v -48 -112 0
v -32 -128 0
v -48 -128 0
v -48 -112 0
v -32 -112 0
v -16 -128 0
v -32 -128 0
v -32 -112 0
v -16 -112 0
v 0 -128 0
v -16 -128 0
v -16 -112 0
v 0 -112 0
v -240 -144 0
v -256 -144 0
v -256 -128 0
v -240 -128 0
v -224 -144 0
v -240 -144 0
v -240 -128 0
v -224 -128 0
v -208 -144 0
v -224 -144 0
v -224 -128 0
v -208 -128 0
v -192 -144 0
v -208 -144 0
v -208 -128 0
v -192 -128 0
v -176 -144 0
v -192 -144 0
v -192 -128 0
v -176 -128 0
v -160 -144 0
v -176 -144 0
v -176 -128 0
v -160 -128 0
v -144 -144 0
v -160 -144 0
v -160 -128 0
v -144 -128 0
v -128 -144 0
v -144 -144 0
v -144 -128 0
v -128 -128 0
v -112 -144 0
v -128 -144 0
v -128 -128 0
v -112 -128 0
v -96 -144 0
v -112 -144 0
v -112 -128 0
v -96 -128 0
v -80 -144 0
v -96 -144 0
v -96 -128 0
v -80 -128 0
v -64 -144 0
v -80 -144 0
v -80 -128 0
v -64 -128 0
v -48 -144 0
v -64 -144 0
v -64 -128 0
v -48 -128 0
v -32 -144 0
v -48 -144 0
v -48 -128 0
v -32 -128 0
v -16 -144 0
v -32 -144 0
v -32 -128 0
v -16 -128 0
v 0 -144 0
v -16 -144 0
v -16 -128 0
v 0 -128 0
v -240 -160 0
v -256 -160 0
v -256 -144 0
v -240 -144 0
v -224 -160 0
v -240 -160 0
v -240 -144 0
v -224 -144 0
v -208 -160 0
v -224 -160 0
v -224 -144 0
v -208 -144 0
v -192 -160 0
v -208 -160 0
v -208 -144 0
v -192 -144 0
v -176 -160 0
v -192 -160 0
v -192 -144 0
v -176 -144 0
v -160 -160 0
v -176 -160 0
v -176 -144 0
v -160 -144 0
v -144 -160 0
v -160 -160 0
v -160 -144 0
v -144 -144 0
v -128 -160 0
v -144 -160 0
v -144 -144 0
v -128 -144 0
v -112 -160 0
v -128 -160 0
v -128 -144 0
v -112 -144 0
v -96 -160 0
v -112 -160 0
v -112 -144 0
v -96 -144 0
v -80 -160 0
v -96 -160 0
v -96 -144 0
v -80 -144 0
v -64 -160 0
v -80 -160 0
v -80 -144 0
v -64 -144 0
v -48 -160 0
v -64 -160 0
v -64 -144 0
v -48 -144 0
v -32 -160 0
v -48 -160 0
v -48 -144 0
v -32 -144 0
v -16 -160 0
v -32 -160 0
v -32 -144 0
v -16 -144 0
v 0 -160 0
v -16 -160 0
v -16 -144 0
v 0 -144 0
v -240 -176 0
v -256 -176 0
v -256 -160 0
v -240 -160 0
v -224 -176 0
v -240 -176 0
v -240 -160 0
v -224 -160 0
v -208 -176 0
v -224 -176 0
v -224 -160 0
v -208 -160 0
v -192 -176 0
v -208 -176 0
v -208 -160 0
v -192 -160 0
v -176 -176 0
v -192 -176 0
v -192 -160 0
v -176 -160 0
v -160 -176 0
v -176 -176 0
v -176 -160 0
v -160 -160 0
v -144 -176 0
v -160 -176 0
v -160 -160 0
v -144 -160 0
v -128 -176 0
v -144 -176 0
v -144 -160 0
v -128 -160 0
v -112 -176 0
v -128 -176 0
v -128 -160 0
v -112 -160 0
v -96 -176 0
v -112 -176 0
v -112 -160 0
v -96 -160 0
v -80 -176 0
v -96 -176 0
v -96 -160 0
v -80 -160 0
v -64 -176 0
v -80 -176 0
v -80 -160 0
v -64 -160 0
v -48 -176 0
v -64 -176 0
v -64 -160 0
v -48 -160 0
v -32 -176 0
v -48 -176 0
v -48 -160 0
v -32 -160 0
v -16 -176 0
v -32 -176 0
v -32 -160 0
v -16 -160 0
v 0 -176 0
v -16 -176 0
v -16 -160 0
v 0 -160 0
v -240 -192 0
v -256 -192 0
v -256 -176 0
v -240 -176 0
v -224 -192 0
v -240 -192 0
v -240 -176 0
v -224 -176 0
v -208 -192 0
v -224 -192 0
v -224 -176 0
v -208 -176 0
v -192 -192 0
v -208 -192 0
v -208 -176 0
v -192 -176 0
v -176 -192 0
v -192 -192 0
v -192 -176 0
v -176 -176 0
v -160 -192 0
v -176 -192 0
v -176 -176 0
v -160 -176 0
v -144 -192 0
v -160 -192 0
v -160 -176 0
v -144 -176 0
v -128 -192 0
v -144 -192 0
v -144 -176 0
v -128 -176 0
v -112 -192 0
v -128 -192 0
v -128 -176 0
v -112 -176 0
v -96 -192 0
v -112 -192 0
v -112 -176 0
v -96 -176 0
v -80 -192 0
v -96 -192 0
v -96 -176 0
v -80 -176 0
v -64 -192 0
v -80 -192 0
v -80 -176 0
v -64 -176 0
v -48 -192 0
v -64 -192 0
v -64 -176 0
v -48 -176 0
v -32 -192 0
v -48 -192 0
v -48 -176 0
v -32 -176 0
v -16 -192 0
v -32 -192 0
v -32 -176 0
v -16 -176 0
v 0 -192 0
v -16 -192 0
v -16 -176 0
v 0 -176 0
v -240 -208 0
v -256 -208 0
v -256 -192 0
v -240 -192 0
v -224 -208 0
v -240 -208 0
v -240 -192 0
v -224 -192 0
v -208 -208 0
v -224 -208 0
v -224 -192 0
v -208 -192 0
v -192 -208 0
v -208 -208 0
v -208 -192 0
v -192 -192 0
v -176 -208 0
v -192 -208 0
v -192 -192 0
v -176 -192 0
v -160 -208 0
v -176 -208 0
v -176 -192 0
v -160 -192 0
v -144 -208 0
v -160 -208 0
v -160 -192 0
v -144 -192 0
v -128 -208 0
v -144 -208 0
v -144 -192 0
v -128 -192 0
v -112 -208 0
v -128 -208 0
v -128 -192 0
v -112 -192 0
v -96 -208 0
v -112 -208 0
v -112 -192 0
v -96 -192 0
v -80 -208 0
v -96 -208 0
v -96 -192 0
v -80 -192 0
v -64 -208 0
v -80 -208 0
v -80 -192 0
v -64 -192 0
v -48 -208 0
v -64 -208 0
v -64 -192 0
v -48 -192 0
v -32 -208 0
v -48 -208 0
v -48 -192 0
v -32 -192 0
v -16 -208 0
v -32 -208 0
v -32 -192 0
v -16 -192 0
v 0 -208 0
v -16 -208 0
v -16 -192 0
v 0 -192 0
v -240 -224 0
v -256 -224 0
v -256 -208 0
v -240 -208 0
v -224 -224 0
v -240 -224 0
v -240 -208 0
v -224 -208 0
v -208 -224 0
v -224 -224 0
v -224 -208 0
v -208 -208 0
v -192 -224 0
v -208 -224 0
v -208 -208 0
v -192 -208 0
v -176 -224 0
v -192 -224 0
v -192 -208 0
v -176 -208 0
v -160 -224 0
v -176 -224 0
v -176 -208 0
v -160 -208 0
v -144 -224 0
v -160 -224 0
v -160 -208 0
v -144 -208 0
v -128 -224 0
v -144 -224 0
v -144 -208 0
v -128 -208 0
v -112 -224 0
v -128 -224 0
v -128 -208 0
v -112 -208 0
v -96 -224 0
v -112 -224 0
v -112 -208 0
v -96 -208 0
v -80 -224 0
v -96 -224 0
v -96 -208 0
v -80 -208 0
v -64 -224 0
v -80 -224 0
v -80 -208 0
v -64 -208 0
v -48 -224 0
v -64 -224 0
v -64 -208 0
v -48 -208 0
v -32 -224 0
v -48 -224 0
v -48 -208 0
v -32 -208 0
v -16 -224 0
v -32 -224 0
v -32 -208 0
v -16 -208 0
v 0 -224 0
v -16 -224 0
v -16 -208 0
v 0 -208 0
v -240 -240 0
v -256 -240 0
v -256 -224 0
v -240 -224 0
v -224 -240 0
v -240 -240 0
v -240 -224 0
v -224 -224 0
v -208 -240 0
v -224 -240 0
v -224 -224 0
v -208 -224 0
v -192 -240 0
v -208 -240 0
v -208 -224 0
v -192 -224 0
v -176 -240 0
v -192 -240 0
v -192 -224 0
v -176 -224 0
v -160 -240 0
v -176 -240 0
v -176 -224 0
v -160 -224 0
v -144 -240 0
v -160 -240 0
v -160 -224 0
v -144 -224 0
v -128 -240 0
v -144 -240 0
v -144 -224 0
v -128 -224 0
v -112 -240 0
v -128 -240 0
v -128 -224 0
v -112 -224 0
v -96 -240 0
v -112 -240 0
v -112 -224 0
v -96 -224 0
v -80 -240 0
v -96 -240 0
v -96 -224 0
v -80 -224 0
v -64 -240 0
v -80 -240 0
v -80 -224 0
v -64 -224 0
v -48 -240 0
v -64 -240 0
v -64 -224 0
v -48 -224 0
v -32 -240 0
v -48 -240 0
v -48 -224 0
v -32 -224 0
v -16 -240 0
v -32 -240 0
v -32 -224 0
v -16 -224 0
v 0 -240 0
v -16 -240 0
v -16 -224 0
v 0 -224 0
v -240 -256 0
v -256 -256 0
v -256 -240 0
v -240 -240 0
v -224 -256 0
v -240 -256 0
v -240 -240 0
v -224 -240 0
v -208 -256 0
v -224 -256 0
v -224 -240 0
v -208 -240 0
v -192 -256 0
v -208 -256 0
v -208 -240 0
v -192 -240 0
v -176 -256 0
v -192 -256 0
v -192 -240 0
v -176 -240 0
v -160 -256 0
v -176 -256 0
v -176 -240 0
v -160 -240 0
v -144 -256 0
v -160 -256 0
v -160 -240 0
v -144 -240 0
v -128 -256 0
v -144 -256 0
v -144 -240 0
v -128 -240 0
v -112 -256 0
v -128 -256 0
v -128 -240 0
v -112 -240 0
v -96 -256 0
v -112 -256 0
v -112 -240 0
v -96 -240 0
v -80 -256 0
v -96 -256 0
v -96 -240 0
v -80 -240 0
v -64 -256 0
v -80 -256 0
v -80 -240 0
v -64 -240 0
v -48 -256 0
v -64 -256 0
v -64 -240 0
v -48 -240 0
v -32 -256 0
v -48 -256 0
v -48 -240 0
v -32 -240 0
v -16 -256 0
v -32 -256 0
v -32 -240 0
v -16 -240 0
v 0 -256 0
v -16 -256 0
v -16 -240 0
v 0 -240 0

# Texture cooridinates (Count = 9)
vt 0.175 0.6944444
vt 0.2 0.6944444
vt 0.2 0.7222222
vt 0.175 0.7222222
vt 0.2 0.75
vt 0.175 0.75
vt 0.225 0.6944444
vt 0.225 0.7222222
vt 0.225 0.75

# Normal
vn 0 0 -1

# Mesh description
g Village_mesh_0008

# Faces
f 1/1/1 2/2/1 3/3/1 4/4/1
f 5/4/1 6/3/1 7/5/1 8/6/1
f 9/2/1 10/7/1 11/8/1 12/3/1
f 13/3/1 14/8/1 15/9/1 16/5/1
f 17/2/1 18/7/1 19/8/1 20/3/1
f 21/2/1 22/7/1 23/8/1 24/3/1
f 25/2/1 26/7/1 27/8/1 28/3/1
f 29/3/1 30/8/1 31/9/1 32/5/1
f 33/1/1 34/2/1 35/3/1 36/4/1
f 37/1/1 38/2/1 39/3/1 40/4/1
f 41/4/1 42/3/1 43/5/1 44/6/1
f 45/3/1 46/8/1 47/9/1 48/5/1
f 49/1/1 50/2/1 51/3/1 52/4/1
f 53/3/1 54/8/1 55/9/1 56/5/1
f 57/3/1 58/8/1 59/9/1 60/5/1
f 61/2/1 62/7/1 63/8/1 64/3/1
f 65/3/1 66/8/1 67/9/1 68/5/1
f 69/1/1 70/2/1 71/3/1 72/4/1
f 73/1/1 74/2/1 75/3/1 76/4/1
f 77/3/1 78/8/1 79/9/1 80/5/1
f 81/4/1 82/3/1 83/5/1 84/6/1
f 85/4/1 86/3/1 87/5/1 88/6/1
f 89/2/1 90/7/1 91/8/1 92/3/1
f 93/1/1 94/2/1 95/3/1 96/4/1
f 97/1/1 98/2/1 99/3/1 100/4/1
f 101/3/1 102/8/1 103/9/1 104/5/1
f 105/2/1 106/7/1 107/8/1 108/3/1
f 109/2/1 110/7/1 111/8/1 112/3/1
f 113/4/1 114/3/1 115/5/1 116/6/1
f 117/1/1 118/2/1 119/3/1 120/4/1
f 121/3/1 122/8/1 123/9/1 124/5/1
f 125/1/1 126/2/1 127/3/1 128/4/1
f 129/4/1 130/3/1 131/5/1 132/6/1
f 133/1/1 134/2/1 135/3/1 136/4/1
f 137/4/1 138/3/1 139/5/1 140/6/1
f 141/4/1 142/3/1 143/5/1 144/6/1
f 145/2/1 146/7/1 147/8/1 148/3/1
f 149/1/1 150/2/1 151/3/1 152/4/1
f 153/1/1 154/2/1 155/3/1 156/4/1
f 157/2/1 158/7/1 159/8/1 160/3/1
f 161/3/1 162/8/1 163/9/1 164/5/1
f 165/1/1 166/2/1 167/3/1 168/4/1
f 169/2/1 170/7/1 171/8/1 172/3/1
f 173/1/1 174/2/1 175/3/1 176/4/1
f 177/1/1 178/2/1 179/3/1 180/4/1
f 181/4/1 182/3/1 183/5/1 184/6/1
f 185/2/1 186/7/1 187/8/1 188/3/1
f 189/2/1 190/7/1 191/8/1 192/3/1
f 193/1/1 194/2/1 195/3/1 196/4/1
f 197/3/1 198/8/1 199/9/1 200/5/1
f 201/1/1 202/2/1 203/3/1 204/4/1
f 205/4/1 206/3/1 207/5/1 208/6/1
f 209/4/1 210/3/1 211/5/1 212/6/1
f 213/2/1 214/7/1 215/8/1 216/3/1
f 217/2/1 218/7/1 219/8/1 220/3/1
f 221/4/1 222/3/1 223/5/1 224/6/1
f 225/2/1 226/7/1 227/8/1 228/3/1
f 229/3/1 230/8/1 231/9/1 232/5/1
f 233/2/1 234/7/1 235/8/1 236/3/1
f 237/2/1 238/7/1 239/8/1 240/3/1
f 241/3/1 242/8/1 243/9/1 244/5/1
f 245/4/1 246/3/1 247/5/1 248/6/1
f 249/3/1 250/8/1 251/9/1 252/5/1
f 253/2/1 254/7/1 255/8/1 256/3/1
f 257/2/1 258/7/1 259/8/1 260/3/1
f 261/2/1 262/7/1 263/8/1 264/3/1
f 265/2/1 266/7/1 267/8/1 268/3/1
f 269/3/1 270/8/1 271/9/1 272/5/1
f 273/1/1 274/2/1 275/3/1 276/4/1
f 277/1/1 278/2/1 279/3/1 280/4/1
f 281/2/1 282/7/1 283/8/1 284/3/1
f 285/4/1 286/3/1 287/5/1 288/6/1
f 289/2/1 290/7/1 291/8/1 292/3/1
f 293/4/1 294/3/1 295/5/1 296/6/1
f 297/4/1 298/3/1 299/5/1 300/6/1
f 301/3/1 302/8/1 303/9/1 304/5/1
f 305/2/1 306/7/1 307/8/1 308/3/1
f 309/1/1 310/2/1 311/3/1 312/4/1
f 313/3/1 314/8/1 315/9/1 316/5/1
f 317/3/1 318/8/1 319/9/1 320/5/1
f 321/1/1 322/2/1 323/3/1 324/4/1
f 325/4/1 326/3/1 327/5/1 328/6/1
f 329/2/1 330/7/1 331/8/1 332/3/1
f 333/3/1 334/8/1 335/9/1 336/5/1
f 337/3/1 338/8/1 339/9/1 340/5/1
f 341/2/1 342/7/1 343/8/1 344/3/1
f 345/2/1 346/7/1 347/8/1 348/3/1
f 349/1/1 350/2/1 351/3/1 352/4/1
f 353/1/1 354/2/1 355/3/1 356/4/1
f 357/3/1 358/8/1 359/9/1 360/5/1
f 361/2/1 362/7/1 363/8/1 364/3/1
f 365/2/1 366/7/1 367/8/1 368/3/1
f 369/4/1 370/3/1 371/5/1 372/6/1
f 373/1/1 374/2/1 375/3/1 376/4/1
f 377/2/1 378/7/1 379/8/1 380/3/1
f 381/2/1 382/7/1 383/8/1 384/3/1
f 385/2/1 386/7/1 387/8/1 388/3/1
f 389/2/1 390/7/1 391/8/1 392/3/1
f 393/3/1 394/8/1 395/9/1 396/5/1
f 397/4/1 398/3/1 399/5/1 400/6/1
f 401/2/1 402/7/1 403/8/1 404/3/1
f 405/1/1 406/2/1 407/3/1 408/4/1
f 409/4/1 410/3/1 411/5/1 412/6/1
f 413/4/1 414/3/1 415/5/1 416/6/1
f 417/3/1 418/8/1 419/9/1 420/5/1
f 421/2/1 422/7/1 423/8/1 424/3/1
f 425/4/1 426/3/1 427/5/1 428/6/1
f 429/3/1 430/8/1 431/9/1 432/5/1
f 433/2/1 434/7/1 435/8/1 436/3/1
f 437/3/1 438/8/1 439/9/1 440/5/1
f 441/1/1 442/2/1 443/3/1 444/4/1
f 445/2/1 446/7/1 447/8/1 448/3/1
f 449/4/1 450/3/1 451/5/1 452/6/1
f 453/4/1 454/3/1 455/5/1 456/6/1
f 457/3/1 458/8/1 459/9/1 460/5/1
f 461/2/1 462/7/1 463/8/1 464/3/1
f 465/4/1 466/3/1 467/5/1 468/6/1
f 469/2/1 470/7/1 471/8/1 472/3/1
f 473/3/1 474/8/1 475/9/1 476/5/1
f 477/4/1 478/3/1 479/5/1 480/6/1
f 481/1/1 482/2/1 483/3/1 484/4/1
f 485/2/1 486/7/1 487/8/1 488/3/1
f 489/1/1 490/2/1 491/3/1 492/4/1
f 493/4/1 494/3/1 495/5/1 496/6/1
f 497/1/1 498/2/1 499/3/1 500/4/1
f 501/4/1 502/3/1 503/5/1 504/6/1
f 505/1/1 506/2/1 507/3/1 508/4/1
f 509/3/1 510/8/1 511/9/1 512/5/1
f 513/4/1 514/3/1 515/5/1 516/6/1
f 517/3/1 518/8/1 519/9/1 520/5/1
f 521/1/1 522/2/1 523/3/1 524/4/1
f 525/3/1 526/8/1 527/9/1 528/5/1
f 529/3/1 530/8/1 531/9/1 532/5/1
f 533/2/1 534/7/1 535/8/1 536/3/1
f 537/2/1 538/7/1 539/8/1 540/3/1
f 541/4/1 542/3/1 543/5/1 544/6/1
f 545/1/1 546/2/1 547/3/1 548/4/1
f 549/4/1 550/3/1 551/5/1 552/6/1
f 553/2/1 554/7/1 555/8/1 556/3/1
f 557/2/1 558/7/1 559/8/1 560/3/1
f 561/3/1 562/8/1 563/9/1 564/5/1
f 565/4/1 566/3/1 567/5/1 568/6/1
f 569/2/1 570/7/1 571/8/1 572/3/1
f 573/3/1 574/8/1 575/9/1 576/5/1
f 577/1/1 578/2/1 579/3/1 580/4/1
f 581/4/1 582/3/1 583/5/1 584/6/1
f 585/4/1 586/3/1 587/5/1 588/6/1
f 589/1/1 590/2/1 591/3/1 592/4/1
f 593/2/1 594/7/1 595/8/1 596/3/1
f 597/3/1 598/8/1 599/9/1 600/5/1
f 601/4/1 602/3/1 603/5/1 604/6/1
f 605/2/1 606/7/1 607/8/1 608/3/1
f 609/1/1 610/2/1 611/3/1 612/4/1
f 613/1/1 614/2/1 615/3/1 616/4/1
f 617/3/1 618/8/1 619/9/1 620/5/1
f 621/2/1 622/7/1 623/8/1 624/3/1
f 625/1/1 626/2/1 627/3/1 628/4/1
f 629/3/1 630/8/1 631/9/1 632/5/1
f 633/2/1 634/7/1 635/8/1 636/3/1
f 637/4/1 638/3/1 639/5/1 640/6/1
f 641/2/1 642/7/1 643/8/1 644/3/1
f 645/3/1 646/8/1 647/9/1 648/5/1
f 649/2/1 650/7/1 651/8/1 652/3/1
f 653/2/1 654/7/1 655/8/1 656/3/1
f 657/3/1 658/8/1 659/9/1 660/5/1
f 661/4/1 662/3/1 663/5/1 664/6/1
f 665/4/1 666/3/1 667/5/1 668/6/1
f 669/3/1 670/8/1 671/9/1 672/5/1
f 673/2/1 674/7/1 675/8/1 676/3/1
f 677/1/1 678/2/1 679/3/1 680/4/1
f 681/3/1 682/8/1 683/9/1 684/5/1
f 685/1/1 686/2/1 687/3/1 688/4/1
f 689/2/1 690/7/1 691/8/1 692/3/1
f 693/1/1 694/2/1 695/3/1 696/4/1
f 697/1/1 698/2/1 699/3/1 700/4/1
f 701/3/1 702/8/1 703/9/1 704/5/1
f 705/1/1 706/2/1 707/3/1 708/4/1
f 709/1/1 710/2/1 711/3/1 712/4/1
f 713/3/1 714/8/1 715/9/1 716/5/1
f 717/1/1 718/2/1 719/3/1 720/4/1
f 721/4/1 722/3/1 723/5/1 724/6/1
f 725/4/1 726/3/1 727/5/1 728/6/1
f 729/4/1 730/3/1 731/5/1 732/6/1
f 733/2/1 734/7/1 735/8/1 736/3/1
f 737/2/1 738/7/1 739/8/1 740/3/1
f 741/2/1 742/7/1 743/8/1 744/3/1
f 745/3/1 746/8/1 747/9/1 748/5/1
f 749/4/1 750/3/1 751/5/1 752/6/1
f 753/2/1 754/7/1 755/8/1 756/3/1
f 757/4/1 758/3/1 759/5/1 760/6/1
f 761/4/1 762/3/1 763/5/1 764/6/1
f 765/1/1 766/2/1 767/3/1 768/4/1
f 769/3/1 770/8/1 771/9/1 772/5/1
f 773/4/1 774/3/1 775/5/1 776/6/1
f 777/1/1 778/2/1 779/3/1 780/4/1
f 781/4/1 782/3/1 783/5/1 784/6/1
f 785/4/1 786/3/1 787/5/1 788/6/1
f 789/1/1 790/2/1 791/3/1 792/4/1
f 793/4/1 794/3/1 795/5/1 796/6/1
f 797/2/1 798/7/1 799/8/1 800/3/1
f 801/1/1 802/2/1 803/3/1 804/4/1
f 805/3/1 806/8/1 807/9/1 808/5/1
f 809/1/1 810/2/1 811/3/1 812/4/1
f 813/3/1 814/8/1 815/9/1 816/5/1
f 817/1/1 818/2/1 819/3/1 820/4/1
f 821/4/1 822/3/1 823/5/1 824/6/1
f 825/1/1 826/2/1 827/3/1 828/4/1
f 829/1/1 830/2/1 831/3/1 832/4/1
f 833/1/1 834/2/1 835/3/1 836/4/1
f 837/4/1 838/3/1 839/5/1 840/6/1
f 841/2/1 842/7/1 843/8/1 844/3/1
f 845/3/1 846/8/1 847/9/1 848/5/1
f 849/2/1 850/7/1 851/8/1 852/3/1
f 853/1/1 854/2/1 855/3/1 856/4/1
f 857/4/1 858/3/1 859/5/1 860/6/1
f 861/4/1 862/3/1 863/5/1 864/6/1
f 865/3/1 866/8/1 867/9/1 868/5/1
f 869/4/1 870/3/1 871/5/1 872/6/1
f 873/2/1 874/7/1 875/8/1 876/3/1
f 877/4/1 878/3/1 879/5/1 880/6/1
f 881/2/1 882/7/1 883/8/1 884/3/1
f 885/1/1 886/2/1 887/3/1 888/4/1
f 889/3/1 890/8/1 891/9/1 892/5/1
f 893/2/1 894/7/1 895/8/1 896/3/1
f 897/1/1 898/2/1 899/3/1 900/4/1
f 901/2/1 902/7/1 903/8/1 904/3/1
f 905/4/1 906/3/1 907/5/1 908/6/1
f 909/2/1 910/7/1 911/8/1 912/3/1
f 913/3/1 914/8/1 915/9/1 916/5/1
f 917/4/1 918/3/1 919/5/1 920/6/1
f 921/4/1 922/3/1 923/5/1 924/6/1
f 925/4/1 926/3/1 927/5/1 928/6/1
f 929/4/1 930/3/1 931/5/1 932/6/1
f 933/3/1 934/8/1 935/9/1 936/5/1
f 937/1/1 938/2/1 939/3/1 940/4/1
f 941/4/1 942/3/1 943/5/1 944/6/1
f 945/3/1 946/8/1 947/9/1 948/5/1
f 949/1/1 950/2/1 951/3/1 952/4/1
f 953/4/1 954/3/1 955/5/1 956/6/1
f 957/4/1 958/3/1 959/5/1 960/6/1
f 961/2/1 962/7/1 963/8/1 964/3/1
f 965/4/1 966/3/1 967/5/1 968/6/1
f 969/2/1 970/7/1 971/8/1 972/3/1
f 973/2/1 974/7/1 975/8/1 976/3/1
f 977/4/1 978/3/1 979/5/1 980/6/1
f 981/4/1 982/3/1 983/5/1 984/6/1
f 985/2/1 986/7/1 987/8/1 988/3/1
f 989/2/1 990/7/1 991/8/1 992/3/1
f 993/3/1 994/8/1 995/9/1 996/5/1
f 997/3/1 998/8/1 999/9/1 1000/5/1
f 1001/2/1 1002/7/1 1003/8/1 1004/3/1
f 1005/4/1 1006/3/1 1007/5/1 1008/6/1
f 1009/4/1 1010/3/1 1011/5/1 1012/6/1
f 1013/2/1 1014/7/1 1015/8/1 1016/3/1
f 1017/3/1 1018/8/1 1019/9/1 1020/5/1
f 1021/2/1 1022/7/1 1023/8/1 1024/3/1

