# Tiled2Unity generated file. Do not modify by hand.
# Wavefront file for 'Village_mesh_0102.obj'

# Vertices (Count = 12)
v -16 -80 0
v -32 -80 0
v -32 -64 0
v -16 -64 0
v -16 -96 0
v -32 -96 0
v -32 -80 0
v -16 -80 0
v 0 -112 0
v -16 -112 0
v -16 -96 0
v 0 -96 0

# Texture cooridinates (Count = 10)
vt 0.175 0.6111111
vt 0.2 0.6111111
vt 0.2 0.6388889
vt 0.175 0.6388889
vt 0.175 0.5833334
vt 0.2 0.5833334
vt 0.1 0.5555556
vt 0.125 0.5555556
vt 0.125 0.5833334
vt 0.1 0.5833334

# Normal
vn 0 0 -1

# Mesh description
g Village_mesh_0102

# Faces
f 1/1/1 2/2/1 3/3/1 4/4/1
f 5/5/1 6/6/1 7/2/1 8/1/1
f 9/7/1 10/8/1 11/9/1 12/10/1

