# Tiled2Unity generated file. Do not modify by hand.
# Wavefront file for 'Village_mesh_0034.obj'

# Vertices (Count = 1024)
v -240 -16 0
v -256 -16 0
v -256 0 0
v -240 0 0
v -224 -16 0
v -240 -16 0
v -240 0 0
v -224 0 0
v -208 -16 0
v -224 -16 0
v -224 0 0
v -208 0 0
v -192 -16 0
v -208 -16 0
v -208 0 0
v -192 0 0
v -176 -16 0
v -192 -16 0
v -192 0 0
v -176 0 0
v -160 -16 0
v -176 -16 0
v -176 0 0
v -160 0 0
v -144 -16 0
v -160 -16 0
v -160 0 0
v -144 0 0
v -128 -16 0
v -144 -16 0
v -144 0 0
v -128 0 0
v -112 -16 0
v -128 -16 0
v -128 0 0
v -112 0 0
v -96 -16 0
v -112 -16 0
v -112 0 0
v -96 0 0
v -80 -16 0
v -96 -16 0
v -96 0 0
v -80 0 0
v -64 -16 0
v -80 -16 0
v -80 0 0
v -64 0 0
v -48 -16 0
v -64 -16 0
v -64 0 0
v -48 0 0
v -32 -16 0
v -48 -16 0
v -48 0 0
v -32 0 0
v -16 -16 0
v -32 -16 0
v -32 0 0
v -16 0 0
v 0 -16 0
v -16 -16 0
v -16 0 0
v 0 0 0
v -240 -32 0
v -256 -32 0
v -256 -16 0
v -240 -16 0
v -224 -32 0
v -240 -32 0
v -240 -16 0
v -224 -16 0
v -208 -32 0
v -224 -32 0
v -224 -16 0
v -208 -16 0
v -192 -32 0
v -208 -32 0
v -208 -16 0
v -192 -16 0
v -176 -32 0
v -192 -32 0
v -192 -16 0
v -176 -16 0
v -160 -32 0
v -176 -32 0
v -176 -16 0
v -160 -16 0
v -144 -32 0
v -160 -32 0
v -160 -16 0
v -144 -16 0
v -128 -32 0
v -144 -32 0
v -144 -16 0
v -128 -16 0
v -112 -32 0
v -128 -32 0
v -128 -16 0
v -112 -16 0
v -96 -32 0
v -112 -32 0
v -112 -16 0
v -96 -16 0
v -80 -32 0
v -96 -32 0
v -96 -16 0
v -80 -16 0
v -64 -32 0
v -80 -32 0
v -80 -16 0
v -64 -16 0
v -48 -32 0
v -64 -32 0
v -64 -16 0
v -48 -16 0
v -32 -32 0
v -48 -32 0
v -48 -16 0
v -32 -16 0
v -16 -32 0
v -32 -32 0
v -32 -16 0
v -16 -16 0
v 0 -32 0
v -16 -32 0
v -16 -16 0
v 0 -16 0
v -240 -48 0
v -256 -48 0
v -256 -32 0
v -240 -32 0
v -224 -48 0
v -240 -48 0
v -240 -32 0
v -224 -32 0
v -208 -48 0
v -224 -48 0
v -224 -32 0
v -208 -32 0
v -192 -48 0
v -208 -48 0
v -208 -32 0
v -192 -32 0
v -176 -48 0
v -192 -48 0
v -192 -32 0
v -176 -32 0
v -160 -48 0
v -176 -48 0
v -176 -32 0
v -160 -32 0
v -144 -48 0
v -160 -48 0
v -160 -32 0
v -144 -32 0
v -128 -48 0
v -144 -48 0
v -144 -32 0
v -128 -32 0
v -112 -48 0
v -128 -48 0
v -128 -32 0
v -112 -32 0
v -96 -48 0
v -112 -48 0
v -112 -32 0
v -96 -32 0
v -80 -48 0
v -96 -48 0
v -96 -32 0
v -80 -32 0
v -64 -48 0
v -80 -48 0
v -80 -32 0
v -64 -32 0
v -48 -48 0
v -64 -48 0
v -64 -32 0
v -48 -32 0
v -32 -48 0
v -48 -48 0
v -48 -32 0
v -32 -32 0
v -16 -48 0
v -32 -48 0
v -32 -32 0
v -16 -32 0
v 0 -48 0
v -16 -48 0
v -16 -32 0
v 0 -32 0
v -240 -64 0
v -256 -64 0
v -256 -48 0
v -240 -48 0
v -224 -64 0
v -240 -64 0
v -240 -48 0
v -224 -48 0
v -208 -64 0
v -224 -64 0
v -224 -48 0
v -208 -48 0
v -192 -64 0
v -208 -64 0
v -208 -48 0
v -192 -48 0
v -176 -64 0
v -192 -64 0
v -192 -48 0
v -176 -48 0
v -160 -64 0
v -176 -64 0
v -176 -48 0
v -160 -48 0
v -144 -64 0
v -160 -64 0
v -160 -48 0
v -144 -48 0
v -128 -64 0
v -144 -64 0
v -144 -48 0
v -128 -48 0
v -112 -64 0
v -128 -64 0
v -128 -48 0
v -112 -48 0
v -96 -64 0
v -112 -64 0
v -112 -48 0
v -96 -48 0
v -80 -64 0
v -96 -64 0
v -96 -48 0
v -80 -48 0
v -64 -64 0
v -80 -64 0
v -80 -48 0
v -64 -48 0
v -48 -64 0
v -64 -64 0
v -64 -48 0
v -48 -48 0
v -32 -64 0
v -48 -64 0
v -48 -48 0
v -32 -48 0
v -16 -64 0
v -32 -64 0
v -32 -48 0
v -16 -48 0
v 0 -64 0
v -16 -64 0
v -16 -48 0
v 0 -48 0
v -240 -80 0
v -256 -80 0
v -256 -64 0
v -240 -64 0
v -224 -80 0
v -240 -80 0
v -240 -64 0
v -224 -64 0
v -208 -80 0
v -224 -80 0
v -224 -64 0
v -208 -64 0
v -192 -80 0
v -208 -80 0
v -208 -64 0
v -192 -64 0
v -176 -80 0
v -192 -80 0
v -192 -64 0
v -176 -64 0
v -160 -80 0
v -176 -80 0
v -176 -64 0
v -160 -64 0
v -144 -80 0
v -160 -80 0
v -160 -64 0
v -144 -64 0
v -128 -80 0
v -144 -80 0
v -144 -64 0
v -128 -64 0
v -112 -80 0
v -128 -80 0
v -128 -64 0
v -112 -64 0
v -96 -80 0
v -112 -80 0
v -112 -64 0
v -96 -64 0
v -80 -80 0
v -96 -80 0
v -96 -64 0
v -80 -64 0
v -64 -80 0
v -80 -80 0
v -80 -64 0
v -64 -64 0
v -48 -80 0
v -64 -80 0
v -64 -64 0
v -48 -64 0
v -32 -80 0
v -48 -80 0
v -48 -64 0
v -32 -64 0
v -16 -80 0
v -32 -80 0
v -32 -64 0
v -16 -64 0
v 0 -80 0
v -16 -80 0
v -16 -64 0
v 0 -64 0
v -240 -96 0
v -256 -96 0
v -256 -80 0
v -240 -80 0
v -224 -96 0
v -240 -96 0
v -240 -80 0
v -224 -80 0
v -208 -96 0
v -224 -96 0
v -224 -80 0
v -208 -80 0
v -192 -96 0
v -208 -96 0
v -208 -80 0
v -192 -80 0
v -176 -96 0
v -192 -96 0
v -192 -80 0
v -176 -80 0
v -160 -96 0
v -176 -96 0
v -176 -80 0
v -160 -80 0
v -144 -96 0
v -160 -96 0
v -160 -80 0
v -144 -80 0
v -128 -96 0
v -144 -96 0
v -144 -80 0
v -128 -80 0
v -112 -96 0
v -128 -96 0
v -128 -80 0
v -112 -80 0
v -96 -96 0
v -112 -96 0
v -112 -80 0
v -96 -80 0
v -80 -96 0
v -96 -96 0
v -96 -80 0
v -80 -80 0
v -64 -96 0
v -80 -96 0
v -80 -80 0
v -64 -80 0
v -48 -96 0
v -64 -96 0
v -64 -80 0
v -48 -80 0
v -32 -96 0
v -48 -96 0
v -48 -80 0
v -32 -80 0
v -16 -96 0
v -32 -96 0
v -32 -80 0
v -16 -80 0
v 0 -96 0
v -16 -96 0
v -16 -80 0
v 0 -80 0
v -240 -112 0
v -256 -112 0
v -256 -96 0
v -240 -96 0
v -224 -112 0
v -240 -112 0
v -240 -96 0
v -224 -96 0
v -208 -112 0
v -224 -112 0
v -224 -96 0
v -208 -96 0
v -192 -112 0
v -208 -112 0
v -208 -96 0
v -192 -96 0
v -176 -112 0
v -192 -112 0
v -192 -96 0
v -176 -96 0
v -160 -112 0
v -176 -112 0
v -176 -96 0
v -160 -96 0
v -144 -112 0
v -160 -112 0
v -160 -96 0
v -144 -96 0
v -128 -112 0
v -144 -112 0
v -144 -96 0
v -128 -96 0
v -112 -112 0
v -128 -112 0
v -128 -96 0
v -112 -96 0
v -96 -112 0
v -112 -112 0
v -112 -96 0
v -96 -96 0
v -80 -112 0
v -96 -112 0
v -96 -96 0
v -80 -96 0
v -64 -112 0
v -80 -112 0
v -80 -96 0
v -64 -96 0
v -48 -112 0
v -64 -112 0
v -64 -96 0
v -48 -96 0
v -32 -112 0
v -48 -112 0
v -48 -96 0
v -32 -96 0
v -16 -112 0
v -32 -112 0
v -32 -96 0
v -16 -96 0
v 0 -112 0
v -16 -112 0
v -16 -96 0
v 0 -96 0
v -240 -128 0
v -256 -128 0
v -256 -112 0
v -240 -112 0
v -224 -128 0
v -240 -128 0
v -240 -112 0
v -224 -112 0
v -208 -128 0
v -224 -128 0
v -224 -112 0
v -208 -112 0
v -192 -128 0
v -208 -128 0
v -208 -112 0
v -192 -112 0
v -176 -128 0
v -192 -128 0
v -192 -112 0
v -176 -112 0
v -160 -128 0
v -176 -128 0
v -176 -112 0
v -160 -112 0
v -144 -128 0
v -160 -128 0
v -160 -112 0
v -144 -112 0
v -128 -128 0
v -144 -128 0
v -144 -112 0
v -128 -112 0
v -112 -128 0
v -128 -128 0
v -128 -112 0
v -112 -112 0
v -96 -128 0
v -112 -128 0
v -112 -112 0
v -96 -112 0
v -80 -128 0
v -96 -128 0
v -96 -112 0
v -80 -112 0
v -64 -128 0
v -80 -128 0
v -80 -112 0
v -64 -112 0
v -48 -128 0
v -64 -128 0
v -64 -112 0
v -48 -112 0
v -32 -128 0
v -48 -128 0
v -48 -112 0
v -32 -112 0
v -16 -128 0
v -32 -128 0
v -32 -112 0
v -16 -112 0
v 0 -128 0
v -16 -128 0
v -16 -112 0
v 0 -112 0
v -240 -144 0
v -256 -144 0
v -256 -128 0
v -240 -128 0
v -224 -144 0
v -240 -144 0
v -240 -128 0
v -224 -128 0
v -208 -144 0
v -224 -144 0
v -224 -128 0
v -208 -128 0
v -192 -144 0
v -208 -144 0
v -208 -128 0
v -192 -128 0
v -176 -144 0
v -192 -144 0
v -192 -128 0
v -176 -128 0
v -160 -144 0
v -176 -144 0
v -176 -128 0
v -160 -128 0
v -144 -144 0
v -160 -144 0
v -160 -128 0
v -144 -128 0
v -128 -144 0
v -144 -144 0
v -144 -128 0
v -128 -128 0
v -112 -144 0
v -128 -144 0
v -128 -128 0
v -112 -128 0
v -96 -144 0
v -112 -144 0
v -112 -128 0
v -96 -128 0
v -80 -144 0
v -96 -144 0
v -96 -128 0
v -80 -128 0
v -64 -144 0
v -80 -144 0
v -80 -128 0
v -64 -128 0
v -48 -144 0
v -64 -144 0
v -64 -128 0
v -48 -128 0
v -32 -144 0
v -48 -144 0
v -48 -128 0
v -32 -128 0
v -16 -144 0
v -32 -144 0
v -32 -128 0
v -16 -128 0
v 0 -144 0
v -16 -144 0
v -16 -128 0
v 0 -128 0
v -240 -160 0
v -256 -160 0
v -256 -144 0
v -240 -144 0
v -224 -160 0
v -240 -160 0
v -240 -144 0
v -224 -144 0
v -208 -160 0
v -224 -160 0
v -224 -144 0
v -208 -144 0
v -192 -160 0
v -208 -160 0
v -208 -144 0
v -192 -144 0
v -176 -160 0
v -192 -160 0
v -192 -144 0
v -176 -144 0
v -160 -160 0
v -176 -160 0
v -176 -144 0
v -160 -144 0
v -144 -160 0
v -160 -160 0
v -160 -144 0
v -144 -144 0
v -128 -160 0
v -144 -160 0
v -144 -144 0
v -128 -144 0
v -112 -160 0
v -128 -160 0
v -128 -144 0
v -112 -144 0
v -96 -160 0
v -112 -160 0
v -112 -144 0
v -96 -144 0
v -80 -160 0
v -96 -160 0
v -96 -144 0
v -80 -144 0
v -64 -160 0
v -80 -160 0
v -80 -144 0
v -64 -144 0
v -48 -160 0
v -64 -160 0
v -64 -144 0
v -48 -144 0
v -32 -160 0
v -48 -160 0
v -48 -144 0
v -32 -144 0
v -16 -160 0
v -32 -160 0
v -32 -144 0
v -16 -144 0
v 0 -160 0
v -16 -160 0
v -16 -144 0
v 0 -144 0
v -240 -176 0
v -256 -176 0
v -256 -160 0
v -240 -160 0
v -224 -176 0
v -240 -176 0
v -240 -160 0
v -224 -160 0
v -208 -176 0
v -224 -176 0
v -224 -160 0
v -208 -160 0
v -192 -176 0
v -208 -176 0
v -208 -160 0
v -192 -160 0
v -176 -176 0
v -192 -176 0
v -192 -160 0
v -176 -160 0
v -160 -176 0
v -176 -176 0
v -176 -160 0
v -160 -160 0
v -144 -176 0
v -160 -176 0
v -160 -160 0
v -144 -160 0
v -128 -176 0
v -144 -176 0
v -144 -160 0
v -128 -160 0
v -112 -176 0
v -128 -176 0
v -128 -160 0
v -112 -160 0
v -96 -176 0
v -112 -176 0
v -112 -160 0
v -96 -160 0
v -80 -176 0
v -96 -176 0
v -96 -160 0
v -80 -160 0
v -64 -176 0
v -80 -176 0
v -80 -160 0
v -64 -160 0
v -48 -176 0
v -64 -176 0
v -64 -160 0
v -48 -160 0
v -32 -176 0
v -48 -176 0
v -48 -160 0
v -32 -160 0
v -16 -176 0
v -32 -176 0
v -32 -160 0
v -16 -160 0
v 0 -176 0
v -16 -176 0
v -16 -160 0
v 0 -160 0
v -240 -192 0
v -256 -192 0
v -256 -176 0
v -240 -176 0
v -224 -192 0
v -240 -192 0
v -240 -176 0
v -224 -176 0
v -208 -192 0
v -224 -192 0
v -224 -176 0
v -208 -176 0
v -192 -192 0
v -208 -192 0
v -208 -176 0
v -192 -176 0
v -176 -192 0
v -192 -192 0
v -192 -176 0
v -176 -176 0
v -160 -192 0
v -176 -192 0
v -176 -176 0
v -160 -176 0
v -144 -192 0
v -160 -192 0
v -160 -176 0
v -144 -176 0
v -128 -192 0
v -144 -192 0
v -144 -176 0
v -128 -176 0
v -112 -192 0
v -128 -192 0
v -128 -176 0
v -112 -176 0
v -96 -192 0
v -112 -192 0
v -112 -176 0
v -96 -176 0
v -80 -192 0
v -96 -192 0
v -96 -176 0
v -80 -176 0
v -64 -192 0
v -80 -192 0
v -80 -176 0
v -64 -176 0
v -48 -192 0
v -64 -192 0
v -64 -176 0
v -48 -176 0
v -32 -192 0
v -48 -192 0
v -48 -176 0
v -32 -176 0
v -16 -192 0
v -32 -192 0
v -32 -176 0
v -16 -176 0
v 0 -192 0
v -16 -192 0
v -16 -176 0
v 0 -176 0
v -240 -208 0
v -256 -208 0
v -256 -192 0
v -240 -192 0
v -224 -208 0
v -240 -208 0
v -240 -192 0
v -224 -192 0
v -208 -208 0
v -224 -208 0
v -224 -192 0
v -208 -192 0
v -192 -208 0
v -208 -208 0
v -208 -192 0
v -192 -192 0
v -176 -208 0
v -192 -208 0
v -192 -192 0
v -176 -192 0
v -160 -208 0
v -176 -208 0
v -176 -192 0
v -160 -192 0
v -144 -208 0
v -160 -208 0
v -160 -192 0
v -144 -192 0
v -128 -208 0
v -144 -208 0
v -144 -192 0
v -128 -192 0
v -112 -208 0
v -128 -208 0
v -128 -192 0
v -112 -192 0
v -96 -208 0
v -112 -208 0
v -112 -192 0
v -96 -192 0
v -80 -208 0
v -96 -208 0
v -96 -192 0
v -80 -192 0
v -64 -208 0
v -80 -208 0
v -80 -192 0
v -64 -192 0
v -48 -208 0
v -64 -208 0
v -64 -192 0
v -48 -192 0
v -32 -208 0
v -48 -208 0
v -48 -192 0
v -32 -192 0
v -16 -208 0
v -32 -208 0
v -32 -192 0
v -16 -192 0
v 0 -208 0
v -16 -208 0
v -16 -192 0
v 0 -192 0
v -240 -224 0
v -256 -224 0
v -256 -208 0
v -240 -208 0
v -224 -224 0
v -240 -224 0
v -240 -208 0
v -224 -208 0
v -208 -224 0
v -224 -224 0
v -224 -208 0
v -208 -208 0
v -192 -224 0
v -208 -224 0
v -208 -208 0
v -192 -208 0
v -176 -224 0
v -192 -224 0
v -192 -208 0
v -176 -208 0
v -160 -224 0
v -176 -224 0
v -176 -208 0
v -160 -208 0
v -144 -224 0
v -160 -224 0
v -160 -208 0
v -144 -208 0
v -128 -224 0
v -144 -224 0
v -144 -208 0
v -128 -208 0
v -112 -224 0
v -128 -224 0
v -128 -208 0
v -112 -208 0
v -96 -224 0
v -112 -224 0
v -112 -208 0
v -96 -208 0
v -80 -224 0
v -96 -224 0
v -96 -208 0
v -80 -208 0
v -64 -224 0
v -80 -224 0
v -80 -208 0
v -64 -208 0
v -48 -224 0
v -64 -224 0
v -64 -208 0
v -48 -208 0
v -32 -224 0
v -48 -224 0
v -48 -208 0
v -32 -208 0
v -16 -224 0
v -32 -224 0
v -32 -208 0
v -16 -208 0
v 0 -224 0
v -16 -224 0
v -16 -208 0
v 0 -208 0
v -240 -240 0
v -256 -240 0
v -256 -224 0
v -240 -224 0
v -224 -240 0
v -240 -240 0
v -240 -224 0
v -224 -224 0
v -208 -240 0
v -224 -240 0
v -224 -224 0
v -208 -224 0
v -192 -240 0
v -208 -240 0
v -208 -224 0
v -192 -224 0
v -176 -240 0
v -192 -240 0
v -192 -224 0
v -176 -224 0
v -160 -240 0
v -176 -240 0
v -176 -224 0
v -160 -224 0
v -144 -240 0
v -160 -240 0
v -160 -224 0
v -144 -224 0
v -128 -240 0
v -144 -240 0
v -144 -224 0
v -128 -224 0
v -112 -240 0
v -128 -240 0
v -128 -224 0
v -112 -224 0
v -96 -240 0
v -112 -240 0
v -112 -224 0
v -96 -224 0
v -80 -240 0
v -96 -240 0
v -96 -224 0
v -80 -224 0
v -64 -240 0
v -80 -240 0
v -80 -224 0
v -64 -224 0
v -48 -240 0
v -64 -240 0
v -64 -224 0
v -48 -224 0
v -32 -240 0
v -48 -240 0
v -48 -224 0
v -32 -224 0
v -16 -240 0
v -32 -240 0
v -32 -224 0
v -16 -224 0
v 0 -240 0
v -16 -240 0
v -16 -224 0
v 0 -224 0
v -240 -256 0
v -256 -256 0
v -256 -240 0
v -240 -240 0
v -224 -256 0
v -240 -256 0
v -240 -240 0
v -224 -240 0
v -208 -256 0
v -224 -256 0
v -224 -240 0
v -208 -240 0
v -192 -256 0
v -208 -256 0
v -208 -240 0
v -192 -240 0
v -176 -256 0
v -192 -256 0
v -192 -240 0
v -176 -240 0
v -160 -256 0
v -176 -256 0
v -176 -240 0
v -160 -240 0
v -144 -256 0
v -160 -256 0
v -160 -240 0
v -144 -240 0
v -128 -256 0
v -144 -256 0
v -144 -240 0
v -128 -240 0
v -112 -256 0
v -128 -256 0
v -128 -240 0
v -112 -240 0
v -96 -256 0
v -112 -256 0
v -112 -240 0
v -96 -240 0
v -80 -256 0
v -96 -256 0
v -96 -240 0
v -80 -240 0
v -64 -256 0
v -80 -256 0
v -80 -240 0
v -64 -240 0
v -48 -256 0
v -64 -256 0
v -64 -240 0
v -48 -240 0
v -32 -256 0
v -48 -256 0
v -48 -240 0
v -32 -240 0
v -16 -256 0
v -32 -256 0
v -32 -240 0
v -16 -240 0
v 0 -256 0
v -16 -256 0
v -16 -240 0
v 0 -240 0

# Texture cooridinates (Count = 9)
vt 0.175 0.6944444
vt 0.2 0.6944444
vt 0.2 0.7222222
vt 0.175 0.7222222
vt 0.225 0.6944444
vt 0.225 0.7222222
vt 0.2 0.75
vt 0.175 0.75
vt 0.225 0.75

# Normal
vn 0 0 -1

# Mesh description
g Village_mesh_0034

# Faces
f 1/1/1 2/2/1 3/3/1 4/4/1
f 5/2/1 6/5/1 7/6/1 8/3/1
f 9/2/1 10/5/1 11/6/1 12/3/1
f 13/1/1 14/2/1 15/3/1 16/4/1
f 17/1/1 18/2/1 19/3/1 20/4/1
f 21/2/1 22/5/1 23/6/1 24/3/1
f 25/4/1 26/3/1 27/7/1 28/8/1
f 29/2/1 30/5/1 31/6/1 32/3/1
f 33/1/1 34/2/1 35/3/1 36/4/1
f 37/3/1 38/6/1 39/9/1 40/7/1
f 41/4/1 42/3/1 43/7/1 44/8/1
f 45/1/1 46/2/1 47/3/1 48/4/1
f 49/1/1 50/2/1 51/3/1 52/4/1
f 53/1/1 54/2/1 55/3/1 56/4/1
f 57/3/1 58/6/1 59/9/1 60/7/1
f 61/4/1 62/3/1 63/7/1 64/8/1
f 65/4/1 66/3/1 67/7/1 68/8/1
f 69/2/1 70/5/1 71/6/1 72/3/1
f 73/1/1 74/2/1 75/3/1 76/4/1
f 77/4/1 78/3/1 79/7/1 80/8/1
f 81/2/1 82/5/1 83/6/1 84/3/1
f 85/2/1 86/5/1 87/6/1 88/3/1
f 89/2/1 90/5/1 91/6/1 92/3/1
f 93/1/1 94/2/1 95/3/1 96/4/1
f 97/2/1 98/5/1 99/6/1 100/3/1
f 101/2/1 102/5/1 103/6/1 104/3/1
f 105/4/1 106/3/1 107/7/1 108/8/1
f 109/3/1 110/6/1 111/9/1 112/7/1
f 113/4/1 114/3/1 115/7/1 116/8/1
f 117/1/1 118/2/1 119/3/1 120/4/1
f 121/1/1 122/2/1 123/3/1 124/4/1
f 125/4/1 126/3/1 127/7/1 128/8/1
f 129/1/1 130/2/1 131/3/1 132/4/1
f 133/4/1 134/3/1 135/7/1 136/8/1
f 137/2/1 138/5/1 139/6/1 140/3/1
f 141/1/1 142/2/1 143/3/1 144/4/1
f 145/3/1 146/6/1 147/9/1 148/7/1
f 149/1/1 150/2/1 151/3/1 152/4/1
f 153/3/1 154/6/1 155/9/1 156/7/1
f 157/3/1 158/6/1 159/9/1 160/7/1
f 161/2/1 162/5/1 163/6/1 164/3/1
f 165/2/1 166/5/1 167/6/1 168/3/1
f 169/1/1 170/2/1 171/3/1 172/4/1
f 173/2/1 174/5/1 175/6/1 176/3/1
f 177/4/1 178/3/1 179/7/1 180/8/1
f 181/1/1 182/2/1 183/3/1 184/4/1
f 185/4/1 186/3/1 187/7/1 188/8/1
f 189/3/1 190/6/1 191/9/1 192/7/1
f 193/2/1 194/5/1 195/6/1 196/3/1
f 197/3/1 198/6/1 199/9/1 200/7/1
f 201/3/1 202/6/1 203/9/1 204/7/1
f 205/2/1 206/5/1 207/6/1 208/3/1
f 209/2/1 210/5/1 211/6/1 212/3/1
f 213/2/1 214/5/1 215/6/1 216/3/1
f 217/4/1 218/3/1 219/7/1 220/8/1
f 221/3/1 222/6/1 223/9/1 224/7/1
f 225/4/1 226/3/1 227/7/1 228/8/1
f 229/2/1 230/5/1 231/6/1 232/3/1
f 233/4/1 234/3/1 235/7/1 236/8/1
f 237/2/1 238/5/1 239/6/1 240/3/1
f 241/3/1 242/6/1 243/9/1 244/7/1
f 245/1/1 246/2/1 247/3/1 248/4/1
f 249/1/1 250/2/1 251/3/1 252/4/1
f 253/1/1 254/2/1 255/3/1 256/4/1
f 257/2/1 258/5/1 259/6/1 260/3/1
f 261/1/1 262/2/1 263/3/1 264/4/1
f 265/2/1 266/5/1 267/6/1 268/3/1
f 269/1/1 270/2/1 271/3/1 272/4/1
f 273/4/1 274/3/1 275/7/1 276/8/1
f 277/4/1 278/3/1 279/7/1 280/8/1
f 281/2/1 282/5/1 283/6/1 284/3/1
f 285/4/1 286/3/1 287/7/1 288/8/1
f 289/2/1 290/5/1 291/6/1 292/3/1
f 293/2/1 294/5/1 295/6/1 296/3/1
f 297/1/1 298/2/1 299/3/1 300/4/1
f 301/1/1 302/2/1 303/3/1 304/4/1
f 305/4/1 306/3/1 307/7/1 308/8/1
f 309/2/1 310/5/1 311/6/1 312/3/1
f 313/3/1 314/6/1 315/9/1 316/7/1
f 317/1/1 318/2/1 319/3/1 320/4/1
f 321/1/1 322/2/1 323/3/1 324/4/1
f 325/1/1 326/2/1 327/3/1 328/4/1
f 329/2/1 330/5/1 331/6/1 332/3/1
f 333/1/1 334/2/1 335/3/1 336/4/1
f 337/1/1 338/2/1 339/3/1 340/4/1
f 341/1/1 342/2/1 343/3/1 344/4/1
f 345/4/1 346/3/1 347/7/1 348/8/1
f 349/3/1 350/6/1 351/9/1 352/7/1
f 353/1/1 354/2/1 355/3/1 356/4/1
f 357/1/1 358/2/1 359/3/1 360/4/1
f 361/1/1 362/2/1 363/3/1 364/4/1
f 365/2/1 366/5/1 367/6/1 368/3/1
f 369/2/1 370/5/1 371/6/1 372/3/1
f 373/3/1 374/6/1 375/9/1 376/7/1
f 377/4/1 378/3/1 379/7/1 380/8/1
f 381/4/1 382/3/1 383/7/1 384/8/1
f 385/4/1 386/3/1 387/7/1 388/8/1
f 389/4/1 390/3/1 391/7/1 392/8/1
f 393/2/1 394/5/1 395/6/1 396/3/1
f 397/4/1 398/3/1 399/7/1 400/8/1
f 401/1/1 402/2/1 403/3/1 404/4/1
f 405/2/1 406/5/1 407/6/1 408/3/1
f 409/1/1 410/2/1 411/3/1 412/4/1
f 413/4/1 414/3/1 415/7/1 416/8/1
f 417/1/1 418/2/1 419/3/1 420/4/1
f 421/4/1 422/3/1 423/7/1 424/8/1
f 425/3/1 426/6/1 427/9/1 428/7/1
f 429/3/1 430/6/1 431/9/1 432/7/1
f 433/4/1 434/3/1 435/7/1 436/8/1
f 437/4/1 438/3/1 439/7/1 440/8/1
f 441/4/1 442/3/1 443/7/1 444/8/1
f 445/3/1 446/6/1 447/9/1 448/7/1
f 449/1/1 450/2/1 451/3/1 452/4/1
f 453/4/1 454/3/1 455/7/1 456/8/1
f 457/3/1 458/6/1 459/9/1 460/7/1
f 461/4/1 462/3/1 463/7/1 464/8/1
f 465/4/1 466/3/1 467/7/1 468/8/1
f 469/1/1 470/2/1 471/3/1 472/4/1
f 473/3/1 474/6/1 475/9/1 476/7/1
f 477/2/1 478/5/1 479/6/1 480/3/1
f 481/2/1 482/5/1 483/6/1 484/3/1
f 485/1/1 486/2/1 487/3/1 488/4/1
f 489/2/1 490/5/1 491/6/1 492/3/1
f 493/1/1 494/2/1 495/3/1 496/4/1
f 497/3/1 498/6/1 499/9/1 500/7/1
f 501/4/1 502/3/1 503/7/1 504/8/1
f 505/4/1 506/3/1 507/7/1 508/8/1
f 509/1/1 510/2/1 511/3/1 512/4/1
f 513/1/1 514/2/1 515/3/1 516/4/1
f 517/1/1 518/2/1 519/3/1 520/4/1
f 521/4/1 522/3/1 523/7/1 524/8/1
f 525/4/1 526/3/1 527/7/1 528/8/1
f 529/3/1 530/6/1 531/9/1 532/7/1
f 533/1/1 534/2/1 535/3/1 536/4/1
f 537/3/1 538/6/1 539/9/1 540/7/1
f 541/1/1 542/2/1 543/3/1 544/4/1
f 545/3/1 546/6/1 547/9/1 548/7/1
f 549/4/1 550/3/1 551/7/1 552/8/1
f 553/4/1 554/3/1 555/7/1 556/8/1
f 557/4/1 558/3/1 559/7/1 560/8/1
f 561/1/1 562/2/1 563/3/1 564/4/1
f 565/4/1 566/3/1 567/7/1 568/8/1
f 569/3/1 570/6/1 571/9/1 572/7/1
f 573/1/1 574/2/1 575/3/1 576/4/1
f 577/3/1 578/6/1 579/9/1 580/7/1
f 581/2/1 582/5/1 583/6/1 584/3/1
f 585/1/1 586/2/1 587/3/1 588/4/1
f 589/1/1 590/2/1 591/3/1 592/4/1
f 593/4/1 594/3/1 595/7/1 596/8/1
f 597/2/1 598/5/1 599/6/1 600/3/1
f 601/4/1 602/3/1 603/7/1 604/8/1
f 605/1/1 606/2/1 607/3/1 608/4/1
f 609/2/1 610/5/1 611/6/1 612/3/1
f 613/1/1 614/2/1 615/3/1 616/4/1
f 617/2/1 618/5/1 619/6/1 620/3/1
f 621/1/1 622/2/1 623/3/1 624/4/1
f 625/4/1 626/3/1 627/7/1 628/8/1
f 629/4/1 630/3/1 631/7/1 632/8/1
f 633/2/1 634/5/1 635/6/1 636/3/1
f 637/2/1 638/5/1 639/6/1 640/3/1
f 641/3/1 642/6/1 643/9/1 644/7/1
f 645/4/1 646/3/1 647/7/1 648/8/1
f 649/2/1 650/5/1 651/6/1 652/3/1
f 653/1/1 654/2/1 655/3/1 656/4/1
f 657/1/1 658/2/1 659/3/1 660/4/1
f 661/4/1 662/3/1 663/7/1 664/8/1
f 665/4/1 666/3/1 667/7/1 668/8/1
f 669/4/1 670/3/1 671/7/1 672/8/1
f 673/4/1 674/3/1 675/7/1 676/8/1
f 677/2/1 678/5/1 679/6/1 680/3/1
f 681/3/1 682/6/1 683/9/1 684/7/1
f 685/4/1 686/3/1 687/7/1 688/8/1
f 689/1/1 690/2/1 691/3/1 692/4/1
f 693/3/1 694/6/1 695/9/1 696/7/1
f 697/1/1 698/2/1 699/3/1 700/4/1
f 701/4/1 702/3/1 703/7/1 704/8/1
f 705/4/1 706/3/1 707/7/1 708/8/1
f 709/4/1 710/3/1 711/7/1 712/8/1
f 713/3/1 714/6/1 715/9/1 716/7/1
f 717/2/1 718/5/1 719/6/1 720/3/1
f 721/1/1 722/2/1 723/3/1 724/4/1
f 725/1/1 726/2/1 727/3/1 728/4/1
f 729/1/1 730/2/1 731/3/1 732/4/1
f 733/1/1 734/2/1 735/3/1 736/4/1
f 737/4/1 738/3/1 739/7/1 740/8/1
f 741/4/1 742/3/1 743/7/1 744/8/1
f 745/3/1 746/6/1 747/9/1 748/7/1
f 749/4/1 750/3/1 751/7/1 752/8/1
f 753/1/1 754/2/1 755/3/1 756/4/1
f 757/1/1 758/2/1 759/3/1 760/4/1
f 761/4/1 762/3/1 763/7/1 764/8/1
f 765/1/1 766/2/1 767/3/1 768/4/1
f 769/4/1 770/3/1 771/7/1 772/8/1
f 773/4/1 774/3/1 775/7/1 776/8/1
f 777/3/1 778/6/1 779/9/1 780/7/1
f 781/1/1 782/2/1 783/3/1 784/4/1
f 785/1/1 786/2/1 787/3/1 788/4/1
f 789/4/1 790/3/1 791/7/1 792/8/1
f 793/2/1 794/5/1 795/6/1 796/3/1
f 797/1/1 798/2/1 799/3/1 800/4/1
f 801/1/1 802/2/1 803/3/1 804/4/1
f 805/1/1 806/2/1 807/3/1 808/4/1
f 809/4/1 810/3/1 811/7/1 812/8/1
f 813/3/1 814/6/1 815/9/1 816/7/1
f 817/4/1 818/3/1 819/7/1 820/8/1
f 821/2/1 822/5/1 823/6/1 824/3/1
f 825/4/1 826/3/1 827/7/1 828/8/1
f 829/2/1 830/5/1 831/6/1 832/3/1
f 833/1/1 834/2/1 835/3/1 836/4/1
f 837/4/1 838/3/1 839/7/1 840/8/1
f 841/1/1 842/2/1 843/3/1 844/4/1
f 845/3/1 846/6/1 847/9/1 848/7/1
f 849/1/1 850/2/1 851/3/1 852/4/1
f 853/2/1 854/5/1 855/6/1 856/3/1
f 857/1/1 858/2/1 859/3/1 860/4/1
f 861/3/1 862/6/1 863/9/1 864/7/1
f 865/4/1 866/3/1 867/7/1 868/8/1
f 869/2/1 870/5/1 871/6/1 872/3/1
f 873/1/1 874/2/1 875/3/1 876/4/1
f 877/1/1 878/2/1 879/3/1 880/4/1
f 881/2/1 882/5/1 883/6/1 884/3/1
f 885/3/1 886/6/1 887/9/1 888/7/1
f 889/4/1 890/3/1 891/7/1 892/8/1
f 893/4/1 894/3/1 895/7/1 896/8/1
f 897/2/1 898/5/1 899/6/1 900/3/1
f 901/3/1 902/6/1 903/9/1 904/7/1
f 905/3/1 906/6/1 907/9/1 908/7/1
f 909/2/1 910/5/1 911/6/1 912/3/1
f 913/1/1 914/2/1 915/3/1 916/4/1
f 917/4/1 918/3/1 919/7/1 920/8/1
f 921/2/1 922/5/1 923/6/1 924/3/1
f 925/2/1 926/5/1 927/6/1 928/3/1
f 929/2/1 930/5/1 931/6/1 932/3/1
f 933/1/1 934/2/1 935/3/1 936/4/1
f 937/2/1 938/5/1 939/6/1 940/3/1
f 941/1/1 942/2/1 943/3/1 944/4/1
f 945/4/1 946/3/1 947/7/1 948/8/1
f 949/1/1 950/2/1 951/3/1 952/4/1
f 953/4/1 954/3/1 955/7/1 956/8/1
f 957/1/1 958/2/1 959/3/1 960/4/1
f 961/4/1 962/3/1 963/7/1 964/8/1
f 965/4/1 966/3/1 967/7/1 968/8/1
f 969/3/1 970/6/1 971/9/1 972/7/1
f 973/3/1 974/6/1 975/9/1 976/7/1
f 977/2/1 978/5/1 979/6/1 980/3/1
f 981/1/1 982/2/1 983/3/1 984/4/1
f 985/3/1 986/6/1 987/9/1 988/7/1
f 989/4/1 990/3/1 991/7/1 992/8/1
f 993/1/1 994/2/1 995/3/1 996/4/1
f 997/4/1 998/3/1 999/7/1 1000/8/1
f 1001/2/1 1002/5/1 1003/6/1 1004/3/1
f 1005/4/1 1006/3/1 1007/7/1 1008/8/1
f 1009/3/1 1010/6/1 1011/9/1 1012/7/1
f 1013/1/1 1014/2/1 1015/3/1 1016/4/1
f 1017/4/1 1018/3/1 1019/7/1 1020/8/1
f 1021/2/1 1022/5/1 1023/6/1 1024/3/1

