# Tiled2Unity generated file. Do not modify by hand.
# Wavefront file for 'Village_mesh_0115.obj'

# Vertices (Count = 16)
v -32 -32 0
v -48 -32 0
v -48 -16 0
v -32 -16 0
v -16 -32 0
v -32 -32 0
v -32 -16 0
v -16 -16 0
v -48 -256 0
v -64 -256 0
v -64 -240 0
v -48 -240 0
v -32 -256 0
v -48 -256 0
v -48 -240 0
v -32 -240 0

# Texture cooridinates (Count = 6)
vt 0.140625 0.2460318
vt 0.15625 0.2460318
vt 0.15625 0.2539682
vt 0.140625 0.2539682
vt 0.125 0.2460318
vt 0.125 0.2539682

# Normal
vn 0 0 -1

# Mesh description
g Village_mesh_0115

# Faces
f 1/1/1 2/2/1 3/3/1 4/4/1
f 5/5/1 6/1/1 7/4/1 8/6/1
f 9/1/1 10/2/1 11/3/1 12/4/1
f 13/5/1 14/1/1 15/4/1 16/6/1

