# Tiled2Unity generated file. Do not modify by hand.
# Wavefront file for 'Village_mesh_0114.obj'

# Vertices (Count = 40)
v -240 -48 0
v -256 -48 0
v -256 -32 0
v -240 -32 0
v -224 -48 0
v -240 -48 0
v -240 -32 0
v -224 -32 0
v -240 -64 0
v -256 -64 0
v -256 -48 0
v -240 -48 0
v -224 -64 0
v -240 -64 0
v -240 -48 0
v -224 -48 0
v -224 -96 0
v -240 -96 0
v -240 -80 0
v -224 -80 0
v -208 -96 0
v -224 -96 0
v -224 -80 0
v -208 -80 0
v -224 -112 0
v -240 -112 0
v -240 -96 0
v -224 -96 0
v -208 -112 0
v -224 -112 0
v -224 -96 0
v -208 -96 0
v -240 -128 0
v -256 -128 0
v -256 -112 0
v -240 -112 0
v -240 -144 0
v -256 -144 0
v -256 -128 0
v -240 -128 0

# Texture cooridinates (Count = 9)
vt 0.25 0.6666666
vt 0.275 0.6666666
vt 0.275 0.6944444
vt 0.25 0.6944444
vt 0.225 0.6666666
vt 0.225 0.6944444
vt 0.25 0.6388889
vt 0.275 0.6388889
vt 0.225 0.6388889

# Normal
vn 0 0 -1

# Mesh description
g Village_mesh_0114

# Faces
f 1/1/1 2/2/1 3/3/1 4/4/1
f 5/5/1 6/1/1 7/4/1 8/6/1
f 9/7/1 10/8/1 11/2/1 12/1/1
f 13/9/1 14/7/1 15/1/1 16/5/1
f 17/1/1 18/2/1 19/3/1 20/4/1
f 21/5/1 22/1/1 23/4/1 24/6/1
f 25/7/1 26/8/1 27/2/1 28/1/1
f 29/9/1 30/7/1 31/1/1 32/5/1
f 33/5/1 34/1/1 35/4/1 36/6/1
f 37/9/1 38/7/1 39/1/1 40/5/1

