# Tiled2Unity generated file. Do not modify by hand.
# Wavefront file for 'Village_mesh_0019.obj'

# Vertices (Count = 1024)
v -240 -16 0
v -256 -16 0
v -256 0 0
v -240 0 0
v -224 -16 0
v -240 -16 0
v -240 0 0
v -224 0 0
v -208 -16 0
v -224 -16 0
v -224 0 0
v -208 0 0
v -192 -16 0
v -208 -16 0
v -208 0 0
v -192 0 0
v -176 -16 0
v -192 -16 0
v -192 0 0
v -176 0 0
v -160 -16 0
v -176 -16 0
v -176 0 0
v -160 0 0
v -144 -16 0
v -160 -16 0
v -160 0 0
v -144 0 0
v -128 -16 0
v -144 -16 0
v -144 0 0
v -128 0 0
v -112 -16 0
v -128 -16 0
v -128 0 0
v -112 0 0
v -96 -16 0
v -112 -16 0
v -112 0 0
v -96 0 0
v -80 -16 0
v -96 -16 0
v -96 0 0
v -80 0 0
v -64 -16 0
v -80 -16 0
v -80 0 0
v -64 0 0
v -48 -16 0
v -64 -16 0
v -64 0 0
v -48 0 0
v -32 -16 0
v -48 -16 0
v -48 0 0
v -32 0 0
v -16 -16 0
v -32 -16 0
v -32 0 0
v -16 0 0
v 0 -16 0
v -16 -16 0
v -16 0 0
v 0 0 0
v -240 -32 0
v -256 -32 0
v -256 -16 0
v -240 -16 0
v -224 -32 0
v -240 -32 0
v -240 -16 0
v -224 -16 0
v -208 -32 0
v -224 -32 0
v -224 -16 0
v -208 -16 0
v -192 -32 0
v -208 -32 0
v -208 -16 0
v -192 -16 0
v -176 -32 0
v -192 -32 0
v -192 -16 0
v -176 -16 0
v -160 -32 0
v -176 -32 0
v -176 -16 0
v -160 -16 0
v -144 -32 0
v -160 -32 0
v -160 -16 0
v -144 -16 0
v -128 -32 0
v -144 -32 0
v -144 -16 0
v -128 -16 0
v -112 -32 0
v -128 -32 0
v -128 -16 0
v -112 -16 0
v -96 -32 0
v -112 -32 0
v -112 -16 0
v -96 -16 0
v -80 -32 0
v -96 -32 0
v -96 -16 0
v -80 -16 0
v -64 -32 0
v -80 -32 0
v -80 -16 0
v -64 -16 0
v -48 -32 0
v -64 -32 0
v -64 -16 0
v -48 -16 0
v -32 -32 0
v -48 -32 0
v -48 -16 0
v -32 -16 0
v -16 -32 0
v -32 -32 0
v -32 -16 0
v -16 -16 0
v 0 -32 0
v -16 -32 0
v -16 -16 0
v 0 -16 0
v -240 -48 0
v -256 -48 0
v -256 -32 0
v -240 -32 0
v -224 -48 0
v -240 -48 0
v -240 -32 0
v -224 -32 0
v -208 -48 0
v -224 -48 0
v -224 -32 0
v -208 -32 0
v -192 -48 0
v -208 -48 0
v -208 -32 0
v -192 -32 0
v -176 -48 0
v -192 -48 0
v -192 -32 0
v -176 -32 0
v -160 -48 0
v -176 -48 0
v -176 -32 0
v -160 -32 0
v -144 -48 0
v -160 -48 0
v -160 -32 0
v -144 -32 0
v -128 -48 0
v -144 -48 0
v -144 -32 0
v -128 -32 0
v -112 -48 0
v -128 -48 0
v -128 -32 0
v -112 -32 0
v -96 -48 0
v -112 -48 0
v -112 -32 0
v -96 -32 0
v -80 -48 0
v -96 -48 0
v -96 -32 0
v -80 -32 0
v -64 -48 0
v -80 -48 0
v -80 -32 0
v -64 -32 0
v -48 -48 0
v -64 -48 0
v -64 -32 0
v -48 -32 0
v -32 -48 0
v -48 -48 0
v -48 -32 0
v -32 -32 0
v -16 -48 0
v -32 -48 0
v -32 -32 0
v -16 -32 0
v 0 -48 0
v -16 -48 0
v -16 -32 0
v 0 -32 0
v -240 -64 0
v -256 -64 0
v -256 -48 0
v -240 -48 0
v -224 -64 0
v -240 -64 0
v -240 -48 0
v -224 -48 0
v -208 -64 0
v -224 -64 0
v -224 -48 0
v -208 -48 0
v -192 -64 0
v -208 -64 0
v -208 -48 0
v -192 -48 0
v -176 -64 0
v -192 -64 0
v -192 -48 0
v -176 -48 0
v -160 -64 0
v -176 -64 0
v -176 -48 0
v -160 -48 0
v -144 -64 0
v -160 -64 0
v -160 -48 0
v -144 -48 0
v -128 -64 0
v -144 -64 0
v -144 -48 0
v -128 -48 0
v -112 -64 0
v -128 -64 0
v -128 -48 0
v -112 -48 0
v -96 -64 0
v -112 -64 0
v -112 -48 0
v -96 -48 0
v -80 -64 0
v -96 -64 0
v -96 -48 0
v -80 -48 0
v -64 -64 0
v -80 -64 0
v -80 -48 0
v -64 -48 0
v -48 -64 0
v -64 -64 0
v -64 -48 0
v -48 -48 0
v -32 -64 0
v -48 -64 0
v -48 -48 0
v -32 -48 0
v -16 -64 0
v -32 -64 0
v -32 -48 0
v -16 -48 0
v 0 -64 0
v -16 -64 0
v -16 -48 0
v 0 -48 0
v -240 -80 0
v -256 -80 0
v -256 -64 0
v -240 -64 0
v -224 -80 0
v -240 -80 0
v -240 -64 0
v -224 -64 0
v -208 -80 0
v -224 -80 0
v -224 -64 0
v -208 -64 0
v -192 -80 0
v -208 -80 0
v -208 -64 0
v -192 -64 0
v -176 -80 0
v -192 -80 0
v -192 -64 0
v -176 -64 0
v -160 -80 0
v -176 -80 0
v -176 -64 0
v -160 -64 0
v -144 -80 0
v -160 -80 0
v -160 -64 0
v -144 -64 0
v -128 -80 0
v -144 -80 0
v -144 -64 0
v -128 -64 0
v -112 -80 0
v -128 -80 0
v -128 -64 0
v -112 -64 0
v -96 -80 0
v -112 -80 0
v -112 -64 0
v -96 -64 0
v -80 -80 0
v -96 -80 0
v -96 -64 0
v -80 -64 0
v -64 -80 0
v -80 -80 0
v -80 -64 0
v -64 -64 0
v -48 -80 0
v -64 -80 0
v -64 -64 0
v -48 -64 0
v -32 -80 0
v -48 -80 0
v -48 -64 0
v -32 -64 0
v -16 -80 0
v -32 -80 0
v -32 -64 0
v -16 -64 0
v 0 -80 0
v -16 -80 0
v -16 -64 0
v 0 -64 0
v -240 -96 0
v -256 -96 0
v -256 -80 0
v -240 -80 0
v -224 -96 0
v -240 -96 0
v -240 -80 0
v -224 -80 0
v -208 -96 0
v -224 -96 0
v -224 -80 0
v -208 -80 0
v -192 -96 0
v -208 -96 0
v -208 -80 0
v -192 -80 0
v -176 -96 0
v -192 -96 0
v -192 -80 0
v -176 -80 0
v -160 -96 0
v -176 -96 0
v -176 -80 0
v -160 -80 0
v -144 -96 0
v -160 -96 0
v -160 -80 0
v -144 -80 0
v -128 -96 0
v -144 -96 0
v -144 -80 0
v -128 -80 0
v -112 -96 0
v -128 -96 0
v -128 -80 0
v -112 -80 0
v -96 -96 0
v -112 -96 0
v -112 -80 0
v -96 -80 0
v -80 -96 0
v -96 -96 0
v -96 -80 0
v -80 -80 0
v -64 -96 0
v -80 -96 0
v -80 -80 0
v -64 -80 0
v -48 -96 0
v -64 -96 0
v -64 -80 0
v -48 -80 0
v -32 -96 0
v -48 -96 0
v -48 -80 0
v -32 -80 0
v -16 -96 0
v -32 -96 0
v -32 -80 0
v -16 -80 0
v 0 -96 0
v -16 -96 0
v -16 -80 0
v 0 -80 0
v -240 -112 0
v -256 -112 0
v -256 -96 0
v -240 -96 0
v -224 -112 0
v -240 -112 0
v -240 -96 0
v -224 -96 0
v -208 -112 0
v -224 -112 0
v -224 -96 0
v -208 -96 0
v -192 -112 0
v -208 -112 0
v -208 -96 0
v -192 -96 0
v -176 -112 0
v -192 -112 0
v -192 -96 0
v -176 -96 0
v -160 -112 0
v -176 -112 0
v -176 -96 0
v -160 -96 0
v -144 -112 0
v -160 -112 0
v -160 -96 0
v -144 -96 0
v -128 -112 0
v -144 -112 0
v -144 -96 0
v -128 -96 0
v -112 -112 0
v -128 -112 0
v -128 -96 0
v -112 -96 0
v -96 -112 0
v -112 -112 0
v -112 -96 0
v -96 -96 0
v -80 -112 0
v -96 -112 0
v -96 -96 0
v -80 -96 0
v -64 -112 0
v -80 -112 0
v -80 -96 0
v -64 -96 0
v -48 -112 0
v -64 -112 0
v -64 -96 0
v -48 -96 0
v -32 -112 0
v -48 -112 0
v -48 -96 0
v -32 -96 0
v -16 -112 0
v -32 -112 0
v -32 -96 0
v -16 -96 0
v 0 -112 0
v -16 -112 0
v -16 -96 0
v 0 -96 0
v -240 -128 0
v -256 -128 0
v -256 -112 0
v -240 -112 0
v -224 -128 0
v -240 -128 0
v -240 -112 0
v -224 -112 0
v -208 -128 0
v -224 -128 0
v -224 -112 0
v -208 -112 0
v -192 -128 0
v -208 -128 0
v -208 -112 0
v -192 -112 0
v -176 -128 0
v -192 -128 0
v -192 -112 0
v -176 -112 0
v -160 -128 0
v -176 -128 0
v -176 -112 0
v -160 -112 0
v -144 -128 0
v -160 -128 0
v -160 -112 0
v -144 -112 0
v -128 -128 0
v -144 -128 0
v -144 -112 0
v -128 -112 0
v -112 -128 0
v -128 -128 0
v -128 -112 0
v -112 -112 0
v -96 -128 0
v -112 -128 0
v -112 -112 0
v -96 -112 0
v -80 -128 0
v -96 -128 0
v -96 -112 0
v -80 -112 0
v -64 -128 0
v -80 -128 0
v -80 -112 0
v -64 -112 0
v -48 -128 0
v -64 -128 0
v -64 -112 0
v -48 -112 0
v -32 -128 0
v -48 -128 0
v -48 -112 0
v -32 -112 0
v -16 -128 0
v -32 -128 0
v -32 -112 0
v -16 -112 0
v 0 -128 0
v -16 -128 0
v -16 -112 0
v 0 -112 0
v -240 -144 0
v -256 -144 0
v -256 -128 0
v -240 -128 0
v -224 -144 0
v -240 -144 0
v -240 -128 0
v -224 -128 0
v -208 -144 0
v -224 -144 0
v -224 -128 0
v -208 -128 0
v -192 -144 0
v -208 -144 0
v -208 -128 0
v -192 -128 0
v -176 -144 0
v -192 -144 0
v -192 -128 0
v -176 -128 0
v -160 -144 0
v -176 -144 0
v -176 -128 0
v -160 -128 0
v -144 -144 0
v -160 -144 0
v -160 -128 0
v -144 -128 0
v -128 -144 0
v -144 -144 0
v -144 -128 0
v -128 -128 0
v -112 -144 0
v -128 -144 0
v -128 -128 0
v -112 -128 0
v -96 -144 0
v -112 -144 0
v -112 -128 0
v -96 -128 0
v -80 -144 0
v -96 -144 0
v -96 -128 0
v -80 -128 0
v -64 -144 0
v -80 -144 0
v -80 -128 0
v -64 -128 0
v -48 -144 0
v -64 -144 0
v -64 -128 0
v -48 -128 0
v -32 -144 0
v -48 -144 0
v -48 -128 0
v -32 -128 0
v -16 -144 0
v -32 -144 0
v -32 -128 0
v -16 -128 0
v 0 -144 0
v -16 -144 0
v -16 -128 0
v 0 -128 0
v -240 -160 0
v -256 -160 0
v -256 -144 0
v -240 -144 0
v -224 -160 0
v -240 -160 0
v -240 -144 0
v -224 -144 0
v -208 -160 0
v -224 -160 0
v -224 -144 0
v -208 -144 0
v -192 -160 0
v -208 -160 0
v -208 -144 0
v -192 -144 0
v -176 -160 0
v -192 -160 0
v -192 -144 0
v -176 -144 0
v -160 -160 0
v -176 -160 0
v -176 -144 0
v -160 -144 0
v -144 -160 0
v -160 -160 0
v -160 -144 0
v -144 -144 0
v -128 -160 0
v -144 -160 0
v -144 -144 0
v -128 -144 0
v -112 -160 0
v -128 -160 0
v -128 -144 0
v -112 -144 0
v -96 -160 0
v -112 -160 0
v -112 -144 0
v -96 -144 0
v -80 -160 0
v -96 -160 0
v -96 -144 0
v -80 -144 0
v -64 -160 0
v -80 -160 0
v -80 -144 0
v -64 -144 0
v -48 -160 0
v -64 -160 0
v -64 -144 0
v -48 -144 0
v -32 -160 0
v -48 -160 0
v -48 -144 0
v -32 -144 0
v -16 -160 0
v -32 -160 0
v -32 -144 0
v -16 -144 0
v 0 -160 0
v -16 -160 0
v -16 -144 0
v 0 -144 0
v -240 -176 0
v -256 -176 0
v -256 -160 0
v -240 -160 0
v -224 -176 0
v -240 -176 0
v -240 -160 0
v -224 -160 0
v -208 -176 0
v -224 -176 0
v -224 -160 0
v -208 -160 0
v -192 -176 0
v -208 -176 0
v -208 -160 0
v -192 -160 0
v -176 -176 0
v -192 -176 0
v -192 -160 0
v -176 -160 0
v -160 -176 0
v -176 -176 0
v -176 -160 0
v -160 -160 0
v -144 -176 0
v -160 -176 0
v -160 -160 0
v -144 -160 0
v -128 -176 0
v -144 -176 0
v -144 -160 0
v -128 -160 0
v -112 -176 0
v -128 -176 0
v -128 -160 0
v -112 -160 0
v -96 -176 0
v -112 -176 0
v -112 -160 0
v -96 -160 0
v -80 -176 0
v -96 -176 0
v -96 -160 0
v -80 -160 0
v -64 -176 0
v -80 -176 0
v -80 -160 0
v -64 -160 0
v -48 -176 0
v -64 -176 0
v -64 -160 0
v -48 -160 0
v -32 -176 0
v -48 -176 0
v -48 -160 0
v -32 -160 0
v -16 -176 0
v -32 -176 0
v -32 -160 0
v -16 -160 0
v 0 -176 0
v -16 -176 0
v -16 -160 0
v 0 -160 0
v -240 -192 0
v -256 -192 0
v -256 -176 0
v -240 -176 0
v -224 -192 0
v -240 -192 0
v -240 -176 0
v -224 -176 0
v -208 -192 0
v -224 -192 0
v -224 -176 0
v -208 -176 0
v -192 -192 0
v -208 -192 0
v -208 -176 0
v -192 -176 0
v -176 -192 0
v -192 -192 0
v -192 -176 0
v -176 -176 0
v -160 -192 0
v -176 -192 0
v -176 -176 0
v -160 -176 0
v -144 -192 0
v -160 -192 0
v -160 -176 0
v -144 -176 0
v -128 -192 0
v -144 -192 0
v -144 -176 0
v -128 -176 0
v -112 -192 0
v -128 -192 0
v -128 -176 0
v -112 -176 0
v -96 -192 0
v -112 -192 0
v -112 -176 0
v -96 -176 0
v -80 -192 0
v -96 -192 0
v -96 -176 0
v -80 -176 0
v -64 -192 0
v -80 -192 0
v -80 -176 0
v -64 -176 0
v -48 -192 0
v -64 -192 0
v -64 -176 0
v -48 -176 0
v -32 -192 0
v -48 -192 0
v -48 -176 0
v -32 -176 0
v -16 -192 0
v -32 -192 0
v -32 -176 0
v -16 -176 0
v 0 -192 0
v -16 -192 0
v -16 -176 0
v 0 -176 0
v -240 -208 0
v -256 -208 0
v -256 -192 0
v -240 -192 0
v -224 -208 0
v -240 -208 0
v -240 -192 0
v -224 -192 0
v -208 -208 0
v -224 -208 0
v -224 -192 0
v -208 -192 0
v -192 -208 0
v -208 -208 0
v -208 -192 0
v -192 -192 0
v -176 -208 0
v -192 -208 0
v -192 -192 0
v -176 -192 0
v -160 -208 0
v -176 -208 0
v -176 -192 0
v -160 -192 0
v -144 -208 0
v -160 -208 0
v -160 -192 0
v -144 -192 0
v -128 -208 0
v -144 -208 0
v -144 -192 0
v -128 -192 0
v -112 -208 0
v -128 -208 0
v -128 -192 0
v -112 -192 0
v -96 -208 0
v -112 -208 0
v -112 -192 0
v -96 -192 0
v -80 -208 0
v -96 -208 0
v -96 -192 0
v -80 -192 0
v -64 -208 0
v -80 -208 0
v -80 -192 0
v -64 -192 0
v -48 -208 0
v -64 -208 0
v -64 -192 0
v -48 -192 0
v -32 -208 0
v -48 -208 0
v -48 -192 0
v -32 -192 0
v -16 -208 0
v -32 -208 0
v -32 -192 0
v -16 -192 0
v 0 -208 0
v -16 -208 0
v -16 -192 0
v 0 -192 0
v -240 -224 0
v -256 -224 0
v -256 -208 0
v -240 -208 0
v -224 -224 0
v -240 -224 0
v -240 -208 0
v -224 -208 0
v -208 -224 0
v -224 -224 0
v -224 -208 0
v -208 -208 0
v -192 -224 0
v -208 -224 0
v -208 -208 0
v -192 -208 0
v -176 -224 0
v -192 -224 0
v -192 -208 0
v -176 -208 0
v -160 -224 0
v -176 -224 0
v -176 -208 0
v -160 -208 0
v -144 -224 0
v -160 -224 0
v -160 -208 0
v -144 -208 0
v -128 -224 0
v -144 -224 0
v -144 -208 0
v -128 -208 0
v -112 -224 0
v -128 -224 0
v -128 -208 0
v -112 -208 0
v -96 -224 0
v -112 -224 0
v -112 -208 0
v -96 -208 0
v -80 -224 0
v -96 -224 0
v -96 -208 0
v -80 -208 0
v -64 -224 0
v -80 -224 0
v -80 -208 0
v -64 -208 0
v -48 -224 0
v -64 -224 0
v -64 -208 0
v -48 -208 0
v -32 -224 0
v -48 -224 0
v -48 -208 0
v -32 -208 0
v -16 -224 0
v -32 -224 0
v -32 -208 0
v -16 -208 0
v 0 -224 0
v -16 -224 0
v -16 -208 0
v 0 -208 0
v -240 -240 0
v -256 -240 0
v -256 -224 0
v -240 -224 0
v -224 -240 0
v -240 -240 0
v -240 -224 0
v -224 -224 0
v -208 -240 0
v -224 -240 0
v -224 -224 0
v -208 -224 0
v -192 -240 0
v -208 -240 0
v -208 -224 0
v -192 -224 0
v -176 -240 0
v -192 -240 0
v -192 -224 0
v -176 -224 0
v -160 -240 0
v -176 -240 0
v -176 -224 0
v -160 -224 0
v -144 -240 0
v -160 -240 0
v -160 -224 0
v -144 -224 0
v -128 -240 0
v -144 -240 0
v -144 -224 0
v -128 -224 0
v -112 -240 0
v -128 -240 0
v -128 -224 0
v -112 -224 0
v -96 -240 0
v -112 -240 0
v -112 -224 0
v -96 -224 0
v -80 -240 0
v -96 -240 0
v -96 -224 0
v -80 -224 0
v -64 -240 0
v -80 -240 0
v -80 -224 0
v -64 -224 0
v -48 -240 0
v -64 -240 0
v -64 -224 0
v -48 -224 0
v -32 -240 0
v -48 -240 0
v -48 -224 0
v -32 -224 0
v -16 -240 0
v -32 -240 0
v -32 -224 0
v -16 -224 0
v 0 -240 0
v -16 -240 0
v -16 -224 0
v 0 -224 0
v -240 -256 0
v -256 -256 0
v -256 -240 0
v -240 -240 0
v -224 -256 0
v -240 -256 0
v -240 -240 0
v -224 -240 0
v -208 -256 0
v -224 -256 0
v -224 -240 0
v -208 -240 0
v -192 -256 0
v -208 -256 0
v -208 -240 0
v -192 -240 0
v -176 -256 0
v -192 -256 0
v -192 -240 0
v -176 -240 0
v -160 -256 0
v -176 -256 0
v -176 -240 0
v -160 -240 0
v -144 -256 0
v -160 -256 0
v -160 -240 0
v -144 -240 0
v -128 -256 0
v -144 -256 0
v -144 -240 0
v -128 -240 0
v -112 -256 0
v -128 -256 0
v -128 -240 0
v -112 -240 0
v -96 -256 0
v -112 -256 0
v -112 -240 0
v -96 -240 0
v -80 -256 0
v -96 -256 0
v -96 -240 0
v -80 -240 0
v -64 -256 0
v -80 -256 0
v -80 -240 0
v -64 -240 0
v -48 -256 0
v -64 -256 0
v -64 -240 0
v -48 -240 0
v -32 -256 0
v -48 -256 0
v -48 -240 0
v -32 -240 0
v -16 -256 0
v -32 -256 0
v -32 -240 0
v -16 -240 0
v 0 -256 0
v -16 -256 0
v -16 -240 0
v 0 -240 0

# Texture cooridinates (Count = 9)
vt 0.175 0.6944444
vt 0.2 0.6944444
vt 0.2 0.7222222
vt 0.175 0.7222222
vt 0.225 0.7222222
vt 0.225 0.75
vt 0.2 0.75
vt 0.175 0.75
vt 0.225 0.6944444

# Normal
vn 0 0 -1

# Mesh description
g Village_mesh_0019

# Faces
f 1/1/1 2/2/1 3/3/1 4/4/1
f 5/3/1 6/5/1 7/6/1 8/7/1
f 9/4/1 10/3/1 11/7/1 12/8/1
f 13/2/1 14/9/1 15/5/1 16/3/1
f 17/4/1 18/3/1 19/7/1 20/8/1
f 21/1/1 22/2/1 23/3/1 24/4/1
f 25/2/1 26/9/1 27/5/1 28/3/1
f 29/1/1 30/2/1 31/3/1 32/4/1
f 33/1/1 34/2/1 35/3/1 36/4/1
f 37/2/1 38/9/1 39/5/1 40/3/1
f 41/4/1 42/3/1 43/7/1 44/8/1
f 45/4/1 46/3/1 47/7/1 48/8/1
f 49/1/1 50/2/1 51/3/1 52/4/1
f 53/4/1 54/3/1 55/7/1 56/8/1
f 57/1/1 58/2/1 59/3/1 60/4/1
f 61/1/1 62/2/1 63/3/1 64/4/1
f 65/1/1 66/2/1 67/3/1 68/4/1
f 69/2/1 70/9/1 71/5/1 72/3/1
f 73/2/1 74/9/1 75/5/1 76/3/1
f 77/1/1 78/2/1 79/3/1 80/4/1
f 81/3/1 82/5/1 83/6/1 84/7/1
f 85/1/1 86/2/1 87/3/1 88/4/1
f 89/4/1 90/3/1 91/7/1 92/8/1
f 93/3/1 94/5/1 95/6/1 96/7/1
f 97/2/1 98/9/1 99/5/1 100/3/1
f 101/2/1 102/9/1 103/5/1 104/3/1
f 105/2/1 106/9/1 107/5/1 108/3/1
f 109/2/1 110/9/1 111/5/1 112/3/1
f 113/3/1 114/5/1 115/6/1 116/7/1
f 117/2/1 118/9/1 119/5/1 120/3/1
f 121/2/1 122/9/1 123/5/1 124/3/1
f 125/3/1 126/5/1 127/6/1 128/7/1
f 129/3/1 130/5/1 131/6/1 132/7/1
f 133/1/1 134/2/1 135/3/1 136/4/1
f 137/2/1 138/9/1 139/5/1 140/3/1
f 141/3/1 142/5/1 143/6/1 144/7/1
f 145/3/1 146/5/1 147/6/1 148/7/1
f 149/2/1 150/9/1 151/5/1 152/3/1
f 153/1/1 154/2/1 155/3/1 156/4/1
f 157/2/1 158/9/1 159/5/1 160/3/1
f 161/3/1 162/5/1 163/6/1 164/7/1
f 165/3/1 166/5/1 167/6/1 168/7/1
f 169/3/1 170/5/1 171/6/1 172/7/1
f 173/4/1 174/3/1 175/7/1 176/8/1
f 177/3/1 178/5/1 179/6/1 180/7/1
f 181/1/1 182/2/1 183/3/1 184/4/1
f 185/3/1 186/5/1 187/6/1 188/7/1
f 189/3/1 190/5/1 191/6/1 192/7/1
f 193/4/1 194/3/1 195/7/1 196/8/1
f 197/3/1 198/5/1 199/6/1 200/7/1
f 201/1/1 202/2/1 203/3/1 204/4/1
f 205/3/1 206/5/1 207/6/1 208/7/1
f 209/3/1 210/5/1 211/6/1 212/7/1
f 213/2/1 214/9/1 215/5/1 216/3/1
f 217/4/1 218/3/1 219/7/1 220/8/1
f 221/2/1 222/9/1 223/5/1 224/3/1
f 225/3/1 226/5/1 227/6/1 228/7/1
f 229/4/1 230/3/1 231/7/1 232/8/1
f 233/4/1 234/3/1 235/7/1 236/8/1
f 237/3/1 238/5/1 239/6/1 240/7/1
f 241/4/1 242/3/1 243/7/1 244/8/1
f 245/2/1 246/9/1 247/5/1 248/3/1
f 249/3/1 250/5/1 251/6/1 252/7/1
f 253/1/1 254/2/1 255/3/1 256/4/1
f 257/1/1 258/2/1 259/3/1 260/4/1
f 261/2/1 262/9/1 263/5/1 264/3/1
f 265/1/1 266/2/1 267/3/1 268/4/1
f 269/2/1 270/9/1 271/5/1 272/3/1
f 273/3/1 274/5/1 275/6/1 276/7/1
f 277/3/1 278/5/1 279/6/1 280/7/1
f 281/3/1 282/5/1 283/6/1 284/7/1
f 285/1/1 286/2/1 287/3/1 288/4/1
f 289/3/1 290/5/1 291/6/1 292/7/1
f 293/2/1 294/9/1 295/5/1 296/3/1
f 297/2/1 298/9/1 299/5/1 300/3/1
f 301/2/1 302/9/1 303/5/1 304/3/1
f 305/3/1 306/5/1 307/6/1 308/7/1
f 309/4/1 310/3/1 311/7/1 312/8/1
f 313/3/1 314/5/1 315/6/1 316/7/1
f 317/3/1 318/5/1 319/6/1 320/7/1
f 321/4/1 322/3/1 323/7/1 324/8/1
f 325/1/1 326/2/1 327/3/1 328/4/1
f 329/4/1 330/3/1 331/7/1 332/8/1
f 333/3/1 334/5/1 335/6/1 336/7/1
f 337/4/1 338/3/1 339/7/1 340/8/1
f 341/4/1 342/3/1 343/7/1 344/8/1
f 345/1/1 346/2/1 347/3/1 348/4/1
f 349/4/1 350/3/1 351/7/1 352/8/1
f 353/1/1 354/2/1 355/3/1 356/4/1
f 357/2/1 358/9/1 359/5/1 360/3/1
f 361/4/1 362/3/1 363/7/1 364/8/1
f 365/1/1 366/2/1 367/3/1 368/4/1
f 369/2/1 370/9/1 371/5/1 372/3/1
f 373/4/1 374/3/1 375/7/1 376/8/1
f 377/2/1 378/9/1 379/5/1 380/3/1
f 381/2/1 382/9/1 383/5/1 384/3/1
f 385/3/1 386/5/1 387/6/1 388/7/1
f 389/4/1 390/3/1 391/7/1 392/8/1
f 393/3/1 394/5/1 395/6/1 396/7/1
f 397/2/1 398/9/1 399/5/1 400/3/1
f 401/1/1 402/2/1 403/3/1 404/4/1
f 405/2/1 406/9/1 407/5/1 408/3/1
f 409/1/1 410/2/1 411/3/1 412/4/1
f 413/4/1 414/3/1 415/7/1 416/8/1
f 417/1/1 418/2/1 419/3/1 420/4/1
f 421/4/1 422/3/1 423/7/1 424/8/1
f 425/1/1 426/2/1 427/3/1 428/4/1
f 429/1/1 430/2/1 431/3/1 432/4/1
f 433/1/1 434/2/1 435/3/1 436/4/1
f 437/4/1 438/3/1 439/7/1 440/8/1
f 441/1/1 442/2/1 443/3/1 444/4/1
f 445/4/1 446/3/1 447/7/1 448/8/1
f 449/4/1 450/3/1 451/7/1 452/8/1
f 453/2/1 454/9/1 455/5/1 456/3/1
f 457/1/1 458/2/1 459/3/1 460/4/1
f 461/4/1 462/3/1 463/7/1 464/8/1
f 465/1/1 466/2/1 467/3/1 468/4/1
f 469/4/1 470/3/1 471/7/1 472/8/1
f 473/1/1 474/2/1 475/3/1 476/4/1
f 477/3/1 478/5/1 479/6/1 480/7/1
f 481/2/1 482/9/1 483/5/1 484/3/1
f 485/1/1 486/2/1 487/3/1 488/4/1
f 489/3/1 490/5/1 491/6/1 492/7/1
f 493/3/1 494/5/1 495/6/1 496/7/1
f 497/1/1 498/2/1 499/3/1 500/4/1
f 501/4/1 502/3/1 503/7/1 504/8/1
f 505/1/1 506/2/1 507/3/1 508/4/1
f 509/2/1 510/9/1 511/5/1 512/3/1
f 513/3/1 514/5/1 515/6/1 516/7/1
f 517/4/1 518/3/1 519/7/1 520/8/1
f 521/3/1 522/5/1 523/6/1 524/7/1
f 525/3/1 526/5/1 527/6/1 528/7/1
f 529/2/1 530/9/1 531/5/1 532/3/1
f 533/2/1 534/9/1 535/5/1 536/3/1
f 537/1/1 538/2/1 539/3/1 540/4/1
f 541/2/1 542/9/1 543/5/1 544/3/1
f 545/4/1 546/3/1 547/7/1 548/8/1
f 549/4/1 550/3/1 551/7/1 552/8/1
f 553/4/1 554/3/1 555/7/1 556/8/1
f 557/1/1 558/2/1 559/3/1 560/4/1
f 561/4/1 562/3/1 563/7/1 564/8/1
f 565/4/1 566/3/1 567/7/1 568/8/1
f 569/1/1 570/2/1 571/3/1 572/4/1
f 573/1/1 574/2/1 575/3/1 576/4/1
f 577/1/1 578/2/1 579/3/1 580/4/1
f 581/2/1 582/9/1 583/5/1 584/3/1
f 585/4/1 586/3/1 587/7/1 588/8/1
f 589/3/1 590/5/1 591/6/1 592/7/1
f 593/2/1 594/9/1 595/5/1 596/3/1
f 597/2/1 598/9/1 599/5/1 600/3/1
f 601/3/1 602/5/1 603/6/1 604/7/1
f 605/4/1 606/3/1 607/7/1 608/8/1
f 609/2/1 610/9/1 611/5/1 612/3/1
f 613/3/1 614/5/1 615/6/1 616/7/1
f 617/2/1 618/9/1 619/5/1 620/3/1
f 621/2/1 622/9/1 623/5/1 624/3/1
f 625/4/1 626/3/1 627/7/1 628/8/1
f 629/1/1 630/2/1 631/3/1 632/4/1
f 633/3/1 634/5/1 635/6/1 636/7/1
f 637/3/1 638/5/1 639/6/1 640/7/1
f 641/1/1 642/2/1 643/3/1 644/4/1
f 645/3/1 646/5/1 647/6/1 648/7/1
f 649/3/1 650/5/1 651/6/1 652/7/1
f 653/4/1 654/3/1 655/7/1 656/8/1
f 657/2/1 658/9/1 659/5/1 660/3/1
f 661/2/1 662/9/1 663/5/1 664/3/1
f 665/1/1 666/2/1 667/3/1 668/4/1
f 669/2/1 670/9/1 671/5/1 672/3/1
f 673/2/1 674/9/1 675/5/1 676/3/1
f 677/2/1 678/9/1 679/5/1 680/3/1
f 681/4/1 682/3/1 683/7/1 684/8/1
f 685/4/1 686/3/1 687/7/1 688/8/1
f 689/3/1 690/5/1 691/6/1 692/7/1
f 693/4/1 694/3/1 695/7/1 696/8/1
f 697/4/1 698/3/1 699/7/1 700/8/1
f 701/1/1 702/2/1 703/3/1 704/4/1
f 705/4/1 706/3/1 707/7/1 708/8/1
f 709/3/1 710/5/1 711/6/1 712/7/1
f 713/4/1 714/3/1 715/7/1 716/8/1
f 717/4/1 718/3/1 719/7/1 720/8/1
f 721/2/1 722/9/1 723/5/1 724/3/1
f 725/3/1 726/5/1 727/6/1 728/7/1
f 729/4/1 730/3/1 731/7/1 732/8/1
f 733/4/1 734/3/1 735/7/1 736/8/1
f 737/2/1 738/9/1 739/5/1 740/3/1
f 741/1/1 742/2/1 743/3/1 744/4/1
f 745/3/1 746/5/1 747/6/1 748/7/1
f 749/1/1 750/2/1 751/3/1 752/4/1
f 753/1/1 754/2/1 755/3/1 756/4/1
f 757/3/1 758/5/1 759/6/1 760/7/1
f 761/4/1 762/3/1 763/7/1 764/8/1
f 765/3/1 766/5/1 767/6/1 768/7/1
f 769/1/1 770/2/1 771/3/1 772/4/1
f 773/1/1 774/2/1 775/3/1 776/4/1
f 777/2/1 778/9/1 779/5/1 780/3/1
f 781/3/1 782/5/1 783/6/1 784/7/1
f 785/3/1 786/5/1 787/6/1 788/7/1
f 789/4/1 790/3/1 791/7/1 792/8/1
f 793/4/1 794/3/1 795/7/1 796/8/1
f 797/2/1 798/9/1 799/5/1 800/3/1
f 801/4/1 802/3/1 803/7/1 804/8/1
f 805/3/1 806/5/1 807/6/1 808/7/1
f 809/3/1 810/5/1 811/6/1 812/7/1
f 813/2/1 814/9/1 815/5/1 816/3/1
f 817/4/1 818/3/1 819/7/1 820/8/1
f 821/2/1 822/9/1 823/5/1 824/3/1
f 825/3/1 826/5/1 827/6/1 828/7/1
f 829/4/1 830/3/1 831/7/1 832/8/1
f 833/4/1 834/3/1 835/7/1 836/8/1
f 837/3/1 838/5/1 839/6/1 840/7/1
f 841/4/1 842/3/1 843/7/1 844/8/1
f 845/1/1 846/2/1 847/3/1 848/4/1
f 849/2/1 850/9/1 851/5/1 852/3/1
f 853/2/1 854/9/1 855/5/1 856/3/1
f 857/2/1 858/9/1 859/5/1 860/3/1
f 861/4/1 862/3/1 863/7/1 864/8/1
f 865/4/1 866/3/1 867/7/1 868/8/1
f 869/1/1 870/2/1 871/3/1 872/4/1
f 873/2/1 874/9/1 875/5/1 876/3/1
f 877/3/1 878/5/1 879/6/1 880/7/1
f 881/2/1 882/9/1 883/5/1 884/3/1
f 885/3/1 886/5/1 887/6/1 888/7/1
f 889/3/1 890/5/1 891/6/1 892/7/1
f 893/2/1 894/9/1 895/5/1 896/3/1
f 897/1/1 898/2/1 899/3/1 900/4/1
f 901/3/1 902/5/1 903/6/1 904/7/1
f 905/4/1 906/3/1 907/7/1 908/8/1
f 909/3/1 910/5/1 911/6/1 912/7/1
f 913/2/1 914/9/1 915/5/1 916/3/1
f 917/2/1 918/9/1 919/5/1 920/3/1
f 921/3/1 922/5/1 923/6/1 924/7/1
f 925/1/1 926/2/1 927/3/1 928/4/1
f 929/3/1 930/5/1 931/6/1 932/7/1
f 933/1/1 934/2/1 935/3/1 936/4/1
f 937/1/1 938/2/1 939/3/1 940/4/1
f 941/3/1 942/5/1 943/6/1 944/7/1
f 945/1/1 946/2/1 947/3/1 948/4/1
f 949/1/1 950/2/1 951/3/1 952/4/1
f 953/4/1 954/3/1 955/7/1 956/8/1
f 957/3/1 958/5/1 959/6/1 960/7/1
f 961/1/1 962/2/1 963/3/1 964/4/1
f 965/1/1 966/2/1 967/3/1 968/4/1
f 969/3/1 970/5/1 971/6/1 972/7/1
f 973/2/1 974/9/1 975/5/1 976/3/1
f 977/4/1 978/3/1 979/7/1 980/8/1
f 981/1/1 982/2/1 983/3/1 984/4/1
f 985/3/1 986/5/1 987/6/1 988/7/1
f 989/4/1 990/3/1 991/7/1 992/8/1
f 993/3/1 994/5/1 995/6/1 996/7/1
f 997/3/1 998/5/1 999/6/1 1000/7/1
f 1001/3/1 1002/5/1 1003/6/1 1004/7/1
f 1005/2/1 1006/9/1 1007/5/1 1008/3/1
f 1009/2/1 1010/9/1 1011/5/1 1012/3/1
f 1013/4/1 1014/3/1 1015/7/1 1016/8/1
f 1017/1/1 1018/2/1 1019/3/1 1020/4/1
f 1021/1/1 1022/2/1 1023/3/1 1024/4/1

