# Tiled2Unity generated file. Do not modify by hand.
# Wavefront file for 'Village_mesh_0087.obj'

# Vertices (Count = 40)
v -192 -144 0
v -208 -144 0
v -208 -128 0
v -192 -128 0
v -176 -144 0
v -192 -144 0
v -192 -128 0
v -176 -128 0
v -160 -144 0
v -176 -144 0
v -176 -128 0
v -160 -128 0
v -144 -144 0
v -160 -144 0
v -160 -128 0
v -144 -128 0
v -128 -144 0
v -144 -144 0
v -144 -128 0
v -128 -128 0
v -192 -160 0
v -208 -160 0
v -208 -144 0
v -192 -144 0
v -176 -160 0
v -192 -160 0
v -192 -144 0
v -176 -144 0
v -160 -160 0
v -176 -160 0
v -176 -144 0
v -160 -144 0
v -144 -160 0
v -160 -160 0
v -160 -144 0
v -144 -144 0
v -128 -160 0
v -144 -160 0
v -144 -144 0
v -128 -144 0

# Texture cooridinates (Count = 18)
vt 0.375 0.9722222
vt 0.4 0.9722222
vt 0.4 1
vt 0.375 1
vt 0.35 0.9722222
vt 0.35 1
vt 0.325 0.9722222
vt 0.325 1
vt 0.3 0.9722222
vt 0.3 1
vt 0.275 0.9722222
vt 0.275 1
vt 0.375 0.9444444
vt 0.4 0.9444444
vt 0.35 0.9444444
vt 0.325 0.9444444
vt 0.3 0.9444444
vt 0.275 0.9444444

# Normal
vn 0 0 -1

# Mesh description
g Village_mesh_0087

# Faces
f 1/1/1 2/2/1 3/3/1 4/4/1
f 5/5/1 6/1/1 7/4/1 8/6/1
f 9/7/1 10/5/1 11/6/1 12/8/1
f 13/9/1 14/7/1 15/8/1 16/10/1
f 17/11/1 18/9/1 19/10/1 20/12/1
f 21/13/1 22/14/1 23/2/1 24/1/1
f 25/15/1 26/13/1 27/1/1 28/5/1
f 29/16/1 30/15/1 31/5/1 32/7/1
f 33/17/1 34/16/1 35/7/1 36/9/1
f 37/18/1 38/17/1 39/9/1 40/11/1

