# Tiled2Unity generated file. Do not modify by hand.
# Wavefront file for 'Village_mesh_0124.obj'

# Vertices (Count = 92)
v -240 -16 0
v -256 -16 0
v -256 0 0
v -240 0 0
v 0 -16 0
v -16 -16 0
v -16 0 0
v 0 0 0
v -64 -48 0
v -80 -48 0
v -80 -32 0
v -64 -32 0
v -48 -48 0
v -64 -48 0
v -64 -32 0
v -48 -32 0
v -96 -64 0
v -112 -64 0
v -112 -48 0
v -96 -48 0
v -80 -64 0
v -96 -64 0
v -96 -48 0
v -80 -48 0
v -32 -112 0
v -48 -112 0
v -48 -96 0
v -32 -96 0
v -16 -112 0
v -32 -112 0
v -32 -96 0
v -16 -96 0
v -96 -128 0
v -112 -128 0
v -112 -112 0
v -96 -112 0
v -80 -128 0
v -96 -128 0
v -96 -112 0
v -80 -112 0
v -160 -144 0
v -176 -144 0
v -176 -128 0
v -160 -128 0
v -144 -144 0
v -160 -144 0
v -160 -128 0
v -144 -128 0
v 0 -160 0
v -16 -160 0
v -16 -144 0
v 0 -144 0
v -240 -192 0
v -256 -192 0
v -256 -176 0
v -240 -176 0
v -224 -192 0
v -240 -192 0
v -240 -176 0
v -224 -176 0
v -128 -192 0
v -144 -192 0
v -144 -176 0
v -128 -176 0
v -112 -192 0
v -128 -192 0
v -128 -176 0
v -112 -176 0
v -64 -192 0
v -80 -192 0
v -80 -176 0
v -64 -176 0
v -48 -192 0
v -64 -192 0
v -64 -176 0
v -48 -176 0
v -176 -208 0
v -192 -208 0
v -192 -192 0
v -176 -192 0
v -160 -208 0
v -176 -208 0
v -176 -192 0
v -160 -192 0
v -16 -224 0
v -32 -224 0
v -32 -208 0
v -16 -208 0
v 0 -224 0
v -16 -224 0
v -16 -208 0
v 0 -208 0

# Texture cooridinates (Count = 10)
vt 0.0625 0.4444444
vt 0.078125 0.4444444
vt 0.078125 0.452381
vt 0.0625 0.452381
vt 0.171875 0.2698413
vt 0.1875 0.2698413
vt 0.1875 0.2777778
vt 0.171875 0.2777778
vt 0.15625 0.2698413
vt 0.15625 0.2777778

# Normal
vn 0 0 -1

# Mesh description
g Village_mesh_0124

# Faces
f 1/1/1 2/2/1 3/3/1 4/4/1
f 5/5/1 6/6/1 7/7/1 8/8/1
f 9/5/1 10/6/1 11/7/1 12/8/1
f 13/9/1 14/5/1 15/8/1 16/10/1
f 17/5/1 18/6/1 19/7/1 20/8/1
f 21/9/1 22/5/1 23/8/1 24/10/1
f 25/5/1 26/6/1 27/7/1 28/8/1
f 29/9/1 30/5/1 31/8/1 32/10/1
f 33/5/1 34/6/1 35/7/1 36/8/1
f 37/9/1 38/5/1 39/8/1 40/10/1
f 41/5/1 42/6/1 43/7/1 44/8/1
f 45/9/1 46/5/1 47/8/1 48/10/1
f 49/5/1 50/6/1 51/7/1 52/8/1
f 53/5/1 54/6/1 55/7/1 56/8/1
f 57/9/1 58/5/1 59/8/1 60/10/1
f 61/5/1 62/6/1 63/7/1 64/8/1
f 65/9/1 66/5/1 67/8/1 68/10/1
f 69/5/1 70/6/1 71/7/1 72/8/1
f 73/9/1 74/5/1 75/8/1 76/10/1
f 77/5/1 78/6/1 79/7/1 80/8/1
f 81/9/1 82/5/1 83/8/1 84/10/1
f 85/5/1 86/6/1 87/7/1 88/8/1
f 89/9/1 90/5/1 91/8/1 92/10/1

