# Tiled2Unity generated file. Do not modify by hand.
# Wavefront file for 'Village_mesh_0117.obj'

# Vertices (Count = 48)
v -240 -32 0
v -256 -32 0
v -256 -16 0
v -240 -16 0
v -224 -32 0
v -240 -32 0
v -240 -16 0
v -224 -16 0
v -208 -32 0
v -224 -32 0
v -224 -16 0
v -208 -16 0
v -192 -32 0
v -208 -32 0
v -208 -16 0
v -192 -16 0
v -160 -32 0
v -176 -32 0
v -176 -16 0
v -160 -16 0
v -144 -32 0
v -160 -32 0
v -160 -16 0
v -144 -16 0
v -128 -32 0
v -144 -32 0
v -144 -16 0
v -128 -16 0
v -240 -48 0
v -256 -48 0
v -256 -32 0
v -240 -32 0
v -224 -48 0
v -240 -48 0
v -240 -32 0
v -224 -32 0
v -208 -48 0
v -224 -48 0
v -224 -32 0
v -208 -32 0
v -192 -48 0
v -208 -48 0
v -208 -32 0
v -192 -32 0
v -144 -80 0
v -160 -80 0
v -160 -64 0
v -144 -64 0

# Texture cooridinates (Count = 27)
vt 0.725 0.4166667
vt 0.75 0.4166667
vt 0.75 0.4444444
vt 0.725 0.4444444
vt 0.7 0.4166667
vt 0.7 0.4444444
vt 0.675 0.4166667
vt 0.675 0.4444444
vt 0.65 0.4166667
vt 0.65 0.4444444
vt 0.125 0.8333333
vt 0.15 0.8333333
vt 0.15 0.8611111
vt 0.125 0.8611111
vt 0.1 0.8333333
vt 0.1 0.8611111
vt 0.075 0.8333333
vt 0.075 0.8611111
vt 0.725 0.3888889
vt 0.75 0.3888889
vt 0.7 0.3888889
vt 0.675 0.3888889
vt 0.65 0.3888889
vt 0.225 0.8333333
vt 0.25 0.8333333
vt 0.25 0.8611111
vt 0.225 0.8611111

# Normal
vn 0 0 -1

# Mesh description
g Village_mesh_0117

# Faces
f 1/1/1 2/2/1 3/3/1 4/4/1
f 5/5/1 6/1/1 7/4/1 8/6/1
f 9/7/1 10/5/1 11/6/1 12/8/1
f 13/9/1 14/7/1 15/8/1 16/10/1
f 17/11/1 18/12/1 19/13/1 20/14/1
f 21/15/1 22/11/1 23/14/1 24/16/1
f 25/17/1 26/15/1 27/16/1 28/18/1
f 29/19/1 30/20/1 31/2/1 32/1/1
f 33/21/1 34/19/1 35/1/1 36/5/1
f 37/22/1 38/21/1 39/5/1 40/7/1
f 41/23/1 42/22/1 43/7/1 44/9/1
f 45/24/1 46/25/1 47/26/1 48/27/1

