# Tiled2Unity generated file. Do not modify by hand.
# Wavefront file for 'Village_mesh_0020.obj'

# Vertices (Count = 1024)
v -240 -16 0
v -256 -16 0
v -256 0 0
v -240 0 0
v -224 -16 0
v -240 -16 0
v -240 0 0
v -224 0 0
v -208 -16 0
v -224 -16 0
v -224 0 0
v -208 0 0
v -192 -16 0
v -208 -16 0
v -208 0 0
v -192 0 0
v -176 -16 0
v -192 -16 0
v -192 0 0
v -176 0 0
v -160 -16 0
v -176 -16 0
v -176 0 0
v -160 0 0
v -144 -16 0
v -160 -16 0
v -160 0 0
v -144 0 0
v -128 -16 0
v -144 -16 0
v -144 0 0
v -128 0 0
v -112 -16 0
v -128 -16 0
v -128 0 0
v -112 0 0
v -96 -16 0
v -112 -16 0
v -112 0 0
v -96 0 0
v -80 -16 0
v -96 -16 0
v -96 0 0
v -80 0 0
v -64 -16 0
v -80 -16 0
v -80 0 0
v -64 0 0
v -48 -16 0
v -64 -16 0
v -64 0 0
v -48 0 0
v -32 -16 0
v -48 -16 0
v -48 0 0
v -32 0 0
v -16 -16 0
v -32 -16 0
v -32 0 0
v -16 0 0
v 0 -16 0
v -16 -16 0
v -16 0 0
v 0 0 0
v -240 -32 0
v -256 -32 0
v -256 -16 0
v -240 -16 0
v -224 -32 0
v -240 -32 0
v -240 -16 0
v -224 -16 0
v -208 -32 0
v -224 -32 0
v -224 -16 0
v -208 -16 0
v -192 -32 0
v -208 -32 0
v -208 -16 0
v -192 -16 0
v -176 -32 0
v -192 -32 0
v -192 -16 0
v -176 -16 0
v -160 -32 0
v -176 -32 0
v -176 -16 0
v -160 -16 0
v -144 -32 0
v -160 -32 0
v -160 -16 0
v -144 -16 0
v -128 -32 0
v -144 -32 0
v -144 -16 0
v -128 -16 0
v -112 -32 0
v -128 -32 0
v -128 -16 0
v -112 -16 0
v -96 -32 0
v -112 -32 0
v -112 -16 0
v -96 -16 0
v -80 -32 0
v -96 -32 0
v -96 -16 0
v -80 -16 0
v -64 -32 0
v -80 -32 0
v -80 -16 0
v -64 -16 0
v -48 -32 0
v -64 -32 0
v -64 -16 0
v -48 -16 0
v -32 -32 0
v -48 -32 0
v -48 -16 0
v -32 -16 0
v -16 -32 0
v -32 -32 0
v -32 -16 0
v -16 -16 0
v 0 -32 0
v -16 -32 0
v -16 -16 0
v 0 -16 0
v -240 -48 0
v -256 -48 0
v -256 -32 0
v -240 -32 0
v -224 -48 0
v -240 -48 0
v -240 -32 0
v -224 -32 0
v -208 -48 0
v -224 -48 0
v -224 -32 0
v -208 -32 0
v -192 -48 0
v -208 -48 0
v -208 -32 0
v -192 -32 0
v -176 -48 0
v -192 -48 0
v -192 -32 0
v -176 -32 0
v -160 -48 0
v -176 -48 0
v -176 -32 0
v -160 -32 0
v -144 -48 0
v -160 -48 0
v -160 -32 0
v -144 -32 0
v -128 -48 0
v -144 -48 0
v -144 -32 0
v -128 -32 0
v -112 -48 0
v -128 -48 0
v -128 -32 0
v -112 -32 0
v -96 -48 0
v -112 -48 0
v -112 -32 0
v -96 -32 0
v -80 -48 0
v -96 -48 0
v -96 -32 0
v -80 -32 0
v -64 -48 0
v -80 -48 0
v -80 -32 0
v -64 -32 0
v -48 -48 0
v -64 -48 0
v -64 -32 0
v -48 -32 0
v -32 -48 0
v -48 -48 0
v -48 -32 0
v -32 -32 0
v -16 -48 0
v -32 -48 0
v -32 -32 0
v -16 -32 0
v 0 -48 0
v -16 -48 0
v -16 -32 0
v 0 -32 0
v -240 -64 0
v -256 -64 0
v -256 -48 0
v -240 -48 0
v -224 -64 0
v -240 -64 0
v -240 -48 0
v -224 -48 0
v -208 -64 0
v -224 -64 0
v -224 -48 0
v -208 -48 0
v -192 -64 0
v -208 -64 0
v -208 -48 0
v -192 -48 0
v -176 -64 0
v -192 -64 0
v -192 -48 0
v -176 -48 0
v -160 -64 0
v -176 -64 0
v -176 -48 0
v -160 -48 0
v -144 -64 0
v -160 -64 0
v -160 -48 0
v -144 -48 0
v -128 -64 0
v -144 -64 0
v -144 -48 0
v -128 -48 0
v -112 -64 0
v -128 -64 0
v -128 -48 0
v -112 -48 0
v -96 -64 0
v -112 -64 0
v -112 -48 0
v -96 -48 0
v -80 -64 0
v -96 -64 0
v -96 -48 0
v -80 -48 0
v -64 -64 0
v -80 -64 0
v -80 -48 0
v -64 -48 0
v -48 -64 0
v -64 -64 0
v -64 -48 0
v -48 -48 0
v -32 -64 0
v -48 -64 0
v -48 -48 0
v -32 -48 0
v -16 -64 0
v -32 -64 0
v -32 -48 0
v -16 -48 0
v 0 -64 0
v -16 -64 0
v -16 -48 0
v 0 -48 0
v -240 -80 0
v -256 -80 0
v -256 -64 0
v -240 -64 0
v -224 -80 0
v -240 -80 0
v -240 -64 0
v -224 -64 0
v -208 -80 0
v -224 -80 0
v -224 -64 0
v -208 -64 0
v -192 -80 0
v -208 -80 0
v -208 -64 0
v -192 -64 0
v -176 -80 0
v -192 -80 0
v -192 -64 0
v -176 -64 0
v -160 -80 0
v -176 -80 0
v -176 -64 0
v -160 -64 0
v -144 -80 0
v -160 -80 0
v -160 -64 0
v -144 -64 0
v -128 -80 0
v -144 -80 0
v -144 -64 0
v -128 -64 0
v -112 -80 0
v -128 -80 0
v -128 -64 0
v -112 -64 0
v -96 -80 0
v -112 -80 0
v -112 -64 0
v -96 -64 0
v -80 -80 0
v -96 -80 0
v -96 -64 0
v -80 -64 0
v -64 -80 0
v -80 -80 0
v -80 -64 0
v -64 -64 0
v -48 -80 0
v -64 -80 0
v -64 -64 0
v -48 -64 0
v -32 -80 0
v -48 -80 0
v -48 -64 0
v -32 -64 0
v -16 -80 0
v -32 -80 0
v -32 -64 0
v -16 -64 0
v 0 -80 0
v -16 -80 0
v -16 -64 0
v 0 -64 0
v -240 -96 0
v -256 -96 0
v -256 -80 0
v -240 -80 0
v -224 -96 0
v -240 -96 0
v -240 -80 0
v -224 -80 0
v -208 -96 0
v -224 -96 0
v -224 -80 0
v -208 -80 0
v -192 -96 0
v -208 -96 0
v -208 -80 0
v -192 -80 0
v -176 -96 0
v -192 -96 0
v -192 -80 0
v -176 -80 0
v -160 -96 0
v -176 -96 0
v -176 -80 0
v -160 -80 0
v -144 -96 0
v -160 -96 0
v -160 -80 0
v -144 -80 0
v -128 -96 0
v -144 -96 0
v -144 -80 0
v -128 -80 0
v -112 -96 0
v -128 -96 0
v -128 -80 0
v -112 -80 0
v -96 -96 0
v -112 -96 0
v -112 -80 0
v -96 -80 0
v -80 -96 0
v -96 -96 0
v -96 -80 0
v -80 -80 0
v -64 -96 0
v -80 -96 0
v -80 -80 0
v -64 -80 0
v -48 -96 0
v -64 -96 0
v -64 -80 0
v -48 -80 0
v -32 -96 0
v -48 -96 0
v -48 -80 0
v -32 -80 0
v -16 -96 0
v -32 -96 0
v -32 -80 0
v -16 -80 0
v 0 -96 0
v -16 -96 0
v -16 -80 0
v 0 -80 0
v -240 -112 0
v -256 -112 0
v -256 -96 0
v -240 -96 0
v -224 -112 0
v -240 -112 0
v -240 -96 0
v -224 -96 0
v -208 -112 0
v -224 -112 0
v -224 -96 0
v -208 -96 0
v -192 -112 0
v -208 -112 0
v -208 -96 0
v -192 -96 0
v -176 -112 0
v -192 -112 0
v -192 -96 0
v -176 -96 0
v -160 -112 0
v -176 -112 0
v -176 -96 0
v -160 -96 0
v -144 -112 0
v -160 -112 0
v -160 -96 0
v -144 -96 0
v -128 -112 0
v -144 -112 0
v -144 -96 0
v -128 -96 0
v -112 -112 0
v -128 -112 0
v -128 -96 0
v -112 -96 0
v -96 -112 0
v -112 -112 0
v -112 -96 0
v -96 -96 0
v -80 -112 0
v -96 -112 0
v -96 -96 0
v -80 -96 0
v -64 -112 0
v -80 -112 0
v -80 -96 0
v -64 -96 0
v -48 -112 0
v -64 -112 0
v -64 -96 0
v -48 -96 0
v -32 -112 0
v -48 -112 0
v -48 -96 0
v -32 -96 0
v -16 -112 0
v -32 -112 0
v -32 -96 0
v -16 -96 0
v 0 -112 0
v -16 -112 0
v -16 -96 0
v 0 -96 0
v -240 -128 0
v -256 -128 0
v -256 -112 0
v -240 -112 0
v -224 -128 0
v -240 -128 0
v -240 -112 0
v -224 -112 0
v -208 -128 0
v -224 -128 0
v -224 -112 0
v -208 -112 0
v -192 -128 0
v -208 -128 0
v -208 -112 0
v -192 -112 0
v -176 -128 0
v -192 -128 0
v -192 -112 0
v -176 -112 0
v -160 -128 0
v -176 -128 0
v -176 -112 0
v -160 -112 0
v -144 -128 0
v -160 -128 0
v -160 -112 0
v -144 -112 0
v -128 -128 0
v -144 -128 0
v -144 -112 0
v -128 -112 0
v -112 -128 0
v -128 -128 0
v -128 -112 0
v -112 -112 0
v -96 -128 0
v -112 -128 0
v -112 -112 0
v -96 -112 0
v -80 -128 0
v -96 -128 0
v -96 -112 0
v -80 -112 0
v -64 -128 0
v -80 -128 0
v -80 -112 0
v -64 -112 0
v -48 -128 0
v -64 -128 0
v -64 -112 0
v -48 -112 0
v -32 -128 0
v -48 -128 0
v -48 -112 0
v -32 -112 0
v -16 -128 0
v -32 -128 0
v -32 -112 0
v -16 -112 0
v 0 -128 0
v -16 -128 0
v -16 -112 0
v 0 -112 0
v -240 -144 0
v -256 -144 0
v -256 -128 0
v -240 -128 0
v -224 -144 0
v -240 -144 0
v -240 -128 0
v -224 -128 0
v -208 -144 0
v -224 -144 0
v -224 -128 0
v -208 -128 0
v -192 -144 0
v -208 -144 0
v -208 -128 0
v -192 -128 0
v -176 -144 0
v -192 -144 0
v -192 -128 0
v -176 -128 0
v -160 -144 0
v -176 -144 0
v -176 -128 0
v -160 -128 0
v -144 -144 0
v -160 -144 0
v -160 -128 0
v -144 -128 0
v -128 -144 0
v -144 -144 0
v -144 -128 0
v -128 -128 0
v -112 -144 0
v -128 -144 0
v -128 -128 0
v -112 -128 0
v -96 -144 0
v -112 -144 0
v -112 -128 0
v -96 -128 0
v -80 -144 0
v -96 -144 0
v -96 -128 0
v -80 -128 0
v -64 -144 0
v -80 -144 0
v -80 -128 0
v -64 -128 0
v -48 -144 0
v -64 -144 0
v -64 -128 0
v -48 -128 0
v -32 -144 0
v -48 -144 0
v -48 -128 0
v -32 -128 0
v -16 -144 0
v -32 -144 0
v -32 -128 0
v -16 -128 0
v 0 -144 0
v -16 -144 0
v -16 -128 0
v 0 -128 0
v -240 -160 0
v -256 -160 0
v -256 -144 0
v -240 -144 0
v -224 -160 0
v -240 -160 0
v -240 -144 0
v -224 -144 0
v -208 -160 0
v -224 -160 0
v -224 -144 0
v -208 -144 0
v -192 -160 0
v -208 -160 0
v -208 -144 0
v -192 -144 0
v -176 -160 0
v -192 -160 0
v -192 -144 0
v -176 -144 0
v -160 -160 0
v -176 -160 0
v -176 -144 0
v -160 -144 0
v -144 -160 0
v -160 -160 0
v -160 -144 0
v -144 -144 0
v -128 -160 0
v -144 -160 0
v -144 -144 0
v -128 -144 0
v -112 -160 0
v -128 -160 0
v -128 -144 0
v -112 -144 0
v -96 -160 0
v -112 -160 0
v -112 -144 0
v -96 -144 0
v -80 -160 0
v -96 -160 0
v -96 -144 0
v -80 -144 0
v -64 -160 0
v -80 -160 0
v -80 -144 0
v -64 -144 0
v -48 -160 0
v -64 -160 0
v -64 -144 0
v -48 -144 0
v -32 -160 0
v -48 -160 0
v -48 -144 0
v -32 -144 0
v -16 -160 0
v -32 -160 0
v -32 -144 0
v -16 -144 0
v 0 -160 0
v -16 -160 0
v -16 -144 0
v 0 -144 0
v -240 -176 0
v -256 -176 0
v -256 -160 0
v -240 -160 0
v -224 -176 0
v -240 -176 0
v -240 -160 0
v -224 -160 0
v -208 -176 0
v -224 -176 0
v -224 -160 0
v -208 -160 0
v -192 -176 0
v -208 -176 0
v -208 -160 0
v -192 -160 0
v -176 -176 0
v -192 -176 0
v -192 -160 0
v -176 -160 0
v -160 -176 0
v -176 -176 0
v -176 -160 0
v -160 -160 0
v -144 -176 0
v -160 -176 0
v -160 -160 0
v -144 -160 0
v -128 -176 0
v -144 -176 0
v -144 -160 0
v -128 -160 0
v -112 -176 0
v -128 -176 0
v -128 -160 0
v -112 -160 0
v -96 -176 0
v -112 -176 0
v -112 -160 0
v -96 -160 0
v -80 -176 0
v -96 -176 0
v -96 -160 0
v -80 -160 0
v -64 -176 0
v -80 -176 0
v -80 -160 0
v -64 -160 0
v -48 -176 0
v -64 -176 0
v -64 -160 0
v -48 -160 0
v -32 -176 0
v -48 -176 0
v -48 -160 0
v -32 -160 0
v -16 -176 0
v -32 -176 0
v -32 -160 0
v -16 -160 0
v 0 -176 0
v -16 -176 0
v -16 -160 0
v 0 -160 0
v -240 -192 0
v -256 -192 0
v -256 -176 0
v -240 -176 0
v -224 -192 0
v -240 -192 0
v -240 -176 0
v -224 -176 0
v -208 -192 0
v -224 -192 0
v -224 -176 0
v -208 -176 0
v -192 -192 0
v -208 -192 0
v -208 -176 0
v -192 -176 0
v -176 -192 0
v -192 -192 0
v -192 -176 0
v -176 -176 0
v -160 -192 0
v -176 -192 0
v -176 -176 0
v -160 -176 0
v -144 -192 0
v -160 -192 0
v -160 -176 0
v -144 -176 0
v -128 -192 0
v -144 -192 0
v -144 -176 0
v -128 -176 0
v -112 -192 0
v -128 -192 0
v -128 -176 0
v -112 -176 0
v -96 -192 0
v -112 -192 0
v -112 -176 0
v -96 -176 0
v -80 -192 0
v -96 -192 0
v -96 -176 0
v -80 -176 0
v -64 -192 0
v -80 -192 0
v -80 -176 0
v -64 -176 0
v -48 -192 0
v -64 -192 0
v -64 -176 0
v -48 -176 0
v -32 -192 0
v -48 -192 0
v -48 -176 0
v -32 -176 0
v -16 -192 0
v -32 -192 0
v -32 -176 0
v -16 -176 0
v 0 -192 0
v -16 -192 0
v -16 -176 0
v 0 -176 0
v -240 -208 0
v -256 -208 0
v -256 -192 0
v -240 -192 0
v -224 -208 0
v -240 -208 0
v -240 -192 0
v -224 -192 0
v -208 -208 0
v -224 -208 0
v -224 -192 0
v -208 -192 0
v -192 -208 0
v -208 -208 0
v -208 -192 0
v -192 -192 0
v -176 -208 0
v -192 -208 0
v -192 -192 0
v -176 -192 0
v -160 -208 0
v -176 -208 0
v -176 -192 0
v -160 -192 0
v -144 -208 0
v -160 -208 0
v -160 -192 0
v -144 -192 0
v -128 -208 0
v -144 -208 0
v -144 -192 0
v -128 -192 0
v -112 -208 0
v -128 -208 0
v -128 -192 0
v -112 -192 0
v -96 -208 0
v -112 -208 0
v -112 -192 0
v -96 -192 0
v -80 -208 0
v -96 -208 0
v -96 -192 0
v -80 -192 0
v -64 -208 0
v -80 -208 0
v -80 -192 0
v -64 -192 0
v -48 -208 0
v -64 -208 0
v -64 -192 0
v -48 -192 0
v -32 -208 0
v -48 -208 0
v -48 -192 0
v -32 -192 0
v -16 -208 0
v -32 -208 0
v -32 -192 0
v -16 -192 0
v 0 -208 0
v -16 -208 0
v -16 -192 0
v 0 -192 0
v -240 -224 0
v -256 -224 0
v -256 -208 0
v -240 -208 0
v -224 -224 0
v -240 -224 0
v -240 -208 0
v -224 -208 0
v -208 -224 0
v -224 -224 0
v -224 -208 0
v -208 -208 0
v -192 -224 0
v -208 -224 0
v -208 -208 0
v -192 -208 0
v -176 -224 0
v -192 -224 0
v -192 -208 0
v -176 -208 0
v -160 -224 0
v -176 -224 0
v -176 -208 0
v -160 -208 0
v -144 -224 0
v -160 -224 0
v -160 -208 0
v -144 -208 0
v -128 -224 0
v -144 -224 0
v -144 -208 0
v -128 -208 0
v -112 -224 0
v -128 -224 0
v -128 -208 0
v -112 -208 0
v -96 -224 0
v -112 -224 0
v -112 -208 0
v -96 -208 0
v -80 -224 0
v -96 -224 0
v -96 -208 0
v -80 -208 0
v -64 -224 0
v -80 -224 0
v -80 -208 0
v -64 -208 0
v -48 -224 0
v -64 -224 0
v -64 -208 0
v -48 -208 0
v -32 -224 0
v -48 -224 0
v -48 -208 0
v -32 -208 0
v -16 -224 0
v -32 -224 0
v -32 -208 0
v -16 -208 0
v 0 -224 0
v -16 -224 0
v -16 -208 0
v 0 -208 0
v -240 -240 0
v -256 -240 0
v -256 -224 0
v -240 -224 0
v -224 -240 0
v -240 -240 0
v -240 -224 0
v -224 -224 0
v -208 -240 0
v -224 -240 0
v -224 -224 0
v -208 -224 0
v -192 -240 0
v -208 -240 0
v -208 -224 0
v -192 -224 0
v -176 -240 0
v -192 -240 0
v -192 -224 0
v -176 -224 0
v -160 -240 0
v -176 -240 0
v -176 -224 0
v -160 -224 0
v -144 -240 0
v -160 -240 0
v -160 -224 0
v -144 -224 0
v -128 -240 0
v -144 -240 0
v -144 -224 0
v -128 -224 0
v -112 -240 0
v -128 -240 0
v -128 -224 0
v -112 -224 0
v -96 -240 0
v -112 -240 0
v -112 -224 0
v -96 -224 0
v -80 -240 0
v -96 -240 0
v -96 -224 0
v -80 -224 0
v -64 -240 0
v -80 -240 0
v -80 -224 0
v -64 -224 0
v -48 -240 0
v -64 -240 0
v -64 -224 0
v -48 -224 0
v -32 -240 0
v -48 -240 0
v -48 -224 0
v -32 -224 0
v -16 -240 0
v -32 -240 0
v -32 -224 0
v -16 -224 0
v 0 -240 0
v -16 -240 0
v -16 -224 0
v 0 -224 0
v -240 -256 0
v -256 -256 0
v -256 -240 0
v -240 -240 0
v -224 -256 0
v -240 -256 0
v -240 -240 0
v -224 -240 0
v -208 -256 0
v -224 -256 0
v -224 -240 0
v -208 -240 0
v -192 -256 0
v -208 -256 0
v -208 -240 0
v -192 -240 0
v -176 -256 0
v -192 -256 0
v -192 -240 0
v -176 -240 0
v -160 -256 0
v -176 -256 0
v -176 -240 0
v -160 -240 0
v -144 -256 0
v -160 -256 0
v -160 -240 0
v -144 -240 0
v -128 -256 0
v -144 -256 0
v -144 -240 0
v -128 -240 0
v -112 -256 0
v -128 -256 0
v -128 -240 0
v -112 -240 0
v -96 -256 0
v -112 -256 0
v -112 -240 0
v -96 -240 0
v -80 -256 0
v -96 -256 0
v -96 -240 0
v -80 -240 0
v -64 -256 0
v -80 -256 0
v -80 -240 0
v -64 -240 0
v -48 -256 0
v -64 -256 0
v -64 -240 0
v -48 -240 0
v -32 -256 0
v -48 -256 0
v -48 -240 0
v -32 -240 0
v -16 -256 0
v -32 -256 0
v -32 -240 0
v -16 -240 0
v 0 -256 0
v -16 -256 0
v -16 -240 0
v 0 -240 0

# Texture cooridinates (Count = 9)
vt 0.175 0.6944444
vt 0.2 0.6944444
vt 0.2 0.7222222
vt 0.175 0.7222222
vt 0.225 0.7222222
vt 0.225 0.75
vt 0.2 0.75
vt 0.175 0.75
vt 0.225 0.6944444

# Normal
vn 0 0 -1

# Mesh description
g Village_mesh_0020

# Faces
f 1/1/1 2/2/1 3/3/1 4/4/1
f 5/3/1 6/5/1 7/6/1 8/7/1
f 9/3/1 10/5/1 11/6/1 12/7/1
f 13/4/1 14/3/1 15/7/1 16/8/1
f 17/3/1 18/5/1 19/6/1 20/7/1
f 21/2/1 22/9/1 23/5/1 24/3/1
f 25/3/1 26/5/1 27/6/1 28/7/1
f 29/2/1 30/9/1 31/5/1 32/3/1
f 33/3/1 34/5/1 35/6/1 36/7/1
f 37/2/1 38/9/1 39/5/1 40/3/1
f 41/3/1 42/5/1 43/6/1 44/7/1
f 45/1/1 46/2/1 47/3/1 48/4/1
f 49/2/1 50/9/1 51/5/1 52/3/1
f 53/1/1 54/2/1 55/3/1 56/4/1
f 57/1/1 58/2/1 59/3/1 60/4/1
f 61/4/1 62/3/1 63/7/1 64/8/1
f 65/4/1 66/3/1 67/7/1 68/8/1
f 69/4/1 70/3/1 71/7/1 72/8/1
f 73/3/1 74/5/1 75/6/1 76/7/1
f 77/1/1 78/2/1 79/3/1 80/4/1
f 81/3/1 82/5/1 83/6/1 84/7/1
f 85/1/1 86/2/1 87/3/1 88/4/1
f 89/1/1 90/2/1 91/3/1 92/4/1
f 93/4/1 94/3/1 95/7/1 96/8/1
f 97/1/1 98/2/1 99/3/1 100/4/1
f 101/1/1 102/2/1 103/3/1 104/4/1
f 105/1/1 106/2/1 107/3/1 108/4/1
f 109/4/1 110/3/1 111/7/1 112/8/1
f 113/1/1 114/2/1 115/3/1 116/4/1
f 117/3/1 118/5/1 119/6/1 120/7/1
f 121/1/1 122/2/1 123/3/1 124/4/1
f 125/4/1 126/3/1 127/7/1 128/8/1
f 129/3/1 130/5/1 131/6/1 132/7/1
f 133/2/1 134/9/1 135/5/1 136/3/1
f 137/1/1 138/2/1 139/3/1 140/4/1
f 141/3/1 142/5/1 143/6/1 144/7/1
f 145/4/1 146/3/1 147/7/1 148/8/1
f 149/4/1 150/3/1 151/7/1 152/8/1
f 153/4/1 154/3/1 155/7/1 156/8/1
f 157/4/1 158/3/1 159/7/1 160/8/1
f 161/2/1 162/9/1 163/5/1 164/3/1
f 165/1/1 166/2/1 167/3/1 168/4/1
f 169/1/1 170/2/1 171/3/1 172/4/1
f 173/2/1 174/9/1 175/5/1 176/3/1
f 177/3/1 178/5/1 179/6/1 180/7/1
f 181/3/1 182/5/1 183/6/1 184/7/1
f 185/3/1 186/5/1 187/6/1 188/7/1
f 189/2/1 190/9/1 191/5/1 192/3/1
f 193/1/1 194/2/1 195/3/1 196/4/1
f 197/3/1 198/5/1 199/6/1 200/7/1
f 201/3/1 202/5/1 203/6/1 204/7/1
f 205/1/1 206/2/1 207/3/1 208/4/1
f 209/3/1 210/5/1 211/6/1 212/7/1
f 213/4/1 214/3/1 215/7/1 216/8/1
f 217/4/1 218/3/1 219/7/1 220/8/1
f 221/2/1 222/9/1 223/5/1 224/3/1
f 225/3/1 226/5/1 227/6/1 228/7/1
f 229/1/1 230/2/1 231/3/1 232/4/1
f 233/3/1 234/5/1 235/6/1 236/7/1
f 237/1/1 238/2/1 239/3/1 240/4/1
f 241/2/1 242/9/1 243/5/1 244/3/1
f 245/4/1 246/3/1 247/7/1 248/8/1
f 249/1/1 250/2/1 251/3/1 252/4/1
f 253/4/1 254/3/1 255/7/1 256/8/1
f 257/1/1 258/2/1 259/3/1 260/4/1
f 261/3/1 262/5/1 263/6/1 264/7/1
f 265/3/1 266/5/1 267/6/1 268/7/1
f 269/3/1 270/5/1 271/6/1 272/7/1
f 273/1/1 274/2/1 275/3/1 276/4/1
f 277/2/1 278/9/1 279/5/1 280/3/1
f 281/4/1 282/3/1 283/7/1 284/8/1
f 285/2/1 286/9/1 287/5/1 288/3/1
f 289/1/1 290/2/1 291/3/1 292/4/1
f 293/2/1 294/9/1 295/5/1 296/3/1
f 297/3/1 298/5/1 299/6/1 300/7/1
f 301/2/1 302/9/1 303/5/1 304/3/1
f 305/2/1 306/9/1 307/5/1 308/3/1
f 309/2/1 310/9/1 311/5/1 312/3/1
f 313/4/1 314/3/1 315/7/1 316/8/1
f 317/3/1 318/5/1 319/6/1 320/7/1
f 321/2/1 322/9/1 323/5/1 324/3/1
f 325/1/1 326/2/1 327/3/1 328/4/1
f 329/3/1 330/5/1 331/6/1 332/7/1
f 333/2/1 334/9/1 335/5/1 336/3/1
f 337/3/1 338/5/1 339/6/1 340/7/1
f 341/3/1 342/5/1 343/6/1 344/7/1
f 345/1/1 346/2/1 347/3/1 348/4/1
f 349/1/1 350/2/1 351/3/1 352/4/1
f 353/1/1 354/2/1 355/3/1 356/4/1
f 357/4/1 358/3/1 359/7/1 360/8/1
f 361/1/1 362/2/1 363/3/1 364/4/1
f 365/3/1 366/5/1 367/6/1 368/7/1
f 369/2/1 370/9/1 371/5/1 372/3/1
f 373/1/1 374/2/1 375/3/1 376/4/1
f 377/1/1 378/2/1 379/3/1 380/4/1
f 381/2/1 382/9/1 383/5/1 384/3/1
f 385/2/1 386/9/1 387/5/1 388/3/1
f 389/3/1 390/5/1 391/6/1 392/7/1
f 393/4/1 394/3/1 395/7/1 396/8/1
f 397/4/1 398/3/1 399/7/1 400/8/1
f 401/4/1 402/3/1 403/7/1 404/8/1
f 405/3/1 406/5/1 407/6/1 408/7/1
f 409/3/1 410/5/1 411/6/1 412/7/1
f 413/2/1 414/9/1 415/5/1 416/3/1
f 417/2/1 418/9/1 419/5/1 420/3/1
f 421/4/1 422/3/1 423/7/1 424/8/1
f 425/3/1 426/5/1 427/6/1 428/7/1
f 429/3/1 430/5/1 431/6/1 432/7/1
f 433/1/1 434/2/1 435/3/1 436/4/1
f 437/2/1 438/9/1 439/5/1 440/3/1
f 441/2/1 442/9/1 443/5/1 444/3/1
f 445/1/1 446/2/1 447/3/1 448/4/1
f 449/1/1 450/2/1 451/3/1 452/4/1
f 453/3/1 454/5/1 455/6/1 456/7/1
f 457/2/1 458/9/1 459/5/1 460/3/1
f 461/1/1 462/2/1 463/3/1 464/4/1
f 465/3/1 466/5/1 467/6/1 468/7/1
f 469/4/1 470/3/1 471/7/1 472/8/1
f 473/1/1 474/2/1 475/3/1 476/4/1
f 477/1/1 478/2/1 479/3/1 480/4/1
f 481/4/1 482/3/1 483/7/1 484/8/1
f 485/2/1 486/9/1 487/5/1 488/3/1
f 489/2/1 490/9/1 491/5/1 492/3/1
f 493/1/1 494/2/1 495/3/1 496/4/1
f 497/4/1 498/3/1 499/7/1 500/8/1
f 501/1/1 502/2/1 503/3/1 504/4/1
f 505/1/1 506/2/1 507/3/1 508/4/1
f 509/2/1 510/9/1 511/5/1 512/3/1
f 513/3/1 514/5/1 515/6/1 516/7/1
f 517/3/1 518/5/1 519/6/1 520/7/1
f 521/4/1 522/3/1 523/7/1 524/8/1
f 525/3/1 526/5/1 527/6/1 528/7/1
f 529/1/1 530/2/1 531/3/1 532/4/1
f 533/2/1 534/9/1 535/5/1 536/3/1
f 537/1/1 538/2/1 539/3/1 540/4/1
f 541/1/1 542/2/1 543/3/1 544/4/1
f 545/1/1 546/2/1 547/3/1 548/4/1
f 549/2/1 550/9/1 551/5/1 552/3/1
f 553/2/1 554/9/1 555/5/1 556/3/1
f 557/3/1 558/5/1 559/6/1 560/7/1
f 561/4/1 562/3/1 563/7/1 564/8/1
f 565/1/1 566/2/1 567/3/1 568/4/1
f 569/3/1 570/5/1 571/6/1 572/7/1
f 573/4/1 574/3/1 575/7/1 576/8/1
f 577/2/1 578/9/1 579/5/1 580/3/1
f 581/2/1 582/9/1 583/5/1 584/3/1
f 585/3/1 586/5/1 587/6/1 588/7/1
f 589/3/1 590/5/1 591/6/1 592/7/1
f 593/3/1 594/5/1 595/6/1 596/7/1
f 597/4/1 598/3/1 599/7/1 600/8/1
f 601/4/1 602/3/1 603/7/1 604/8/1
f 605/2/1 606/9/1 607/5/1 608/3/1
f 609/1/1 610/2/1 611/3/1 612/4/1
f 613/3/1 614/5/1 615/6/1 616/7/1
f 617/1/1 618/2/1 619/3/1 620/4/1
f 621/2/1 622/9/1 623/5/1 624/3/1
f 625/3/1 626/5/1 627/6/1 628/7/1
f 629/1/1 630/2/1 631/3/1 632/4/1
f 633/2/1 634/9/1 635/5/1 636/3/1
f 637/3/1 638/5/1 639/6/1 640/7/1
f 641/2/1 642/9/1 643/5/1 644/3/1
f 645/2/1 646/9/1 647/5/1 648/3/1
f 649/2/1 650/9/1 651/5/1 652/3/1
f 653/2/1 654/9/1 655/5/1 656/3/1
f 657/2/1 658/9/1 659/5/1 660/3/1
f 661/3/1 662/5/1 663/6/1 664/7/1
f 665/4/1 666/3/1 667/7/1 668/8/1
f 669/2/1 670/9/1 671/5/1 672/3/1
f 673/1/1 674/2/1 675/3/1 676/4/1
f 677/1/1 678/2/1 679/3/1 680/4/1
f 681/3/1 682/5/1 683/6/1 684/7/1
f 685/2/1 686/9/1 687/5/1 688/3/1
f 689/4/1 690/3/1 691/7/1 692/8/1
f 693/3/1 694/5/1 695/6/1 696/7/1
f 697/1/1 698/2/1 699/3/1 700/4/1
f 701/2/1 702/9/1 703/5/1 704/3/1
f 705/2/1 706/9/1 707/5/1 708/3/1
f 709/2/1 710/9/1 711/5/1 712/3/1
f 713/1/1 714/2/1 715/3/1 716/4/1
f 717/2/1 718/9/1 719/5/1 720/3/1
f 721/2/1 722/9/1 723/5/1 724/3/1
f 725/3/1 726/5/1 727/6/1 728/7/1
f 729/3/1 730/5/1 731/6/1 732/7/1
f 733/4/1 734/3/1 735/7/1 736/8/1
f 737/1/1 738/2/1 739/3/1 740/4/1
f 741/3/1 742/5/1 743/6/1 744/7/1
f 745/1/1 746/2/1 747/3/1 748/4/1
f 749/3/1 750/5/1 751/6/1 752/7/1
f 753/4/1 754/3/1 755/7/1 756/8/1
f 757/1/1 758/2/1 759/3/1 760/4/1
f 761/4/1 762/3/1 763/7/1 764/8/1
f 765/4/1 766/3/1 767/7/1 768/8/1
f 769/2/1 770/9/1 771/5/1 772/3/1
f 773/4/1 774/3/1 775/7/1 776/8/1
f 777/4/1 778/3/1 779/7/1 780/8/1
f 781/2/1 782/9/1 783/5/1 784/3/1
f 785/4/1 786/3/1 787/7/1 788/8/1
f 789/2/1 790/9/1 791/5/1 792/3/1
f 793/3/1 794/5/1 795/6/1 796/7/1
f 797/3/1 798/5/1 799/6/1 800/7/1
f 801/4/1 802/3/1 803/7/1 804/8/1
f 805/3/1 806/5/1 807/6/1 808/7/1
f 809/1/1 810/2/1 811/3/1 812/4/1
f 813/3/1 814/5/1 815/6/1 816/7/1
f 817/1/1 818/2/1 819/3/1 820/4/1
f 821/1/1 822/2/1 823/3/1 824/4/1
f 825/2/1 826/9/1 827/5/1 828/3/1
f 829/2/1 830/9/1 831/5/1 832/3/1
f 833/2/1 834/9/1 835/5/1 836/3/1
f 837/4/1 838/3/1 839/7/1 840/8/1
f 841/2/1 842/9/1 843/5/1 844/3/1
f 845/3/1 846/5/1 847/6/1 848/7/1
f 849/1/1 850/2/1 851/3/1 852/4/1
f 853/2/1 854/9/1 855/5/1 856/3/1
f 857/2/1 858/9/1 859/5/1 860/3/1
f 861/3/1 862/5/1 863/6/1 864/7/1
f 865/4/1 866/3/1 867/7/1 868/8/1
f 869/1/1 870/2/1 871/3/1 872/4/1
f 873/2/1 874/9/1 875/5/1 876/3/1
f 877/1/1 878/2/1 879/3/1 880/4/1
f 881/3/1 882/5/1 883/6/1 884/7/1
f 885/1/1 886/2/1 887/3/1 888/4/1
f 889/3/1 890/5/1 891/6/1 892/7/1
f 893/3/1 894/5/1 895/6/1 896/7/1
f 897/4/1 898/3/1 899/7/1 900/8/1
f 901/3/1 902/5/1 903/6/1 904/7/1
f 905/3/1 906/5/1 907/6/1 908/7/1
f 909/4/1 910/3/1 911/7/1 912/8/1
f 913/4/1 914/3/1 915/7/1 916/8/1
f 917/2/1 918/9/1 919/5/1 920/3/1
f 921/1/1 922/2/1 923/3/1 924/4/1
f 925/3/1 926/5/1 927/6/1 928/7/1
f 929/4/1 930/3/1 931/7/1 932/8/1
f 933/2/1 934/9/1 935/5/1 936/3/1
f 937/4/1 938/3/1 939/7/1 940/8/1
f 941/2/1 942/9/1 943/5/1 944/3/1
f 945/2/1 946/9/1 947/5/1 948/3/1
f 949/2/1 950/9/1 951/5/1 952/3/1
f 953/4/1 954/3/1 955/7/1 956/8/1
f 957/4/1 958/3/1 959/7/1 960/8/1
f 961/4/1 962/3/1 963/7/1 964/8/1
f 965/1/1 966/2/1 967/3/1 968/4/1
f 969/2/1 970/9/1 971/5/1 972/3/1
f 973/3/1 974/5/1 975/6/1 976/7/1
f 977/4/1 978/3/1 979/7/1 980/8/1
f 981/3/1 982/5/1 983/6/1 984/7/1
f 985/2/1 986/9/1 987/5/1 988/3/1
f 989/3/1 990/5/1 991/6/1 992/7/1
f 993/4/1 994/3/1 995/7/1 996/8/1
f 997/2/1 998/9/1 999/5/1 1000/3/1
f 1001/1/1 1002/2/1 1003/3/1 1004/4/1
f 1005/3/1 1006/5/1 1007/6/1 1008/7/1
f 1009/3/1 1010/5/1 1011/6/1 1012/7/1
f 1013/3/1 1014/5/1 1015/6/1 1016/7/1
f 1017/4/1 1018/3/1 1019/7/1 1020/8/1
f 1021/4/1 1022/3/1 1023/7/1 1024/8/1

