# Tiled2Unity generated file. Do not modify by hand.
# Wavefront file for 'Village_mesh_0026.obj'

# Vertices (Count = 1024)
v -240 -16 0
v -256 -16 0
v -256 0 0
v -240 0 0
v -224 -16 0
v -240 -16 0
v -240 0 0
v -224 0 0
v -208 -16 0
v -224 -16 0
v -224 0 0
v -208 0 0
v -192 -16 0
v -208 -16 0
v -208 0 0
v -192 0 0
v -176 -16 0
v -192 -16 0
v -192 0 0
v -176 0 0
v -160 -16 0
v -176 -16 0
v -176 0 0
v -160 0 0
v -144 -16 0
v -160 -16 0
v -160 0 0
v -144 0 0
v -128 -16 0
v -144 -16 0
v -144 0 0
v -128 0 0
v -112 -16 0
v -128 -16 0
v -128 0 0
v -112 0 0
v -96 -16 0
v -112 -16 0
v -112 0 0
v -96 0 0
v -80 -16 0
v -96 -16 0
v -96 0 0
v -80 0 0
v -64 -16 0
v -80 -16 0
v -80 0 0
v -64 0 0
v -48 -16 0
v -64 -16 0
v -64 0 0
v -48 0 0
v -32 -16 0
v -48 -16 0
v -48 0 0
v -32 0 0
v -16 -16 0
v -32 -16 0
v -32 0 0
v -16 0 0
v 0 -16 0
v -16 -16 0
v -16 0 0
v 0 0 0
v -240 -32 0
v -256 -32 0
v -256 -16 0
v -240 -16 0
v -224 -32 0
v -240 -32 0
v -240 -16 0
v -224 -16 0
v -208 -32 0
v -224 -32 0
v -224 -16 0
v -208 -16 0
v -192 -32 0
v -208 -32 0
v -208 -16 0
v -192 -16 0
v -176 -32 0
v -192 -32 0
v -192 -16 0
v -176 -16 0
v -160 -32 0
v -176 -32 0
v -176 -16 0
v -160 -16 0
v -144 -32 0
v -160 -32 0
v -160 -16 0
v -144 -16 0
v -128 -32 0
v -144 -32 0
v -144 -16 0
v -128 -16 0
v -112 -32 0
v -128 -32 0
v -128 -16 0
v -112 -16 0
v -96 -32 0
v -112 -32 0
v -112 -16 0
v -96 -16 0
v -80 -32 0
v -96 -32 0
v -96 -16 0
v -80 -16 0
v -64 -32 0
v -80 -32 0
v -80 -16 0
v -64 -16 0
v -48 -32 0
v -64 -32 0
v -64 -16 0
v -48 -16 0
v -32 -32 0
v -48 -32 0
v -48 -16 0
v -32 -16 0
v -16 -32 0
v -32 -32 0
v -32 -16 0
v -16 -16 0
v 0 -32 0
v -16 -32 0
v -16 -16 0
v 0 -16 0
v -240 -48 0
v -256 -48 0
v -256 -32 0
v -240 -32 0
v -224 -48 0
v -240 -48 0
v -240 -32 0
v -224 -32 0
v -208 -48 0
v -224 -48 0
v -224 -32 0
v -208 -32 0
v -192 -48 0
v -208 -48 0
v -208 -32 0
v -192 -32 0
v -176 -48 0
v -192 -48 0
v -192 -32 0
v -176 -32 0
v -160 -48 0
v -176 -48 0
v -176 -32 0
v -160 -32 0
v -144 -48 0
v -160 -48 0
v -160 -32 0
v -144 -32 0
v -128 -48 0
v -144 -48 0
v -144 -32 0
v -128 -32 0
v -112 -48 0
v -128 -48 0
v -128 -32 0
v -112 -32 0
v -96 -48 0
v -112 -48 0
v -112 -32 0
v -96 -32 0
v -80 -48 0
v -96 -48 0
v -96 -32 0
v -80 -32 0
v -64 -48 0
v -80 -48 0
v -80 -32 0
v -64 -32 0
v -48 -48 0
v -64 -48 0
v -64 -32 0
v -48 -32 0
v -32 -48 0
v -48 -48 0
v -48 -32 0
v -32 -32 0
v -16 -48 0
v -32 -48 0
v -32 -32 0
v -16 -32 0
v 0 -48 0
v -16 -48 0
v -16 -32 0
v 0 -32 0
v -240 -64 0
v -256 -64 0
v -256 -48 0
v -240 -48 0
v -224 -64 0
v -240 -64 0
v -240 -48 0
v -224 -48 0
v -208 -64 0
v -224 -64 0
v -224 -48 0
v -208 -48 0
v -192 -64 0
v -208 -64 0
v -208 -48 0
v -192 -48 0
v -176 -64 0
v -192 -64 0
v -192 -48 0
v -176 -48 0
v -160 -64 0
v -176 -64 0
v -176 -48 0
v -160 -48 0
v -144 -64 0
v -160 -64 0
v -160 -48 0
v -144 -48 0
v -128 -64 0
v -144 -64 0
v -144 -48 0
v -128 -48 0
v -112 -64 0
v -128 -64 0
v -128 -48 0
v -112 -48 0
v -96 -64 0
v -112 -64 0
v -112 -48 0
v -96 -48 0
v -80 -64 0
v -96 -64 0
v -96 -48 0
v -80 -48 0
v -64 -64 0
v -80 -64 0
v -80 -48 0
v -64 -48 0
v -48 -64 0
v -64 -64 0
v -64 -48 0
v -48 -48 0
v -32 -64 0
v -48 -64 0
v -48 -48 0
v -32 -48 0
v -16 -64 0
v -32 -64 0
v -32 -48 0
v -16 -48 0
v 0 -64 0
v -16 -64 0
v -16 -48 0
v 0 -48 0
v -240 -80 0
v -256 -80 0
v -256 -64 0
v -240 -64 0
v -224 -80 0
v -240 -80 0
v -240 -64 0
v -224 -64 0
v -208 -80 0
v -224 -80 0
v -224 -64 0
v -208 -64 0
v -192 -80 0
v -208 -80 0
v -208 -64 0
v -192 -64 0
v -176 -80 0
v -192 -80 0
v -192 -64 0
v -176 -64 0
v -160 -80 0
v -176 -80 0
v -176 -64 0
v -160 -64 0
v -144 -80 0
v -160 -80 0
v -160 -64 0
v -144 -64 0
v -128 -80 0
v -144 -80 0
v -144 -64 0
v -128 -64 0
v -112 -80 0
v -128 -80 0
v -128 -64 0
v -112 -64 0
v -96 -80 0
v -112 -80 0
v -112 -64 0
v -96 -64 0
v -80 -80 0
v -96 -80 0
v -96 -64 0
v -80 -64 0
v -64 -80 0
v -80 -80 0
v -80 -64 0
v -64 -64 0
v -48 -80 0
v -64 -80 0
v -64 -64 0
v -48 -64 0
v -32 -80 0
v -48 -80 0
v -48 -64 0
v -32 -64 0
v -16 -80 0
v -32 -80 0
v -32 -64 0
v -16 -64 0
v 0 -80 0
v -16 -80 0
v -16 -64 0
v 0 -64 0
v -240 -96 0
v -256 -96 0
v -256 -80 0
v -240 -80 0
v -224 -96 0
v -240 -96 0
v -240 -80 0
v -224 -80 0
v -208 -96 0
v -224 -96 0
v -224 -80 0
v -208 -80 0
v -192 -96 0
v -208 -96 0
v -208 -80 0
v -192 -80 0
v -176 -96 0
v -192 -96 0
v -192 -80 0
v -176 -80 0
v -160 -96 0
v -176 -96 0
v -176 -80 0
v -160 -80 0
v -144 -96 0
v -160 -96 0
v -160 -80 0
v -144 -80 0
v -128 -96 0
v -144 -96 0
v -144 -80 0
v -128 -80 0
v -112 -96 0
v -128 -96 0
v -128 -80 0
v -112 -80 0
v -96 -96 0
v -112 -96 0
v -112 -80 0
v -96 -80 0
v -80 -96 0
v -96 -96 0
v -96 -80 0
v -80 -80 0
v -64 -96 0
v -80 -96 0
v -80 -80 0
v -64 -80 0
v -48 -96 0
v -64 -96 0
v -64 -80 0
v -48 -80 0
v -32 -96 0
v -48 -96 0
v -48 -80 0
v -32 -80 0
v -16 -96 0
v -32 -96 0
v -32 -80 0
v -16 -80 0
v 0 -96 0
v -16 -96 0
v -16 -80 0
v 0 -80 0
v -240 -112 0
v -256 -112 0
v -256 -96 0
v -240 -96 0
v -224 -112 0
v -240 -112 0
v -240 -96 0
v -224 -96 0
v -208 -112 0
v -224 -112 0
v -224 -96 0
v -208 -96 0
v -192 -112 0
v -208 -112 0
v -208 -96 0
v -192 -96 0
v -176 -112 0
v -192 -112 0
v -192 -96 0
v -176 -96 0
v -160 -112 0
v -176 -112 0
v -176 -96 0
v -160 -96 0
v -144 -112 0
v -160 -112 0
v -160 -96 0
v -144 -96 0
v -128 -112 0
v -144 -112 0
v -144 -96 0
v -128 -96 0
v -112 -112 0
v -128 -112 0
v -128 -96 0
v -112 -96 0
v -96 -112 0
v -112 -112 0
v -112 -96 0
v -96 -96 0
v -80 -112 0
v -96 -112 0
v -96 -96 0
v -80 -96 0
v -64 -112 0
v -80 -112 0
v -80 -96 0
v -64 -96 0
v -48 -112 0
v -64 -112 0
v -64 -96 0
v -48 -96 0
v -32 -112 0
v -48 -112 0
v -48 -96 0
v -32 -96 0
v -16 -112 0
v -32 -112 0
v -32 -96 0
v -16 -96 0
v 0 -112 0
v -16 -112 0
v -16 -96 0
v 0 -96 0
v -240 -128 0
v -256 -128 0
v -256 -112 0
v -240 -112 0
v -224 -128 0
v -240 -128 0
v -240 -112 0
v -224 -112 0
v -208 -128 0
v -224 -128 0
v -224 -112 0
v -208 -112 0
v -192 -128 0
v -208 -128 0
v -208 -112 0
v -192 -112 0
v -176 -128 0
v -192 -128 0
v -192 -112 0
v -176 -112 0
v -160 -128 0
v -176 -128 0
v -176 -112 0
v -160 -112 0
v -144 -128 0
v -160 -128 0
v -160 -112 0
v -144 -112 0
v -128 -128 0
v -144 -128 0
v -144 -112 0
v -128 -112 0
v -112 -128 0
v -128 -128 0
v -128 -112 0
v -112 -112 0
v -96 -128 0
v -112 -128 0
v -112 -112 0
v -96 -112 0
v -80 -128 0
v -96 -128 0
v -96 -112 0
v -80 -112 0
v -64 -128 0
v -80 -128 0
v -80 -112 0
v -64 -112 0
v -48 -128 0
v -64 -128 0
v -64 -112 0
v -48 -112 0
v -32 -128 0
v -48 -128 0
v -48 -112 0
v -32 -112 0
v -16 -128 0
v -32 -128 0
v -32 -112 0
v -16 -112 0
v 0 -128 0
v -16 -128 0
v -16 -112 0
v 0 -112 0
v -240 -144 0
v -256 -144 0
v -256 -128 0
v -240 -128 0
v -224 -144 0
v -240 -144 0
v -240 -128 0
v -224 -128 0
v -208 -144 0
v -224 -144 0
v -224 -128 0
v -208 -128 0
v -192 -144 0
v -208 -144 0
v -208 -128 0
v -192 -128 0
v -176 -144 0
v -192 -144 0
v -192 -128 0
v -176 -128 0
v -160 -144 0
v -176 -144 0
v -176 -128 0
v -160 -128 0
v -144 -144 0
v -160 -144 0
v -160 -128 0
v -144 -128 0
v -128 -144 0
v -144 -144 0
v -144 -128 0
v -128 -128 0
v -112 -144 0
v -128 -144 0
v -128 -128 0
v -112 -128 0
v -96 -144 0
v -112 -144 0
v -112 -128 0
v -96 -128 0
v -80 -144 0
v -96 -144 0
v -96 -128 0
v -80 -128 0
v -64 -144 0
v -80 -144 0
v -80 -128 0
v -64 -128 0
v -48 -144 0
v -64 -144 0
v -64 -128 0
v -48 -128 0
v -32 -144 0
v -48 -144 0
v -48 -128 0
v -32 -128 0
v -16 -144 0
v -32 -144 0
v -32 -128 0
v -16 -128 0
v 0 -144 0
v -16 -144 0
v -16 -128 0
v 0 -128 0
v -240 -160 0
v -256 -160 0
v -256 -144 0
v -240 -144 0
v -224 -160 0
v -240 -160 0
v -240 -144 0
v -224 -144 0
v -208 -160 0
v -224 -160 0
v -224 -144 0
v -208 -144 0
v -192 -160 0
v -208 -160 0
v -208 -144 0
v -192 -144 0
v -176 -160 0
v -192 -160 0
v -192 -144 0
v -176 -144 0
v -160 -160 0
v -176 -160 0
v -176 -144 0
v -160 -144 0
v -144 -160 0
v -160 -160 0
v -160 -144 0
v -144 -144 0
v -128 -160 0
v -144 -160 0
v -144 -144 0
v -128 -144 0
v -112 -160 0
v -128 -160 0
v -128 -144 0
v -112 -144 0
v -96 -160 0
v -112 -160 0
v -112 -144 0
v -96 -144 0
v -80 -160 0
v -96 -160 0
v -96 -144 0
v -80 -144 0
v -64 -160 0
v -80 -160 0
v -80 -144 0
v -64 -144 0
v -48 -160 0
v -64 -160 0
v -64 -144 0
v -48 -144 0
v -32 -160 0
v -48 -160 0
v -48 -144 0
v -32 -144 0
v -16 -160 0
v -32 -160 0
v -32 -144 0
v -16 -144 0
v 0 -160 0
v -16 -160 0
v -16 -144 0
v 0 -144 0
v -240 -176 0
v -256 -176 0
v -256 -160 0
v -240 -160 0
v -224 -176 0
v -240 -176 0
v -240 -160 0
v -224 -160 0
v -208 -176 0
v -224 -176 0
v -224 -160 0
v -208 -160 0
v -192 -176 0
v -208 -176 0
v -208 -160 0
v -192 -160 0
v -176 -176 0
v -192 -176 0
v -192 -160 0
v -176 -160 0
v -160 -176 0
v -176 -176 0
v -176 -160 0
v -160 -160 0
v -144 -176 0
v -160 -176 0
v -160 -160 0
v -144 -160 0
v -128 -176 0
v -144 -176 0
v -144 -160 0
v -128 -160 0
v -112 -176 0
v -128 -176 0
v -128 -160 0
v -112 -160 0
v -96 -176 0
v -112 -176 0
v -112 -160 0
v -96 -160 0
v -80 -176 0
v -96 -176 0
v -96 -160 0
v -80 -160 0
v -64 -176 0
v -80 -176 0
v -80 -160 0
v -64 -160 0
v -48 -176 0
v -64 -176 0
v -64 -160 0
v -48 -160 0
v -32 -176 0
v -48 -176 0
v -48 -160 0
v -32 -160 0
v -16 -176 0
v -32 -176 0
v -32 -160 0
v -16 -160 0
v 0 -176 0
v -16 -176 0
v -16 -160 0
v 0 -160 0
v -240 -192 0
v -256 -192 0
v -256 -176 0
v -240 -176 0
v -224 -192 0
v -240 -192 0
v -240 -176 0
v -224 -176 0
v -208 -192 0
v -224 -192 0
v -224 -176 0
v -208 -176 0
v -192 -192 0
v -208 -192 0
v -208 -176 0
v -192 -176 0
v -176 -192 0
v -192 -192 0
v -192 -176 0
v -176 -176 0
v -160 -192 0
v -176 -192 0
v -176 -176 0
v -160 -176 0
v -144 -192 0
v -160 -192 0
v -160 -176 0
v -144 -176 0
v -128 -192 0
v -144 -192 0
v -144 -176 0
v -128 -176 0
v -112 -192 0
v -128 -192 0
v -128 -176 0
v -112 -176 0
v -96 -192 0
v -112 -192 0
v -112 -176 0
v -96 -176 0
v -80 -192 0
v -96 -192 0
v -96 -176 0
v -80 -176 0
v -64 -192 0
v -80 -192 0
v -80 -176 0
v -64 -176 0
v -48 -192 0
v -64 -192 0
v -64 -176 0
v -48 -176 0
v -32 -192 0
v -48 -192 0
v -48 -176 0
v -32 -176 0
v -16 -192 0
v -32 -192 0
v -32 -176 0
v -16 -176 0
v 0 -192 0
v -16 -192 0
v -16 -176 0
v 0 -176 0
v -240 -208 0
v -256 -208 0
v -256 -192 0
v -240 -192 0
v -224 -208 0
v -240 -208 0
v -240 -192 0
v -224 -192 0
v -208 -208 0
v -224 -208 0
v -224 -192 0
v -208 -192 0
v -192 -208 0
v -208 -208 0
v -208 -192 0
v -192 -192 0
v -176 -208 0
v -192 -208 0
v -192 -192 0
v -176 -192 0
v -160 -208 0
v -176 -208 0
v -176 -192 0
v -160 -192 0
v -144 -208 0
v -160 -208 0
v -160 -192 0
v -144 -192 0
v -128 -208 0
v -144 -208 0
v -144 -192 0
v -128 -192 0
v -112 -208 0
v -128 -208 0
v -128 -192 0
v -112 -192 0
v -96 -208 0
v -112 -208 0
v -112 -192 0
v -96 -192 0
v -80 -208 0
v -96 -208 0
v -96 -192 0
v -80 -192 0
v -64 -208 0
v -80 -208 0
v -80 -192 0
v -64 -192 0
v -48 -208 0
v -64 -208 0
v -64 -192 0
v -48 -192 0
v -32 -208 0
v -48 -208 0
v -48 -192 0
v -32 -192 0
v -16 -208 0
v -32 -208 0
v -32 -192 0
v -16 -192 0
v 0 -208 0
v -16 -208 0
v -16 -192 0
v 0 -192 0
v -240 -224 0
v -256 -224 0
v -256 -208 0
v -240 -208 0
v -224 -224 0
v -240 -224 0
v -240 -208 0
v -224 -208 0
v -208 -224 0
v -224 -224 0
v -224 -208 0
v -208 -208 0
v -192 -224 0
v -208 -224 0
v -208 -208 0
v -192 -208 0
v -176 -224 0
v -192 -224 0
v -192 -208 0
v -176 -208 0
v -160 -224 0
v -176 -224 0
v -176 -208 0
v -160 -208 0
v -144 -224 0
v -160 -224 0
v -160 -208 0
v -144 -208 0
v -128 -224 0
v -144 -224 0
v -144 -208 0
v -128 -208 0
v -112 -224 0
v -128 -224 0
v -128 -208 0
v -112 -208 0
v -96 -224 0
v -112 -224 0
v -112 -208 0
v -96 -208 0
v -80 -224 0
v -96 -224 0
v -96 -208 0
v -80 -208 0
v -64 -224 0
v -80 -224 0
v -80 -208 0
v -64 -208 0
v -48 -224 0
v -64 -224 0
v -64 -208 0
v -48 -208 0
v -32 -224 0
v -48 -224 0
v -48 -208 0
v -32 -208 0
v -16 -224 0
v -32 -224 0
v -32 -208 0
v -16 -208 0
v 0 -224 0
v -16 -224 0
v -16 -208 0
v 0 -208 0
v -240 -240 0
v -256 -240 0
v -256 -224 0
v -240 -224 0
v -224 -240 0
v -240 -240 0
v -240 -224 0
v -224 -224 0
v -208 -240 0
v -224 -240 0
v -224 -224 0
v -208 -224 0
v -192 -240 0
v -208 -240 0
v -208 -224 0
v -192 -224 0
v -176 -240 0
v -192 -240 0
v -192 -224 0
v -176 -224 0
v -160 -240 0
v -176 -240 0
v -176 -224 0
v -160 -224 0
v -144 -240 0
v -160 -240 0
v -160 -224 0
v -144 -224 0
v -128 -240 0
v -144 -240 0
v -144 -224 0
v -128 -224 0
v -112 -240 0
v -128 -240 0
v -128 -224 0
v -112 -224 0
v -96 -240 0
v -112 -240 0
v -112 -224 0
v -96 -224 0
v -80 -240 0
v -96 -240 0
v -96 -224 0
v -80 -224 0
v -64 -240 0
v -80 -240 0
v -80 -224 0
v -64 -224 0
v -48 -240 0
v -64 -240 0
v -64 -224 0
v -48 -224 0
v -32 -240 0
v -48 -240 0
v -48 -224 0
v -32 -224 0
v -16 -240 0
v -32 -240 0
v -32 -224 0
v -16 -224 0
v 0 -240 0
v -16 -240 0
v -16 -224 0
v 0 -224 0
v -240 -256 0
v -256 -256 0
v -256 -240 0
v -240 -240 0
v -224 -256 0
v -240 -256 0
v -240 -240 0
v -224 -240 0
v -208 -256 0
v -224 -256 0
v -224 -240 0
v -208 -240 0
v -192 -256 0
v -208 -256 0
v -208 -240 0
v -192 -240 0
v -176 -256 0
v -192 -256 0
v -192 -240 0
v -176 -240 0
v -160 -256 0
v -176 -256 0
v -176 -240 0
v -160 -240 0
v -144 -256 0
v -160 -256 0
v -160 -240 0
v -144 -240 0
v -128 -256 0
v -144 -256 0
v -144 -240 0
v -128 -240 0
v -112 -256 0
v -128 -256 0
v -128 -240 0
v -112 -240 0
v -96 -256 0
v -112 -256 0
v -112 -240 0
v -96 -240 0
v -80 -256 0
v -96 -256 0
v -96 -240 0
v -80 -240 0
v -64 -256 0
v -80 -256 0
v -80 -240 0
v -64 -240 0
v -48 -256 0
v -64 -256 0
v -64 -240 0
v -48 -240 0
v -32 -256 0
v -48 -256 0
v -48 -240 0
v -32 -240 0
v -16 -256 0
v -32 -256 0
v -32 -240 0
v -16 -240 0
v 0 -256 0
v -16 -256 0
v -16 -240 0
v 0 -240 0

# Texture cooridinates (Count = 9)
vt 0.2 0.6944444
vt 0.225 0.6944444
vt 0.225 0.7222222
vt 0.2 0.7222222
vt 0.175 0.7222222
vt 0.2 0.75
vt 0.175 0.75
vt 0.175 0.6944444
vt 0.225 0.75

# Normal
vn 0 0 -1

# Mesh description
g Village_mesh_0026

# Faces
f 1/1/1 2/2/1 3/3/1 4/4/1
f 5/5/1 6/4/1 7/6/1 8/7/1
f 9/8/1 10/1/1 11/4/1 12/5/1
f 13/5/1 14/4/1 15/6/1 16/7/1
f 17/1/1 18/2/1 19/3/1 20/4/1
f 21/1/1 22/2/1 23/3/1 24/4/1
f 25/8/1 26/1/1 27/4/1 28/5/1
f 29/5/1 30/4/1 31/6/1 32/7/1
f 33/4/1 34/3/1 35/9/1 36/6/1
f 37/1/1 38/2/1 39/3/1 40/4/1
f 41/1/1 42/2/1 43/3/1 44/4/1
f 45/5/1 46/4/1 47/6/1 48/7/1
f 49/1/1 50/2/1 51/3/1 52/4/1
f 53/5/1 54/4/1 55/6/1 56/7/1
f 57/4/1 58/3/1 59/9/1 60/6/1
f 61/4/1 62/3/1 63/9/1 64/6/1
f 65/8/1 66/1/1 67/4/1 68/5/1
f 69/5/1 70/4/1 71/6/1 72/7/1
f 73/5/1 74/4/1 75/6/1 76/7/1
f 77/1/1 78/2/1 79/3/1 80/4/1
f 81/4/1 82/3/1 83/9/1 84/6/1
f 85/1/1 86/2/1 87/3/1 88/4/1
f 89/1/1 90/2/1 91/3/1 92/4/1
f 93/1/1 94/2/1 95/3/1 96/4/1
f 97/8/1 98/1/1 99/4/1 100/5/1
f 101/8/1 102/1/1 103/4/1 104/5/1
f 105/1/1 106/2/1 107/3/1 108/4/1
f 109/8/1 110/1/1 111/4/1 112/5/1
f 113/1/1 114/2/1 115/3/1 116/4/1
f 117/4/1 118/3/1 119/9/1 120/6/1
f 121/5/1 122/4/1 123/6/1 124/7/1
f 125/5/1 126/4/1 127/6/1 128/7/1
f 129/8/1 130/1/1 131/4/1 132/5/1
f 133/4/1 134/3/1 135/9/1 136/6/1
f 137/4/1 138/3/1 139/9/1 140/6/1
f 141/8/1 142/1/1 143/4/1 144/5/1
f 145/4/1 146/3/1 147/9/1 148/6/1
f 149/8/1 150/1/1 151/4/1 152/5/1
f 153/8/1 154/1/1 155/4/1 156/5/1
f 157/8/1 158/1/1 159/4/1 160/5/1
f 161/1/1 162/2/1 163/3/1 164/4/1
f 165/5/1 166/4/1 167/6/1 168/7/1
f 169/8/1 170/1/1 171/4/1 172/5/1
f 173/8/1 174/1/1 175/4/1 176/5/1
f 177/5/1 178/4/1 179/6/1 180/7/1
f 181/8/1 182/1/1 183/4/1 184/5/1
f 185/4/1 186/3/1 187/9/1 188/6/1
f 189/8/1 190/1/1 191/4/1 192/5/1
f 193/8/1 194/1/1 195/4/1 196/5/1
f 197/1/1 198/2/1 199/3/1 200/4/1
f 201/5/1 202/4/1 203/6/1 204/7/1
f 205/1/1 206/2/1 207/3/1 208/4/1
f 209/4/1 210/3/1 211/9/1 212/6/1
f 213/1/1 214/2/1 215/3/1 216/4/1
f 217/1/1 218/2/1 219/3/1 220/4/1
f 221/5/1 222/4/1 223/6/1 224/7/1
f 225/8/1 226/1/1 227/4/1 228/5/1
f 229/8/1 230/1/1 231/4/1 232/5/1
f 233/8/1 234/1/1 235/4/1 236/5/1
f 237/8/1 238/1/1 239/4/1 240/5/1
f 241/1/1 242/2/1 243/3/1 244/4/1
f 245/4/1 246/3/1 247/9/1 248/6/1
f 249/5/1 250/4/1 251/6/1 252/7/1
f 253/1/1 254/2/1 255/3/1 256/4/1
f 257/1/1 258/2/1 259/3/1 260/4/1
f 261/4/1 262/3/1 263/9/1 264/6/1
f 265/8/1 266/1/1 267/4/1 268/5/1
f 269/8/1 270/1/1 271/4/1 272/5/1
f 273/1/1 274/2/1 275/3/1 276/4/1
f 277/5/1 278/4/1 279/6/1 280/7/1
f 281/4/1 282/3/1 283/9/1 284/6/1
f 285/1/1 286/2/1 287/3/1 288/4/1
f 289/5/1 290/4/1 291/6/1 292/7/1
f 293/1/1 294/2/1 295/3/1 296/4/1
f 297/8/1 298/1/1 299/4/1 300/5/1
f 301/4/1 302/3/1 303/9/1 304/6/1
f 305/4/1 306/3/1 307/9/1 308/6/1
f 309/4/1 310/3/1 311/9/1 312/6/1
f 313/1/1 314/2/1 315/3/1 316/4/1
f 317/4/1 318/3/1 319/9/1 320/6/1
f 321/8/1 322/1/1 323/4/1 324/5/1
f 325/4/1 326/3/1 327/9/1 328/6/1
f 329/1/1 330/2/1 331/3/1 332/4/1
f 333/5/1 334/4/1 335/6/1 336/7/1
f 337/1/1 338/2/1 339/3/1 340/4/1
f 341/8/1 342/1/1 343/4/1 344/5/1
f 345/8/1 346/1/1 347/4/1 348/5/1
f 349/4/1 350/3/1 351/9/1 352/6/1
f 353/1/1 354/2/1 355/3/1 356/4/1
f 357/8/1 358/1/1 359/4/1 360/5/1
f 361/5/1 362/4/1 363/6/1 364/7/1
f 365/8/1 366/1/1 367/4/1 368/5/1
f 369/4/1 370/3/1 371/9/1 372/6/1
f 373/4/1 374/3/1 375/9/1 376/6/1
f 377/4/1 378/3/1 379/9/1 380/6/1
f 381/8/1 382/1/1 383/4/1 384/5/1
f 385/1/1 386/2/1 387/3/1 388/4/1
f 389/5/1 390/4/1 391/6/1 392/7/1
f 393/5/1 394/4/1 395/6/1 396/7/1
f 397/8/1 398/1/1 399/4/1 400/5/1
f 401/8/1 402/1/1 403/4/1 404/5/1
f 405/5/1 406/4/1 407/6/1 408/7/1
f 409/4/1 410/3/1 411/9/1 412/6/1
f 413/1/1 414/2/1 415/3/1 416/4/1
f 417/8/1 418/1/1 419/4/1 420/5/1
f 421/5/1 422/4/1 423/6/1 424/7/1
f 425/1/1 426/2/1 427/3/1 428/4/1
f 429/5/1 430/4/1 431/6/1 432/7/1
f 433/1/1 434/2/1 435/3/1 436/4/1
f 437/8/1 438/1/1 439/4/1 440/5/1
f 441/4/1 442/3/1 443/9/1 444/6/1
f 445/5/1 446/4/1 447/6/1 448/7/1
f 449/8/1 450/1/1 451/4/1 452/5/1
f 453/1/1 454/2/1 455/3/1 456/4/1
f 457/5/1 458/4/1 459/6/1 460/7/1
f 461/1/1 462/2/1 463/3/1 464/4/1
f 465/5/1 466/4/1 467/6/1 468/7/1
f 469/8/1 470/1/1 471/4/1 472/5/1
f 473/5/1 474/4/1 475/6/1 476/7/1
f 477/4/1 478/3/1 479/9/1 480/6/1
f 481/8/1 482/1/1 483/4/1 484/5/1
f 485/4/1 486/3/1 487/9/1 488/6/1
f 489/8/1 490/1/1 491/4/1 492/5/1
f 493/4/1 494/3/1 495/9/1 496/6/1
f 497/1/1 498/2/1 499/3/1 500/4/1
f 501/1/1 502/2/1 503/3/1 504/4/1
f 505/1/1 506/2/1 507/3/1 508/4/1
f 509/5/1 510/4/1 511/6/1 512/7/1
f 513/5/1 514/4/1 515/6/1 516/7/1
f 517/5/1 518/4/1 519/6/1 520/7/1
f 521/8/1 522/1/1 523/4/1 524/5/1
f 525/4/1 526/3/1 527/9/1 528/6/1
f 529/8/1 530/1/1 531/4/1 532/5/1
f 533/4/1 534/3/1 535/9/1 536/6/1
f 537/8/1 538/1/1 539/4/1 540/5/1
f 541/4/1 542/3/1 543/9/1 544/6/1
f 545/8/1 546/1/1 547/4/1 548/5/1
f 549/5/1 550/4/1 551/6/1 552/7/1
f 553/1/1 554/2/1 555/3/1 556/4/1
f 557/5/1 558/4/1 559/6/1 560/7/1
f 561/4/1 562/3/1 563/9/1 564/6/1
f 565/4/1 566/3/1 567/9/1 568/6/1
f 569/1/1 570/2/1 571/3/1 572/4/1
f 573/4/1 574/3/1 575/9/1 576/6/1
f 577/5/1 578/4/1 579/6/1 580/7/1
f 581/8/1 582/1/1 583/4/1 584/5/1
f 585/5/1 586/4/1 587/6/1 588/7/1
f 589/8/1 590/1/1 591/4/1 592/5/1
f 593/1/1 594/2/1 595/3/1 596/4/1
f 597/8/1 598/1/1 599/4/1 600/5/1
f 601/5/1 602/4/1 603/6/1 604/7/1
f 605/1/1 606/2/1 607/3/1 608/4/1
f 609/5/1 610/4/1 611/6/1 612/7/1
f 613/4/1 614/3/1 615/9/1 616/6/1
f 617/1/1 618/2/1 619/3/1 620/4/1
f 621/4/1 622/3/1 623/9/1 624/6/1
f 625/8/1 626/1/1 627/4/1 628/5/1
f 629/4/1 630/3/1 631/9/1 632/6/1
f 633/4/1 634/3/1 635/9/1 636/6/1
f 637/1/1 638/2/1 639/3/1 640/4/1
f 641/1/1 642/2/1 643/3/1 644/4/1
f 645/4/1 646/3/1 647/9/1 648/6/1
f 649/5/1 650/4/1 651/6/1 652/7/1
f 653/5/1 654/4/1 655/6/1 656/7/1
f 657/5/1 658/4/1 659/6/1 660/7/1
f 661/1/1 662/2/1 663/3/1 664/4/1
f 665/1/1 666/2/1 667/3/1 668/4/1
f 669/4/1 670/3/1 671/9/1 672/6/1
f 673/1/1 674/2/1 675/3/1 676/4/1
f 677/4/1 678/3/1 679/9/1 680/6/1
f 681/8/1 682/1/1 683/4/1 684/5/1
f 685/8/1 686/1/1 687/4/1 688/5/1
f 689/1/1 690/2/1 691/3/1 692/4/1
f 693/8/1 694/1/1 695/4/1 696/5/1
f 697/4/1 698/3/1 699/9/1 700/6/1
f 701/1/1 702/2/1 703/3/1 704/4/1
f 705/5/1 706/4/1 707/6/1 708/7/1
f 709/5/1 710/4/1 711/6/1 712/7/1
f 713/4/1 714/3/1 715/9/1 716/6/1
f 717/4/1 718/3/1 719/9/1 720/6/1
f 721/4/1 722/3/1 723/9/1 724/6/1
f 725/8/1 726/1/1 727/4/1 728/5/1
f 729/1/1 730/2/1 731/3/1 732/4/1
f 733/4/1 734/3/1 735/9/1 736/6/1
f 737/4/1 738/3/1 739/9/1 740/6/1
f 741/1/1 742/2/1 743/3/1 744/4/1
f 745/5/1 746/4/1 747/6/1 748/7/1
f 749/5/1 750/4/1 751/6/1 752/7/1
f 753/5/1 754/4/1 755/6/1 756/7/1
f 757/1/1 758/2/1 759/3/1 760/4/1
f 761/4/1 762/3/1 763/9/1 764/6/1
f 765/1/1 766/2/1 767/3/1 768/4/1
f 769/5/1 770/4/1 771/6/1 772/7/1
f 773/5/1 774/4/1 775/6/1 776/7/1
f 777/4/1 778/3/1 779/9/1 780/6/1
f 781/8/1 782/1/1 783/4/1 784/5/1
f 785/4/1 786/3/1 787/9/1 788/6/1
f 789/5/1 790/4/1 791/6/1 792/7/1
f 793/5/1 794/4/1 795/6/1 796/7/1
f 797/5/1 798/4/1 799/6/1 800/7/1
f 801/5/1 802/4/1 803/6/1 804/7/1
f 805/4/1 806/3/1 807/9/1 808/6/1
f 809/1/1 810/2/1 811/3/1 812/4/1
f 813/5/1 814/4/1 815/6/1 816/7/1
f 817/4/1 818/3/1 819/9/1 820/6/1
f 821/4/1 822/3/1 823/9/1 824/6/1
f 825/1/1 826/2/1 827/3/1 828/4/1
f 829/8/1 830/1/1 831/4/1 832/5/1
f 833/8/1 834/1/1 835/4/1 836/5/1
f 837/1/1 838/2/1 839/3/1 840/4/1
f 841/5/1 842/4/1 843/6/1 844/7/1
f 845/4/1 846/3/1 847/9/1 848/6/1
f 849/8/1 850/1/1 851/4/1 852/5/1
f 853/8/1 854/1/1 855/4/1 856/5/1
f 857/8/1 858/1/1 859/4/1 860/5/1
f 861/5/1 862/4/1 863/6/1 864/7/1
f 865/8/1 866/1/1 867/4/1 868/5/1
f 869/5/1 870/4/1 871/6/1 872/7/1
f 873/1/1 874/2/1 875/3/1 876/4/1
f 877/8/1 878/1/1 879/4/1 880/5/1
f 881/1/1 882/2/1 883/3/1 884/4/1
f 885/1/1 886/2/1 887/3/1 888/4/1
f 889/8/1 890/1/1 891/4/1 892/5/1
f 893/5/1 894/4/1 895/6/1 896/7/1
f 897/1/1 898/2/1 899/3/1 900/4/1
f 901/8/1 902/1/1 903/4/1 904/5/1
f 905/1/1 906/2/1 907/3/1 908/4/1
f 909/8/1 910/1/1 911/4/1 912/5/1
f 913/1/1 914/2/1 915/3/1 916/4/1
f 917/8/1 918/1/1 919/4/1 920/5/1
f 921/8/1 922/1/1 923/4/1 924/5/1
f 925/5/1 926/4/1 927/6/1 928/7/1
f 929/1/1 930/2/1 931/3/1 932/4/1
f 933/4/1 934/3/1 935/9/1 936/6/1
f 937/5/1 938/4/1 939/6/1 940/7/1
f 941/1/1 942/2/1 943/3/1 944/4/1
f 945/1/1 946/2/1 947/3/1 948/4/1
f 949/1/1 950/2/1 951/3/1 952/4/1
f 953/8/1 954/1/1 955/4/1 956/5/1
f 957/8/1 958/1/1 959/4/1 960/5/1
f 961/5/1 962/4/1 963/6/1 964/7/1
f 965/1/1 966/2/1 967/3/1 968/4/1
f 969/8/1 970/1/1 971/4/1 972/5/1
f 973/4/1 974/3/1 975/9/1 976/6/1
f 977/1/1 978/2/1 979/3/1 980/4/1
f 981/8/1 982/1/1 983/4/1 984/5/1
f 985/4/1 986/3/1 987/9/1 988/6/1
f 989/4/1 990/3/1 991/9/1 992/6/1
f 993/4/1 994/3/1 995/9/1 996/6/1
f 997/8/1 998/1/1 999/4/1 1000/5/1
f 1001/1/1 1002/2/1 1003/3/1 1004/4/1
f 1005/8/1 1006/1/1 1007/4/1 1008/5/1
f 1009/4/1 1010/3/1 1011/9/1 1012/6/1
f 1013/1/1 1014/2/1 1015/3/1 1016/4/1
f 1017/8/1 1018/1/1 1019/4/1 1020/5/1
f 1021/4/1 1022/3/1 1023/9/1 1024/6/1

