# Tiled2Unity generated file. Do not modify by hand.
# Wavefront file for 'Village_mesh_0132.obj'

# Vertices (Count = 48)
v -224 -224 0
v -240 -224 0
v -240 -208 0
v -224 -208 0
v -208 -224 0
v -224 -224 0
v -224 -208 0
v -208 -208 0
v -144 -224 0
v -160 -224 0
v -160 -208 0
v -144 -208 0
v -128 -224 0
v -144 -224 0
v -144 -208 0
v -128 -208 0
v -224 -240 0
v -240 -240 0
v -240 -224 0
v -224 -224 0
v -208 -240 0
v -224 -240 0
v -224 -224 0
v -208 -224 0
v -144 -240 0
v -160 -240 0
v -160 -224 0
v -144 -224 0
v -128 -240 0
v -144 -240 0
v -144 -224 0
v -128 -224 0
v -224 -256 0
v -240 -256 0
v -240 -240 0
v -224 -240 0
v -208 -256 0
v -224 -256 0
v -224 -240 0
v -208 -240 0
v -144 -256 0
v -160 -256 0
v -160 -240 0
v -144 -240 0
v -128 -256 0
v -144 -256 0
v -144 -240 0
v -128 -240 0

# Texture cooridinates (Count = 12)
vt 0.171875 0.2936508
vt 0.1875 0.2936508
vt 0.1875 0.3015873
vt 0.171875 0.3015873
vt 0.15625 0.2936508
vt 0.15625 0.3015873
vt 0.171875 0.2857143
vt 0.1875 0.2857143
vt 0.15625 0.2857143
vt 0.171875 0.2777778
vt 0.1875 0.2777778
vt 0.15625 0.2777778

# Normal
vn 0 0 -1

# Mesh description
g Village_mesh_0132

# Faces
f 1/1/1 2/2/1 3/3/1 4/4/1
f 5/5/1 6/1/1 7/4/1 8/6/1
f 9/1/1 10/2/1 11/3/1 12/4/1
f 13/5/1 14/1/1 15/4/1 16/6/1
f 17/7/1 18/8/1 19/2/1 20/1/1
f 21/9/1 22/7/1 23/1/1 24/5/1
f 25/7/1 26/8/1 27/2/1 28/1/1
f 29/9/1 30/7/1 31/1/1 32/5/1
f 33/10/1 34/11/1 35/8/1 36/7/1
f 37/12/1 38/10/1 39/7/1 40/9/1
f 41/10/1 42/11/1 43/8/1 44/7/1
f 45/12/1 46/10/1 47/7/1 48/9/1

