# Tiled2Unity generated file. Do not modify by hand.
# Wavefront file for 'Village_mesh_0086.obj'

# Vertices (Count = 448)
v -160 -112 0
v -176 -112 0
v -176 -96 0
v -160 -96 0
v -144 -112 0
v -160 -112 0
v -160 -96 0
v -144 -96 0
v -128 -112 0
v -144 -112 0
v -144 -96 0
v -128 -96 0
v -112 -112 0
v -128 -112 0
v -128 -96 0
v -112 -96 0
v -96 -112 0
v -112 -112 0
v -112 -96 0
v -96 -96 0
v -80 -112 0
v -96 -112 0
v -96 -96 0
v -80 -96 0
v -64 -112 0
v -80 -112 0
v -80 -96 0
v -64 -96 0
v -48 -112 0
v -64 -112 0
v -64 -96 0
v -48 -96 0
v -32 -112 0
v -48 -112 0
v -48 -96 0
v -32 -96 0
v -16 -112 0
v -32 -112 0
v -32 -96 0
v -16 -96 0
v 0 -112 0
v -16 -112 0
v -16 -96 0
v 0 -96 0
v -160 -128 0
v -176 -128 0
v -176 -112 0
v -160 -112 0
v -144 -128 0
v -160 -128 0
v -160 -112 0
v -144 -112 0
v -128 -128 0
v -144 -128 0
v -144 -112 0
v -128 -112 0
v -112 -128 0
v -128 -128 0
v -128 -112 0
v -112 -112 0
v -96 -128 0
v -112 -128 0
v -112 -112 0
v -96 -112 0
v -80 -128 0
v -96 -128 0
v -96 -112 0
v -80 -112 0
v -64 -128 0
v -80 -128 0
v -80 -112 0
v -64 -112 0
v -48 -128 0
v -64 -128 0
v -64 -112 0
v -48 -112 0
v -32 -128 0
v -48 -128 0
v -48 -112 0
v -32 -112 0
v -16 -128 0
v -32 -128 0
v -32 -112 0
v -16 -112 0
v 0 -128 0
v -16 -128 0
v -16 -112 0
v 0 -112 0
v -160 -144 0
v -176 -144 0
v -176 -128 0
v -160 -128 0
v -144 -144 0
v -160 -144 0
v -160 -128 0
v -144 -128 0
v -128 -144 0
v -144 -144 0
v -144 -128 0
v -128 -128 0
v -112 -144 0
v -128 -144 0
v -128 -128 0
v -112 -128 0
v -96 -144 0
v -112 -144 0
v -112 -128 0
v -96 -128 0
v -80 -144 0
v -96 -144 0
v -96 -128 0
v -80 -128 0
v -64 -144 0
v -80 -144 0
v -80 -128 0
v -64 -128 0
v -48 -144 0
v -64 -144 0
v -64 -128 0
v -48 -128 0
v -32 -144 0
v -48 -144 0
v -48 -128 0
v -32 -128 0
v -16 -144 0
v -32 -144 0
v -32 -128 0
v -16 -128 0
v 0 -144 0
v -16 -144 0
v -16 -128 0
v 0 -128 0
v -160 -160 0
v -176 -160 0
v -176 -144 0
v -160 -144 0
v -144 -160 0
v -160 -160 0
v -160 -144 0
v -144 -144 0
v -128 -160 0
v -144 -160 0
v -144 -144 0
v -128 -144 0
v -112 -160 0
v -128 -160 0
v -128 -144 0
v -112 -144 0
v -96 -160 0
v -112 -160 0
v -112 -144 0
v -96 -144 0
v -80 -160 0
v -96 -160 0
v -96 -144 0
v -80 -144 0
v -64 -160 0
v -80 -160 0
v -80 -144 0
v -64 -144 0
v -48 -160 0
v -64 -160 0
v -64 -144 0
v -48 -144 0
v -32 -160 0
v -48 -160 0
v -48 -144 0
v -32 -144 0
v -16 -160 0
v -32 -160 0
v -32 -144 0
v -16 -144 0
v 0 -160 0
v -16 -160 0
v -16 -144 0
v 0 -144 0
v -160 -176 0
v -176 -176 0
v -176 -160 0
v -160 -160 0
v -144 -176 0
v -160 -176 0
v -160 -160 0
v -144 -160 0
v -128 -176 0
v -144 -176 0
v -144 -160 0
v -128 -160 0
v -112 -176 0
v -128 -176 0
v -128 -160 0
v -112 -160 0
v -96 -176 0
v -112 -176 0
v -112 -160 0
v -96 -160 0
v -80 -176 0
v -96 -176 0
v -96 -160 0
v -80 -160 0
v -64 -176 0
v -80 -176 0
v -80 -160 0
v -64 -160 0
v -48 -176 0
v -64 -176 0
v -64 -160 0
v -48 -160 0
v -32 -176 0
v -48 -176 0
v -48 -160 0
v -32 -160 0
v -16 -176 0
v -32 -176 0
v -32 -160 0
v -16 -160 0
v 0 -176 0
v -16 -176 0
v -16 -160 0
v 0 -160 0
v -160 -192 0
v -176 -192 0
v -176 -176 0
v -160 -176 0
v -144 -192 0
v -160 -192 0
v -160 -176 0
v -144 -176 0
v -128 -192 0
v -144 -192 0
v -144 -176 0
v -128 -176 0
v -112 -192 0
v -128 -192 0
v -128 -176 0
v -112 -176 0
v -96 -192 0
v -112 -192 0
v -112 -176 0
v -96 -176 0
v -80 -192 0
v -96 -192 0
v -96 -176 0
v -80 -176 0
v -64 -192 0
v -80 -192 0
v -80 -176 0
v -64 -176 0
v -48 -192 0
v -64 -192 0
v -64 -176 0
v -48 -176 0
v -32 -192 0
v -48 -192 0
v -48 -176 0
v -32 -176 0
v -16 -192 0
v -32 -192 0
v -32 -176 0
v -16 -176 0
v 0 -192 0
v -16 -192 0
v -16 -176 0
v 0 -176 0
v -160 -208 0
v -176 -208 0
v -176 -192 0
v -160 -192 0
v -144 -208 0
v -160 -208 0
v -160 -192 0
v -144 -192 0
v -128 -208 0
v -144 -208 0
v -144 -192 0
v -128 -192 0
v -112 -208 0
v -128 -208 0
v -128 -192 0
v -112 -192 0
v -96 -208 0
v -112 -208 0
v -112 -192 0
v -96 -192 0
v -80 -208 0
v -96 -208 0
v -96 -192 0
v -80 -192 0
v -64 -208 0
v -80 -208 0
v -80 -192 0
v -64 -192 0
v -48 -208 0
v -64 -208 0
v -64 -192 0
v -48 -192 0
v -32 -208 0
v -48 -208 0
v -48 -192 0
v -32 -192 0
v -16 -208 0
v -32 -208 0
v -32 -192 0
v -16 -192 0
v 0 -208 0
v -16 -208 0
v -16 -192 0
v 0 -192 0
v -176 -224 0
v -192 -224 0
v -192 -208 0
v -176 -208 0
v -160 -224 0
v -176 -224 0
v -176 -208 0
v -160 -208 0
v -144 -224 0
v -160 -224 0
v -160 -208 0
v -144 -208 0
v -128 -224 0
v -144 -224 0
v -144 -208 0
v -128 -208 0
v -112 -224 0
v -128 -224 0
v -128 -208 0
v -112 -208 0
v -96 -224 0
v -112 -224 0
v -112 -208 0
v -96 -208 0
v -80 -224 0
v -96 -224 0
v -96 -208 0
v -80 -208 0
v -64 -224 0
v -80 -224 0
v -80 -208 0
v -64 -208 0
v -48 -224 0
v -64 -224 0
v -64 -208 0
v -48 -208 0
v -32 -224 0
v -48 -224 0
v -48 -208 0
v -32 -208 0
v -16 -224 0
v -32 -224 0
v -32 -208 0
v -16 -208 0
v 0 -224 0
v -16 -224 0
v -16 -208 0
v 0 -208 0
v -176 -240 0
v -192 -240 0
v -192 -224 0
v -176 -224 0
v -160 -240 0
v -176 -240 0
v -176 -224 0
v -160 -224 0
v -144 -240 0
v -160 -240 0
v -160 -224 0
v -144 -224 0
v -128 -240 0
v -144 -240 0
v -144 -224 0
v -128 -224 0
v -112 -240 0
v -128 -240 0
v -128 -224 0
v -112 -224 0
v -96 -240 0
v -112 -240 0
v -112 -224 0
v -96 -224 0
v -80 -240 0
v -96 -240 0
v -96 -224 0
v -80 -224 0
v -64 -240 0
v -80 -240 0
v -80 -224 0
v -64 -224 0
v -48 -240 0
v -64 -240 0
v -64 -224 0
v -48 -224 0
v -32 -240 0
v -48 -240 0
v -48 -224 0
v -32 -224 0
v -16 -240 0
v -32 -240 0
v -32 -224 0
v -16 -224 0
v 0 -240 0
v -16 -240 0
v -16 -224 0
v 0 -224 0
v -160 -256 0
v -176 -256 0
v -176 -240 0
v -160 -240 0
v -144 -256 0
v -160 -256 0
v -160 -240 0
v -144 -240 0
v -128 -256 0
v -144 -256 0
v -144 -240 0
v -128 -240 0
v -112 -256 0
v -128 -256 0
v -128 -240 0
v -112 -240 0
v -96 -256 0
v -112 -256 0
v -112 -240 0
v -96 -240 0
v -80 -256 0
v -96 -256 0
v -96 -240 0
v -80 -240 0
v -64 -256 0
v -80 -256 0
v -80 -240 0
v -64 -240 0
v -48 -256 0
v -64 -256 0
v -64 -240 0
v -48 -240 0
v -32 -256 0
v -48 -256 0
v -48 -240 0
v -32 -240 0
v -16 -256 0
v -32 -256 0
v -32 -240 0
v -16 -240 0
v 0 -256 0
v -16 -256 0
v -16 -240 0
v 0 -240 0

# Texture cooridinates (Count = 28)
vt 0.15 0.7222222
vt 0.175 0.7222222
vt 0.175 0.75
vt 0.15 0.75
vt 0.125 0.7222222
vt 0.125 0.75
vt 0.2 0.7222222
vt 0.225 0.7222222
vt 0.225 0.75
vt 0.2 0.75
vt 0.175 0.6944444
vt 0.2 0.6944444
vt 0.15 0.6944444
vt 0.225 0.6944444
vt 0.15 0.6666666
vt 0.175 0.6666666
vt 0.125 0.6666666
vt 0.125 0.6944444
vt 0.175 0.5833334
vt 0.2 0.5833334
vt 0.2 0.6111111
vt 0.175 0.6111111
vt 0.15 0.6111111
vt 0.175 0.6388889
vt 0.15 0.6388889
vt 0.125 0.6111111
vt 0.125 0.6388889
vt 0.2 0.6388889

# Normal
vn 0 0 -1

# Mesh description
g Village_mesh_0086

# Faces
f 1/1/1 2/2/1 3/3/1 4/4/1
f 5/5/1 6/1/1 7/4/1 8/6/1
f 9/7/1 10/8/1 11/9/1 12/10/1
f 13/11/1 14/12/1 15/7/1 16/2/1
f 17/11/1 18/12/1 19/7/1 20/2/1
f 21/2/1 22/7/1 23/10/1 24/3/1
f 25/11/1 26/12/1 27/7/1 28/2/1
f 29/2/1 30/7/1 31/10/1 32/3/1
f 33/2/1 34/7/1 35/10/1 36/3/1
f 37/11/1 38/12/1 39/7/1 40/2/1
f 41/11/1 42/12/1 43/7/1 44/2/1
f 45/13/1 46/11/1 47/2/1 48/1/1
f 49/11/1 50/12/1 51/7/1 52/2/1
f 53/11/1 54/12/1 55/7/1 56/2/1
f 57/11/1 58/12/1 59/7/1 60/2/1
f 61/2/1 62/7/1 63/10/1 64/3/1
f 65/12/1 66/14/1 67/8/1 68/7/1
f 69/7/1 70/8/1 71/9/1 72/10/1
f 73/12/1 74/14/1 75/8/1 76/7/1
f 77/11/1 78/12/1 79/7/1 80/2/1
f 81/7/1 82/8/1 83/9/1 84/10/1
f 85/11/1 86/12/1 87/7/1 88/2/1
f 89/13/1 90/11/1 91/2/1 92/1/1
f 93/7/1 94/8/1 95/9/1 96/10/1
f 97/7/1 98/8/1 99/9/1 100/10/1
f 101/7/1 102/8/1 103/9/1 104/10/1
f 105/2/1 106/7/1 107/10/1 108/3/1
f 109/12/1 110/14/1 111/8/1 112/7/1
f 113/7/1 114/8/1 115/9/1 116/10/1
f 117/12/1 118/14/1 119/8/1 120/7/1
f 121/7/1 122/8/1 123/9/1 124/10/1
f 125/7/1 126/8/1 127/9/1 128/10/1
f 129/12/1 130/14/1 131/8/1 132/7/1
f 133/13/1 134/11/1 135/2/1 136/1/1
f 137/2/1 138/7/1 139/10/1 140/3/1
f 141/11/1 142/12/1 143/7/1 144/2/1
f 145/12/1 146/14/1 147/8/1 148/7/1
f 149/7/1 150/8/1 151/9/1 152/10/1
f 153/11/1 154/12/1 155/7/1 156/2/1
f 157/7/1 158/8/1 159/9/1 160/10/1
f 161/7/1 162/8/1 163/9/1 164/10/1
f 165/12/1 166/14/1 167/8/1 168/7/1
f 169/11/1 170/12/1 171/7/1 172/2/1
f 173/11/1 174/12/1 175/7/1 176/2/1
f 177/13/1 178/11/1 179/2/1 180/1/1
f 181/12/1 182/14/1 183/8/1 184/7/1
f 185/11/1 186/12/1 187/7/1 188/2/1
f 189/11/1 190/12/1 191/7/1 192/2/1
f 193/2/1 194/7/1 195/10/1 196/3/1
f 197/7/1 198/8/1 199/9/1 200/10/1
f 201/7/1 202/8/1 203/9/1 204/10/1
f 205/12/1 206/14/1 207/8/1 208/7/1
f 209/11/1 210/12/1 211/7/1 212/2/1
f 213/11/1 214/12/1 215/7/1 216/2/1
f 217/2/1 218/7/1 219/10/1 220/3/1
f 221/13/1 222/11/1 223/2/1 224/1/1
f 225/7/1 226/8/1 227/9/1 228/10/1
f 229/7/1 230/8/1 231/9/1 232/10/1
f 233/7/1 234/8/1 235/9/1 236/10/1
f 237/11/1 238/12/1 239/7/1 240/2/1
f 241/2/1 242/7/1 243/10/1 244/3/1
f 245/2/1 246/7/1 247/10/1 248/3/1
f 249/7/1 250/8/1 251/9/1 252/10/1
f 253/11/1 254/12/1 255/7/1 256/2/1
f 257/7/1 258/8/1 259/9/1 260/10/1
f 261/2/1 262/7/1 263/10/1 264/3/1
f 265/15/1 266/16/1 267/11/1 268/13/1
f 269/17/1 270/15/1 271/13/1 272/18/1
f 273/17/1 274/15/1 275/13/1 276/18/1
f 277/17/1 278/15/1 279/13/1 280/18/1
f 281/17/1 282/15/1 283/13/1 284/18/1
f 285/17/1 286/15/1 287/13/1 288/18/1
f 289/17/1 290/15/1 291/13/1 292/18/1
f 293/17/1 294/15/1 295/13/1 296/18/1
f 297/17/1 298/15/1 299/13/1 300/18/1
f 301/17/1 302/15/1 303/13/1 304/18/1
f 305/17/1 306/15/1 307/13/1 308/18/1
f 309/19/1 310/20/1 311/21/1 312/22/1
f 313/23/1 314/22/1 315/24/1 316/25/1
f 317/26/1 318/23/1 319/25/1 320/27/1
f 321/26/1 322/23/1 323/25/1 324/27/1
f 325/26/1 326/23/1 327/25/1 328/27/1
f 329/26/1 330/23/1 331/25/1 332/27/1
f 333/26/1 334/23/1 335/25/1 336/27/1
f 337/26/1 338/23/1 339/25/1 340/27/1
f 341/26/1 342/23/1 343/25/1 344/27/1
f 345/26/1 346/23/1 347/25/1 348/27/1
f 349/26/1 350/23/1 351/25/1 352/27/1
f 353/26/1 354/23/1 355/25/1 356/27/1
f 357/22/1 358/21/1 359/28/1 360/24/1
f 361/23/1 362/22/1 363/24/1 364/25/1
f 365/26/1 366/23/1 367/25/1 368/27/1
f 369/27/1 370/25/1 371/15/1 372/17/1
f 373/26/1 374/23/1 375/25/1 376/27/1
f 377/27/1 378/25/1 379/15/1 380/17/1
f 381/27/1 382/25/1 383/15/1 384/17/1
f 385/26/1 386/23/1 387/25/1 388/27/1
f 389/26/1 390/23/1 391/25/1 392/27/1
f 393/26/1 394/23/1 395/25/1 396/27/1
f 397/26/1 398/23/1 399/25/1 400/27/1
f 401/27/1 402/25/1 403/15/1 404/17/1
f 405/23/1 406/22/1 407/24/1 408/25/1
f 409/26/1 410/23/1 411/25/1 412/27/1
f 413/27/1 414/25/1 415/15/1 416/17/1
f 417/26/1 418/23/1 419/25/1 420/27/1
f 421/27/1 422/25/1 423/15/1 424/17/1
f 425/27/1 426/25/1 427/15/1 428/17/1
f 429/26/1 430/23/1 431/25/1 432/27/1
f 433/26/1 434/23/1 435/25/1 436/27/1
f 437/27/1 438/25/1 439/15/1 440/17/1
f 441/27/1 442/25/1 443/15/1 444/17/1
f 445/26/1 446/23/1 447/25/1 448/27/1

