# Tiled2Unity generated file. Do not modify by hand.
# Wavefront file for 'Village_mesh_0111.obj'

# Vertices (Count = 56)
v -224 -112 0
v -240 -112 0
v -240 -96 0
v -224 -96 0
v -240 -128 0
v -256 -128 0
v -256 -112 0
v -240 -112 0
v -224 -128 0
v -240 -128 0
v -240 -112 0
v -224 -112 0
v -208 -128 0
v -224 -128 0
v -224 -112 0
v -208 -112 0
v -192 -128 0
v -208 -128 0
v -208 -112 0
v -192 -112 0
v -176 -128 0
v -192 -128 0
v -192 -112 0
v -176 -112 0
v -224 -144 0
v -240 -144 0
v -240 -128 0
v -224 -128 0
v -208 -144 0
v -224 -144 0
v -224 -128 0
v -208 -128 0
v -192 -144 0
v -208 -144 0
v -208 -128 0
v -192 -128 0
v -176 -144 0
v -192 -144 0
v -192 -128 0
v -176 -128 0
v -192 -160 0
v -208 -160 0
v -208 -144 0
v -192 -144 0
v -176 -160 0
v -192 -160 0
v -192 -144 0
v -176 -144 0
v -208 -256 0
v -224 -256 0
v -224 -240 0
v -208 -240 0
v -192 -256 0
v -208 -256 0
v -208 -240 0
v -192 -240 0

# Texture cooridinates (Count = 19)
vt 0.175 0.5833334
vt 0.2 0.5833334
vt 0.2 0.6111111
vt 0.175 0.6111111
vt 0.1 0.5555556
vt 0.125 0.5555556
vt 0.125 0.5833334
vt 0.1 0.5833334
vt 0.25 0.6666666
vt 0.275 0.6666666
vt 0.275 0.6944444
vt 0.25 0.6944444
vt 0.225 0.6666666
vt 0.225 0.6944444
vt 0.15 0.5555556
vt 0.15 0.5833334
vt 0.25 0.6388889
vt 0.275 0.6388889
vt 0.225 0.6388889

# Normal
vn 0 0 -1

# Mesh description
g Village_mesh_0111

# Faces
f 1/1/1 2/2/1 3/3/1 4/4/1
f 5/5/1 6/6/1 7/7/1 8/8/1
f 9/9/1 10/10/1 11/11/1 12/12/1
f 13/13/1 14/9/1 15/12/1 16/14/1
f 17/6/1 18/15/1 19/16/1 20/7/1
f 21/5/1 22/6/1 23/7/1 24/8/1
f 25/17/1 26/18/1 27/10/1 28/9/1
f 29/19/1 30/17/1 31/9/1 32/13/1
f 33/9/1 34/10/1 35/11/1 36/12/1
f 37/13/1 38/9/1 39/12/1 40/14/1
f 41/17/1 42/18/1 43/10/1 44/9/1
f 45/19/1 46/17/1 47/9/1 48/13/1
f 49/9/1 50/10/1 51/11/1 52/12/1
f 53/13/1 54/9/1 55/12/1 56/14/1

