# Tiled2Unity generated file. Do not modify by hand.
# Wavefront file for 'Village_mesh_0013.obj'

# Vertices (Count = 1024)
v -240 -16 0
v -256 -16 0
v -256 0 0
v -240 0 0
v -224 -16 0
v -240 -16 0
v -240 0 0
v -224 0 0
v -208 -16 0
v -224 -16 0
v -224 0 0
v -208 0 0
v -192 -16 0
v -208 -16 0
v -208 0 0
v -192 0 0
v -176 -16 0
v -192 -16 0
v -192 0 0
v -176 0 0
v -160 -16 0
v -176 -16 0
v -176 0 0
v -160 0 0
v -144 -16 0
v -160 -16 0
v -160 0 0
v -144 0 0
v -128 -16 0
v -144 -16 0
v -144 0 0
v -128 0 0
v -112 -16 0
v -128 -16 0
v -128 0 0
v -112 0 0
v -96 -16 0
v -112 -16 0
v -112 0 0
v -96 0 0
v -80 -16 0
v -96 -16 0
v -96 0 0
v -80 0 0
v -64 -16 0
v -80 -16 0
v -80 0 0
v -64 0 0
v -48 -16 0
v -64 -16 0
v -64 0 0
v -48 0 0
v -32 -16 0
v -48 -16 0
v -48 0 0
v -32 0 0
v -16 -16 0
v -32 -16 0
v -32 0 0
v -16 0 0
v 0 -16 0
v -16 -16 0
v -16 0 0
v 0 0 0
v -240 -32 0
v -256 -32 0
v -256 -16 0
v -240 -16 0
v -224 -32 0
v -240 -32 0
v -240 -16 0
v -224 -16 0
v -208 -32 0
v -224 -32 0
v -224 -16 0
v -208 -16 0
v -192 -32 0
v -208 -32 0
v -208 -16 0
v -192 -16 0
v -176 -32 0
v -192 -32 0
v -192 -16 0
v -176 -16 0
v -160 -32 0
v -176 -32 0
v -176 -16 0
v -160 -16 0
v -144 -32 0
v -160 -32 0
v -160 -16 0
v -144 -16 0
v -128 -32 0
v -144 -32 0
v -144 -16 0
v -128 -16 0
v -112 -32 0
v -128 -32 0
v -128 -16 0
v -112 -16 0
v -96 -32 0
v -112 -32 0
v -112 -16 0
v -96 -16 0
v -80 -32 0
v -96 -32 0
v -96 -16 0
v -80 -16 0
v -64 -32 0
v -80 -32 0
v -80 -16 0
v -64 -16 0
v -48 -32 0
v -64 -32 0
v -64 -16 0
v -48 -16 0
v -32 -32 0
v -48 -32 0
v -48 -16 0
v -32 -16 0
v -16 -32 0
v -32 -32 0
v -32 -16 0
v -16 -16 0
v 0 -32 0
v -16 -32 0
v -16 -16 0
v 0 -16 0
v -240 -48 0
v -256 -48 0
v -256 -32 0
v -240 -32 0
v -224 -48 0
v -240 -48 0
v -240 -32 0
v -224 -32 0
v -208 -48 0
v -224 -48 0
v -224 -32 0
v -208 -32 0
v -192 -48 0
v -208 -48 0
v -208 -32 0
v -192 -32 0
v -176 -48 0
v -192 -48 0
v -192 -32 0
v -176 -32 0
v -160 -48 0
v -176 -48 0
v -176 -32 0
v -160 -32 0
v -144 -48 0
v -160 -48 0
v -160 -32 0
v -144 -32 0
v -128 -48 0
v -144 -48 0
v -144 -32 0
v -128 -32 0
v -112 -48 0
v -128 -48 0
v -128 -32 0
v -112 -32 0
v -96 -48 0
v -112 -48 0
v -112 -32 0
v -96 -32 0
v -80 -48 0
v -96 -48 0
v -96 -32 0
v -80 -32 0
v -64 -48 0
v -80 -48 0
v -80 -32 0
v -64 -32 0
v -48 -48 0
v -64 -48 0
v -64 -32 0
v -48 -32 0
v -32 -48 0
v -48 -48 0
v -48 -32 0
v -32 -32 0
v -16 -48 0
v -32 -48 0
v -32 -32 0
v -16 -32 0
v 0 -48 0
v -16 -48 0
v -16 -32 0
v 0 -32 0
v -240 -64 0
v -256 -64 0
v -256 -48 0
v -240 -48 0
v -224 -64 0
v -240 -64 0
v -240 -48 0
v -224 -48 0
v -208 -64 0
v -224 -64 0
v -224 -48 0
v -208 -48 0
v -192 -64 0
v -208 -64 0
v -208 -48 0
v -192 -48 0
v -176 -64 0
v -192 -64 0
v -192 -48 0
v -176 -48 0
v -160 -64 0
v -176 -64 0
v -176 -48 0
v -160 -48 0
v -144 -64 0
v -160 -64 0
v -160 -48 0
v -144 -48 0
v -128 -64 0
v -144 -64 0
v -144 -48 0
v -128 -48 0
v -112 -64 0
v -128 -64 0
v -128 -48 0
v -112 -48 0
v -96 -64 0
v -112 -64 0
v -112 -48 0
v -96 -48 0
v -80 -64 0
v -96 -64 0
v -96 -48 0
v -80 -48 0
v -64 -64 0
v -80 -64 0
v -80 -48 0
v -64 -48 0
v -48 -64 0
v -64 -64 0
v -64 -48 0
v -48 -48 0
v -32 -64 0
v -48 -64 0
v -48 -48 0
v -32 -48 0
v -16 -64 0
v -32 -64 0
v -32 -48 0
v -16 -48 0
v 0 -64 0
v -16 -64 0
v -16 -48 0
v 0 -48 0
v -240 -80 0
v -256 -80 0
v -256 -64 0
v -240 -64 0
v -224 -80 0
v -240 -80 0
v -240 -64 0
v -224 -64 0
v -208 -80 0
v -224 -80 0
v -224 -64 0
v -208 -64 0
v -192 -80 0
v -208 -80 0
v -208 -64 0
v -192 -64 0
v -176 -80 0
v -192 -80 0
v -192 -64 0
v -176 -64 0
v -160 -80 0
v -176 -80 0
v -176 -64 0
v -160 -64 0
v -144 -80 0
v -160 -80 0
v -160 -64 0
v -144 -64 0
v -128 -80 0
v -144 -80 0
v -144 -64 0
v -128 -64 0
v -112 -80 0
v -128 -80 0
v -128 -64 0
v -112 -64 0
v -96 -80 0
v -112 -80 0
v -112 -64 0
v -96 -64 0
v -80 -80 0
v -96 -80 0
v -96 -64 0
v -80 -64 0
v -64 -80 0
v -80 -80 0
v -80 -64 0
v -64 -64 0
v -48 -80 0
v -64 -80 0
v -64 -64 0
v -48 -64 0
v -32 -80 0
v -48 -80 0
v -48 -64 0
v -32 -64 0
v -16 -80 0
v -32 -80 0
v -32 -64 0
v -16 -64 0
v 0 -80 0
v -16 -80 0
v -16 -64 0
v 0 -64 0
v -240 -96 0
v -256 -96 0
v -256 -80 0
v -240 -80 0
v -224 -96 0
v -240 -96 0
v -240 -80 0
v -224 -80 0
v -208 -96 0
v -224 -96 0
v -224 -80 0
v -208 -80 0
v -192 -96 0
v -208 -96 0
v -208 -80 0
v -192 -80 0
v -176 -96 0
v -192 -96 0
v -192 -80 0
v -176 -80 0
v -160 -96 0
v -176 -96 0
v -176 -80 0
v -160 -80 0
v -144 -96 0
v -160 -96 0
v -160 -80 0
v -144 -80 0
v -128 -96 0
v -144 -96 0
v -144 -80 0
v -128 -80 0
v -112 -96 0
v -128 -96 0
v -128 -80 0
v -112 -80 0
v -96 -96 0
v -112 -96 0
v -112 -80 0
v -96 -80 0
v -80 -96 0
v -96 -96 0
v -96 -80 0
v -80 -80 0
v -64 -96 0
v -80 -96 0
v -80 -80 0
v -64 -80 0
v -48 -96 0
v -64 -96 0
v -64 -80 0
v -48 -80 0
v -32 -96 0
v -48 -96 0
v -48 -80 0
v -32 -80 0
v -16 -96 0
v -32 -96 0
v -32 -80 0
v -16 -80 0
v 0 -96 0
v -16 -96 0
v -16 -80 0
v 0 -80 0
v -240 -112 0
v -256 -112 0
v -256 -96 0
v -240 -96 0
v -224 -112 0
v -240 -112 0
v -240 -96 0
v -224 -96 0
v -208 -112 0
v -224 -112 0
v -224 -96 0
v -208 -96 0
v -192 -112 0
v -208 -112 0
v -208 -96 0
v -192 -96 0
v -176 -112 0
v -192 -112 0
v -192 -96 0
v -176 -96 0
v -160 -112 0
v -176 -112 0
v -176 -96 0
v -160 -96 0
v -144 -112 0
v -160 -112 0
v -160 -96 0
v -144 -96 0
v -128 -112 0
v -144 -112 0
v -144 -96 0
v -128 -96 0
v -112 -112 0
v -128 -112 0
v -128 -96 0
v -112 -96 0
v -96 -112 0
v -112 -112 0
v -112 -96 0
v -96 -96 0
v -80 -112 0
v -96 -112 0
v -96 -96 0
v -80 -96 0
v -64 -112 0
v -80 -112 0
v -80 -96 0
v -64 -96 0
v -48 -112 0
v -64 -112 0
v -64 -96 0
v -48 -96 0
v -32 -112 0
v -48 -112 0
v -48 -96 0
v -32 -96 0
v -16 -112 0
v -32 -112 0
v -32 -96 0
v -16 -96 0
v 0 -112 0
v -16 -112 0
v -16 -96 0
v 0 -96 0
v -240 -128 0
v -256 -128 0
v -256 -112 0
v -240 -112 0
v -224 -128 0
v -240 -128 0
v -240 -112 0
v -224 -112 0
v -208 -128 0
v -224 -128 0
v -224 -112 0
v -208 -112 0
v -192 -128 0
v -208 -128 0
v -208 -112 0
v -192 -112 0
v -176 -128 0
v -192 -128 0
v -192 -112 0
v -176 -112 0
v -160 -128 0
v -176 -128 0
v -176 -112 0
v -160 -112 0
v -144 -128 0
v -160 -128 0
v -160 -112 0
v -144 -112 0
v -128 -128 0
v -144 -128 0
v -144 -112 0
v -128 -112 0
v -112 -128 0
v -128 -128 0
v -128 -112 0
v -112 -112 0
v -96 -128 0
v -112 -128 0
v -112 -112 0
v -96 -112 0
v -80 -128 0
v -96 -128 0
v -96 -112 0
v -80 -112 0
v -64 -128 0
v -80 -128 0
v -80 -112 0
v -64 -112 0
v -48 -128 0
v -64 -128 0
v -64 -112 0
v -48 -112 0
v -32 -128 0
v -48 -128 0
v -48 -112 0
v -32 -112 0
v -16 -128 0
v -32 -128 0
v -32 -112 0
v -16 -112 0
v 0 -128 0
v -16 -128 0
v -16 -112 0
v 0 -112 0
v -240 -144 0
v -256 -144 0
v -256 -128 0
v -240 -128 0
v -224 -144 0
v -240 -144 0
v -240 -128 0
v -224 -128 0
v -208 -144 0
v -224 -144 0
v -224 -128 0
v -208 -128 0
v -192 -144 0
v -208 -144 0
v -208 -128 0
v -192 -128 0
v -176 -144 0
v -192 -144 0
v -192 -128 0
v -176 -128 0
v -160 -144 0
v -176 -144 0
v -176 -128 0
v -160 -128 0
v -144 -144 0
v -160 -144 0
v -160 -128 0
v -144 -128 0
v -128 -144 0
v -144 -144 0
v -144 -128 0
v -128 -128 0
v -112 -144 0
v -128 -144 0
v -128 -128 0
v -112 -128 0
v -96 -144 0
v -112 -144 0
v -112 -128 0
v -96 -128 0
v -80 -144 0
v -96 -144 0
v -96 -128 0
v -80 -128 0
v -64 -144 0
v -80 -144 0
v -80 -128 0
v -64 -128 0
v -48 -144 0
v -64 -144 0
v -64 -128 0
v -48 -128 0
v -32 -144 0
v -48 -144 0
v -48 -128 0
v -32 -128 0
v -16 -144 0
v -32 -144 0
v -32 -128 0
v -16 -128 0
v 0 -144 0
v -16 -144 0
v -16 -128 0
v 0 -128 0
v -240 -160 0
v -256 -160 0
v -256 -144 0
v -240 -144 0
v -224 -160 0
v -240 -160 0
v -240 -144 0
v -224 -144 0
v -208 -160 0
v -224 -160 0
v -224 -144 0
v -208 -144 0
v -192 -160 0
v -208 -160 0
v -208 -144 0
v -192 -144 0
v -176 -160 0
v -192 -160 0
v -192 -144 0
v -176 -144 0
v -160 -160 0
v -176 -160 0
v -176 -144 0
v -160 -144 0
v -144 -160 0
v -160 -160 0
v -160 -144 0
v -144 -144 0
v -128 -160 0
v -144 -160 0
v -144 -144 0
v -128 -144 0
v -112 -160 0
v -128 -160 0
v -128 -144 0
v -112 -144 0
v -96 -160 0
v -112 -160 0
v -112 -144 0
v -96 -144 0
v -80 -160 0
v -96 -160 0
v -96 -144 0
v -80 -144 0
v -64 -160 0
v -80 -160 0
v -80 -144 0
v -64 -144 0
v -48 -160 0
v -64 -160 0
v -64 -144 0
v -48 -144 0
v -32 -160 0
v -48 -160 0
v -48 -144 0
v -32 -144 0
v -16 -160 0
v -32 -160 0
v -32 -144 0
v -16 -144 0
v 0 -160 0
v -16 -160 0
v -16 -144 0
v 0 -144 0
v -240 -176 0
v -256 -176 0
v -256 -160 0
v -240 -160 0
v -224 -176 0
v -240 -176 0
v -240 -160 0
v -224 -160 0
v -208 -176 0
v -224 -176 0
v -224 -160 0
v -208 -160 0
v -192 -176 0
v -208 -176 0
v -208 -160 0
v -192 -160 0
v -176 -176 0
v -192 -176 0
v -192 -160 0
v -176 -160 0
v -160 -176 0
v -176 -176 0
v -176 -160 0
v -160 -160 0
v -144 -176 0
v -160 -176 0
v -160 -160 0
v -144 -160 0
v -128 -176 0
v -144 -176 0
v -144 -160 0
v -128 -160 0
v -112 -176 0
v -128 -176 0
v -128 -160 0
v -112 -160 0
v -96 -176 0
v -112 -176 0
v -112 -160 0
v -96 -160 0
v -80 -176 0
v -96 -176 0
v -96 -160 0
v -80 -160 0
v -64 -176 0
v -80 -176 0
v -80 -160 0
v -64 -160 0
v -48 -176 0
v -64 -176 0
v -64 -160 0
v -48 -160 0
v -32 -176 0
v -48 -176 0
v -48 -160 0
v -32 -160 0
v -16 -176 0
v -32 -176 0
v -32 -160 0
v -16 -160 0
v 0 -176 0
v -16 -176 0
v -16 -160 0
v 0 -160 0
v -240 -192 0
v -256 -192 0
v -256 -176 0
v -240 -176 0
v -224 -192 0
v -240 -192 0
v -240 -176 0
v -224 -176 0
v -208 -192 0
v -224 -192 0
v -224 -176 0
v -208 -176 0
v -192 -192 0
v -208 -192 0
v -208 -176 0
v -192 -176 0
v -176 -192 0
v -192 -192 0
v -192 -176 0
v -176 -176 0
v -160 -192 0
v -176 -192 0
v -176 -176 0
v -160 -176 0
v -144 -192 0
v -160 -192 0
v -160 -176 0
v -144 -176 0
v -128 -192 0
v -144 -192 0
v -144 -176 0
v -128 -176 0
v -112 -192 0
v -128 -192 0
v -128 -176 0
v -112 -176 0
v -96 -192 0
v -112 -192 0
v -112 -176 0
v -96 -176 0
v -80 -192 0
v -96 -192 0
v -96 -176 0
v -80 -176 0
v -64 -192 0
v -80 -192 0
v -80 -176 0
v -64 -176 0
v -48 -192 0
v -64 -192 0
v -64 -176 0
v -48 -176 0
v -32 -192 0
v -48 -192 0
v -48 -176 0
v -32 -176 0
v -16 -192 0
v -32 -192 0
v -32 -176 0
v -16 -176 0
v 0 -192 0
v -16 -192 0
v -16 -176 0
v 0 -176 0
v -240 -208 0
v -256 -208 0
v -256 -192 0
v -240 -192 0
v -224 -208 0
v -240 -208 0
v -240 -192 0
v -224 -192 0
v -208 -208 0
v -224 -208 0
v -224 -192 0
v -208 -192 0
v -192 -208 0
v -208 -208 0
v -208 -192 0
v -192 -192 0
v -176 -208 0
v -192 -208 0
v -192 -192 0
v -176 -192 0
v -160 -208 0
v -176 -208 0
v -176 -192 0
v -160 -192 0
v -144 -208 0
v -160 -208 0
v -160 -192 0
v -144 -192 0
v -128 -208 0
v -144 -208 0
v -144 -192 0
v -128 -192 0
v -112 -208 0
v -128 -208 0
v -128 -192 0
v -112 -192 0
v -96 -208 0
v -112 -208 0
v -112 -192 0
v -96 -192 0
v -80 -208 0
v -96 -208 0
v -96 -192 0
v -80 -192 0
v -64 -208 0
v -80 -208 0
v -80 -192 0
v -64 -192 0
v -48 -208 0
v -64 -208 0
v -64 -192 0
v -48 -192 0
v -32 -208 0
v -48 -208 0
v -48 -192 0
v -32 -192 0
v -16 -208 0
v -32 -208 0
v -32 -192 0
v -16 -192 0
v 0 -208 0
v -16 -208 0
v -16 -192 0
v 0 -192 0
v -240 -224 0
v -256 -224 0
v -256 -208 0
v -240 -208 0
v -224 -224 0
v -240 -224 0
v -240 -208 0
v -224 -208 0
v -208 -224 0
v -224 -224 0
v -224 -208 0
v -208 -208 0
v -192 -224 0
v -208 -224 0
v -208 -208 0
v -192 -208 0
v -176 -224 0
v -192 -224 0
v -192 -208 0
v -176 -208 0
v -160 -224 0
v -176 -224 0
v -176 -208 0
v -160 -208 0
v -144 -224 0
v -160 -224 0
v -160 -208 0
v -144 -208 0
v -128 -224 0
v -144 -224 0
v -144 -208 0
v -128 -208 0
v -112 -224 0
v -128 -224 0
v -128 -208 0
v -112 -208 0
v -96 -224 0
v -112 -224 0
v -112 -208 0
v -96 -208 0
v -80 -224 0
v -96 -224 0
v -96 -208 0
v -80 -208 0
v -64 -224 0
v -80 -224 0
v -80 -208 0
v -64 -208 0
v -48 -224 0
v -64 -224 0
v -64 -208 0
v -48 -208 0
v -32 -224 0
v -48 -224 0
v -48 -208 0
v -32 -208 0
v -16 -224 0
v -32 -224 0
v -32 -208 0
v -16 -208 0
v 0 -224 0
v -16 -224 0
v -16 -208 0
v 0 -208 0
v -240 -240 0
v -256 -240 0
v -256 -224 0
v -240 -224 0
v -224 -240 0
v -240 -240 0
v -240 -224 0
v -224 -224 0
v -208 -240 0
v -224 -240 0
v -224 -224 0
v -208 -224 0
v -192 -240 0
v -208 -240 0
v -208 -224 0
v -192 -224 0
v -176 -240 0
v -192 -240 0
v -192 -224 0
v -176 -224 0
v -160 -240 0
v -176 -240 0
v -176 -224 0
v -160 -224 0
v -144 -240 0
v -160 -240 0
v -160 -224 0
v -144 -224 0
v -128 -240 0
v -144 -240 0
v -144 -224 0
v -128 -224 0
v -112 -240 0
v -128 -240 0
v -128 -224 0
v -112 -224 0
v -96 -240 0
v -112 -240 0
v -112 -224 0
v -96 -224 0
v -80 -240 0
v -96 -240 0
v -96 -224 0
v -80 -224 0
v -64 -240 0
v -80 -240 0
v -80 -224 0
v -64 -224 0
v -48 -240 0
v -64 -240 0
v -64 -224 0
v -48 -224 0
v -32 -240 0
v -48 -240 0
v -48 -224 0
v -32 -224 0
v -16 -240 0
v -32 -240 0
v -32 -224 0
v -16 -224 0
v 0 -240 0
v -16 -240 0
v -16 -224 0
v 0 -224 0
v -240 -256 0
v -256 -256 0
v -256 -240 0
v -240 -240 0
v -224 -256 0
v -240 -256 0
v -240 -240 0
v -224 -240 0
v -208 -256 0
v -224 -256 0
v -224 -240 0
v -208 -240 0
v -192 -256 0
v -208 -256 0
v -208 -240 0
v -192 -240 0
v -176 -256 0
v -192 -256 0
v -192 -240 0
v -176 -240 0
v -160 -256 0
v -176 -256 0
v -176 -240 0
v -160 -240 0
v -144 -256 0
v -160 -256 0
v -160 -240 0
v -144 -240 0
v -128 -256 0
v -144 -256 0
v -144 -240 0
v -128 -240 0
v -112 -256 0
v -128 -256 0
v -128 -240 0
v -112 -240 0
v -96 -256 0
v -112 -256 0
v -112 -240 0
v -96 -240 0
v -80 -256 0
v -96 -256 0
v -96 -240 0
v -80 -240 0
v -64 -256 0
v -80 -256 0
v -80 -240 0
v -64 -240 0
v -48 -256 0
v -64 -256 0
v -64 -240 0
v -48 -240 0
v -32 -256 0
v -48 -256 0
v -48 -240 0
v -32 -240 0
v -16 -256 0
v -32 -256 0
v -32 -240 0
v -16 -240 0
v 0 -256 0
v -16 -256 0
v -16 -240 0
v 0 -240 0

# Texture cooridinates (Count = 9)
vt 0.175 0.7222222
vt 0.2 0.7222222
vt 0.2 0.75
vt 0.175 0.75
vt 0.175 0.6944444
vt 0.2 0.6944444
vt 0.225 0.6944444
vt 0.225 0.7222222
vt 0.225 0.75

# Normal
vn 0 0 -1

# Mesh description
g Village_mesh_0013

# Faces
f 1/1/1 2/2/1 3/3/1 4/4/1
f 5/5/1 6/6/1 7/2/1 8/1/1
f 9/6/1 10/7/1 11/8/1 12/2/1
f 13/5/1 14/6/1 15/2/1 16/1/1
f 17/5/1 18/6/1 19/2/1 20/1/1
f 21/1/1 22/2/1 23/3/1 24/4/1
f 25/1/1 26/2/1 27/3/1 28/4/1
f 29/5/1 30/6/1 31/2/1 32/1/1
f 33/1/1 34/2/1 35/3/1 36/4/1
f 37/1/1 38/2/1 39/3/1 40/4/1
f 41/5/1 42/6/1 43/2/1 44/1/1
f 45/2/1 46/8/1 47/9/1 48/3/1
f 49/6/1 50/7/1 51/8/1 52/2/1
f 53/2/1 54/8/1 55/9/1 56/3/1
f 57/5/1 58/6/1 59/2/1 60/1/1
f 61/2/1 62/8/1 63/9/1 64/3/1
f 65/2/1 66/8/1 67/9/1 68/3/1
f 69/1/1 70/2/1 71/3/1 72/4/1
f 73/1/1 74/2/1 75/3/1 76/4/1
f 77/6/1 78/7/1 79/8/1 80/2/1
f 81/5/1 82/6/1 83/2/1 84/1/1
f 85/2/1 86/8/1 87/9/1 88/3/1
f 89/5/1 90/6/1 91/2/1 92/1/1
f 93/1/1 94/2/1 95/3/1 96/4/1
f 97/2/1 98/8/1 99/9/1 100/3/1
f 101/2/1 102/8/1 103/9/1 104/3/1
f 105/6/1 106/7/1 107/8/1 108/2/1
f 109/1/1 110/2/1 111/3/1 112/4/1
f 113/6/1 114/7/1 115/8/1 116/2/1
f 117/2/1 118/8/1 119/9/1 120/3/1
f 121/6/1 122/7/1 123/8/1 124/2/1
f 125/1/1 126/2/1 127/3/1 128/4/1
f 129/6/1 130/7/1 131/8/1 132/2/1
f 133/6/1 134/7/1 135/8/1 136/2/1
f 137/6/1 138/7/1 139/8/1 140/2/1
f 141/2/1 142/8/1 143/9/1 144/3/1
f 145/1/1 146/2/1 147/3/1 148/4/1
f 149/6/1 150/7/1 151/8/1 152/2/1
f 153/6/1 154/7/1 155/8/1 156/2/1
f 157/6/1 158/7/1 159/8/1 160/2/1
f 161/2/1 162/8/1 163/9/1 164/3/1
f 165/2/1 166/8/1 167/9/1 168/3/1
f 169/5/1 170/6/1 171/2/1 172/1/1
f 173/1/1 174/2/1 175/3/1 176/4/1
f 177/6/1 178/7/1 179/8/1 180/2/1
f 181/1/1 182/2/1 183/3/1 184/4/1
f 185/6/1 186/7/1 187/8/1 188/2/1
f 189/2/1 190/8/1 191/9/1 192/3/1
f 193/2/1 194/8/1 195/9/1 196/3/1
f 197/6/1 198/7/1 199/8/1 200/2/1
f 201/2/1 202/8/1 203/9/1 204/3/1
f 205/5/1 206/6/1 207/2/1 208/1/1
f 209/6/1 210/7/1 211/8/1 212/2/1
f 213/6/1 214/7/1 215/8/1 216/2/1
f 217/1/1 218/2/1 219/3/1 220/4/1
f 221/2/1 222/8/1 223/9/1 224/3/1
f 225/6/1 226/7/1 227/8/1 228/2/1
f 229/1/1 230/2/1 231/3/1 232/4/1
f 233/5/1 234/6/1 235/2/1 236/1/1
f 237/2/1 238/8/1 239/9/1 240/3/1
f 241/6/1 242/7/1 243/8/1 244/2/1
f 245/2/1 246/8/1 247/9/1 248/3/1
f 249/6/1 250/7/1 251/8/1 252/2/1
f 253/1/1 254/2/1 255/3/1 256/4/1
f 257/2/1 258/8/1 259/9/1 260/3/1
f 261/5/1 262/6/1 263/2/1 264/1/1
f 265/5/1 266/6/1 267/2/1 268/1/1
f 269/5/1 270/6/1 271/2/1 272/1/1
f 273/5/1 274/6/1 275/2/1 276/1/1
f 277/2/1 278/8/1 279/9/1 280/3/1
f 281/2/1 282/8/1 283/9/1 284/3/1
f 285/5/1 286/6/1 287/2/1 288/1/1
f 289/2/1 290/8/1 291/9/1 292/3/1
f 293/1/1 294/2/1 295/3/1 296/4/1
f 297/5/1 298/6/1 299/2/1 300/1/1
f 301/5/1 302/6/1 303/2/1 304/1/1
f 305/2/1 306/8/1 307/9/1 308/3/1
f 309/5/1 310/6/1 311/2/1 312/1/1
f 313/1/1 314/2/1 315/3/1 316/4/1
f 317/6/1 318/7/1 319/8/1 320/2/1
f 321/1/1 322/2/1 323/3/1 324/4/1
f 325/1/1 326/2/1 327/3/1 328/4/1
f 329/5/1 330/6/1 331/2/1 332/1/1
f 333/5/1 334/6/1 335/2/1 336/1/1
f 337/1/1 338/2/1 339/3/1 340/4/1
f 341/6/1 342/7/1 343/8/1 344/2/1
f 345/5/1 346/6/1 347/2/1 348/1/1
f 349/6/1 350/7/1 351/8/1 352/2/1
f 353/6/1 354/7/1 355/8/1 356/2/1
f 357/6/1 358/7/1 359/8/1 360/2/1
f 361/5/1 362/6/1 363/2/1 364/1/1
f 365/5/1 366/6/1 367/2/1 368/1/1
f 369/6/1 370/7/1 371/8/1 372/2/1
f 373/6/1 374/7/1 375/8/1 376/2/1
f 377/2/1 378/8/1 379/9/1 380/3/1
f 381/6/1 382/7/1 383/8/1 384/2/1
f 385/1/1 386/2/1 387/3/1 388/4/1
f 389/2/1 390/8/1 391/9/1 392/3/1
f 393/6/1 394/7/1 395/8/1 396/2/1
f 397/1/1 398/2/1 399/3/1 400/4/1
f 401/1/1 402/2/1 403/3/1 404/4/1
f 405/5/1 406/6/1 407/2/1 408/1/1
f 409/6/1 410/7/1 411/8/1 412/2/1
f 413/2/1 414/8/1 415/9/1 416/3/1
f 417/1/1 418/2/1 419/3/1 420/4/1
f 421/5/1 422/6/1 423/2/1 424/1/1
f 425/1/1 426/2/1 427/3/1 428/4/1
f 429/1/1 430/2/1 431/3/1 432/4/1
f 433/1/1 434/2/1 435/3/1 436/4/1
f 437/5/1 438/6/1 439/2/1 440/1/1
f 441/2/1 442/8/1 443/9/1 444/3/1
f 445/5/1 446/6/1 447/2/1 448/1/1
f 449/6/1 450/7/1 451/8/1 452/2/1
f 453/2/1 454/8/1 455/9/1 456/3/1
f 457/6/1 458/7/1 459/8/1 460/2/1
f 461/5/1 462/6/1 463/2/1 464/1/1
f 465/1/1 466/2/1 467/3/1 468/4/1
f 469/6/1 470/7/1 471/8/1 472/2/1
f 473/2/1 474/8/1 475/9/1 476/3/1
f 477/1/1 478/2/1 479/3/1 480/4/1
f 481/6/1 482/7/1 483/8/1 484/2/1
f 485/5/1 486/6/1 487/2/1 488/1/1
f 489/2/1 490/8/1 491/9/1 492/3/1
f 493/1/1 494/2/1 495/3/1 496/4/1
f 497/6/1 498/7/1 499/8/1 500/2/1
f 501/5/1 502/6/1 503/2/1 504/1/1
f 505/6/1 506/7/1 507/8/1 508/2/1
f 509/1/1 510/2/1 511/3/1 512/4/1
f 513/5/1 514/6/1 515/2/1 516/1/1
f 517/5/1 518/6/1 519/2/1 520/1/1
f 521/2/1 522/8/1 523/9/1 524/3/1
f 525/6/1 526/7/1 527/8/1 528/2/1
f 529/2/1 530/8/1 531/9/1 532/3/1
f 533/6/1 534/7/1 535/8/1 536/2/1
f 537/5/1 538/6/1 539/2/1 540/1/1
f 541/6/1 542/7/1 543/8/1 544/2/1
f 545/5/1 546/6/1 547/2/1 548/1/1
f 549/6/1 550/7/1 551/8/1 552/2/1
f 553/5/1 554/6/1 555/2/1 556/1/1
f 557/1/1 558/2/1 559/3/1 560/4/1
f 561/2/1 562/8/1 563/9/1 564/3/1
f 565/5/1 566/6/1 567/2/1 568/1/1
f 569/1/1 570/2/1 571/3/1 572/4/1
f 573/5/1 574/6/1 575/2/1 576/1/1
f 577/5/1 578/6/1 579/2/1 580/1/1
f 581/6/1 582/7/1 583/8/1 584/2/1
f 585/5/1 586/6/1 587/2/1 588/1/1
f 589/1/1 590/2/1 591/3/1 592/4/1
f 593/6/1 594/7/1 595/8/1 596/2/1
f 597/2/1 598/8/1 599/9/1 600/3/1
f 601/2/1 602/8/1 603/9/1 604/3/1
f 605/5/1 606/6/1 607/2/1 608/1/1
f 609/5/1 610/6/1 611/2/1 612/1/1
f 613/2/1 614/8/1 615/9/1 616/3/1
f 617/2/1 618/8/1 619/9/1 620/3/1
f 621/6/1 622/7/1 623/8/1 624/2/1
f 625/5/1 626/6/1 627/2/1 628/1/1
f 629/5/1 630/6/1 631/2/1 632/1/1
f 633/5/1 634/6/1 635/2/1 636/1/1
f 637/1/1 638/2/1 639/3/1 640/4/1
f 641/5/1 642/6/1 643/2/1 644/1/1
f 645/1/1 646/2/1 647/3/1 648/4/1
f 649/2/1 650/8/1 651/9/1 652/3/1
f 653/2/1 654/8/1 655/9/1 656/3/1
f 657/6/1 658/7/1 659/8/1 660/2/1
f 661/6/1 662/7/1 663/8/1 664/2/1
f 665/1/1 666/2/1 667/3/1 668/4/1
f 669/5/1 670/6/1 671/2/1 672/1/1
f 673/5/1 674/6/1 675/2/1 676/1/1
f 677/1/1 678/2/1 679/3/1 680/4/1
f 681/5/1 682/6/1 683/2/1 684/1/1
f 685/1/1 686/2/1 687/3/1 688/4/1
f 689/6/1 690/7/1 691/8/1 692/2/1
f 693/5/1 694/6/1 695/2/1 696/1/1
f 697/5/1 698/6/1 699/2/1 700/1/1
f 701/6/1 702/7/1 703/8/1 704/2/1
f 705/6/1 706/7/1 707/8/1 708/2/1
f 709/5/1 710/6/1 711/2/1 712/1/1
f 713/1/1 714/2/1 715/3/1 716/4/1
f 717/5/1 718/6/1 719/2/1 720/1/1
f 721/2/1 722/8/1 723/9/1 724/3/1
f 725/2/1 726/8/1 727/9/1 728/3/1
f 729/2/1 730/8/1 731/9/1 732/3/1
f 733/5/1 734/6/1 735/2/1 736/1/1
f 737/2/1 738/8/1 739/9/1 740/3/1
f 741/6/1 742/7/1 743/8/1 744/2/1
f 745/1/1 746/2/1 747/3/1 748/4/1
f 749/6/1 750/7/1 751/8/1 752/2/1
f 753/1/1 754/2/1 755/3/1 756/4/1
f 757/2/1 758/8/1 759/9/1 760/3/1
f 761/1/1 762/2/1 763/3/1 764/4/1
f 765/2/1 766/8/1 767/9/1 768/3/1
f 769/2/1 770/8/1 771/9/1 772/3/1
f 773/2/1 774/8/1 775/9/1 776/3/1
f 777/6/1 778/7/1 779/8/1 780/2/1
f 781/5/1 782/6/1 783/2/1 784/1/1
f 785/6/1 786/7/1 787/8/1 788/2/1
f 789/1/1 790/2/1 791/3/1 792/4/1
f 793/5/1 794/6/1 795/2/1 796/1/1
f 797/5/1 798/6/1 799/2/1 800/1/1
f 801/6/1 802/7/1 803/8/1 804/2/1
f 805/2/1 806/8/1 807/9/1 808/3/1
f 809/1/1 810/2/1 811/3/1 812/4/1
f 813/6/1 814/7/1 815/8/1 816/2/1
f 817/2/1 818/8/1 819/9/1 820/3/1
f 821/1/1 822/2/1 823/3/1 824/4/1
f 825/6/1 826/7/1 827/8/1 828/2/1
f 829/1/1 830/2/1 831/3/1 832/4/1
f 833/5/1 834/6/1 835/2/1 836/1/1
f 837/6/1 838/7/1 839/8/1 840/2/1
f 841/6/1 842/7/1 843/8/1 844/2/1
f 845/6/1 846/7/1 847/8/1 848/2/1
f 849/2/1 850/8/1 851/9/1 852/3/1
f 853/1/1 854/2/1 855/3/1 856/4/1
f 857/2/1 858/8/1 859/9/1 860/3/1
f 861/1/1 862/2/1 863/3/1 864/4/1
f 865/2/1 866/8/1 867/9/1 868/3/1
f 869/1/1 870/2/1 871/3/1 872/4/1
f 873/5/1 874/6/1 875/2/1 876/1/1
f 877/2/1 878/8/1 879/9/1 880/3/1
f 881/1/1 882/2/1 883/3/1 884/4/1
f 885/5/1 886/6/1 887/2/1 888/1/1
f 889/2/1 890/8/1 891/9/1 892/3/1
f 893/6/1 894/7/1 895/8/1 896/2/1
f 897/6/1 898/7/1 899/8/1 900/2/1
f 901/6/1 902/7/1 903/8/1 904/2/1
f 905/5/1 906/6/1 907/2/1 908/1/1
f 909/2/1 910/8/1 911/9/1 912/3/1
f 913/5/1 914/6/1 915/2/1 916/1/1
f 917/5/1 918/6/1 919/2/1 920/1/1
f 921/6/1 922/7/1 923/8/1 924/2/1
f 925/6/1 926/7/1 927/8/1 928/2/1
f 929/1/1 930/2/1 931/3/1 932/4/1
f 933/6/1 934/7/1 935/8/1 936/2/1
f 937/2/1 938/8/1 939/9/1 940/3/1
f 941/6/1 942/7/1 943/8/1 944/2/1
f 945/2/1 946/8/1 947/9/1 948/3/1
f 949/5/1 950/6/1 951/2/1 952/1/1
f 953/2/1 954/8/1 955/9/1 956/3/1
f 957/5/1 958/6/1 959/2/1 960/1/1
f 961/5/1 962/6/1 963/2/1 964/1/1
f 965/2/1 966/8/1 967/9/1 968/3/1
f 969/1/1 970/2/1 971/3/1 972/4/1
f 973/2/1 974/8/1 975/9/1 976/3/1
f 977/1/1 978/2/1 979/3/1 980/4/1
f 981/5/1 982/6/1 983/2/1 984/1/1
f 985/2/1 986/8/1 987/9/1 988/3/1
f 989/6/1 990/7/1 991/8/1 992/2/1
f 993/2/1 994/8/1 995/9/1 996/3/1
f 997/5/1 998/6/1 999/2/1 1000/1/1
f 1001/2/1 1002/8/1 1003/9/1 1004/3/1
f 1005/5/1 1006/6/1 1007/2/1 1008/1/1
f 1009/1/1 1010/2/1 1011/3/1 1012/4/1
f 1013/6/1 1014/7/1 1015/8/1 1016/2/1
f 1017/1/1 1018/2/1 1019/3/1 1020/4/1
f 1021/5/1 1022/6/1 1023/2/1 1024/1/1

