# Tiled2Unity generated file. Do not modify by hand.
# Wavefront file for 'Village_mesh_0063.obj'

# Vertices (Count = 1024)
v -240 -16 0
v -256 -16 0
v -256 0 0
v -240 0 0
v -224 -16 0
v -240 -16 0
v -240 0 0
v -224 0 0
v -208 -16 0
v -224 -16 0
v -224 0 0
v -208 0 0
v -192 -16 0
v -208 -16 0
v -208 0 0
v -192 0 0
v -176 -16 0
v -192 -16 0
v -192 0 0
v -176 0 0
v -160 -16 0
v -176 -16 0
v -176 0 0
v -160 0 0
v -144 -16 0
v -160 -16 0
v -160 0 0
v -144 0 0
v -128 -16 0
v -144 -16 0
v -144 0 0
v -128 0 0
v -112 -16 0
v -128 -16 0
v -128 0 0
v -112 0 0
v -96 -16 0
v -112 -16 0
v -112 0 0
v -96 0 0
v -80 -16 0
v -96 -16 0
v -96 0 0
v -80 0 0
v -64 -16 0
v -80 -16 0
v -80 0 0
v -64 0 0
v -48 -16 0
v -64 -16 0
v -64 0 0
v -48 0 0
v -32 -16 0
v -48 -16 0
v -48 0 0
v -32 0 0
v -16 -16 0
v -32 -16 0
v -32 0 0
v -16 0 0
v 0 -16 0
v -16 -16 0
v -16 0 0
v 0 0 0
v -240 -32 0
v -256 -32 0
v -256 -16 0
v -240 -16 0
v -224 -32 0
v -240 -32 0
v -240 -16 0
v -224 -16 0
v -208 -32 0
v -224 -32 0
v -224 -16 0
v -208 -16 0
v -192 -32 0
v -208 -32 0
v -208 -16 0
v -192 -16 0
v -176 -32 0
v -192 -32 0
v -192 -16 0
v -176 -16 0
v -160 -32 0
v -176 -32 0
v -176 -16 0
v -160 -16 0
v -144 -32 0
v -160 -32 0
v -160 -16 0
v -144 -16 0
v -128 -32 0
v -144 -32 0
v -144 -16 0
v -128 -16 0
v -112 -32 0
v -128 -32 0
v -128 -16 0
v -112 -16 0
v -96 -32 0
v -112 -32 0
v -112 -16 0
v -96 -16 0
v -80 -32 0
v -96 -32 0
v -96 -16 0
v -80 -16 0
v -64 -32 0
v -80 -32 0
v -80 -16 0
v -64 -16 0
v -48 -32 0
v -64 -32 0
v -64 -16 0
v -48 -16 0
v -32 -32 0
v -48 -32 0
v -48 -16 0
v -32 -16 0
v -16 -32 0
v -32 -32 0
v -32 -16 0
v -16 -16 0
v 0 -32 0
v -16 -32 0
v -16 -16 0
v 0 -16 0
v -240 -48 0
v -256 -48 0
v -256 -32 0
v -240 -32 0
v -224 -48 0
v -240 -48 0
v -240 -32 0
v -224 -32 0
v -208 -48 0
v -224 -48 0
v -224 -32 0
v -208 -32 0
v -192 -48 0
v -208 -48 0
v -208 -32 0
v -192 -32 0
v -176 -48 0
v -192 -48 0
v -192 -32 0
v -176 -32 0
v -160 -48 0
v -176 -48 0
v -176 -32 0
v -160 -32 0
v -144 -48 0
v -160 -48 0
v -160 -32 0
v -144 -32 0
v -128 -48 0
v -144 -48 0
v -144 -32 0
v -128 -32 0
v -112 -48 0
v -128 -48 0
v -128 -32 0
v -112 -32 0
v -96 -48 0
v -112 -48 0
v -112 -32 0
v -96 -32 0
v -80 -48 0
v -96 -48 0
v -96 -32 0
v -80 -32 0
v -64 -48 0
v -80 -48 0
v -80 -32 0
v -64 -32 0
v -48 -48 0
v -64 -48 0
v -64 -32 0
v -48 -32 0
v -32 -48 0
v -48 -48 0
v -48 -32 0
v -32 -32 0
v -16 -48 0
v -32 -48 0
v -32 -32 0
v -16 -32 0
v 0 -48 0
v -16 -48 0
v -16 -32 0
v 0 -32 0
v -240 -64 0
v -256 -64 0
v -256 -48 0
v -240 -48 0
v -224 -64 0
v -240 -64 0
v -240 -48 0
v -224 -48 0
v -208 -64 0
v -224 -64 0
v -224 -48 0
v -208 -48 0
v -192 -64 0
v -208 -64 0
v -208 -48 0
v -192 -48 0
v -176 -64 0
v -192 -64 0
v -192 -48 0
v -176 -48 0
v -160 -64 0
v -176 -64 0
v -176 -48 0
v -160 -48 0
v -144 -64 0
v -160 -64 0
v -160 -48 0
v -144 -48 0
v -128 -64 0
v -144 -64 0
v -144 -48 0
v -128 -48 0
v -112 -64 0
v -128 -64 0
v -128 -48 0
v -112 -48 0
v -96 -64 0
v -112 -64 0
v -112 -48 0
v -96 -48 0
v -80 -64 0
v -96 -64 0
v -96 -48 0
v -80 -48 0
v -64 -64 0
v -80 -64 0
v -80 -48 0
v -64 -48 0
v -48 -64 0
v -64 -64 0
v -64 -48 0
v -48 -48 0
v -32 -64 0
v -48 -64 0
v -48 -48 0
v -32 -48 0
v -16 -64 0
v -32 -64 0
v -32 -48 0
v -16 -48 0
v 0 -64 0
v -16 -64 0
v -16 -48 0
v 0 -48 0
v -240 -80 0
v -256 -80 0
v -256 -64 0
v -240 -64 0
v -224 -80 0
v -240 -80 0
v -240 -64 0
v -224 -64 0
v -208 -80 0
v -224 -80 0
v -224 -64 0
v -208 -64 0
v -192 -80 0
v -208 -80 0
v -208 -64 0
v -192 -64 0
v -176 -80 0
v -192 -80 0
v -192 -64 0
v -176 -64 0
v -160 -80 0
v -176 -80 0
v -176 -64 0
v -160 -64 0
v -144 -80 0
v -160 -80 0
v -160 -64 0
v -144 -64 0
v -128 -80 0
v -144 -80 0
v -144 -64 0
v -128 -64 0
v -112 -80 0
v -128 -80 0
v -128 -64 0
v -112 -64 0
v -96 -80 0
v -112 -80 0
v -112 -64 0
v -96 -64 0
v -80 -80 0
v -96 -80 0
v -96 -64 0
v -80 -64 0
v -64 -80 0
v -80 -80 0
v -80 -64 0
v -64 -64 0
v -48 -80 0
v -64 -80 0
v -64 -64 0
v -48 -64 0
v -32 -80 0
v -48 -80 0
v -48 -64 0
v -32 -64 0
v -16 -80 0
v -32 -80 0
v -32 -64 0
v -16 -64 0
v 0 -80 0
v -16 -80 0
v -16 -64 0
v 0 -64 0
v -240 -96 0
v -256 -96 0
v -256 -80 0
v -240 -80 0
v -224 -96 0
v -240 -96 0
v -240 -80 0
v -224 -80 0
v -208 -96 0
v -224 -96 0
v -224 -80 0
v -208 -80 0
v -192 -96 0
v -208 -96 0
v -208 -80 0
v -192 -80 0
v -176 -96 0
v -192 -96 0
v -192 -80 0
v -176 -80 0
v -160 -96 0
v -176 -96 0
v -176 -80 0
v -160 -80 0
v -144 -96 0
v -160 -96 0
v -160 -80 0
v -144 -80 0
v -128 -96 0
v -144 -96 0
v -144 -80 0
v -128 -80 0
v -112 -96 0
v -128 -96 0
v -128 -80 0
v -112 -80 0
v -96 -96 0
v -112 -96 0
v -112 -80 0
v -96 -80 0
v -80 -96 0
v -96 -96 0
v -96 -80 0
v -80 -80 0
v -64 -96 0
v -80 -96 0
v -80 -80 0
v -64 -80 0
v -48 -96 0
v -64 -96 0
v -64 -80 0
v -48 -80 0
v -32 -96 0
v -48 -96 0
v -48 -80 0
v -32 -80 0
v -16 -96 0
v -32 -96 0
v -32 -80 0
v -16 -80 0
v 0 -96 0
v -16 -96 0
v -16 -80 0
v 0 -80 0
v -240 -112 0
v -256 -112 0
v -256 -96 0
v -240 -96 0
v -224 -112 0
v -240 -112 0
v -240 -96 0
v -224 -96 0
v -208 -112 0
v -224 -112 0
v -224 -96 0
v -208 -96 0
v -192 -112 0
v -208 -112 0
v -208 -96 0
v -192 -96 0
v -176 -112 0
v -192 -112 0
v -192 -96 0
v -176 -96 0
v -160 -112 0
v -176 -112 0
v -176 -96 0
v -160 -96 0
v -144 -112 0
v -160 -112 0
v -160 -96 0
v -144 -96 0
v -128 -112 0
v -144 -112 0
v -144 -96 0
v -128 -96 0
v -112 -112 0
v -128 -112 0
v -128 -96 0
v -112 -96 0
v -96 -112 0
v -112 -112 0
v -112 -96 0
v -96 -96 0
v -80 -112 0
v -96 -112 0
v -96 -96 0
v -80 -96 0
v -64 -112 0
v -80 -112 0
v -80 -96 0
v -64 -96 0
v -48 -112 0
v -64 -112 0
v -64 -96 0
v -48 -96 0
v -32 -112 0
v -48 -112 0
v -48 -96 0
v -32 -96 0
v -16 -112 0
v -32 -112 0
v -32 -96 0
v -16 -96 0
v 0 -112 0
v -16 -112 0
v -16 -96 0
v 0 -96 0
v -240 -128 0
v -256 -128 0
v -256 -112 0
v -240 -112 0
v -224 -128 0
v -240 -128 0
v -240 -112 0
v -224 -112 0
v -208 -128 0
v -224 -128 0
v -224 -112 0
v -208 -112 0
v -192 -128 0
v -208 -128 0
v -208 -112 0
v -192 -112 0
v -176 -128 0
v -192 -128 0
v -192 -112 0
v -176 -112 0
v -160 -128 0
v -176 -128 0
v -176 -112 0
v -160 -112 0
v -144 -128 0
v -160 -128 0
v -160 -112 0
v -144 -112 0
v -128 -128 0
v -144 -128 0
v -144 -112 0
v -128 -112 0
v -112 -128 0
v -128 -128 0
v -128 -112 0
v -112 -112 0
v -96 -128 0
v -112 -128 0
v -112 -112 0
v -96 -112 0
v -80 -128 0
v -96 -128 0
v -96 -112 0
v -80 -112 0
v -64 -128 0
v -80 -128 0
v -80 -112 0
v -64 -112 0
v -48 -128 0
v -64 -128 0
v -64 -112 0
v -48 -112 0
v -32 -128 0
v -48 -128 0
v -48 -112 0
v -32 -112 0
v -16 -128 0
v -32 -128 0
v -32 -112 0
v -16 -112 0
v 0 -128 0
v -16 -128 0
v -16 -112 0
v 0 -112 0
v -240 -144 0
v -256 -144 0
v -256 -128 0
v -240 -128 0
v -224 -144 0
v -240 -144 0
v -240 -128 0
v -224 -128 0
v -208 -144 0
v -224 -144 0
v -224 -128 0
v -208 -128 0
v -192 -144 0
v -208 -144 0
v -208 -128 0
v -192 -128 0
v -176 -144 0
v -192 -144 0
v -192 -128 0
v -176 -128 0
v -160 -144 0
v -176 -144 0
v -176 -128 0
v -160 -128 0
v -144 -144 0
v -160 -144 0
v -160 -128 0
v -144 -128 0
v -128 -144 0
v -144 -144 0
v -144 -128 0
v -128 -128 0
v -112 -144 0
v -128 -144 0
v -128 -128 0
v -112 -128 0
v -96 -144 0
v -112 -144 0
v -112 -128 0
v -96 -128 0
v -80 -144 0
v -96 -144 0
v -96 -128 0
v -80 -128 0
v -64 -144 0
v -80 -144 0
v -80 -128 0
v -64 -128 0
v -48 -144 0
v -64 -144 0
v -64 -128 0
v -48 -128 0
v -32 -144 0
v -48 -144 0
v -48 -128 0
v -32 -128 0
v -16 -144 0
v -32 -144 0
v -32 -128 0
v -16 -128 0
v 0 -144 0
v -16 -144 0
v -16 -128 0
v 0 -128 0
v -240 -160 0
v -256 -160 0
v -256 -144 0
v -240 -144 0
v -224 -160 0
v -240 -160 0
v -240 -144 0
v -224 -144 0
v -208 -160 0
v -224 -160 0
v -224 -144 0
v -208 -144 0
v -192 -160 0
v -208 -160 0
v -208 -144 0
v -192 -144 0
v -176 -160 0
v -192 -160 0
v -192 -144 0
v -176 -144 0
v -160 -160 0
v -176 -160 0
v -176 -144 0
v -160 -144 0
v -144 -160 0
v -160 -160 0
v -160 -144 0
v -144 -144 0
v -128 -160 0
v -144 -160 0
v -144 -144 0
v -128 -144 0
v -112 -160 0
v -128 -160 0
v -128 -144 0
v -112 -144 0
v -96 -160 0
v -112 -160 0
v -112 -144 0
v -96 -144 0
v -80 -160 0
v -96 -160 0
v -96 -144 0
v -80 -144 0
v -64 -160 0
v -80 -160 0
v -80 -144 0
v -64 -144 0
v -48 -160 0
v -64 -160 0
v -64 -144 0
v -48 -144 0
v -32 -160 0
v -48 -160 0
v -48 -144 0
v -32 -144 0
v -16 -160 0
v -32 -160 0
v -32 -144 0
v -16 -144 0
v 0 -160 0
v -16 -160 0
v -16 -144 0
v 0 -144 0
v -240 -176 0
v -256 -176 0
v -256 -160 0
v -240 -160 0
v -224 -176 0
v -240 -176 0
v -240 -160 0
v -224 -160 0
v -208 -176 0
v -224 -176 0
v -224 -160 0
v -208 -160 0
v -192 -176 0
v -208 -176 0
v -208 -160 0
v -192 -160 0
v -176 -176 0
v -192 -176 0
v -192 -160 0
v -176 -160 0
v -160 -176 0
v -176 -176 0
v -176 -160 0
v -160 -160 0
v -144 -176 0
v -160 -176 0
v -160 -160 0
v -144 -160 0
v -128 -176 0
v -144 -176 0
v -144 -160 0
v -128 -160 0
v -112 -176 0
v -128 -176 0
v -128 -160 0
v -112 -160 0
v -96 -176 0
v -112 -176 0
v -112 -160 0
v -96 -160 0
v -80 -176 0
v -96 -176 0
v -96 -160 0
v -80 -160 0
v -64 -176 0
v -80 -176 0
v -80 -160 0
v -64 -160 0
v -48 -176 0
v -64 -176 0
v -64 -160 0
v -48 -160 0
v -32 -176 0
v -48 -176 0
v -48 -160 0
v -32 -160 0
v -16 -176 0
v -32 -176 0
v -32 -160 0
v -16 -160 0
v 0 -176 0
v -16 -176 0
v -16 -160 0
v 0 -160 0
v -240 -192 0
v -256 -192 0
v -256 -176 0
v -240 -176 0
v -224 -192 0
v -240 -192 0
v -240 -176 0
v -224 -176 0
v -208 -192 0
v -224 -192 0
v -224 -176 0
v -208 -176 0
v -192 -192 0
v -208 -192 0
v -208 -176 0
v -192 -176 0
v -176 -192 0
v -192 -192 0
v -192 -176 0
v -176 -176 0
v -160 -192 0
v -176 -192 0
v -176 -176 0
v -160 -176 0
v -144 -192 0
v -160 -192 0
v -160 -176 0
v -144 -176 0
v -128 -192 0
v -144 -192 0
v -144 -176 0
v -128 -176 0
v -112 -192 0
v -128 -192 0
v -128 -176 0
v -112 -176 0
v -96 -192 0
v -112 -192 0
v -112 -176 0
v -96 -176 0
v -80 -192 0
v -96 -192 0
v -96 -176 0
v -80 -176 0
v -64 -192 0
v -80 -192 0
v -80 -176 0
v -64 -176 0
v -48 -192 0
v -64 -192 0
v -64 -176 0
v -48 -176 0
v -32 -192 0
v -48 -192 0
v -48 -176 0
v -32 -176 0
v -16 -192 0
v -32 -192 0
v -32 -176 0
v -16 -176 0
v 0 -192 0
v -16 -192 0
v -16 -176 0
v 0 -176 0
v -240 -208 0
v -256 -208 0
v -256 -192 0
v -240 -192 0
v -224 -208 0
v -240 -208 0
v -240 -192 0
v -224 -192 0
v -208 -208 0
v -224 -208 0
v -224 -192 0
v -208 -192 0
v -192 -208 0
v -208 -208 0
v -208 -192 0
v -192 -192 0
v -176 -208 0
v -192 -208 0
v -192 -192 0
v -176 -192 0
v -160 -208 0
v -176 -208 0
v -176 -192 0
v -160 -192 0
v -144 -208 0
v -160 -208 0
v -160 -192 0
v -144 -192 0
v -128 -208 0
v -144 -208 0
v -144 -192 0
v -128 -192 0
v -112 -208 0
v -128 -208 0
v -128 -192 0
v -112 -192 0
v -96 -208 0
v -112 -208 0
v -112 -192 0
v -96 -192 0
v -80 -208 0
v -96 -208 0
v -96 -192 0
v -80 -192 0
v -64 -208 0
v -80 -208 0
v -80 -192 0
v -64 -192 0
v -48 -208 0
v -64 -208 0
v -64 -192 0
v -48 -192 0
v -32 -208 0
v -48 -208 0
v -48 -192 0
v -32 -192 0
v -16 -208 0
v -32 -208 0
v -32 -192 0
v -16 -192 0
v 0 -208 0
v -16 -208 0
v -16 -192 0
v 0 -192 0
v -240 -224 0
v -256 -224 0
v -256 -208 0
v -240 -208 0
v -224 -224 0
v -240 -224 0
v -240 -208 0
v -224 -208 0
v -208 -224 0
v -224 -224 0
v -224 -208 0
v -208 -208 0
v -192 -224 0
v -208 -224 0
v -208 -208 0
v -192 -208 0
v -176 -224 0
v -192 -224 0
v -192 -208 0
v -176 -208 0
v -160 -224 0
v -176 -224 0
v -176 -208 0
v -160 -208 0
v -144 -224 0
v -160 -224 0
v -160 -208 0
v -144 -208 0
v -128 -224 0
v -144 -224 0
v -144 -208 0
v -128 -208 0
v -112 -224 0
v -128 -224 0
v -128 -208 0
v -112 -208 0
v -96 -224 0
v -112 -224 0
v -112 -208 0
v -96 -208 0
v -80 -224 0
v -96 -224 0
v -96 -208 0
v -80 -208 0
v -64 -224 0
v -80 -224 0
v -80 -208 0
v -64 -208 0
v -48 -224 0
v -64 -224 0
v -64 -208 0
v -48 -208 0
v -32 -224 0
v -48 -224 0
v -48 -208 0
v -32 -208 0
v -16 -224 0
v -32 -224 0
v -32 -208 0
v -16 -208 0
v 0 -224 0
v -16 -224 0
v -16 -208 0
v 0 -208 0
v -240 -240 0
v -256 -240 0
v -256 -224 0
v -240 -224 0
v -224 -240 0
v -240 -240 0
v -240 -224 0
v -224 -224 0
v -208 -240 0
v -224 -240 0
v -224 -224 0
v -208 -224 0
v -192 -240 0
v -208 -240 0
v -208 -224 0
v -192 -224 0
v -176 -240 0
v -192 -240 0
v -192 -224 0
v -176 -224 0
v -160 -240 0
v -176 -240 0
v -176 -224 0
v -160 -224 0
v -144 -240 0
v -160 -240 0
v -160 -224 0
v -144 -224 0
v -128 -240 0
v -144 -240 0
v -144 -224 0
v -128 -224 0
v -112 -240 0
v -128 -240 0
v -128 -224 0
v -112 -224 0
v -96 -240 0
v -112 -240 0
v -112 -224 0
v -96 -224 0
v -80 -240 0
v -96 -240 0
v -96 -224 0
v -80 -224 0
v -64 -240 0
v -80 -240 0
v -80 -224 0
v -64 -224 0
v -48 -240 0
v -64 -240 0
v -64 -224 0
v -48 -224 0
v -32 -240 0
v -48 -240 0
v -48 -224 0
v -32 -224 0
v -16 -240 0
v -32 -240 0
v -32 -224 0
v -16 -224 0
v 0 -240 0
v -16 -240 0
v -16 -224 0
v 0 -224 0
v -240 -256 0
v -256 -256 0
v -256 -240 0
v -240 -240 0
v -224 -256 0
v -240 -256 0
v -240 -240 0
v -224 -240 0
v -208 -256 0
v -224 -256 0
v -224 -240 0
v -208 -240 0
v -192 -256 0
v -208 -256 0
v -208 -240 0
v -192 -240 0
v -176 -256 0
v -192 -256 0
v -192 -240 0
v -176 -240 0
v -160 -256 0
v -176 -256 0
v -176 -240 0
v -160 -240 0
v -144 -256 0
v -160 -256 0
v -160 -240 0
v -144 -240 0
v -128 -256 0
v -144 -256 0
v -144 -240 0
v -128 -240 0
v -112 -256 0
v -128 -256 0
v -128 -240 0
v -112 -240 0
v -96 -256 0
v -112 -256 0
v -112 -240 0
v -96 -240 0
v -80 -256 0
v -96 -256 0
v -96 -240 0
v -80 -240 0
v -64 -256 0
v -80 -256 0
v -80 -240 0
v -64 -240 0
v -48 -256 0
v -64 -256 0
v -64 -240 0
v -48 -240 0
v -32 -256 0
v -48 -256 0
v -48 -240 0
v -32 -240 0
v -16 -256 0
v -32 -256 0
v -32 -240 0
v -16 -240 0
v 0 -256 0
v -16 -256 0
v -16 -240 0
v 0 -240 0

# Texture cooridinates (Count = 13)
vt 0.175 0.7222222
vt 0.2 0.7222222
vt 0.2 0.75
vt 0.175 0.75
vt 0.175 0.6944444
vt 0.2 0.6944444
vt 0.225 0.7222222
vt 0.225 0.75
vt 0.225 0.6944444
vt 0.05 0.08333331
vt 0.075 0.08333331
vt 0.075 0.1111111
vt 0.05 0.1111111

# Normal
vn 0 0 -1

# Mesh description
g Village_mesh_0063

# Faces
f 1/1/1 2/2/1 3/3/1 4/4/1
f 5/5/1 6/6/1 7/2/1 8/1/1
f 9/2/1 10/7/1 11/8/1 12/3/1
f 13/6/1 14/9/1 15/7/1 16/2/1
f 17/6/1 18/9/1 19/7/1 20/2/1
f 21/6/1 22/9/1 23/7/1 24/2/1
f 25/2/1 26/7/1 27/8/1 28/3/1
f 29/6/1 30/9/1 31/7/1 32/2/1
f 33/1/1 34/2/1 35/3/1 36/4/1
f 37/1/1 38/2/1 39/3/1 40/4/1
f 41/2/1 42/7/1 43/8/1 44/3/1
f 45/6/1 46/9/1 47/7/1 48/2/1
f 49/2/1 50/7/1 51/8/1 52/3/1
f 53/1/1 54/2/1 55/3/1 56/4/1
f 57/5/1 58/6/1 59/2/1 60/1/1
f 61/5/1 62/6/1 63/2/1 64/1/1
f 65/2/1 66/7/1 67/8/1 68/3/1
f 69/2/1 70/7/1 71/8/1 72/3/1
f 73/6/1 74/9/1 75/7/1 76/2/1
f 77/1/1 78/2/1 79/3/1 80/4/1
f 81/6/1 82/9/1 83/7/1 84/2/1
f 85/5/1 86/6/1 87/2/1 88/1/1
f 89/2/1 90/7/1 91/8/1 92/3/1
f 93/1/1 94/2/1 95/3/1 96/4/1
f 97/5/1 98/6/1 99/2/1 100/1/1
f 101/6/1 102/9/1 103/7/1 104/2/1
f 105/5/1 106/6/1 107/2/1 108/1/1
f 109/1/1 110/2/1 111/3/1 112/4/1
f 113/1/1 114/2/1 115/3/1 116/4/1
f 117/1/1 118/2/1 119/3/1 120/4/1
f 121/6/1 122/9/1 123/7/1 124/2/1
f 125/5/1 126/6/1 127/2/1 128/1/1
f 129/2/1 130/7/1 131/8/1 132/3/1
f 133/6/1 134/9/1 135/7/1 136/2/1
f 137/1/1 138/2/1 139/3/1 140/4/1
f 141/6/1 142/9/1 143/7/1 144/2/1
f 145/5/1 146/6/1 147/2/1 148/1/1
f 149/6/1 150/9/1 151/7/1 152/2/1
f 153/5/1 154/6/1 155/2/1 156/1/1
f 157/5/1 158/6/1 159/2/1 160/1/1
f 161/5/1 162/6/1 163/2/1 164/1/1
f 165/2/1 166/7/1 167/8/1 168/3/1
f 169/1/1 170/2/1 171/3/1 172/4/1
f 173/5/1 174/6/1 175/2/1 176/1/1
f 177/2/1 178/7/1 179/8/1 180/3/1
f 181/1/1 182/2/1 183/3/1 184/4/1
f 185/5/1 186/6/1 187/2/1 188/1/1
f 189/2/1 190/7/1 191/8/1 192/3/1
f 193/5/1 194/6/1 195/2/1 196/1/1
f 197/6/1 198/9/1 199/7/1 200/2/1
f 201/6/1 202/9/1 203/7/1 204/2/1
f 205/2/1 206/7/1 207/8/1 208/3/1
f 209/1/1 210/2/1 211/3/1 212/4/1
f 213/1/1 214/2/1 215/3/1 216/4/1
f 217/5/1 218/6/1 219/2/1 220/1/1
f 221/1/1 222/2/1 223/3/1 224/4/1
f 225/1/1 226/2/1 227/3/1 228/4/1
f 229/5/1 230/6/1 231/2/1 232/1/1
f 233/10/1 234/11/1 235/12/1 236/13/1
f 237/10/1 238/11/1 239/12/1 240/13/1
f 241/10/1 242/11/1 243/12/1 244/13/1
f 245/10/1 246/11/1 247/12/1 248/13/1
f 249/10/1 250/11/1 251/12/1 252/13/1
f 253/10/1 254/11/1 255/12/1 256/13/1
f 257/2/1 258/7/1 259/8/1 260/3/1
f 261/2/1 262/7/1 263/8/1 264/3/1
f 265/5/1 266/6/1 267/2/1 268/1/1
f 269/6/1 270/9/1 271/7/1 272/2/1
f 273/6/1 274/9/1 275/7/1 276/2/1
f 277/6/1 278/9/1 279/7/1 280/2/1
f 281/6/1 282/9/1 283/7/1 284/2/1
f 285/2/1 286/7/1 287/8/1 288/3/1
f 289/1/1 290/2/1 291/3/1 292/4/1
f 293/6/1 294/9/1 295/7/1 296/2/1
f 297/5/1 298/6/1 299/2/1 300/1/1
f 301/2/1 302/7/1 303/8/1 304/3/1
f 305/2/1 306/7/1 307/8/1 308/3/1
f 309/6/1 310/9/1 311/7/1 312/2/1
f 313/5/1 314/6/1 315/2/1 316/1/1
f 317/6/1 318/9/1 319/7/1 320/2/1
f 321/5/1 322/6/1 323/2/1 324/1/1
f 325/1/1 326/2/1 327/3/1 328/4/1
f 329/1/1 330/2/1 331/3/1 332/4/1
f 333/6/1 334/9/1 335/7/1 336/2/1
f 337/6/1 338/9/1 339/7/1 340/2/1
f 341/1/1 342/2/1 343/3/1 344/4/1
f 345/1/1 346/2/1 347/3/1 348/4/1
f 349/5/1 350/6/1 351/2/1 352/1/1
f 353/1/1 354/2/1 355/3/1 356/4/1
f 357/6/1 358/9/1 359/7/1 360/2/1
f 361/6/1 362/9/1 363/7/1 364/2/1
f 365/1/1 366/2/1 367/3/1 368/4/1
f 369/6/1 370/9/1 371/7/1 372/2/1
f 373/1/1 374/2/1 375/3/1 376/4/1
f 377/6/1 378/9/1 379/7/1 380/2/1
f 381/5/1 382/6/1 383/2/1 384/1/1
f 385/1/1 386/2/1 387/3/1 388/4/1
f 389/1/1 390/2/1 391/3/1 392/4/1
f 393/1/1 394/2/1 395/3/1 396/4/1
f 397/2/1 398/7/1 399/8/1 400/3/1
f 401/1/1 402/2/1 403/3/1 404/4/1
f 405/2/1 406/7/1 407/8/1 408/3/1
f 409/2/1 410/7/1 411/8/1 412/3/1
f 413/2/1 414/7/1 415/8/1 416/3/1
f 417/6/1 418/9/1 419/7/1 420/2/1
f 421/5/1 422/6/1 423/2/1 424/1/1
f 425/6/1 426/9/1 427/7/1 428/2/1
f 429/2/1 430/7/1 431/8/1 432/3/1
f 433/5/1 434/6/1 435/2/1 436/1/1
f 437/1/1 438/2/1 439/3/1 440/4/1
f 441/1/1 442/2/1 443/3/1 444/4/1
f 445/5/1 446/6/1 447/2/1 448/1/1
f 449/6/1 450/9/1 451/7/1 452/2/1
f 453/1/1 454/2/1 455/3/1 456/4/1
f 457/1/1 458/2/1 459/3/1 460/4/1
f 461/2/1 462/7/1 463/8/1 464/3/1
f 465/1/1 466/2/1 467/3/1 468/4/1
f 469/6/1 470/9/1 471/7/1 472/2/1
f 473/2/1 474/7/1 475/8/1 476/3/1
f 477/5/1 478/6/1 479/2/1 480/1/1
f 481/5/1 482/6/1 483/2/1 484/1/1
f 485/5/1 486/6/1 487/2/1 488/1/1
f 489/1/1 490/2/1 491/3/1 492/4/1
f 493/5/1 494/6/1 495/2/1 496/1/1
f 497/5/1 498/6/1 499/2/1 500/1/1
f 501/5/1 502/6/1 503/2/1 504/1/1
f 505/6/1 506/9/1 507/7/1 508/2/1
f 509/6/1 510/9/1 511/7/1 512/2/1
f 513/2/1 514/7/1 515/8/1 516/3/1
f 517/1/1 518/2/1 519/3/1 520/4/1
f 521/2/1 522/7/1 523/8/1 524/3/1
f 525/1/1 526/2/1 527/3/1 528/4/1
f 529/5/1 530/6/1 531/2/1 532/1/1
f 533/2/1 534/7/1 535/8/1 536/3/1
f 537/6/1 538/9/1 539/7/1 540/2/1
f 541/5/1 542/6/1 543/2/1 544/1/1
f 545/5/1 546/6/1 547/2/1 548/1/1
f 549/2/1 550/7/1 551/8/1 552/3/1
f 553/5/1 554/6/1 555/2/1 556/1/1
f 557/2/1 558/7/1 559/8/1 560/3/1
f 561/1/1 562/2/1 563/3/1 564/4/1
f 565/6/1 566/9/1 567/7/1 568/2/1
f 569/6/1 570/9/1 571/7/1 572/2/1
f 573/1/1 574/2/1 575/3/1 576/4/1
f 577/1/1 578/2/1 579/3/1 580/4/1
f 581/5/1 582/6/1 583/2/1 584/1/1
f 585/2/1 586/7/1 587/8/1 588/3/1
f 589/5/1 590/6/1 591/2/1 592/1/1
f 593/1/1 594/2/1 595/3/1 596/4/1
f 597/5/1 598/6/1 599/2/1 600/1/1
f 601/2/1 602/7/1 603/8/1 604/3/1
f 605/2/1 606/7/1 607/8/1 608/3/1
f 609/5/1 610/6/1 611/2/1 612/1/1
f 613/1/1 614/2/1 615/3/1 616/4/1
f 617/5/1 618/6/1 619/2/1 620/1/1
f 621/6/1 622/9/1 623/7/1 624/2/1
f 625/2/1 626/7/1 627/8/1 628/3/1
f 629/5/1 630/6/1 631/2/1 632/1/1
f 633/1/1 634/2/1 635/3/1 636/4/1
f 637/2/1 638/7/1 639/8/1 640/3/1
f 641/5/1 642/6/1 643/2/1 644/1/1
f 645/5/1 646/6/1 647/2/1 648/1/1
f 649/6/1 650/9/1 651/7/1 652/2/1
f 653/6/1 654/9/1 655/7/1 656/2/1
f 657/2/1 658/7/1 659/8/1 660/3/1
f 661/2/1 662/7/1 663/8/1 664/3/1
f 665/6/1 666/9/1 667/7/1 668/2/1
f 669/5/1 670/6/1 671/2/1 672/1/1
f 673/1/1 674/2/1 675/3/1 676/4/1
f 677/1/1 678/2/1 679/3/1 680/4/1
f 681/1/1 682/2/1 683/3/1 684/4/1
f 685/5/1 686/6/1 687/2/1 688/1/1
f 689/6/1 690/9/1 691/7/1 692/2/1
f 693/2/1 694/7/1 695/8/1 696/3/1
f 697/1/1 698/2/1 699/3/1 700/4/1
f 701/2/1 702/7/1 703/8/1 704/3/1
f 705/6/1 706/9/1 707/7/1 708/2/1
f 709/6/1 710/9/1 711/7/1 712/2/1
f 713/5/1 714/6/1 715/2/1 716/1/1
f 717/5/1 718/6/1 719/2/1 720/1/1
f 721/2/1 722/7/1 723/8/1 724/3/1
f 725/1/1 726/2/1 727/3/1 728/4/1
f 729/5/1 730/6/1 731/2/1 732/1/1
f 733/5/1 734/6/1 735/2/1 736/1/1
f 737/6/1 738/9/1 739/7/1 740/2/1
f 741/1/1 742/2/1 743/3/1 744/4/1
f 745/1/1 746/2/1 747/3/1 748/4/1
f 749/1/1 750/2/1 751/3/1 752/4/1
f 753/6/1 754/9/1 755/7/1 756/2/1
f 757/1/1 758/2/1 759/3/1 760/4/1
f 761/5/1 762/6/1 763/2/1 764/1/1
f 765/2/1 766/7/1 767/8/1 768/3/1
f 769/1/1 770/2/1 771/3/1 772/4/1
f 773/1/1 774/2/1 775/3/1 776/4/1
f 777/5/1 778/6/1 779/2/1 780/1/1
f 781/5/1 782/6/1 783/2/1 784/1/1
f 785/5/1 786/6/1 787/2/1 788/1/1
f 789/5/1 790/6/1 791/2/1 792/1/1
f 793/6/1 794/9/1 795/7/1 796/2/1
f 797/6/1 798/9/1 799/7/1 800/2/1
f 801/2/1 802/7/1 803/8/1 804/3/1
f 805/1/1 806/2/1 807/3/1 808/4/1
f 809/2/1 810/7/1 811/8/1 812/3/1
f 813/1/1 814/2/1 815/3/1 816/4/1
f 817/5/1 818/6/1 819/2/1 820/1/1
f 821/2/1 822/7/1 823/8/1 824/3/1
f 825/2/1 826/7/1 827/8/1 828/3/1
f 829/6/1 830/9/1 831/7/1 832/2/1
f 833/2/1 834/7/1 835/8/1 836/3/1
f 837/1/1 838/2/1 839/3/1 840/4/1
f 841/2/1 842/7/1 843/8/1 844/3/1
f 845/6/1 846/9/1 847/7/1 848/2/1
f 849/2/1 850/7/1 851/8/1 852/3/1
f 853/1/1 854/2/1 855/3/1 856/4/1
f 857/6/1 858/9/1 859/7/1 860/2/1
f 861/6/1 862/9/1 863/7/1 864/2/1
f 865/6/1 866/9/1 867/7/1 868/2/1
f 869/1/1 870/2/1 871/3/1 872/4/1
f 873/1/1 874/2/1 875/3/1 876/4/1
f 877/6/1 878/9/1 879/7/1 880/2/1
f 881/1/1 882/2/1 883/3/1 884/4/1
f 885/6/1 886/9/1 887/7/1 888/2/1
f 889/2/1 890/7/1 891/8/1 892/3/1
f 893/6/1 894/9/1 895/7/1 896/2/1
f 897/2/1 898/7/1 899/8/1 900/3/1
f 901/5/1 902/6/1 903/2/1 904/1/1
f 905/6/1 906/9/1 907/7/1 908/2/1
f 909/6/1 910/9/1 911/7/1 912/2/1
f 913/5/1 914/6/1 915/2/1 916/1/1
f 917/6/1 918/9/1 919/7/1 920/2/1
f 921/1/1 922/2/1 923/3/1 924/4/1
f 925/5/1 926/6/1 927/2/1 928/1/1
f 929/5/1 930/6/1 931/2/1 932/1/1
f 933/1/1 934/2/1 935/3/1 936/4/1
f 937/10/1 938/11/1 939/12/1 940/13/1
f 941/1/1 942/2/1 943/3/1 944/4/1
f 945/2/1 946/7/1 947/8/1 948/3/1
f 949/2/1 950/7/1 951/8/1 952/3/1
f 953/5/1 954/6/1 955/2/1 956/1/1
f 957/6/1 958/9/1 959/7/1 960/2/1
f 961/6/1 962/9/1 963/7/1 964/2/1
f 965/1/1 966/2/1 967/3/1 968/4/1
f 969/5/1 970/6/1 971/2/1 972/1/1
f 973/5/1 974/6/1 975/2/1 976/1/1
f 977/2/1 978/7/1 979/8/1 980/3/1
f 981/5/1 982/6/1 983/2/1 984/1/1
f 985/5/1 986/6/1 987/2/1 988/1/1
f 989/5/1 990/6/1 991/2/1 992/1/1
f 993/1/1 994/2/1 995/3/1 996/4/1
f 997/1/1 998/2/1 999/3/1 1000/4/1
f 1001/10/1 1002/11/1 1003/12/1 1004/13/1
f 1005/5/1 1006/6/1 1007/2/1 1008/1/1
f 1009/6/1 1010/9/1 1011/7/1 1012/2/1
f 1013/2/1 1014/7/1 1015/8/1 1016/3/1
f 1017/1/1 1018/2/1 1019/3/1 1020/4/1
f 1021/1/1 1022/2/1 1023/3/1 1024/4/1

