# Tiled2Unity generated file. Do not modify by hand.
# Wavefront file for 'Village_mesh_0140.obj'

# Vertices (Count = 144)
v -224 -32 0
v -240 -32 0
v -240 -16 0
v -224 -16 0
v -208 -32 0
v -224 -32 0
v -224 -16 0
v -208 -16 0
v -32 -32 0
v -48 -32 0
v -48 -16 0
v -32 -16 0
v -16 -32 0
v -32 -32 0
v -32 -16 0
v -16 -16 0
v -224 -48 0
v -240 -48 0
v -240 -32 0
v -224 -32 0
v -208 -48 0
v -224 -48 0
v -224 -32 0
v -208 -32 0
v -224 -64 0
v -240 -64 0
v -240 -48 0
v -224 -48 0
v -208 -64 0
v -224 -64 0
v -224 -48 0
v -208 -48 0
v -192 -80 0
v -208 -80 0
v -208 -64 0
v -192 -64 0
v -176 -80 0
v -192 -80 0
v -192 -64 0
v -176 -64 0
v -192 -96 0
v -208 -96 0
v -208 -80 0
v -192 -80 0
v -176 -96 0
v -192 -96 0
v -192 -80 0
v -176 -80 0
v -240 -112 0
v -256 -112 0
v -256 -96 0
v -240 -96 0
v -224 -112 0
v -240 -112 0
v -240 -96 0
v -224 -96 0
v -192 -112 0
v -208 -112 0
v -208 -96 0
v -192 -96 0
v -176 -112 0
v -192 -112 0
v -192 -96 0
v -176 -96 0
v -240 -128 0
v -256 -128 0
v -256 -112 0
v -240 -112 0
v -224 -128 0
v -240 -128 0
v -240 -112 0
v -224 -112 0
v -240 -144 0
v -256 -144 0
v -256 -128 0
v -240 -128 0
v -224 -144 0
v -240 -144 0
v -240 -128 0
v -224 -128 0
v -240 -192 0
v -256 -192 0
v -256 -176 0
v -240 -176 0
v -224 -192 0
v -240 -192 0
v -240 -176 0
v -224 -176 0
v -176 -192 0
v -192 -192 0
v -192 -176 0
v -176 -176 0
v -160 -192 0
v -176 -192 0
v -176 -176 0
v -160 -176 0
v -240 -208 0
v -256 -208 0
v -256 -192 0
v -240 -192 0
v -224 -208 0
v -240 -208 0
v -240 -192 0
v -224 -192 0
v -176 -208 0
v -192 -208 0
v -192 -192 0
v -176 -192 0
v -160 -208 0
v -176 -208 0
v -176 -192 0
v -160 -192 0
v -240 -224 0
v -256 -224 0
v -256 -208 0
v -240 -208 0
v -224 -224 0
v -240 -224 0
v -240 -208 0
v -224 -208 0
v -176 -224 0
v -192 -224 0
v -192 -208 0
v -176 -208 0
v -160 -224 0
v -176 -224 0
v -176 -208 0
v -160 -208 0
v -224 -256 0
v -240 -256 0
v -240 -240 0
v -224 -240 0
v -208 -256 0
v -224 -256 0
v -224 -240 0
v -208 -240 0
v -48 -256 0
v -64 -256 0
v -64 -240 0
v -48 -240 0
v -32 -256 0
v -48 -256 0
v -48 -240 0
v -32 -240 0

# Texture cooridinates (Count = 18)
vt 0.171875 0.2936508
vt 0.1875 0.2936508
vt 0.1875 0.3015873
vt 0.171875 0.3015873
vt 0.15625 0.2936508
vt 0.15625 0.3015873
vt 0.140625 0.2460318
vt 0.15625 0.2460318
vt 0.15625 0.2539682
vt 0.140625 0.2539682
vt 0.125 0.2460318
vt 0.125 0.2539682
vt 0.171875 0.2857143
vt 0.1875 0.2857143
vt 0.15625 0.2857143
vt 0.171875 0.2777778
vt 0.1875 0.2777778
vt 0.15625 0.2777778

# Normal
vn 0 0 -1

# Mesh description
g Village_mesh_0140

# Faces
f 1/1/1 2/2/1 3/3/1 4/4/1
f 5/5/1 6/1/1 7/4/1 8/6/1
f 9/7/1 10/8/1 11/9/1 12/10/1
f 13/11/1 14/7/1 15/10/1 16/12/1
f 17/13/1 18/14/1 19/2/1 20/1/1
f 21/15/1 22/13/1 23/1/1 24/5/1
f 25/16/1 26/17/1 27/14/1 28/13/1
f 29/18/1 30/16/1 31/13/1 32/15/1
f 33/1/1 34/2/1 35/3/1 36/4/1
f 37/5/1 38/1/1 39/4/1 40/6/1
f 41/13/1 42/14/1 43/2/1 44/1/1
f 45/15/1 46/13/1 47/1/1 48/5/1
f 49/1/1 50/2/1 51/3/1 52/4/1
f 53/5/1 54/1/1 55/4/1 56/6/1
f 57/16/1 58/17/1 59/14/1 60/13/1
f 61/18/1 62/16/1 63/13/1 64/15/1
f 65/13/1 66/14/1 67/2/1 68/1/1
f 69/15/1 70/13/1 71/1/1 72/5/1
f 73/16/1 74/17/1 75/14/1 76/13/1
f 77/18/1 78/16/1 79/13/1 80/15/1
f 81/1/1 82/2/1 83/3/1 84/4/1
f 85/5/1 86/1/1 87/4/1 88/6/1
f 89/1/1 90/2/1 91/3/1 92/4/1
f 93/5/1 94/1/1 95/4/1 96/6/1
f 97/13/1 98/14/1 99/2/1 100/1/1
f 101/15/1 102/13/1 103/1/1 104/5/1
f 105/13/1 106/14/1 107/2/1 108/1/1
f 109/15/1 110/13/1 111/1/1 112/5/1
f 113/16/1 114/17/1 115/14/1 116/13/1
f 117/18/1 118/16/1 119/13/1 120/15/1
f 121/16/1 122/17/1 123/14/1 124/13/1
f 125/18/1 126/16/1 127/13/1 128/15/1
f 129/1/1 130/2/1 131/3/1 132/4/1
f 133/5/1 134/1/1 135/4/1 136/6/1
f 137/7/1 138/8/1 139/9/1 140/10/1
f 141/11/1 142/7/1 143/10/1 144/12/1

