# Tiled2Unity generated file. Do not modify by hand.
# Wavefront file for 'Village_mesh_0094.obj'

# Vertices (Count = 12)
v -32 -256 0
v -48 -256 0
v -48 -240 0
v -32 -240 0
v -16 -256 0
v -32 -256 0
v -32 -240 0
v -16 -240 0
v 0 -256 0
v -16 -256 0
v -16 -240 0
v 0 -240 0

# Texture cooridinates (Count = 6)
vt 0.078125 0.452381
vt 0.09375 0.452381
vt 0.09375 0.4603174
vt 0.078125 0.4603174
vt 0.0625 0.452381
vt 0.0625 0.4603174

# Normal
vn 0 0 -1

# Mesh description
g Village_mesh_0094

# Faces
f 1/1/1 2/2/1 3/3/1 4/4/1
f 5/5/1 6/1/1 7/4/1 8/6/1
f 9/1/1 10/2/1 11/3/1 12/4/1

