# Tiled2Unity generated file. Do not modify by hand.
# Wavefront file for 'Village_mesh_0083.obj'

# Vertices (Count = 168)
v -240 -16 0
v -256 -16 0
v -256 0 0
v -240 0 0
v -224 -16 0
v -240 -16 0
v -240 0 0
v -224 0 0
v -208 -16 0
v -224 -16 0
v -224 0 0
v -208 0 0
v -192 -16 0
v -208 -16 0
v -208 0 0
v -192 0 0
v -176 -16 0
v -192 -16 0
v -192 0 0
v -176 0 0
v -160 -16 0
v -176 -16 0
v -176 0 0
v -160 0 0
v -144 -16 0
v -160 -16 0
v -160 0 0
v -144 0 0
v -240 -32 0
v -256 -32 0
v -256 -16 0
v -240 -16 0
v -224 -32 0
v -240 -32 0
v -240 -16 0
v -224 -16 0
v -208 -32 0
v -224 -32 0
v -224 -16 0
v -208 -16 0
v -192 -32 0
v -208 -32 0
v -208 -16 0
v -192 -16 0
v -176 -32 0
v -192 -32 0
v -192 -16 0
v -176 -16 0
v -160 -32 0
v -176 -32 0
v -176 -16 0
v -160 -16 0
v -144 -32 0
v -160 -32 0
v -160 -16 0
v -144 -16 0
v -240 -48 0
v -256 -48 0
v -256 -32 0
v -240 -32 0
v -224 -48 0
v -240 -48 0
v -240 -32 0
v -224 -32 0
v -208 -48 0
v -224 -48 0
v -224 -32 0
v -208 -32 0
v -192 -48 0
v -208 -48 0
v -208 -32 0
v -192 -32 0
v -176 -48 0
v -192 -48 0
v -192 -32 0
v -176 -32 0
v -160 -48 0
v -176 -48 0
v -176 -32 0
v -160 -32 0
v -144 -48 0
v -160 -48 0
v -160 -32 0
v -144 -32 0
v -240 -64 0
v -256 -64 0
v -256 -48 0
v -240 -48 0
v -224 -64 0
v -240 -64 0
v -240 -48 0
v -224 -48 0
v -208 -64 0
v -224 -64 0
v -224 -48 0
v -208 -48 0
v -192 -64 0
v -208 -64 0
v -208 -48 0
v -192 -48 0
v -176 -64 0
v -192 -64 0
v -192 -48 0
v -176 -48 0
v -160 -64 0
v -176 -64 0
v -176 -48 0
v -160 -48 0
v -144 -64 0
v -160 -64 0
v -160 -48 0
v -144 -48 0
v -240 -80 0
v -256 -80 0
v -256 -64 0
v -240 -64 0
v -224 -80 0
v -240 -80 0
v -240 -64 0
v -224 -64 0
v -208 -80 0
v -224 -80 0
v -224 -64 0
v -208 -64 0
v -192 -80 0
v -208 -80 0
v -208 -64 0
v -192 -64 0
v -176 -80 0
v -192 -80 0
v -192 -64 0
v -176 -64 0
v -160 -80 0
v -176 -80 0
v -176 -64 0
v -160 -64 0
v -144 -80 0
v -160 -80 0
v -160 -64 0
v -144 -64 0
v -240 -96 0
v -256 -96 0
v -256 -80 0
v -240 -80 0
v -224 -96 0
v -240 -96 0
v -240 -80 0
v -224 -80 0
v -208 -96 0
v -224 -96 0
v -224 -80 0
v -208 -80 0
v -192 -96 0
v -208 -96 0
v -208 -80 0
v -192 -80 0
v -176 -96 0
v -192 -96 0
v -192 -80 0
v -176 -80 0
v -160 -96 0
v -176 -96 0
v -176 -80 0
v -160 -80 0
v -144 -96 0
v -160 -96 0
v -160 -80 0
v -144 -80 0

# Texture cooridinates (Count = 29)
vt 0.175 0.7222222
vt 0.2 0.7222222
vt 0.2 0.75
vt 0.175 0.75
vt 0.2 0.6944444
vt 0.225 0.6944444
vt 0.225 0.7222222
vt 0.175 0.6944444
vt 0.125 0.7222222
vt 0.15 0.7222222
vt 0.15 0.75
vt 0.125 0.75
vt 0.1 0.7222222
vt 0.1 0.75
vt 0.125 0.6944444
vt 0.15 0.6944444
vt 0.1 0.6944444
vt 0.125 0.6666666
vt 0.15 0.6666666
vt 0.1 0.6666666
vt 0.125 0.6388889
vt 0.15 0.6388889
vt 0.125 0.6111111
vt 0.15 0.6111111
vt 0.1 0.6388889
vt 0.1 0.6111111
vt 0.125 0.5833334
vt 0.15 0.5833334
vt 0.1 0.5833334

# Normal
vn 0 0 -1

# Mesh description
g Village_mesh_0083

# Faces
f 1/1/1 2/2/1 3/3/1 4/4/1
f 5/5/1 6/6/1 7/7/1 8/2/1
f 9/5/1 10/6/1 11/7/1 12/2/1
f 13/8/1 14/5/1 15/2/1 16/1/1
f 17/1/1 18/2/1 19/3/1 20/4/1
f 21/9/1 22/10/1 23/11/1 24/12/1
f 25/13/1 26/9/1 27/12/1 28/14/1
f 29/5/1 30/6/1 31/7/1 32/2/1
f 33/8/1 34/5/1 35/2/1 36/1/1
f 37/1/1 38/2/1 39/3/1 40/4/1
f 41/8/1 42/5/1 43/2/1 44/1/1
f 45/8/1 46/5/1 47/2/1 48/1/1
f 49/15/1 50/16/1 51/10/1 52/9/1
f 53/17/1 54/15/1 55/9/1 56/13/1
f 57/18/1 58/19/1 59/16/1 60/15/1
f 61/18/1 62/19/1 63/16/1 64/15/1
f 65/18/1 66/19/1 67/16/1 68/15/1
f 69/18/1 70/19/1 71/16/1 72/15/1
f 73/18/1 74/19/1 75/16/1 76/15/1
f 77/18/1 78/19/1 79/16/1 80/15/1
f 81/20/1 82/18/1 83/15/1 84/17/1
f 85/21/1 86/22/1 87/19/1 88/18/1
f 89/23/1 90/24/1 91/22/1 92/21/1
f 93/23/1 94/24/1 95/22/1 96/21/1
f 97/21/1 98/22/1 99/19/1 100/18/1
f 101/21/1 102/22/1 103/19/1 104/18/1
f 105/23/1 106/24/1 107/22/1 108/21/1
f 109/25/1 110/21/1 111/18/1 112/20/1
f 113/23/1 114/24/1 115/22/1 116/21/1
f 117/21/1 118/22/1 119/19/1 120/18/1
f 121/21/1 122/22/1 123/19/1 124/18/1
f 125/23/1 126/24/1 127/22/1 128/21/1
f 129/21/1 130/22/1 131/19/1 132/18/1
f 133/23/1 134/24/1 135/22/1 136/21/1
f 137/26/1 138/23/1 139/21/1 140/25/1
f 141/27/1 142/28/1 143/24/1 144/23/1
f 145/27/1 146/28/1 147/24/1 148/23/1
f 149/27/1 150/28/1 151/24/1 152/23/1
f 153/27/1 154/28/1 155/24/1 156/23/1
f 157/27/1 158/28/1 159/24/1 160/23/1
f 161/27/1 162/28/1 163/24/1 164/23/1
f 165/29/1 166/27/1 167/23/1 168/26/1

