# Tiled2Unity generated file. Do not modify by hand.
# Wavefront file for 'Village_mesh_0079.obj'

# Vertices (Count = 32)
v -112 -208 0
v -128 -208 0
v -128 -192 0
v -112 -192 0
v -96 -208 0
v -112 -208 0
v -112 -192 0
v -96 -192 0
v -80 -208 0
v -96 -208 0
v -96 -192 0
v -80 -192 0
v -64 -208 0
v -80 -208 0
v -80 -192 0
v -64 -192 0
v -112 -224 0
v -128 -224 0
v -128 -208 0
v -112 -208 0
v -96 -224 0
v -112 -224 0
v -112 -208 0
v -96 -208 0
v -80 -224 0
v -96 -224 0
v -96 -208 0
v -80 -208 0
v -64 -224 0
v -80 -224 0
v -80 -208 0
v -64 -208 0

# Texture cooridinates (Count = 15)
vt 0.109375 0.1984127
vt 0.125 0.1984127
vt 0.125 0.2063492
vt 0.109375 0.2063492
vt 0.09375 0.1984127
vt 0.09375 0.2063492
vt 0.078125 0.1984127
vt 0.078125 0.2063492
vt 0.0625 0.1984127
vt 0.0625 0.2063492
vt 0.109375 0.1904762
vt 0.125 0.1904762
vt 0.09375 0.1904762
vt 0.078125 0.1904762
vt 0.0625 0.1904762

# Normal
vn 0 0 -1

# Mesh description
g Village_mesh_0079

# Faces
f 1/1/1 2/2/1 3/3/1 4/4/1
f 5/5/1 6/1/1 7/4/1 8/6/1
f 9/7/1 10/5/1 11/6/1 12/8/1
f 13/9/1 14/7/1 15/8/1 16/10/1
f 17/11/1 18/12/1 19/2/1 20/1/1
f 21/13/1 22/11/1 23/1/1 24/5/1
f 25/14/1 26/13/1 27/5/1 28/7/1
f 29/15/1 30/14/1 31/7/1 32/9/1

