# Tiled2Unity generated file. Do not modify by hand.
# Wavefront file for 'Village_mesh_0109.obj'

# Vertices (Count = 20)
v 0 -16 0
v -16 -16 0
v -16 0 0
v 0 0 0
v 0 -32 0
v -16 -32 0
v -16 -16 0
v 0 -16 0
v 0 -48 0
v -16 -48 0
v -16 -32 0
v 0 -32 0
v 0 -64 0
v -16 -64 0
v -16 -48 0
v 0 -48 0
v -208 -208 0
v -224 -208 0
v -224 -192 0
v -208 -192 0

# Texture cooridinates (Count = 10)
vt 0.175 0.5833334
vt 0.2 0.5833334
vt 0.2 0.6111111
vt 0.175 0.6111111
vt 0.175 0.5555556
vt 0.2 0.5555556
vt 0.175 0.8333333
vt 0.2 0.8333333
vt 0.2 0.8611111
vt 0.175 0.8611111

# Normal
vn 0 0 -1

# Mesh description
g Village_mesh_0109

# Faces
f 1/1/1 2/2/1 3/3/1 4/4/1
f 5/1/1 6/2/1 7/3/1 8/4/1
f 9/1/1 10/2/1 11/3/1 12/4/1
f 13/5/1 14/6/1 15/2/1 16/1/1
f 17/7/1 18/8/1 19/9/1 20/10/1

