# Tiled2Unity generated file. Do not modify by hand.
# Wavefront file for 'Village_mesh_0036.obj'

# Vertices (Count = 1024)
v -240 -16 0
v -256 -16 0
v -256 0 0
v -240 0 0
v -224 -16 0
v -240 -16 0
v -240 0 0
v -224 0 0
v -208 -16 0
v -224 -16 0
v -224 0 0
v -208 0 0
v -192 -16 0
v -208 -16 0
v -208 0 0
v -192 0 0
v -176 -16 0
v -192 -16 0
v -192 0 0
v -176 0 0
v -160 -16 0
v -176 -16 0
v -176 0 0
v -160 0 0
v -144 -16 0
v -160 -16 0
v -160 0 0
v -144 0 0
v -128 -16 0
v -144 -16 0
v -144 0 0
v -128 0 0
v -112 -16 0
v -128 -16 0
v -128 0 0
v -112 0 0
v -96 -16 0
v -112 -16 0
v -112 0 0
v -96 0 0
v -80 -16 0
v -96 -16 0
v -96 0 0
v -80 0 0
v -64 -16 0
v -80 -16 0
v -80 0 0
v -64 0 0
v -48 -16 0
v -64 -16 0
v -64 0 0
v -48 0 0
v -32 -16 0
v -48 -16 0
v -48 0 0
v -32 0 0
v -16 -16 0
v -32 -16 0
v -32 0 0
v -16 0 0
v 0 -16 0
v -16 -16 0
v -16 0 0
v 0 0 0
v -240 -32 0
v -256 -32 0
v -256 -16 0
v -240 -16 0
v -224 -32 0
v -240 -32 0
v -240 -16 0
v -224 -16 0
v -208 -32 0
v -224 -32 0
v -224 -16 0
v -208 -16 0
v -192 -32 0
v -208 -32 0
v -208 -16 0
v -192 -16 0
v -176 -32 0
v -192 -32 0
v -192 -16 0
v -176 -16 0
v -160 -32 0
v -176 -32 0
v -176 -16 0
v -160 -16 0
v -144 -32 0
v -160 -32 0
v -160 -16 0
v -144 -16 0
v -128 -32 0
v -144 -32 0
v -144 -16 0
v -128 -16 0
v -112 -32 0
v -128 -32 0
v -128 -16 0
v -112 -16 0
v -96 -32 0
v -112 -32 0
v -112 -16 0
v -96 -16 0
v -80 -32 0
v -96 -32 0
v -96 -16 0
v -80 -16 0
v -64 -32 0
v -80 -32 0
v -80 -16 0
v -64 -16 0
v -48 -32 0
v -64 -32 0
v -64 -16 0
v -48 -16 0
v -32 -32 0
v -48 -32 0
v -48 -16 0
v -32 -16 0
v -16 -32 0
v -32 -32 0
v -32 -16 0
v -16 -16 0
v 0 -32 0
v -16 -32 0
v -16 -16 0
v 0 -16 0
v -240 -48 0
v -256 -48 0
v -256 -32 0
v -240 -32 0
v -224 -48 0
v -240 -48 0
v -240 -32 0
v -224 -32 0
v -208 -48 0
v -224 -48 0
v -224 -32 0
v -208 -32 0
v -192 -48 0
v -208 -48 0
v -208 -32 0
v -192 -32 0
v -176 -48 0
v -192 -48 0
v -192 -32 0
v -176 -32 0
v -160 -48 0
v -176 -48 0
v -176 -32 0
v -160 -32 0
v -144 -48 0
v -160 -48 0
v -160 -32 0
v -144 -32 0
v -128 -48 0
v -144 -48 0
v -144 -32 0
v -128 -32 0
v -112 -48 0
v -128 -48 0
v -128 -32 0
v -112 -32 0
v -96 -48 0
v -112 -48 0
v -112 -32 0
v -96 -32 0
v -80 -48 0
v -96 -48 0
v -96 -32 0
v -80 -32 0
v -64 -48 0
v -80 -48 0
v -80 -32 0
v -64 -32 0
v -48 -48 0
v -64 -48 0
v -64 -32 0
v -48 -32 0
v -32 -48 0
v -48 -48 0
v -48 -32 0
v -32 -32 0
v -16 -48 0
v -32 -48 0
v -32 -32 0
v -16 -32 0
v 0 -48 0
v -16 -48 0
v -16 -32 0
v 0 -32 0
v -240 -64 0
v -256 -64 0
v -256 -48 0
v -240 -48 0
v -224 -64 0
v -240 -64 0
v -240 -48 0
v -224 -48 0
v -208 -64 0
v -224 -64 0
v -224 -48 0
v -208 -48 0
v -192 -64 0
v -208 -64 0
v -208 -48 0
v -192 -48 0
v -176 -64 0
v -192 -64 0
v -192 -48 0
v -176 -48 0
v -160 -64 0
v -176 -64 0
v -176 -48 0
v -160 -48 0
v -144 -64 0
v -160 -64 0
v -160 -48 0
v -144 -48 0
v -128 -64 0
v -144 -64 0
v -144 -48 0
v -128 -48 0
v -112 -64 0
v -128 -64 0
v -128 -48 0
v -112 -48 0
v -96 -64 0
v -112 -64 0
v -112 -48 0
v -96 -48 0
v -80 -64 0
v -96 -64 0
v -96 -48 0
v -80 -48 0
v -64 -64 0
v -80 -64 0
v -80 -48 0
v -64 -48 0
v -48 -64 0
v -64 -64 0
v -64 -48 0
v -48 -48 0
v -32 -64 0
v -48 -64 0
v -48 -48 0
v -32 -48 0
v -16 -64 0
v -32 -64 0
v -32 -48 0
v -16 -48 0
v 0 -64 0
v -16 -64 0
v -16 -48 0
v 0 -48 0
v -240 -80 0
v -256 -80 0
v -256 -64 0
v -240 -64 0
v -224 -80 0
v -240 -80 0
v -240 -64 0
v -224 -64 0
v -208 -80 0
v -224 -80 0
v -224 -64 0
v -208 -64 0
v -192 -80 0
v -208 -80 0
v -208 -64 0
v -192 -64 0
v -176 -80 0
v -192 -80 0
v -192 -64 0
v -176 -64 0
v -160 -80 0
v -176 -80 0
v -176 -64 0
v -160 -64 0
v -144 -80 0
v -160 -80 0
v -160 -64 0
v -144 -64 0
v -128 -80 0
v -144 -80 0
v -144 -64 0
v -128 -64 0
v -112 -80 0
v -128 -80 0
v -128 -64 0
v -112 -64 0
v -96 -80 0
v -112 -80 0
v -112 -64 0
v -96 -64 0
v -80 -80 0
v -96 -80 0
v -96 -64 0
v -80 -64 0
v -64 -80 0
v -80 -80 0
v -80 -64 0
v -64 -64 0
v -48 -80 0
v -64 -80 0
v -64 -64 0
v -48 -64 0
v -32 -80 0
v -48 -80 0
v -48 -64 0
v -32 -64 0
v -16 -80 0
v -32 -80 0
v -32 -64 0
v -16 -64 0
v 0 -80 0
v -16 -80 0
v -16 -64 0
v 0 -64 0
v -240 -96 0
v -256 -96 0
v -256 -80 0
v -240 -80 0
v -224 -96 0
v -240 -96 0
v -240 -80 0
v -224 -80 0
v -208 -96 0
v -224 -96 0
v -224 -80 0
v -208 -80 0
v -192 -96 0
v -208 -96 0
v -208 -80 0
v -192 -80 0
v -176 -96 0
v -192 -96 0
v -192 -80 0
v -176 -80 0
v -160 -96 0
v -176 -96 0
v -176 -80 0
v -160 -80 0
v -144 -96 0
v -160 -96 0
v -160 -80 0
v -144 -80 0
v -128 -96 0
v -144 -96 0
v -144 -80 0
v -128 -80 0
v -112 -96 0
v -128 -96 0
v -128 -80 0
v -112 -80 0
v -96 -96 0
v -112 -96 0
v -112 -80 0
v -96 -80 0
v -80 -96 0
v -96 -96 0
v -96 -80 0
v -80 -80 0
v -64 -96 0
v -80 -96 0
v -80 -80 0
v -64 -80 0
v -48 -96 0
v -64 -96 0
v -64 -80 0
v -48 -80 0
v -32 -96 0
v -48 -96 0
v -48 -80 0
v -32 -80 0
v -16 -96 0
v -32 -96 0
v -32 -80 0
v -16 -80 0
v 0 -96 0
v -16 -96 0
v -16 -80 0
v 0 -80 0
v -240 -112 0
v -256 -112 0
v -256 -96 0
v -240 -96 0
v -224 -112 0
v -240 -112 0
v -240 -96 0
v -224 -96 0
v -208 -112 0
v -224 -112 0
v -224 -96 0
v -208 -96 0
v -192 -112 0
v -208 -112 0
v -208 -96 0
v -192 -96 0
v -176 -112 0
v -192 -112 0
v -192 -96 0
v -176 -96 0
v -160 -112 0
v -176 -112 0
v -176 -96 0
v -160 -96 0
v -144 -112 0
v -160 -112 0
v -160 -96 0
v -144 -96 0
v -128 -112 0
v -144 -112 0
v -144 -96 0
v -128 -96 0
v -112 -112 0
v -128 -112 0
v -128 -96 0
v -112 -96 0
v -96 -112 0
v -112 -112 0
v -112 -96 0
v -96 -96 0
v -80 -112 0
v -96 -112 0
v -96 -96 0
v -80 -96 0
v -64 -112 0
v -80 -112 0
v -80 -96 0
v -64 -96 0
v -48 -112 0
v -64 -112 0
v -64 -96 0
v -48 -96 0
v -32 -112 0
v -48 -112 0
v -48 -96 0
v -32 -96 0
v -16 -112 0
v -32 -112 0
v -32 -96 0
v -16 -96 0
v 0 -112 0
v -16 -112 0
v -16 -96 0
v 0 -96 0
v -240 -128 0
v -256 -128 0
v -256 -112 0
v -240 -112 0
v -224 -128 0
v -240 -128 0
v -240 -112 0
v -224 -112 0
v -208 -128 0
v -224 -128 0
v -224 -112 0
v -208 -112 0
v -192 -128 0
v -208 -128 0
v -208 -112 0
v -192 -112 0
v -176 -128 0
v -192 -128 0
v -192 -112 0
v -176 -112 0
v -160 -128 0
v -176 -128 0
v -176 -112 0
v -160 -112 0
v -144 -128 0
v -160 -128 0
v -160 -112 0
v -144 -112 0
v -128 -128 0
v -144 -128 0
v -144 -112 0
v -128 -112 0
v -112 -128 0
v -128 -128 0
v -128 -112 0
v -112 -112 0
v -96 -128 0
v -112 -128 0
v -112 -112 0
v -96 -112 0
v -80 -128 0
v -96 -128 0
v -96 -112 0
v -80 -112 0
v -64 -128 0
v -80 -128 0
v -80 -112 0
v -64 -112 0
v -48 -128 0
v -64 -128 0
v -64 -112 0
v -48 -112 0
v -32 -128 0
v -48 -128 0
v -48 -112 0
v -32 -112 0
v -16 -128 0
v -32 -128 0
v -32 -112 0
v -16 -112 0
v 0 -128 0
v -16 -128 0
v -16 -112 0
v 0 -112 0
v -240 -144 0
v -256 -144 0
v -256 -128 0
v -240 -128 0
v -224 -144 0
v -240 -144 0
v -240 -128 0
v -224 -128 0
v -208 -144 0
v -224 -144 0
v -224 -128 0
v -208 -128 0
v -192 -144 0
v -208 -144 0
v -208 -128 0
v -192 -128 0
v -176 -144 0
v -192 -144 0
v -192 -128 0
v -176 -128 0
v -160 -144 0
v -176 -144 0
v -176 -128 0
v -160 -128 0
v -144 -144 0
v -160 -144 0
v -160 -128 0
v -144 -128 0
v -128 -144 0
v -144 -144 0
v -144 -128 0
v -128 -128 0
v -112 -144 0
v -128 -144 0
v -128 -128 0
v -112 -128 0
v -96 -144 0
v -112 -144 0
v -112 -128 0
v -96 -128 0
v -80 -144 0
v -96 -144 0
v -96 -128 0
v -80 -128 0
v -64 -144 0
v -80 -144 0
v -80 -128 0
v -64 -128 0
v -48 -144 0
v -64 -144 0
v -64 -128 0
v -48 -128 0
v -32 -144 0
v -48 -144 0
v -48 -128 0
v -32 -128 0
v -16 -144 0
v -32 -144 0
v -32 -128 0
v -16 -128 0
v 0 -144 0
v -16 -144 0
v -16 -128 0
v 0 -128 0
v -240 -160 0
v -256 -160 0
v -256 -144 0
v -240 -144 0
v -224 -160 0
v -240 -160 0
v -240 -144 0
v -224 -144 0
v -208 -160 0
v -224 -160 0
v -224 -144 0
v -208 -144 0
v -192 -160 0
v -208 -160 0
v -208 -144 0
v -192 -144 0
v -176 -160 0
v -192 -160 0
v -192 -144 0
v -176 -144 0
v -160 -160 0
v -176 -160 0
v -176 -144 0
v -160 -144 0
v -144 -160 0
v -160 -160 0
v -160 -144 0
v -144 -144 0
v -128 -160 0
v -144 -160 0
v -144 -144 0
v -128 -144 0
v -112 -160 0
v -128 -160 0
v -128 -144 0
v -112 -144 0
v -96 -160 0
v -112 -160 0
v -112 -144 0
v -96 -144 0
v -80 -160 0
v -96 -160 0
v -96 -144 0
v -80 -144 0
v -64 -160 0
v -80 -160 0
v -80 -144 0
v -64 -144 0
v -48 -160 0
v -64 -160 0
v -64 -144 0
v -48 -144 0
v -32 -160 0
v -48 -160 0
v -48 -144 0
v -32 -144 0
v -16 -160 0
v -32 -160 0
v -32 -144 0
v -16 -144 0
v 0 -160 0
v -16 -160 0
v -16 -144 0
v 0 -144 0
v -240 -176 0
v -256 -176 0
v -256 -160 0
v -240 -160 0
v -224 -176 0
v -240 -176 0
v -240 -160 0
v -224 -160 0
v -208 -176 0
v -224 -176 0
v -224 -160 0
v -208 -160 0
v -192 -176 0
v -208 -176 0
v -208 -160 0
v -192 -160 0
v -176 -176 0
v -192 -176 0
v -192 -160 0
v -176 -160 0
v -160 -176 0
v -176 -176 0
v -176 -160 0
v -160 -160 0
v -144 -176 0
v -160 -176 0
v -160 -160 0
v -144 -160 0
v -128 -176 0
v -144 -176 0
v -144 -160 0
v -128 -160 0
v -112 -176 0
v -128 -176 0
v -128 -160 0
v -112 -160 0
v -96 -176 0
v -112 -176 0
v -112 -160 0
v -96 -160 0
v -80 -176 0
v -96 -176 0
v -96 -160 0
v -80 -160 0
v -64 -176 0
v -80 -176 0
v -80 -160 0
v -64 -160 0
v -48 -176 0
v -64 -176 0
v -64 -160 0
v -48 -160 0
v -32 -176 0
v -48 -176 0
v -48 -160 0
v -32 -160 0
v -16 -176 0
v -32 -176 0
v -32 -160 0
v -16 -160 0
v 0 -176 0
v -16 -176 0
v -16 -160 0
v 0 -160 0
v -240 -192 0
v -256 -192 0
v -256 -176 0
v -240 -176 0
v -224 -192 0
v -240 -192 0
v -240 -176 0
v -224 -176 0
v -208 -192 0
v -224 -192 0
v -224 -176 0
v -208 -176 0
v -192 -192 0
v -208 -192 0
v -208 -176 0
v -192 -176 0
v -176 -192 0
v -192 -192 0
v -192 -176 0
v -176 -176 0
v -160 -192 0
v -176 -192 0
v -176 -176 0
v -160 -176 0
v -144 -192 0
v -160 -192 0
v -160 -176 0
v -144 -176 0
v -128 -192 0
v -144 -192 0
v -144 -176 0
v -128 -176 0
v -112 -192 0
v -128 -192 0
v -128 -176 0
v -112 -176 0
v -96 -192 0
v -112 -192 0
v -112 -176 0
v -96 -176 0
v -80 -192 0
v -96 -192 0
v -96 -176 0
v -80 -176 0
v -64 -192 0
v -80 -192 0
v -80 -176 0
v -64 -176 0
v -48 -192 0
v -64 -192 0
v -64 -176 0
v -48 -176 0
v -32 -192 0
v -48 -192 0
v -48 -176 0
v -32 -176 0
v -16 -192 0
v -32 -192 0
v -32 -176 0
v -16 -176 0
v 0 -192 0
v -16 -192 0
v -16 -176 0
v 0 -176 0
v -240 -208 0
v -256 -208 0
v -256 -192 0
v -240 -192 0
v -224 -208 0
v -240 -208 0
v -240 -192 0
v -224 -192 0
v -208 -208 0
v -224 -208 0
v -224 -192 0
v -208 -192 0
v -192 -208 0
v -208 -208 0
v -208 -192 0
v -192 -192 0
v -176 -208 0
v -192 -208 0
v -192 -192 0
v -176 -192 0
v -160 -208 0
v -176 -208 0
v -176 -192 0
v -160 -192 0
v -144 -208 0
v -160 -208 0
v -160 -192 0
v -144 -192 0
v -128 -208 0
v -144 -208 0
v -144 -192 0
v -128 -192 0
v -112 -208 0
v -128 -208 0
v -128 -192 0
v -112 -192 0
v -96 -208 0
v -112 -208 0
v -112 -192 0
v -96 -192 0
v -80 -208 0
v -96 -208 0
v -96 -192 0
v -80 -192 0
v -64 -208 0
v -80 -208 0
v -80 -192 0
v -64 -192 0
v -48 -208 0
v -64 -208 0
v -64 -192 0
v -48 -192 0
v -32 -208 0
v -48 -208 0
v -48 -192 0
v -32 -192 0
v -16 -208 0
v -32 -208 0
v -32 -192 0
v -16 -192 0
v 0 -208 0
v -16 -208 0
v -16 -192 0
v 0 -192 0
v -240 -224 0
v -256 -224 0
v -256 -208 0
v -240 -208 0
v -224 -224 0
v -240 -224 0
v -240 -208 0
v -224 -208 0
v -208 -224 0
v -224 -224 0
v -224 -208 0
v -208 -208 0
v -192 -224 0
v -208 -224 0
v -208 -208 0
v -192 -208 0
v -176 -224 0
v -192 -224 0
v -192 -208 0
v -176 -208 0
v -160 -224 0
v -176 -224 0
v -176 -208 0
v -160 -208 0
v -144 -224 0
v -160 -224 0
v -160 -208 0
v -144 -208 0
v -128 -224 0
v -144 -224 0
v -144 -208 0
v -128 -208 0
v -112 -224 0
v -128 -224 0
v -128 -208 0
v -112 -208 0
v -96 -224 0
v -112 -224 0
v -112 -208 0
v -96 -208 0
v -80 -224 0
v -96 -224 0
v -96 -208 0
v -80 -208 0
v -64 -224 0
v -80 -224 0
v -80 -208 0
v -64 -208 0
v -48 -224 0
v -64 -224 0
v -64 -208 0
v -48 -208 0
v -32 -224 0
v -48 -224 0
v -48 -208 0
v -32 -208 0
v -16 -224 0
v -32 -224 0
v -32 -208 0
v -16 -208 0
v 0 -224 0
v -16 -224 0
v -16 -208 0
v 0 -208 0
v -240 -240 0
v -256 -240 0
v -256 -224 0
v -240 -224 0
v -224 -240 0
v -240 -240 0
v -240 -224 0
v -224 -224 0
v -208 -240 0
v -224 -240 0
v -224 -224 0
v -208 -224 0
v -192 -240 0
v -208 -240 0
v -208 -224 0
v -192 -224 0
v -176 -240 0
v -192 -240 0
v -192 -224 0
v -176 -224 0
v -160 -240 0
v -176 -240 0
v -176 -224 0
v -160 -224 0
v -144 -240 0
v -160 -240 0
v -160 -224 0
v -144 -224 0
v -128 -240 0
v -144 -240 0
v -144 -224 0
v -128 -224 0
v -112 -240 0
v -128 -240 0
v -128 -224 0
v -112 -224 0
v -96 -240 0
v -112 -240 0
v -112 -224 0
v -96 -224 0
v -80 -240 0
v -96 -240 0
v -96 -224 0
v -80 -224 0
v -64 -240 0
v -80 -240 0
v -80 -224 0
v -64 -224 0
v -48 -240 0
v -64 -240 0
v -64 -224 0
v -48 -224 0
v -32 -240 0
v -48 -240 0
v -48 -224 0
v -32 -224 0
v -16 -240 0
v -32 -240 0
v -32 -224 0
v -16 -224 0
v 0 -240 0
v -16 -240 0
v -16 -224 0
v 0 -224 0
v -240 -256 0
v -256 -256 0
v -256 -240 0
v -240 -240 0
v -224 -256 0
v -240 -256 0
v -240 -240 0
v -224 -240 0
v -208 -256 0
v -224 -256 0
v -224 -240 0
v -208 -240 0
v -192 -256 0
v -208 -256 0
v -208 -240 0
v -192 -240 0
v -176 -256 0
v -192 -256 0
v -192 -240 0
v -176 -240 0
v -160 -256 0
v -176 -256 0
v -176 -240 0
v -160 -240 0
v -144 -256 0
v -160 -256 0
v -160 -240 0
v -144 -240 0
v -128 -256 0
v -144 -256 0
v -144 -240 0
v -128 -240 0
v -112 -256 0
v -128 -256 0
v -128 -240 0
v -112 -240 0
v -96 -256 0
v -112 -256 0
v -112 -240 0
v -96 -240 0
v -80 -256 0
v -96 -256 0
v -96 -240 0
v -80 -240 0
v -64 -256 0
v -80 -256 0
v -80 -240 0
v -64 -240 0
v -48 -256 0
v -64 -256 0
v -64 -240 0
v -48 -240 0
v -32 -256 0
v -48 -256 0
v -48 -240 0
v -32 -240 0
v -16 -256 0
v -32 -256 0
v -32 -240 0
v -16 -240 0
v 0 -256 0
v -16 -256 0
v -16 -240 0
v 0 -240 0

# Texture cooridinates (Count = 9)
vt 0.2 0.7222222
vt 0.225 0.7222222
vt 0.225 0.75
vt 0.2 0.75
vt 0.175 0.6944444
vt 0.2 0.6944444
vt 0.175 0.7222222
vt 0.225 0.6944444
vt 0.175 0.75

# Normal
vn 0 0 -1

# Mesh description
g Village_mesh_0036

# Faces
f 1/1/1 2/2/1 3/3/1 4/4/1
f 5/5/1 6/6/1 7/1/1 8/7/1
f 9/5/1 10/6/1 11/1/1 12/7/1
f 13/1/1 14/2/1 15/3/1 16/4/1
f 17/6/1 18/8/1 19/2/1 20/1/1
f 21/6/1 22/8/1 23/2/1 24/1/1
f 25/5/1 26/6/1 27/1/1 28/7/1
f 29/1/1 30/2/1 31/3/1 32/4/1
f 33/5/1 34/6/1 35/1/1 36/7/1
f 37/6/1 38/8/1 39/2/1 40/1/1
f 41/7/1 42/1/1 43/4/1 44/9/1
f 45/7/1 46/1/1 47/4/1 48/9/1
f 49/7/1 50/1/1 51/4/1 52/9/1
f 53/1/1 54/2/1 55/3/1 56/4/1
f 57/5/1 58/6/1 59/1/1 60/7/1
f 61/6/1 62/8/1 63/2/1 64/1/1
f 65/6/1 66/8/1 67/2/1 68/1/1
f 69/6/1 70/8/1 71/2/1 72/1/1
f 73/7/1 74/1/1 75/4/1 76/9/1
f 77/5/1 78/6/1 79/1/1 80/7/1
f 81/5/1 82/6/1 83/1/1 84/7/1
f 85/1/1 86/2/1 87/3/1 88/4/1
f 89/6/1 90/8/1 91/2/1 92/1/1
f 93/6/1 94/8/1 95/2/1 96/1/1
f 97/1/1 98/2/1 99/3/1 100/4/1
f 101/6/1 102/8/1 103/2/1 104/1/1
f 105/6/1 106/8/1 107/2/1 108/1/1
f 109/7/1 110/1/1 111/4/1 112/9/1
f 113/6/1 114/8/1 115/2/1 116/1/1
f 117/5/1 118/6/1 119/1/1 120/7/1
f 121/6/1 122/8/1 123/2/1 124/1/1
f 125/6/1 126/8/1 127/2/1 128/1/1
f 129/7/1 130/1/1 131/4/1 132/9/1
f 133/6/1 134/8/1 135/2/1 136/1/1
f 137/6/1 138/8/1 139/2/1 140/1/1
f 141/1/1 142/2/1 143/3/1 144/4/1
f 145/7/1 146/1/1 147/4/1 148/9/1
f 149/5/1 150/6/1 151/1/1 152/7/1
f 153/5/1 154/6/1 155/1/1 156/7/1
f 157/1/1 158/2/1 159/3/1 160/4/1
f 161/5/1 162/6/1 163/1/1 164/7/1
f 165/5/1 166/6/1 167/1/1 168/7/1
f 169/6/1 170/8/1 171/2/1 172/1/1
f 173/5/1 174/6/1 175/1/1 176/7/1
f 177/6/1 178/8/1 179/2/1 180/1/1
f 181/5/1 182/6/1 183/1/1 184/7/1
f 185/5/1 186/6/1 187/1/1 188/7/1
f 189/5/1 190/6/1 191/1/1 192/7/1
f 193/5/1 194/6/1 195/1/1 196/7/1
f 197/7/1 198/1/1 199/4/1 200/9/1
f 201/5/1 202/6/1 203/1/1 204/7/1
f 205/5/1 206/6/1 207/1/1 208/7/1
f 209/7/1 210/1/1 211/4/1 212/9/1
f 213/5/1 214/6/1 215/1/1 216/7/1
f 217/1/1 218/2/1 219/3/1 220/4/1
f 221/1/1 222/2/1 223/3/1 224/4/1
f 225/7/1 226/1/1 227/4/1 228/9/1
f 229/6/1 230/8/1 231/2/1 232/1/1
f 233/6/1 234/8/1 235/2/1 236/1/1
f 237/1/1 238/2/1 239/3/1 240/4/1
f 241/7/1 242/1/1 243/4/1 244/9/1
f 245/6/1 246/8/1 247/2/1 248/1/1
f 249/7/1 250/1/1 251/4/1 252/9/1
f 253/7/1 254/1/1 255/4/1 256/9/1
f 257/6/1 258/8/1 259/2/1 260/1/1
f 261/1/1 262/2/1 263/3/1 264/4/1
f 265/7/1 266/1/1 267/4/1 268/9/1
f 269/7/1 270/1/1 271/4/1 272/9/1
f 273/7/1 274/1/1 275/4/1 276/9/1
f 277/5/1 278/6/1 279/1/1 280/7/1
f 281/7/1 282/1/1 283/4/1 284/9/1
f 285/6/1 286/8/1 287/2/1 288/1/1
f 289/7/1 290/1/1 291/4/1 292/9/1
f 293/1/1 294/2/1 295/3/1 296/4/1
f 297/1/1 298/2/1 299/3/1 300/4/1
f 301/6/1 302/8/1 303/2/1 304/1/1
f 305/6/1 306/8/1 307/2/1 308/1/1
f 309/7/1 310/1/1 311/4/1 312/9/1
f 313/5/1 314/6/1 315/1/1 316/7/1
f 317/5/1 318/6/1 319/1/1 320/7/1
f 321/5/1 322/6/1 323/1/1 324/7/1
f 325/7/1 326/1/1 327/4/1 328/9/1
f 329/6/1 330/8/1 331/2/1 332/1/1
f 333/5/1 334/6/1 335/1/1 336/7/1
f 337/7/1 338/1/1 339/4/1 340/9/1
f 341/7/1 342/1/1 343/4/1 344/9/1
f 345/1/1 346/2/1 347/3/1 348/4/1
f 349/1/1 350/2/1 351/3/1 352/4/1
f 353/7/1 354/1/1 355/4/1 356/9/1
f 357/6/1 358/8/1 359/2/1 360/1/1
f 361/5/1 362/6/1 363/1/1 364/7/1
f 365/1/1 366/2/1 367/3/1 368/4/1
f 369/1/1 370/2/1 371/3/1 372/4/1
f 373/5/1 374/6/1 375/1/1 376/7/1
f 377/7/1 378/1/1 379/4/1 380/9/1
f 381/5/1 382/6/1 383/1/1 384/7/1
f 385/6/1 386/8/1 387/2/1 388/1/1
f 389/5/1 390/6/1 391/1/1 392/7/1
f 393/6/1 394/8/1 395/2/1 396/1/1
f 397/5/1 398/6/1 399/1/1 400/7/1
f 401/1/1 402/2/1 403/3/1 404/4/1
f 405/6/1 406/8/1 407/2/1 408/1/1
f 409/6/1 410/8/1 411/2/1 412/1/1
f 413/5/1 414/6/1 415/1/1 416/7/1
f 417/1/1 418/2/1 419/3/1 420/4/1
f 421/7/1 422/1/1 423/4/1 424/9/1
f 425/1/1 426/2/1 427/3/1 428/4/1
f 429/1/1 430/2/1 431/3/1 432/4/1
f 433/7/1 434/1/1 435/4/1 436/9/1
f 437/6/1 438/8/1 439/2/1 440/1/1
f 441/5/1 442/6/1 443/1/1 444/7/1
f 445/1/1 446/2/1 447/3/1 448/4/1
f 449/1/1 450/2/1 451/3/1 452/4/1
f 453/5/1 454/6/1 455/1/1 456/7/1
f 457/7/1 458/1/1 459/4/1 460/9/1
f 461/6/1 462/8/1 463/2/1 464/1/1
f 465/6/1 466/8/1 467/2/1 468/1/1
f 469/7/1 470/1/1 471/4/1 472/9/1
f 473/7/1 474/1/1 475/4/1 476/9/1
f 477/6/1 478/8/1 479/2/1 480/1/1
f 481/7/1 482/1/1 483/4/1 484/9/1
f 485/1/1 486/2/1 487/3/1 488/4/1
f 489/1/1 490/2/1 491/3/1 492/4/1
f 493/5/1 494/6/1 495/1/1 496/7/1
f 497/6/1 498/8/1 499/2/1 500/1/1
f 501/7/1 502/1/1 503/4/1 504/9/1
f 505/6/1 506/8/1 507/2/1 508/1/1
f 509/6/1 510/8/1 511/2/1 512/1/1
f 513/6/1 514/8/1 515/2/1 516/1/1
f 517/7/1 518/1/1 519/4/1 520/9/1
f 521/6/1 522/8/1 523/2/1 524/1/1
f 525/1/1 526/2/1 527/3/1 528/4/1
f 529/6/1 530/8/1 531/2/1 532/1/1
f 533/1/1 534/2/1 535/3/1 536/4/1
f 537/5/1 538/6/1 539/1/1 540/7/1
f 541/6/1 542/8/1 543/2/1 544/1/1
f 545/7/1 546/1/1 547/4/1 548/9/1
f 549/7/1 550/1/1 551/4/1 552/9/1
f 553/5/1 554/6/1 555/1/1 556/7/1
f 557/7/1 558/1/1 559/4/1 560/9/1
f 561/7/1 562/1/1 563/4/1 564/9/1
f 565/5/1 566/6/1 567/1/1 568/7/1
f 569/5/1 570/6/1 571/1/1 572/7/1
f 573/1/1 574/2/1 575/3/1 576/4/1
f 577/5/1 578/6/1 579/1/1 580/7/1
f 581/1/1 582/2/1 583/3/1 584/4/1
f 585/7/1 586/1/1 587/4/1 588/9/1
f 589/7/1 590/1/1 591/4/1 592/9/1
f 593/5/1 594/6/1 595/1/1 596/7/1
f 597/6/1 598/8/1 599/2/1 600/1/1
f 601/5/1 602/6/1 603/1/1 604/7/1
f 605/7/1 606/1/1 607/4/1 608/9/1
f 609/5/1 610/6/1 611/1/1 612/7/1
f 613/6/1 614/8/1 615/2/1 616/1/1
f 617/1/1 618/2/1 619/3/1 620/4/1
f 621/1/1 622/2/1 623/3/1 624/4/1
f 625/5/1 626/6/1 627/1/1 628/7/1
f 629/1/1 630/2/1 631/3/1 632/4/1
f 633/7/1 634/1/1 635/4/1 636/9/1
f 637/5/1 638/6/1 639/1/1 640/7/1
f 641/7/1 642/1/1 643/4/1 644/9/1
f 645/1/1 646/2/1 647/3/1 648/4/1
f 649/1/1 650/2/1 651/3/1 652/4/1
f 653/6/1 654/8/1 655/2/1 656/1/1
f 657/5/1 658/6/1 659/1/1 660/7/1
f 661/1/1 662/2/1 663/3/1 664/4/1
f 665/1/1 666/2/1 667/3/1 668/4/1
f 669/5/1 670/6/1 671/1/1 672/7/1
f 673/5/1 674/6/1 675/1/1 676/7/1
f 677/1/1 678/2/1 679/3/1 680/4/1
f 681/6/1 682/8/1 683/2/1 684/1/1
f 685/6/1 686/8/1 687/2/1 688/1/1
f 689/5/1 690/6/1 691/1/1 692/7/1
f 693/7/1 694/1/1 695/4/1 696/9/1
f 697/6/1 698/8/1 699/2/1 700/1/1
f 701/1/1 702/2/1 703/3/1 704/4/1
f 705/1/1 706/2/1 707/3/1 708/4/1
f 709/7/1 710/1/1 711/4/1 712/9/1
f 713/6/1 714/8/1 715/2/1 716/1/1
f 717/1/1 718/2/1 719/3/1 720/4/1
f 721/6/1 722/8/1 723/2/1 724/1/1
f 725/1/1 726/2/1 727/3/1 728/4/1
f 729/7/1 730/1/1 731/4/1 732/9/1
f 733/5/1 734/6/1 735/1/1 736/7/1
f 737/7/1 738/1/1 739/4/1 740/9/1
f 741/5/1 742/6/1 743/1/1 744/7/1
f 745/6/1 746/8/1 747/2/1 748/1/1
f 749/6/1 750/8/1 751/2/1 752/1/1
f 753/1/1 754/2/1 755/3/1 756/4/1
f 757/1/1 758/2/1 759/3/1 760/4/1
f 761/6/1 762/8/1 763/2/1 764/1/1
f 765/5/1 766/6/1 767/1/1 768/7/1
f 769/6/1 770/8/1 771/2/1 772/1/1
f 773/6/1 774/8/1 775/2/1 776/1/1
f 777/7/1 778/1/1 779/4/1 780/9/1
f 781/1/1 782/2/1 783/3/1 784/4/1
f 785/6/1 786/8/1 787/2/1 788/1/1
f 789/7/1 790/1/1 791/4/1 792/9/1
f 793/1/1 794/2/1 795/3/1 796/4/1
f 797/5/1 798/6/1 799/1/1 800/7/1
f 801/5/1 802/6/1 803/1/1 804/7/1
f 805/7/1 806/1/1 807/4/1 808/9/1
f 809/6/1 810/8/1 811/2/1 812/1/1
f 813/7/1 814/1/1 815/4/1 816/9/1
f 817/1/1 818/2/1 819/3/1 820/4/1
f 821/5/1 822/6/1 823/1/1 824/7/1
f 825/5/1 826/6/1 827/1/1 828/7/1
f 829/1/1 830/2/1 831/3/1 832/4/1
f 833/1/1 834/2/1 835/3/1 836/4/1
f 837/7/1 838/1/1 839/4/1 840/9/1
f 841/6/1 842/8/1 843/2/1 844/1/1
f 845/1/1 846/2/1 847/3/1 848/4/1
f 849/6/1 850/8/1 851/2/1 852/1/1
f 853/7/1 854/1/1 855/4/1 856/9/1
f 857/7/1 858/1/1 859/4/1 860/9/1
f 861/6/1 862/8/1 863/2/1 864/1/1
f 865/1/1 866/2/1 867/3/1 868/4/1
f 869/7/1 870/1/1 871/4/1 872/9/1
f 873/5/1 874/6/1 875/1/1 876/7/1
f 877/1/1 878/2/1 879/3/1 880/4/1
f 881/1/1 882/2/1 883/3/1 884/4/1
f 885/6/1 886/8/1 887/2/1 888/1/1
f 889/5/1 890/6/1 891/1/1 892/7/1
f 893/5/1 894/6/1 895/1/1 896/7/1
f 897/5/1 898/6/1 899/1/1 900/7/1
f 901/1/1 902/2/1 903/3/1 904/4/1
f 905/5/1 906/6/1 907/1/1 908/7/1
f 909/7/1 910/1/1 911/4/1 912/9/1
f 913/7/1 914/1/1 915/4/1 916/9/1
f 917/7/1 918/1/1 919/4/1 920/9/1
f 921/5/1 922/6/1 923/1/1 924/7/1
f 925/6/1 926/8/1 927/2/1 928/1/1
f 929/6/1 930/8/1 931/2/1 932/1/1
f 933/7/1 934/1/1 935/4/1 936/9/1
f 937/1/1 938/2/1 939/3/1 940/4/1
f 941/7/1 942/1/1 943/4/1 944/9/1
f 945/5/1 946/6/1 947/1/1 948/7/1
f 949/7/1 950/1/1 951/4/1 952/9/1
f 953/7/1 954/1/1 955/4/1 956/9/1
f 957/1/1 958/2/1 959/3/1 960/4/1
f 961/1/1 962/2/1 963/3/1 964/4/1
f 965/6/1 966/8/1 967/2/1 968/1/1
f 969/5/1 970/6/1 971/1/1 972/7/1
f 973/7/1 974/1/1 975/4/1 976/9/1
f 977/7/1 978/1/1 979/4/1 980/9/1
f 981/6/1 982/8/1 983/2/1 984/1/1
f 985/7/1 986/1/1 987/4/1 988/9/1
f 989/1/1 990/2/1 991/3/1 992/4/1
f 993/6/1 994/8/1 995/2/1 996/1/1
f 997/6/1 998/8/1 999/2/1 1000/1/1
f 1001/1/1 1002/2/1 1003/3/1 1004/4/1
f 1005/6/1 1006/8/1 1007/2/1 1008/1/1
f 1009/7/1 1010/1/1 1011/4/1 1012/9/1
f 1013/5/1 1014/6/1 1015/1/1 1016/7/1
f 1017/1/1 1018/2/1 1019/3/1 1020/4/1
f 1021/7/1 1022/1/1 1023/4/1 1024/9/1

