# Tiled2Unity generated file. Do not modify by hand.
# Wavefront file for 'Village_mesh_0065.obj'

# Vertices (Count = 1024)
v -240 -16 0
v -256 -16 0
v -256 0 0
v -240 0 0
v -224 -16 0
v -240 -16 0
v -240 0 0
v -224 0 0
v -208 -16 0
v -224 -16 0
v -224 0 0
v -208 0 0
v -192 -16 0
v -208 -16 0
v -208 0 0
v -192 0 0
v -176 -16 0
v -192 -16 0
v -192 0 0
v -176 0 0
v -160 -16 0
v -176 -16 0
v -176 0 0
v -160 0 0
v -144 -16 0
v -160 -16 0
v -160 0 0
v -144 0 0
v -128 -16 0
v -144 -16 0
v -144 0 0
v -128 0 0
v -112 -16 0
v -128 -16 0
v -128 0 0
v -112 0 0
v -96 -16 0
v -112 -16 0
v -112 0 0
v -96 0 0
v -80 -16 0
v -96 -16 0
v -96 0 0
v -80 0 0
v -64 -16 0
v -80 -16 0
v -80 0 0
v -64 0 0
v -48 -16 0
v -64 -16 0
v -64 0 0
v -48 0 0
v -32 -16 0
v -48 -16 0
v -48 0 0
v -32 0 0
v -16 -16 0
v -32 -16 0
v -32 0 0
v -16 0 0
v 0 -16 0
v -16 -16 0
v -16 0 0
v 0 0 0
v -240 -32 0
v -256 -32 0
v -256 -16 0
v -240 -16 0
v -224 -32 0
v -240 -32 0
v -240 -16 0
v -224 -16 0
v -208 -32 0
v -224 -32 0
v -224 -16 0
v -208 -16 0
v -192 -32 0
v -208 -32 0
v -208 -16 0
v -192 -16 0
v -176 -32 0
v -192 -32 0
v -192 -16 0
v -176 -16 0
v -160 -32 0
v -176 -32 0
v -176 -16 0
v -160 -16 0
v -144 -32 0
v -160 -32 0
v -160 -16 0
v -144 -16 0
v -128 -32 0
v -144 -32 0
v -144 -16 0
v -128 -16 0
v -112 -32 0
v -128 -32 0
v -128 -16 0
v -112 -16 0
v -96 -32 0
v -112 -32 0
v -112 -16 0
v -96 -16 0
v -80 -32 0
v -96 -32 0
v -96 -16 0
v -80 -16 0
v -64 -32 0
v -80 -32 0
v -80 -16 0
v -64 -16 0
v -48 -32 0
v -64 -32 0
v -64 -16 0
v -48 -16 0
v -32 -32 0
v -48 -32 0
v -48 -16 0
v -32 -16 0
v -16 -32 0
v -32 -32 0
v -32 -16 0
v -16 -16 0
v 0 -32 0
v -16 -32 0
v -16 -16 0
v 0 -16 0
v -240 -48 0
v -256 -48 0
v -256 -32 0
v -240 -32 0
v -224 -48 0
v -240 -48 0
v -240 -32 0
v -224 -32 0
v -208 -48 0
v -224 -48 0
v -224 -32 0
v -208 -32 0
v -192 -48 0
v -208 -48 0
v -208 -32 0
v -192 -32 0
v -176 -48 0
v -192 -48 0
v -192 -32 0
v -176 -32 0
v -160 -48 0
v -176 -48 0
v -176 -32 0
v -160 -32 0
v -144 -48 0
v -160 -48 0
v -160 -32 0
v -144 -32 0
v -128 -48 0
v -144 -48 0
v -144 -32 0
v -128 -32 0
v -112 -48 0
v -128 -48 0
v -128 -32 0
v -112 -32 0
v -96 -48 0
v -112 -48 0
v -112 -32 0
v -96 -32 0
v -80 -48 0
v -96 -48 0
v -96 -32 0
v -80 -32 0
v -64 -48 0
v -80 -48 0
v -80 -32 0
v -64 -32 0
v -48 -48 0
v -64 -48 0
v -64 -32 0
v -48 -32 0
v -32 -48 0
v -48 -48 0
v -48 -32 0
v -32 -32 0
v -16 -48 0
v -32 -48 0
v -32 -32 0
v -16 -32 0
v 0 -48 0
v -16 -48 0
v -16 -32 0
v 0 -32 0
v -240 -64 0
v -256 -64 0
v -256 -48 0
v -240 -48 0
v -224 -64 0
v -240 -64 0
v -240 -48 0
v -224 -48 0
v -208 -64 0
v -224 -64 0
v -224 -48 0
v -208 -48 0
v -192 -64 0
v -208 -64 0
v -208 -48 0
v -192 -48 0
v -176 -64 0
v -192 -64 0
v -192 -48 0
v -176 -48 0
v -160 -64 0
v -176 -64 0
v -176 -48 0
v -160 -48 0
v -144 -64 0
v -160 -64 0
v -160 -48 0
v -144 -48 0
v -128 -64 0
v -144 -64 0
v -144 -48 0
v -128 -48 0
v -112 -64 0
v -128 -64 0
v -128 -48 0
v -112 -48 0
v -96 -64 0
v -112 -64 0
v -112 -48 0
v -96 -48 0
v -80 -64 0
v -96 -64 0
v -96 -48 0
v -80 -48 0
v -64 -64 0
v -80 -64 0
v -80 -48 0
v -64 -48 0
v -48 -64 0
v -64 -64 0
v -64 -48 0
v -48 -48 0
v -32 -64 0
v -48 -64 0
v -48 -48 0
v -32 -48 0
v -16 -64 0
v -32 -64 0
v -32 -48 0
v -16 -48 0
v 0 -64 0
v -16 -64 0
v -16 -48 0
v 0 -48 0
v -240 -80 0
v -256 -80 0
v -256 -64 0
v -240 -64 0
v -224 -80 0
v -240 -80 0
v -240 -64 0
v -224 -64 0
v -208 -80 0
v -224 -80 0
v -224 -64 0
v -208 -64 0
v -192 -80 0
v -208 -80 0
v -208 -64 0
v -192 -64 0
v -176 -80 0
v -192 -80 0
v -192 -64 0
v -176 -64 0
v -160 -80 0
v -176 -80 0
v -176 -64 0
v -160 -64 0
v -144 -80 0
v -160 -80 0
v -160 -64 0
v -144 -64 0
v -128 -80 0
v -144 -80 0
v -144 -64 0
v -128 -64 0
v -112 -80 0
v -128 -80 0
v -128 -64 0
v -112 -64 0
v -96 -80 0
v -112 -80 0
v -112 -64 0
v -96 -64 0
v -80 -80 0
v -96 -80 0
v -96 -64 0
v -80 -64 0
v -64 -80 0
v -80 -80 0
v -80 -64 0
v -64 -64 0
v -48 -80 0
v -64 -80 0
v -64 -64 0
v -48 -64 0
v -32 -80 0
v -48 -80 0
v -48 -64 0
v -32 -64 0
v -16 -80 0
v -32 -80 0
v -32 -64 0
v -16 -64 0
v 0 -80 0
v -16 -80 0
v -16 -64 0
v 0 -64 0
v -240 -96 0
v -256 -96 0
v -256 -80 0
v -240 -80 0
v -224 -96 0
v -240 -96 0
v -240 -80 0
v -224 -80 0
v -208 -96 0
v -224 -96 0
v -224 -80 0
v -208 -80 0
v -192 -96 0
v -208 -96 0
v -208 -80 0
v -192 -80 0
v -176 -96 0
v -192 -96 0
v -192 -80 0
v -176 -80 0
v -160 -96 0
v -176 -96 0
v -176 -80 0
v -160 -80 0
v -144 -96 0
v -160 -96 0
v -160 -80 0
v -144 -80 0
v -128 -96 0
v -144 -96 0
v -144 -80 0
v -128 -80 0
v -112 -96 0
v -128 -96 0
v -128 -80 0
v -112 -80 0
v -96 -96 0
v -112 -96 0
v -112 -80 0
v -96 -80 0
v -80 -96 0
v -96 -96 0
v -96 -80 0
v -80 -80 0
v -64 -96 0
v -80 -96 0
v -80 -80 0
v -64 -80 0
v -48 -96 0
v -64 -96 0
v -64 -80 0
v -48 -80 0
v -32 -96 0
v -48 -96 0
v -48 -80 0
v -32 -80 0
v -16 -96 0
v -32 -96 0
v -32 -80 0
v -16 -80 0
v 0 -96 0
v -16 -96 0
v -16 -80 0
v 0 -80 0
v -240 -112 0
v -256 -112 0
v -256 -96 0
v -240 -96 0
v -224 -112 0
v -240 -112 0
v -240 -96 0
v -224 -96 0
v -208 -112 0
v -224 -112 0
v -224 -96 0
v -208 -96 0
v -192 -112 0
v -208 -112 0
v -208 -96 0
v -192 -96 0
v -176 -112 0
v -192 -112 0
v -192 -96 0
v -176 -96 0
v -160 -112 0
v -176 -112 0
v -176 -96 0
v -160 -96 0
v -144 -112 0
v -160 -112 0
v -160 -96 0
v -144 -96 0
v -128 -112 0
v -144 -112 0
v -144 -96 0
v -128 -96 0
v -112 -112 0
v -128 -112 0
v -128 -96 0
v -112 -96 0
v -96 -112 0
v -112 -112 0
v -112 -96 0
v -96 -96 0
v -80 -112 0
v -96 -112 0
v -96 -96 0
v -80 -96 0
v -64 -112 0
v -80 -112 0
v -80 -96 0
v -64 -96 0
v -48 -112 0
v -64 -112 0
v -64 -96 0
v -48 -96 0
v -32 -112 0
v -48 -112 0
v -48 -96 0
v -32 -96 0
v -16 -112 0
v -32 -112 0
v -32 -96 0
v -16 -96 0
v 0 -112 0
v -16 -112 0
v -16 -96 0
v 0 -96 0
v -240 -128 0
v -256 -128 0
v -256 -112 0
v -240 -112 0
v -224 -128 0
v -240 -128 0
v -240 -112 0
v -224 -112 0
v -208 -128 0
v -224 -128 0
v -224 -112 0
v -208 -112 0
v -192 -128 0
v -208 -128 0
v -208 -112 0
v -192 -112 0
v -176 -128 0
v -192 -128 0
v -192 -112 0
v -176 -112 0
v -160 -128 0
v -176 -128 0
v -176 -112 0
v -160 -112 0
v -144 -128 0
v -160 -128 0
v -160 -112 0
v -144 -112 0
v -128 -128 0
v -144 -128 0
v -144 -112 0
v -128 -112 0
v -112 -128 0
v -128 -128 0
v -128 -112 0
v -112 -112 0
v -96 -128 0
v -112 -128 0
v -112 -112 0
v -96 -112 0
v -80 -128 0
v -96 -128 0
v -96 -112 0
v -80 -112 0
v -64 -128 0
v -80 -128 0
v -80 -112 0
v -64 -112 0
v -48 -128 0
v -64 -128 0
v -64 -112 0
v -48 -112 0
v -32 -128 0
v -48 -128 0
v -48 -112 0
v -32 -112 0
v -16 -128 0
v -32 -128 0
v -32 -112 0
v -16 -112 0
v 0 -128 0
v -16 -128 0
v -16 -112 0
v 0 -112 0
v -240 -144 0
v -256 -144 0
v -256 -128 0
v -240 -128 0
v -224 -144 0
v -240 -144 0
v -240 -128 0
v -224 -128 0
v -208 -144 0
v -224 -144 0
v -224 -128 0
v -208 -128 0
v -192 -144 0
v -208 -144 0
v -208 -128 0
v -192 -128 0
v -176 -144 0
v -192 -144 0
v -192 -128 0
v -176 -128 0
v -160 -144 0
v -176 -144 0
v -176 -128 0
v -160 -128 0
v -144 -144 0
v -160 -144 0
v -160 -128 0
v -144 -128 0
v -128 -144 0
v -144 -144 0
v -144 -128 0
v -128 -128 0
v -112 -144 0
v -128 -144 0
v -128 -128 0
v -112 -128 0
v -96 -144 0
v -112 -144 0
v -112 -128 0
v -96 -128 0
v -80 -144 0
v -96 -144 0
v -96 -128 0
v -80 -128 0
v -64 -144 0
v -80 -144 0
v -80 -128 0
v -64 -128 0
v -48 -144 0
v -64 -144 0
v -64 -128 0
v -48 -128 0
v -32 -144 0
v -48 -144 0
v -48 -128 0
v -32 -128 0
v -16 -144 0
v -32 -144 0
v -32 -128 0
v -16 -128 0
v 0 -144 0
v -16 -144 0
v -16 -128 0
v 0 -128 0
v -240 -160 0
v -256 -160 0
v -256 -144 0
v -240 -144 0
v -224 -160 0
v -240 -160 0
v -240 -144 0
v -224 -144 0
v -208 -160 0
v -224 -160 0
v -224 -144 0
v -208 -144 0
v -192 -160 0
v -208 -160 0
v -208 -144 0
v -192 -144 0
v -176 -160 0
v -192 -160 0
v -192 -144 0
v -176 -144 0
v -160 -160 0
v -176 -160 0
v -176 -144 0
v -160 -144 0
v -144 -160 0
v -160 -160 0
v -160 -144 0
v -144 -144 0
v -128 -160 0
v -144 -160 0
v -144 -144 0
v -128 -144 0
v -112 -160 0
v -128 -160 0
v -128 -144 0
v -112 -144 0
v -96 -160 0
v -112 -160 0
v -112 -144 0
v -96 -144 0
v -80 -160 0
v -96 -160 0
v -96 -144 0
v -80 -144 0
v -64 -160 0
v -80 -160 0
v -80 -144 0
v -64 -144 0
v -48 -160 0
v -64 -160 0
v -64 -144 0
v -48 -144 0
v -32 -160 0
v -48 -160 0
v -48 -144 0
v -32 -144 0
v -16 -160 0
v -32 -160 0
v -32 -144 0
v -16 -144 0
v 0 -160 0
v -16 -160 0
v -16 -144 0
v 0 -144 0
v -240 -176 0
v -256 -176 0
v -256 -160 0
v -240 -160 0
v -224 -176 0
v -240 -176 0
v -240 -160 0
v -224 -160 0
v -208 -176 0
v -224 -176 0
v -224 -160 0
v -208 -160 0
v -192 -176 0
v -208 -176 0
v -208 -160 0
v -192 -160 0
v -176 -176 0
v -192 -176 0
v -192 -160 0
v -176 -160 0
v -160 -176 0
v -176 -176 0
v -176 -160 0
v -160 -160 0
v -144 -176 0
v -160 -176 0
v -160 -160 0
v -144 -160 0
v -128 -176 0
v -144 -176 0
v -144 -160 0
v -128 -160 0
v -112 -176 0
v -128 -176 0
v -128 -160 0
v -112 -160 0
v -96 -176 0
v -112 -176 0
v -112 -160 0
v -96 -160 0
v -80 -176 0
v -96 -176 0
v -96 -160 0
v -80 -160 0
v -64 -176 0
v -80 -176 0
v -80 -160 0
v -64 -160 0
v -48 -176 0
v -64 -176 0
v -64 -160 0
v -48 -160 0
v -32 -176 0
v -48 -176 0
v -48 -160 0
v -32 -160 0
v -16 -176 0
v -32 -176 0
v -32 -160 0
v -16 -160 0
v 0 -176 0
v -16 -176 0
v -16 -160 0
v 0 -160 0
v -240 -192 0
v -256 -192 0
v -256 -176 0
v -240 -176 0
v -224 -192 0
v -240 -192 0
v -240 -176 0
v -224 -176 0
v -208 -192 0
v -224 -192 0
v -224 -176 0
v -208 -176 0
v -192 -192 0
v -208 -192 0
v -208 -176 0
v -192 -176 0
v -176 -192 0
v -192 -192 0
v -192 -176 0
v -176 -176 0
v -160 -192 0
v -176 -192 0
v -176 -176 0
v -160 -176 0
v -144 -192 0
v -160 -192 0
v -160 -176 0
v -144 -176 0
v -128 -192 0
v -144 -192 0
v -144 -176 0
v -128 -176 0
v -112 -192 0
v -128 -192 0
v -128 -176 0
v -112 -176 0
v -96 -192 0
v -112 -192 0
v -112 -176 0
v -96 -176 0
v -80 -192 0
v -96 -192 0
v -96 -176 0
v -80 -176 0
v -64 -192 0
v -80 -192 0
v -80 -176 0
v -64 -176 0
v -48 -192 0
v -64 -192 0
v -64 -176 0
v -48 -176 0
v -32 -192 0
v -48 -192 0
v -48 -176 0
v -32 -176 0
v -16 -192 0
v -32 -192 0
v -32 -176 0
v -16 -176 0
v 0 -192 0
v -16 -192 0
v -16 -176 0
v 0 -176 0
v -240 -208 0
v -256 -208 0
v -256 -192 0
v -240 -192 0
v -224 -208 0
v -240 -208 0
v -240 -192 0
v -224 -192 0
v -208 -208 0
v -224 -208 0
v -224 -192 0
v -208 -192 0
v -192 -208 0
v -208 -208 0
v -208 -192 0
v -192 -192 0
v -176 -208 0
v -192 -208 0
v -192 -192 0
v -176 -192 0
v -160 -208 0
v -176 -208 0
v -176 -192 0
v -160 -192 0
v -144 -208 0
v -160 -208 0
v -160 -192 0
v -144 -192 0
v -128 -208 0
v -144 -208 0
v -144 -192 0
v -128 -192 0
v -112 -208 0
v -128 -208 0
v -128 -192 0
v -112 -192 0
v -96 -208 0
v -112 -208 0
v -112 -192 0
v -96 -192 0
v -80 -208 0
v -96 -208 0
v -96 -192 0
v -80 -192 0
v -64 -208 0
v -80 -208 0
v -80 -192 0
v -64 -192 0
v -48 -208 0
v -64 -208 0
v -64 -192 0
v -48 -192 0
v -32 -208 0
v -48 -208 0
v -48 -192 0
v -32 -192 0
v -16 -208 0
v -32 -208 0
v -32 -192 0
v -16 -192 0
v 0 -208 0
v -16 -208 0
v -16 -192 0
v 0 -192 0
v -240 -224 0
v -256 -224 0
v -256 -208 0
v -240 -208 0
v -224 -224 0
v -240 -224 0
v -240 -208 0
v -224 -208 0
v -208 -224 0
v -224 -224 0
v -224 -208 0
v -208 -208 0
v -192 -224 0
v -208 -224 0
v -208 -208 0
v -192 -208 0
v -176 -224 0
v -192 -224 0
v -192 -208 0
v -176 -208 0
v -160 -224 0
v -176 -224 0
v -176 -208 0
v -160 -208 0
v -144 -224 0
v -160 -224 0
v -160 -208 0
v -144 -208 0
v -128 -224 0
v -144 -224 0
v -144 -208 0
v -128 -208 0
v -112 -224 0
v -128 -224 0
v -128 -208 0
v -112 -208 0
v -96 -224 0
v -112 -224 0
v -112 -208 0
v -96 -208 0
v -80 -224 0
v -96 -224 0
v -96 -208 0
v -80 -208 0
v -64 -224 0
v -80 -224 0
v -80 -208 0
v -64 -208 0
v -48 -224 0
v -64 -224 0
v -64 -208 0
v -48 -208 0
v -32 -224 0
v -48 -224 0
v -48 -208 0
v -32 -208 0
v -16 -224 0
v -32 -224 0
v -32 -208 0
v -16 -208 0
v 0 -224 0
v -16 -224 0
v -16 -208 0
v 0 -208 0
v -240 -240 0
v -256 -240 0
v -256 -224 0
v -240 -224 0
v -224 -240 0
v -240 -240 0
v -240 -224 0
v -224 -224 0
v -208 -240 0
v -224 -240 0
v -224 -224 0
v -208 -224 0
v -192 -240 0
v -208 -240 0
v -208 -224 0
v -192 -224 0
v -176 -240 0
v -192 -240 0
v -192 -224 0
v -176 -224 0
v -160 -240 0
v -176 -240 0
v -176 -224 0
v -160 -224 0
v -144 -240 0
v -160 -240 0
v -160 -224 0
v -144 -224 0
v -128 -240 0
v -144 -240 0
v -144 -224 0
v -128 -224 0
v -112 -240 0
v -128 -240 0
v -128 -224 0
v -112 -224 0
v -96 -240 0
v -112 -240 0
v -112 -224 0
v -96 -224 0
v -80 -240 0
v -96 -240 0
v -96 -224 0
v -80 -224 0
v -64 -240 0
v -80 -240 0
v -80 -224 0
v -64 -224 0
v -48 -240 0
v -64 -240 0
v -64 -224 0
v -48 -224 0
v -32 -240 0
v -48 -240 0
v -48 -224 0
v -32 -224 0
v -16 -240 0
v -32 -240 0
v -32 -224 0
v -16 -224 0
v 0 -240 0
v -16 -240 0
v -16 -224 0
v 0 -224 0
v -240 -256 0
v -256 -256 0
v -256 -240 0
v -240 -240 0
v -224 -256 0
v -240 -256 0
v -240 -240 0
v -224 -240 0
v -208 -256 0
v -224 -256 0
v -224 -240 0
v -208 -240 0
v -192 -256 0
v -208 -256 0
v -208 -240 0
v -192 -240 0
v -176 -256 0
v -192 -256 0
v -192 -240 0
v -176 -240 0
v -160 -256 0
v -176 -256 0
v -176 -240 0
v -160 -240 0
v -144 -256 0
v -160 -256 0
v -160 -240 0
v -144 -240 0
v -128 -256 0
v -144 -256 0
v -144 -240 0
v -128 -240 0
v -112 -256 0
v -128 -256 0
v -128 -240 0
v -112 -240 0
v -96 -256 0
v -112 -256 0
v -112 -240 0
v -96 -240 0
v -80 -256 0
v -96 -256 0
v -96 -240 0
v -80 -240 0
v -64 -256 0
v -80 -256 0
v -80 -240 0
v -64 -240 0
v -48 -256 0
v -64 -256 0
v -64 -240 0
v -48 -240 0
v -32 -256 0
v -48 -256 0
v -48 -240 0
v -32 -240 0
v -16 -256 0
v -32 -256 0
v -32 -240 0
v -16 -240 0
v 0 -256 0
v -16 -256 0
v -16 -240 0
v 0 -240 0

# Texture cooridinates (Count = 9)
vt 0.2 0.6944444
vt 0.225 0.6944444
vt 0.225 0.7222222
vt 0.2 0.7222222
vt 0.225 0.75
vt 0.2 0.75
vt 0.175 0.7222222
vt 0.175 0.75
vt 0.175 0.6944444

# Normal
vn 0 0 -1

# Mesh description
g Village_mesh_0065

# Faces
f 1/1/1 2/2/1 3/3/1 4/4/1
f 5/1/1 6/2/1 7/3/1 8/4/1
f 9/4/1 10/3/1 11/5/1 12/6/1
f 13/7/1 14/4/1 15/6/1 16/8/1
f 17/9/1 18/1/1 19/4/1 20/7/1
f 21/1/1 22/2/1 23/3/1 24/4/1
f 25/4/1 26/3/1 27/5/1 28/6/1
f 29/4/1 30/3/1 31/5/1 32/6/1
f 33/7/1 34/4/1 35/6/1 36/8/1
f 37/9/1 38/1/1 39/4/1 40/7/1
f 41/1/1 42/2/1 43/3/1 44/4/1
f 45/1/1 46/2/1 47/3/1 48/4/1
f 49/4/1 50/3/1 51/5/1 52/6/1
f 53/9/1 54/1/1 55/4/1 56/7/1
f 57/1/1 58/2/1 59/3/1 60/4/1
f 61/4/1 62/3/1 63/5/1 64/6/1
f 65/4/1 66/3/1 67/5/1 68/6/1
f 69/9/1 70/1/1 71/4/1 72/7/1
f 73/7/1 74/4/1 75/6/1 76/8/1
f 77/1/1 78/2/1 79/3/1 80/4/1
f 81/7/1 82/4/1 83/6/1 84/8/1
f 85/1/1 86/2/1 87/3/1 88/4/1
f 89/9/1 90/1/1 91/4/1 92/7/1
f 93/4/1 94/3/1 95/5/1 96/6/1
f 97/4/1 98/3/1 99/5/1 100/6/1
f 101/4/1 102/3/1 103/5/1 104/6/1
f 105/7/1 106/4/1 107/6/1 108/8/1
f 109/7/1 110/4/1 111/6/1 112/8/1
f 113/1/1 114/2/1 115/3/1 116/4/1
f 117/9/1 118/1/1 119/4/1 120/7/1
f 121/1/1 122/2/1 123/3/1 124/4/1
f 125/1/1 126/2/1 127/3/1 128/4/1
f 129/4/1 130/3/1 131/5/1 132/6/1
f 133/9/1 134/1/1 135/4/1 136/7/1
f 137/1/1 138/2/1 139/3/1 140/4/1
f 141/4/1 142/3/1 143/5/1 144/6/1
f 145/9/1 146/1/1 147/4/1 148/7/1
f 149/1/1 150/2/1 151/3/1 152/4/1
f 153/1/1 154/2/1 155/3/1 156/4/1
f 157/4/1 158/3/1 159/5/1 160/6/1
f 161/7/1 162/4/1 163/6/1 164/8/1
f 165/7/1 166/4/1 167/6/1 168/8/1
f 169/1/1 170/2/1 171/3/1 172/4/1
f 173/9/1 174/1/1 175/4/1 176/7/1
f 177/7/1 178/4/1 179/6/1 180/8/1
f 181/9/1 182/1/1 183/4/1 184/7/1
f 185/1/1 186/2/1 187/3/1 188/4/1
f 189/7/1 190/4/1 191/6/1 192/8/1
f 193/9/1 194/1/1 195/4/1 196/7/1
f 197/9/1 198/1/1 199/4/1 200/7/1
f 201/9/1 202/1/1 203/4/1 204/7/1
f 205/1/1 206/2/1 207/3/1 208/4/1
f 209/1/1 210/2/1 211/3/1 212/4/1
f 213/1/1 214/2/1 215/3/1 216/4/1
f 217/7/1 218/4/1 219/6/1 220/8/1
f 221/7/1 222/4/1 223/6/1 224/8/1
f 225/7/1 226/4/1 227/6/1 228/8/1
f 229/1/1 230/2/1 231/3/1 232/4/1
f 233/4/1 234/3/1 235/5/1 236/6/1
f 237/1/1 238/2/1 239/3/1 240/4/1
f 241/4/1 242/3/1 243/5/1 244/6/1
f 245/9/1 246/1/1 247/4/1 248/7/1
f 249/9/1 250/1/1 251/4/1 252/7/1
f 253/1/1 254/2/1 255/3/1 256/4/1
f 257/7/1 258/4/1 259/6/1 260/8/1
f 261/1/1 262/2/1 263/3/1 264/4/1
f 265/7/1 266/4/1 267/6/1 268/8/1
f 269/4/1 270/3/1 271/5/1 272/6/1
f 273/7/1 274/4/1 275/6/1 276/8/1
f 277/4/1 278/3/1 279/5/1 280/6/1
f 281/4/1 282/3/1 283/5/1 284/6/1
f 285/7/1 286/4/1 287/6/1 288/8/1
f 289/1/1 290/2/1 291/3/1 292/4/1
f 293/1/1 294/2/1 295/3/1 296/4/1
f 297/7/1 298/4/1 299/6/1 300/8/1
f 301/4/1 302/3/1 303/5/1 304/6/1
f 305/4/1 306/3/1 307/5/1 308/6/1
f 309/7/1 310/4/1 311/6/1 312/8/1
f 313/4/1 314/3/1 315/5/1 316/6/1
f 317/7/1 318/4/1 319/6/1 320/8/1
f 321/7/1 322/4/1 323/6/1 324/8/1
f 325/1/1 326/2/1 327/3/1 328/4/1
f 329/1/1 330/2/1 331/3/1 332/4/1
f 333/4/1 334/3/1 335/5/1 336/6/1
f 337/1/1 338/2/1 339/3/1 340/4/1
f 341/1/1 342/2/1 343/3/1 344/4/1
f 345/4/1 346/3/1 347/5/1 348/6/1
f 349/7/1 350/4/1 351/6/1 352/8/1
f 353/9/1 354/1/1 355/4/1 356/7/1
f 357/4/1 358/3/1 359/5/1 360/6/1
f 361/9/1 362/1/1 363/4/1 364/7/1
f 365/7/1 366/4/1 367/6/1 368/8/1
f 369/9/1 370/1/1 371/4/1 372/7/1
f 373/9/1 374/1/1 375/4/1 376/7/1
f 377/9/1 378/1/1 379/4/1 380/7/1
f 381/9/1 382/1/1 383/4/1 384/7/1
f 385/9/1 386/1/1 387/4/1 388/7/1
f 389/1/1 390/2/1 391/3/1 392/4/1
f 393/9/1 394/1/1 395/4/1 396/7/1
f 397/7/1 398/4/1 399/6/1 400/8/1
f 401/7/1 402/4/1 403/6/1 404/8/1
f 405/7/1 406/4/1 407/6/1 408/8/1
f 409/1/1 410/2/1 411/3/1 412/4/1
f 413/1/1 414/2/1 415/3/1 416/4/1
f 417/1/1 418/2/1 419/3/1 420/4/1
f 421/9/1 422/1/1 423/4/1 424/7/1
f 425/7/1 426/4/1 427/6/1 428/8/1
f 429/7/1 430/4/1 431/6/1 432/8/1
f 433/7/1 434/4/1 435/6/1 436/8/1
f 437/4/1 438/3/1 439/5/1 440/6/1
f 441/9/1 442/1/1 443/4/1 444/7/1
f 445/9/1 446/1/1 447/4/1 448/7/1
f 449/9/1 450/1/1 451/4/1 452/7/1
f 453/4/1 454/3/1 455/5/1 456/6/1
f 457/4/1 458/3/1 459/5/1 460/6/1
f 461/4/1 462/3/1 463/5/1 464/6/1
f 465/7/1 466/4/1 467/6/1 468/8/1
f 469/4/1 470/3/1 471/5/1 472/6/1
f 473/9/1 474/1/1 475/4/1 476/7/1
f 477/1/1 478/2/1 479/3/1 480/4/1
f 481/9/1 482/1/1 483/4/1 484/7/1
f 485/7/1 486/4/1 487/6/1 488/8/1
f 489/1/1 490/2/1 491/3/1 492/4/1
f 493/7/1 494/4/1 495/6/1 496/8/1
f 497/7/1 498/4/1 499/6/1 500/8/1
f 501/7/1 502/4/1 503/6/1 504/8/1
f 505/4/1 506/3/1 507/5/1 508/6/1
f 509/1/1 510/2/1 511/3/1 512/4/1
f 513/9/1 514/1/1 515/4/1 516/7/1
f 517/4/1 518/3/1 519/5/1 520/6/1
f 521/7/1 522/4/1 523/6/1 524/8/1
f 525/9/1 526/1/1 527/4/1 528/7/1
f 529/7/1 530/4/1 531/6/1 532/8/1
f 533/4/1 534/3/1 535/5/1 536/6/1
f 537/4/1 538/3/1 539/5/1 540/6/1
f 541/1/1 542/2/1 543/3/1 544/4/1
f 545/7/1 546/4/1 547/6/1 548/8/1
f 549/7/1 550/4/1 551/6/1 552/8/1
f 553/1/1 554/2/1 555/3/1 556/4/1
f 557/9/1 558/1/1 559/4/1 560/7/1
f 561/4/1 562/3/1 563/5/1 564/6/1
f 565/7/1 566/4/1 567/6/1 568/8/1
f 569/9/1 570/1/1 571/4/1 572/7/1
f 573/1/1 574/2/1 575/3/1 576/4/1
f 577/1/1 578/2/1 579/3/1 580/4/1
f 581/9/1 582/1/1 583/4/1 584/7/1
f 585/7/1 586/4/1 587/6/1 588/8/1
f 589/7/1 590/4/1 591/6/1 592/8/1
f 593/9/1 594/1/1 595/4/1 596/7/1
f 597/1/1 598/2/1 599/3/1 600/4/1
f 601/4/1 602/3/1 603/5/1 604/6/1
f 605/7/1 606/4/1 607/6/1 608/8/1
f 609/7/1 610/4/1 611/6/1 612/8/1
f 613/4/1 614/3/1 615/5/1 616/6/1
f 617/7/1 618/4/1 619/6/1 620/8/1
f 621/9/1 622/1/1 623/4/1 624/7/1
f 625/1/1 626/2/1 627/3/1 628/4/1
f 629/7/1 630/4/1 631/6/1 632/8/1
f 633/9/1 634/1/1 635/4/1 636/7/1
f 637/4/1 638/3/1 639/5/1 640/6/1
f 641/4/1 642/3/1 643/5/1 644/6/1
f 645/1/1 646/2/1 647/3/1 648/4/1
f 649/7/1 650/4/1 651/6/1 652/8/1
f 653/7/1 654/4/1 655/6/1 656/8/1
f 657/1/1 658/2/1 659/3/1 660/4/1
f 661/1/1 662/2/1 663/3/1 664/4/1
f 665/9/1 666/1/1 667/4/1 668/7/1
f 669/7/1 670/4/1 671/6/1 672/8/1
f 673/4/1 674/3/1 675/5/1 676/6/1
f 677/7/1 678/4/1 679/6/1 680/8/1
f 681/1/1 682/2/1 683/3/1 684/4/1
f 685/4/1 686/3/1 687/5/1 688/6/1
f 689/7/1 690/4/1 691/6/1 692/8/1
f 693/1/1 694/2/1 695/3/1 696/4/1
f 697/7/1 698/4/1 699/6/1 700/8/1
f 701/1/1 702/2/1 703/3/1 704/4/1
f 705/4/1 706/3/1 707/5/1 708/6/1
f 709/9/1 710/1/1 711/4/1 712/7/1
f 713/1/1 714/2/1 715/3/1 716/4/1
f 717/9/1 718/1/1 719/4/1 720/7/1
f 721/1/1 722/2/1 723/3/1 724/4/1
f 725/4/1 726/3/1 727/5/1 728/6/1
f 729/4/1 730/3/1 731/5/1 732/6/1
f 733/7/1 734/4/1 735/6/1 736/8/1
f 737/7/1 738/4/1 739/6/1 740/8/1
f 741/4/1 742/3/1 743/5/1 744/6/1
f 745/1/1 746/2/1 747/3/1 748/4/1
f 749/1/1 750/2/1 751/3/1 752/4/1
f 753/7/1 754/4/1 755/6/1 756/8/1
f 757/4/1 758/3/1 759/5/1 760/6/1
f 761/9/1 762/1/1 763/4/1 764/7/1
f 765/1/1 766/2/1 767/3/1 768/4/1
f 769/4/1 770/3/1 771/5/1 772/6/1
f 773/1/1 774/2/1 775/3/1 776/4/1
f 777/7/1 778/4/1 779/6/1 780/8/1
f 781/4/1 782/3/1 783/5/1 784/6/1
f 785/7/1 786/4/1 787/6/1 788/8/1
f 789/7/1 790/4/1 791/6/1 792/8/1
f 793/1/1 794/2/1 795/3/1 796/4/1
f 797/4/1 798/3/1 799/5/1 800/6/1
f 801/9/1 802/1/1 803/4/1 804/7/1
f 805/7/1 806/4/1 807/6/1 808/8/1
f 809/7/1 810/4/1 811/6/1 812/8/1
f 813/4/1 814/3/1 815/5/1 816/6/1
f 817/7/1 818/4/1 819/6/1 820/8/1
f 821/4/1 822/3/1 823/5/1 824/6/1
f 825/1/1 826/2/1 827/3/1 828/4/1
f 829/1/1 830/2/1 831/3/1 832/4/1
f 833/7/1 834/4/1 835/6/1 836/8/1
f 837/4/1 838/3/1 839/5/1 840/6/1
f 841/4/1 842/3/1 843/5/1 844/6/1
f 845/4/1 846/3/1 847/5/1 848/6/1
f 849/1/1 850/2/1 851/3/1 852/4/1
f 853/7/1 854/4/1 855/6/1 856/8/1
f 857/4/1 858/3/1 859/5/1 860/6/1
f 861/7/1 862/4/1 863/6/1 864/8/1
f 865/7/1 866/4/1 867/6/1 868/8/1
f 869/4/1 870/3/1 871/5/1 872/6/1
f 873/4/1 874/3/1 875/5/1 876/6/1
f 877/1/1 878/2/1 879/3/1 880/4/1
f 881/1/1 882/2/1 883/3/1 884/4/1
f 885/4/1 886/3/1 887/5/1 888/6/1
f 889/9/1 890/1/1 891/4/1 892/7/1
f 893/9/1 894/1/1 895/4/1 896/7/1
f 897/1/1 898/2/1 899/3/1 900/4/1
f 901/9/1 902/1/1 903/4/1 904/7/1
f 905/1/1 906/2/1 907/3/1 908/4/1
f 909/9/1 910/1/1 911/4/1 912/7/1
f 913/4/1 914/3/1 915/5/1 916/6/1
f 917/4/1 918/3/1 919/5/1 920/6/1
f 921/9/1 922/1/1 923/4/1 924/7/1
f 925/9/1 926/1/1 927/4/1 928/7/1
f 929/1/1 930/2/1 931/3/1 932/4/1
f 933/9/1 934/1/1 935/4/1 936/7/1
f 937/4/1 938/3/1 939/5/1 940/6/1
f 941/4/1 942/3/1 943/5/1 944/6/1
f 945/4/1 946/3/1 947/5/1 948/6/1
f 949/1/1 950/2/1 951/3/1 952/4/1
f 953/4/1 954/3/1 955/5/1 956/6/1
f 957/4/1 958/3/1 959/5/1 960/6/1
f 961/9/1 962/1/1 963/4/1 964/7/1
f 965/1/1 966/2/1 967/3/1 968/4/1
f 969/9/1 970/1/1 971/4/1 972/7/1
f 973/1/1 974/2/1 975/3/1 976/4/1
f 977/9/1 978/1/1 979/4/1 980/7/1
f 981/4/1 982/3/1 983/5/1 984/6/1
f 985/7/1 986/4/1 987/6/1 988/8/1
f 989/1/1 990/2/1 991/3/1 992/4/1
f 993/7/1 994/4/1 995/6/1 996/8/1
f 997/1/1 998/2/1 999/3/1 1000/4/1
f 1001/4/1 1002/3/1 1003/5/1 1004/6/1
f 1005/7/1 1006/4/1 1007/6/1 1008/8/1
f 1009/1/1 1010/2/1 1011/3/1 1012/4/1
f 1013/1/1 1014/2/1 1015/3/1 1016/4/1
f 1017/7/1 1018/4/1 1019/6/1 1020/8/1
f 1021/9/1 1022/1/1 1023/4/1 1024/7/1

