# Tiled2Unity generated file. Do not modify by hand.
# Wavefront file for 'Village_mesh_0037.obj'

# Vertices (Count = 1024)
v -240 -16 0
v -256 -16 0
v -256 0 0
v -240 0 0
v -224 -16 0
v -240 -16 0
v -240 0 0
v -224 0 0
v -208 -16 0
v -224 -16 0
v -224 0 0
v -208 0 0
v -192 -16 0
v -208 -16 0
v -208 0 0
v -192 0 0
v -176 -16 0
v -192 -16 0
v -192 0 0
v -176 0 0
v -160 -16 0
v -176 -16 0
v -176 0 0
v -160 0 0
v -144 -16 0
v -160 -16 0
v -160 0 0
v -144 0 0
v -128 -16 0
v -144 -16 0
v -144 0 0
v -128 0 0
v -112 -16 0
v -128 -16 0
v -128 0 0
v -112 0 0
v -96 -16 0
v -112 -16 0
v -112 0 0
v -96 0 0
v -80 -16 0
v -96 -16 0
v -96 0 0
v -80 0 0
v -64 -16 0
v -80 -16 0
v -80 0 0
v -64 0 0
v -48 -16 0
v -64 -16 0
v -64 0 0
v -48 0 0
v -32 -16 0
v -48 -16 0
v -48 0 0
v -32 0 0
v -16 -16 0
v -32 -16 0
v -32 0 0
v -16 0 0
v 0 -16 0
v -16 -16 0
v -16 0 0
v 0 0 0
v -240 -32 0
v -256 -32 0
v -256 -16 0
v -240 -16 0
v -224 -32 0
v -240 -32 0
v -240 -16 0
v -224 -16 0
v -208 -32 0
v -224 -32 0
v -224 -16 0
v -208 -16 0
v -192 -32 0
v -208 -32 0
v -208 -16 0
v -192 -16 0
v -176 -32 0
v -192 -32 0
v -192 -16 0
v -176 -16 0
v -160 -32 0
v -176 -32 0
v -176 -16 0
v -160 -16 0
v -144 -32 0
v -160 -32 0
v -160 -16 0
v -144 -16 0
v -128 -32 0
v -144 -32 0
v -144 -16 0
v -128 -16 0
v -112 -32 0
v -128 -32 0
v -128 -16 0
v -112 -16 0
v -96 -32 0
v -112 -32 0
v -112 -16 0
v -96 -16 0
v -80 -32 0
v -96 -32 0
v -96 -16 0
v -80 -16 0
v -64 -32 0
v -80 -32 0
v -80 -16 0
v -64 -16 0
v -48 -32 0
v -64 -32 0
v -64 -16 0
v -48 -16 0
v -32 -32 0
v -48 -32 0
v -48 -16 0
v -32 -16 0
v -16 -32 0
v -32 -32 0
v -32 -16 0
v -16 -16 0
v 0 -32 0
v -16 -32 0
v -16 -16 0
v 0 -16 0
v -240 -48 0
v -256 -48 0
v -256 -32 0
v -240 -32 0
v -224 -48 0
v -240 -48 0
v -240 -32 0
v -224 -32 0
v -208 -48 0
v -224 -48 0
v -224 -32 0
v -208 -32 0
v -192 -48 0
v -208 -48 0
v -208 -32 0
v -192 -32 0
v -176 -48 0
v -192 -48 0
v -192 -32 0
v -176 -32 0
v -160 -48 0
v -176 -48 0
v -176 -32 0
v -160 -32 0
v -144 -48 0
v -160 -48 0
v -160 -32 0
v -144 -32 0
v -128 -48 0
v -144 -48 0
v -144 -32 0
v -128 -32 0
v -112 -48 0
v -128 -48 0
v -128 -32 0
v -112 -32 0
v -96 -48 0
v -112 -48 0
v -112 -32 0
v -96 -32 0
v -80 -48 0
v -96 -48 0
v -96 -32 0
v -80 -32 0
v -64 -48 0
v -80 -48 0
v -80 -32 0
v -64 -32 0
v -48 -48 0
v -64 -48 0
v -64 -32 0
v -48 -32 0
v -32 -48 0
v -48 -48 0
v -48 -32 0
v -32 -32 0
v -16 -48 0
v -32 -48 0
v -32 -32 0
v -16 -32 0
v 0 -48 0
v -16 -48 0
v -16 -32 0
v 0 -32 0
v -240 -64 0
v -256 -64 0
v -256 -48 0
v -240 -48 0
v -224 -64 0
v -240 -64 0
v -240 -48 0
v -224 -48 0
v -208 -64 0
v -224 -64 0
v -224 -48 0
v -208 -48 0
v -192 -64 0
v -208 -64 0
v -208 -48 0
v -192 -48 0
v -176 -64 0
v -192 -64 0
v -192 -48 0
v -176 -48 0
v -160 -64 0
v -176 -64 0
v -176 -48 0
v -160 -48 0
v -144 -64 0
v -160 -64 0
v -160 -48 0
v -144 -48 0
v -128 -64 0
v -144 -64 0
v -144 -48 0
v -128 -48 0
v -112 -64 0
v -128 -64 0
v -128 -48 0
v -112 -48 0
v -96 -64 0
v -112 -64 0
v -112 -48 0
v -96 -48 0
v -80 -64 0
v -96 -64 0
v -96 -48 0
v -80 -48 0
v -64 -64 0
v -80 -64 0
v -80 -48 0
v -64 -48 0
v -48 -64 0
v -64 -64 0
v -64 -48 0
v -48 -48 0
v -32 -64 0
v -48 -64 0
v -48 -48 0
v -32 -48 0
v -16 -64 0
v -32 -64 0
v -32 -48 0
v -16 -48 0
v 0 -64 0
v -16 -64 0
v -16 -48 0
v 0 -48 0
v -240 -80 0
v -256 -80 0
v -256 -64 0
v -240 -64 0
v -224 -80 0
v -240 -80 0
v -240 -64 0
v -224 -64 0
v -208 -80 0
v -224 -80 0
v -224 -64 0
v -208 -64 0
v -192 -80 0
v -208 -80 0
v -208 -64 0
v -192 -64 0
v -176 -80 0
v -192 -80 0
v -192 -64 0
v -176 -64 0
v -160 -80 0
v -176 -80 0
v -176 -64 0
v -160 -64 0
v -144 -80 0
v -160 -80 0
v -160 -64 0
v -144 -64 0
v -128 -80 0
v -144 -80 0
v -144 -64 0
v -128 -64 0
v -112 -80 0
v -128 -80 0
v -128 -64 0
v -112 -64 0
v -96 -80 0
v -112 -80 0
v -112 -64 0
v -96 -64 0
v -80 -80 0
v -96 -80 0
v -96 -64 0
v -80 -64 0
v -64 -80 0
v -80 -80 0
v -80 -64 0
v -64 -64 0
v -48 -80 0
v -64 -80 0
v -64 -64 0
v -48 -64 0
v -32 -80 0
v -48 -80 0
v -48 -64 0
v -32 -64 0
v -16 -80 0
v -32 -80 0
v -32 -64 0
v -16 -64 0
v 0 -80 0
v -16 -80 0
v -16 -64 0
v 0 -64 0
v -240 -96 0
v -256 -96 0
v -256 -80 0
v -240 -80 0
v -224 -96 0
v -240 -96 0
v -240 -80 0
v -224 -80 0
v -208 -96 0
v -224 -96 0
v -224 -80 0
v -208 -80 0
v -192 -96 0
v -208 -96 0
v -208 -80 0
v -192 -80 0
v -176 -96 0
v -192 -96 0
v -192 -80 0
v -176 -80 0
v -160 -96 0
v -176 -96 0
v -176 -80 0
v -160 -80 0
v -144 -96 0
v -160 -96 0
v -160 -80 0
v -144 -80 0
v -128 -96 0
v -144 -96 0
v -144 -80 0
v -128 -80 0
v -112 -96 0
v -128 -96 0
v -128 -80 0
v -112 -80 0
v -96 -96 0
v -112 -96 0
v -112 -80 0
v -96 -80 0
v -80 -96 0
v -96 -96 0
v -96 -80 0
v -80 -80 0
v -64 -96 0
v -80 -96 0
v -80 -80 0
v -64 -80 0
v -48 -96 0
v -64 -96 0
v -64 -80 0
v -48 -80 0
v -32 -96 0
v -48 -96 0
v -48 -80 0
v -32 -80 0
v -16 -96 0
v -32 -96 0
v -32 -80 0
v -16 -80 0
v 0 -96 0
v -16 -96 0
v -16 -80 0
v 0 -80 0
v -240 -112 0
v -256 -112 0
v -256 -96 0
v -240 -96 0
v -224 -112 0
v -240 -112 0
v -240 -96 0
v -224 -96 0
v -208 -112 0
v -224 -112 0
v -224 -96 0
v -208 -96 0
v -192 -112 0
v -208 -112 0
v -208 -96 0
v -192 -96 0
v -176 -112 0
v -192 -112 0
v -192 -96 0
v -176 -96 0
v -160 -112 0
v -176 -112 0
v -176 -96 0
v -160 -96 0
v -144 -112 0
v -160 -112 0
v -160 -96 0
v -144 -96 0
v -128 -112 0
v -144 -112 0
v -144 -96 0
v -128 -96 0
v -112 -112 0
v -128 -112 0
v -128 -96 0
v -112 -96 0
v -96 -112 0
v -112 -112 0
v -112 -96 0
v -96 -96 0
v -80 -112 0
v -96 -112 0
v -96 -96 0
v -80 -96 0
v -64 -112 0
v -80 -112 0
v -80 -96 0
v -64 -96 0
v -48 -112 0
v -64 -112 0
v -64 -96 0
v -48 -96 0
v -32 -112 0
v -48 -112 0
v -48 -96 0
v -32 -96 0
v -16 -112 0
v -32 -112 0
v -32 -96 0
v -16 -96 0
v 0 -112 0
v -16 -112 0
v -16 -96 0
v 0 -96 0
v -240 -128 0
v -256 -128 0
v -256 -112 0
v -240 -112 0
v -224 -128 0
v -240 -128 0
v -240 -112 0
v -224 -112 0
v -208 -128 0
v -224 -128 0
v -224 -112 0
v -208 -112 0
v -192 -128 0
v -208 -128 0
v -208 -112 0
v -192 -112 0
v -176 -128 0
v -192 -128 0
v -192 -112 0
v -176 -112 0
v -160 -128 0
v -176 -128 0
v -176 -112 0
v -160 -112 0
v -144 -128 0
v -160 -128 0
v -160 -112 0
v -144 -112 0
v -128 -128 0
v -144 -128 0
v -144 -112 0
v -128 -112 0
v -112 -128 0
v -128 -128 0
v -128 -112 0
v -112 -112 0
v -96 -128 0
v -112 -128 0
v -112 -112 0
v -96 -112 0
v -80 -128 0
v -96 -128 0
v -96 -112 0
v -80 -112 0
v -64 -128 0
v -80 -128 0
v -80 -112 0
v -64 -112 0
v -48 -128 0
v -64 -128 0
v -64 -112 0
v -48 -112 0
v -32 -128 0
v -48 -128 0
v -48 -112 0
v -32 -112 0
v -16 -128 0
v -32 -128 0
v -32 -112 0
v -16 -112 0
v 0 -128 0
v -16 -128 0
v -16 -112 0
v 0 -112 0
v -240 -144 0
v -256 -144 0
v -256 -128 0
v -240 -128 0
v -224 -144 0
v -240 -144 0
v -240 -128 0
v -224 -128 0
v -208 -144 0
v -224 -144 0
v -224 -128 0
v -208 -128 0
v -192 -144 0
v -208 -144 0
v -208 -128 0
v -192 -128 0
v -176 -144 0
v -192 -144 0
v -192 -128 0
v -176 -128 0
v -160 -144 0
v -176 -144 0
v -176 -128 0
v -160 -128 0
v -144 -144 0
v -160 -144 0
v -160 -128 0
v -144 -128 0
v -128 -144 0
v -144 -144 0
v -144 -128 0
v -128 -128 0
v -112 -144 0
v -128 -144 0
v -128 -128 0
v -112 -128 0
v -96 -144 0
v -112 -144 0
v -112 -128 0
v -96 -128 0
v -80 -144 0
v -96 -144 0
v -96 -128 0
v -80 -128 0
v -64 -144 0
v -80 -144 0
v -80 -128 0
v -64 -128 0
v -48 -144 0
v -64 -144 0
v -64 -128 0
v -48 -128 0
v -32 -144 0
v -48 -144 0
v -48 -128 0
v -32 -128 0
v -16 -144 0
v -32 -144 0
v -32 -128 0
v -16 -128 0
v 0 -144 0
v -16 -144 0
v -16 -128 0
v 0 -128 0
v -240 -160 0
v -256 -160 0
v -256 -144 0
v -240 -144 0
v -224 -160 0
v -240 -160 0
v -240 -144 0
v -224 -144 0
v -208 -160 0
v -224 -160 0
v -224 -144 0
v -208 -144 0
v -192 -160 0
v -208 -160 0
v -208 -144 0
v -192 -144 0
v -176 -160 0
v -192 -160 0
v -192 -144 0
v -176 -144 0
v -160 -160 0
v -176 -160 0
v -176 -144 0
v -160 -144 0
v -144 -160 0
v -160 -160 0
v -160 -144 0
v -144 -144 0
v -128 -160 0
v -144 -160 0
v -144 -144 0
v -128 -144 0
v -112 -160 0
v -128 -160 0
v -128 -144 0
v -112 -144 0
v -96 -160 0
v -112 -160 0
v -112 -144 0
v -96 -144 0
v -80 -160 0
v -96 -160 0
v -96 -144 0
v -80 -144 0
v -64 -160 0
v -80 -160 0
v -80 -144 0
v -64 -144 0
v -48 -160 0
v -64 -160 0
v -64 -144 0
v -48 -144 0
v -32 -160 0
v -48 -160 0
v -48 -144 0
v -32 -144 0
v -16 -160 0
v -32 -160 0
v -32 -144 0
v -16 -144 0
v 0 -160 0
v -16 -160 0
v -16 -144 0
v 0 -144 0
v -240 -176 0
v -256 -176 0
v -256 -160 0
v -240 -160 0
v -224 -176 0
v -240 -176 0
v -240 -160 0
v -224 -160 0
v -208 -176 0
v -224 -176 0
v -224 -160 0
v -208 -160 0
v -192 -176 0
v -208 -176 0
v -208 -160 0
v -192 -160 0
v -176 -176 0
v -192 -176 0
v -192 -160 0
v -176 -160 0
v -160 -176 0
v -176 -176 0
v -176 -160 0
v -160 -160 0
v -144 -176 0
v -160 -176 0
v -160 -160 0
v -144 -160 0
v -128 -176 0
v -144 -176 0
v -144 -160 0
v -128 -160 0
v -112 -176 0
v -128 -176 0
v -128 -160 0
v -112 -160 0
v -96 -176 0
v -112 -176 0
v -112 -160 0
v -96 -160 0
v -80 -176 0
v -96 -176 0
v -96 -160 0
v -80 -160 0
v -64 -176 0
v -80 -176 0
v -80 -160 0
v -64 -160 0
v -48 -176 0
v -64 -176 0
v -64 -160 0
v -48 -160 0
v -32 -176 0
v -48 -176 0
v -48 -160 0
v -32 -160 0
v -16 -176 0
v -32 -176 0
v -32 -160 0
v -16 -160 0
v 0 -176 0
v -16 -176 0
v -16 -160 0
v 0 -160 0
v -240 -192 0
v -256 -192 0
v -256 -176 0
v -240 -176 0
v -224 -192 0
v -240 -192 0
v -240 -176 0
v -224 -176 0
v -208 -192 0
v -224 -192 0
v -224 -176 0
v -208 -176 0
v -192 -192 0
v -208 -192 0
v -208 -176 0
v -192 -176 0
v -176 -192 0
v -192 -192 0
v -192 -176 0
v -176 -176 0
v -160 -192 0
v -176 -192 0
v -176 -176 0
v -160 -176 0
v -144 -192 0
v -160 -192 0
v -160 -176 0
v -144 -176 0
v -128 -192 0
v -144 -192 0
v -144 -176 0
v -128 -176 0
v -112 -192 0
v -128 -192 0
v -128 -176 0
v -112 -176 0
v -96 -192 0
v -112 -192 0
v -112 -176 0
v -96 -176 0
v -80 -192 0
v -96 -192 0
v -96 -176 0
v -80 -176 0
v -64 -192 0
v -80 -192 0
v -80 -176 0
v -64 -176 0
v -48 -192 0
v -64 -192 0
v -64 -176 0
v -48 -176 0
v -32 -192 0
v -48 -192 0
v -48 -176 0
v -32 -176 0
v -16 -192 0
v -32 -192 0
v -32 -176 0
v -16 -176 0
v 0 -192 0
v -16 -192 0
v -16 -176 0
v 0 -176 0
v -240 -208 0
v -256 -208 0
v -256 -192 0
v -240 -192 0
v -224 -208 0
v -240 -208 0
v -240 -192 0
v -224 -192 0
v -208 -208 0
v -224 -208 0
v -224 -192 0
v -208 -192 0
v -192 -208 0
v -208 -208 0
v -208 -192 0
v -192 -192 0
v -176 -208 0
v -192 -208 0
v -192 -192 0
v -176 -192 0
v -160 -208 0
v -176 -208 0
v -176 -192 0
v -160 -192 0
v -144 -208 0
v -160 -208 0
v -160 -192 0
v -144 -192 0
v -128 -208 0
v -144 -208 0
v -144 -192 0
v -128 -192 0
v -112 -208 0
v -128 -208 0
v -128 -192 0
v -112 -192 0
v -96 -208 0
v -112 -208 0
v -112 -192 0
v -96 -192 0
v -80 -208 0
v -96 -208 0
v -96 -192 0
v -80 -192 0
v -64 -208 0
v -80 -208 0
v -80 -192 0
v -64 -192 0
v -48 -208 0
v -64 -208 0
v -64 -192 0
v -48 -192 0
v -32 -208 0
v -48 -208 0
v -48 -192 0
v -32 -192 0
v -16 -208 0
v -32 -208 0
v -32 -192 0
v -16 -192 0
v 0 -208 0
v -16 -208 0
v -16 -192 0
v 0 -192 0
v -240 -224 0
v -256 -224 0
v -256 -208 0
v -240 -208 0
v -224 -224 0
v -240 -224 0
v -240 -208 0
v -224 -208 0
v -208 -224 0
v -224 -224 0
v -224 -208 0
v -208 -208 0
v -192 -224 0
v -208 -224 0
v -208 -208 0
v -192 -208 0
v -176 -224 0
v -192 -224 0
v -192 -208 0
v -176 -208 0
v -160 -224 0
v -176 -224 0
v -176 -208 0
v -160 -208 0
v -144 -224 0
v -160 -224 0
v -160 -208 0
v -144 -208 0
v -128 -224 0
v -144 -224 0
v -144 -208 0
v -128 -208 0
v -112 -224 0
v -128 -224 0
v -128 -208 0
v -112 -208 0
v -96 -224 0
v -112 -224 0
v -112 -208 0
v -96 -208 0
v -80 -224 0
v -96 -224 0
v -96 -208 0
v -80 -208 0
v -64 -224 0
v -80 -224 0
v -80 -208 0
v -64 -208 0
v -48 -224 0
v -64 -224 0
v -64 -208 0
v -48 -208 0
v -32 -224 0
v -48 -224 0
v -48 -208 0
v -32 -208 0
v -16 -224 0
v -32 -224 0
v -32 -208 0
v -16 -208 0
v 0 -224 0
v -16 -224 0
v -16 -208 0
v 0 -208 0
v -240 -240 0
v -256 -240 0
v -256 -224 0
v -240 -224 0
v -224 -240 0
v -240 -240 0
v -240 -224 0
v -224 -224 0
v -208 -240 0
v -224 -240 0
v -224 -224 0
v -208 -224 0
v -192 -240 0
v -208 -240 0
v -208 -224 0
v -192 -224 0
v -176 -240 0
v -192 -240 0
v -192 -224 0
v -176 -224 0
v -160 -240 0
v -176 -240 0
v -176 -224 0
v -160 -224 0
v -144 -240 0
v -160 -240 0
v -160 -224 0
v -144 -224 0
v -128 -240 0
v -144 -240 0
v -144 -224 0
v -128 -224 0
v -112 -240 0
v -128 -240 0
v -128 -224 0
v -112 -224 0
v -96 -240 0
v -112 -240 0
v -112 -224 0
v -96 -224 0
v -80 -240 0
v -96 -240 0
v -96 -224 0
v -80 -224 0
v -64 -240 0
v -80 -240 0
v -80 -224 0
v -64 -224 0
v -48 -240 0
v -64 -240 0
v -64 -224 0
v -48 -224 0
v -32 -240 0
v -48 -240 0
v -48 -224 0
v -32 -224 0
v -16 -240 0
v -32 -240 0
v -32 -224 0
v -16 -224 0
v 0 -240 0
v -16 -240 0
v -16 -224 0
v 0 -224 0
v -240 -256 0
v -256 -256 0
v -256 -240 0
v -240 -240 0
v -224 -256 0
v -240 -256 0
v -240 -240 0
v -224 -240 0
v -208 -256 0
v -224 -256 0
v -224 -240 0
v -208 -240 0
v -192 -256 0
v -208 -256 0
v -208 -240 0
v -192 -240 0
v -176 -256 0
v -192 -256 0
v -192 -240 0
v -176 -240 0
v -160 -256 0
v -176 -256 0
v -176 -240 0
v -160 -240 0
v -144 -256 0
v -160 -256 0
v -160 -240 0
v -144 -240 0
v -128 -256 0
v -144 -256 0
v -144 -240 0
v -128 -240 0
v -112 -256 0
v -128 -256 0
v -128 -240 0
v -112 -240 0
v -96 -256 0
v -112 -256 0
v -112 -240 0
v -96 -240 0
v -80 -256 0
v -96 -256 0
v -96 -240 0
v -80 -240 0
v -64 -256 0
v -80 -256 0
v -80 -240 0
v -64 -240 0
v -48 -256 0
v -64 -256 0
v -64 -240 0
v -48 -240 0
v -32 -256 0
v -48 -256 0
v -48 -240 0
v -32 -240 0
v -16 -256 0
v -32 -256 0
v -32 -240 0
v -16 -240 0
v 0 -256 0
v -16 -256 0
v -16 -240 0
v 0 -240 0

# Texture cooridinates (Count = 9)
vt 0.2 0.7222222
vt 0.225 0.7222222
vt 0.225 0.75
vt 0.2 0.75
vt 0.2 0.6944444
vt 0.225 0.6944444
vt 0.175 0.6944444
vt 0.175 0.7222222
vt 0.175 0.75

# Normal
vn 0 0 -1

# Mesh description
g Village_mesh_0037

# Faces
f 1/1/1 2/2/1 3/3/1 4/4/1
f 5/5/1 6/6/1 7/2/1 8/1/1
f 9/1/1 10/2/1 11/3/1 12/4/1
f 13/7/1 14/5/1 15/1/1 16/8/1
f 17/7/1 18/5/1 19/1/1 20/8/1
f 21/8/1 22/1/1 23/4/1 24/9/1
f 25/7/1 26/5/1 27/1/1 28/8/1
f 29/7/1 30/5/1 31/1/1 32/8/1
f 33/5/1 34/6/1 35/2/1 36/1/1
f 37/5/1 38/6/1 39/2/1 40/1/1
f 41/8/1 42/1/1 43/4/1 44/9/1
f 45/7/1 46/5/1 47/1/1 48/8/1
f 49/1/1 50/2/1 51/3/1 52/4/1
f 53/7/1 54/5/1 55/1/1 56/8/1
f 57/7/1 58/5/1 59/1/1 60/8/1
f 61/8/1 62/1/1 63/4/1 64/9/1
f 65/1/1 66/2/1 67/3/1 68/4/1
f 69/5/1 70/6/1 71/2/1 72/1/1
f 73/8/1 74/1/1 75/4/1 76/9/1
f 77/8/1 78/1/1 79/4/1 80/9/1
f 81/8/1 82/1/1 83/4/1 84/9/1
f 85/8/1 86/1/1 87/4/1 88/9/1
f 89/1/1 90/2/1 91/3/1 92/4/1
f 93/8/1 94/1/1 95/4/1 96/9/1
f 97/7/1 98/5/1 99/1/1 100/8/1
f 101/1/1 102/2/1 103/3/1 104/4/1
f 105/1/1 106/2/1 107/3/1 108/4/1
f 109/7/1 110/5/1 111/1/1 112/8/1
f 113/1/1 114/2/1 115/3/1 116/4/1
f 117/1/1 118/2/1 119/3/1 120/4/1
f 121/8/1 122/1/1 123/4/1 124/9/1
f 125/1/1 126/2/1 127/3/1 128/4/1
f 129/7/1 130/5/1 131/1/1 132/8/1
f 133/1/1 134/2/1 135/3/1 136/4/1
f 137/8/1 138/1/1 139/4/1 140/9/1
f 141/1/1 142/2/1 143/3/1 144/4/1
f 145/8/1 146/1/1 147/4/1 148/9/1
f 149/1/1 150/2/1 151/3/1 152/4/1
f 153/5/1 154/6/1 155/2/1 156/1/1
f 157/7/1 158/5/1 159/1/1 160/8/1
f 161/5/1 162/6/1 163/2/1 164/1/1
f 165/7/1 166/5/1 167/1/1 168/8/1
f 169/7/1 170/5/1 171/1/1 172/8/1
f 173/7/1 174/5/1 175/1/1 176/8/1
f 177/5/1 178/6/1 179/2/1 180/1/1
f 181/1/1 182/2/1 183/3/1 184/4/1
f 185/1/1 186/2/1 187/3/1 188/4/1
f 189/7/1 190/5/1 191/1/1 192/8/1
f 193/8/1 194/1/1 195/4/1 196/9/1
f 197/1/1 198/2/1 199/3/1 200/4/1
f 201/7/1 202/5/1 203/1/1 204/8/1
f 205/5/1 206/6/1 207/2/1 208/1/1
f 209/5/1 210/6/1 211/2/1 212/1/1
f 213/1/1 214/2/1 215/3/1 216/4/1
f 217/5/1 218/6/1 219/2/1 220/1/1
f 221/8/1 222/1/1 223/4/1 224/9/1
f 225/5/1 226/6/1 227/2/1 228/1/1
f 229/5/1 230/6/1 231/2/1 232/1/1
f 233/8/1 234/1/1 235/4/1 236/9/1
f 237/5/1 238/6/1 239/2/1 240/1/1
f 241/7/1 242/5/1 243/1/1 244/8/1
f 245/5/1 246/6/1 247/2/1 248/1/1
f 249/1/1 250/2/1 251/3/1 252/4/1
f 253/7/1 254/5/1 255/1/1 256/8/1
f 257/1/1 258/2/1 259/3/1 260/4/1
f 261/1/1 262/2/1 263/3/1 264/4/1
f 265/8/1 266/1/1 267/4/1 268/9/1
f 269/1/1 270/2/1 271/3/1 272/4/1
f 273/1/1 274/2/1 275/3/1 276/4/1
f 277/8/1 278/1/1 279/4/1 280/9/1
f 281/1/1 282/2/1 283/3/1 284/4/1
f 285/1/1 286/2/1 287/3/1 288/4/1
f 289/1/1 290/2/1 291/3/1 292/4/1
f 293/7/1 294/5/1 295/1/1 296/8/1
f 297/8/1 298/1/1 299/4/1 300/9/1
f 301/8/1 302/1/1 303/4/1 304/9/1
f 305/7/1 306/5/1 307/1/1 308/8/1
f 309/5/1 310/6/1 311/2/1 312/1/1
f 313/7/1 314/5/1 315/1/1 316/8/1
f 317/5/1 318/6/1 319/2/1 320/1/1
f 321/1/1 322/2/1 323/3/1 324/4/1
f 325/5/1 326/6/1 327/2/1 328/1/1
f 329/7/1 330/5/1 331/1/1 332/8/1
f 333/1/1 334/2/1 335/3/1 336/4/1
f 337/8/1 338/1/1 339/4/1 340/9/1
f 341/1/1 342/2/1 343/3/1 344/4/1
f 345/8/1 346/1/1 347/4/1 348/9/1
f 349/5/1 350/6/1 351/2/1 352/1/1
f 353/1/1 354/2/1 355/3/1 356/4/1
f 357/7/1 358/5/1 359/1/1 360/8/1
f 361/7/1 362/5/1 363/1/1 364/8/1
f 365/8/1 366/1/1 367/4/1 368/9/1
f 369/5/1 370/6/1 371/2/1 372/1/1
f 373/5/1 374/6/1 375/2/1 376/1/1
f 377/1/1 378/2/1 379/3/1 380/4/1
f 381/1/1 382/2/1 383/3/1 384/4/1
f 385/5/1 386/6/1 387/2/1 388/1/1
f 389/7/1 390/5/1 391/1/1 392/8/1
f 393/1/1 394/2/1 395/3/1 396/4/1
f 397/8/1 398/1/1 399/4/1 400/9/1
f 401/1/1 402/2/1 403/3/1 404/4/1
f 405/8/1 406/1/1 407/4/1 408/9/1
f 409/8/1 410/1/1 411/4/1 412/9/1
f 413/8/1 414/1/1 415/4/1 416/9/1
f 417/5/1 418/6/1 419/2/1 420/1/1
f 421/7/1 422/5/1 423/1/1 424/8/1
f 425/1/1 426/2/1 427/3/1 428/4/1
f 429/5/1 430/6/1 431/2/1 432/1/1
f 433/5/1 434/6/1 435/2/1 436/1/1
f 437/1/1 438/2/1 439/3/1 440/4/1
f 441/1/1 442/2/1 443/3/1 444/4/1
f 445/5/1 446/6/1 447/2/1 448/1/1
f 449/7/1 450/5/1 451/1/1 452/8/1
f 453/1/1 454/2/1 455/3/1 456/4/1
f 457/8/1 458/1/1 459/4/1 460/9/1
f 461/8/1 462/1/1 463/4/1 464/9/1
f 465/1/1 466/2/1 467/3/1 468/4/1
f 469/5/1 470/6/1 471/2/1 472/1/1
f 473/1/1 474/2/1 475/3/1 476/4/1
f 477/5/1 478/6/1 479/2/1 480/1/1
f 481/7/1 482/5/1 483/1/1 484/8/1
f 485/8/1 486/1/1 487/4/1 488/9/1
f 489/5/1 490/6/1 491/2/1 492/1/1
f 493/5/1 494/6/1 495/2/1 496/1/1
f 497/8/1 498/1/1 499/4/1 500/9/1
f 501/8/1 502/1/1 503/4/1 504/9/1
f 505/8/1 506/1/1 507/4/1 508/9/1
f 509/1/1 510/2/1 511/3/1 512/4/1
f 513/1/1 514/2/1 515/3/1 516/4/1
f 517/1/1 518/2/1 519/3/1 520/4/1
f 521/7/1 522/5/1 523/1/1 524/8/1
f 525/7/1 526/5/1 527/1/1 528/8/1
f 529/1/1 530/2/1 531/3/1 532/4/1
f 533/1/1 534/2/1 535/3/1 536/4/1
f 537/7/1 538/5/1 539/1/1 540/8/1
f 541/5/1 542/6/1 543/2/1 544/1/1
f 545/5/1 546/6/1 547/2/1 548/1/1
f 549/1/1 550/2/1 551/3/1 552/4/1
f 553/7/1 554/5/1 555/1/1 556/8/1
f 557/5/1 558/6/1 559/2/1 560/1/1
f 561/7/1 562/5/1 563/1/1 564/8/1
f 565/5/1 566/6/1 567/2/1 568/1/1
f 569/1/1 570/2/1 571/3/1 572/4/1
f 573/7/1 574/5/1 575/1/1 576/8/1
f 577/8/1 578/1/1 579/4/1 580/9/1
f 581/8/1 582/1/1 583/4/1 584/9/1
f 585/7/1 586/5/1 587/1/1 588/8/1
f 589/7/1 590/5/1 591/1/1 592/8/1
f 593/8/1 594/1/1 595/4/1 596/9/1
f 597/7/1 598/5/1 599/1/1 600/8/1
f 601/1/1 602/2/1 603/3/1 604/4/1
f 605/8/1 606/1/1 607/4/1 608/9/1
f 609/8/1 610/1/1 611/4/1 612/9/1
f 613/8/1 614/1/1 615/4/1 616/9/1
f 617/7/1 618/5/1 619/1/1 620/8/1
f 621/5/1 622/6/1 623/2/1 624/1/1
f 625/8/1 626/1/1 627/4/1 628/9/1
f 629/5/1 630/6/1 631/2/1 632/1/1
f 633/1/1 634/2/1 635/3/1 636/4/1
f 637/8/1 638/1/1 639/4/1 640/9/1
f 641/5/1 642/6/1 643/2/1 644/1/1
f 645/1/1 646/2/1 647/3/1 648/4/1
f 649/1/1 650/2/1 651/3/1 652/4/1
f 653/7/1 654/5/1 655/1/1 656/8/1
f 657/5/1 658/6/1 659/2/1 660/1/1
f 661/5/1 662/6/1 663/2/1 664/1/1
f 665/1/1 666/2/1 667/3/1 668/4/1
f 669/8/1 670/1/1 671/4/1 672/9/1
f 673/7/1 674/5/1 675/1/1 676/8/1
f 677/8/1 678/1/1 679/4/1 680/9/1
f 681/5/1 682/6/1 683/2/1 684/1/1
f 685/7/1 686/5/1 687/1/1 688/8/1
f 689/8/1 690/1/1 691/4/1 692/9/1
f 693/5/1 694/6/1 695/2/1 696/1/1
f 697/7/1 698/5/1 699/1/1 700/8/1
f 701/8/1 702/1/1 703/4/1 704/9/1
f 705/8/1 706/1/1 707/4/1 708/9/1
f 709/1/1 710/2/1 711/3/1 712/4/1
f 713/5/1 714/6/1 715/2/1 716/1/1
f 717/8/1 718/1/1 719/4/1 720/9/1
f 721/7/1 722/5/1 723/1/1 724/8/1
f 725/8/1 726/1/1 727/4/1 728/9/1
f 729/8/1 730/1/1 731/4/1 732/9/1
f 733/1/1 734/2/1 735/3/1 736/4/1
f 737/7/1 738/5/1 739/1/1 740/8/1
f 741/5/1 742/6/1 743/2/1 744/1/1
f 745/7/1 746/5/1 747/1/1 748/8/1
f 749/1/1 750/2/1 751/3/1 752/4/1
f 753/8/1 754/1/1 755/4/1 756/9/1
f 757/1/1 758/2/1 759/3/1 760/4/1
f 761/7/1 762/5/1 763/1/1 764/8/1
f 765/8/1 766/1/1 767/4/1 768/9/1
f 769/1/1 770/2/1 771/3/1 772/4/1
f 773/1/1 774/2/1 775/3/1 776/4/1
f 777/1/1 778/2/1 779/3/1 780/4/1
f 781/1/1 782/2/1 783/3/1 784/4/1
f 785/1/1 786/2/1 787/3/1 788/4/1
f 789/1/1 790/2/1 791/3/1 792/4/1
f 793/5/1 794/6/1 795/2/1 796/1/1
f 797/1/1 798/2/1 799/3/1 800/4/1
f 801/1/1 802/2/1 803/3/1 804/4/1
f 805/7/1 806/5/1 807/1/1 808/8/1
f 809/7/1 810/5/1 811/1/1 812/8/1
f 813/1/1 814/2/1 815/3/1 816/4/1
f 817/8/1 818/1/1 819/4/1 820/9/1
f 821/8/1 822/1/1 823/4/1 824/9/1
f 825/1/1 826/2/1 827/3/1 828/4/1
f 829/8/1 830/1/1 831/4/1 832/9/1
f 833/8/1 834/1/1 835/4/1 836/9/1
f 837/5/1 838/6/1 839/2/1 840/1/1
f 841/5/1 842/6/1 843/2/1 844/1/1
f 845/7/1 846/5/1 847/1/1 848/8/1
f 849/8/1 850/1/1 851/4/1 852/9/1
f 853/1/1 854/2/1 855/3/1 856/4/1
f 857/5/1 858/6/1 859/2/1 860/1/1
f 861/7/1 862/5/1 863/1/1 864/8/1
f 865/1/1 866/2/1 867/3/1 868/4/1
f 869/5/1 870/6/1 871/2/1 872/1/1
f 873/7/1 874/5/1 875/1/1 876/8/1
f 877/1/1 878/2/1 879/3/1 880/4/1
f 881/7/1 882/5/1 883/1/1 884/8/1
f 885/5/1 886/6/1 887/2/1 888/1/1
f 889/5/1 890/6/1 891/2/1 892/1/1
f 893/1/1 894/2/1 895/3/1 896/4/1
f 897/5/1 898/6/1 899/2/1 900/1/1
f 901/7/1 902/5/1 903/1/1 904/8/1
f 905/7/1 906/5/1 907/1/1 908/8/1
f 909/8/1 910/1/1 911/4/1 912/9/1
f 913/7/1 914/5/1 915/1/1 916/8/1
f 917/1/1 918/2/1 919/3/1 920/4/1
f 921/5/1 922/6/1 923/2/1 924/1/1
f 925/5/1 926/6/1 927/2/1 928/1/1
f 929/7/1 930/5/1 931/1/1 932/8/1
f 933/1/1 934/2/1 935/3/1 936/4/1
f 937/7/1 938/5/1 939/1/1 940/8/1
f 941/8/1 942/1/1 943/4/1 944/9/1
f 945/1/1 946/2/1 947/3/1 948/4/1
f 949/5/1 950/6/1 951/2/1 952/1/1
f 953/1/1 954/2/1 955/3/1 956/4/1
f 957/7/1 958/5/1 959/1/1 960/8/1
f 961/1/1 962/2/1 963/3/1 964/4/1
f 965/8/1 966/1/1 967/4/1 968/9/1
f 969/1/1 970/2/1 971/3/1 972/4/1
f 973/1/1 974/2/1 975/3/1 976/4/1
f 977/1/1 978/2/1 979/3/1 980/4/1
f 981/8/1 982/1/1 983/4/1 984/9/1
f 985/8/1 986/1/1 987/4/1 988/9/1
f 989/8/1 990/1/1 991/4/1 992/9/1
f 993/1/1 994/2/1 995/3/1 996/4/1
f 997/5/1 998/6/1 999/2/1 1000/1/1
f 1001/1/1 1002/2/1 1003/3/1 1004/4/1
f 1005/7/1 1006/5/1 1007/1/1 1008/8/1
f 1009/7/1 1010/5/1 1011/1/1 1012/8/1
f 1013/5/1 1014/6/1 1015/2/1 1016/1/1
f 1017/5/1 1018/6/1 1019/2/1 1020/1/1
f 1021/5/1 1022/6/1 1023/2/1 1024/1/1

