# Tiled2Unity generated file. Do not modify by hand.
# Wavefront file for 'Village_mesh_0033.obj'

# Vertices (Count = 1024)
v -240 -16 0
v -256 -16 0
v -256 0 0
v -240 0 0
v -224 -16 0
v -240 -16 0
v -240 0 0
v -224 0 0
v -208 -16 0
v -224 -16 0
v -224 0 0
v -208 0 0
v -192 -16 0
v -208 -16 0
v -208 0 0
v -192 0 0
v -176 -16 0
v -192 -16 0
v -192 0 0
v -176 0 0
v -160 -16 0
v -176 -16 0
v -176 0 0
v -160 0 0
v -144 -16 0
v -160 -16 0
v -160 0 0
v -144 0 0
v -128 -16 0
v -144 -16 0
v -144 0 0
v -128 0 0
v -112 -16 0
v -128 -16 0
v -128 0 0
v -112 0 0
v -96 -16 0
v -112 -16 0
v -112 0 0
v -96 0 0
v -80 -16 0
v -96 -16 0
v -96 0 0
v -80 0 0
v -64 -16 0
v -80 -16 0
v -80 0 0
v -64 0 0
v -48 -16 0
v -64 -16 0
v -64 0 0
v -48 0 0
v -32 -16 0
v -48 -16 0
v -48 0 0
v -32 0 0
v -16 -16 0
v -32 -16 0
v -32 0 0
v -16 0 0
v 0 -16 0
v -16 -16 0
v -16 0 0
v 0 0 0
v -240 -32 0
v -256 -32 0
v -256 -16 0
v -240 -16 0
v -224 -32 0
v -240 -32 0
v -240 -16 0
v -224 -16 0
v -208 -32 0
v -224 -32 0
v -224 -16 0
v -208 -16 0
v -192 -32 0
v -208 -32 0
v -208 -16 0
v -192 -16 0
v -176 -32 0
v -192 -32 0
v -192 -16 0
v -176 -16 0
v -160 -32 0
v -176 -32 0
v -176 -16 0
v -160 -16 0
v -144 -32 0
v -160 -32 0
v -160 -16 0
v -144 -16 0
v -128 -32 0
v -144 -32 0
v -144 -16 0
v -128 -16 0
v -112 -32 0
v -128 -32 0
v -128 -16 0
v -112 -16 0
v -96 -32 0
v -112 -32 0
v -112 -16 0
v -96 -16 0
v -80 -32 0
v -96 -32 0
v -96 -16 0
v -80 -16 0
v -64 -32 0
v -80 -32 0
v -80 -16 0
v -64 -16 0
v -48 -32 0
v -64 -32 0
v -64 -16 0
v -48 -16 0
v -32 -32 0
v -48 -32 0
v -48 -16 0
v -32 -16 0
v -16 -32 0
v -32 -32 0
v -32 -16 0
v -16 -16 0
v 0 -32 0
v -16 -32 0
v -16 -16 0
v 0 -16 0
v -240 -48 0
v -256 -48 0
v -256 -32 0
v -240 -32 0
v -224 -48 0
v -240 -48 0
v -240 -32 0
v -224 -32 0
v -208 -48 0
v -224 -48 0
v -224 -32 0
v -208 -32 0
v -192 -48 0
v -208 -48 0
v -208 -32 0
v -192 -32 0
v -176 -48 0
v -192 -48 0
v -192 -32 0
v -176 -32 0
v -160 -48 0
v -176 -48 0
v -176 -32 0
v -160 -32 0
v -144 -48 0
v -160 -48 0
v -160 -32 0
v -144 -32 0
v -128 -48 0
v -144 -48 0
v -144 -32 0
v -128 -32 0
v -112 -48 0
v -128 -48 0
v -128 -32 0
v -112 -32 0
v -96 -48 0
v -112 -48 0
v -112 -32 0
v -96 -32 0
v -80 -48 0
v -96 -48 0
v -96 -32 0
v -80 -32 0
v -64 -48 0
v -80 -48 0
v -80 -32 0
v -64 -32 0
v -48 -48 0
v -64 -48 0
v -64 -32 0
v -48 -32 0
v -32 -48 0
v -48 -48 0
v -48 -32 0
v -32 -32 0
v -16 -48 0
v -32 -48 0
v -32 -32 0
v -16 -32 0
v 0 -48 0
v -16 -48 0
v -16 -32 0
v 0 -32 0
v -240 -64 0
v -256 -64 0
v -256 -48 0
v -240 -48 0
v -224 -64 0
v -240 -64 0
v -240 -48 0
v -224 -48 0
v -208 -64 0
v -224 -64 0
v -224 -48 0
v -208 -48 0
v -192 -64 0
v -208 -64 0
v -208 -48 0
v -192 -48 0
v -176 -64 0
v -192 -64 0
v -192 -48 0
v -176 -48 0
v -160 -64 0
v -176 -64 0
v -176 -48 0
v -160 -48 0
v -144 -64 0
v -160 -64 0
v -160 -48 0
v -144 -48 0
v -128 -64 0
v -144 -64 0
v -144 -48 0
v -128 -48 0
v -112 -64 0
v -128 -64 0
v -128 -48 0
v -112 -48 0
v -96 -64 0
v -112 -64 0
v -112 -48 0
v -96 -48 0
v -80 -64 0
v -96 -64 0
v -96 -48 0
v -80 -48 0
v -64 -64 0
v -80 -64 0
v -80 -48 0
v -64 -48 0
v -48 -64 0
v -64 -64 0
v -64 -48 0
v -48 -48 0
v -32 -64 0
v -48 -64 0
v -48 -48 0
v -32 -48 0
v -16 -64 0
v -32 -64 0
v -32 -48 0
v -16 -48 0
v 0 -64 0
v -16 -64 0
v -16 -48 0
v 0 -48 0
v -240 -80 0
v -256 -80 0
v -256 -64 0
v -240 -64 0
v -224 -80 0
v -240 -80 0
v -240 -64 0
v -224 -64 0
v -208 -80 0
v -224 -80 0
v -224 -64 0
v -208 -64 0
v -192 -80 0
v -208 -80 0
v -208 -64 0
v -192 -64 0
v -176 -80 0
v -192 -80 0
v -192 -64 0
v -176 -64 0
v -160 -80 0
v -176 -80 0
v -176 -64 0
v -160 -64 0
v -144 -80 0
v -160 -80 0
v -160 -64 0
v -144 -64 0
v -128 -80 0
v -144 -80 0
v -144 -64 0
v -128 -64 0
v -112 -80 0
v -128 -80 0
v -128 -64 0
v -112 -64 0
v -96 -80 0
v -112 -80 0
v -112 -64 0
v -96 -64 0
v -80 -80 0
v -96 -80 0
v -96 -64 0
v -80 -64 0
v -64 -80 0
v -80 -80 0
v -80 -64 0
v -64 -64 0
v -48 -80 0
v -64 -80 0
v -64 -64 0
v -48 -64 0
v -32 -80 0
v -48 -80 0
v -48 -64 0
v -32 -64 0
v -16 -80 0
v -32 -80 0
v -32 -64 0
v -16 -64 0
v 0 -80 0
v -16 -80 0
v -16 -64 0
v 0 -64 0
v -240 -96 0
v -256 -96 0
v -256 -80 0
v -240 -80 0
v -224 -96 0
v -240 -96 0
v -240 -80 0
v -224 -80 0
v -208 -96 0
v -224 -96 0
v -224 -80 0
v -208 -80 0
v -192 -96 0
v -208 -96 0
v -208 -80 0
v -192 -80 0
v -176 -96 0
v -192 -96 0
v -192 -80 0
v -176 -80 0
v -160 -96 0
v -176 -96 0
v -176 -80 0
v -160 -80 0
v -144 -96 0
v -160 -96 0
v -160 -80 0
v -144 -80 0
v -128 -96 0
v -144 -96 0
v -144 -80 0
v -128 -80 0
v -112 -96 0
v -128 -96 0
v -128 -80 0
v -112 -80 0
v -96 -96 0
v -112 -96 0
v -112 -80 0
v -96 -80 0
v -80 -96 0
v -96 -96 0
v -96 -80 0
v -80 -80 0
v -64 -96 0
v -80 -96 0
v -80 -80 0
v -64 -80 0
v -48 -96 0
v -64 -96 0
v -64 -80 0
v -48 -80 0
v -32 -96 0
v -48 -96 0
v -48 -80 0
v -32 -80 0
v -16 -96 0
v -32 -96 0
v -32 -80 0
v -16 -80 0
v 0 -96 0
v -16 -96 0
v -16 -80 0
v 0 -80 0
v -240 -112 0
v -256 -112 0
v -256 -96 0
v -240 -96 0
v -224 -112 0
v -240 -112 0
v -240 -96 0
v -224 -96 0
v -208 -112 0
v -224 -112 0
v -224 -96 0
v -208 -96 0
v -192 -112 0
v -208 -112 0
v -208 -96 0
v -192 -96 0
v -176 -112 0
v -192 -112 0
v -192 -96 0
v -176 -96 0
v -160 -112 0
v -176 -112 0
v -176 -96 0
v -160 -96 0
v -144 -112 0
v -160 -112 0
v -160 -96 0
v -144 -96 0
v -128 -112 0
v -144 -112 0
v -144 -96 0
v -128 -96 0
v -112 -112 0
v -128 -112 0
v -128 -96 0
v -112 -96 0
v -96 -112 0
v -112 -112 0
v -112 -96 0
v -96 -96 0
v -80 -112 0
v -96 -112 0
v -96 -96 0
v -80 -96 0
v -64 -112 0
v -80 -112 0
v -80 -96 0
v -64 -96 0
v -48 -112 0
v -64 -112 0
v -64 -96 0
v -48 -96 0
v -32 -112 0
v -48 -112 0
v -48 -96 0
v -32 -96 0
v -16 -112 0
v -32 -112 0
v -32 -96 0
v -16 -96 0
v 0 -112 0
v -16 -112 0
v -16 -96 0
v 0 -96 0
v -240 -128 0
v -256 -128 0
v -256 -112 0
v -240 -112 0
v -224 -128 0
v -240 -128 0
v -240 -112 0
v -224 -112 0
v -208 -128 0
v -224 -128 0
v -224 -112 0
v -208 -112 0
v -192 -128 0
v -208 -128 0
v -208 -112 0
v -192 -112 0
v -176 -128 0
v -192 -128 0
v -192 -112 0
v -176 -112 0
v -160 -128 0
v -176 -128 0
v -176 -112 0
v -160 -112 0
v -144 -128 0
v -160 -128 0
v -160 -112 0
v -144 -112 0
v -128 -128 0
v -144 -128 0
v -144 -112 0
v -128 -112 0
v -112 -128 0
v -128 -128 0
v -128 -112 0
v -112 -112 0
v -96 -128 0
v -112 -128 0
v -112 -112 0
v -96 -112 0
v -80 -128 0
v -96 -128 0
v -96 -112 0
v -80 -112 0
v -64 -128 0
v -80 -128 0
v -80 -112 0
v -64 -112 0
v -48 -128 0
v -64 -128 0
v -64 -112 0
v -48 -112 0
v -32 -128 0
v -48 -128 0
v -48 -112 0
v -32 -112 0
v -16 -128 0
v -32 -128 0
v -32 -112 0
v -16 -112 0
v 0 -128 0
v -16 -128 0
v -16 -112 0
v 0 -112 0
v -240 -144 0
v -256 -144 0
v -256 -128 0
v -240 -128 0
v -224 -144 0
v -240 -144 0
v -240 -128 0
v -224 -128 0
v -208 -144 0
v -224 -144 0
v -224 -128 0
v -208 -128 0
v -192 -144 0
v -208 -144 0
v -208 -128 0
v -192 -128 0
v -176 -144 0
v -192 -144 0
v -192 -128 0
v -176 -128 0
v -160 -144 0
v -176 -144 0
v -176 -128 0
v -160 -128 0
v -144 -144 0
v -160 -144 0
v -160 -128 0
v -144 -128 0
v -128 -144 0
v -144 -144 0
v -144 -128 0
v -128 -128 0
v -112 -144 0
v -128 -144 0
v -128 -128 0
v -112 -128 0
v -96 -144 0
v -112 -144 0
v -112 -128 0
v -96 -128 0
v -80 -144 0
v -96 -144 0
v -96 -128 0
v -80 -128 0
v -64 -144 0
v -80 -144 0
v -80 -128 0
v -64 -128 0
v -48 -144 0
v -64 -144 0
v -64 -128 0
v -48 -128 0
v -32 -144 0
v -48 -144 0
v -48 -128 0
v -32 -128 0
v -16 -144 0
v -32 -144 0
v -32 -128 0
v -16 -128 0
v 0 -144 0
v -16 -144 0
v -16 -128 0
v 0 -128 0
v -240 -160 0
v -256 -160 0
v -256 -144 0
v -240 -144 0
v -224 -160 0
v -240 -160 0
v -240 -144 0
v -224 -144 0
v -208 -160 0
v -224 -160 0
v -224 -144 0
v -208 -144 0
v -192 -160 0
v -208 -160 0
v -208 -144 0
v -192 -144 0
v -176 -160 0
v -192 -160 0
v -192 -144 0
v -176 -144 0
v -160 -160 0
v -176 -160 0
v -176 -144 0
v -160 -144 0
v -144 -160 0
v -160 -160 0
v -160 -144 0
v -144 -144 0
v -128 -160 0
v -144 -160 0
v -144 -144 0
v -128 -144 0
v -112 -160 0
v -128 -160 0
v -128 -144 0
v -112 -144 0
v -96 -160 0
v -112 -160 0
v -112 -144 0
v -96 -144 0
v -80 -160 0
v -96 -160 0
v -96 -144 0
v -80 -144 0
v -64 -160 0
v -80 -160 0
v -80 -144 0
v -64 -144 0
v -48 -160 0
v -64 -160 0
v -64 -144 0
v -48 -144 0
v -32 -160 0
v -48 -160 0
v -48 -144 0
v -32 -144 0
v -16 -160 0
v -32 -160 0
v -32 -144 0
v -16 -144 0
v 0 -160 0
v -16 -160 0
v -16 -144 0
v 0 -144 0
v -240 -176 0
v -256 -176 0
v -256 -160 0
v -240 -160 0
v -224 -176 0
v -240 -176 0
v -240 -160 0
v -224 -160 0
v -208 -176 0
v -224 -176 0
v -224 -160 0
v -208 -160 0
v -192 -176 0
v -208 -176 0
v -208 -160 0
v -192 -160 0
v -176 -176 0
v -192 -176 0
v -192 -160 0
v -176 -160 0
v -160 -176 0
v -176 -176 0
v -176 -160 0
v -160 -160 0
v -144 -176 0
v -160 -176 0
v -160 -160 0
v -144 -160 0
v -128 -176 0
v -144 -176 0
v -144 -160 0
v -128 -160 0
v -112 -176 0
v -128 -176 0
v -128 -160 0
v -112 -160 0
v -96 -176 0
v -112 -176 0
v -112 -160 0
v -96 -160 0
v -80 -176 0
v -96 -176 0
v -96 -160 0
v -80 -160 0
v -64 -176 0
v -80 -176 0
v -80 -160 0
v -64 -160 0
v -48 -176 0
v -64 -176 0
v -64 -160 0
v -48 -160 0
v -32 -176 0
v -48 -176 0
v -48 -160 0
v -32 -160 0
v -16 -176 0
v -32 -176 0
v -32 -160 0
v -16 -160 0
v 0 -176 0
v -16 -176 0
v -16 -160 0
v 0 -160 0
v -240 -192 0
v -256 -192 0
v -256 -176 0
v -240 -176 0
v -224 -192 0
v -240 -192 0
v -240 -176 0
v -224 -176 0
v -208 -192 0
v -224 -192 0
v -224 -176 0
v -208 -176 0
v -192 -192 0
v -208 -192 0
v -208 -176 0
v -192 -176 0
v -176 -192 0
v -192 -192 0
v -192 -176 0
v -176 -176 0
v -160 -192 0
v -176 -192 0
v -176 -176 0
v -160 -176 0
v -144 -192 0
v -160 -192 0
v -160 -176 0
v -144 -176 0
v -128 -192 0
v -144 -192 0
v -144 -176 0
v -128 -176 0
v -112 -192 0
v -128 -192 0
v -128 -176 0
v -112 -176 0
v -96 -192 0
v -112 -192 0
v -112 -176 0
v -96 -176 0
v -80 -192 0
v -96 -192 0
v -96 -176 0
v -80 -176 0
v -64 -192 0
v -80 -192 0
v -80 -176 0
v -64 -176 0
v -48 -192 0
v -64 -192 0
v -64 -176 0
v -48 -176 0
v -32 -192 0
v -48 -192 0
v -48 -176 0
v -32 -176 0
v -16 -192 0
v -32 -192 0
v -32 -176 0
v -16 -176 0
v 0 -192 0
v -16 -192 0
v -16 -176 0
v 0 -176 0
v -240 -208 0
v -256 -208 0
v -256 -192 0
v -240 -192 0
v -224 -208 0
v -240 -208 0
v -240 -192 0
v -224 -192 0
v -208 -208 0
v -224 -208 0
v -224 -192 0
v -208 -192 0
v -192 -208 0
v -208 -208 0
v -208 -192 0
v -192 -192 0
v -176 -208 0
v -192 -208 0
v -192 -192 0
v -176 -192 0
v -160 -208 0
v -176 -208 0
v -176 -192 0
v -160 -192 0
v -144 -208 0
v -160 -208 0
v -160 -192 0
v -144 -192 0
v -128 -208 0
v -144 -208 0
v -144 -192 0
v -128 -192 0
v -112 -208 0
v -128 -208 0
v -128 -192 0
v -112 -192 0
v -96 -208 0
v -112 -208 0
v -112 -192 0
v -96 -192 0
v -80 -208 0
v -96 -208 0
v -96 -192 0
v -80 -192 0
v -64 -208 0
v -80 -208 0
v -80 -192 0
v -64 -192 0
v -48 -208 0
v -64 -208 0
v -64 -192 0
v -48 -192 0
v -32 -208 0
v -48 -208 0
v -48 -192 0
v -32 -192 0
v -16 -208 0
v -32 -208 0
v -32 -192 0
v -16 -192 0
v 0 -208 0
v -16 -208 0
v -16 -192 0
v 0 -192 0
v -240 -224 0
v -256 -224 0
v -256 -208 0
v -240 -208 0
v -224 -224 0
v -240 -224 0
v -240 -208 0
v -224 -208 0
v -208 -224 0
v -224 -224 0
v -224 -208 0
v -208 -208 0
v -192 -224 0
v -208 -224 0
v -208 -208 0
v -192 -208 0
v -176 -224 0
v -192 -224 0
v -192 -208 0
v -176 -208 0
v -160 -224 0
v -176 -224 0
v -176 -208 0
v -160 -208 0
v -144 -224 0
v -160 -224 0
v -160 -208 0
v -144 -208 0
v -128 -224 0
v -144 -224 0
v -144 -208 0
v -128 -208 0
v -112 -224 0
v -128 -224 0
v -128 -208 0
v -112 -208 0
v -96 -224 0
v -112 -224 0
v -112 -208 0
v -96 -208 0
v -80 -224 0
v -96 -224 0
v -96 -208 0
v -80 -208 0
v -64 -224 0
v -80 -224 0
v -80 -208 0
v -64 -208 0
v -48 -224 0
v -64 -224 0
v -64 -208 0
v -48 -208 0
v -32 -224 0
v -48 -224 0
v -48 -208 0
v -32 -208 0
v -16 -224 0
v -32 -224 0
v -32 -208 0
v -16 -208 0
v 0 -224 0
v -16 -224 0
v -16 -208 0
v 0 -208 0
v -240 -240 0
v -256 -240 0
v -256 -224 0
v -240 -224 0
v -224 -240 0
v -240 -240 0
v -240 -224 0
v -224 -224 0
v -208 -240 0
v -224 -240 0
v -224 -224 0
v -208 -224 0
v -192 -240 0
v -208 -240 0
v -208 -224 0
v -192 -224 0
v -176 -240 0
v -192 -240 0
v -192 -224 0
v -176 -224 0
v -160 -240 0
v -176 -240 0
v -176 -224 0
v -160 -224 0
v -144 -240 0
v -160 -240 0
v -160 -224 0
v -144 -224 0
v -128 -240 0
v -144 -240 0
v -144 -224 0
v -128 -224 0
v -112 -240 0
v -128 -240 0
v -128 -224 0
v -112 -224 0
v -96 -240 0
v -112 -240 0
v -112 -224 0
v -96 -224 0
v -80 -240 0
v -96 -240 0
v -96 -224 0
v -80 -224 0
v -64 -240 0
v -80 -240 0
v -80 -224 0
v -64 -224 0
v -48 -240 0
v -64 -240 0
v -64 -224 0
v -48 -224 0
v -32 -240 0
v -48 -240 0
v -48 -224 0
v -32 -224 0
v -16 -240 0
v -32 -240 0
v -32 -224 0
v -16 -224 0
v 0 -240 0
v -16 -240 0
v -16 -224 0
v 0 -224 0
v -240 -256 0
v -256 -256 0
v -256 -240 0
v -240 -240 0
v -224 -256 0
v -240 -256 0
v -240 -240 0
v -224 -240 0
v -208 -256 0
v -224 -256 0
v -224 -240 0
v -208 -240 0
v -192 -256 0
v -208 -256 0
v -208 -240 0
v -192 -240 0
v -176 -256 0
v -192 -256 0
v -192 -240 0
v -176 -240 0
v -160 -256 0
v -176 -256 0
v -176 -240 0
v -160 -240 0
v -144 -256 0
v -160 -256 0
v -160 -240 0
v -144 -240 0
v -128 -256 0
v -144 -256 0
v -144 -240 0
v -128 -240 0
v -112 -256 0
v -128 -256 0
v -128 -240 0
v -112 -240 0
v -96 -256 0
v -112 -256 0
v -112 -240 0
v -96 -240 0
v -80 -256 0
v -96 -256 0
v -96 -240 0
v -80 -240 0
v -64 -256 0
v -80 -256 0
v -80 -240 0
v -64 -240 0
v -48 -256 0
v -64 -256 0
v -64 -240 0
v -48 -240 0
v -32 -256 0
v -48 -256 0
v -48 -240 0
v -32 -240 0
v -16 -256 0
v -32 -256 0
v -32 -240 0
v -16 -240 0
v 0 -256 0
v -16 -256 0
v -16 -240 0
v 0 -240 0

# Texture cooridinates (Count = 13)
vt 0.175 0.6944444
vt 0.2 0.6944444
vt 0.2 0.7222222
vt 0.175 0.7222222
vt 0.225 0.6944444
vt 0.225 0.7222222
vt 0.225 0.75
vt 0.2 0.75
vt 0.175 0.75
vt 0.075 0.7777778
vt 0.1 0.7777778
vt 0.1 0.8055556
vt 0.075 0.8055556

# Normal
vn 0 0 -1

# Mesh description
g Village_mesh_0033

# Faces
f 1/1/1 2/2/1 3/3/1 4/4/1
f 5/2/1 6/5/1 7/6/1 8/3/1
f 9/2/1 10/5/1 11/6/1 12/3/1
f 13/2/1 14/5/1 15/6/1 16/3/1
f 17/3/1 18/6/1 19/7/1 20/8/1
f 21/1/1 22/2/1 23/3/1 24/4/1
f 25/1/1 26/2/1 27/3/1 28/4/1
f 29/2/1 30/5/1 31/6/1 32/3/1
f 33/1/1 34/2/1 35/3/1 36/4/1
f 37/4/1 38/3/1 39/8/1 40/9/1
f 41/1/1 42/2/1 43/3/1 44/4/1
f 45/3/1 46/6/1 47/7/1 48/8/1
f 49/4/1 50/3/1 51/8/1 52/9/1
f 53/2/1 54/5/1 55/6/1 56/3/1
f 57/1/1 58/2/1 59/3/1 60/4/1
f 61/2/1 62/5/1 63/6/1 64/3/1
f 65/2/1 66/5/1 67/6/1 68/3/1
f 69/1/1 70/2/1 71/3/1 72/4/1
f 73/1/1 74/2/1 75/3/1 76/4/1
f 77/2/1 78/5/1 79/6/1 80/3/1
f 81/4/1 82/3/1 83/8/1 84/9/1
f 85/4/1 86/3/1 87/8/1 88/9/1
f 89/4/1 90/3/1 91/8/1 92/9/1
f 93/2/1 94/5/1 95/6/1 96/3/1
f 97/1/1 98/2/1 99/3/1 100/4/1
f 101/2/1 102/5/1 103/6/1 104/3/1
f 105/2/1 106/5/1 107/6/1 108/3/1
f 109/4/1 110/3/1 111/8/1 112/9/1
f 113/4/1 114/3/1 115/8/1 116/9/1
f 117/2/1 118/5/1 119/6/1 120/3/1
f 121/4/1 122/3/1 123/8/1 124/9/1
f 125/3/1 126/6/1 127/7/1 128/8/1
f 129/3/1 130/6/1 131/7/1 132/8/1
f 133/1/1 134/2/1 135/3/1 136/4/1
f 137/3/1 138/6/1 139/7/1 140/8/1
f 141/4/1 142/3/1 143/8/1 144/9/1
f 145/1/1 146/2/1 147/3/1 148/4/1
f 149/3/1 150/6/1 151/7/1 152/8/1
f 153/2/1 154/5/1 155/6/1 156/3/1
f 157/1/1 158/2/1 159/3/1 160/4/1
f 161/2/1 162/5/1 163/6/1 164/3/1
f 165/1/1 166/2/1 167/3/1 168/4/1
f 169/3/1 170/6/1 171/7/1 172/8/1
f 173/1/1 174/2/1 175/3/1 176/4/1
f 177/1/1 178/2/1 179/3/1 180/4/1
f 181/3/1 182/6/1 183/7/1 184/8/1
f 185/1/1 186/2/1 187/3/1 188/4/1
f 189/4/1 190/3/1 191/8/1 192/9/1
f 193/4/1 194/3/1 195/8/1 196/9/1
f 197/1/1 198/2/1 199/3/1 200/4/1
f 201/1/1 202/2/1 203/3/1 204/4/1
f 205/2/1 206/5/1 207/6/1 208/3/1
f 209/1/1 210/2/1 211/3/1 212/4/1
f 213/1/1 214/2/1 215/3/1 216/4/1
f 217/4/1 218/3/1 219/8/1 220/9/1
f 221/1/1 222/2/1 223/3/1 224/4/1
f 225/4/1 226/3/1 227/8/1 228/9/1
f 229/3/1 230/6/1 231/7/1 232/8/1
f 233/2/1 234/5/1 235/6/1 236/3/1
f 237/2/1 238/5/1 239/6/1 240/3/1
f 241/3/1 242/6/1 243/7/1 244/8/1
f 245/2/1 246/5/1 247/6/1 248/3/1
f 249/1/1 250/2/1 251/3/1 252/4/1
f 253/3/1 254/6/1 255/7/1 256/8/1
f 257/4/1 258/3/1 259/8/1 260/9/1
f 261/3/1 262/6/1 263/7/1 264/8/1
f 265/3/1 266/6/1 267/7/1 268/8/1
f 269/4/1 270/3/1 271/8/1 272/9/1
f 273/4/1 274/3/1 275/8/1 276/9/1
f 277/2/1 278/5/1 279/6/1 280/3/1
f 281/3/1 282/6/1 283/7/1 284/8/1
f 285/1/1 286/2/1 287/3/1 288/4/1
f 289/2/1 290/5/1 291/6/1 292/3/1
f 293/3/1 294/6/1 295/7/1 296/8/1
f 297/4/1 298/3/1 299/8/1 300/9/1
f 301/1/1 302/2/1 303/3/1 304/4/1
f 305/4/1 306/3/1 307/8/1 308/9/1
f 309/2/1 310/5/1 311/6/1 312/3/1
f 313/1/1 314/2/1 315/3/1 316/4/1
f 317/4/1 318/3/1 319/8/1 320/9/1
f 321/2/1 322/5/1 323/6/1 324/3/1
f 325/1/1 326/2/1 327/3/1 328/4/1
f 329/3/1 330/6/1 331/7/1 332/8/1
f 333/3/1 334/6/1 335/7/1 336/8/1
f 337/1/1 338/2/1 339/3/1 340/4/1
f 341/2/1 342/5/1 343/6/1 344/3/1
f 345/2/1 346/5/1 347/6/1 348/3/1
f 349/2/1 350/5/1 351/6/1 352/3/1
f 353/4/1 354/3/1 355/8/1 356/9/1
f 357/1/1 358/2/1 359/3/1 360/4/1
f 361/1/1 362/2/1 363/3/1 364/4/1
f 365/1/1 366/2/1 367/3/1 368/4/1
f 369/4/1 370/3/1 371/8/1 372/9/1
f 373/2/1 374/5/1 375/6/1 376/3/1
f 377/3/1 378/6/1 379/7/1 380/8/1
f 381/2/1 382/5/1 383/6/1 384/3/1
f 385/4/1 386/3/1 387/8/1 388/9/1
f 389/3/1 390/6/1 391/7/1 392/8/1
f 393/3/1 394/6/1 395/7/1 396/8/1
f 397/1/1 398/2/1 399/3/1 400/4/1
f 401/3/1 402/6/1 403/7/1 404/8/1
f 405/4/1 406/3/1 407/8/1 408/9/1
f 409/4/1 410/3/1 411/8/1 412/9/1
f 413/4/1 414/3/1 415/8/1 416/9/1
f 417/1/1 418/2/1 419/3/1 420/4/1
f 421/2/1 422/5/1 423/6/1 424/3/1
f 425/4/1 426/3/1 427/8/1 428/9/1
f 429/3/1 430/6/1 431/7/1 432/8/1
f 433/4/1 434/3/1 435/8/1 436/9/1
f 437/4/1 438/3/1 439/8/1 440/9/1
f 441/1/1 442/2/1 443/3/1 444/4/1
f 445/3/1 446/6/1 447/7/1 448/8/1
f 449/4/1 450/3/1 451/8/1 452/9/1
f 453/4/1 454/3/1 455/8/1 456/9/1
f 457/2/1 458/5/1 459/6/1 460/3/1
f 461/10/1 462/11/1 463/12/1 464/13/1
f 465/10/1 466/11/1 467/12/1 468/13/1
f 469/10/1 470/11/1 471/12/1 472/13/1
f 473/3/1 474/6/1 475/7/1 476/8/1
f 477/2/1 478/5/1 479/6/1 480/3/1
f 481/1/1 482/2/1 483/3/1 484/4/1
f 485/10/1 486/11/1 487/12/1 488/13/1
f 489/10/1 490/11/1 491/12/1 492/13/1
f 493/10/1 494/11/1 495/12/1 496/13/1
f 497/1/1 498/2/1 499/3/1 500/4/1
f 501/3/1 502/6/1 503/7/1 504/8/1
f 505/2/1 506/5/1 507/6/1 508/3/1
f 509/1/1 510/2/1 511/3/1 512/4/1
f 513/4/1 514/3/1 515/8/1 516/9/1
f 517/1/1 518/2/1 519/3/1 520/4/1
f 521/10/1 522/11/1 523/12/1 524/13/1
f 525/10/1 526/11/1 527/12/1 528/13/1
f 529/10/1 530/11/1 531/12/1 532/13/1
f 533/10/1 534/11/1 535/12/1 536/13/1
f 537/10/1 538/11/1 539/12/1 540/13/1
f 541/10/1 542/11/1 543/12/1 544/13/1
f 545/10/1 546/11/1 547/12/1 548/13/1
f 549/10/1 550/11/1 551/12/1 552/13/1
f 553/10/1 554/11/1 555/12/1 556/13/1
f 557/10/1 558/11/1 559/12/1 560/13/1
f 561/10/1 562/11/1 563/12/1 564/13/1
f 565/4/1 566/3/1 567/8/1 568/9/1
f 569/3/1 570/6/1 571/7/1 572/8/1
f 573/4/1 574/3/1 575/8/1 576/9/1
f 577/10/1 578/11/1 579/12/1 580/13/1
f 581/10/1 582/11/1 583/12/1 584/13/1
f 585/10/1 586/11/1 587/12/1 588/13/1
f 589/10/1 590/11/1 591/12/1 592/13/1
f 593/10/1 594/11/1 595/12/1 596/13/1
f 597/10/1 598/11/1 599/12/1 600/13/1
f 601/10/1 602/11/1 603/12/1 604/13/1
f 605/10/1 606/11/1 607/12/1 608/13/1
f 609/10/1 610/11/1 611/12/1 612/13/1
f 613/10/1 614/11/1 615/12/1 616/13/1
f 617/10/1 618/11/1 619/12/1 620/13/1
f 621/10/1 622/11/1 623/12/1 624/13/1
f 625/10/1 626/11/1 627/12/1 628/13/1
f 629/10/1 630/11/1 631/12/1 632/13/1
f 633/10/1 634/11/1 635/12/1 636/13/1
f 637/1/1 638/2/1 639/3/1 640/4/1
f 641/10/1 642/11/1 643/12/1 644/13/1
f 645/10/1 646/11/1 647/12/1 648/13/1
f 649/10/1 650/11/1 651/12/1 652/13/1
f 653/10/1 654/11/1 655/12/1 656/13/1
f 657/10/1 658/11/1 659/12/1 660/13/1
f 661/10/1 662/11/1 663/12/1 664/13/1
f 665/10/1 666/11/1 667/12/1 668/13/1
f 669/10/1 670/11/1 671/12/1 672/13/1
f 673/10/1 674/11/1 675/12/1 676/13/1
f 677/10/1 678/11/1 679/12/1 680/13/1
f 681/10/1 682/11/1 683/12/1 684/13/1
f 685/10/1 686/11/1 687/12/1 688/13/1
f 689/10/1 690/11/1 691/12/1 692/13/1
f 693/10/1 694/11/1 695/12/1 696/13/1
f 697/10/1 698/11/1 699/12/1 700/13/1
f 701/10/1 702/11/1 703/12/1 704/13/1
f 705/10/1 706/11/1 707/12/1 708/13/1
f 709/10/1 710/11/1 711/12/1 712/13/1
f 713/10/1 714/11/1 715/12/1 716/13/1
f 717/10/1 718/11/1 719/12/1 720/13/1
f 721/10/1 722/11/1 723/12/1 724/13/1
f 725/10/1 726/11/1 727/12/1 728/13/1
f 729/10/1 730/11/1 731/12/1 732/13/1
f 733/10/1 734/11/1 735/12/1 736/13/1
f 737/10/1 738/11/1 739/12/1 740/13/1
f 741/10/1 742/11/1 743/12/1 744/13/1
f 745/10/1 746/11/1 747/12/1 748/13/1
f 749/10/1 750/11/1 751/12/1 752/13/1
f 753/10/1 754/11/1 755/12/1 756/13/1
f 757/10/1 758/11/1 759/12/1 760/13/1
f 761/10/1 762/11/1 763/12/1 764/13/1
f 765/10/1 766/11/1 767/12/1 768/13/1
f 769/10/1 770/11/1 771/12/1 772/13/1
f 773/10/1 774/11/1 775/12/1 776/13/1
f 777/10/1 778/11/1 779/12/1 780/13/1
f 781/10/1 782/11/1 783/12/1 784/13/1
f 785/10/1 786/11/1 787/12/1 788/13/1
f 789/10/1 790/11/1 791/12/1 792/13/1
f 793/10/1 794/11/1 795/12/1 796/13/1
f 797/10/1 798/11/1 799/12/1 800/13/1
f 801/10/1 802/11/1 803/12/1 804/13/1
f 805/10/1 806/11/1 807/12/1 808/13/1
f 809/10/1 810/11/1 811/12/1 812/13/1
f 813/10/1 814/11/1 815/12/1 816/13/1
f 817/10/1 818/11/1 819/12/1 820/13/1
f 821/10/1 822/11/1 823/12/1 824/13/1
f 825/10/1 826/11/1 827/12/1 828/13/1
f 829/10/1 830/11/1 831/12/1 832/13/1
f 833/10/1 834/11/1 835/12/1 836/13/1
f 837/10/1 838/11/1 839/12/1 840/13/1
f 841/10/1 842/11/1 843/12/1 844/13/1
f 845/10/1 846/11/1 847/12/1 848/13/1
f 849/10/1 850/11/1 851/12/1 852/13/1
f 853/10/1 854/11/1 855/12/1 856/13/1
f 857/10/1 858/11/1 859/12/1 860/13/1
f 861/10/1 862/11/1 863/12/1 864/13/1
f 865/10/1 866/11/1 867/12/1 868/13/1
f 869/10/1 870/11/1 871/12/1 872/13/1
f 873/10/1 874/11/1 875/12/1 876/13/1
f 877/10/1 878/11/1 879/12/1 880/13/1
f 881/10/1 882/11/1 883/12/1 884/13/1
f 885/10/1 886/11/1 887/12/1 888/13/1
f 889/10/1 890/11/1 891/12/1 892/13/1
f 893/10/1 894/11/1 895/12/1 896/13/1
f 897/10/1 898/11/1 899/12/1 900/13/1
f 901/10/1 902/11/1 903/12/1 904/13/1
f 905/10/1 906/11/1 907/12/1 908/13/1
f 909/10/1 910/11/1 911/12/1 912/13/1
f 913/10/1 914/11/1 915/12/1 916/13/1
f 917/10/1 918/11/1 919/12/1 920/13/1
f 921/10/1 922/11/1 923/12/1 924/13/1
f 925/10/1 926/11/1 927/12/1 928/13/1
f 929/10/1 930/11/1 931/12/1 932/13/1
f 933/10/1 934/11/1 935/12/1 936/13/1
f 937/10/1 938/11/1 939/12/1 940/13/1
f 941/10/1 942/11/1 943/12/1 944/13/1
f 945/10/1 946/11/1 947/12/1 948/13/1
f 949/10/1 950/11/1 951/12/1 952/13/1
f 953/10/1 954/11/1 955/12/1 956/13/1
f 957/10/1 958/11/1 959/12/1 960/13/1
f 961/10/1 962/11/1 963/12/1 964/13/1
f 965/10/1 966/11/1 967/12/1 968/13/1
f 969/10/1 970/11/1 971/12/1 972/13/1
f 973/10/1 974/11/1 975/12/1 976/13/1
f 977/10/1 978/11/1 979/12/1 980/13/1
f 981/10/1 982/11/1 983/12/1 984/13/1
f 985/10/1 986/11/1 987/12/1 988/13/1
f 989/10/1 990/11/1 991/12/1 992/13/1
f 993/10/1 994/11/1 995/12/1 996/13/1
f 997/10/1 998/11/1 999/12/1 1000/13/1
f 1001/10/1 1002/11/1 1003/12/1 1004/13/1
f 1005/10/1 1006/11/1 1007/12/1 1008/13/1
f 1009/10/1 1010/11/1 1011/12/1 1012/13/1
f 1013/10/1 1014/11/1 1015/12/1 1016/13/1
f 1017/10/1 1018/11/1 1019/12/1 1020/13/1
f 1021/10/1 1022/11/1 1023/12/1 1024/13/1

