# Tiled2Unity generated file. Do not modify by hand.
# Wavefront file for 'Village_mesh_0098.obj'

# Vertices (Count = 64)
v -112 -144 0
v -128 -144 0
v -128 -128 0
v -112 -128 0
v -96 -144 0
v -112 -144 0
v -112 -128 0
v -96 -128 0
v -80 -144 0
v -96 -144 0
v -96 -128 0
v -80 -128 0
v -64 -144 0
v -80 -144 0
v -80 -128 0
v -64 -128 0
v -112 -160 0
v -128 -160 0
v -128 -144 0
v -112 -144 0
v -96 -160 0
v -112 -160 0
v -112 -144 0
v -96 -144 0
v -80 -160 0
v -96 -160 0
v -96 -144 0
v -80 -144 0
v -64 -160 0
v -80 -160 0
v -80 -144 0
v -64 -144 0
v -112 -176 0
v -128 -176 0
v -128 -160 0
v -112 -160 0
v -96 -176 0
v -112 -176 0
v -112 -160 0
v -96 -160 0
v -80 -176 0
v -96 -176 0
v -96 -160 0
v -80 -160 0
v -64 -176 0
v -80 -176 0
v -80 -160 0
v -64 -160 0
v -112 -192 0
v -128 -192 0
v -128 -176 0
v -112 -176 0
v -96 -192 0
v -112 -192 0
v -112 -176 0
v -96 -176 0
v -80 -192 0
v -96 -192 0
v -96 -176 0
v -80 -176 0
v -64 -192 0
v -80 -192 0
v -80 -176 0
v -64 -176 0

# Texture cooridinates (Count = 25)
vt 0.109375 0.2301587
vt 0.125 0.2301587
vt 0.125 0.2380952
vt 0.109375 0.2380952
vt 0.09375 0.2301587
vt 0.09375 0.2380952
vt 0.078125 0.2301587
vt 0.078125 0.2380952
vt 0.0625 0.2301587
vt 0.0625 0.2380952
vt 0.109375 0.2222222
vt 0.125 0.2222222
vt 0.09375 0.2222222
vt 0.078125 0.2222222
vt 0.0625 0.2222222
vt 0.109375 0.2142857
vt 0.125 0.2142857
vt 0.09375 0.2142857
vt 0.078125 0.2142857
vt 0.0625 0.2142857
vt 0.109375 0.2063492
vt 0.125 0.2063492
vt 0.09375 0.2063492
vt 0.078125 0.2063492
vt 0.0625 0.2063492

# Normal
vn 0 0 -1

# Mesh description
g Village_mesh_0098

# Faces
f 1/1/1 2/2/1 3/3/1 4/4/1
f 5/5/1 6/1/1 7/4/1 8/6/1
f 9/7/1 10/5/1 11/6/1 12/8/1
f 13/9/1 14/7/1 15/8/1 16/10/1
f 17/11/1 18/12/1 19/2/1 20/1/1
f 21/13/1 22/11/1 23/1/1 24/5/1
f 25/14/1 26/13/1 27/5/1 28/7/1
f 29/15/1 30/14/1 31/7/1 32/9/1
f 33/16/1 34/17/1 35/12/1 36/11/1
f 37/18/1 38/16/1 39/11/1 40/13/1
f 41/19/1 42/18/1 43/13/1 44/14/1
f 45/20/1 46/19/1 47/14/1 48/15/1
f 49/21/1 50/22/1 51/17/1 52/16/1
f 53/23/1 54/21/1 55/16/1 56/18/1
f 57/24/1 58/23/1 59/18/1 60/19/1
f 61/25/1 62/24/1 63/19/1 64/20/1

