# Tiled2Unity generated file. Do not modify by hand.
# Wavefront file for 'int?rieur_maison1_mesh_0004.obj'

# Vertices (Count = 208)
v -96 -32 0
v -112 -32 0
v -112 -16 0
v -96 -16 0
v -80 -32 0
v -96 -32 0
v -96 -16 0
v -80 -16 0
v -224 -48 0
v -240 -48 0
v -240 -32 0
v -224 -32 0
v -208 -48 0
v -224 -48 0
v -224 -32 0
v -208 -32 0
v -192 -48 0
v -208 -48 0
v -208 -32 0
v -192 -32 0
v -176 -48 0
v -192 -48 0
v -192 -32 0
v -176 -32 0
v -160 -48 0
v -176 -48 0
v -176 -32 0
v -160 -32 0
v -144 -48 0
v -160 -48 0
v -160 -32 0
v -144 -32 0
v -96 -48 0
v -112 -48 0
v -112 -32 0
v -96 -32 0
v -80 -48 0
v -96 -48 0
v -96 -32 0
v -80 -32 0
v -224 -64 0
v -240 -64 0
v -240 -48 0
v -224 -48 0
v -208 -64 0
v -224 -64 0
v -224 -48 0
v -208 -48 0
v -192 -64 0
v -208 -64 0
v -208 -48 0
v -192 -48 0
v -176 -64 0
v -192 -64 0
v -192 -48 0
v -176 -48 0
v -160 -64 0
v -176 -64 0
v -176 -48 0
v -160 -48 0
v -144 -64 0
v -160 -64 0
v -160 -48 0
v -144 -48 0
v -224 -80 0
v -240 -80 0
v -240 -64 0
v -224 -64 0
v -208 -80 0
v -224 -80 0
v -224 -64 0
v -208 -64 0
v -192 -80 0
v -208 -80 0
v -208 -64 0
v -192 -64 0
v -176 -80 0
v -192 -80 0
v -192 -64 0
v -176 -64 0
v -160 -80 0
v -176 -80 0
v -176 -64 0
v -160 -64 0
v -144 -80 0
v -160 -80 0
v -160 -64 0
v -144 -64 0
v -224 -96 0
v -240 -96 0
v -240 -80 0
v -224 -80 0
v -208 -96 0
v -224 -96 0
v -224 -80 0
v -208 -80 0
v -192 -96 0
v -208 -96 0
v -208 -80 0
v -192 -80 0
v -176 -96 0
v -192 -96 0
v -192 -80 0
v -176 -80 0
v -160 -96 0
v -176 -96 0
v -176 -80 0
v -160 -80 0
v -144 -96 0
v -160 -96 0
v -160 -80 0
v -144 -80 0
v -208 -144 0
v -224 -144 0
v -224 -128 0
v -208 -128 0
v -192 -144 0
v -208 -144 0
v -208 -128 0
v -192 -128 0
v -176 -144 0
v -192 -144 0
v -192 -128 0
v -176 -128 0
v -160 -144 0
v -176 -144 0
v -176 -128 0
v -160 -128 0
v -208 -160 0
v -224 -160 0
v -224 -144 0
v -208 -144 0
v -192 -160 0
v -208 -160 0
v -208 -144 0
v -192 -144 0
v -176 -160 0
v -192 -160 0
v -192 -144 0
v -176 -144 0
v -160 -160 0
v -176 -160 0
v -176 -144 0
v -160 -144 0
v -32 -160 0
v -48 -160 0
v -48 -144 0
v -32 -144 0
v -16 -160 0
v -32 -160 0
v -32 -144 0
v -16 -144 0
v -208 -176 0
v -224 -176 0
v -224 -160 0
v -208 -160 0
v -192 -176 0
v -208 -176 0
v -208 -160 0
v -192 -160 0
v -176 -176 0
v -192 -176 0
v -192 -160 0
v -176 -160 0
v -160 -176 0
v -176 -176 0
v -176 -160 0
v -160 -160 0
v -32 -176 0
v -48 -176 0
v -48 -160 0
v -32 -160 0
v -16 -176 0
v -32 -176 0
v -32 -160 0
v -16 -160 0
v -208 -192 0
v -224 -192 0
v -224 -176 0
v -208 -176 0
v -192 -192 0
v -208 -192 0
v -208 -176 0
v -192 -176 0
v -176 -192 0
v -192 -192 0
v -192 -176 0
v -176 -176 0
v -160 -192 0
v -176 -192 0
v -176 -176 0
v -160 -176 0
v -32 -192 0
v -48 -192 0
v -48 -176 0
v -32 -176 0
v -16 -192 0
v -32 -192 0
v -32 -176 0
v -16 -176 0
v -32 -208 0
v -48 -208 0
v -48 -192 0
v -32 -192 0
v -16 -208 0
v -32 -208 0
v -32 -192 0
v -16 -192 0

# Texture cooridinates (Count = 80)
vt 0.140625 0.5714285
vt 0.15625 0.5714285
vt 0.15625 0.5793651
vt 0.140625 0.5793651
vt 0.125 0.5714285
vt 0.125 0.5793651
vt 0.609375 0.4206349
vt 0.625 0.4206349
vt 0.625 0.4285714
vt 0.609375 0.4285714
vt 0.59375 0.4206349
vt 0.59375 0.4285714
vt 0.578125 0.4206349
vt 0.578125 0.4285714
vt 0.5625 0.4206349
vt 0.5625 0.4285714
vt 0.546875 0.4206349
vt 0.546875 0.4285714
vt 0.53125 0.4206349
vt 0.53125 0.4285714
vt 0.140625 0.5634921
vt 0.15625 0.5634921
vt 0.125 0.5634921
vt 0.609375 0.4126984
vt 0.625 0.4126984
vt 0.59375 0.4126984
vt 0.578125 0.4126984
vt 0.5625 0.4126984
vt 0.546875 0.4126984
vt 0.53125 0.4126984
vt 0.609375 0.4047619
vt 0.625 0.4047619
vt 0.59375 0.4047619
vt 0.578125 0.4047619
vt 0.5625 0.4047619
vt 0.546875 0.4047619
vt 0.53125 0.4047619
vt 0.609375 0.3968254
vt 0.625 0.3968254
vt 0.59375 0.3968254
vt 0.578125 0.3968254
vt 0.5625 0.3968254
vt 0.546875 0.3968254
vt 0.53125 0.3968254
vt 0.984375 0.3095238
vt 1 0.3095238
vt 1 0.3174603
vt 0.984375 0.3174603
vt 0.96875 0.3095238
vt 0.96875 0.3174603
vt 0.984375 0.3015873
vt 1 0.3015873
vt 0.96875 0.3015873
vt 0.890625 0.2619048
vt 0.90625 0.2619048
vt 0.90625 0.2698413
vt 0.890625 0.2698413
vt 0.875 0.2619048
vt 0.875 0.2698413
vt 0.890625 0.2777778
vt 0.90625 0.2777778
vt 0.90625 0.2857143
vt 0.890625 0.2857143
vt 0.875 0.2777778
vt 0.875 0.2857143
vt 0.890625 0.2936508
vt 0.90625 0.2936508
vt 0.90625 0.3015873
vt 0.890625 0.3015873
vt 0.875 0.2936508
vt 0.875 0.3015873
vt 0.890625 0.2539682
vt 0.90625 0.2539682
vt 0.875 0.2539682
vt 0.890625 0.2460318
vt 0.90625 0.2460318
vt 0.875 0.2460318
vt 0.890625 0.2380952
vt 0.90625 0.2380952
vt 0.875 0.2380952

# Normal
vn 0 0 -1

# Mesh description
g int?rieur_maison1_mesh_0004

# Faces
f 1/1/1 2/2/1 3/3/1 4/4/1
f 5/5/1 6/1/1 7/4/1 8/6/1
f 9/7/1 10/8/1 11/9/1 12/10/1
f 13/11/1 14/7/1 15/10/1 16/12/1
f 17/13/1 18/11/1 19/12/1 20/14/1
f 21/15/1 22/13/1 23/14/1 24/16/1
f 25/17/1 26/15/1 27/16/1 28/18/1
f 29/19/1 30/17/1 31/18/1 32/20/1
f 33/21/1 34/22/1 35/2/1 36/1/1
f 37/23/1 38/21/1 39/1/1 40/5/1
f 41/24/1 42/25/1 43/8/1 44/7/1
f 45/26/1 46/24/1 47/7/1 48/11/1
f 49/27/1 50/26/1 51/11/1 52/13/1
f 53/28/1 54/27/1 55/13/1 56/15/1
f 57/29/1 58/28/1 59/15/1 60/17/1
f 61/30/1 62/29/1 63/17/1 64/19/1
f 65/31/1 66/32/1 67/25/1 68/24/1
f 69/33/1 70/31/1 71/24/1 72/26/1
f 73/34/1 74/33/1 75/26/1 76/27/1
f 77/35/1 78/34/1 79/27/1 80/28/1
f 81/36/1 82/35/1 83/28/1 84/29/1
f 85/37/1 86/36/1 87/29/1 88/30/1
f 89/38/1 90/39/1 91/32/1 92/31/1
f 93/40/1 94/38/1 95/31/1 96/33/1
f 97/41/1 98/40/1 99/33/1 100/34/1
f 101/42/1 102/41/1 103/34/1 104/35/1
f 105/43/1 106/42/1 107/35/1 108/36/1
f 109/44/1 110/43/1 111/36/1 112/37/1
f 113/45/1 114/46/1 115/47/1 116/48/1
f 117/49/1 118/45/1 119/48/1 120/50/1
f 121/45/1 122/46/1 123/47/1 124/48/1
f 125/49/1 126/45/1 127/48/1 128/50/1
f 129/51/1 130/52/1 131/46/1 132/45/1
f 133/53/1 134/51/1 135/45/1 136/49/1
f 137/51/1 138/52/1 139/46/1 140/45/1
f 141/53/1 142/51/1 143/45/1 144/49/1
f 145/54/1 146/55/1 147/56/1 148/57/1
f 149/58/1 150/54/1 151/57/1 152/59/1
f 153/60/1 154/61/1 155/62/1 156/63/1
f 157/64/1 158/60/1 159/63/1 160/65/1
f 161/66/1 162/67/1 163/68/1 164/69/1
f 165/70/1 166/66/1 167/69/1 168/71/1
f 169/72/1 170/73/1 171/55/1 172/54/1
f 173/74/1 174/72/1 175/54/1 176/58/1
f 177/57/1 178/56/1 179/61/1 180/60/1
f 181/59/1 182/57/1 183/60/1 184/64/1
f 185/63/1 186/62/1 187/67/1 188/66/1
f 189/65/1 190/63/1 191/66/1 192/70/1
f 193/75/1 194/76/1 195/73/1 196/72/1
f 197/77/1 198/75/1 199/72/1 200/74/1
f 201/78/1 202/79/1 203/76/1 204/75/1
f 205/80/1 206/78/1 207/75/1 208/77/1

