# Tiled2Unity generated file. Do not modify by hand.
# Wavefront file for 'int?rieur_maison1_mesh_0006.obj'

# Vertices (Count = 16)
v -96 -96 0
v -112 -96 0
v -112 -80 0
v -96 -80 0
v -80 -96 0
v -96 -96 0
v -96 -80 0
v -80 -80 0
v -96 -112 0
v -112 -112 0
v -112 -96 0
v -96 -96 0
v -80 -112 0
v -96 -112 0
v -96 -96 0
v -80 -96 0

# Texture cooridinates (Count = 9)
vt 0.640625 0.1984127
vt 0.65625 0.1984127
vt 0.65625 0.2063492
vt 0.640625 0.2063492
vt 0.625 0.1984127
vt 0.625 0.2063492
vt 0.640625 0.1904762
vt 0.65625 0.1904762
vt 0.625 0.1904762

# Normal
vn 0 0 -1

# Mesh description
g int?rieur_maison1_mesh_0006

# Faces
f 1/1/1 2/2/1 3/3/1 4/4/1
f 5/5/1 6/1/1 7/4/1 8/6/1
f 9/7/1 10/8/1 11/2/1 12/1/1
f 13/9/1 14/7/1 15/1/1 16/5/1

