# Tiled2Unity generated file. Do not modify by hand.
# Wavefront file for 'int?rieur_maison1_mesh_0003.obj'

# Vertices (Count = 224)
v -240 -16 0
v -256 -16 0
v -256 0 0
v -240 0 0
v -224 -16 0
v -240 -16 0
v -240 0 0
v -224 0 0
v -208 -16 0
v -224 -16 0
v -224 0 0
v -208 0 0
v -192 -16 0
v -208 -16 0
v -208 0 0
v -192 0 0
v -176 -16 0
v -192 -16 0
v -192 0 0
v -176 0 0
v -160 -16 0
v -176 -16 0
v -176 0 0
v -160 0 0
v -144 -16 0
v -160 -16 0
v -160 0 0
v -144 0 0
v -128 -16 0
v -144 -16 0
v -144 0 0
v -128 0 0
v -112 -16 0
v -128 -16 0
v -128 0 0
v -112 0 0
v -96 -16 0
v -112 -16 0
v -112 0 0
v -96 0 0
v -80 -16 0
v -96 -16 0
v -96 0 0
v -80 0 0
v -64 -16 0
v -80 -16 0
v -80 0 0
v -64 0 0
v -48 -16 0
v -64 -16 0
v -64 0 0
v -48 0 0
v -32 -16 0
v -48 -16 0
v -48 0 0
v -32 0 0
v -16 -16 0
v -32 -16 0
v -32 0 0
v -16 0 0
v 0 -16 0
v -16 -16 0
v -16 0 0
v 0 0 0
v -240 -32 0
v -256 -32 0
v -256 -16 0
v -240 -16 0
v 0 -32 0
v -16 -32 0
v -16 -16 0
v 0 -16 0
v -240 -48 0
v -256 -48 0
v -256 -32 0
v -240 -32 0
v 0 -48 0
v -16 -48 0
v -16 -32 0
v 0 -32 0
v -240 -64 0
v -256 -64 0
v -256 -48 0
v -240 -48 0
v 0 -64 0
v -16 -64 0
v -16 -48 0
v 0 -48 0
v -240 -80 0
v -256 -80 0
v -256 -64 0
v -240 -64 0
v 0 -80 0
v -16 -80 0
v -16 -64 0
v 0 -64 0
v -240 -96 0
v -256 -96 0
v -256 -80 0
v -240 -80 0
v 0 -96 0
v -16 -96 0
v -16 -80 0
v 0 -80 0
v -240 -112 0
v -256 -112 0
v -256 -96 0
v -240 -96 0
v 0 -112 0
v -16 -112 0
v -16 -96 0
v 0 -96 0
v -240 -128 0
v -256 -128 0
v -256 -112 0
v -240 -112 0
v 0 -128 0
v -16 -128 0
v -16 -112 0
v 0 -112 0
v -240 -144 0
v -256 -144 0
v -256 -128 0
v -240 -128 0
v 0 -144 0
v -16 -144 0
v -16 -128 0
v 0 -128 0
v -240 -160 0
v -256 -160 0
v -256 -144 0
v -240 -144 0
v 0 -160 0
v -16 -160 0
v -16 -144 0
v 0 -144 0
v -240 -176 0
v -256 -176 0
v -256 -160 0
v -240 -160 0
v 0 -176 0
v -16 -176 0
v -16 -160 0
v 0 -160 0
v -240 -192 0
v -256 -192 0
v -256 -176 0
v -240 -176 0
v 0 -192 0
v -16 -192 0
v -16 -176 0
v 0 -176 0
v -240 -208 0
v -256 -208 0
v -256 -192 0
v -240 -192 0
v 0 -208 0
v -16 -208 0
v -16 -192 0
v 0 -192 0
v -240 -224 0
v -256 -224 0
v -256 -208 0
v -240 -208 0
v 0 -224 0
v -16 -224 0
v -16 -208 0
v 0 -208 0
v -240 -240 0
v -256 -240 0
v -256 -224 0
v -240 -224 0
v 0 -240 0
v -16 -240 0
v -16 -224 0
v 0 -224 0
v -240 -256 0
v -256 -256 0
v -256 -240 0
v -240 -240 0
v -224 -256 0
v -240 -256 0
v -240 -240 0
v -224 -240 0
v -208 -256 0
v -224 -256 0
v -224 -240 0
v -208 -240 0
v -192 -256 0
v -208 -256 0
v -208 -240 0
v -192 -240 0
v -176 -256 0
v -192 -256 0
v -192 -240 0
v -176 -240 0
v -160 -256 0
v -176 -256 0
v -176 -240 0
v -160 -240 0
v -80 -256 0
v -96 -256 0
v -96 -240 0
v -80 -240 0
v -64 -256 0
v -80 -256 0
v -80 -240 0
v -64 -240 0
v -48 -256 0
v -64 -256 0
v -64 -240 0
v -48 -240 0
v -32 -256 0
v -48 -256 0
v -48 -240 0
v -32 -240 0
v -16 -256 0
v -32 -256 0
v -32 -240 0
v -16 -240 0
v 0 -256 0
v -16 -256 0
v -16 -240 0
v 0 -240 0

# Texture cooridinates (Count = 24)
vt 0.34375 0.5666667
vt 0.375 0.5666667
vt 0.375 0.6
vt 0.34375 0.6
vt 0.3125 0.5666667
vt 0.3125 0.6
vt 0.25 0.5666667
vt 0.28125 0.5666667
vt 0.28125 0.6
vt 0.25 0.6
vt 0.34375 0.5
vt 0.375 0.5
vt 0.375 0.5333333
vt 0.34375 0.5333333
vt 0.25 0.5
vt 0.28125 0.5
vt 0.28125 0.5333333
vt 0.25 0.5333333
vt 0.34375 0.4666666
vt 0.375 0.4666666
vt 0.28125 0.4666666
vt 0.3125 0.4666666
vt 0.3125 0.5
vt 0.25 0.4666666

# Normal
vn 0 0 -1

# Mesh description
g int?rieur_maison1_mesh_0003

# Faces
f 1/1/1 2/2/1 3/3/1 4/4/1
f 5/5/1 6/1/1 7/4/1 8/6/1
f 9/5/1 10/1/1 11/4/1 12/6/1
f 13/5/1 14/1/1 15/4/1 16/6/1
f 17/5/1 18/1/1 19/4/1 20/6/1
f 21/5/1 22/1/1 23/4/1 24/6/1
f 25/5/1 26/1/1 27/4/1 28/6/1
f 29/5/1 30/1/1 31/4/1 32/6/1
f 33/5/1 34/1/1 35/4/1 36/6/1
f 37/5/1 38/1/1 39/4/1 40/6/1
f 41/5/1 42/1/1 43/4/1 44/6/1
f 45/5/1 46/1/1 47/4/1 48/6/1
f 49/5/1 50/1/1 51/4/1 52/6/1
f 53/5/1 54/1/1 55/4/1 56/6/1
f 57/5/1 58/1/1 59/4/1 60/6/1
f 61/7/1 62/8/1 63/9/1 64/10/1
f 65/11/1 66/12/1 67/13/1 68/14/1
f 69/15/1 70/16/1 71/17/1 72/18/1
f 73/11/1 74/12/1 75/13/1 76/14/1
f 77/15/1 78/16/1 79/17/1 80/18/1
f 81/11/1 82/12/1 83/13/1 84/14/1
f 85/15/1 86/16/1 87/17/1 88/18/1
f 89/11/1 90/12/1 91/13/1 92/14/1
f 93/15/1 94/16/1 95/17/1 96/18/1
f 97/11/1 98/12/1 99/13/1 100/14/1
f 101/15/1 102/16/1 103/17/1 104/18/1
f 105/11/1 106/12/1 107/13/1 108/14/1
f 109/15/1 110/16/1 111/17/1 112/18/1
f 113/11/1 114/12/1 115/13/1 116/14/1
f 117/15/1 118/16/1 119/17/1 120/18/1
f 121/11/1 122/12/1 123/13/1 124/14/1
f 125/15/1 126/16/1 127/17/1 128/18/1
f 129/11/1 130/12/1 131/13/1 132/14/1
f 133/15/1 134/16/1 135/17/1 136/18/1
f 137/11/1 138/12/1 139/13/1 140/14/1
f 141/15/1 142/16/1 143/17/1 144/18/1
f 145/11/1 146/12/1 147/13/1 148/14/1
f 149/15/1 150/16/1 151/17/1 152/18/1
f 153/11/1 154/12/1 155/13/1 156/14/1
f 157/15/1 158/16/1 159/17/1 160/18/1
f 161/11/1 162/12/1 163/13/1 164/14/1
f 165/15/1 166/16/1 167/17/1 168/18/1
f 169/11/1 170/12/1 171/13/1 172/14/1
f 173/15/1 174/16/1 175/17/1 176/18/1
f 177/19/1 178/20/1 179/12/1 180/11/1
f 181/21/1 182/22/1 183/23/1 184/16/1
f 185/21/1 186/22/1 187/23/1 188/16/1
f 189/21/1 190/22/1 191/23/1 192/16/1
f 193/21/1 194/22/1 195/23/1 196/16/1
f 197/21/1 198/22/1 199/23/1 200/16/1
f 201/22/1 202/19/1 203/11/1 204/23/1
f 205/21/1 206/22/1 207/23/1 208/16/1
f 209/21/1 210/22/1 211/23/1 212/16/1
f 213/21/1 214/22/1 215/23/1 216/16/1
f 217/21/1 218/22/1 219/23/1 220/16/1
f 221/24/1 222/21/1 223/16/1 224/15/1

