# Tiled2Unity generated file. Do not modify by hand.
# Wavefront file for 'TerrainTest_mesh_0003.obj'

# Vertices (Count = 276)
v -992 -80 0
v -1024 -80 0
v -1024 -48 0
v -992 -48 0
v -928 -80 0
v -960 -80 0
v -960 -48 0
v -928 -48 0
v -816 -96 0
v -848 -96 0
v -848 -64 0
v -816 -64 0
v -656 -96 0
v -688 -96 0
v -688 -64 0
v -656 -64 0
v -992 -112 0
v -1024 -112 0
v -1024 -80 0
v -992 -80 0
v -960 -112 0
v -992 -112 0
v -992 -80 0
v -960 -80 0
v -928 -112 0
v -960 -112 0
v -960 -80 0
v -928 -80 0
v -896 -112 0
v -928 -112 0
v -928 -80 0
v -896 -80 0
v -848 -128 0
v -880 -128 0
v -880 -96 0
v -848 -96 0
v -816 -128 0
v -848 -128 0
v -848 -96 0
v -816 -96 0
v -784 -128 0
v -816 -128 0
v -816 -96 0
v -784 -96 0
v -688 -128 0
v -720 -128 0
v -720 -96 0
v -688 -96 0
v -656 -128 0
v -688 -128 0
v -688 -96 0
v -656 -96 0
v -624 -128 0
v -656 -128 0
v -656 -96 0
v -624 -96 0
v -1024 -144 0
v -1056 -144 0
v -1056 -112 0
v -1024 -112 0
v -992 -144 0
v -1024 -144 0
v -1024 -112 0
v -992 -112 0
v -544 -160 0
v -576 -160 0
v -576 -128 0
v -544 -128 0
v -1056 -176 0
v -1088 -176 0
v -1088 -144 0
v -1056 -144 0
v -1024 -176 0
v -1056 -176 0
v -1056 -144 0
v -1024 -144 0
v -992 -176 0
v -1024 -176 0
v -1024 -144 0
v -992 -144 0
v -960 -176 0
v -992 -176 0
v -992 -144 0
v -960 -144 0
v -688 -192 0
v -720 -192 0
v -720 -160 0
v -688 -160 0
v -576 -192 0
v -608 -192 0
v -608 -160 0
v -576 -160 0
v -544 -192 0
v -576 -192 0
v -576 -160 0
v -544 -160 0
v -512 -192 0
v -544 -192 0
v -544 -160 0
v -512 -160 0
v -992 -208 0
v -1024 -208 0
v -1024 -176 0
v -992 -176 0
v -960 -208 0
v -992 -208 0
v -992 -176 0
v -960 -176 0
v -928 -208 0
v -960 -208 0
v -960 -176 0
v -928 -176 0
v -896 -224 0
v -928 -224 0
v -928 -192 0
v -896 -192 0
v -864 -224 0
v -896 -224 0
v -896 -192 0
v -864 -192 0
v -720 -224 0
v -752 -224 0
v -752 -192 0
v -720 -192 0
v -688 -224 0
v -720 -224 0
v -720 -192 0
v -688 -192 0
v -656 -224 0
v -688 -224 0
v -688 -192 0
v -656 -192 0
v -1024 -240 0
v -1056 -240 0
v -1056 -208 0
v -1024 -208 0
v -896 -256 0
v -928 -256 0
v -928 -224 0
v -896 -224 0
v -864 -256 0
v -896 -256 0
v -896 -224 0
v -864 -224 0
v -832 -256 0
v -864 -256 0
v -864 -224 0
v -832 -224 0
v -480 -256 0
v -512 -256 0
v -512 -224 0
v -480 -224 0
v -1056 -272 0
v -1088 -272 0
v -1088 -240 0
v -1056 -240 0
v -1024 -272 0
v -1056 -272 0
v -1056 -240 0
v -1024 -240 0
v -992 -272 0
v -1024 -272 0
v -1024 -240 0
v -992 -240 0
v -928 -272 0
v -960 -272 0
v -960 -240 0
v -928 -240 0
v -784 -288 0
v -816 -288 0
v -816 -256 0
v -784 -256 0
v -512 -288 0
v -544 -288 0
v -544 -256 0
v -512 -256 0
v -480 -288 0
v -512 -288 0
v -512 -256 0
v -480 -256 0
v -448 -288 0
v -480 -288 0
v -480 -256 0
v -448 -256 0
v -960 -304 0
v -992 -304 0
v -992 -272 0
v -960 -272 0
v -928 -304 0
v -960 -304 0
v -960 -272 0
v -928 -272 0
v -896 -304 0
v -928 -304 0
v -928 -272 0
v -896 -272 0
v -816 -320 0
v -848 -320 0
v -848 -288 0
v -816 -288 0
v -784 -320 0
v -816 -320 0
v -816 -288 0
v -784 -288 0
v -752 -320 0
v -784 -320 0
v -784 -288 0
v -752 -288 0
v -592 -320 0
v -624 -320 0
v -624 -288 0
v -592 -288 0
v -976 -352 0
v -1008 -352 0
v -1008 -320 0
v -976 -320 0
v -624 -352 0
v -656 -352 0
v -656 -320 0
v -624 -320 0
v -592 -352 0
v -624 -352 0
v -624 -320 0
v -592 -320 0
v -560 -352 0
v -592 -352 0
v -592 -320 0
v -560 -320 0
v -720 -368 0
v -752 -368 0
v -752 -336 0
v -720 -336 0
v -1008 -384 0
v -1040 -384 0
v -1040 -352 0
v -1008 -352 0
v -976 -384 0
v -1008 -384 0
v -1008 -352 0
v -976 -352 0
v -944 -384 0
v -976 -384 0
v -976 -352 0
v -944 -352 0
v -864 -384 0
v -896 -384 0
v -896 -352 0
v -864 -352 0
v -752 -400 0
v -784 -400 0
v -784 -368 0
v -752 -368 0
v -720 -400 0
v -752 -400 0
v -752 -368 0
v -720 -368 0
v -704 -400 0
v -736 -400 0
v -736 -368 0
v -704 -368 0
v -688 -400 0
v -720 -400 0
v -720 -368 0
v -688 -368 0
v -896 -416 0
v -928 -416 0
v -928 -384 0
v -896 -384 0
v -864 -416 0
v -896 -416 0
v -896 -384 0
v -864 -384 0
v -832 -416 0
v -864 -416 0
v -864 -384 0
v -832 -384 0

# Texture cooridinates (Count = 16)
vt 0.90625 0.09375
vt 0.9375 0.09375
vt 0.9375 0.125
vt 0.90625 0.125
vt 0.9375 0.03125
vt 0.96875 0.03125
vt 0.96875 0.0625
vt 0.9375 0.0625
vt 0.90625 0.0625
vt 0.96875 0
vt 1 0
vt 1 0.03125
vt 0.9375 0
vt 0.90625 0
vt 0.90625 0.03125
vt 1 0.0625

# Normal
vn 0 0 -1

# Mesh description
g TerrainTest_mesh_0003

# Faces
f 1/1/1 2/2/1 3/3/1 4/4/1
f 5/5/1 6/6/1 7/7/1 8/8/1
f 9/5/1 10/6/1 11/7/1 12/8/1
f 13/5/1 14/6/1 15/7/1 16/8/1
f 17/9/1 18/8/1 19/2/1 20/1/1
f 21/10/1 22/11/1 23/12/1 24/6/1
f 25/13/1 26/10/1 27/6/1 28/5/1
f 29/14/1 30/13/1 31/5/1 32/15/1
f 33/10/1 34/11/1 35/12/1 36/6/1
f 37/13/1 38/10/1 39/6/1 40/5/1
f 41/14/1 42/13/1 43/5/1 44/15/1
f 45/10/1 46/11/1 47/12/1 48/6/1
f 49/13/1 50/10/1 51/6/1 52/5/1
f 53/14/1 54/13/1 55/5/1 56/15/1
f 57/5/1 58/6/1 59/7/1 60/8/1
f 61/15/1 62/5/1 63/8/1 64/9/1
f 65/5/1 66/6/1 67/7/1 68/8/1
f 69/10/1 70/11/1 71/12/1 72/6/1
f 73/13/1 74/10/1 75/6/1 76/5/1
f 77/6/1 78/12/1 79/16/1 80/7/1
f 81/5/1 82/6/1 83/7/1 84/8/1
f 85/5/1 86/6/1 87/7/1 88/8/1
f 89/10/1 90/11/1 91/12/1 92/6/1
f 93/13/1 94/10/1 95/6/1 96/5/1
f 97/14/1 98/13/1 99/5/1 100/15/1
f 101/10/1 102/11/1 103/12/1 104/6/1
f 105/13/1 106/10/1 107/6/1 108/5/1
f 109/14/1 110/13/1 111/5/1 112/15/1
f 113/6/1 114/12/1 115/16/1 116/7/1
f 117/5/1 118/6/1 119/7/1 120/8/1
f 121/10/1 122/11/1 123/12/1 124/6/1
f 125/13/1 126/10/1 127/6/1 128/5/1
f 129/14/1 130/13/1 131/5/1 132/15/1
f 133/5/1 134/6/1 135/7/1 136/8/1
f 137/10/1 138/11/1 139/12/1 140/6/1
f 141/13/1 142/10/1 143/6/1 144/5/1
f 145/14/1 146/13/1 147/5/1 148/15/1
f 149/5/1 150/6/1 151/7/1 152/8/1
f 153/10/1 154/11/1 155/12/1 156/6/1
f 157/13/1 158/10/1 159/6/1 160/5/1
f 161/14/1 162/13/1 163/5/1 164/15/1
f 165/5/1 166/6/1 167/7/1 168/8/1
f 169/5/1 170/6/1 171/7/1 172/8/1
f 173/10/1 174/11/1 175/12/1 176/6/1
f 177/13/1 178/10/1 179/6/1 180/5/1
f 181/14/1 182/13/1 183/5/1 184/15/1
f 185/10/1 186/11/1 187/12/1 188/6/1
f 189/13/1 190/10/1 191/6/1 192/5/1
f 193/14/1 194/13/1 195/5/1 196/15/1
f 197/10/1 198/11/1 199/12/1 200/6/1
f 201/13/1 202/10/1 203/6/1 204/5/1
f 205/14/1 206/13/1 207/5/1 208/15/1
f 209/5/1 210/6/1 211/7/1 212/8/1
f 213/5/1 214/6/1 215/7/1 216/8/1
f 217/10/1 218/11/1 219/12/1 220/6/1
f 221/13/1 222/10/1 223/6/1 224/5/1
f 225/14/1 226/13/1 227/5/1 228/15/1
f 229/5/1 230/6/1 231/7/1 232/8/1
f 233/10/1 234/11/1 235/12/1 236/6/1
f 237/13/1 238/10/1 239/6/1 240/5/1
f 241/14/1 242/13/1 243/5/1 244/15/1
f 245/5/1 246/6/1 247/7/1 248/8/1
f 249/10/1 250/11/1 251/12/1 252/6/1
f 253/13/1 254/10/1 255/6/1 256/5/1
f 257/14/1 258/13/1 259/5/1 260/15/1
f 261/14/1 262/13/1 263/5/1 264/15/1
f 265/10/1 266/11/1 267/12/1 268/6/1
f 269/13/1 270/10/1 271/6/1 272/5/1
f 273/14/1 274/13/1 275/5/1 276/15/1

