# Tiled2Unity generated file. Do not modify by hand.
# Wavefront file for 'Village_mesh_0042.obj'

# Vertices (Count = 1024)
v -240 -16 0
v -256 -16 0
v -256 0 0
v -240 0 0
v -224 -16 0
v -240 -16 0
v -240 0 0
v -224 0 0
v -208 -16 0
v -224 -16 0
v -224 0 0
v -208 0 0
v -192 -16 0
v -208 -16 0
v -208 0 0
v -192 0 0
v -176 -16 0
v -192 -16 0
v -192 0 0
v -176 0 0
v -160 -16 0
v -176 -16 0
v -176 0 0
v -160 0 0
v -144 -16 0
v -160 -16 0
v -160 0 0
v -144 0 0
v -128 -16 0
v -144 -16 0
v -144 0 0
v -128 0 0
v -112 -16 0
v -128 -16 0
v -128 0 0
v -112 0 0
v -96 -16 0
v -112 -16 0
v -112 0 0
v -96 0 0
v -80 -16 0
v -96 -16 0
v -96 0 0
v -80 0 0
v -64 -16 0
v -80 -16 0
v -80 0 0
v -64 0 0
v -48 -16 0
v -64 -16 0
v -64 0 0
v -48 0 0
v -32 -16 0
v -48 -16 0
v -48 0 0
v -32 0 0
v -16 -16 0
v -32 -16 0
v -32 0 0
v -16 0 0
v 0 -16 0
v -16 -16 0
v -16 0 0
v 0 0 0
v -240 -32 0
v -256 -32 0
v -256 -16 0
v -240 -16 0
v -224 -32 0
v -240 -32 0
v -240 -16 0
v -224 -16 0
v -208 -32 0
v -224 -32 0
v -224 -16 0
v -208 -16 0
v -192 -32 0
v -208 -32 0
v -208 -16 0
v -192 -16 0
v -176 -32 0
v -192 -32 0
v -192 -16 0
v -176 -16 0
v -160 -32 0
v -176 -32 0
v -176 -16 0
v -160 -16 0
v -144 -32 0
v -160 -32 0
v -160 -16 0
v -144 -16 0
v -128 -32 0
v -144 -32 0
v -144 -16 0
v -128 -16 0
v -112 -32 0
v -128 -32 0
v -128 -16 0
v -112 -16 0
v -96 -32 0
v -112 -32 0
v -112 -16 0
v -96 -16 0
v -80 -32 0
v -96 -32 0
v -96 -16 0
v -80 -16 0
v -64 -32 0
v -80 -32 0
v -80 -16 0
v -64 -16 0
v -48 -32 0
v -64 -32 0
v -64 -16 0
v -48 -16 0
v -32 -32 0
v -48 -32 0
v -48 -16 0
v -32 -16 0
v -16 -32 0
v -32 -32 0
v -32 -16 0
v -16 -16 0
v 0 -32 0
v -16 -32 0
v -16 -16 0
v 0 -16 0
v -240 -48 0
v -256 -48 0
v -256 -32 0
v -240 -32 0
v -224 -48 0
v -240 -48 0
v -240 -32 0
v -224 -32 0
v -208 -48 0
v -224 -48 0
v -224 -32 0
v -208 -32 0
v -192 -48 0
v -208 -48 0
v -208 -32 0
v -192 -32 0
v -176 -48 0
v -192 -48 0
v -192 -32 0
v -176 -32 0
v -160 -48 0
v -176 -48 0
v -176 -32 0
v -160 -32 0
v -144 -48 0
v -160 -48 0
v -160 -32 0
v -144 -32 0
v -128 -48 0
v -144 -48 0
v -144 -32 0
v -128 -32 0
v -112 -48 0
v -128 -48 0
v -128 -32 0
v -112 -32 0
v -96 -48 0
v -112 -48 0
v -112 -32 0
v -96 -32 0
v -80 -48 0
v -96 -48 0
v -96 -32 0
v -80 -32 0
v -64 -48 0
v -80 -48 0
v -80 -32 0
v -64 -32 0
v -48 -48 0
v -64 -48 0
v -64 -32 0
v -48 -32 0
v -32 -48 0
v -48 -48 0
v -48 -32 0
v -32 -32 0
v -16 -48 0
v -32 -48 0
v -32 -32 0
v -16 -32 0
v 0 -48 0
v -16 -48 0
v -16 -32 0
v 0 -32 0
v -240 -64 0
v -256 -64 0
v -256 -48 0
v -240 -48 0
v -224 -64 0
v -240 -64 0
v -240 -48 0
v -224 -48 0
v -208 -64 0
v -224 -64 0
v -224 -48 0
v -208 -48 0
v -192 -64 0
v -208 -64 0
v -208 -48 0
v -192 -48 0
v -176 -64 0
v -192 -64 0
v -192 -48 0
v -176 -48 0
v -160 -64 0
v -176 -64 0
v -176 -48 0
v -160 -48 0
v -144 -64 0
v -160 -64 0
v -160 -48 0
v -144 -48 0
v -128 -64 0
v -144 -64 0
v -144 -48 0
v -128 -48 0
v -112 -64 0
v -128 -64 0
v -128 -48 0
v -112 -48 0
v -96 -64 0
v -112 -64 0
v -112 -48 0
v -96 -48 0
v -80 -64 0
v -96 -64 0
v -96 -48 0
v -80 -48 0
v -64 -64 0
v -80 -64 0
v -80 -48 0
v -64 -48 0
v -48 -64 0
v -64 -64 0
v -64 -48 0
v -48 -48 0
v -32 -64 0
v -48 -64 0
v -48 -48 0
v -32 -48 0
v -16 -64 0
v -32 -64 0
v -32 -48 0
v -16 -48 0
v 0 -64 0
v -16 -64 0
v -16 -48 0
v 0 -48 0
v -240 -80 0
v -256 -80 0
v -256 -64 0
v -240 -64 0
v -224 -80 0
v -240 -80 0
v -240 -64 0
v -224 -64 0
v -208 -80 0
v -224 -80 0
v -224 -64 0
v -208 -64 0
v -192 -80 0
v -208 -80 0
v -208 -64 0
v -192 -64 0
v -176 -80 0
v -192 -80 0
v -192 -64 0
v -176 -64 0
v -160 -80 0
v -176 -80 0
v -176 -64 0
v -160 -64 0
v -144 -80 0
v -160 -80 0
v -160 -64 0
v -144 -64 0
v -128 -80 0
v -144 -80 0
v -144 -64 0
v -128 -64 0
v -112 -80 0
v -128 -80 0
v -128 -64 0
v -112 -64 0
v -96 -80 0
v -112 -80 0
v -112 -64 0
v -96 -64 0
v -80 -80 0
v -96 -80 0
v -96 -64 0
v -80 -64 0
v -64 -80 0
v -80 -80 0
v -80 -64 0
v -64 -64 0
v -48 -80 0
v -64 -80 0
v -64 -64 0
v -48 -64 0
v -32 -80 0
v -48 -80 0
v -48 -64 0
v -32 -64 0
v -16 -80 0
v -32 -80 0
v -32 -64 0
v -16 -64 0
v 0 -80 0
v -16 -80 0
v -16 -64 0
v 0 -64 0
v -240 -96 0
v -256 -96 0
v -256 -80 0
v -240 -80 0
v -224 -96 0
v -240 -96 0
v -240 -80 0
v -224 -80 0
v -208 -96 0
v -224 -96 0
v -224 -80 0
v -208 -80 0
v -192 -96 0
v -208 -96 0
v -208 -80 0
v -192 -80 0
v -176 -96 0
v -192 -96 0
v -192 -80 0
v -176 -80 0
v -160 -96 0
v -176 -96 0
v -176 -80 0
v -160 -80 0
v -144 -96 0
v -160 -96 0
v -160 -80 0
v -144 -80 0
v -128 -96 0
v -144 -96 0
v -144 -80 0
v -128 -80 0
v -112 -96 0
v -128 -96 0
v -128 -80 0
v -112 -80 0
v -96 -96 0
v -112 -96 0
v -112 -80 0
v -96 -80 0
v -80 -96 0
v -96 -96 0
v -96 -80 0
v -80 -80 0
v -64 -96 0
v -80 -96 0
v -80 -80 0
v -64 -80 0
v -48 -96 0
v -64 -96 0
v -64 -80 0
v -48 -80 0
v -32 -96 0
v -48 -96 0
v -48 -80 0
v -32 -80 0
v -16 -96 0
v -32 -96 0
v -32 -80 0
v -16 -80 0
v 0 -96 0
v -16 -96 0
v -16 -80 0
v 0 -80 0
v -240 -112 0
v -256 -112 0
v -256 -96 0
v -240 -96 0
v -224 -112 0
v -240 -112 0
v -240 -96 0
v -224 -96 0
v -208 -112 0
v -224 -112 0
v -224 -96 0
v -208 -96 0
v -192 -112 0
v -208 -112 0
v -208 -96 0
v -192 -96 0
v -176 -112 0
v -192 -112 0
v -192 -96 0
v -176 -96 0
v -160 -112 0
v -176 -112 0
v -176 -96 0
v -160 -96 0
v -144 -112 0
v -160 -112 0
v -160 -96 0
v -144 -96 0
v -128 -112 0
v -144 -112 0
v -144 -96 0
v -128 -96 0
v -112 -112 0
v -128 -112 0
v -128 -96 0
v -112 -96 0
v -96 -112 0
v -112 -112 0
v -112 -96 0
v -96 -96 0
v -80 -112 0
v -96 -112 0
v -96 -96 0
v -80 -96 0
v -64 -112 0
v -80 -112 0
v -80 -96 0
v -64 -96 0
v -48 -112 0
v -64 -112 0
v -64 -96 0
v -48 -96 0
v -32 -112 0
v -48 -112 0
v -48 -96 0
v -32 -96 0
v -16 -112 0
v -32 -112 0
v -32 -96 0
v -16 -96 0
v 0 -112 0
v -16 -112 0
v -16 -96 0
v 0 -96 0
v -240 -128 0
v -256 -128 0
v -256 -112 0
v -240 -112 0
v -224 -128 0
v -240 -128 0
v -240 -112 0
v -224 -112 0
v -208 -128 0
v -224 -128 0
v -224 -112 0
v -208 -112 0
v -192 -128 0
v -208 -128 0
v -208 -112 0
v -192 -112 0
v -176 -128 0
v -192 -128 0
v -192 -112 0
v -176 -112 0
v -160 -128 0
v -176 -128 0
v -176 -112 0
v -160 -112 0
v -144 -128 0
v -160 -128 0
v -160 -112 0
v -144 -112 0
v -128 -128 0
v -144 -128 0
v -144 -112 0
v -128 -112 0
v -112 -128 0
v -128 -128 0
v -128 -112 0
v -112 -112 0
v -96 -128 0
v -112 -128 0
v -112 -112 0
v -96 -112 0
v -80 -128 0
v -96 -128 0
v -96 -112 0
v -80 -112 0
v -64 -128 0
v -80 -128 0
v -80 -112 0
v -64 -112 0
v -48 -128 0
v -64 -128 0
v -64 -112 0
v -48 -112 0
v -32 -128 0
v -48 -128 0
v -48 -112 0
v -32 -112 0
v -16 -128 0
v -32 -128 0
v -32 -112 0
v -16 -112 0
v 0 -128 0
v -16 -128 0
v -16 -112 0
v 0 -112 0
v -240 -144 0
v -256 -144 0
v -256 -128 0
v -240 -128 0
v -224 -144 0
v -240 -144 0
v -240 -128 0
v -224 -128 0
v -208 -144 0
v -224 -144 0
v -224 -128 0
v -208 -128 0
v -192 -144 0
v -208 -144 0
v -208 -128 0
v -192 -128 0
v -176 -144 0
v -192 -144 0
v -192 -128 0
v -176 -128 0
v -160 -144 0
v -176 -144 0
v -176 -128 0
v -160 -128 0
v -144 -144 0
v -160 -144 0
v -160 -128 0
v -144 -128 0
v -128 -144 0
v -144 -144 0
v -144 -128 0
v -128 -128 0
v -112 -144 0
v -128 -144 0
v -128 -128 0
v -112 -128 0
v -96 -144 0
v -112 -144 0
v -112 -128 0
v -96 -128 0
v -80 -144 0
v -96 -144 0
v -96 -128 0
v -80 -128 0
v -64 -144 0
v -80 -144 0
v -80 -128 0
v -64 -128 0
v -48 -144 0
v -64 -144 0
v -64 -128 0
v -48 -128 0
v -32 -144 0
v -48 -144 0
v -48 -128 0
v -32 -128 0
v -16 -144 0
v -32 -144 0
v -32 -128 0
v -16 -128 0
v 0 -144 0
v -16 -144 0
v -16 -128 0
v 0 -128 0
v -240 -160 0
v -256 -160 0
v -256 -144 0
v -240 -144 0
v -224 -160 0
v -240 -160 0
v -240 -144 0
v -224 -144 0
v -208 -160 0
v -224 -160 0
v -224 -144 0
v -208 -144 0
v -192 -160 0
v -208 -160 0
v -208 -144 0
v -192 -144 0
v -176 -160 0
v -192 -160 0
v -192 -144 0
v -176 -144 0
v -160 -160 0
v -176 -160 0
v -176 -144 0
v -160 -144 0
v -144 -160 0
v -160 -160 0
v -160 -144 0
v -144 -144 0
v -128 -160 0
v -144 -160 0
v -144 -144 0
v -128 -144 0
v -112 -160 0
v -128 -160 0
v -128 -144 0
v -112 -144 0
v -96 -160 0
v -112 -160 0
v -112 -144 0
v -96 -144 0
v -80 -160 0
v -96 -160 0
v -96 -144 0
v -80 -144 0
v -64 -160 0
v -80 -160 0
v -80 -144 0
v -64 -144 0
v -48 -160 0
v -64 -160 0
v -64 -144 0
v -48 -144 0
v -32 -160 0
v -48 -160 0
v -48 -144 0
v -32 -144 0
v -16 -160 0
v -32 -160 0
v -32 -144 0
v -16 -144 0
v 0 -160 0
v -16 -160 0
v -16 -144 0
v 0 -144 0
v -240 -176 0
v -256 -176 0
v -256 -160 0
v -240 -160 0
v -224 -176 0
v -240 -176 0
v -240 -160 0
v -224 -160 0
v -208 -176 0
v -224 -176 0
v -224 -160 0
v -208 -160 0
v -192 -176 0
v -208 -176 0
v -208 -160 0
v -192 -160 0
v -176 -176 0
v -192 -176 0
v -192 -160 0
v -176 -160 0
v -160 -176 0
v -176 -176 0
v -176 -160 0
v -160 -160 0
v -144 -176 0
v -160 -176 0
v -160 -160 0
v -144 -160 0
v -128 -176 0
v -144 -176 0
v -144 -160 0
v -128 -160 0
v -112 -176 0
v -128 -176 0
v -128 -160 0
v -112 -160 0
v -96 -176 0
v -112 -176 0
v -112 -160 0
v -96 -160 0
v -80 -176 0
v -96 -176 0
v -96 -160 0
v -80 -160 0
v -64 -176 0
v -80 -176 0
v -80 -160 0
v -64 -160 0
v -48 -176 0
v -64 -176 0
v -64 -160 0
v -48 -160 0
v -32 -176 0
v -48 -176 0
v -48 -160 0
v -32 -160 0
v -16 -176 0
v -32 -176 0
v -32 -160 0
v -16 -160 0
v 0 -176 0
v -16 -176 0
v -16 -160 0
v 0 -160 0
v -240 -192 0
v -256 -192 0
v -256 -176 0
v -240 -176 0
v -224 -192 0
v -240 -192 0
v -240 -176 0
v -224 -176 0
v -208 -192 0
v -224 -192 0
v -224 -176 0
v -208 -176 0
v -192 -192 0
v -208 -192 0
v -208 -176 0
v -192 -176 0
v -176 -192 0
v -192 -192 0
v -192 -176 0
v -176 -176 0
v -160 -192 0
v -176 -192 0
v -176 -176 0
v -160 -176 0
v -144 -192 0
v -160 -192 0
v -160 -176 0
v -144 -176 0
v -128 -192 0
v -144 -192 0
v -144 -176 0
v -128 -176 0
v -112 -192 0
v -128 -192 0
v -128 -176 0
v -112 -176 0
v -96 -192 0
v -112 -192 0
v -112 -176 0
v -96 -176 0
v -80 -192 0
v -96 -192 0
v -96 -176 0
v -80 -176 0
v -64 -192 0
v -80 -192 0
v -80 -176 0
v -64 -176 0
v -48 -192 0
v -64 -192 0
v -64 -176 0
v -48 -176 0
v -32 -192 0
v -48 -192 0
v -48 -176 0
v -32 -176 0
v -16 -192 0
v -32 -192 0
v -32 -176 0
v -16 -176 0
v 0 -192 0
v -16 -192 0
v -16 -176 0
v 0 -176 0
v -240 -208 0
v -256 -208 0
v -256 -192 0
v -240 -192 0
v -224 -208 0
v -240 -208 0
v -240 -192 0
v -224 -192 0
v -208 -208 0
v -224 -208 0
v -224 -192 0
v -208 -192 0
v -192 -208 0
v -208 -208 0
v -208 -192 0
v -192 -192 0
v -176 -208 0
v -192 -208 0
v -192 -192 0
v -176 -192 0
v -160 -208 0
v -176 -208 0
v -176 -192 0
v -160 -192 0
v -144 -208 0
v -160 -208 0
v -160 -192 0
v -144 -192 0
v -128 -208 0
v -144 -208 0
v -144 -192 0
v -128 -192 0
v -112 -208 0
v -128 -208 0
v -128 -192 0
v -112 -192 0
v -96 -208 0
v -112 -208 0
v -112 -192 0
v -96 -192 0
v -80 -208 0
v -96 -208 0
v -96 -192 0
v -80 -192 0
v -64 -208 0
v -80 -208 0
v -80 -192 0
v -64 -192 0
v -48 -208 0
v -64 -208 0
v -64 -192 0
v -48 -192 0
v -32 -208 0
v -48 -208 0
v -48 -192 0
v -32 -192 0
v -16 -208 0
v -32 -208 0
v -32 -192 0
v -16 -192 0
v 0 -208 0
v -16 -208 0
v -16 -192 0
v 0 -192 0
v -240 -224 0
v -256 -224 0
v -256 -208 0
v -240 -208 0
v -224 -224 0
v -240 -224 0
v -240 -208 0
v -224 -208 0
v -208 -224 0
v -224 -224 0
v -224 -208 0
v -208 -208 0
v -192 -224 0
v -208 -224 0
v -208 -208 0
v -192 -208 0
v -176 -224 0
v -192 -224 0
v -192 -208 0
v -176 -208 0
v -160 -224 0
v -176 -224 0
v -176 -208 0
v -160 -208 0
v -144 -224 0
v -160 -224 0
v -160 -208 0
v -144 -208 0
v -128 -224 0
v -144 -224 0
v -144 -208 0
v -128 -208 0
v -112 -224 0
v -128 -224 0
v -128 -208 0
v -112 -208 0
v -96 -224 0
v -112 -224 0
v -112 -208 0
v -96 -208 0
v -80 -224 0
v -96 -224 0
v -96 -208 0
v -80 -208 0
v -64 -224 0
v -80 -224 0
v -80 -208 0
v -64 -208 0
v -48 -224 0
v -64 -224 0
v -64 -208 0
v -48 -208 0
v -32 -224 0
v -48 -224 0
v -48 -208 0
v -32 -208 0
v -16 -224 0
v -32 -224 0
v -32 -208 0
v -16 -208 0
v 0 -224 0
v -16 -224 0
v -16 -208 0
v 0 -208 0
v -240 -240 0
v -256 -240 0
v -256 -224 0
v -240 -224 0
v -224 -240 0
v -240 -240 0
v -240 -224 0
v -224 -224 0
v -208 -240 0
v -224 -240 0
v -224 -224 0
v -208 -224 0
v -192 -240 0
v -208 -240 0
v -208 -224 0
v -192 -224 0
v -176 -240 0
v -192 -240 0
v -192 -224 0
v -176 -224 0
v -160 -240 0
v -176 -240 0
v -176 -224 0
v -160 -224 0
v -144 -240 0
v -160 -240 0
v -160 -224 0
v -144 -224 0
v -128 -240 0
v -144 -240 0
v -144 -224 0
v -128 -224 0
v -112 -240 0
v -128 -240 0
v -128 -224 0
v -112 -224 0
v -96 -240 0
v -112 -240 0
v -112 -224 0
v -96 -224 0
v -80 -240 0
v -96 -240 0
v -96 -224 0
v -80 -224 0
v -64 -240 0
v -80 -240 0
v -80 -224 0
v -64 -224 0
v -48 -240 0
v -64 -240 0
v -64 -224 0
v -48 -224 0
v -32 -240 0
v -48 -240 0
v -48 -224 0
v -32 -224 0
v -16 -240 0
v -32 -240 0
v -32 -224 0
v -16 -224 0
v 0 -240 0
v -16 -240 0
v -16 -224 0
v 0 -224 0
v -240 -256 0
v -256 -256 0
v -256 -240 0
v -240 -240 0
v -224 -256 0
v -240 -256 0
v -240 -240 0
v -224 -240 0
v -208 -256 0
v -224 -256 0
v -224 -240 0
v -208 -240 0
v -192 -256 0
v -208 -256 0
v -208 -240 0
v -192 -240 0
v -176 -256 0
v -192 -256 0
v -192 -240 0
v -176 -240 0
v -160 -256 0
v -176 -256 0
v -176 -240 0
v -160 -240 0
v -144 -256 0
v -160 -256 0
v -160 -240 0
v -144 -240 0
v -128 -256 0
v -144 -256 0
v -144 -240 0
v -128 -240 0
v -112 -256 0
v -128 -256 0
v -128 -240 0
v -112 -240 0
v -96 -256 0
v -112 -256 0
v -112 -240 0
v -96 -240 0
v -80 -256 0
v -96 -256 0
v -96 -240 0
v -80 -240 0
v -64 -256 0
v -80 -256 0
v -80 -240 0
v -64 -240 0
v -48 -256 0
v -64 -256 0
v -64 -240 0
v -48 -240 0
v -32 -256 0
v -48 -256 0
v -48 -240 0
v -32 -240 0
v -16 -256 0
v -32 -256 0
v -32 -240 0
v -16 -240 0
v 0 -256 0
v -16 -256 0
v -16 -240 0
v 0 -240 0

# Texture cooridinates (Count = 23)
vt 0.175 0.7222222
vt 0.2 0.7222222
vt 0.2 0.75
vt 0.175 0.75
vt 0.175 0.6944444
vt 0.2 0.6944444
vt 0.225 0.7222222
vt 0.225 0.75
vt 0.225 0.6944444
vt 0.075 0.7777778
vt 0.1 0.7777778
vt 0.1 0.8055556
vt 0.075 0.8055556
vt 0.05 0.7222222
vt 0.075 0.7222222
vt 0.075 0.75
vt 0.05 0.75
vt 0.125 0.7777778
vt 0.125 0.8055556
vt 0.125 0.6944444
vt 0.15 0.6944444
vt 0.15 0.7222222
vt 0.125 0.7222222

# Normal
vn 0 0 -1

# Mesh description
g Village_mesh_0042

# Faces
f 1/1/1 2/2/1 3/3/1 4/4/1
f 5/5/1 6/6/1 7/2/1 8/1/1
f 9/1/1 10/2/1 11/3/1 12/4/1
f 13/2/1 14/7/1 15/8/1 16/3/1
f 17/1/1 18/2/1 19/3/1 20/4/1
f 21/1/1 22/2/1 23/3/1 24/4/1
f 25/6/1 26/9/1 27/7/1 28/2/1
f 29/10/1 30/11/1 31/12/1 32/13/1
f 33/10/1 34/11/1 35/12/1 36/13/1
f 37/10/1 38/11/1 39/12/1 40/13/1
f 41/10/1 42/11/1 43/12/1 44/13/1
f 45/10/1 46/11/1 47/12/1 48/13/1
f 49/10/1 50/11/1 51/12/1 52/13/1
f 53/10/1 54/11/1 55/12/1 56/13/1
f 57/10/1 58/11/1 59/12/1 60/13/1
f 61/10/1 62/11/1 63/12/1 64/13/1
f 65/5/1 66/6/1 67/2/1 68/1/1
f 69/2/1 70/7/1 71/8/1 72/3/1
f 73/1/1 74/2/1 75/3/1 76/4/1
f 77/1/1 78/2/1 79/3/1 80/4/1
f 81/2/1 82/7/1 83/8/1 84/3/1
f 85/1/1 86/2/1 87/3/1 88/4/1
f 89/1/1 90/2/1 91/3/1 92/4/1
f 93/10/1 94/11/1 95/12/1 96/13/1
f 97/10/1 98/11/1 99/12/1 100/13/1
f 101/10/1 102/11/1 103/12/1 104/13/1
f 105/10/1 106/11/1 107/12/1 108/13/1
f 109/10/1 110/11/1 111/12/1 112/13/1
f 113/10/1 114/11/1 115/12/1 116/13/1
f 117/10/1 118/11/1 119/12/1 120/13/1
f 121/10/1 122/11/1 123/12/1 124/13/1
f 125/10/1 126/11/1 127/12/1 128/13/1
f 129/1/1 130/2/1 131/3/1 132/4/1
f 133/6/1 134/9/1 135/7/1 136/2/1
f 137/2/1 138/7/1 139/8/1 140/3/1
f 141/1/1 142/2/1 143/3/1 144/4/1
f 145/5/1 146/6/1 147/2/1 148/1/1
f 149/2/1 150/7/1 151/8/1 152/3/1
f 153/1/1 154/2/1 155/3/1 156/4/1
f 157/10/1 158/11/1 159/12/1 160/13/1
f 161/10/1 162/11/1 163/12/1 164/13/1
f 165/10/1 166/11/1 167/12/1 168/13/1
f 169/10/1 170/11/1 171/12/1 172/13/1
f 173/10/1 174/11/1 175/12/1 176/13/1
f 177/10/1 178/11/1 179/12/1 180/13/1
f 181/10/1 182/11/1 183/12/1 184/13/1
f 185/10/1 186/11/1 187/12/1 188/13/1
f 189/10/1 190/11/1 191/12/1 192/13/1
f 193/1/1 194/2/1 195/3/1 196/4/1
f 197/5/1 198/6/1 199/2/1 200/1/1
f 201/1/1 202/2/1 203/3/1 204/4/1
f 205/6/1 206/9/1 207/7/1 208/2/1
f 209/6/1 210/9/1 211/7/1 212/2/1
f 213/5/1 214/6/1 215/2/1 216/1/1
f 217/5/1 218/6/1 219/2/1 220/1/1
f 221/10/1 222/11/1 223/12/1 224/13/1
f 225/10/1 226/11/1 227/12/1 228/13/1
f 229/10/1 230/11/1 231/12/1 232/13/1
f 233/10/1 234/11/1 235/12/1 236/13/1
f 237/10/1 238/11/1 239/12/1 240/13/1
f 241/10/1 242/11/1 243/12/1 244/13/1
f 245/10/1 246/11/1 247/12/1 248/13/1
f 249/10/1 250/11/1 251/12/1 252/13/1
f 253/10/1 254/11/1 255/12/1 256/13/1
f 257/6/1 258/9/1 259/7/1 260/2/1
f 261/5/1 262/6/1 263/2/1 264/1/1
f 265/5/1 266/6/1 267/2/1 268/1/1
f 269/5/1 270/6/1 271/2/1 272/1/1
f 273/6/1 274/9/1 275/7/1 276/2/1
f 277/5/1 278/6/1 279/2/1 280/1/1
f 281/6/1 282/9/1 283/7/1 284/2/1
f 285/10/1 286/11/1 287/12/1 288/13/1
f 289/10/1 290/11/1 291/12/1 292/13/1
f 293/10/1 294/11/1 295/12/1 296/13/1
f 297/10/1 298/11/1 299/12/1 300/13/1
f 301/10/1 302/11/1 303/12/1 304/13/1
f 305/10/1 306/11/1 307/12/1 308/13/1
f 309/10/1 310/11/1 311/12/1 312/13/1
f 313/10/1 314/11/1 315/12/1 316/13/1
f 317/10/1 318/11/1 319/12/1 320/13/1
f 321/6/1 322/9/1 323/7/1 324/2/1
f 325/2/1 326/7/1 327/8/1 328/3/1
f 329/1/1 330/2/1 331/3/1 332/4/1
f 333/2/1 334/7/1 335/8/1 336/3/1
f 337/1/1 338/2/1 339/3/1 340/4/1
f 341/2/1 342/7/1 343/8/1 344/3/1
f 345/2/1 346/7/1 347/8/1 348/3/1
f 349/14/1 350/15/1 351/16/1 352/17/1
f 353/10/1 354/11/1 355/12/1 356/13/1
f 357/10/1 358/11/1 359/12/1 360/13/1
f 361/10/1 362/11/1 363/12/1 364/13/1
f 365/10/1 366/11/1 367/12/1 368/13/1
f 369/10/1 370/11/1 371/12/1 372/13/1
f 373/10/1 374/11/1 375/12/1 376/13/1
f 377/10/1 378/11/1 379/12/1 380/13/1
f 381/10/1 382/11/1 383/12/1 384/13/1
f 385/6/1 386/9/1 387/7/1 388/2/1
f 389/6/1 390/9/1 391/7/1 392/2/1
f 393/2/1 394/7/1 395/8/1 396/3/1
f 397/2/1 398/7/1 399/8/1 400/3/1
f 401/6/1 402/9/1 403/7/1 404/2/1
f 405/6/1 406/9/1 407/7/1 408/2/1
f 409/5/1 410/6/1 411/2/1 412/1/1
f 413/11/1 414/18/1 415/19/1 416/12/1
f 417/10/1 418/11/1 419/12/1 420/13/1
f 421/10/1 422/11/1 423/12/1 424/13/1
f 425/10/1 426/11/1 427/12/1 428/13/1
f 429/10/1 430/11/1 431/12/1 432/13/1
f 433/10/1 434/11/1 435/12/1 436/13/1
f 437/10/1 438/11/1 439/12/1 440/13/1
f 441/10/1 442/11/1 443/12/1 444/13/1
f 445/10/1 446/11/1 447/12/1 448/13/1
f 449/5/1 450/6/1 451/2/1 452/1/1
f 453/5/1 454/6/1 455/2/1 456/1/1
f 457/6/1 458/9/1 459/7/1 460/2/1
f 461/2/1 462/7/1 463/8/1 464/3/1
f 465/20/1 466/21/1 467/22/1 468/23/1
f 469/20/1 470/21/1 471/22/1 472/23/1
f 473/5/1 474/6/1 475/2/1 476/1/1
f 477/11/1 478/18/1 479/19/1 480/12/1
f 481/10/1 482/11/1 483/12/1 484/13/1
f 485/10/1 486/11/1 487/12/1 488/13/1
f 489/10/1 490/11/1 491/12/1 492/13/1
f 493/10/1 494/11/1 495/12/1 496/13/1
f 497/10/1 498/11/1 499/12/1 500/13/1
f 501/10/1 502/11/1 503/12/1 504/13/1
f 505/10/1 506/11/1 507/12/1 508/13/1
f 509/10/1 510/11/1 511/12/1 512/13/1
f 513/1/1 514/2/1 515/3/1 516/4/1
f 517/20/1 518/21/1 519/22/1 520/23/1
f 521/20/1 522/21/1 523/22/1 524/23/1
f 525/20/1 526/21/1 527/22/1 528/23/1
f 529/1/1 530/2/1 531/3/1 532/4/1
f 533/5/1 534/6/1 535/2/1 536/1/1
f 537/6/1 538/9/1 539/7/1 540/2/1
f 541/11/1 542/18/1 543/19/1 544/12/1
f 545/10/1 546/11/1 547/12/1 548/13/1
f 549/10/1 550/11/1 551/12/1 552/13/1
f 553/10/1 554/11/1 555/12/1 556/13/1
f 557/10/1 558/11/1 559/12/1 560/13/1
f 561/10/1 562/11/1 563/12/1 564/13/1
f 565/10/1 566/11/1 567/12/1 568/13/1
f 569/10/1 570/11/1 571/12/1 572/13/1
f 573/10/1 574/11/1 575/12/1 576/13/1
f 577/20/1 578/21/1 579/22/1 580/23/1
f 581/20/1 582/21/1 583/22/1 584/23/1
f 585/20/1 586/21/1 587/22/1 588/23/1
f 589/2/1 590/7/1 591/8/1 592/3/1
f 593/1/1 594/2/1 595/3/1 596/4/1
f 597/2/1 598/7/1 599/8/1 600/3/1
f 601/1/1 602/2/1 603/3/1 604/4/1
f 605/11/1 606/18/1 607/19/1 608/12/1
f 609/10/1 610/11/1 611/12/1 612/13/1
f 613/10/1 614/11/1 615/12/1 616/13/1
f 617/10/1 618/11/1 619/12/1 620/13/1
f 621/10/1 622/11/1 623/12/1 624/13/1
f 625/10/1 626/11/1 627/12/1 628/13/1
f 629/10/1 630/11/1 631/12/1 632/13/1
f 633/10/1 634/11/1 635/12/1 636/13/1
f 637/10/1 638/11/1 639/12/1 640/13/1
f 641/20/1 642/21/1 643/22/1 644/23/1
f 645/20/1 646/21/1 647/22/1 648/23/1
f 649/20/1 650/21/1 651/22/1 652/23/1
f 653/20/1 654/21/1 655/22/1 656/23/1
f 657/20/1 658/21/1 659/22/1 660/23/1
f 661/20/1 662/21/1 663/22/1 664/23/1
f 665/20/1 666/21/1 667/22/1 668/23/1
f 669/11/1 670/18/1 671/19/1 672/12/1
f 673/10/1 674/11/1 675/12/1 676/13/1
f 677/10/1 678/11/1 679/12/1 680/13/1
f 681/10/1 682/11/1 683/12/1 684/13/1
f 685/10/1 686/11/1 687/12/1 688/13/1
f 689/10/1 690/11/1 691/12/1 692/13/1
f 693/10/1 694/11/1 695/12/1 696/13/1
f 697/10/1 698/11/1 699/12/1 700/13/1
f 701/10/1 702/11/1 703/12/1 704/13/1
f 705/20/1 706/21/1 707/22/1 708/23/1
f 709/20/1 710/21/1 711/22/1 712/23/1
f 713/20/1 714/21/1 715/22/1 716/23/1
f 717/20/1 718/21/1 719/22/1 720/23/1
f 721/20/1 722/21/1 723/22/1 724/23/1
f 725/20/1 726/21/1 727/22/1 728/23/1
f 729/20/1 730/21/1 731/22/1 732/23/1
f 733/11/1 734/18/1 735/19/1 736/12/1
f 737/10/1 738/11/1 739/12/1 740/13/1
f 741/10/1 742/11/1 743/12/1 744/13/1
f 745/10/1 746/11/1 747/12/1 748/13/1
f 749/10/1 750/11/1 751/12/1 752/13/1
f 753/10/1 754/11/1 755/12/1 756/13/1
f 757/10/1 758/11/1 759/12/1 760/13/1
f 761/10/1 762/11/1 763/12/1 764/13/1
f 765/10/1 766/11/1 767/12/1 768/13/1
f 769/6/1 770/9/1 771/7/1 772/2/1
f 773/5/1 774/6/1 775/2/1 776/1/1
f 777/5/1 778/6/1 779/2/1 780/1/1
f 781/1/1 782/2/1 783/3/1 784/4/1
f 785/5/1 786/6/1 787/2/1 788/1/1
f 789/2/1 790/7/1 791/8/1 792/3/1
f 793/2/1 794/7/1 795/8/1 796/3/1
f 797/11/1 798/18/1 799/19/1 800/12/1
f 801/10/1 802/11/1 803/12/1 804/13/1
f 805/10/1 806/11/1 807/12/1 808/13/1
f 809/10/1 810/11/1 811/12/1 812/13/1
f 813/10/1 814/11/1 815/12/1 816/13/1
f 817/10/1 818/11/1 819/12/1 820/13/1
f 821/10/1 822/11/1 823/12/1 824/13/1
f 825/10/1 826/11/1 827/12/1 828/13/1
f 829/10/1 830/11/1 831/12/1 832/13/1
f 833/5/1 834/6/1 835/2/1 836/1/1
f 837/6/1 838/9/1 839/7/1 840/2/1
f 841/5/1 842/6/1 843/2/1 844/1/1
f 845/5/1 846/6/1 847/2/1 848/1/1
f 849/1/1 850/2/1 851/3/1 852/4/1
f 853/6/1 854/9/1 855/7/1 856/2/1
f 857/2/1 858/7/1 859/8/1 860/3/1
f 861/11/1 862/18/1 863/19/1 864/12/1
f 865/10/1 866/11/1 867/12/1 868/13/1
f 869/10/1 870/11/1 871/12/1 872/13/1
f 873/10/1 874/11/1 875/12/1 876/13/1
f 877/10/1 878/11/1 879/12/1 880/13/1
f 881/10/1 882/11/1 883/12/1 884/13/1
f 885/10/1 886/11/1 887/12/1 888/13/1
f 889/10/1 890/11/1 891/12/1 892/13/1
f 893/10/1 894/11/1 895/12/1 896/13/1
f 897/20/1 898/21/1 899/22/1 900/23/1
f 901/1/1 902/2/1 903/3/1 904/4/1
f 905/6/1 906/9/1 907/7/1 908/2/1
f 909/5/1 910/6/1 911/2/1 912/1/1
f 913/5/1 914/6/1 915/2/1 916/1/1
f 917/5/1 918/6/1 919/2/1 920/1/1
f 921/5/1 922/6/1 923/2/1 924/1/1
f 925/11/1 926/18/1 927/19/1 928/12/1
f 929/10/1 930/11/1 931/12/1 932/13/1
f 933/10/1 934/11/1 935/12/1 936/13/1
f 937/10/1 938/11/1 939/12/1 940/13/1
f 941/10/1 942/11/1 943/12/1 944/13/1
f 945/10/1 946/11/1 947/12/1 948/13/1
f 949/10/1 950/11/1 951/12/1 952/13/1
f 953/10/1 954/11/1 955/12/1 956/13/1
f 957/10/1 958/11/1 959/12/1 960/13/1
f 961/5/1 962/6/1 963/2/1 964/1/1
f 965/20/1 966/21/1 967/22/1 968/23/1
f 969/2/1 970/7/1 971/8/1 972/3/1
f 973/6/1 974/9/1 975/7/1 976/2/1
f 977/5/1 978/6/1 979/2/1 980/1/1
f 981/1/1 982/2/1 983/3/1 984/4/1
f 985/1/1 986/2/1 987/3/1 988/4/1
f 989/11/1 990/18/1 991/19/1 992/12/1
f 993/10/1 994/11/1 995/12/1 996/13/1
f 997/10/1 998/11/1 999/12/1 1000/13/1
f 1001/10/1 1002/11/1 1003/12/1 1004/13/1
f 1005/10/1 1006/11/1 1007/12/1 1008/13/1
f 1009/10/1 1010/11/1 1011/12/1 1012/13/1
f 1013/10/1 1014/11/1 1015/12/1 1016/13/1
f 1017/10/1 1018/11/1 1019/12/1 1020/13/1
f 1021/10/1 1022/11/1 1023/12/1 1024/13/1

