# Tiled2Unity generated file. Do not modify by hand.
# Wavefront file for 'Village_mesh_0064.obj'

# Vertices (Count = 1024)
v -240 -16 0
v -256 -16 0
v -256 0 0
v -240 0 0
v -224 -16 0
v -240 -16 0
v -240 0 0
v -224 0 0
v -208 -16 0
v -224 -16 0
v -224 0 0
v -208 0 0
v -192 -16 0
v -208 -16 0
v -208 0 0
v -192 0 0
v -176 -16 0
v -192 -16 0
v -192 0 0
v -176 0 0
v -160 -16 0
v -176 -16 0
v -176 0 0
v -160 0 0
v -144 -16 0
v -160 -16 0
v -160 0 0
v -144 0 0
v -128 -16 0
v -144 -16 0
v -144 0 0
v -128 0 0
v -112 -16 0
v -128 -16 0
v -128 0 0
v -112 0 0
v -96 -16 0
v -112 -16 0
v -112 0 0
v -96 0 0
v -80 -16 0
v -96 -16 0
v -96 0 0
v -80 0 0
v -64 -16 0
v -80 -16 0
v -80 0 0
v -64 0 0
v -48 -16 0
v -64 -16 0
v -64 0 0
v -48 0 0
v -32 -16 0
v -48 -16 0
v -48 0 0
v -32 0 0
v -16 -16 0
v -32 -16 0
v -32 0 0
v -16 0 0
v 0 -16 0
v -16 -16 0
v -16 0 0
v 0 0 0
v -240 -32 0
v -256 -32 0
v -256 -16 0
v -240 -16 0
v -224 -32 0
v -240 -32 0
v -240 -16 0
v -224 -16 0
v -208 -32 0
v -224 -32 0
v -224 -16 0
v -208 -16 0
v -192 -32 0
v -208 -32 0
v -208 -16 0
v -192 -16 0
v -176 -32 0
v -192 -32 0
v -192 -16 0
v -176 -16 0
v -160 -32 0
v -176 -32 0
v -176 -16 0
v -160 -16 0
v -144 -32 0
v -160 -32 0
v -160 -16 0
v -144 -16 0
v -128 -32 0
v -144 -32 0
v -144 -16 0
v -128 -16 0
v -112 -32 0
v -128 -32 0
v -128 -16 0
v -112 -16 0
v -96 -32 0
v -112 -32 0
v -112 -16 0
v -96 -16 0
v -80 -32 0
v -96 -32 0
v -96 -16 0
v -80 -16 0
v -64 -32 0
v -80 -32 0
v -80 -16 0
v -64 -16 0
v -48 -32 0
v -64 -32 0
v -64 -16 0
v -48 -16 0
v -32 -32 0
v -48 -32 0
v -48 -16 0
v -32 -16 0
v -16 -32 0
v -32 -32 0
v -32 -16 0
v -16 -16 0
v 0 -32 0
v -16 -32 0
v -16 -16 0
v 0 -16 0
v -240 -48 0
v -256 -48 0
v -256 -32 0
v -240 -32 0
v -224 -48 0
v -240 -48 0
v -240 -32 0
v -224 -32 0
v -208 -48 0
v -224 -48 0
v -224 -32 0
v -208 -32 0
v -192 -48 0
v -208 -48 0
v -208 -32 0
v -192 -32 0
v -176 -48 0
v -192 -48 0
v -192 -32 0
v -176 -32 0
v -160 -48 0
v -176 -48 0
v -176 -32 0
v -160 -32 0
v -144 -48 0
v -160 -48 0
v -160 -32 0
v -144 -32 0
v -128 -48 0
v -144 -48 0
v -144 -32 0
v -128 -32 0
v -112 -48 0
v -128 -48 0
v -128 -32 0
v -112 -32 0
v -96 -48 0
v -112 -48 0
v -112 -32 0
v -96 -32 0
v -80 -48 0
v -96 -48 0
v -96 -32 0
v -80 -32 0
v -64 -48 0
v -80 -48 0
v -80 -32 0
v -64 -32 0
v -48 -48 0
v -64 -48 0
v -64 -32 0
v -48 -32 0
v -32 -48 0
v -48 -48 0
v -48 -32 0
v -32 -32 0
v -16 -48 0
v -32 -48 0
v -32 -32 0
v -16 -32 0
v 0 -48 0
v -16 -48 0
v -16 -32 0
v 0 -32 0
v -240 -64 0
v -256 -64 0
v -256 -48 0
v -240 -48 0
v -224 -64 0
v -240 -64 0
v -240 -48 0
v -224 -48 0
v -208 -64 0
v -224 -64 0
v -224 -48 0
v -208 -48 0
v -192 -64 0
v -208 -64 0
v -208 -48 0
v -192 -48 0
v -176 -64 0
v -192 -64 0
v -192 -48 0
v -176 -48 0
v -160 -64 0
v -176 -64 0
v -176 -48 0
v -160 -48 0
v -144 -64 0
v -160 -64 0
v -160 -48 0
v -144 -48 0
v -128 -64 0
v -144 -64 0
v -144 -48 0
v -128 -48 0
v -112 -64 0
v -128 -64 0
v -128 -48 0
v -112 -48 0
v -96 -64 0
v -112 -64 0
v -112 -48 0
v -96 -48 0
v -80 -64 0
v -96 -64 0
v -96 -48 0
v -80 -48 0
v -64 -64 0
v -80 -64 0
v -80 -48 0
v -64 -48 0
v -48 -64 0
v -64 -64 0
v -64 -48 0
v -48 -48 0
v -32 -64 0
v -48 -64 0
v -48 -48 0
v -32 -48 0
v -16 -64 0
v -32 -64 0
v -32 -48 0
v -16 -48 0
v 0 -64 0
v -16 -64 0
v -16 -48 0
v 0 -48 0
v -240 -80 0
v -256 -80 0
v -256 -64 0
v -240 -64 0
v -224 -80 0
v -240 -80 0
v -240 -64 0
v -224 -64 0
v -208 -80 0
v -224 -80 0
v -224 -64 0
v -208 -64 0
v -192 -80 0
v -208 -80 0
v -208 -64 0
v -192 -64 0
v -176 -80 0
v -192 -80 0
v -192 -64 0
v -176 -64 0
v -160 -80 0
v -176 -80 0
v -176 -64 0
v -160 -64 0
v -144 -80 0
v -160 -80 0
v -160 -64 0
v -144 -64 0
v -128 -80 0
v -144 -80 0
v -144 -64 0
v -128 -64 0
v -112 -80 0
v -128 -80 0
v -128 -64 0
v -112 -64 0
v -96 -80 0
v -112 -80 0
v -112 -64 0
v -96 -64 0
v -80 -80 0
v -96 -80 0
v -96 -64 0
v -80 -64 0
v -64 -80 0
v -80 -80 0
v -80 -64 0
v -64 -64 0
v -48 -80 0
v -64 -80 0
v -64 -64 0
v -48 -64 0
v -32 -80 0
v -48 -80 0
v -48 -64 0
v -32 -64 0
v -16 -80 0
v -32 -80 0
v -32 -64 0
v -16 -64 0
v 0 -80 0
v -16 -80 0
v -16 -64 0
v 0 -64 0
v -240 -96 0
v -256 -96 0
v -256 -80 0
v -240 -80 0
v -224 -96 0
v -240 -96 0
v -240 -80 0
v -224 -80 0
v -208 -96 0
v -224 -96 0
v -224 -80 0
v -208 -80 0
v -192 -96 0
v -208 -96 0
v -208 -80 0
v -192 -80 0
v -176 -96 0
v -192 -96 0
v -192 -80 0
v -176 -80 0
v -160 -96 0
v -176 -96 0
v -176 -80 0
v -160 -80 0
v -144 -96 0
v -160 -96 0
v -160 -80 0
v -144 -80 0
v -128 -96 0
v -144 -96 0
v -144 -80 0
v -128 -80 0
v -112 -96 0
v -128 -96 0
v -128 -80 0
v -112 -80 0
v -96 -96 0
v -112 -96 0
v -112 -80 0
v -96 -80 0
v -80 -96 0
v -96 -96 0
v -96 -80 0
v -80 -80 0
v -64 -96 0
v -80 -96 0
v -80 -80 0
v -64 -80 0
v -48 -96 0
v -64 -96 0
v -64 -80 0
v -48 -80 0
v -32 -96 0
v -48 -96 0
v -48 -80 0
v -32 -80 0
v -16 -96 0
v -32 -96 0
v -32 -80 0
v -16 -80 0
v 0 -96 0
v -16 -96 0
v -16 -80 0
v 0 -80 0
v -240 -112 0
v -256 -112 0
v -256 -96 0
v -240 -96 0
v -224 -112 0
v -240 -112 0
v -240 -96 0
v -224 -96 0
v -208 -112 0
v -224 -112 0
v -224 -96 0
v -208 -96 0
v -192 -112 0
v -208 -112 0
v -208 -96 0
v -192 -96 0
v -176 -112 0
v -192 -112 0
v -192 -96 0
v -176 -96 0
v -160 -112 0
v -176 -112 0
v -176 -96 0
v -160 -96 0
v -144 -112 0
v -160 -112 0
v -160 -96 0
v -144 -96 0
v -128 -112 0
v -144 -112 0
v -144 -96 0
v -128 -96 0
v -112 -112 0
v -128 -112 0
v -128 -96 0
v -112 -96 0
v -96 -112 0
v -112 -112 0
v -112 -96 0
v -96 -96 0
v -80 -112 0
v -96 -112 0
v -96 -96 0
v -80 -96 0
v -64 -112 0
v -80 -112 0
v -80 -96 0
v -64 -96 0
v -48 -112 0
v -64 -112 0
v -64 -96 0
v -48 -96 0
v -32 -112 0
v -48 -112 0
v -48 -96 0
v -32 -96 0
v -16 -112 0
v -32 -112 0
v -32 -96 0
v -16 -96 0
v 0 -112 0
v -16 -112 0
v -16 -96 0
v 0 -96 0
v -240 -128 0
v -256 -128 0
v -256 -112 0
v -240 -112 0
v -224 -128 0
v -240 -128 0
v -240 -112 0
v -224 -112 0
v -208 -128 0
v -224 -128 0
v -224 -112 0
v -208 -112 0
v -192 -128 0
v -208 -128 0
v -208 -112 0
v -192 -112 0
v -176 -128 0
v -192 -128 0
v -192 -112 0
v -176 -112 0
v -160 -128 0
v -176 -128 0
v -176 -112 0
v -160 -112 0
v -144 -128 0
v -160 -128 0
v -160 -112 0
v -144 -112 0
v -128 -128 0
v -144 -128 0
v -144 -112 0
v -128 -112 0
v -112 -128 0
v -128 -128 0
v -128 -112 0
v -112 -112 0
v -96 -128 0
v -112 -128 0
v -112 -112 0
v -96 -112 0
v -80 -128 0
v -96 -128 0
v -96 -112 0
v -80 -112 0
v -64 -128 0
v -80 -128 0
v -80 -112 0
v -64 -112 0
v -48 -128 0
v -64 -128 0
v -64 -112 0
v -48 -112 0
v -32 -128 0
v -48 -128 0
v -48 -112 0
v -32 -112 0
v -16 -128 0
v -32 -128 0
v -32 -112 0
v -16 -112 0
v 0 -128 0
v -16 -128 0
v -16 -112 0
v 0 -112 0
v -240 -144 0
v -256 -144 0
v -256 -128 0
v -240 -128 0
v -224 -144 0
v -240 -144 0
v -240 -128 0
v -224 -128 0
v -208 -144 0
v -224 -144 0
v -224 -128 0
v -208 -128 0
v -192 -144 0
v -208 -144 0
v -208 -128 0
v -192 -128 0
v -176 -144 0
v -192 -144 0
v -192 -128 0
v -176 -128 0
v -160 -144 0
v -176 -144 0
v -176 -128 0
v -160 -128 0
v -144 -144 0
v -160 -144 0
v -160 -128 0
v -144 -128 0
v -128 -144 0
v -144 -144 0
v -144 -128 0
v -128 -128 0
v -112 -144 0
v -128 -144 0
v -128 -128 0
v -112 -128 0
v -96 -144 0
v -112 -144 0
v -112 -128 0
v -96 -128 0
v -80 -144 0
v -96 -144 0
v -96 -128 0
v -80 -128 0
v -64 -144 0
v -80 -144 0
v -80 -128 0
v -64 -128 0
v -48 -144 0
v -64 -144 0
v -64 -128 0
v -48 -128 0
v -32 -144 0
v -48 -144 0
v -48 -128 0
v -32 -128 0
v -16 -144 0
v -32 -144 0
v -32 -128 0
v -16 -128 0
v 0 -144 0
v -16 -144 0
v -16 -128 0
v 0 -128 0
v -240 -160 0
v -256 -160 0
v -256 -144 0
v -240 -144 0
v -224 -160 0
v -240 -160 0
v -240 -144 0
v -224 -144 0
v -208 -160 0
v -224 -160 0
v -224 -144 0
v -208 -144 0
v -192 -160 0
v -208 -160 0
v -208 -144 0
v -192 -144 0
v -176 -160 0
v -192 -160 0
v -192 -144 0
v -176 -144 0
v -160 -160 0
v -176 -160 0
v -176 -144 0
v -160 -144 0
v -144 -160 0
v -160 -160 0
v -160 -144 0
v -144 -144 0
v -128 -160 0
v -144 -160 0
v -144 -144 0
v -128 -144 0
v -112 -160 0
v -128 -160 0
v -128 -144 0
v -112 -144 0
v -96 -160 0
v -112 -160 0
v -112 -144 0
v -96 -144 0
v -80 -160 0
v -96 -160 0
v -96 -144 0
v -80 -144 0
v -64 -160 0
v -80 -160 0
v -80 -144 0
v -64 -144 0
v -48 -160 0
v -64 -160 0
v -64 -144 0
v -48 -144 0
v -32 -160 0
v -48 -160 0
v -48 -144 0
v -32 -144 0
v -16 -160 0
v -32 -160 0
v -32 -144 0
v -16 -144 0
v 0 -160 0
v -16 -160 0
v -16 -144 0
v 0 -144 0
v -240 -176 0
v -256 -176 0
v -256 -160 0
v -240 -160 0
v -224 -176 0
v -240 -176 0
v -240 -160 0
v -224 -160 0
v -208 -176 0
v -224 -176 0
v -224 -160 0
v -208 -160 0
v -192 -176 0
v -208 -176 0
v -208 -160 0
v -192 -160 0
v -176 -176 0
v -192 -176 0
v -192 -160 0
v -176 -160 0
v -160 -176 0
v -176 -176 0
v -176 -160 0
v -160 -160 0
v -144 -176 0
v -160 -176 0
v -160 -160 0
v -144 -160 0
v -128 -176 0
v -144 -176 0
v -144 -160 0
v -128 -160 0
v -112 -176 0
v -128 -176 0
v -128 -160 0
v -112 -160 0
v -96 -176 0
v -112 -176 0
v -112 -160 0
v -96 -160 0
v -80 -176 0
v -96 -176 0
v -96 -160 0
v -80 -160 0
v -64 -176 0
v -80 -176 0
v -80 -160 0
v -64 -160 0
v -48 -176 0
v -64 -176 0
v -64 -160 0
v -48 -160 0
v -32 -176 0
v -48 -176 0
v -48 -160 0
v -32 -160 0
v -16 -176 0
v -32 -176 0
v -32 -160 0
v -16 -160 0
v 0 -176 0
v -16 -176 0
v -16 -160 0
v 0 -160 0
v -240 -192 0
v -256 -192 0
v -256 -176 0
v -240 -176 0
v -224 -192 0
v -240 -192 0
v -240 -176 0
v -224 -176 0
v -208 -192 0
v -224 -192 0
v -224 -176 0
v -208 -176 0
v -192 -192 0
v -208 -192 0
v -208 -176 0
v -192 -176 0
v -176 -192 0
v -192 -192 0
v -192 -176 0
v -176 -176 0
v -160 -192 0
v -176 -192 0
v -176 -176 0
v -160 -176 0
v -144 -192 0
v -160 -192 0
v -160 -176 0
v -144 -176 0
v -128 -192 0
v -144 -192 0
v -144 -176 0
v -128 -176 0
v -112 -192 0
v -128 -192 0
v -128 -176 0
v -112 -176 0
v -96 -192 0
v -112 -192 0
v -112 -176 0
v -96 -176 0
v -80 -192 0
v -96 -192 0
v -96 -176 0
v -80 -176 0
v -64 -192 0
v -80 -192 0
v -80 -176 0
v -64 -176 0
v -48 -192 0
v -64 -192 0
v -64 -176 0
v -48 -176 0
v -32 -192 0
v -48 -192 0
v -48 -176 0
v -32 -176 0
v -16 -192 0
v -32 -192 0
v -32 -176 0
v -16 -176 0
v 0 -192 0
v -16 -192 0
v -16 -176 0
v 0 -176 0
v -240 -208 0
v -256 -208 0
v -256 -192 0
v -240 -192 0
v -224 -208 0
v -240 -208 0
v -240 -192 0
v -224 -192 0
v -208 -208 0
v -224 -208 0
v -224 -192 0
v -208 -192 0
v -192 -208 0
v -208 -208 0
v -208 -192 0
v -192 -192 0
v -176 -208 0
v -192 -208 0
v -192 -192 0
v -176 -192 0
v -160 -208 0
v -176 -208 0
v -176 -192 0
v -160 -192 0
v -144 -208 0
v -160 -208 0
v -160 -192 0
v -144 -192 0
v -128 -208 0
v -144 -208 0
v -144 -192 0
v -128 -192 0
v -112 -208 0
v -128 -208 0
v -128 -192 0
v -112 -192 0
v -96 -208 0
v -112 -208 0
v -112 -192 0
v -96 -192 0
v -80 -208 0
v -96 -208 0
v -96 -192 0
v -80 -192 0
v -64 -208 0
v -80 -208 0
v -80 -192 0
v -64 -192 0
v -48 -208 0
v -64 -208 0
v -64 -192 0
v -48 -192 0
v -32 -208 0
v -48 -208 0
v -48 -192 0
v -32 -192 0
v -16 -208 0
v -32 -208 0
v -32 -192 0
v -16 -192 0
v 0 -208 0
v -16 -208 0
v -16 -192 0
v 0 -192 0
v -240 -224 0
v -256 -224 0
v -256 -208 0
v -240 -208 0
v -224 -224 0
v -240 -224 0
v -240 -208 0
v -224 -208 0
v -208 -224 0
v -224 -224 0
v -224 -208 0
v -208 -208 0
v -192 -224 0
v -208 -224 0
v -208 -208 0
v -192 -208 0
v -176 -224 0
v -192 -224 0
v -192 -208 0
v -176 -208 0
v -160 -224 0
v -176 -224 0
v -176 -208 0
v -160 -208 0
v -144 -224 0
v -160 -224 0
v -160 -208 0
v -144 -208 0
v -128 -224 0
v -144 -224 0
v -144 -208 0
v -128 -208 0
v -112 -224 0
v -128 -224 0
v -128 -208 0
v -112 -208 0
v -96 -224 0
v -112 -224 0
v -112 -208 0
v -96 -208 0
v -80 -224 0
v -96 -224 0
v -96 -208 0
v -80 -208 0
v -64 -224 0
v -80 -224 0
v -80 -208 0
v -64 -208 0
v -48 -224 0
v -64 -224 0
v -64 -208 0
v -48 -208 0
v -32 -224 0
v -48 -224 0
v -48 -208 0
v -32 -208 0
v -16 -224 0
v -32 -224 0
v -32 -208 0
v -16 -208 0
v 0 -224 0
v -16 -224 0
v -16 -208 0
v 0 -208 0
v -240 -240 0
v -256 -240 0
v -256 -224 0
v -240 -224 0
v -224 -240 0
v -240 -240 0
v -240 -224 0
v -224 -224 0
v -208 -240 0
v -224 -240 0
v -224 -224 0
v -208 -224 0
v -192 -240 0
v -208 -240 0
v -208 -224 0
v -192 -224 0
v -176 -240 0
v -192 -240 0
v -192 -224 0
v -176 -224 0
v -160 -240 0
v -176 -240 0
v -176 -224 0
v -160 -224 0
v -144 -240 0
v -160 -240 0
v -160 -224 0
v -144 -224 0
v -128 -240 0
v -144 -240 0
v -144 -224 0
v -128 -224 0
v -112 -240 0
v -128 -240 0
v -128 -224 0
v -112 -224 0
v -96 -240 0
v -112 -240 0
v -112 -224 0
v -96 -224 0
v -80 -240 0
v -96 -240 0
v -96 -224 0
v -80 -224 0
v -64 -240 0
v -80 -240 0
v -80 -224 0
v -64 -224 0
v -48 -240 0
v -64 -240 0
v -64 -224 0
v -48 -224 0
v -32 -240 0
v -48 -240 0
v -48 -224 0
v -32 -224 0
v -16 -240 0
v -32 -240 0
v -32 -224 0
v -16 -224 0
v 0 -240 0
v -16 -240 0
v -16 -224 0
v 0 -224 0
v -240 -256 0
v -256 -256 0
v -256 -240 0
v -240 -240 0
v -224 -256 0
v -240 -256 0
v -240 -240 0
v -224 -240 0
v -208 -256 0
v -224 -256 0
v -224 -240 0
v -208 -240 0
v -192 -256 0
v -208 -256 0
v -208 -240 0
v -192 -240 0
v -176 -256 0
v -192 -256 0
v -192 -240 0
v -176 -240 0
v -160 -256 0
v -176 -256 0
v -176 -240 0
v -160 -240 0
v -144 -256 0
v -160 -256 0
v -160 -240 0
v -144 -240 0
v -128 -256 0
v -144 -256 0
v -144 -240 0
v -128 -240 0
v -112 -256 0
v -128 -256 0
v -128 -240 0
v -112 -240 0
v -96 -256 0
v -112 -256 0
v -112 -240 0
v -96 -240 0
v -80 -256 0
v -96 -256 0
v -96 -240 0
v -80 -240 0
v -64 -256 0
v -80 -256 0
v -80 -240 0
v -64 -240 0
v -48 -256 0
v -64 -256 0
v -64 -240 0
v -48 -240 0
v -32 -256 0
v -48 -256 0
v -48 -240 0
v -32 -240 0
v -16 -256 0
v -32 -256 0
v -32 -240 0
v -16 -240 0
v 0 -256 0
v -16 -256 0
v -16 -240 0
v 0 -240 0

# Texture cooridinates (Count = 9)
vt 0.2 0.6944444
vt 0.225 0.6944444
vt 0.225 0.7222222
vt 0.2 0.7222222
vt 0.225 0.75
vt 0.2 0.75
vt 0.175 0.6944444
vt 0.175 0.7222222
vt 0.175 0.75

# Normal
vn 0 0 -1

# Mesh description
g Village_mesh_0064

# Faces
f 1/1/1 2/2/1 3/3/1 4/4/1
f 5/1/1 6/2/1 7/3/1 8/4/1
f 9/4/1 10/3/1 11/5/1 12/6/1
f 13/7/1 14/1/1 15/4/1 16/8/1
f 17/4/1 18/3/1 19/5/1 20/6/1
f 21/7/1 22/1/1 23/4/1 24/8/1
f 25/8/1 26/4/1 27/6/1 28/9/1
f 29/8/1 30/4/1 31/6/1 32/9/1
f 33/8/1 34/4/1 35/6/1 36/9/1
f 37/4/1 38/3/1 39/5/1 40/6/1
f 41/8/1 42/4/1 43/6/1 44/9/1
f 45/1/1 46/2/1 47/3/1 48/4/1
f 49/4/1 50/3/1 51/5/1 52/6/1
f 53/7/1 54/1/1 55/4/1 56/8/1
f 57/8/1 58/4/1 59/6/1 60/9/1
f 61/7/1 62/1/1 63/4/1 64/8/1
f 65/1/1 66/2/1 67/3/1 68/4/1
f 69/4/1 70/3/1 71/5/1 72/6/1
f 73/7/1 74/1/1 75/4/1 76/8/1
f 77/1/1 78/2/1 79/3/1 80/4/1
f 81/7/1 82/1/1 83/4/1 84/8/1
f 85/4/1 86/3/1 87/5/1 88/6/1
f 89/7/1 90/1/1 91/4/1 92/8/1
f 93/8/1 94/4/1 95/6/1 96/9/1
f 97/1/1 98/2/1 99/3/1 100/4/1
f 101/4/1 102/3/1 103/5/1 104/6/1
f 105/4/1 106/3/1 107/5/1 108/6/1
f 109/8/1 110/4/1 111/6/1 112/9/1
f 113/1/1 114/2/1 115/3/1 116/4/1
f 117/8/1 118/4/1 119/6/1 120/9/1
f 121/7/1 122/1/1 123/4/1 124/8/1
f 125/4/1 126/3/1 127/5/1 128/6/1
f 129/4/1 130/3/1 131/5/1 132/6/1
f 133/4/1 134/3/1 135/5/1 136/6/1
f 137/1/1 138/2/1 139/3/1 140/4/1
f 141/7/1 142/1/1 143/4/1 144/8/1
f 145/8/1 146/4/1 147/6/1 148/9/1
f 149/1/1 150/2/1 151/3/1 152/4/1
f 153/7/1 154/1/1 155/4/1 156/8/1
f 157/7/1 158/1/1 159/4/1 160/8/1
f 161/8/1 162/4/1 163/6/1 164/9/1
f 165/1/1 166/2/1 167/3/1 168/4/1
f 169/7/1 170/1/1 171/4/1 172/8/1
f 173/4/1 174/3/1 175/5/1 176/6/1
f 177/1/1 178/2/1 179/3/1 180/4/1
f 181/8/1 182/4/1 183/6/1 184/9/1
f 185/8/1 186/4/1 187/6/1 188/9/1
f 189/8/1 190/4/1 191/6/1 192/9/1
f 193/7/1 194/1/1 195/4/1 196/8/1
f 197/1/1 198/2/1 199/3/1 200/4/1
f 201/8/1 202/4/1 203/6/1 204/9/1
f 205/4/1 206/3/1 207/5/1 208/6/1
f 209/8/1 210/4/1 211/6/1 212/9/1
f 213/8/1 214/4/1 215/6/1 216/9/1
f 217/1/1 218/2/1 219/3/1 220/4/1
f 221/7/1 222/1/1 223/4/1 224/8/1
f 225/7/1 226/1/1 227/4/1 228/8/1
f 229/8/1 230/4/1 231/6/1 232/9/1
f 233/4/1 234/3/1 235/5/1 236/6/1
f 237/7/1 238/1/1 239/4/1 240/8/1
f 241/8/1 242/4/1 243/6/1 244/9/1
f 245/1/1 246/2/1 247/3/1 248/4/1
f 249/4/1 250/3/1 251/5/1 252/6/1
f 253/4/1 254/3/1 255/5/1 256/6/1
f 257/1/1 258/2/1 259/3/1 260/4/1
f 261/8/1 262/4/1 263/6/1 264/9/1
f 265/1/1 266/2/1 267/3/1 268/4/1
f 269/4/1 270/3/1 271/5/1 272/6/1
f 273/4/1 274/3/1 275/5/1 276/6/1
f 277/1/1 278/2/1 279/3/1 280/4/1
f 281/8/1 282/4/1 283/6/1 284/9/1
f 285/7/1 286/1/1 287/4/1 288/8/1
f 289/7/1 290/1/1 291/4/1 292/8/1
f 293/8/1 294/4/1 295/6/1 296/9/1
f 297/7/1 298/1/1 299/4/1 300/8/1
f 301/8/1 302/4/1 303/6/1 304/9/1
f 305/1/1 306/2/1 307/3/1 308/4/1
f 309/4/1 310/3/1 311/5/1 312/6/1
f 313/1/1 314/2/1 315/3/1 316/4/1
f 317/1/1 318/2/1 319/3/1 320/4/1
f 321/4/1 322/3/1 323/5/1 324/6/1
f 325/1/1 326/2/1 327/3/1 328/4/1
f 329/4/1 330/3/1 331/5/1 332/6/1
f 333/8/1 334/4/1 335/6/1 336/9/1
f 337/1/1 338/2/1 339/3/1 340/4/1
f 341/7/1 342/1/1 343/4/1 344/8/1
f 345/1/1 346/2/1 347/3/1 348/4/1
f 349/4/1 350/3/1 351/5/1 352/6/1
f 353/4/1 354/3/1 355/5/1 356/6/1
f 357/1/1 358/2/1 359/3/1 360/4/1
f 361/7/1 362/1/1 363/4/1 364/8/1
f 365/7/1 366/1/1 367/4/1 368/8/1
f 369/4/1 370/3/1 371/5/1 372/6/1
f 373/1/1 374/2/1 375/3/1 376/4/1
f 377/8/1 378/4/1 379/6/1 380/9/1
f 381/4/1 382/3/1 383/5/1 384/6/1
f 385/8/1 386/4/1 387/6/1 388/9/1
f 389/1/1 390/2/1 391/3/1 392/4/1
f 393/1/1 394/2/1 395/3/1 396/4/1
f 397/1/1 398/2/1 399/3/1 400/4/1
f 401/7/1 402/1/1 403/4/1 404/8/1
f 405/4/1 406/3/1 407/5/1 408/6/1
f 409/7/1 410/1/1 411/4/1 412/8/1
f 413/8/1 414/4/1 415/6/1 416/9/1
f 417/7/1 418/1/1 419/4/1 420/8/1
f 421/8/1 422/4/1 423/6/1 424/9/1
f 425/8/1 426/4/1 427/6/1 428/9/1
f 429/8/1 430/4/1 431/6/1 432/9/1
f 433/1/1 434/2/1 435/3/1 436/4/1
f 437/1/1 438/2/1 439/3/1 440/4/1
f 441/1/1 442/2/1 443/3/1 444/4/1
f 445/4/1 446/3/1 447/5/1 448/6/1
f 449/4/1 450/3/1 451/5/1 452/6/1
f 453/4/1 454/3/1 455/5/1 456/6/1
f 457/1/1 458/2/1 459/3/1 460/4/1
f 461/7/1 462/1/1 463/4/1 464/8/1
f 465/7/1 466/1/1 467/4/1 468/8/1
f 469/8/1 470/4/1 471/6/1 472/9/1
f 473/8/1 474/4/1 475/6/1 476/9/1
f 477/4/1 478/3/1 479/5/1 480/6/1
f 481/4/1 482/3/1 483/5/1 484/6/1
f 485/8/1 486/4/1 487/6/1 488/9/1
f 489/8/1 490/4/1 491/6/1 492/9/1
f 493/1/1 494/2/1 495/3/1 496/4/1
f 497/7/1 498/1/1 499/4/1 500/8/1
f 501/4/1 502/3/1 503/5/1 504/6/1
f 505/1/1 506/2/1 507/3/1 508/4/1
f 509/4/1 510/3/1 511/5/1 512/6/1
f 513/1/1 514/2/1 515/3/1 516/4/1
f 517/7/1 518/1/1 519/4/1 520/8/1
f 521/7/1 522/1/1 523/4/1 524/8/1
f 525/7/1 526/1/1 527/4/1 528/8/1
f 529/4/1 530/3/1 531/5/1 532/6/1
f 533/7/1 534/1/1 535/4/1 536/8/1
f 537/1/1 538/2/1 539/3/1 540/4/1
f 541/8/1 542/4/1 543/6/1 544/9/1
f 545/8/1 546/4/1 547/6/1 548/9/1
f 549/1/1 550/2/1 551/3/1 552/4/1
f 553/1/1 554/2/1 555/3/1 556/4/1
f 557/7/1 558/1/1 559/4/1 560/8/1
f 561/8/1 562/4/1 563/6/1 564/9/1
f 565/1/1 566/2/1 567/3/1 568/4/1
f 569/1/1 570/2/1 571/3/1 572/4/1
f 573/7/1 574/1/1 575/4/1 576/8/1
f 577/1/1 578/2/1 579/3/1 580/4/1
f 581/4/1 582/3/1 583/5/1 584/6/1
f 585/1/1 586/2/1 587/3/1 588/4/1
f 589/7/1 590/1/1 591/4/1 592/8/1
f 593/4/1 594/3/1 595/5/1 596/6/1
f 597/7/1 598/1/1 599/4/1 600/8/1
f 601/7/1 602/1/1 603/4/1 604/8/1
f 605/1/1 606/2/1 607/3/1 608/4/1
f 609/8/1 610/4/1 611/6/1 612/9/1
f 613/1/1 614/2/1 615/3/1 616/4/1
f 617/8/1 618/4/1 619/6/1 620/9/1
f 621/8/1 622/4/1 623/6/1 624/9/1
f 625/4/1 626/3/1 627/5/1 628/6/1
f 629/1/1 630/2/1 631/3/1 632/4/1
f 633/8/1 634/4/1 635/6/1 636/9/1
f 637/7/1 638/1/1 639/4/1 640/8/1
f 641/7/1 642/1/1 643/4/1 644/8/1
f 645/1/1 646/2/1 647/3/1 648/4/1
f 649/8/1 650/4/1 651/6/1 652/9/1
f 653/1/1 654/2/1 655/3/1 656/4/1
f 657/8/1 658/4/1 659/6/1 660/9/1
f 661/1/1 662/2/1 663/3/1 664/4/1
f 665/1/1 666/2/1 667/3/1 668/4/1
f 669/8/1 670/4/1 671/6/1 672/9/1
f 673/7/1 674/1/1 675/4/1 676/8/1
f 677/7/1 678/1/1 679/4/1 680/8/1
f 681/8/1 682/4/1 683/6/1 684/9/1
f 685/7/1 686/1/1 687/4/1 688/8/1
f 689/1/1 690/2/1 691/3/1 692/4/1
f 693/1/1 694/2/1 695/3/1 696/4/1
f 697/8/1 698/4/1 699/6/1 700/9/1
f 701/8/1 702/4/1 703/6/1 704/9/1
f 705/1/1 706/2/1 707/3/1 708/4/1
f 709/8/1 710/4/1 711/6/1 712/9/1
f 713/8/1 714/4/1 715/6/1 716/9/1
f 717/4/1 718/3/1 719/5/1 720/6/1
f 721/1/1 722/2/1 723/3/1 724/4/1
f 725/1/1 726/2/1 727/3/1 728/4/1
f 729/4/1 730/3/1 731/5/1 732/6/1
f 733/4/1 734/3/1 735/5/1 736/6/1
f 737/7/1 738/1/1 739/4/1 740/8/1
f 741/7/1 742/1/1 743/4/1 744/8/1
f 745/7/1 746/1/1 747/4/1 748/8/1
f 749/1/1 750/2/1 751/3/1 752/4/1
f 753/7/1 754/1/1 755/4/1 756/8/1
f 757/1/1 758/2/1 759/3/1 760/4/1
f 761/1/1 762/2/1 763/3/1 764/4/1
f 765/4/1 766/3/1 767/5/1 768/6/1
f 769/7/1 770/1/1 771/4/1 772/8/1
f 773/1/1 774/2/1 775/3/1 776/4/1
f 777/7/1 778/1/1 779/4/1 780/8/1
f 781/8/1 782/4/1 783/6/1 784/9/1
f 785/8/1 786/4/1 787/6/1 788/9/1
f 789/8/1 790/4/1 791/6/1 792/9/1
f 793/1/1 794/2/1 795/3/1 796/4/1
f 797/1/1 798/2/1 799/3/1 800/4/1
f 801/8/1 802/4/1 803/6/1 804/9/1
f 805/1/1 806/2/1 807/3/1 808/4/1
f 809/7/1 810/1/1 811/4/1 812/8/1
f 813/8/1 814/4/1 815/6/1 816/9/1
f 817/7/1 818/1/1 819/4/1 820/8/1
f 821/1/1 822/2/1 823/3/1 824/4/1
f 825/4/1 826/3/1 827/5/1 828/6/1
f 829/8/1 830/4/1 831/6/1 832/9/1
f 833/8/1 834/4/1 835/6/1 836/9/1
f 837/1/1 838/2/1 839/3/1 840/4/1
f 841/1/1 842/2/1 843/3/1 844/4/1
f 845/8/1 846/4/1 847/6/1 848/9/1
f 849/7/1 850/1/1 851/4/1 852/8/1
f 853/7/1 854/1/1 855/4/1 856/8/1
f 857/1/1 858/2/1 859/3/1 860/4/1
f 861/1/1 862/2/1 863/3/1 864/4/1
f 865/4/1 866/3/1 867/5/1 868/6/1
f 869/7/1 870/1/1 871/4/1 872/8/1
f 873/7/1 874/1/1 875/4/1 876/8/1
f 877/4/1 878/3/1 879/5/1 880/6/1
f 881/1/1 882/2/1 883/3/1 884/4/1
f 885/8/1 886/4/1 887/6/1 888/9/1
f 889/1/1 890/2/1 891/3/1 892/4/1
f 893/7/1 894/1/1 895/4/1 896/8/1
f 897/8/1 898/4/1 899/6/1 900/9/1
f 901/7/1 902/1/1 903/4/1 904/8/1
f 905/7/1 906/1/1 907/4/1 908/8/1
f 909/8/1 910/4/1 911/6/1 912/9/1
f 913/4/1 914/3/1 915/5/1 916/6/1
f 917/1/1 918/2/1 919/3/1 920/4/1
f 921/8/1 922/4/1 923/6/1 924/9/1
f 925/1/1 926/2/1 927/3/1 928/4/1
f 929/7/1 930/1/1 931/4/1 932/8/1
f 933/4/1 934/3/1 935/5/1 936/6/1
f 937/4/1 938/3/1 939/5/1 940/6/1
f 941/4/1 942/3/1 943/5/1 944/6/1
f 945/1/1 946/2/1 947/3/1 948/4/1
f 949/1/1 950/2/1 951/3/1 952/4/1
f 953/1/1 954/2/1 955/3/1 956/4/1
f 957/7/1 958/1/1 959/4/1 960/8/1
f 961/1/1 962/2/1 963/3/1 964/4/1
f 965/1/1 966/2/1 967/3/1 968/4/1
f 969/4/1 970/3/1 971/5/1 972/6/1
f 973/1/1 974/2/1 975/3/1 976/4/1
f 977/8/1 978/4/1 979/6/1 980/9/1
f 981/1/1 982/2/1 983/3/1 984/4/1
f 985/8/1 986/4/1 987/6/1 988/9/1
f 989/8/1 990/4/1 991/6/1 992/9/1
f 993/8/1 994/4/1 995/6/1 996/9/1
f 997/4/1 998/3/1 999/5/1 1000/6/1
f 1001/8/1 1002/4/1 1003/6/1 1004/9/1
f 1005/1/1 1006/2/1 1007/3/1 1008/4/1
f 1009/4/1 1010/3/1 1011/5/1 1012/6/1
f 1013/8/1 1014/4/1 1015/6/1 1016/9/1
f 1017/4/1 1018/3/1 1019/5/1 1020/6/1
f 1021/8/1 1022/4/1 1023/6/1 1024/9/1

