# Tiled2Unity generated file. Do not modify by hand.
# Wavefront file for 'Village_mesh_0029.obj'

# Vertices (Count = 1024)
v -240 -16 0
v -256 -16 0
v -256 0 0
v -240 0 0
v -224 -16 0
v -240 -16 0
v -240 0 0
v -224 0 0
v -208 -16 0
v -224 -16 0
v -224 0 0
v -208 0 0
v -192 -16 0
v -208 -16 0
v -208 0 0
v -192 0 0
v -176 -16 0
v -192 -16 0
v -192 0 0
v -176 0 0
v -160 -16 0
v -176 -16 0
v -176 0 0
v -160 0 0
v -144 -16 0
v -160 -16 0
v -160 0 0
v -144 0 0
v -128 -16 0
v -144 -16 0
v -144 0 0
v -128 0 0
v -112 -16 0
v -128 -16 0
v -128 0 0
v -112 0 0
v -96 -16 0
v -112 -16 0
v -112 0 0
v -96 0 0
v -80 -16 0
v -96 -16 0
v -96 0 0
v -80 0 0
v -64 -16 0
v -80 -16 0
v -80 0 0
v -64 0 0
v -48 -16 0
v -64 -16 0
v -64 0 0
v -48 0 0
v -32 -16 0
v -48 -16 0
v -48 0 0
v -32 0 0
v -16 -16 0
v -32 -16 0
v -32 0 0
v -16 0 0
v 0 -16 0
v -16 -16 0
v -16 0 0
v 0 0 0
v -240 -32 0
v -256 -32 0
v -256 -16 0
v -240 -16 0
v -224 -32 0
v -240 -32 0
v -240 -16 0
v -224 -16 0
v -208 -32 0
v -224 -32 0
v -224 -16 0
v -208 -16 0
v -192 -32 0
v -208 -32 0
v -208 -16 0
v -192 -16 0
v -176 -32 0
v -192 -32 0
v -192 -16 0
v -176 -16 0
v -160 -32 0
v -176 -32 0
v -176 -16 0
v -160 -16 0
v -144 -32 0
v -160 -32 0
v -160 -16 0
v -144 -16 0
v -128 -32 0
v -144 -32 0
v -144 -16 0
v -128 -16 0
v -112 -32 0
v -128 -32 0
v -128 -16 0
v -112 -16 0
v -96 -32 0
v -112 -32 0
v -112 -16 0
v -96 -16 0
v -80 -32 0
v -96 -32 0
v -96 -16 0
v -80 -16 0
v -64 -32 0
v -80 -32 0
v -80 -16 0
v -64 -16 0
v -48 -32 0
v -64 -32 0
v -64 -16 0
v -48 -16 0
v -32 -32 0
v -48 -32 0
v -48 -16 0
v -32 -16 0
v -16 -32 0
v -32 -32 0
v -32 -16 0
v -16 -16 0
v 0 -32 0
v -16 -32 0
v -16 -16 0
v 0 -16 0
v -240 -48 0
v -256 -48 0
v -256 -32 0
v -240 -32 0
v -224 -48 0
v -240 -48 0
v -240 -32 0
v -224 -32 0
v -208 -48 0
v -224 -48 0
v -224 -32 0
v -208 -32 0
v -192 -48 0
v -208 -48 0
v -208 -32 0
v -192 -32 0
v -176 -48 0
v -192 -48 0
v -192 -32 0
v -176 -32 0
v -160 -48 0
v -176 -48 0
v -176 -32 0
v -160 -32 0
v -144 -48 0
v -160 -48 0
v -160 -32 0
v -144 -32 0
v -128 -48 0
v -144 -48 0
v -144 -32 0
v -128 -32 0
v -112 -48 0
v -128 -48 0
v -128 -32 0
v -112 -32 0
v -96 -48 0
v -112 -48 0
v -112 -32 0
v -96 -32 0
v -80 -48 0
v -96 -48 0
v -96 -32 0
v -80 -32 0
v -64 -48 0
v -80 -48 0
v -80 -32 0
v -64 -32 0
v -48 -48 0
v -64 -48 0
v -64 -32 0
v -48 -32 0
v -32 -48 0
v -48 -48 0
v -48 -32 0
v -32 -32 0
v -16 -48 0
v -32 -48 0
v -32 -32 0
v -16 -32 0
v 0 -48 0
v -16 -48 0
v -16 -32 0
v 0 -32 0
v -240 -64 0
v -256 -64 0
v -256 -48 0
v -240 -48 0
v -224 -64 0
v -240 -64 0
v -240 -48 0
v -224 -48 0
v -208 -64 0
v -224 -64 0
v -224 -48 0
v -208 -48 0
v -192 -64 0
v -208 -64 0
v -208 -48 0
v -192 -48 0
v -176 -64 0
v -192 -64 0
v -192 -48 0
v -176 -48 0
v -160 -64 0
v -176 -64 0
v -176 -48 0
v -160 -48 0
v -144 -64 0
v -160 -64 0
v -160 -48 0
v -144 -48 0
v -128 -64 0
v -144 -64 0
v -144 -48 0
v -128 -48 0
v -112 -64 0
v -128 -64 0
v -128 -48 0
v -112 -48 0
v -96 -64 0
v -112 -64 0
v -112 -48 0
v -96 -48 0
v -80 -64 0
v -96 -64 0
v -96 -48 0
v -80 -48 0
v -64 -64 0
v -80 -64 0
v -80 -48 0
v -64 -48 0
v -48 -64 0
v -64 -64 0
v -64 -48 0
v -48 -48 0
v -32 -64 0
v -48 -64 0
v -48 -48 0
v -32 -48 0
v -16 -64 0
v -32 -64 0
v -32 -48 0
v -16 -48 0
v 0 -64 0
v -16 -64 0
v -16 -48 0
v 0 -48 0
v -240 -80 0
v -256 -80 0
v -256 -64 0
v -240 -64 0
v -224 -80 0
v -240 -80 0
v -240 -64 0
v -224 -64 0
v -208 -80 0
v -224 -80 0
v -224 -64 0
v -208 -64 0
v -192 -80 0
v -208 -80 0
v -208 -64 0
v -192 -64 0
v -176 -80 0
v -192 -80 0
v -192 -64 0
v -176 -64 0
v -160 -80 0
v -176 -80 0
v -176 -64 0
v -160 -64 0
v -144 -80 0
v -160 -80 0
v -160 -64 0
v -144 -64 0
v -128 -80 0
v -144 -80 0
v -144 -64 0
v -128 -64 0
v -112 -80 0
v -128 -80 0
v -128 -64 0
v -112 -64 0
v -96 -80 0
v -112 -80 0
v -112 -64 0
v -96 -64 0
v -80 -80 0
v -96 -80 0
v -96 -64 0
v -80 -64 0
v -64 -80 0
v -80 -80 0
v -80 -64 0
v -64 -64 0
v -48 -80 0
v -64 -80 0
v -64 -64 0
v -48 -64 0
v -32 -80 0
v -48 -80 0
v -48 -64 0
v -32 -64 0
v -16 -80 0
v -32 -80 0
v -32 -64 0
v -16 -64 0
v 0 -80 0
v -16 -80 0
v -16 -64 0
v 0 -64 0
v -240 -96 0
v -256 -96 0
v -256 -80 0
v -240 -80 0
v -224 -96 0
v -240 -96 0
v -240 -80 0
v -224 -80 0
v -208 -96 0
v -224 -96 0
v -224 -80 0
v -208 -80 0
v -192 -96 0
v -208 -96 0
v -208 -80 0
v -192 -80 0
v -176 -96 0
v -192 -96 0
v -192 -80 0
v -176 -80 0
v -160 -96 0
v -176 -96 0
v -176 -80 0
v -160 -80 0
v -144 -96 0
v -160 -96 0
v -160 -80 0
v -144 -80 0
v -128 -96 0
v -144 -96 0
v -144 -80 0
v -128 -80 0
v -112 -96 0
v -128 -96 0
v -128 -80 0
v -112 -80 0
v -96 -96 0
v -112 -96 0
v -112 -80 0
v -96 -80 0
v -80 -96 0
v -96 -96 0
v -96 -80 0
v -80 -80 0
v -64 -96 0
v -80 -96 0
v -80 -80 0
v -64 -80 0
v -48 -96 0
v -64 -96 0
v -64 -80 0
v -48 -80 0
v -32 -96 0
v -48 -96 0
v -48 -80 0
v -32 -80 0
v -16 -96 0
v -32 -96 0
v -32 -80 0
v -16 -80 0
v 0 -96 0
v -16 -96 0
v -16 -80 0
v 0 -80 0
v -240 -112 0
v -256 -112 0
v -256 -96 0
v -240 -96 0
v -224 -112 0
v -240 -112 0
v -240 -96 0
v -224 -96 0
v -208 -112 0
v -224 -112 0
v -224 -96 0
v -208 -96 0
v -192 -112 0
v -208 -112 0
v -208 -96 0
v -192 -96 0
v -176 -112 0
v -192 -112 0
v -192 -96 0
v -176 -96 0
v -160 -112 0
v -176 -112 0
v -176 -96 0
v -160 -96 0
v -144 -112 0
v -160 -112 0
v -160 -96 0
v -144 -96 0
v -128 -112 0
v -144 -112 0
v -144 -96 0
v -128 -96 0
v -112 -112 0
v -128 -112 0
v -128 -96 0
v -112 -96 0
v -96 -112 0
v -112 -112 0
v -112 -96 0
v -96 -96 0
v -80 -112 0
v -96 -112 0
v -96 -96 0
v -80 -96 0
v -64 -112 0
v -80 -112 0
v -80 -96 0
v -64 -96 0
v -48 -112 0
v -64 -112 0
v -64 -96 0
v -48 -96 0
v -32 -112 0
v -48 -112 0
v -48 -96 0
v -32 -96 0
v -16 -112 0
v -32 -112 0
v -32 -96 0
v -16 -96 0
v 0 -112 0
v -16 -112 0
v -16 -96 0
v 0 -96 0
v -240 -128 0
v -256 -128 0
v -256 -112 0
v -240 -112 0
v -224 -128 0
v -240 -128 0
v -240 -112 0
v -224 -112 0
v -208 -128 0
v -224 -128 0
v -224 -112 0
v -208 -112 0
v -192 -128 0
v -208 -128 0
v -208 -112 0
v -192 -112 0
v -176 -128 0
v -192 -128 0
v -192 -112 0
v -176 -112 0
v -160 -128 0
v -176 -128 0
v -176 -112 0
v -160 -112 0
v -144 -128 0
v -160 -128 0
v -160 -112 0
v -144 -112 0
v -128 -128 0
v -144 -128 0
v -144 -112 0
v -128 -112 0
v -112 -128 0
v -128 -128 0
v -128 -112 0
v -112 -112 0
v -96 -128 0
v -112 -128 0
v -112 -112 0
v -96 -112 0
v -80 -128 0
v -96 -128 0
v -96 -112 0
v -80 -112 0
v -64 -128 0
v -80 -128 0
v -80 -112 0
v -64 -112 0
v -48 -128 0
v -64 -128 0
v -64 -112 0
v -48 -112 0
v -32 -128 0
v -48 -128 0
v -48 -112 0
v -32 -112 0
v -16 -128 0
v -32 -128 0
v -32 -112 0
v -16 -112 0
v 0 -128 0
v -16 -128 0
v -16 -112 0
v 0 -112 0
v -240 -144 0
v -256 -144 0
v -256 -128 0
v -240 -128 0
v -224 -144 0
v -240 -144 0
v -240 -128 0
v -224 -128 0
v -208 -144 0
v -224 -144 0
v -224 -128 0
v -208 -128 0
v -192 -144 0
v -208 -144 0
v -208 -128 0
v -192 -128 0
v -176 -144 0
v -192 -144 0
v -192 -128 0
v -176 -128 0
v -160 -144 0
v -176 -144 0
v -176 -128 0
v -160 -128 0
v -144 -144 0
v -160 -144 0
v -160 -128 0
v -144 -128 0
v -128 -144 0
v -144 -144 0
v -144 -128 0
v -128 -128 0
v -112 -144 0
v -128 -144 0
v -128 -128 0
v -112 -128 0
v -96 -144 0
v -112 -144 0
v -112 -128 0
v -96 -128 0
v -80 -144 0
v -96 -144 0
v -96 -128 0
v -80 -128 0
v -64 -144 0
v -80 -144 0
v -80 -128 0
v -64 -128 0
v -48 -144 0
v -64 -144 0
v -64 -128 0
v -48 -128 0
v -32 -144 0
v -48 -144 0
v -48 -128 0
v -32 -128 0
v -16 -144 0
v -32 -144 0
v -32 -128 0
v -16 -128 0
v 0 -144 0
v -16 -144 0
v -16 -128 0
v 0 -128 0
v -240 -160 0
v -256 -160 0
v -256 -144 0
v -240 -144 0
v -224 -160 0
v -240 -160 0
v -240 -144 0
v -224 -144 0
v -208 -160 0
v -224 -160 0
v -224 -144 0
v -208 -144 0
v -192 -160 0
v -208 -160 0
v -208 -144 0
v -192 -144 0
v -176 -160 0
v -192 -160 0
v -192 -144 0
v -176 -144 0
v -160 -160 0
v -176 -160 0
v -176 -144 0
v -160 -144 0
v -144 -160 0
v -160 -160 0
v -160 -144 0
v -144 -144 0
v -128 -160 0
v -144 -160 0
v -144 -144 0
v -128 -144 0
v -112 -160 0
v -128 -160 0
v -128 -144 0
v -112 -144 0
v -96 -160 0
v -112 -160 0
v -112 -144 0
v -96 -144 0
v -80 -160 0
v -96 -160 0
v -96 -144 0
v -80 -144 0
v -64 -160 0
v -80 -160 0
v -80 -144 0
v -64 -144 0
v -48 -160 0
v -64 -160 0
v -64 -144 0
v -48 -144 0
v -32 -160 0
v -48 -160 0
v -48 -144 0
v -32 -144 0
v -16 -160 0
v -32 -160 0
v -32 -144 0
v -16 -144 0
v 0 -160 0
v -16 -160 0
v -16 -144 0
v 0 -144 0
v -240 -176 0
v -256 -176 0
v -256 -160 0
v -240 -160 0
v -224 -176 0
v -240 -176 0
v -240 -160 0
v -224 -160 0
v -208 -176 0
v -224 -176 0
v -224 -160 0
v -208 -160 0
v -192 -176 0
v -208 -176 0
v -208 -160 0
v -192 -160 0
v -176 -176 0
v -192 -176 0
v -192 -160 0
v -176 -160 0
v -160 -176 0
v -176 -176 0
v -176 -160 0
v -160 -160 0
v -144 -176 0
v -160 -176 0
v -160 -160 0
v -144 -160 0
v -128 -176 0
v -144 -176 0
v -144 -160 0
v -128 -160 0
v -112 -176 0
v -128 -176 0
v -128 -160 0
v -112 -160 0
v -96 -176 0
v -112 -176 0
v -112 -160 0
v -96 -160 0
v -80 -176 0
v -96 -176 0
v -96 -160 0
v -80 -160 0
v -64 -176 0
v -80 -176 0
v -80 -160 0
v -64 -160 0
v -48 -176 0
v -64 -176 0
v -64 -160 0
v -48 -160 0
v -32 -176 0
v -48 -176 0
v -48 -160 0
v -32 -160 0
v -16 -176 0
v -32 -176 0
v -32 -160 0
v -16 -160 0
v 0 -176 0
v -16 -176 0
v -16 -160 0
v 0 -160 0
v -240 -192 0
v -256 -192 0
v -256 -176 0
v -240 -176 0
v -224 -192 0
v -240 -192 0
v -240 -176 0
v -224 -176 0
v -208 -192 0
v -224 -192 0
v -224 -176 0
v -208 -176 0
v -192 -192 0
v -208 -192 0
v -208 -176 0
v -192 -176 0
v -176 -192 0
v -192 -192 0
v -192 -176 0
v -176 -176 0
v -160 -192 0
v -176 -192 0
v -176 -176 0
v -160 -176 0
v -144 -192 0
v -160 -192 0
v -160 -176 0
v -144 -176 0
v -128 -192 0
v -144 -192 0
v -144 -176 0
v -128 -176 0
v -112 -192 0
v -128 -192 0
v -128 -176 0
v -112 -176 0
v -96 -192 0
v -112 -192 0
v -112 -176 0
v -96 -176 0
v -80 -192 0
v -96 -192 0
v -96 -176 0
v -80 -176 0
v -64 -192 0
v -80 -192 0
v -80 -176 0
v -64 -176 0
v -48 -192 0
v -64 -192 0
v -64 -176 0
v -48 -176 0
v -32 -192 0
v -48 -192 0
v -48 -176 0
v -32 -176 0
v -16 -192 0
v -32 -192 0
v -32 -176 0
v -16 -176 0
v 0 -192 0
v -16 -192 0
v -16 -176 0
v 0 -176 0
v -240 -208 0
v -256 -208 0
v -256 -192 0
v -240 -192 0
v -224 -208 0
v -240 -208 0
v -240 -192 0
v -224 -192 0
v -208 -208 0
v -224 -208 0
v -224 -192 0
v -208 -192 0
v -192 -208 0
v -208 -208 0
v -208 -192 0
v -192 -192 0
v -176 -208 0
v -192 -208 0
v -192 -192 0
v -176 -192 0
v -160 -208 0
v -176 -208 0
v -176 -192 0
v -160 -192 0
v -144 -208 0
v -160 -208 0
v -160 -192 0
v -144 -192 0
v -128 -208 0
v -144 -208 0
v -144 -192 0
v -128 -192 0
v -112 -208 0
v -128 -208 0
v -128 -192 0
v -112 -192 0
v -96 -208 0
v -112 -208 0
v -112 -192 0
v -96 -192 0
v -80 -208 0
v -96 -208 0
v -96 -192 0
v -80 -192 0
v -64 -208 0
v -80 -208 0
v -80 -192 0
v -64 -192 0
v -48 -208 0
v -64 -208 0
v -64 -192 0
v -48 -192 0
v -32 -208 0
v -48 -208 0
v -48 -192 0
v -32 -192 0
v -16 -208 0
v -32 -208 0
v -32 -192 0
v -16 -192 0
v 0 -208 0
v -16 -208 0
v -16 -192 0
v 0 -192 0
v -240 -224 0
v -256 -224 0
v -256 -208 0
v -240 -208 0
v -224 -224 0
v -240 -224 0
v -240 -208 0
v -224 -208 0
v -208 -224 0
v -224 -224 0
v -224 -208 0
v -208 -208 0
v -192 -224 0
v -208 -224 0
v -208 -208 0
v -192 -208 0
v -176 -224 0
v -192 -224 0
v -192 -208 0
v -176 -208 0
v -160 -224 0
v -176 -224 0
v -176 -208 0
v -160 -208 0
v -144 -224 0
v -160 -224 0
v -160 -208 0
v -144 -208 0
v -128 -224 0
v -144 -224 0
v -144 -208 0
v -128 -208 0
v -112 -224 0
v -128 -224 0
v -128 -208 0
v -112 -208 0
v -96 -224 0
v -112 -224 0
v -112 -208 0
v -96 -208 0
v -80 -224 0
v -96 -224 0
v -96 -208 0
v -80 -208 0
v -64 -224 0
v -80 -224 0
v -80 -208 0
v -64 -208 0
v -48 -224 0
v -64 -224 0
v -64 -208 0
v -48 -208 0
v -32 -224 0
v -48 -224 0
v -48 -208 0
v -32 -208 0
v -16 -224 0
v -32 -224 0
v -32 -208 0
v -16 -208 0
v 0 -224 0
v -16 -224 0
v -16 -208 0
v 0 -208 0
v -240 -240 0
v -256 -240 0
v -256 -224 0
v -240 -224 0
v -224 -240 0
v -240 -240 0
v -240 -224 0
v -224 -224 0
v -208 -240 0
v -224 -240 0
v -224 -224 0
v -208 -224 0
v -192 -240 0
v -208 -240 0
v -208 -224 0
v -192 -224 0
v -176 -240 0
v -192 -240 0
v -192 -224 0
v -176 -224 0
v -160 -240 0
v -176 -240 0
v -176 -224 0
v -160 -224 0
v -144 -240 0
v -160 -240 0
v -160 -224 0
v -144 -224 0
v -128 -240 0
v -144 -240 0
v -144 -224 0
v -128 -224 0
v -112 -240 0
v -128 -240 0
v -128 -224 0
v -112 -224 0
v -96 -240 0
v -112 -240 0
v -112 -224 0
v -96 -224 0
v -80 -240 0
v -96 -240 0
v -96 -224 0
v -80 -224 0
v -64 -240 0
v -80 -240 0
v -80 -224 0
v -64 -224 0
v -48 -240 0
v -64 -240 0
v -64 -224 0
v -48 -224 0
v -32 -240 0
v -48 -240 0
v -48 -224 0
v -32 -224 0
v -16 -240 0
v -32 -240 0
v -32 -224 0
v -16 -224 0
v 0 -240 0
v -16 -240 0
v -16 -224 0
v 0 -224 0
v -240 -256 0
v -256 -256 0
v -256 -240 0
v -240 -240 0
v -224 -256 0
v -240 -256 0
v -240 -240 0
v -224 -240 0
v -208 -256 0
v -224 -256 0
v -224 -240 0
v -208 -240 0
v -192 -256 0
v -208 -256 0
v -208 -240 0
v -192 -240 0
v -176 -256 0
v -192 -256 0
v -192 -240 0
v -176 -240 0
v -160 -256 0
v -176 -256 0
v -176 -240 0
v -160 -240 0
v -144 -256 0
v -160 -256 0
v -160 -240 0
v -144 -240 0
v -128 -256 0
v -144 -256 0
v -144 -240 0
v -128 -240 0
v -112 -256 0
v -128 -256 0
v -128 -240 0
v -112 -240 0
v -96 -256 0
v -112 -256 0
v -112 -240 0
v -96 -240 0
v -80 -256 0
v -96 -256 0
v -96 -240 0
v -80 -240 0
v -64 -256 0
v -80 -256 0
v -80 -240 0
v -64 -240 0
v -48 -256 0
v -64 -256 0
v -64 -240 0
v -48 -240 0
v -32 -256 0
v -48 -256 0
v -48 -240 0
v -32 -240 0
v -16 -256 0
v -32 -256 0
v -32 -240 0
v -16 -240 0
v 0 -256 0
v -16 -256 0
v -16 -240 0
v 0 -240 0

# Texture cooridinates (Count = 9)
vt 0.175 0.6944444
vt 0.2 0.6944444
vt 0.2 0.7222222
vt 0.175 0.7222222
vt 0.225 0.7222222
vt 0.225 0.75
vt 0.2 0.75
vt 0.225 0.6944444
vt 0.175 0.75

# Normal
vn 0 0 -1

# Mesh description
g Village_mesh_0029

# Faces
f 1/1/1 2/2/1 3/3/1 4/4/1
f 5/3/1 6/5/1 7/6/1 8/7/1
f 9/2/1 10/8/1 11/5/1 12/3/1
f 13/1/1 14/2/1 15/3/1 16/4/1
f 17/1/1 18/2/1 19/3/1 20/4/1
f 21/2/1 22/8/1 23/5/1 24/3/1
f 25/4/1 26/3/1 27/7/1 28/9/1
f 29/3/1 30/5/1 31/6/1 32/7/1
f 33/4/1 34/3/1 35/7/1 36/9/1
f 37/3/1 38/5/1 39/6/1 40/7/1
f 41/4/1 42/3/1 43/7/1 44/9/1
f 45/2/1 46/8/1 47/5/1 48/3/1
f 49/4/1 50/3/1 51/7/1 52/9/1
f 53/3/1 54/5/1 55/6/1 56/7/1
f 57/4/1 58/3/1 59/7/1 60/9/1
f 61/1/1 62/2/1 63/3/1 64/4/1
f 65/4/1 66/3/1 67/7/1 68/9/1
f 69/4/1 70/3/1 71/7/1 72/9/1
f 73/3/1 74/5/1 75/6/1 76/7/1
f 77/1/1 78/2/1 79/3/1 80/4/1
f 81/2/1 82/8/1 83/5/1 84/3/1
f 85/3/1 86/5/1 87/6/1 88/7/1
f 89/3/1 90/5/1 91/6/1 92/7/1
f 93/2/1 94/8/1 95/5/1 96/3/1
f 97/1/1 98/2/1 99/3/1 100/4/1
f 101/1/1 102/2/1 103/3/1 104/4/1
f 105/1/1 106/2/1 107/3/1 108/4/1
f 109/3/1 110/5/1 111/6/1 112/7/1
f 113/3/1 114/5/1 115/6/1 116/7/1
f 117/2/1 118/8/1 119/5/1 120/3/1
f 121/4/1 122/3/1 123/7/1 124/9/1
f 125/3/1 126/5/1 127/6/1 128/7/1
f 129/3/1 130/5/1 131/6/1 132/7/1
f 133/2/1 134/8/1 135/5/1 136/3/1
f 137/3/1 138/5/1 139/6/1 140/7/1
f 141/3/1 142/5/1 143/6/1 144/7/1
f 145/2/1 146/8/1 147/5/1 148/3/1
f 149/2/1 150/8/1 151/5/1 152/3/1
f 153/1/1 154/2/1 155/3/1 156/4/1
f 157/1/1 158/2/1 159/3/1 160/4/1
f 161/3/1 162/5/1 163/6/1 164/7/1
f 165/1/1 166/2/1 167/3/1 168/4/1
f 169/4/1 170/3/1 171/7/1 172/9/1
f 173/4/1 174/3/1 175/7/1 176/9/1
f 177/2/1 178/8/1 179/5/1 180/3/1
f 181/3/1 182/5/1 183/6/1 184/7/1
f 185/1/1 186/2/1 187/3/1 188/4/1
f 189/4/1 190/3/1 191/7/1 192/9/1
f 193/1/1 194/2/1 195/3/1 196/4/1
f 197/3/1 198/5/1 199/6/1 200/7/1
f 201/1/1 202/2/1 203/3/1 204/4/1
f 205/1/1 206/2/1 207/3/1 208/4/1
f 209/4/1 210/3/1 211/7/1 212/9/1
f 213/4/1 214/3/1 215/7/1 216/9/1
f 217/3/1 218/5/1 219/6/1 220/7/1
f 221/3/1 222/5/1 223/6/1 224/7/1
f 225/2/1 226/8/1 227/5/1 228/3/1
f 229/3/1 230/5/1 231/6/1 232/7/1
f 233/2/1 234/8/1 235/5/1 236/3/1
f 237/1/1 238/2/1 239/3/1 240/4/1
f 241/4/1 242/3/1 243/7/1 244/9/1
f 245/1/1 246/2/1 247/3/1 248/4/1
f 249/4/1 250/3/1 251/7/1 252/9/1
f 253/2/1 254/8/1 255/5/1 256/3/1
f 257/3/1 258/5/1 259/6/1 260/7/1
f 261/3/1 262/5/1 263/6/1 264/7/1
f 265/3/1 266/5/1 267/6/1 268/7/1
f 269/4/1 270/3/1 271/7/1 272/9/1
f 273/2/1 274/8/1 275/5/1 276/3/1
f 277/1/1 278/2/1 279/3/1 280/4/1
f 281/1/1 282/2/1 283/3/1 284/4/1
f 285/3/1 286/5/1 287/6/1 288/7/1
f 289/4/1 290/3/1 291/7/1 292/9/1
f 293/2/1 294/8/1 295/5/1 296/3/1
f 297/3/1 298/5/1 299/6/1 300/7/1
f 301/2/1 302/8/1 303/5/1 304/3/1
f 305/1/1 306/2/1 307/3/1 308/4/1
f 309/4/1 310/3/1 311/7/1 312/9/1
f 313/3/1 314/5/1 315/6/1 316/7/1
f 317/1/1 318/2/1 319/3/1 320/4/1
f 321/1/1 322/2/1 323/3/1 324/4/1
f 325/4/1 326/3/1 327/7/1 328/9/1
f 329/2/1 330/8/1 331/5/1 332/3/1
f 333/3/1 334/5/1 335/6/1 336/7/1
f 337/2/1 338/8/1 339/5/1 340/3/1
f 341/1/1 342/2/1 343/3/1 344/4/1
f 345/2/1 346/8/1 347/5/1 348/3/1
f 349/4/1 350/3/1 351/7/1 352/9/1
f 353/1/1 354/2/1 355/3/1 356/4/1
f 357/3/1 358/5/1 359/6/1 360/7/1
f 361/1/1 362/2/1 363/3/1 364/4/1
f 365/2/1 366/8/1 367/5/1 368/3/1
f 369/4/1 370/3/1 371/7/1 372/9/1
f 373/2/1 374/8/1 375/5/1 376/3/1
f 377/4/1 378/3/1 379/7/1 380/9/1
f 381/3/1 382/5/1 383/6/1 384/7/1
f 385/1/1 386/2/1 387/3/1 388/4/1
f 389/4/1 390/3/1 391/7/1 392/9/1
f 393/4/1 394/3/1 395/7/1 396/9/1
f 397/3/1 398/5/1 399/6/1 400/7/1
f 401/4/1 402/3/1 403/7/1 404/9/1
f 405/2/1 406/8/1 407/5/1 408/3/1
f 409/4/1 410/3/1 411/7/1 412/9/1
f 413/1/1 414/2/1 415/3/1 416/4/1
f 417/2/1 418/8/1 419/5/1 420/3/1
f 421/4/1 422/3/1 423/7/1 424/9/1
f 425/1/1 426/2/1 427/3/1 428/4/1
f 429/4/1 430/3/1 431/7/1 432/9/1
f 433/1/1 434/2/1 435/3/1 436/4/1
f 437/3/1 438/5/1 439/6/1 440/7/1
f 441/1/1 442/2/1 443/3/1 444/4/1
f 445/3/1 446/5/1 447/6/1 448/7/1
f 449/4/1 450/3/1 451/7/1 452/9/1
f 453/1/1 454/2/1 455/3/1 456/4/1
f 457/3/1 458/5/1 459/6/1 460/7/1
f 461/2/1 462/8/1 463/5/1 464/3/1
f 465/1/1 466/2/1 467/3/1 468/4/1
f 469/1/1 470/2/1 471/3/1 472/4/1
f 473/2/1 474/8/1 475/5/1 476/3/1
f 477/4/1 478/3/1 479/7/1 480/9/1
f 481/3/1 482/5/1 483/6/1 484/7/1
f 485/2/1 486/8/1 487/5/1 488/3/1
f 489/4/1 490/3/1 491/7/1 492/9/1
f 493/4/1 494/3/1 495/7/1 496/9/1
f 497/1/1 498/2/1 499/3/1 500/4/1
f 501/3/1 502/5/1 503/6/1 504/7/1
f 505/2/1 506/8/1 507/5/1 508/3/1
f 509/3/1 510/5/1 511/6/1 512/7/1
f 513/2/1 514/8/1 515/5/1 516/3/1
f 517/4/1 518/3/1 519/7/1 520/9/1
f 521/3/1 522/5/1 523/6/1 524/7/1
f 525/2/1 526/8/1 527/5/1 528/3/1
f 529/1/1 530/2/1 531/3/1 532/4/1
f 533/1/1 534/2/1 535/3/1 536/4/1
f 537/4/1 538/3/1 539/7/1 540/9/1
f 541/3/1 542/5/1 543/6/1 544/7/1
f 545/4/1 546/3/1 547/7/1 548/9/1
f 549/2/1 550/8/1 551/5/1 552/3/1
f 553/1/1 554/2/1 555/3/1 556/4/1
f 557/4/1 558/3/1 559/7/1 560/9/1
f 561/2/1 562/8/1 563/5/1 564/3/1
f 565/1/1 566/2/1 567/3/1 568/4/1
f 569/3/1 570/5/1 571/6/1 572/7/1
f 573/1/1 574/2/1 575/3/1 576/4/1
f 577/3/1 578/5/1 579/6/1 580/7/1
f 581/2/1 582/8/1 583/5/1 584/3/1
f 585/1/1 586/2/1 587/3/1 588/4/1
f 589/1/1 590/2/1 591/3/1 592/4/1
f 593/1/1 594/2/1 595/3/1 596/4/1
f 597/4/1 598/3/1 599/7/1 600/9/1
f 601/3/1 602/5/1 603/6/1 604/7/1
f 605/1/1 606/2/1 607/3/1 608/4/1
f 609/2/1 610/8/1 611/5/1 612/3/1
f 613/2/1 614/8/1 615/5/1 616/3/1
f 617/4/1 618/3/1 619/7/1 620/9/1
f 621/1/1 622/2/1 623/3/1 624/4/1
f 625/3/1 626/5/1 627/6/1 628/7/1
f 629/4/1 630/3/1 631/7/1 632/9/1
f 633/1/1 634/2/1 635/3/1 636/4/1
f 637/1/1 638/2/1 639/3/1 640/4/1
f 641/2/1 642/8/1 643/5/1 644/3/1
f 645/3/1 646/5/1 647/6/1 648/7/1
f 649/2/1 650/8/1 651/5/1 652/3/1
f 653/1/1 654/2/1 655/3/1 656/4/1
f 657/3/1 658/5/1 659/6/1 660/7/1
f 661/4/1 662/3/1 663/7/1 664/9/1
f 665/1/1 666/2/1 667/3/1 668/4/1
f 669/4/1 670/3/1 671/7/1 672/9/1
f 673/3/1 674/5/1 675/6/1 676/7/1
f 677/4/1 678/3/1 679/7/1 680/9/1
f 681/1/1 682/2/1 683/3/1 684/4/1
f 685/4/1 686/3/1 687/7/1 688/9/1
f 689/1/1 690/2/1 691/3/1 692/4/1
f 693/1/1 694/2/1 695/3/1 696/4/1
f 697/4/1 698/3/1 699/7/1 700/9/1
f 701/2/1 702/8/1 703/5/1 704/3/1
f 705/3/1 706/5/1 707/6/1 708/7/1
f 709/2/1 710/8/1 711/5/1 712/3/1
f 713/4/1 714/3/1 715/7/1 716/9/1
f 717/2/1 718/8/1 719/5/1 720/3/1
f 721/4/1 722/3/1 723/7/1 724/9/1
f 725/4/1 726/3/1 727/7/1 728/9/1
f 729/3/1 730/5/1 731/6/1 732/7/1
f 733/3/1 734/5/1 735/6/1 736/7/1
f 737/4/1 738/3/1 739/7/1 740/9/1
f 741/1/1 742/2/1 743/3/1 744/4/1
f 745/3/1 746/5/1 747/6/1 748/7/1
f 749/4/1 750/3/1 751/7/1 752/9/1
f 753/1/1 754/2/1 755/3/1 756/4/1
f 757/2/1 758/8/1 759/5/1 760/3/1
f 761/1/1 762/2/1 763/3/1 764/4/1
f 765/4/1 766/3/1 767/7/1 768/9/1
f 769/2/1 770/8/1 771/5/1 772/3/1
f 773/3/1 774/5/1 775/6/1 776/7/1
f 777/4/1 778/3/1 779/7/1 780/9/1
f 781/1/1 782/2/1 783/3/1 784/4/1
f 785/2/1 786/8/1 787/5/1 788/3/1
f 789/1/1 790/2/1 791/3/1 792/4/1
f 793/1/1 794/2/1 795/3/1 796/4/1
f 797/3/1 798/5/1 799/6/1 800/7/1
f 801/3/1 802/5/1 803/6/1 804/7/1
f 805/1/1 806/2/1 807/3/1 808/4/1
f 809/1/1 810/2/1 811/3/1 812/4/1
f 813/4/1 814/3/1 815/7/1 816/9/1
f 817/2/1 818/8/1 819/5/1 820/3/1
f 821/4/1 822/3/1 823/7/1 824/9/1
f 825/3/1 826/5/1 827/6/1 828/7/1
f 829/3/1 830/5/1 831/6/1 832/7/1
f 833/3/1 834/5/1 835/6/1 836/7/1
f 837/3/1 838/5/1 839/6/1 840/7/1
f 841/3/1 842/5/1 843/6/1 844/7/1
f 845/1/1 846/2/1 847/3/1 848/4/1
f 849/2/1 850/8/1 851/5/1 852/3/1
f 853/3/1 854/5/1 855/6/1 856/7/1
f 857/1/1 858/2/1 859/3/1 860/4/1
f 861/2/1 862/8/1 863/5/1 864/3/1
f 865/2/1 866/8/1 867/5/1 868/3/1
f 869/3/1 870/5/1 871/6/1 872/7/1
f 873/2/1 874/8/1 875/5/1 876/3/1
f 877/2/1 878/8/1 879/5/1 880/3/1
f 881/3/1 882/5/1 883/6/1 884/7/1
f 885/1/1 886/2/1 887/3/1 888/4/1
f 889/4/1 890/3/1 891/7/1 892/9/1
f 893/1/1 894/2/1 895/3/1 896/4/1
f 897/2/1 898/8/1 899/5/1 900/3/1
f 901/4/1 902/3/1 903/7/1 904/9/1
f 905/4/1 906/3/1 907/7/1 908/9/1
f 909/4/1 910/3/1 911/7/1 912/9/1
f 913/4/1 914/3/1 915/7/1 916/9/1
f 917/2/1 918/8/1 919/5/1 920/3/1
f 921/4/1 922/3/1 923/7/1 924/9/1
f 925/3/1 926/5/1 927/6/1 928/7/1
f 929/2/1 930/8/1 931/5/1 932/3/1
f 933/2/1 934/8/1 935/5/1 936/3/1
f 937/4/1 938/3/1 939/7/1 940/9/1
f 941/3/1 942/5/1 943/6/1 944/7/1
f 945/4/1 946/3/1 947/7/1 948/9/1
f 949/4/1 950/3/1 951/7/1 952/9/1
f 953/1/1 954/2/1 955/3/1 956/4/1
f 957/4/1 958/3/1 959/7/1 960/9/1
f 961/1/1 962/2/1 963/3/1 964/4/1
f 965/4/1 966/3/1 967/7/1 968/9/1
f 969/1/1 970/2/1 971/3/1 972/4/1
f 973/4/1 974/3/1 975/7/1 976/9/1
f 977/1/1 978/2/1 979/3/1 980/4/1
f 981/1/1 982/2/1 983/3/1 984/4/1
f 985/2/1 986/8/1 987/5/1 988/3/1
f 989/3/1 990/5/1 991/6/1 992/7/1
f 993/1/1 994/2/1 995/3/1 996/4/1
f 997/2/1 998/8/1 999/5/1 1000/3/1
f 1001/2/1 1002/8/1 1003/5/1 1004/3/1
f 1005/4/1 1006/3/1 1007/7/1 1008/9/1
f 1009/2/1 1010/8/1 1011/5/1 1012/3/1
f 1013/4/1 1014/3/1 1015/7/1 1016/9/1
f 1017/4/1 1018/3/1 1019/7/1 1020/9/1
f 1021/3/1 1022/5/1 1023/6/1 1024/7/1

