# Tiled2Unity generated file. Do not modify by hand.
# Wavefront file for 'Village_mesh_0121.obj'

# Vertices (Count = 64)
v -208 -16 0
v -224 -16 0
v -224 0 0
v -208 0 0
v -192 -16 0
v -208 -16 0
v -208 0 0
v -192 0 0
v -192 -32 0
v -208 -32 0
v -208 -16 0
v -192 -16 0
v -176 -32 0
v -192 -32 0
v -192 -16 0
v -176 -16 0
v -192 -48 0
v -208 -48 0
v -208 -32 0
v -192 -32 0
v -176 -48 0
v -192 -48 0
v -192 -32 0
v -176 -32 0
v -144 -64 0
v -160 -64 0
v -160 -48 0
v -144 -48 0
v -128 -64 0
v -144 -64 0
v -144 -48 0
v -128 -48 0
v -144 -80 0
v -160 -80 0
v -160 -64 0
v -144 -64 0
v -128 -80 0
v -144 -80 0
v -144 -64 0
v -128 -64 0
v -224 -176 0
v -240 -176 0
v -240 -160 0
v -224 -160 0
v -208 -176 0
v -224 -176 0
v -224 -160 0
v -208 -160 0
v -224 -192 0
v -240 -192 0
v -240 -176 0
v -224 -176 0
v -208 -192 0
v -224 -192 0
v -224 -176 0
v -208 -176 0
v -192 -256 0
v -208 -256 0
v -208 -240 0
v -192 -240 0
v -176 -256 0
v -192 -256 0
v -192 -240 0
v -176 -240 0

# Texture cooridinates (Count = 18)
vt 0.25 0.6388889
vt 0.275 0.6388889
vt 0.275 0.6666666
vt 0.25 0.6666666
vt 0.225 0.6388889
vt 0.225 0.6666666
vt 0.275 0.6944444
vt 0.25 0.6944444
vt 0.225 0.6944444
vt 0.15 0.5277778
vt 0.175 0.5277778
vt 0.175 0.5555556
vt 0.15 0.5555556
vt 0.125 0.5277778
vt 0.125 0.5555556
vt 0.15 0.5
vt 0.175 0.5
vt 0.125 0.5

# Normal
vn 0 0 -1

# Mesh description
g Village_mesh_0121

# Faces
f 1/1/1 2/2/1 3/3/1 4/4/1
f 5/5/1 6/1/1 7/4/1 8/6/1
f 9/4/1 10/3/1 11/7/1 12/8/1
f 13/6/1 14/4/1 15/8/1 16/9/1
f 17/1/1 18/2/1 19/3/1 20/4/1
f 21/5/1 22/1/1 23/4/1 24/6/1
f 25/10/1 26/11/1 27/12/1 28/13/1
f 29/14/1 30/10/1 31/13/1 32/15/1
f 33/16/1 34/17/1 35/11/1 36/10/1
f 37/18/1 38/16/1 39/10/1 40/14/1
f 41/4/1 42/3/1 43/7/1 44/8/1
f 45/6/1 46/4/1 47/8/1 48/9/1
f 49/1/1 50/2/1 51/3/1 52/4/1
f 53/5/1 54/1/1 55/4/1 56/6/1
f 57/4/1 58/3/1 59/7/1 60/8/1
f 61/6/1 62/4/1 63/8/1 64/9/1

