# Tiled2Unity generated file. Do not modify by hand.
# Wavefront file for 'Village_mesh_0002.obj'

# Vertices (Count = 1024)
v -240 -16 0
v -256 -16 0
v -256 0 0
v -240 0 0
v -224 -16 0
v -240 -16 0
v -240 0 0
v -224 0 0
v -208 -16 0
v -224 -16 0
v -224 0 0
v -208 0 0
v -192 -16 0
v -208 -16 0
v -208 0 0
v -192 0 0
v -176 -16 0
v -192 -16 0
v -192 0 0
v -176 0 0
v -160 -16 0
v -176 -16 0
v -176 0 0
v -160 0 0
v -144 -16 0
v -160 -16 0
v -160 0 0
v -144 0 0
v -128 -16 0
v -144 -16 0
v -144 0 0
v -128 0 0
v -112 -16 0
v -128 -16 0
v -128 0 0
v -112 0 0
v -96 -16 0
v -112 -16 0
v -112 0 0
v -96 0 0
v -80 -16 0
v -96 -16 0
v -96 0 0
v -80 0 0
v -64 -16 0
v -80 -16 0
v -80 0 0
v -64 0 0
v -48 -16 0
v -64 -16 0
v -64 0 0
v -48 0 0
v -32 -16 0
v -48 -16 0
v -48 0 0
v -32 0 0
v -16 -16 0
v -32 -16 0
v -32 0 0
v -16 0 0
v 0 -16 0
v -16 -16 0
v -16 0 0
v 0 0 0
v -240 -32 0
v -256 -32 0
v -256 -16 0
v -240 -16 0
v -224 -32 0
v -240 -32 0
v -240 -16 0
v -224 -16 0
v -208 -32 0
v -224 -32 0
v -224 -16 0
v -208 -16 0
v -192 -32 0
v -208 -32 0
v -208 -16 0
v -192 -16 0
v -176 -32 0
v -192 -32 0
v -192 -16 0
v -176 -16 0
v -160 -32 0
v -176 -32 0
v -176 -16 0
v -160 -16 0
v -144 -32 0
v -160 -32 0
v -160 -16 0
v -144 -16 0
v -128 -32 0
v -144 -32 0
v -144 -16 0
v -128 -16 0
v -112 -32 0
v -128 -32 0
v -128 -16 0
v -112 -16 0
v -96 -32 0
v -112 -32 0
v -112 -16 0
v -96 -16 0
v -80 -32 0
v -96 -32 0
v -96 -16 0
v -80 -16 0
v -64 -32 0
v -80 -32 0
v -80 -16 0
v -64 -16 0
v -48 -32 0
v -64 -32 0
v -64 -16 0
v -48 -16 0
v -32 -32 0
v -48 -32 0
v -48 -16 0
v -32 -16 0
v -16 -32 0
v -32 -32 0
v -32 -16 0
v -16 -16 0
v 0 -32 0
v -16 -32 0
v -16 -16 0
v 0 -16 0
v -240 -48 0
v -256 -48 0
v -256 -32 0
v -240 -32 0
v -224 -48 0
v -240 -48 0
v -240 -32 0
v -224 -32 0
v -208 -48 0
v -224 -48 0
v -224 -32 0
v -208 -32 0
v -192 -48 0
v -208 -48 0
v -208 -32 0
v -192 -32 0
v -176 -48 0
v -192 -48 0
v -192 -32 0
v -176 -32 0
v -160 -48 0
v -176 -48 0
v -176 -32 0
v -160 -32 0
v -144 -48 0
v -160 -48 0
v -160 -32 0
v -144 -32 0
v -128 -48 0
v -144 -48 0
v -144 -32 0
v -128 -32 0
v -112 -48 0
v -128 -48 0
v -128 -32 0
v -112 -32 0
v -96 -48 0
v -112 -48 0
v -112 -32 0
v -96 -32 0
v -80 -48 0
v -96 -48 0
v -96 -32 0
v -80 -32 0
v -64 -48 0
v -80 -48 0
v -80 -32 0
v -64 -32 0
v -48 -48 0
v -64 -48 0
v -64 -32 0
v -48 -32 0
v -32 -48 0
v -48 -48 0
v -48 -32 0
v -32 -32 0
v -16 -48 0
v -32 -48 0
v -32 -32 0
v -16 -32 0
v 0 -48 0
v -16 -48 0
v -16 -32 0
v 0 -32 0
v -240 -64 0
v -256 -64 0
v -256 -48 0
v -240 -48 0
v -224 -64 0
v -240 -64 0
v -240 -48 0
v -224 -48 0
v -208 -64 0
v -224 -64 0
v -224 -48 0
v -208 -48 0
v -192 -64 0
v -208 -64 0
v -208 -48 0
v -192 -48 0
v -176 -64 0
v -192 -64 0
v -192 -48 0
v -176 -48 0
v -160 -64 0
v -176 -64 0
v -176 -48 0
v -160 -48 0
v -144 -64 0
v -160 -64 0
v -160 -48 0
v -144 -48 0
v -128 -64 0
v -144 -64 0
v -144 -48 0
v -128 -48 0
v -112 -64 0
v -128 -64 0
v -128 -48 0
v -112 -48 0
v -96 -64 0
v -112 -64 0
v -112 -48 0
v -96 -48 0
v -80 -64 0
v -96 -64 0
v -96 -48 0
v -80 -48 0
v -64 -64 0
v -80 -64 0
v -80 -48 0
v -64 -48 0
v -48 -64 0
v -64 -64 0
v -64 -48 0
v -48 -48 0
v -32 -64 0
v -48 -64 0
v -48 -48 0
v -32 -48 0
v -16 -64 0
v -32 -64 0
v -32 -48 0
v -16 -48 0
v 0 -64 0
v -16 -64 0
v -16 -48 0
v 0 -48 0
v -240 -80 0
v -256 -80 0
v -256 -64 0
v -240 -64 0
v -224 -80 0
v -240 -80 0
v -240 -64 0
v -224 -64 0
v -208 -80 0
v -224 -80 0
v -224 -64 0
v -208 -64 0
v -192 -80 0
v -208 -80 0
v -208 -64 0
v -192 -64 0
v -176 -80 0
v -192 -80 0
v -192 -64 0
v -176 -64 0
v -160 -80 0
v -176 -80 0
v -176 -64 0
v -160 -64 0
v -144 -80 0
v -160 -80 0
v -160 -64 0
v -144 -64 0
v -128 -80 0
v -144 -80 0
v -144 -64 0
v -128 -64 0
v -112 -80 0
v -128 -80 0
v -128 -64 0
v -112 -64 0
v -96 -80 0
v -112 -80 0
v -112 -64 0
v -96 -64 0
v -80 -80 0
v -96 -80 0
v -96 -64 0
v -80 -64 0
v -64 -80 0
v -80 -80 0
v -80 -64 0
v -64 -64 0
v -48 -80 0
v -64 -80 0
v -64 -64 0
v -48 -64 0
v -32 -80 0
v -48 -80 0
v -48 -64 0
v -32 -64 0
v -16 -80 0
v -32 -80 0
v -32 -64 0
v -16 -64 0
v 0 -80 0
v -16 -80 0
v -16 -64 0
v 0 -64 0
v -240 -96 0
v -256 -96 0
v -256 -80 0
v -240 -80 0
v -224 -96 0
v -240 -96 0
v -240 -80 0
v -224 -80 0
v -208 -96 0
v -224 -96 0
v -224 -80 0
v -208 -80 0
v -192 -96 0
v -208 -96 0
v -208 -80 0
v -192 -80 0
v -176 -96 0
v -192 -96 0
v -192 -80 0
v -176 -80 0
v -160 -96 0
v -176 -96 0
v -176 -80 0
v -160 -80 0
v -144 -96 0
v -160 -96 0
v -160 -80 0
v -144 -80 0
v -128 -96 0
v -144 -96 0
v -144 -80 0
v -128 -80 0
v -112 -96 0
v -128 -96 0
v -128 -80 0
v -112 -80 0
v -96 -96 0
v -112 -96 0
v -112 -80 0
v -96 -80 0
v -80 -96 0
v -96 -96 0
v -96 -80 0
v -80 -80 0
v -64 -96 0
v -80 -96 0
v -80 -80 0
v -64 -80 0
v -48 -96 0
v -64 -96 0
v -64 -80 0
v -48 -80 0
v -32 -96 0
v -48 -96 0
v -48 -80 0
v -32 -80 0
v -16 -96 0
v -32 -96 0
v -32 -80 0
v -16 -80 0
v 0 -96 0
v -16 -96 0
v -16 -80 0
v 0 -80 0
v -240 -112 0
v -256 -112 0
v -256 -96 0
v -240 -96 0
v -224 -112 0
v -240 -112 0
v -240 -96 0
v -224 -96 0
v -208 -112 0
v -224 -112 0
v -224 -96 0
v -208 -96 0
v -192 -112 0
v -208 -112 0
v -208 -96 0
v -192 -96 0
v -176 -112 0
v -192 -112 0
v -192 -96 0
v -176 -96 0
v -160 -112 0
v -176 -112 0
v -176 -96 0
v -160 -96 0
v -144 -112 0
v -160 -112 0
v -160 -96 0
v -144 -96 0
v -128 -112 0
v -144 -112 0
v -144 -96 0
v -128 -96 0
v -112 -112 0
v -128 -112 0
v -128 -96 0
v -112 -96 0
v -96 -112 0
v -112 -112 0
v -112 -96 0
v -96 -96 0
v -80 -112 0
v -96 -112 0
v -96 -96 0
v -80 -96 0
v -64 -112 0
v -80 -112 0
v -80 -96 0
v -64 -96 0
v -48 -112 0
v -64 -112 0
v -64 -96 0
v -48 -96 0
v -32 -112 0
v -48 -112 0
v -48 -96 0
v -32 -96 0
v -16 -112 0
v -32 -112 0
v -32 -96 0
v -16 -96 0
v 0 -112 0
v -16 -112 0
v -16 -96 0
v 0 -96 0
v -240 -128 0
v -256 -128 0
v -256 -112 0
v -240 -112 0
v -224 -128 0
v -240 -128 0
v -240 -112 0
v -224 -112 0
v -208 -128 0
v -224 -128 0
v -224 -112 0
v -208 -112 0
v -192 -128 0
v -208 -128 0
v -208 -112 0
v -192 -112 0
v -176 -128 0
v -192 -128 0
v -192 -112 0
v -176 -112 0
v -160 -128 0
v -176 -128 0
v -176 -112 0
v -160 -112 0
v -144 -128 0
v -160 -128 0
v -160 -112 0
v -144 -112 0
v -128 -128 0
v -144 -128 0
v -144 -112 0
v -128 -112 0
v -112 -128 0
v -128 -128 0
v -128 -112 0
v -112 -112 0
v -96 -128 0
v -112 -128 0
v -112 -112 0
v -96 -112 0
v -80 -128 0
v -96 -128 0
v -96 -112 0
v -80 -112 0
v -64 -128 0
v -80 -128 0
v -80 -112 0
v -64 -112 0
v -48 -128 0
v -64 -128 0
v -64 -112 0
v -48 -112 0
v -32 -128 0
v -48 -128 0
v -48 -112 0
v -32 -112 0
v -16 -128 0
v -32 -128 0
v -32 -112 0
v -16 -112 0
v 0 -128 0
v -16 -128 0
v -16 -112 0
v 0 -112 0
v -240 -144 0
v -256 -144 0
v -256 -128 0
v -240 -128 0
v -224 -144 0
v -240 -144 0
v -240 -128 0
v -224 -128 0
v -208 -144 0
v -224 -144 0
v -224 -128 0
v -208 -128 0
v -192 -144 0
v -208 -144 0
v -208 -128 0
v -192 -128 0
v -176 -144 0
v -192 -144 0
v -192 -128 0
v -176 -128 0
v -160 -144 0
v -176 -144 0
v -176 -128 0
v -160 -128 0
v -144 -144 0
v -160 -144 0
v -160 -128 0
v -144 -128 0
v -128 -144 0
v -144 -144 0
v -144 -128 0
v -128 -128 0
v -112 -144 0
v -128 -144 0
v -128 -128 0
v -112 -128 0
v -96 -144 0
v -112 -144 0
v -112 -128 0
v -96 -128 0
v -80 -144 0
v -96 -144 0
v -96 -128 0
v -80 -128 0
v -64 -144 0
v -80 -144 0
v -80 -128 0
v -64 -128 0
v -48 -144 0
v -64 -144 0
v -64 -128 0
v -48 -128 0
v -32 -144 0
v -48 -144 0
v -48 -128 0
v -32 -128 0
v -16 -144 0
v -32 -144 0
v -32 -128 0
v -16 -128 0
v 0 -144 0
v -16 -144 0
v -16 -128 0
v 0 -128 0
v -240 -160 0
v -256 -160 0
v -256 -144 0
v -240 -144 0
v -224 -160 0
v -240 -160 0
v -240 -144 0
v -224 -144 0
v -208 -160 0
v -224 -160 0
v -224 -144 0
v -208 -144 0
v -192 -160 0
v -208 -160 0
v -208 -144 0
v -192 -144 0
v -176 -160 0
v -192 -160 0
v -192 -144 0
v -176 -144 0
v -160 -160 0
v -176 -160 0
v -176 -144 0
v -160 -144 0
v -144 -160 0
v -160 -160 0
v -160 -144 0
v -144 -144 0
v -128 -160 0
v -144 -160 0
v -144 -144 0
v -128 -144 0
v -112 -160 0
v -128 -160 0
v -128 -144 0
v -112 -144 0
v -96 -160 0
v -112 -160 0
v -112 -144 0
v -96 -144 0
v -80 -160 0
v -96 -160 0
v -96 -144 0
v -80 -144 0
v -64 -160 0
v -80 -160 0
v -80 -144 0
v -64 -144 0
v -48 -160 0
v -64 -160 0
v -64 -144 0
v -48 -144 0
v -32 -160 0
v -48 -160 0
v -48 -144 0
v -32 -144 0
v -16 -160 0
v -32 -160 0
v -32 -144 0
v -16 -144 0
v 0 -160 0
v -16 -160 0
v -16 -144 0
v 0 -144 0
v -240 -176 0
v -256 -176 0
v -256 -160 0
v -240 -160 0
v -224 -176 0
v -240 -176 0
v -240 -160 0
v -224 -160 0
v -208 -176 0
v -224 -176 0
v -224 -160 0
v -208 -160 0
v -192 -176 0
v -208 -176 0
v -208 -160 0
v -192 -160 0
v -176 -176 0
v -192 -176 0
v -192 -160 0
v -176 -160 0
v -160 -176 0
v -176 -176 0
v -176 -160 0
v -160 -160 0
v -144 -176 0
v -160 -176 0
v -160 -160 0
v -144 -160 0
v -128 -176 0
v -144 -176 0
v -144 -160 0
v -128 -160 0
v -112 -176 0
v -128 -176 0
v -128 -160 0
v -112 -160 0
v -96 -176 0
v -112 -176 0
v -112 -160 0
v -96 -160 0
v -80 -176 0
v -96 -176 0
v -96 -160 0
v -80 -160 0
v -64 -176 0
v -80 -176 0
v -80 -160 0
v -64 -160 0
v -48 -176 0
v -64 -176 0
v -64 -160 0
v -48 -160 0
v -32 -176 0
v -48 -176 0
v -48 -160 0
v -32 -160 0
v -16 -176 0
v -32 -176 0
v -32 -160 0
v -16 -160 0
v 0 -176 0
v -16 -176 0
v -16 -160 0
v 0 -160 0
v -240 -192 0
v -256 -192 0
v -256 -176 0
v -240 -176 0
v -224 -192 0
v -240 -192 0
v -240 -176 0
v -224 -176 0
v -208 -192 0
v -224 -192 0
v -224 -176 0
v -208 -176 0
v -192 -192 0
v -208 -192 0
v -208 -176 0
v -192 -176 0
v -176 -192 0
v -192 -192 0
v -192 -176 0
v -176 -176 0
v -160 -192 0
v -176 -192 0
v -176 -176 0
v -160 -176 0
v -144 -192 0
v -160 -192 0
v -160 -176 0
v -144 -176 0
v -128 -192 0
v -144 -192 0
v -144 -176 0
v -128 -176 0
v -112 -192 0
v -128 -192 0
v -128 -176 0
v -112 -176 0
v -96 -192 0
v -112 -192 0
v -112 -176 0
v -96 -176 0
v -80 -192 0
v -96 -192 0
v -96 -176 0
v -80 -176 0
v -64 -192 0
v -80 -192 0
v -80 -176 0
v -64 -176 0
v -48 -192 0
v -64 -192 0
v -64 -176 0
v -48 -176 0
v -32 -192 0
v -48 -192 0
v -48 -176 0
v -32 -176 0
v -16 -192 0
v -32 -192 0
v -32 -176 0
v -16 -176 0
v 0 -192 0
v -16 -192 0
v -16 -176 0
v 0 -176 0
v -240 -208 0
v -256 -208 0
v -256 -192 0
v -240 -192 0
v -224 -208 0
v -240 -208 0
v -240 -192 0
v -224 -192 0
v -208 -208 0
v -224 -208 0
v -224 -192 0
v -208 -192 0
v -192 -208 0
v -208 -208 0
v -208 -192 0
v -192 -192 0
v -176 -208 0
v -192 -208 0
v -192 -192 0
v -176 -192 0
v -160 -208 0
v -176 -208 0
v -176 -192 0
v -160 -192 0
v -144 -208 0
v -160 -208 0
v -160 -192 0
v -144 -192 0
v -128 -208 0
v -144 -208 0
v -144 -192 0
v -128 -192 0
v -112 -208 0
v -128 -208 0
v -128 -192 0
v -112 -192 0
v -96 -208 0
v -112 -208 0
v -112 -192 0
v -96 -192 0
v -80 -208 0
v -96 -208 0
v -96 -192 0
v -80 -192 0
v -64 -208 0
v -80 -208 0
v -80 -192 0
v -64 -192 0
v -48 -208 0
v -64 -208 0
v -64 -192 0
v -48 -192 0
v -32 -208 0
v -48 -208 0
v -48 -192 0
v -32 -192 0
v -16 -208 0
v -32 -208 0
v -32 -192 0
v -16 -192 0
v 0 -208 0
v -16 -208 0
v -16 -192 0
v 0 -192 0
v -240 -224 0
v -256 -224 0
v -256 -208 0
v -240 -208 0
v -224 -224 0
v -240 -224 0
v -240 -208 0
v -224 -208 0
v -208 -224 0
v -224 -224 0
v -224 -208 0
v -208 -208 0
v -192 -224 0
v -208 -224 0
v -208 -208 0
v -192 -208 0
v -176 -224 0
v -192 -224 0
v -192 -208 0
v -176 -208 0
v -160 -224 0
v -176 -224 0
v -176 -208 0
v -160 -208 0
v -144 -224 0
v -160 -224 0
v -160 -208 0
v -144 -208 0
v -128 -224 0
v -144 -224 0
v -144 -208 0
v -128 -208 0
v -112 -224 0
v -128 -224 0
v -128 -208 0
v -112 -208 0
v -96 -224 0
v -112 -224 0
v -112 -208 0
v -96 -208 0
v -80 -224 0
v -96 -224 0
v -96 -208 0
v -80 -208 0
v -64 -224 0
v -80 -224 0
v -80 -208 0
v -64 -208 0
v -48 -224 0
v -64 -224 0
v -64 -208 0
v -48 -208 0
v -32 -224 0
v -48 -224 0
v -48 -208 0
v -32 -208 0
v -16 -224 0
v -32 -224 0
v -32 -208 0
v -16 -208 0
v 0 -224 0
v -16 -224 0
v -16 -208 0
v 0 -208 0
v -240 -240 0
v -256 -240 0
v -256 -224 0
v -240 -224 0
v -224 -240 0
v -240 -240 0
v -240 -224 0
v -224 -224 0
v -208 -240 0
v -224 -240 0
v -224 -224 0
v -208 -224 0
v -192 -240 0
v -208 -240 0
v -208 -224 0
v -192 -224 0
v -176 -240 0
v -192 -240 0
v -192 -224 0
v -176 -224 0
v -160 -240 0
v -176 -240 0
v -176 -224 0
v -160 -224 0
v -144 -240 0
v -160 -240 0
v -160 -224 0
v -144 -224 0
v -128 -240 0
v -144 -240 0
v -144 -224 0
v -128 -224 0
v -112 -240 0
v -128 -240 0
v -128 -224 0
v -112 -224 0
v -96 -240 0
v -112 -240 0
v -112 -224 0
v -96 -224 0
v -80 -240 0
v -96 -240 0
v -96 -224 0
v -80 -224 0
v -64 -240 0
v -80 -240 0
v -80 -224 0
v -64 -224 0
v -48 -240 0
v -64 -240 0
v -64 -224 0
v -48 -224 0
v -32 -240 0
v -48 -240 0
v -48 -224 0
v -32 -224 0
v -16 -240 0
v -32 -240 0
v -32 -224 0
v -16 -224 0
v 0 -240 0
v -16 -240 0
v -16 -224 0
v 0 -224 0
v -240 -256 0
v -256 -256 0
v -256 -240 0
v -240 -240 0
v -224 -256 0
v -240 -256 0
v -240 -240 0
v -224 -240 0
v -208 -256 0
v -224 -256 0
v -224 -240 0
v -208 -240 0
v -192 -256 0
v -208 -256 0
v -208 -240 0
v -192 -240 0
v -176 -256 0
v -192 -256 0
v -192 -240 0
v -176 -240 0
v -160 -256 0
v -176 -256 0
v -176 -240 0
v -160 -240 0
v -144 -256 0
v -160 -256 0
v -160 -240 0
v -144 -240 0
v -128 -256 0
v -144 -256 0
v -144 -240 0
v -128 -240 0
v -112 -256 0
v -128 -256 0
v -128 -240 0
v -112 -240 0
v -96 -256 0
v -112 -256 0
v -112 -240 0
v -96 -240 0
v -80 -256 0
v -96 -256 0
v -96 -240 0
v -80 -240 0
v -64 -256 0
v -80 -256 0
v -80 -240 0
v -64 -240 0
v -48 -256 0
v -64 -256 0
v -64 -240 0
v -48 -240 0
v -32 -256 0
v -48 -256 0
v -48 -240 0
v -32 -240 0
v -16 -256 0
v -32 -256 0
v -32 -240 0
v -16 -240 0
v 0 -256 0
v -16 -256 0
v -16 -240 0
v 0 -240 0

# Texture cooridinates (Count = 9)
vt 0.2 0.6944444
vt 0.225 0.6944444
vt 0.225 0.7222222
vt 0.2 0.7222222
vt 0.175 0.6944444
vt 0.175 0.7222222
vt 0.2 0.75
vt 0.175 0.75
vt 0.225 0.75

# Normal
vn 0 0 -1

# Mesh description
g Village_mesh_0002

# Faces
f 1/1/1 2/2/1 3/3/1 4/4/1
f 5/5/1 6/1/1 7/4/1 8/6/1
f 9/1/1 10/2/1 11/3/1 12/4/1
f 13/1/1 14/2/1 15/3/1 16/4/1
f 17/5/1 18/1/1 19/4/1 20/6/1
f 21/6/1 22/4/1 23/7/1 24/8/1
f 25/6/1 26/4/1 27/7/1 28/8/1
f 29/6/1 30/4/1 31/7/1 32/8/1
f 33/6/1 34/4/1 35/7/1 36/8/1
f 37/4/1 38/3/1 39/9/1 40/7/1
f 41/6/1 42/4/1 43/7/1 44/8/1
f 45/6/1 46/4/1 47/7/1 48/8/1
f 49/5/1 50/1/1 51/4/1 52/6/1
f 53/4/1 54/3/1 55/9/1 56/7/1
f 57/1/1 58/2/1 59/3/1 60/4/1
f 61/1/1 62/2/1 63/3/1 64/4/1
f 65/4/1 66/3/1 67/9/1 68/7/1
f 69/6/1 70/4/1 71/7/1 72/8/1
f 73/1/1 74/2/1 75/3/1 76/4/1
f 77/6/1 78/4/1 79/7/1 80/8/1
f 81/6/1 82/4/1 83/7/1 84/8/1
f 85/4/1 86/3/1 87/9/1 88/7/1
f 89/4/1 90/3/1 91/9/1 92/7/1
f 93/5/1 94/1/1 95/4/1 96/6/1
f 97/5/1 98/1/1 99/4/1 100/6/1
f 101/1/1 102/2/1 103/3/1 104/4/1
f 105/4/1 106/3/1 107/9/1 108/7/1
f 109/4/1 110/3/1 111/9/1 112/7/1
f 113/6/1 114/4/1 115/7/1 116/8/1
f 117/4/1 118/3/1 119/9/1 120/7/1
f 121/6/1 122/4/1 123/7/1 124/8/1
f 125/1/1 126/2/1 127/3/1 128/4/1
f 129/1/1 130/2/1 131/3/1 132/4/1
f 133/6/1 134/4/1 135/7/1 136/8/1
f 137/4/1 138/3/1 139/9/1 140/7/1
f 141/5/1 142/1/1 143/4/1 144/6/1
f 145/6/1 146/4/1 147/7/1 148/8/1
f 149/4/1 150/3/1 151/9/1 152/7/1
f 153/4/1 154/3/1 155/9/1 156/7/1
f 157/5/1 158/1/1 159/4/1 160/6/1
f 161/6/1 162/4/1 163/7/1 164/8/1
f 165/1/1 166/2/1 167/3/1 168/4/1
f 169/4/1 170/3/1 171/9/1 172/7/1
f 173/4/1 174/3/1 175/9/1 176/7/1
f 177/6/1 178/4/1 179/7/1 180/8/1
f 181/1/1 182/2/1 183/3/1 184/4/1
f 185/1/1 186/2/1 187/3/1 188/4/1
f 189/1/1 190/2/1 191/3/1 192/4/1
f 193/5/1 194/1/1 195/4/1 196/6/1
f 197/4/1 198/3/1 199/9/1 200/7/1
f 201/4/1 202/3/1 203/9/1 204/7/1
f 205/1/1 206/2/1 207/3/1 208/4/1
f 209/6/1 210/4/1 211/7/1 212/8/1
f 213/5/1 214/1/1 215/4/1 216/6/1
f 217/6/1 218/4/1 219/7/1 220/8/1
f 221/6/1 222/4/1 223/7/1 224/8/1
f 225/6/1 226/4/1 227/7/1 228/8/1
f 229/6/1 230/4/1 231/7/1 232/8/1
f 233/5/1 234/1/1 235/4/1 236/6/1
f 237/1/1 238/2/1 239/3/1 240/4/1
f 241/4/1 242/3/1 243/9/1 244/7/1
f 245/1/1 246/2/1 247/3/1 248/4/1
f 249/4/1 250/3/1 251/9/1 252/7/1
f 253/4/1 254/3/1 255/9/1 256/7/1
f 257/1/1 258/2/1 259/3/1 260/4/1
f 261/1/1 262/2/1 263/3/1 264/4/1
f 265/1/1 266/2/1 267/3/1 268/4/1
f 269/6/1 270/4/1 271/7/1 272/8/1
f 273/4/1 274/3/1 275/9/1 276/7/1
f 277/4/1 278/3/1 279/9/1 280/7/1
f 281/5/1 282/1/1 283/4/1 284/6/1
f 285/4/1 286/3/1 287/9/1 288/7/1
f 289/5/1 290/1/1 291/4/1 292/6/1
f 293/1/1 294/2/1 295/3/1 296/4/1
f 297/5/1 298/1/1 299/4/1 300/6/1
f 301/6/1 302/4/1 303/7/1 304/8/1
f 305/4/1 306/3/1 307/9/1 308/7/1
f 309/6/1 310/4/1 311/7/1 312/8/1
f 313/5/1 314/1/1 315/4/1 316/6/1
f 317/6/1 318/4/1 319/7/1 320/8/1
f 321/1/1 322/2/1 323/3/1 324/4/1
f 325/4/1 326/3/1 327/9/1 328/7/1
f 329/6/1 330/4/1 331/7/1 332/8/1
f 333/1/1 334/2/1 335/3/1 336/4/1
f 337/6/1 338/4/1 339/7/1 340/8/1
f 341/5/1 342/1/1 343/4/1 344/6/1
f 345/5/1 346/1/1 347/4/1 348/6/1
f 349/1/1 350/2/1 351/3/1 352/4/1
f 353/6/1 354/4/1 355/7/1 356/8/1
f 357/1/1 358/2/1 359/3/1 360/4/1
f 361/1/1 362/2/1 363/3/1 364/4/1
f 365/4/1 366/3/1 367/9/1 368/7/1
f 369/4/1 370/3/1 371/9/1 372/7/1
f 373/1/1 374/2/1 375/3/1 376/4/1
f 377/6/1 378/4/1 379/7/1 380/8/1
f 381/6/1 382/4/1 383/7/1 384/8/1
f 385/6/1 386/4/1 387/7/1 388/8/1
f 389/6/1 390/4/1 391/7/1 392/8/1
f 393/4/1 394/3/1 395/9/1 396/7/1
f 397/6/1 398/4/1 399/7/1 400/8/1
f 401/4/1 402/3/1 403/9/1 404/7/1
f 405/6/1 406/4/1 407/7/1 408/8/1
f 409/1/1 410/2/1 411/3/1 412/4/1
f 413/6/1 414/4/1 415/7/1 416/8/1
f 417/1/1 418/2/1 419/3/1 420/4/1
f 421/4/1 422/3/1 423/9/1 424/7/1
f 425/1/1 426/2/1 427/3/1 428/4/1
f 429/6/1 430/4/1 431/7/1 432/8/1
f 433/5/1 434/1/1 435/4/1 436/6/1
f 437/5/1 438/1/1 439/4/1 440/6/1
f 441/5/1 442/1/1 443/4/1 444/6/1
f 445/1/1 446/2/1 447/3/1 448/4/1
f 449/5/1 450/1/1 451/4/1 452/6/1
f 453/6/1 454/4/1 455/7/1 456/8/1
f 457/5/1 458/1/1 459/4/1 460/6/1
f 461/6/1 462/4/1 463/7/1 464/8/1
f 465/4/1 466/3/1 467/9/1 468/7/1
f 469/6/1 470/4/1 471/7/1 472/8/1
f 473/5/1 474/1/1 475/4/1 476/6/1
f 477/1/1 478/2/1 479/3/1 480/4/1
f 481/5/1 482/1/1 483/4/1 484/6/1
f 485/4/1 486/3/1 487/9/1 488/7/1
f 489/4/1 490/3/1 491/9/1 492/7/1
f 493/1/1 494/2/1 495/3/1 496/4/1
f 497/4/1 498/3/1 499/9/1 500/7/1
f 501/5/1 502/1/1 503/4/1 504/6/1
f 505/5/1 506/1/1 507/4/1 508/6/1
f 509/6/1 510/4/1 511/7/1 512/8/1
f 513/5/1 514/1/1 515/4/1 516/6/1
f 517/1/1 518/2/1 519/3/1 520/4/1
f 521/5/1 522/1/1 523/4/1 524/6/1
f 525/1/1 526/2/1 527/3/1 528/4/1
f 529/6/1 530/4/1 531/7/1 532/8/1
f 533/5/1 534/1/1 535/4/1 536/6/1
f 537/1/1 538/2/1 539/3/1 540/4/1
f 541/6/1 542/4/1 543/7/1 544/8/1
f 545/4/1 546/3/1 547/9/1 548/7/1
f 549/4/1 550/3/1 551/9/1 552/7/1
f 553/6/1 554/4/1 555/7/1 556/8/1
f 557/5/1 558/1/1 559/4/1 560/6/1
f 561/5/1 562/1/1 563/4/1 564/6/1
f 565/6/1 566/4/1 567/7/1 568/8/1
f 569/5/1 570/1/1 571/4/1 572/6/1
f 573/6/1 574/4/1 575/7/1 576/8/1
f 577/4/1 578/3/1 579/9/1 580/7/1
f 581/4/1 582/3/1 583/9/1 584/7/1
f 585/5/1 586/1/1 587/4/1 588/6/1
f 589/6/1 590/4/1 591/7/1 592/8/1
f 593/4/1 594/3/1 595/9/1 596/7/1
f 597/5/1 598/1/1 599/4/1 600/6/1
f 601/4/1 602/3/1 603/9/1 604/7/1
f 605/5/1 606/1/1 607/4/1 608/6/1
f 609/6/1 610/4/1 611/7/1 612/8/1
f 613/4/1 614/3/1 615/9/1 616/7/1
f 617/5/1 618/1/1 619/4/1 620/6/1
f 621/5/1 622/1/1 623/4/1 624/6/1
f 625/6/1 626/4/1 627/7/1 628/8/1
f 629/1/1 630/2/1 631/3/1 632/4/1
f 633/4/1 634/3/1 635/9/1 636/7/1
f 637/5/1 638/1/1 639/4/1 640/6/1
f 641/1/1 642/2/1 643/3/1 644/4/1
f 645/4/1 646/3/1 647/9/1 648/7/1
f 649/6/1 650/4/1 651/7/1 652/8/1
f 653/1/1 654/2/1 655/3/1 656/4/1
f 657/1/1 658/2/1 659/3/1 660/4/1
f 661/1/1 662/2/1 663/3/1 664/4/1
f 665/4/1 666/3/1 667/9/1 668/7/1
f 669/4/1 670/3/1 671/9/1 672/7/1
f 673/6/1 674/4/1 675/7/1 676/8/1
f 677/4/1 678/3/1 679/9/1 680/7/1
f 681/5/1 682/1/1 683/4/1 684/6/1
f 685/6/1 686/4/1 687/7/1 688/8/1
f 689/4/1 690/3/1 691/9/1 692/7/1
f 693/1/1 694/2/1 695/3/1 696/4/1
f 697/4/1 698/3/1 699/9/1 700/7/1
f 701/5/1 702/1/1 703/4/1 704/6/1
f 705/1/1 706/2/1 707/3/1 708/4/1
f 709/1/1 710/2/1 711/3/1 712/4/1
f 713/1/1 714/2/1 715/3/1 716/4/1
f 717/5/1 718/1/1 719/4/1 720/6/1
f 721/4/1 722/3/1 723/9/1 724/7/1
f 725/1/1 726/2/1 727/3/1 728/4/1
f 729/1/1 730/2/1 731/3/1 732/4/1
f 733/5/1 734/1/1 735/4/1 736/6/1
f 737/6/1 738/4/1 739/7/1 740/8/1
f 741/5/1 742/1/1 743/4/1 744/6/1
f 745/1/1 746/2/1 747/3/1 748/4/1
f 749/5/1 750/1/1 751/4/1 752/6/1
f 753/1/1 754/2/1 755/3/1 756/4/1
f 757/6/1 758/4/1 759/7/1 760/8/1
f 761/6/1 762/4/1 763/7/1 764/8/1
f 765/4/1 766/3/1 767/9/1 768/7/1
f 769/1/1 770/2/1 771/3/1 772/4/1
f 773/6/1 774/4/1 775/7/1 776/8/1
f 777/5/1 778/1/1 779/4/1 780/6/1
f 781/5/1 782/1/1 783/4/1 784/6/1
f 785/5/1 786/1/1 787/4/1 788/6/1
f 789/5/1 790/1/1 791/4/1 792/6/1
f 793/5/1 794/1/1 795/4/1 796/6/1
f 797/6/1 798/4/1 799/7/1 800/8/1
f 801/4/1 802/3/1 803/9/1 804/7/1
f 805/5/1 806/1/1 807/4/1 808/6/1
f 809/5/1 810/1/1 811/4/1 812/6/1
f 813/6/1 814/4/1 815/7/1 816/8/1
f 817/4/1 818/3/1 819/9/1 820/7/1
f 821/4/1 822/3/1 823/9/1 824/7/1
f 825/4/1 826/3/1 827/9/1 828/7/1
f 829/6/1 830/4/1 831/7/1 832/8/1
f 833/5/1 834/1/1 835/4/1 836/6/1
f 837/5/1 838/1/1 839/4/1 840/6/1
f 841/1/1 842/2/1 843/3/1 844/4/1
f 845/6/1 846/4/1 847/7/1 848/8/1
f 849/1/1 850/2/1 851/3/1 852/4/1
f 853/4/1 854/3/1 855/9/1 856/7/1
f 857/5/1 858/1/1 859/4/1 860/6/1
f 861/5/1 862/1/1 863/4/1 864/6/1
f 865/5/1 866/1/1 867/4/1 868/6/1
f 869/5/1 870/1/1 871/4/1 872/6/1
f 873/4/1 874/3/1 875/9/1 876/7/1
f 877/4/1 878/3/1 879/9/1 880/7/1
f 881/1/1 882/2/1 883/3/1 884/4/1
f 885/1/1 886/2/1 887/3/1 888/4/1
f 889/1/1 890/2/1 891/3/1 892/4/1
f 893/4/1 894/3/1 895/9/1 896/7/1
f 897/6/1 898/4/1 899/7/1 900/8/1
f 901/1/1 902/2/1 903/3/1 904/4/1
f 905/5/1 906/1/1 907/4/1 908/6/1
f 909/4/1 910/3/1 911/9/1 912/7/1
f 913/4/1 914/3/1 915/9/1 916/7/1
f 917/5/1 918/1/1 919/4/1 920/6/1
f 921/6/1 922/4/1 923/7/1 924/8/1
f 925/5/1 926/1/1 927/4/1 928/6/1
f 929/5/1 930/1/1 931/4/1 932/6/1
f 933/4/1 934/3/1 935/9/1 936/7/1
f 937/6/1 938/4/1 939/7/1 940/8/1
f 941/5/1 942/1/1 943/4/1 944/6/1
f 945/5/1 946/1/1 947/4/1 948/6/1
f 949/4/1 950/3/1 951/9/1 952/7/1
f 953/6/1 954/4/1 955/7/1 956/8/1
f 957/6/1 958/4/1 959/7/1 960/8/1
f 961/6/1 962/4/1 963/7/1 964/8/1
f 965/6/1 966/4/1 967/7/1 968/8/1
f 969/6/1 970/4/1 971/7/1 972/8/1
f 973/1/1 974/2/1 975/3/1 976/4/1
f 977/4/1 978/3/1 979/9/1 980/7/1
f 981/4/1 982/3/1 983/9/1 984/7/1
f 985/5/1 986/1/1 987/4/1 988/6/1
f 989/1/1 990/2/1 991/3/1 992/4/1
f 993/4/1 994/3/1 995/9/1 996/7/1
f 997/5/1 998/1/1 999/4/1 1000/6/1
f 1001/4/1 1002/3/1 1003/9/1 1004/7/1
f 1005/5/1 1006/1/1 1007/4/1 1008/6/1
f 1009/1/1 1010/2/1 1011/3/1 1012/4/1
f 1013/4/1 1014/3/1 1015/9/1 1016/7/1
f 1017/4/1 1018/3/1 1019/9/1 1020/7/1
f 1021/4/1 1022/3/1 1023/9/1 1024/7/1

