# Tiled2Unity generated file. Do not modify by hand.
# Wavefront file for 'Village_mesh_0015.obj'

# Vertices (Count = 1024)
v -240 -16 0
v -256 -16 0
v -256 0 0
v -240 0 0
v -224 -16 0
v -240 -16 0
v -240 0 0
v -224 0 0
v -208 -16 0
v -224 -16 0
v -224 0 0
v -208 0 0
v -192 -16 0
v -208 -16 0
v -208 0 0
v -192 0 0
v -176 -16 0
v -192 -16 0
v -192 0 0
v -176 0 0
v -160 -16 0
v -176 -16 0
v -176 0 0
v -160 0 0
v -144 -16 0
v -160 -16 0
v -160 0 0
v -144 0 0
v -128 -16 0
v -144 -16 0
v -144 0 0
v -128 0 0
v -112 -16 0
v -128 -16 0
v -128 0 0
v -112 0 0
v -96 -16 0
v -112 -16 0
v -112 0 0
v -96 0 0
v -80 -16 0
v -96 -16 0
v -96 0 0
v -80 0 0
v -64 -16 0
v -80 -16 0
v -80 0 0
v -64 0 0
v -48 -16 0
v -64 -16 0
v -64 0 0
v -48 0 0
v -32 -16 0
v -48 -16 0
v -48 0 0
v -32 0 0
v -16 -16 0
v -32 -16 0
v -32 0 0
v -16 0 0
v 0 -16 0
v -16 -16 0
v -16 0 0
v 0 0 0
v -240 -32 0
v -256 -32 0
v -256 -16 0
v -240 -16 0
v -224 -32 0
v -240 -32 0
v -240 -16 0
v -224 -16 0
v -208 -32 0
v -224 -32 0
v -224 -16 0
v -208 -16 0
v -192 -32 0
v -208 -32 0
v -208 -16 0
v -192 -16 0
v -176 -32 0
v -192 -32 0
v -192 -16 0
v -176 -16 0
v -160 -32 0
v -176 -32 0
v -176 -16 0
v -160 -16 0
v -144 -32 0
v -160 -32 0
v -160 -16 0
v -144 -16 0
v -128 -32 0
v -144 -32 0
v -144 -16 0
v -128 -16 0
v -112 -32 0
v -128 -32 0
v -128 -16 0
v -112 -16 0
v -96 -32 0
v -112 -32 0
v -112 -16 0
v -96 -16 0
v -80 -32 0
v -96 -32 0
v -96 -16 0
v -80 -16 0
v -64 -32 0
v -80 -32 0
v -80 -16 0
v -64 -16 0
v -48 -32 0
v -64 -32 0
v -64 -16 0
v -48 -16 0
v -32 -32 0
v -48 -32 0
v -48 -16 0
v -32 -16 0
v -16 -32 0
v -32 -32 0
v -32 -16 0
v -16 -16 0
v 0 -32 0
v -16 -32 0
v -16 -16 0
v 0 -16 0
v -240 -48 0
v -256 -48 0
v -256 -32 0
v -240 -32 0
v -224 -48 0
v -240 -48 0
v -240 -32 0
v -224 -32 0
v -208 -48 0
v -224 -48 0
v -224 -32 0
v -208 -32 0
v -192 -48 0
v -208 -48 0
v -208 -32 0
v -192 -32 0
v -176 -48 0
v -192 -48 0
v -192 -32 0
v -176 -32 0
v -160 -48 0
v -176 -48 0
v -176 -32 0
v -160 -32 0
v -144 -48 0
v -160 -48 0
v -160 -32 0
v -144 -32 0
v -128 -48 0
v -144 -48 0
v -144 -32 0
v -128 -32 0
v -112 -48 0
v -128 -48 0
v -128 -32 0
v -112 -32 0
v -96 -48 0
v -112 -48 0
v -112 -32 0
v -96 -32 0
v -80 -48 0
v -96 -48 0
v -96 -32 0
v -80 -32 0
v -64 -48 0
v -80 -48 0
v -80 -32 0
v -64 -32 0
v -48 -48 0
v -64 -48 0
v -64 -32 0
v -48 -32 0
v -32 -48 0
v -48 -48 0
v -48 -32 0
v -32 -32 0
v -16 -48 0
v -32 -48 0
v -32 -32 0
v -16 -32 0
v 0 -48 0
v -16 -48 0
v -16 -32 0
v 0 -32 0
v -240 -64 0
v -256 -64 0
v -256 -48 0
v -240 -48 0
v -224 -64 0
v -240 -64 0
v -240 -48 0
v -224 -48 0
v -208 -64 0
v -224 -64 0
v -224 -48 0
v -208 -48 0
v -192 -64 0
v -208 -64 0
v -208 -48 0
v -192 -48 0
v -176 -64 0
v -192 -64 0
v -192 -48 0
v -176 -48 0
v -160 -64 0
v -176 -64 0
v -176 -48 0
v -160 -48 0
v -144 -64 0
v -160 -64 0
v -160 -48 0
v -144 -48 0
v -128 -64 0
v -144 -64 0
v -144 -48 0
v -128 -48 0
v -112 -64 0
v -128 -64 0
v -128 -48 0
v -112 -48 0
v -96 -64 0
v -112 -64 0
v -112 -48 0
v -96 -48 0
v -80 -64 0
v -96 -64 0
v -96 -48 0
v -80 -48 0
v -64 -64 0
v -80 -64 0
v -80 -48 0
v -64 -48 0
v -48 -64 0
v -64 -64 0
v -64 -48 0
v -48 -48 0
v -32 -64 0
v -48 -64 0
v -48 -48 0
v -32 -48 0
v -16 -64 0
v -32 -64 0
v -32 -48 0
v -16 -48 0
v 0 -64 0
v -16 -64 0
v -16 -48 0
v 0 -48 0
v -240 -80 0
v -256 -80 0
v -256 -64 0
v -240 -64 0
v -224 -80 0
v -240 -80 0
v -240 -64 0
v -224 -64 0
v -208 -80 0
v -224 -80 0
v -224 -64 0
v -208 -64 0
v -192 -80 0
v -208 -80 0
v -208 -64 0
v -192 -64 0
v -176 -80 0
v -192 -80 0
v -192 -64 0
v -176 -64 0
v -160 -80 0
v -176 -80 0
v -176 -64 0
v -160 -64 0
v -144 -80 0
v -160 -80 0
v -160 -64 0
v -144 -64 0
v -128 -80 0
v -144 -80 0
v -144 -64 0
v -128 -64 0
v -112 -80 0
v -128 -80 0
v -128 -64 0
v -112 -64 0
v -96 -80 0
v -112 -80 0
v -112 -64 0
v -96 -64 0
v -80 -80 0
v -96 -80 0
v -96 -64 0
v -80 -64 0
v -64 -80 0
v -80 -80 0
v -80 -64 0
v -64 -64 0
v -48 -80 0
v -64 -80 0
v -64 -64 0
v -48 -64 0
v -32 -80 0
v -48 -80 0
v -48 -64 0
v -32 -64 0
v -16 -80 0
v -32 -80 0
v -32 -64 0
v -16 -64 0
v 0 -80 0
v -16 -80 0
v -16 -64 0
v 0 -64 0
v -240 -96 0
v -256 -96 0
v -256 -80 0
v -240 -80 0
v -224 -96 0
v -240 -96 0
v -240 -80 0
v -224 -80 0
v -208 -96 0
v -224 -96 0
v -224 -80 0
v -208 -80 0
v -192 -96 0
v -208 -96 0
v -208 -80 0
v -192 -80 0
v -176 -96 0
v -192 -96 0
v -192 -80 0
v -176 -80 0
v -160 -96 0
v -176 -96 0
v -176 -80 0
v -160 -80 0
v -144 -96 0
v -160 -96 0
v -160 -80 0
v -144 -80 0
v -128 -96 0
v -144 -96 0
v -144 -80 0
v -128 -80 0
v -112 -96 0
v -128 -96 0
v -128 -80 0
v -112 -80 0
v -96 -96 0
v -112 -96 0
v -112 -80 0
v -96 -80 0
v -80 -96 0
v -96 -96 0
v -96 -80 0
v -80 -80 0
v -64 -96 0
v -80 -96 0
v -80 -80 0
v -64 -80 0
v -48 -96 0
v -64 -96 0
v -64 -80 0
v -48 -80 0
v -32 -96 0
v -48 -96 0
v -48 -80 0
v -32 -80 0
v -16 -96 0
v -32 -96 0
v -32 -80 0
v -16 -80 0
v 0 -96 0
v -16 -96 0
v -16 -80 0
v 0 -80 0
v -240 -112 0
v -256 -112 0
v -256 -96 0
v -240 -96 0
v -224 -112 0
v -240 -112 0
v -240 -96 0
v -224 -96 0
v -208 -112 0
v -224 -112 0
v -224 -96 0
v -208 -96 0
v -192 -112 0
v -208 -112 0
v -208 -96 0
v -192 -96 0
v -176 -112 0
v -192 -112 0
v -192 -96 0
v -176 -96 0
v -160 -112 0
v -176 -112 0
v -176 -96 0
v -160 -96 0
v -144 -112 0
v -160 -112 0
v -160 -96 0
v -144 -96 0
v -128 -112 0
v -144 -112 0
v -144 -96 0
v -128 -96 0
v -112 -112 0
v -128 -112 0
v -128 -96 0
v -112 -96 0
v -96 -112 0
v -112 -112 0
v -112 -96 0
v -96 -96 0
v -80 -112 0
v -96 -112 0
v -96 -96 0
v -80 -96 0
v -64 -112 0
v -80 -112 0
v -80 -96 0
v -64 -96 0
v -48 -112 0
v -64 -112 0
v -64 -96 0
v -48 -96 0
v -32 -112 0
v -48 -112 0
v -48 -96 0
v -32 -96 0
v -16 -112 0
v -32 -112 0
v -32 -96 0
v -16 -96 0
v 0 -112 0
v -16 -112 0
v -16 -96 0
v 0 -96 0
v -240 -128 0
v -256 -128 0
v -256 -112 0
v -240 -112 0
v -224 -128 0
v -240 -128 0
v -240 -112 0
v -224 -112 0
v -208 -128 0
v -224 -128 0
v -224 -112 0
v -208 -112 0
v -192 -128 0
v -208 -128 0
v -208 -112 0
v -192 -112 0
v -176 -128 0
v -192 -128 0
v -192 -112 0
v -176 -112 0
v -160 -128 0
v -176 -128 0
v -176 -112 0
v -160 -112 0
v -144 -128 0
v -160 -128 0
v -160 -112 0
v -144 -112 0
v -128 -128 0
v -144 -128 0
v -144 -112 0
v -128 -112 0
v -112 -128 0
v -128 -128 0
v -128 -112 0
v -112 -112 0
v -96 -128 0
v -112 -128 0
v -112 -112 0
v -96 -112 0
v -80 -128 0
v -96 -128 0
v -96 -112 0
v -80 -112 0
v -64 -128 0
v -80 -128 0
v -80 -112 0
v -64 -112 0
v -48 -128 0
v -64 -128 0
v -64 -112 0
v -48 -112 0
v -32 -128 0
v -48 -128 0
v -48 -112 0
v -32 -112 0
v -16 -128 0
v -32 -128 0
v -32 -112 0
v -16 -112 0
v 0 -128 0
v -16 -128 0
v -16 -112 0
v 0 -112 0
v -240 -144 0
v -256 -144 0
v -256 -128 0
v -240 -128 0
v -224 -144 0
v -240 -144 0
v -240 -128 0
v -224 -128 0
v -208 -144 0
v -224 -144 0
v -224 -128 0
v -208 -128 0
v -192 -144 0
v -208 -144 0
v -208 -128 0
v -192 -128 0
v -176 -144 0
v -192 -144 0
v -192 -128 0
v -176 -128 0
v -160 -144 0
v -176 -144 0
v -176 -128 0
v -160 -128 0
v -144 -144 0
v -160 -144 0
v -160 -128 0
v -144 -128 0
v -128 -144 0
v -144 -144 0
v -144 -128 0
v -128 -128 0
v -112 -144 0
v -128 -144 0
v -128 -128 0
v -112 -128 0
v -96 -144 0
v -112 -144 0
v -112 -128 0
v -96 -128 0
v -80 -144 0
v -96 -144 0
v -96 -128 0
v -80 -128 0
v -64 -144 0
v -80 -144 0
v -80 -128 0
v -64 -128 0
v -48 -144 0
v -64 -144 0
v -64 -128 0
v -48 -128 0
v -32 -144 0
v -48 -144 0
v -48 -128 0
v -32 -128 0
v -16 -144 0
v -32 -144 0
v -32 -128 0
v -16 -128 0
v 0 -144 0
v -16 -144 0
v -16 -128 0
v 0 -128 0
v -240 -160 0
v -256 -160 0
v -256 -144 0
v -240 -144 0
v -224 -160 0
v -240 -160 0
v -240 -144 0
v -224 -144 0
v -208 -160 0
v -224 -160 0
v -224 -144 0
v -208 -144 0
v -192 -160 0
v -208 -160 0
v -208 -144 0
v -192 -144 0
v -176 -160 0
v -192 -160 0
v -192 -144 0
v -176 -144 0
v -160 -160 0
v -176 -160 0
v -176 -144 0
v -160 -144 0
v -144 -160 0
v -160 -160 0
v -160 -144 0
v -144 -144 0
v -128 -160 0
v -144 -160 0
v -144 -144 0
v -128 -144 0
v -112 -160 0
v -128 -160 0
v -128 -144 0
v -112 -144 0
v -96 -160 0
v -112 -160 0
v -112 -144 0
v -96 -144 0
v -80 -160 0
v -96 -160 0
v -96 -144 0
v -80 -144 0
v -64 -160 0
v -80 -160 0
v -80 -144 0
v -64 -144 0
v -48 -160 0
v -64 -160 0
v -64 -144 0
v -48 -144 0
v -32 -160 0
v -48 -160 0
v -48 -144 0
v -32 -144 0
v -16 -160 0
v -32 -160 0
v -32 -144 0
v -16 -144 0
v 0 -160 0
v -16 -160 0
v -16 -144 0
v 0 -144 0
v -240 -176 0
v -256 -176 0
v -256 -160 0
v -240 -160 0
v -224 -176 0
v -240 -176 0
v -240 -160 0
v -224 -160 0
v -208 -176 0
v -224 -176 0
v -224 -160 0
v -208 -160 0
v -192 -176 0
v -208 -176 0
v -208 -160 0
v -192 -160 0
v -176 -176 0
v -192 -176 0
v -192 -160 0
v -176 -160 0
v -160 -176 0
v -176 -176 0
v -176 -160 0
v -160 -160 0
v -144 -176 0
v -160 -176 0
v -160 -160 0
v -144 -160 0
v -128 -176 0
v -144 -176 0
v -144 -160 0
v -128 -160 0
v -112 -176 0
v -128 -176 0
v -128 -160 0
v -112 -160 0
v -96 -176 0
v -112 -176 0
v -112 -160 0
v -96 -160 0
v -80 -176 0
v -96 -176 0
v -96 -160 0
v -80 -160 0
v -64 -176 0
v -80 -176 0
v -80 -160 0
v -64 -160 0
v -48 -176 0
v -64 -176 0
v -64 -160 0
v -48 -160 0
v -32 -176 0
v -48 -176 0
v -48 -160 0
v -32 -160 0
v -16 -176 0
v -32 -176 0
v -32 -160 0
v -16 -160 0
v 0 -176 0
v -16 -176 0
v -16 -160 0
v 0 -160 0
v -240 -192 0
v -256 -192 0
v -256 -176 0
v -240 -176 0
v -224 -192 0
v -240 -192 0
v -240 -176 0
v -224 -176 0
v -208 -192 0
v -224 -192 0
v -224 -176 0
v -208 -176 0
v -192 -192 0
v -208 -192 0
v -208 -176 0
v -192 -176 0
v -176 -192 0
v -192 -192 0
v -192 -176 0
v -176 -176 0
v -160 -192 0
v -176 -192 0
v -176 -176 0
v -160 -176 0
v -144 -192 0
v -160 -192 0
v -160 -176 0
v -144 -176 0
v -128 -192 0
v -144 -192 0
v -144 -176 0
v -128 -176 0
v -112 -192 0
v -128 -192 0
v -128 -176 0
v -112 -176 0
v -96 -192 0
v -112 -192 0
v -112 -176 0
v -96 -176 0
v -80 -192 0
v -96 -192 0
v -96 -176 0
v -80 -176 0
v -64 -192 0
v -80 -192 0
v -80 -176 0
v -64 -176 0
v -48 -192 0
v -64 -192 0
v -64 -176 0
v -48 -176 0
v -32 -192 0
v -48 -192 0
v -48 -176 0
v -32 -176 0
v -16 -192 0
v -32 -192 0
v -32 -176 0
v -16 -176 0
v 0 -192 0
v -16 -192 0
v -16 -176 0
v 0 -176 0
v -240 -208 0
v -256 -208 0
v -256 -192 0
v -240 -192 0
v -224 -208 0
v -240 -208 0
v -240 -192 0
v -224 -192 0
v -208 -208 0
v -224 -208 0
v -224 -192 0
v -208 -192 0
v -192 -208 0
v -208 -208 0
v -208 -192 0
v -192 -192 0
v -176 -208 0
v -192 -208 0
v -192 -192 0
v -176 -192 0
v -160 -208 0
v -176 -208 0
v -176 -192 0
v -160 -192 0
v -144 -208 0
v -160 -208 0
v -160 -192 0
v -144 -192 0
v -128 -208 0
v -144 -208 0
v -144 -192 0
v -128 -192 0
v -112 -208 0
v -128 -208 0
v -128 -192 0
v -112 -192 0
v -96 -208 0
v -112 -208 0
v -112 -192 0
v -96 -192 0
v -80 -208 0
v -96 -208 0
v -96 -192 0
v -80 -192 0
v -64 -208 0
v -80 -208 0
v -80 -192 0
v -64 -192 0
v -48 -208 0
v -64 -208 0
v -64 -192 0
v -48 -192 0
v -32 -208 0
v -48 -208 0
v -48 -192 0
v -32 -192 0
v -16 -208 0
v -32 -208 0
v -32 -192 0
v -16 -192 0
v 0 -208 0
v -16 -208 0
v -16 -192 0
v 0 -192 0
v -240 -224 0
v -256 -224 0
v -256 -208 0
v -240 -208 0
v -224 -224 0
v -240 -224 0
v -240 -208 0
v -224 -208 0
v -208 -224 0
v -224 -224 0
v -224 -208 0
v -208 -208 0
v -192 -224 0
v -208 -224 0
v -208 -208 0
v -192 -208 0
v -176 -224 0
v -192 -224 0
v -192 -208 0
v -176 -208 0
v -160 -224 0
v -176 -224 0
v -176 -208 0
v -160 -208 0
v -144 -224 0
v -160 -224 0
v -160 -208 0
v -144 -208 0
v -128 -224 0
v -144 -224 0
v -144 -208 0
v -128 -208 0
v -112 -224 0
v -128 -224 0
v -128 -208 0
v -112 -208 0
v -96 -224 0
v -112 -224 0
v -112 -208 0
v -96 -208 0
v -80 -224 0
v -96 -224 0
v -96 -208 0
v -80 -208 0
v -64 -224 0
v -80 -224 0
v -80 -208 0
v -64 -208 0
v -48 -224 0
v -64 -224 0
v -64 -208 0
v -48 -208 0
v -32 -224 0
v -48 -224 0
v -48 -208 0
v -32 -208 0
v -16 -224 0
v -32 -224 0
v -32 -208 0
v -16 -208 0
v 0 -224 0
v -16 -224 0
v -16 -208 0
v 0 -208 0
v -240 -240 0
v -256 -240 0
v -256 -224 0
v -240 -224 0
v -224 -240 0
v -240 -240 0
v -240 -224 0
v -224 -224 0
v -208 -240 0
v -224 -240 0
v -224 -224 0
v -208 -224 0
v -192 -240 0
v -208 -240 0
v -208 -224 0
v -192 -224 0
v -176 -240 0
v -192 -240 0
v -192 -224 0
v -176 -224 0
v -160 -240 0
v -176 -240 0
v -176 -224 0
v -160 -224 0
v -144 -240 0
v -160 -240 0
v -160 -224 0
v -144 -224 0
v -128 -240 0
v -144 -240 0
v -144 -224 0
v -128 -224 0
v -112 -240 0
v -128 -240 0
v -128 -224 0
v -112 -224 0
v -96 -240 0
v -112 -240 0
v -112 -224 0
v -96 -224 0
v -80 -240 0
v -96 -240 0
v -96 -224 0
v -80 -224 0
v -64 -240 0
v -80 -240 0
v -80 -224 0
v -64 -224 0
v -48 -240 0
v -64 -240 0
v -64 -224 0
v -48 -224 0
v -32 -240 0
v -48 -240 0
v -48 -224 0
v -32 -224 0
v -16 -240 0
v -32 -240 0
v -32 -224 0
v -16 -224 0
v 0 -240 0
v -16 -240 0
v -16 -224 0
v 0 -224 0
v -240 -256 0
v -256 -256 0
v -256 -240 0
v -240 -240 0
v -224 -256 0
v -240 -256 0
v -240 -240 0
v -224 -240 0
v -208 -256 0
v -224 -256 0
v -224 -240 0
v -208 -240 0
v -192 -256 0
v -208 -256 0
v -208 -240 0
v -192 -240 0
v -176 -256 0
v -192 -256 0
v -192 -240 0
v -176 -240 0
v -160 -256 0
v -176 -256 0
v -176 -240 0
v -160 -240 0
v -144 -256 0
v -160 -256 0
v -160 -240 0
v -144 -240 0
v -128 -256 0
v -144 -256 0
v -144 -240 0
v -128 -240 0
v -112 -256 0
v -128 -256 0
v -128 -240 0
v -112 -240 0
v -96 -256 0
v -112 -256 0
v -112 -240 0
v -96 -240 0
v -80 -256 0
v -96 -256 0
v -96 -240 0
v -80 -240 0
v -64 -256 0
v -80 -256 0
v -80 -240 0
v -64 -240 0
v -48 -256 0
v -64 -256 0
v -64 -240 0
v -48 -240 0
v -32 -256 0
v -48 -256 0
v -48 -240 0
v -32 -240 0
v -16 -256 0
v -32 -256 0
v -32 -240 0
v -16 -240 0
v 0 -256 0
v -16 -256 0
v -16 -240 0
v 0 -240 0

# Texture cooridinates (Count = 9)
vt 0.2 0.6944444
vt 0.225 0.6944444
vt 0.225 0.7222222
vt 0.2 0.7222222
vt 0.225 0.75
vt 0.2 0.75
vt 0.175 0.6944444
vt 0.175 0.7222222
vt 0.175 0.75

# Normal
vn 0 0 -1

# Mesh description
g Village_mesh_0015

# Faces
f 1/1/1 2/2/1 3/3/1 4/4/1
f 5/4/1 6/3/1 7/5/1 8/6/1
f 9/4/1 10/3/1 11/5/1 12/6/1
f 13/4/1 14/3/1 15/5/1 16/6/1
f 17/4/1 18/3/1 19/5/1 20/6/1
f 21/4/1 22/3/1 23/5/1 24/6/1
f 25/4/1 26/3/1 27/5/1 28/6/1
f 29/4/1 30/3/1 31/5/1 32/6/1
f 33/1/1 34/2/1 35/3/1 36/4/1
f 37/1/1 38/2/1 39/3/1 40/4/1
f 41/7/1 42/1/1 43/4/1 44/8/1
f 45/1/1 46/2/1 47/3/1 48/4/1
f 49/7/1 50/1/1 51/4/1 52/8/1
f 53/7/1 54/1/1 55/4/1 56/8/1
f 57/7/1 58/1/1 59/4/1 60/8/1
f 61/7/1 62/1/1 63/4/1 64/8/1
f 65/7/1 66/1/1 67/4/1 68/8/1
f 69/7/1 70/1/1 71/4/1 72/8/1
f 73/4/1 74/3/1 75/5/1 76/6/1
f 77/7/1 78/1/1 79/4/1 80/8/1
f 81/4/1 82/3/1 83/5/1 84/6/1
f 85/8/1 86/4/1 87/6/1 88/9/1
f 89/7/1 90/1/1 91/4/1 92/8/1
f 93/8/1 94/4/1 95/6/1 96/9/1
f 97/4/1 98/3/1 99/5/1 100/6/1
f 101/4/1 102/3/1 103/5/1 104/6/1
f 105/1/1 106/2/1 107/3/1 108/4/1
f 109/4/1 110/3/1 111/5/1 112/6/1
f 113/4/1 114/3/1 115/5/1 116/6/1
f 117/8/1 118/4/1 119/6/1 120/9/1
f 121/7/1 122/1/1 123/4/1 124/8/1
f 125/7/1 126/1/1 127/4/1 128/8/1
f 129/4/1 130/3/1 131/5/1 132/6/1
f 133/4/1 134/3/1 135/5/1 136/6/1
f 137/7/1 138/1/1 139/4/1 140/8/1
f 141/1/1 142/2/1 143/3/1 144/4/1
f 145/4/1 146/3/1 147/5/1 148/6/1
f 149/1/1 150/2/1 151/3/1 152/4/1
f 153/4/1 154/3/1 155/5/1 156/6/1
f 157/1/1 158/2/1 159/3/1 160/4/1
f 161/1/1 162/2/1 163/3/1 164/4/1
f 165/7/1 166/1/1 167/4/1 168/8/1
f 169/1/1 170/2/1 171/3/1 172/4/1
f 173/8/1 174/4/1 175/6/1 176/9/1
f 177/7/1 178/1/1 179/4/1 180/8/1
f 181/8/1 182/4/1 183/6/1 184/9/1
f 185/8/1 186/4/1 187/6/1 188/9/1
f 189/7/1 190/1/1 191/4/1 192/8/1
f 193/8/1 194/4/1 195/6/1 196/9/1
f 197/8/1 198/4/1 199/6/1 200/9/1
f 201/7/1 202/1/1 203/4/1 204/8/1
f 205/7/1 206/1/1 207/4/1 208/8/1
f 209/4/1 210/3/1 211/5/1 212/6/1
f 213/7/1 214/1/1 215/4/1 216/8/1
f 217/7/1 218/1/1 219/4/1 220/8/1
f 221/1/1 222/2/1 223/3/1 224/4/1
f 225/8/1 226/4/1 227/6/1 228/9/1
f 229/7/1 230/1/1 231/4/1 232/8/1
f 233/8/1 234/4/1 235/6/1 236/9/1
f 237/4/1 238/3/1 239/5/1 240/6/1
f 241/8/1 242/4/1 243/6/1 244/9/1
f 245/1/1 246/2/1 247/3/1 248/4/1
f 249/1/1 250/2/1 251/3/1 252/4/1
f 253/4/1 254/3/1 255/5/1 256/6/1
f 257/8/1 258/4/1 259/6/1 260/9/1
f 261/8/1 262/4/1 263/6/1 264/9/1
f 265/8/1 266/4/1 267/6/1 268/9/1
f 269/8/1 270/4/1 271/6/1 272/9/1
f 273/7/1 274/1/1 275/4/1 276/8/1
f 277/7/1 278/1/1 279/4/1 280/8/1
f 281/4/1 282/3/1 283/5/1 284/6/1
f 285/8/1 286/4/1 287/6/1 288/9/1
f 289/7/1 290/1/1 291/4/1 292/8/1
f 293/4/1 294/3/1 295/5/1 296/6/1
f 297/7/1 298/1/1 299/4/1 300/8/1
f 301/4/1 302/3/1 303/5/1 304/6/1
f 305/8/1 306/4/1 307/6/1 308/9/1
f 309/4/1 310/3/1 311/5/1 312/6/1
f 313/7/1 314/1/1 315/4/1 316/8/1
f 317/1/1 318/2/1 319/3/1 320/4/1
f 321/4/1 322/3/1 323/5/1 324/6/1
f 325/4/1 326/3/1 327/5/1 328/6/1
f 329/1/1 330/2/1 331/3/1 332/4/1
f 333/4/1 334/3/1 335/5/1 336/6/1
f 337/7/1 338/1/1 339/4/1 340/8/1
f 341/4/1 342/3/1 343/5/1 344/6/1
f 345/4/1 346/3/1 347/5/1 348/6/1
f 349/8/1 350/4/1 351/6/1 352/9/1
f 353/8/1 354/4/1 355/6/1 356/9/1
f 357/7/1 358/1/1 359/4/1 360/8/1
f 361/1/1 362/2/1 363/3/1 364/4/1
f 365/1/1 366/2/1 367/3/1 368/4/1
f 369/1/1 370/2/1 371/3/1 372/4/1
f 373/4/1 374/3/1 375/5/1 376/6/1
f 377/4/1 378/3/1 379/5/1 380/6/1
f 381/8/1 382/4/1 383/6/1 384/9/1
f 385/1/1 386/2/1 387/3/1 388/4/1
f 389/4/1 390/3/1 391/5/1 392/6/1
f 393/1/1 394/2/1 395/3/1 396/4/1
f 397/7/1 398/1/1 399/4/1 400/8/1
f 401/8/1 402/4/1 403/6/1 404/9/1
f 405/4/1 406/3/1 407/5/1 408/6/1
f 409/8/1 410/4/1 411/6/1 412/9/1
f 413/4/1 414/3/1 415/5/1 416/6/1
f 417/4/1 418/3/1 419/5/1 420/6/1
f 421/1/1 422/2/1 423/3/1 424/4/1
f 425/8/1 426/4/1 427/6/1 428/9/1
f 429/8/1 430/4/1 431/6/1 432/9/1
f 433/1/1 434/2/1 435/3/1 436/4/1
f 437/7/1 438/1/1 439/4/1 440/8/1
f 441/4/1 442/3/1 443/5/1 444/6/1
f 445/4/1 446/3/1 447/5/1 448/6/1
f 449/4/1 450/3/1 451/5/1 452/6/1
f 453/8/1 454/4/1 455/6/1 456/9/1
f 457/8/1 458/4/1 459/6/1 460/9/1
f 461/8/1 462/4/1 463/6/1 464/9/1
f 465/8/1 466/4/1 467/6/1 468/9/1
f 469/7/1 470/1/1 471/4/1 472/8/1
f 473/8/1 474/4/1 475/6/1 476/9/1
f 477/8/1 478/4/1 479/6/1 480/9/1
f 481/7/1 482/1/1 483/4/1 484/8/1
f 485/1/1 486/2/1 487/3/1 488/4/1
f 489/4/1 490/3/1 491/5/1 492/6/1
f 493/4/1 494/3/1 495/5/1 496/6/1
f 497/7/1 498/1/1 499/4/1 500/8/1
f 501/7/1 502/1/1 503/4/1 504/8/1
f 505/8/1 506/4/1 507/6/1 508/9/1
f 509/8/1 510/4/1 511/6/1 512/9/1
f 513/7/1 514/1/1 515/4/1 516/8/1
f 517/1/1 518/2/1 519/3/1 520/4/1
f 521/4/1 522/3/1 523/5/1 524/6/1
f 525/8/1 526/4/1 527/6/1 528/9/1
f 529/7/1 530/1/1 531/4/1 532/8/1
f 533/7/1 534/1/1 535/4/1 536/8/1
f 537/1/1 538/2/1 539/3/1 540/4/1
f 541/1/1 542/2/1 543/3/1 544/4/1
f 545/7/1 546/1/1 547/4/1 548/8/1
f 549/1/1 550/2/1 551/3/1 552/4/1
f 553/4/1 554/3/1 555/5/1 556/6/1
f 557/1/1 558/2/1 559/3/1 560/4/1
f 561/8/1 562/4/1 563/6/1 564/9/1
f 565/8/1 566/4/1 567/6/1 568/9/1
f 569/1/1 570/2/1 571/3/1 572/4/1
f 573/1/1 574/2/1 575/3/1 576/4/1
f 577/1/1 578/2/1 579/3/1 580/4/1
f 581/1/1 582/2/1 583/3/1 584/4/1
f 585/1/1 586/2/1 587/3/1 588/4/1
f 589/7/1 590/1/1 591/4/1 592/8/1
f 593/7/1 594/1/1 595/4/1 596/8/1
f 597/4/1 598/3/1 599/5/1 600/6/1
f 601/4/1 602/3/1 603/5/1 604/6/1
f 605/4/1 606/3/1 607/5/1 608/6/1
f 609/4/1 610/3/1 611/5/1 612/6/1
f 613/7/1 614/1/1 615/4/1 616/8/1
f 617/4/1 618/3/1 619/5/1 620/6/1
f 621/7/1 622/1/1 623/4/1 624/8/1
f 625/4/1 626/3/1 627/5/1 628/6/1
f 629/8/1 630/4/1 631/6/1 632/9/1
f 633/1/1 634/2/1 635/3/1 636/4/1
f 637/8/1 638/4/1 639/6/1 640/9/1
f 641/4/1 642/3/1 643/5/1 644/6/1
f 645/7/1 646/1/1 647/4/1 648/8/1
f 649/1/1 650/2/1 651/3/1 652/4/1
f 653/8/1 654/4/1 655/6/1 656/9/1
f 657/1/1 658/2/1 659/3/1 660/4/1
f 661/4/1 662/3/1 663/5/1 664/6/1
f 665/8/1 666/4/1 667/6/1 668/9/1
f 669/4/1 670/3/1 671/5/1 672/6/1
f 673/1/1 674/2/1 675/3/1 676/4/1
f 677/4/1 678/3/1 679/5/1 680/6/1
f 681/1/1 682/2/1 683/3/1 684/4/1
f 685/4/1 686/3/1 687/5/1 688/6/1
f 689/8/1 690/4/1 691/6/1 692/9/1
f 693/7/1 694/1/1 695/4/1 696/8/1
f 697/1/1 698/2/1 699/3/1 700/4/1
f 701/4/1 702/3/1 703/5/1 704/6/1
f 705/8/1 706/4/1 707/6/1 708/9/1
f 709/1/1 710/2/1 711/3/1 712/4/1
f 713/7/1 714/1/1 715/4/1 716/8/1
f 717/1/1 718/2/1 719/3/1 720/4/1
f 721/1/1 722/2/1 723/3/1 724/4/1
f 725/1/1 726/2/1 727/3/1 728/4/1
f 729/4/1 730/3/1 731/5/1 732/6/1
f 733/7/1 734/1/1 735/4/1 736/8/1
f 737/8/1 738/4/1 739/6/1 740/9/1
f 741/8/1 742/4/1 743/6/1 744/9/1
f 745/4/1 746/3/1 747/5/1 748/6/1
f 749/4/1 750/3/1 751/5/1 752/6/1
f 753/7/1 754/1/1 755/4/1 756/8/1
f 757/8/1 758/4/1 759/6/1 760/9/1
f 761/1/1 762/2/1 763/3/1 764/4/1
f 765/4/1 766/3/1 767/5/1 768/6/1
f 769/1/1 770/2/1 771/3/1 772/4/1
f 773/4/1 774/3/1 775/5/1 776/6/1
f 777/1/1 778/2/1 779/3/1 780/4/1
f 781/4/1 782/3/1 783/5/1 784/6/1
f 785/4/1 786/3/1 787/5/1 788/6/1
f 789/8/1 790/4/1 791/6/1 792/9/1
f 793/7/1 794/1/1 795/4/1 796/8/1
f 797/8/1 798/4/1 799/6/1 800/9/1
f 801/7/1 802/1/1 803/4/1 804/8/1
f 805/1/1 806/2/1 807/3/1 808/4/1
f 809/8/1 810/4/1 811/6/1 812/9/1
f 813/1/1 814/2/1 815/3/1 816/4/1
f 817/7/1 818/1/1 819/4/1 820/8/1
f 821/7/1 822/1/1 823/4/1 824/8/1
f 825/8/1 826/4/1 827/6/1 828/9/1
f 829/4/1 830/3/1 831/5/1 832/6/1
f 833/1/1 834/2/1 835/3/1 836/4/1
f 837/7/1 838/1/1 839/4/1 840/8/1
f 841/4/1 842/3/1 843/5/1 844/6/1
f 845/8/1 846/4/1 847/6/1 848/9/1
f 849/8/1 850/4/1 851/6/1 852/9/1
f 853/8/1 854/4/1 855/6/1 856/9/1
f 857/1/1 858/2/1 859/3/1 860/4/1
f 861/7/1 862/1/1 863/4/1 864/8/1
f 865/8/1 866/4/1 867/6/1 868/9/1
f 869/1/1 870/2/1 871/3/1 872/4/1
f 873/8/1 874/4/1 875/6/1 876/9/1
f 877/1/1 878/2/1 879/3/1 880/4/1
f 881/1/1 882/2/1 883/3/1 884/4/1
f 885/7/1 886/1/1 887/4/1 888/8/1
f 889/1/1 890/2/1 891/3/1 892/4/1
f 893/7/1 894/1/1 895/4/1 896/8/1
f 897/7/1 898/1/1 899/4/1 900/8/1
f 901/4/1 902/3/1 903/5/1 904/6/1
f 905/8/1 906/4/1 907/6/1 908/9/1
f 909/8/1 910/4/1 911/6/1 912/9/1
f 913/4/1 914/3/1 915/5/1 916/6/1
f 917/4/1 918/3/1 919/5/1 920/6/1
f 921/7/1 922/1/1 923/4/1 924/8/1
f 925/1/1 926/2/1 927/3/1 928/4/1
f 929/4/1 930/3/1 931/5/1 932/6/1
f 933/8/1 934/4/1 935/6/1 936/9/1
f 937/1/1 938/2/1 939/3/1 940/4/1
f 941/4/1 942/3/1 943/5/1 944/6/1
f 945/4/1 946/3/1 947/5/1 948/6/1
f 949/8/1 950/4/1 951/6/1 952/9/1
f 953/1/1 954/2/1 955/3/1 956/4/1
f 957/1/1 958/2/1 959/3/1 960/4/1
f 961/7/1 962/1/1 963/4/1 964/8/1
f 965/4/1 966/3/1 967/5/1 968/6/1
f 969/8/1 970/4/1 971/6/1 972/9/1
f 973/4/1 974/3/1 975/5/1 976/6/1
f 977/1/1 978/2/1 979/3/1 980/4/1
f 981/4/1 982/3/1 983/5/1 984/6/1
f 985/8/1 986/4/1 987/6/1 988/9/1
f 989/8/1 990/4/1 991/6/1 992/9/1
f 993/7/1 994/1/1 995/4/1 996/8/1
f 997/4/1 998/3/1 999/5/1 1000/6/1
f 1001/8/1 1002/4/1 1003/6/1 1004/9/1
f 1005/4/1 1006/3/1 1007/5/1 1008/6/1
f 1009/4/1 1010/3/1 1011/5/1 1012/6/1
f 1013/4/1 1014/3/1 1015/5/1 1016/6/1
f 1017/4/1 1018/3/1 1019/5/1 1020/6/1
f 1021/8/1 1022/4/1 1023/6/1 1024/9/1

