# Tiled2Unity generated file. Do not modify by hand.
# Wavefront file for 'Village_mesh_0133.obj'

# Vertices (Count = 8)
v -64 -208 0
v -80 -208 0
v -80 -192 0
v -64 -192 0
v -48 -208 0
v -64 -208 0
v -64 -192 0
v -48 -192 0

# Texture cooridinates (Count = 6)
vt 0.140625 0.2460318
vt 0.15625 0.2460318
vt 0.15625 0.2539682
vt 0.140625 0.2539682
vt 0.125 0.2460318
vt 0.125 0.2539682

# Normal
vn 0 0 -1

# Mesh description
g Village_mesh_0133

# Faces
f 1/1/1 2/2/1 3/3/1 4/4/1
f 5/5/1 6/1/1 7/4/1 8/6/1

